M48
; DRILL file {KiCad 8.0.8} date 2025-02-12T12:00:39+0100
; FORMAT={-:-/ absolute / metric / decimal}
; #@! TF.CreationDate,2025-02-12T12:00:39+01:00
; #@! TF.GenerationSoftware,Kicad,Pcbnew,8.0.8
; #@! TF.FileFunction,Plated,1,2,PTH
FMAT,2
METRIC
; #@! TA.AperFunction,Plated,PTH,ComponentDrill
T1C0.762
; #@! TA.AperFunction,Plated,PTH,ComponentDrill
T2C0.800
; #@! TA.AperFunction,Plated,PTH,ComponentDrill
T3C0.900
; #@! TA.AperFunction,Plated,PTH,ComponentDrill
T4C1.000
; #@! TA.AperFunction,Plated,PTH,ComponentDrill
T5C1.100
; #@! TA.AperFunction,Plated,PTH,ComponentDrill
T6C1.500
; #@! TA.AperFunction,Plated,PTH,ComponentDrill
T7C2.000
%
G90
G05
T1
X58.724Y-84.44
X61.264Y-84.44
X63.804Y-84.44
T2
X73.968Y-66.69
X76.558Y-61.63
X79.098Y-61.63
X81.588Y-66.69
X114.664Y-35.99
X114.664Y-41.14
X114.664Y-46.29
X122.236Y-102.12
X122.246Y-97.02
X122.284Y-35.99
X122.284Y-41.14
X122.284Y-46.29
X129.856Y-102.12
X129.866Y-97.02
X137.904Y-39.17
X137.904Y-41.17
X137.904Y-43.17
T3
X127.404Y-38.005
X127.404Y-40.164
X127.404Y-42.323
X127.404Y-44.482
T4
X58.774Y-56.49
X61.274Y-56.49
X61.285Y-112.289
X63.774Y-56.49
X63.825Y-94.509
X63.825Y-112.289
X66.365Y-94.509
X66.365Y-112.289
X68.905Y-94.509
X68.905Y-112.289
X71.445Y-94.509
X71.445Y-112.289
X73.985Y-112.289
X75.253Y-74.199
X75.253Y-79.274
X75.253Y-84.349
X77.793Y-74.199
X77.793Y-79.274
X77.793Y-84.349
X80.333Y-74.199
X80.333Y-79.274
X80.333Y-84.349
X82.873Y-84.349
X86.724Y-112.3
X89.204Y-41.24
X89.204Y-43.78
X89.204Y-46.32
X89.204Y-48.86
X89.204Y-51.4
X89.204Y-53.94
X89.204Y-56.48
X89.204Y-59.02
X89.204Y-61.56
X89.204Y-64.1
X89.204Y-66.64
X89.204Y-69.18
X89.204Y-71.72
X89.204Y-74.26
X89.204Y-76.8
X89.204Y-79.34
X89.264Y-112.3
X91.804Y-112.3
X94.344Y-112.3
X94.364Y-94.55
X96.884Y-112.3
X96.904Y-94.55
X99.424Y-112.3
X99.444Y-94.55
X101.964Y-112.3
X101.984Y-94.55
X104.504Y-112.3
X104.524Y-94.55
X107.044Y-112.3
X107.064Y-94.55
X109.524Y-51.4
X109.524Y-53.94
X109.524Y-56.48
X109.524Y-59.02
X109.524Y-61.56
X109.524Y-64.1
X109.524Y-66.64
X109.524Y-69.18
X109.524Y-71.72
X109.524Y-74.26
X109.524Y-76.8
X109.524Y-79.34
X109.584Y-112.3
X112.124Y-112.3
X114.664Y-112.3
X122.238Y-107.215
X124.778Y-107.215
X127.318Y-107.215
X129.858Y-107.215
X137.474Y-97.14
X137.474Y-99.68
X137.474Y-102.22
X137.474Y-104.76
X137.474Y-107.3
X137.474Y-109.84
T5
X74.624Y-46.57
X74.624Y-51.07
X81.124Y-46.57
X81.124Y-51.07
T6
X137.904Y-37.07
X137.904Y-45.27
T7
X56.524Y-48.99
X66.024Y-48.99
M30
