G04 #@! TF.GenerationSoftware,KiCad,Pcbnew,8.0.8*
G04 #@! TF.CreationDate,2025-02-10T20:43:35+01:00*
G04 #@! TF.ProjectId,tesi,74657369-2e6b-4696-9361-645f70636258,rev?*
G04 #@! TF.SameCoordinates,Original*
G04 #@! TF.FileFunction,Legend,Top*
G04 #@! TF.FilePolarity,Positive*
%FSLAX46Y46*%
G04 Gerber Fmt 4.6, Leading zero omitted, Abs format (unit mm)*
G04 Created by KiCad (PCBNEW 8.0.8) date 2025-02-10 20:43:35*
%MOMM*%
%LPD*%
G01*
G04 APERTURE LIST*
G04 Aperture macros list*
%AMRoundRect*
0 Rectangle with rounded corners*
0 $1 Rounding radius*
0 $2 $3 $4 $5 $6 $7 $8 $9 X,Y pos of 4 corners*
0 Add a 4 corners polygon primitive as box body*
4,1,4,$2,$3,$4,$5,$6,$7,$8,$9,$2,$3,0*
0 Add four circle primitives for the rounded corners*
1,1,$1+$1,$2,$3*
1,1,$1+$1,$4,$5*
1,1,$1+$1,$6,$7*
1,1,$1+$1,$8,$9*
0 Add four rect primitives between the rounded corners*
20,1,$1+$1,$2,$3,$4,$5,0*
20,1,$1+$1,$4,$5,$6,$7,0*
20,1,$1+$1,$6,$7,$8,$9,0*
20,1,$1+$1,$8,$9,$2,$3,0*%
G04 Aperture macros list end*
%ADD10C,0.200000*%
%ADD11C,0.100000*%
%ADD12C,0.300000*%
%ADD13C,0.150000*%
%ADD14C,0.120000*%
%ADD15C,1.600000*%
%ADD16O,1.600000X1.600000*%
%ADD17RoundRect,0.250000X-1.050000X-0.550000X1.050000X-0.550000X1.050000X0.550000X-1.050000X0.550000X0*%
%ADD18O,2.600000X1.600000*%
%ADD19C,8.000000*%
%ADD20C,3.200000*%
%ADD21O,2.200000X3.500000*%
%ADD22R,1.500000X2.500000*%
%ADD23O,1.500000X2.500000*%
%ADD24C,1.524000*%
%ADD25R,1.800000X1.800000*%
%ADD26C,1.800000*%
%ADD27C,2.000000*%
%ADD28O,4.000000X4.000000*%
G04 APERTURE END LIST*
D10*
X123234063Y-99583556D02*
X123329301Y-99583556D01*
X123329301Y-99583556D02*
X123424539Y-99631175D01*
X123424539Y-99631175D02*
X123472158Y-99678794D01*
X123472158Y-99678794D02*
X123519777Y-99774032D01*
X123519777Y-99774032D02*
X123567396Y-99964508D01*
X123567396Y-99964508D02*
X123567396Y-100202603D01*
X123567396Y-100202603D02*
X123519777Y-100393079D01*
X123519777Y-100393079D02*
X123472158Y-100488317D01*
X123472158Y-100488317D02*
X123424539Y-100535937D01*
X123424539Y-100535937D02*
X123329301Y-100583556D01*
X123329301Y-100583556D02*
X123234063Y-100583556D01*
X123234063Y-100583556D02*
X123138825Y-100535937D01*
X123138825Y-100535937D02*
X123091206Y-100488317D01*
X123091206Y-100488317D02*
X123043587Y-100393079D01*
X123043587Y-100393079D02*
X122995968Y-100202603D01*
X122995968Y-100202603D02*
X122995968Y-99964508D01*
X122995968Y-99964508D02*
X123043587Y-99774032D01*
X123043587Y-99774032D02*
X123091206Y-99678794D01*
X123091206Y-99678794D02*
X123138825Y-99631175D01*
X123138825Y-99631175D02*
X123234063Y-99583556D01*
X123948349Y-99678794D02*
X123995968Y-99631175D01*
X123995968Y-99631175D02*
X124091206Y-99583556D01*
X124091206Y-99583556D02*
X124329301Y-99583556D01*
X124329301Y-99583556D02*
X124424539Y-99631175D01*
X124424539Y-99631175D02*
X124472158Y-99678794D01*
X124472158Y-99678794D02*
X124519777Y-99774032D01*
X124519777Y-99774032D02*
X124519777Y-99869270D01*
X124519777Y-99869270D02*
X124472158Y-100012127D01*
X124472158Y-100012127D02*
X123900730Y-100583556D01*
X123900730Y-100583556D02*
X124519777Y-100583556D01*
X125662634Y-99535937D02*
X124805492Y-100821651D01*
X125948349Y-99678794D02*
X125995968Y-99631175D01*
X125995968Y-99631175D02*
X126091206Y-99583556D01*
X126091206Y-99583556D02*
X126329301Y-99583556D01*
X126329301Y-99583556D02*
X126424539Y-99631175D01*
X126424539Y-99631175D02*
X126472158Y-99678794D01*
X126472158Y-99678794D02*
X126519777Y-99774032D01*
X126519777Y-99774032D02*
X126519777Y-99869270D01*
X126519777Y-99869270D02*
X126472158Y-100012127D01*
X126472158Y-100012127D02*
X125900730Y-100583556D01*
X125900730Y-100583556D02*
X126519777Y-100583556D01*
X127138825Y-99583556D02*
X127234063Y-99583556D01*
X127234063Y-99583556D02*
X127329301Y-99631175D01*
X127329301Y-99631175D02*
X127376920Y-99678794D01*
X127376920Y-99678794D02*
X127424539Y-99774032D01*
X127424539Y-99774032D02*
X127472158Y-99964508D01*
X127472158Y-99964508D02*
X127472158Y-100202603D01*
X127472158Y-100202603D02*
X127424539Y-100393079D01*
X127424539Y-100393079D02*
X127376920Y-100488317D01*
X127376920Y-100488317D02*
X127329301Y-100535937D01*
X127329301Y-100535937D02*
X127234063Y-100583556D01*
X127234063Y-100583556D02*
X127138825Y-100583556D01*
X127138825Y-100583556D02*
X127043587Y-100535937D01*
X127043587Y-100535937D02*
X126995968Y-100488317D01*
X126995968Y-100488317D02*
X126948349Y-100393079D01*
X126948349Y-100393079D02*
X126900730Y-100202603D01*
X126900730Y-100202603D02*
X126900730Y-99964508D01*
X126900730Y-99964508D02*
X126948349Y-99774032D01*
X126948349Y-99774032D02*
X126995968Y-99678794D01*
X126995968Y-99678794D02*
X127043587Y-99631175D01*
X127043587Y-99631175D02*
X127138825Y-99583556D01*
X127853111Y-99678794D02*
X127900730Y-99631175D01*
X127900730Y-99631175D02*
X127995968Y-99583556D01*
X127995968Y-99583556D02*
X128234063Y-99583556D01*
X128234063Y-99583556D02*
X128329301Y-99631175D01*
X128329301Y-99631175D02*
X128376920Y-99678794D01*
X128376920Y-99678794D02*
X128424539Y-99774032D01*
X128424539Y-99774032D02*
X128424539Y-99869270D01*
X128424539Y-99869270D02*
X128376920Y-100012127D01*
X128376920Y-100012127D02*
X127805492Y-100583556D01*
X127805492Y-100583556D02*
X128424539Y-100583556D01*
X129329301Y-99583556D02*
X128853111Y-99583556D01*
X128853111Y-99583556D02*
X128805492Y-100059746D01*
X128805492Y-100059746D02*
X128853111Y-100012127D01*
X128853111Y-100012127D02*
X128948349Y-99964508D01*
X128948349Y-99964508D02*
X129186444Y-99964508D01*
X129186444Y-99964508D02*
X129281682Y-100012127D01*
X129281682Y-100012127D02*
X129329301Y-100059746D01*
X129329301Y-100059746D02*
X129376920Y-100154984D01*
X129376920Y-100154984D02*
X129376920Y-100393079D01*
X129376920Y-100393079D02*
X129329301Y-100488317D01*
X129329301Y-100488317D02*
X129281682Y-100535937D01*
X129281682Y-100535937D02*
X129186444Y-100583556D01*
X129186444Y-100583556D02*
X128948349Y-100583556D01*
X128948349Y-100583556D02*
X128853111Y-100535937D01*
X128853111Y-100535937D02*
X128805492Y-100488317D01*
X130567397Y-100202603D02*
X131329302Y-100202603D01*
X132472159Y-99916889D02*
X132710254Y-100583556D01*
X132710254Y-100583556D02*
X132948349Y-99916889D01*
X133853111Y-100583556D02*
X133281683Y-100583556D01*
X133567397Y-100583556D02*
X133567397Y-99583556D01*
X133567397Y-99583556D02*
X133472159Y-99726413D01*
X133472159Y-99726413D02*
X133376921Y-99821651D01*
X133376921Y-99821651D02*
X133281683Y-99869270D01*
X134281683Y-100488317D02*
X134329302Y-100535937D01*
X134329302Y-100535937D02*
X134281683Y-100583556D01*
X134281683Y-100583556D02*
X134234064Y-100535937D01*
X134234064Y-100535937D02*
X134281683Y-100488317D01*
X134281683Y-100488317D02*
X134281683Y-100583556D01*
X134948349Y-99583556D02*
X135043587Y-99583556D01*
X135043587Y-99583556D02*
X135138825Y-99631175D01*
X135138825Y-99631175D02*
X135186444Y-99678794D01*
X135186444Y-99678794D02*
X135234063Y-99774032D01*
X135234063Y-99774032D02*
X135281682Y-99964508D01*
X135281682Y-99964508D02*
X135281682Y-100202603D01*
X135281682Y-100202603D02*
X135234063Y-100393079D01*
X135234063Y-100393079D02*
X135186444Y-100488317D01*
X135186444Y-100488317D02*
X135138825Y-100535937D01*
X135138825Y-100535937D02*
X135043587Y-100583556D01*
X135043587Y-100583556D02*
X134948349Y-100583556D01*
X134948349Y-100583556D02*
X134853111Y-100535937D01*
X134853111Y-100535937D02*
X134805492Y-100488317D01*
X134805492Y-100488317D02*
X134757873Y-100393079D01*
X134757873Y-100393079D02*
X134710254Y-100202603D01*
X134710254Y-100202603D02*
X134710254Y-99964508D01*
X134710254Y-99964508D02*
X134757873Y-99774032D01*
X134757873Y-99774032D02*
X134805492Y-99678794D01*
X134805492Y-99678794D02*
X134853111Y-99631175D01*
X134853111Y-99631175D02*
X134948349Y-99583556D01*
D11*
X124713357Y-71672419D02*
X124713357Y-72386704D01*
X124713357Y-72386704D02*
X124665738Y-72529561D01*
X124665738Y-72529561D02*
X124570500Y-72624800D01*
X124570500Y-72624800D02*
X124427643Y-72672419D01*
X124427643Y-72672419D02*
X124332405Y-72672419D01*
X125665738Y-72672419D02*
X125189548Y-72672419D01*
X125189548Y-72672419D02*
X125189548Y-71672419D01*
X126570500Y-72577180D02*
X126522881Y-72624800D01*
X126522881Y-72624800D02*
X126380024Y-72672419D01*
X126380024Y-72672419D02*
X126284786Y-72672419D01*
X126284786Y-72672419D02*
X126141929Y-72624800D01*
X126141929Y-72624800D02*
X126046691Y-72529561D01*
X126046691Y-72529561D02*
X125999072Y-72434323D01*
X125999072Y-72434323D02*
X125951453Y-72243847D01*
X125951453Y-72243847D02*
X125951453Y-72100990D01*
X125951453Y-72100990D02*
X125999072Y-71910514D01*
X125999072Y-71910514D02*
X126046691Y-71815276D01*
X126046691Y-71815276D02*
X126141929Y-71720038D01*
X126141929Y-71720038D02*
X126284786Y-71672419D01*
X126284786Y-71672419D02*
X126380024Y-71672419D01*
X126380024Y-71672419D02*
X126522881Y-71720038D01*
X126522881Y-71720038D02*
X126570500Y-71767657D01*
X127284786Y-71672419D02*
X127284786Y-72386704D01*
X127284786Y-72386704D02*
X127237167Y-72529561D01*
X127237167Y-72529561D02*
X127141929Y-72624800D01*
X127141929Y-72624800D02*
X126999072Y-72672419D01*
X126999072Y-72672419D02*
X126903834Y-72672419D01*
X128237167Y-72672419D02*
X127760977Y-72672419D01*
X127760977Y-72672419D02*
X127760977Y-71672419D01*
X129141929Y-72577180D02*
X129094310Y-72624800D01*
X129094310Y-72624800D02*
X128951453Y-72672419D01*
X128951453Y-72672419D02*
X128856215Y-72672419D01*
X128856215Y-72672419D02*
X128713358Y-72624800D01*
X128713358Y-72624800D02*
X128618120Y-72529561D01*
X128618120Y-72529561D02*
X128570501Y-72434323D01*
X128570501Y-72434323D02*
X128522882Y-72243847D01*
X128522882Y-72243847D02*
X128522882Y-72100990D01*
X128522882Y-72100990D02*
X128570501Y-71910514D01*
X128570501Y-71910514D02*
X128618120Y-71815276D01*
X128618120Y-71815276D02*
X128713358Y-71720038D01*
X128713358Y-71720038D02*
X128856215Y-71672419D01*
X128856215Y-71672419D02*
X128951453Y-71672419D01*
X128951453Y-71672419D02*
X129094310Y-71720038D01*
X129094310Y-71720038D02*
X129141929Y-71767657D01*
X129856215Y-71672419D02*
X129856215Y-72386704D01*
X129856215Y-72386704D02*
X129808596Y-72529561D01*
X129808596Y-72529561D02*
X129713358Y-72624800D01*
X129713358Y-72624800D02*
X129570501Y-72672419D01*
X129570501Y-72672419D02*
X129475263Y-72672419D01*
X130808596Y-72672419D02*
X130332406Y-72672419D01*
X130332406Y-72672419D02*
X130332406Y-71672419D01*
X131713358Y-72577180D02*
X131665739Y-72624800D01*
X131665739Y-72624800D02*
X131522882Y-72672419D01*
X131522882Y-72672419D02*
X131427644Y-72672419D01*
X131427644Y-72672419D02*
X131284787Y-72624800D01*
X131284787Y-72624800D02*
X131189549Y-72529561D01*
X131189549Y-72529561D02*
X131141930Y-72434323D01*
X131141930Y-72434323D02*
X131094311Y-72243847D01*
X131094311Y-72243847D02*
X131094311Y-72100990D01*
X131094311Y-72100990D02*
X131141930Y-71910514D01*
X131141930Y-71910514D02*
X131189549Y-71815276D01*
X131189549Y-71815276D02*
X131284787Y-71720038D01*
X131284787Y-71720038D02*
X131427644Y-71672419D01*
X131427644Y-71672419D02*
X131522882Y-71672419D01*
X131522882Y-71672419D02*
X131665739Y-71720038D01*
X131665739Y-71720038D02*
X131713358Y-71767657D01*
X132427644Y-71672419D02*
X132427644Y-72386704D01*
X132427644Y-72386704D02*
X132380025Y-72529561D01*
X132380025Y-72529561D02*
X132284787Y-72624800D01*
X132284787Y-72624800D02*
X132141930Y-72672419D01*
X132141930Y-72672419D02*
X132046692Y-72672419D01*
X133380025Y-72672419D02*
X132903835Y-72672419D01*
X132903835Y-72672419D02*
X132903835Y-71672419D01*
X134284787Y-72577180D02*
X134237168Y-72624800D01*
X134237168Y-72624800D02*
X134094311Y-72672419D01*
X134094311Y-72672419D02*
X133999073Y-72672419D01*
X133999073Y-72672419D02*
X133856216Y-72624800D01*
X133856216Y-72624800D02*
X133760978Y-72529561D01*
X133760978Y-72529561D02*
X133713359Y-72434323D01*
X133713359Y-72434323D02*
X133665740Y-72243847D01*
X133665740Y-72243847D02*
X133665740Y-72100990D01*
X133665740Y-72100990D02*
X133713359Y-71910514D01*
X133713359Y-71910514D02*
X133760978Y-71815276D01*
X133760978Y-71815276D02*
X133856216Y-71720038D01*
X133856216Y-71720038D02*
X133999073Y-71672419D01*
X133999073Y-71672419D02*
X134094311Y-71672419D01*
X134094311Y-71672419D02*
X134237168Y-71720038D01*
X134237168Y-71720038D02*
X134284787Y-71767657D01*
D12*
X59340174Y-56902923D02*
X60654460Y-56902923D01*
X59997317Y-59202923D02*
X59997317Y-56902923D01*
X61421127Y-57998161D02*
X62187793Y-57998161D01*
X62516365Y-59202923D02*
X61421127Y-59202923D01*
X61421127Y-59202923D02*
X61421127Y-56902923D01*
X61421127Y-56902923D02*
X62516365Y-56902923D01*
X63392555Y-59093400D02*
X63721126Y-59202923D01*
X63721126Y-59202923D02*
X64268745Y-59202923D01*
X64268745Y-59202923D02*
X64487793Y-59093400D01*
X64487793Y-59093400D02*
X64597317Y-58983876D01*
X64597317Y-58983876D02*
X64706840Y-58764828D01*
X64706840Y-58764828D02*
X64706840Y-58545780D01*
X64706840Y-58545780D02*
X64597317Y-58326733D01*
X64597317Y-58326733D02*
X64487793Y-58217209D01*
X64487793Y-58217209D02*
X64268745Y-58107685D01*
X64268745Y-58107685D02*
X63830650Y-57998161D01*
X63830650Y-57998161D02*
X63611602Y-57888638D01*
X63611602Y-57888638D02*
X63502079Y-57779114D01*
X63502079Y-57779114D02*
X63392555Y-57560066D01*
X63392555Y-57560066D02*
X63392555Y-57341019D01*
X63392555Y-57341019D02*
X63502079Y-57121971D01*
X63502079Y-57121971D02*
X63611602Y-57012447D01*
X63611602Y-57012447D02*
X63830650Y-56902923D01*
X63830650Y-56902923D02*
X64378269Y-56902923D01*
X64378269Y-56902923D02*
X64706840Y-57012447D01*
X65692555Y-59202923D02*
X65692555Y-56902923D01*
D13*
X125067092Y-59284367D02*
X124733759Y-58808176D01*
X124495664Y-59284367D02*
X124495664Y-58284367D01*
X124495664Y-58284367D02*
X124876616Y-58284367D01*
X124876616Y-58284367D02*
X124971854Y-58331986D01*
X124971854Y-58331986D02*
X125019473Y-58379605D01*
X125019473Y-58379605D02*
X125067092Y-58474843D01*
X125067092Y-58474843D02*
X125067092Y-58617700D01*
X125067092Y-58617700D02*
X125019473Y-58712938D01*
X125019473Y-58712938D02*
X124971854Y-58760557D01*
X124971854Y-58760557D02*
X124876616Y-58808176D01*
X124876616Y-58808176D02*
X124495664Y-58808176D01*
X125924235Y-58617700D02*
X125924235Y-59284367D01*
X125686140Y-58236748D02*
X125448045Y-58951033D01*
X125448045Y-58951033D02*
X126067092Y-58951033D01*
D11*
X90290805Y-62102919D02*
X90909852Y-62102919D01*
X90909852Y-62102919D02*
X90576519Y-62483871D01*
X90576519Y-62483871D02*
X90719376Y-62483871D01*
X90719376Y-62483871D02*
X90814614Y-62531490D01*
X90814614Y-62531490D02*
X90862233Y-62579109D01*
X90862233Y-62579109D02*
X90909852Y-62674347D01*
X90909852Y-62674347D02*
X90909852Y-62912442D01*
X90909852Y-62912442D02*
X90862233Y-63007680D01*
X90862233Y-63007680D02*
X90814614Y-63055300D01*
X90814614Y-63055300D02*
X90719376Y-63102919D01*
X90719376Y-63102919D02*
X90433662Y-63102919D01*
X90433662Y-63102919D02*
X90338424Y-63055300D01*
X90338424Y-63055300D02*
X90290805Y-63007680D01*
X91195567Y-62102919D02*
X91528900Y-63102919D01*
X91528900Y-63102919D02*
X91862233Y-62102919D01*
X104119376Y-70279109D02*
X104262233Y-70326728D01*
X104262233Y-70326728D02*
X104309852Y-70374347D01*
X104309852Y-70374347D02*
X104357471Y-70469585D01*
X104357471Y-70469585D02*
X104357471Y-70612442D01*
X104357471Y-70612442D02*
X104309852Y-70707680D01*
X104309852Y-70707680D02*
X104262233Y-70755300D01*
X104262233Y-70755300D02*
X104166995Y-70802919D01*
X104166995Y-70802919D02*
X103786043Y-70802919D01*
X103786043Y-70802919D02*
X103786043Y-69802919D01*
X103786043Y-69802919D02*
X104119376Y-69802919D01*
X104119376Y-69802919D02*
X104214614Y-69850538D01*
X104214614Y-69850538D02*
X104262233Y-69898157D01*
X104262233Y-69898157D02*
X104309852Y-69993395D01*
X104309852Y-69993395D02*
X104309852Y-70088633D01*
X104309852Y-70088633D02*
X104262233Y-70183871D01*
X104262233Y-70183871D02*
X104214614Y-70231490D01*
X104214614Y-70231490D02*
X104119376Y-70279109D01*
X104119376Y-70279109D02*
X103786043Y-70279109D01*
X104738424Y-70517204D02*
X105214614Y-70517204D01*
X104643186Y-70802919D02*
X104976519Y-69802919D01*
X104976519Y-69802919D02*
X105309852Y-70802919D01*
X105500329Y-69802919D02*
X106071757Y-69802919D01*
X105786043Y-70802919D02*
X105786043Y-69802919D01*
X90238424Y-83217204D02*
X90714614Y-83217204D01*
X90143186Y-83502919D02*
X90476519Y-82502919D01*
X90476519Y-82502919D02*
X90809852Y-83502919D01*
X91619376Y-82502919D02*
X91143186Y-82502919D01*
X91143186Y-82502919D02*
X91095567Y-82979109D01*
X91095567Y-82979109D02*
X91143186Y-82931490D01*
X91143186Y-82931490D02*
X91238424Y-82883871D01*
X91238424Y-82883871D02*
X91476519Y-82883871D01*
X91476519Y-82883871D02*
X91571757Y-82931490D01*
X91571757Y-82931490D02*
X91619376Y-82979109D01*
X91619376Y-82979109D02*
X91666995Y-83074347D01*
X91666995Y-83074347D02*
X91666995Y-83312442D01*
X91666995Y-83312442D02*
X91619376Y-83407680D01*
X91619376Y-83407680D02*
X91571757Y-83455300D01*
X91571757Y-83455300D02*
X91476519Y-83502919D01*
X91476519Y-83502919D02*
X91238424Y-83502919D01*
X91238424Y-83502919D02*
X91143186Y-83455300D01*
X91143186Y-83455300D02*
X91095567Y-83407680D01*
X90238424Y-97798157D02*
X90286043Y-97750538D01*
X90286043Y-97750538D02*
X90381281Y-97702919D01*
X90381281Y-97702919D02*
X90619376Y-97702919D01*
X90619376Y-97702919D02*
X90714614Y-97750538D01*
X90714614Y-97750538D02*
X90762233Y-97798157D01*
X90762233Y-97798157D02*
X90809852Y-97893395D01*
X90809852Y-97893395D02*
X90809852Y-97988633D01*
X90809852Y-97988633D02*
X90762233Y-98131490D01*
X90762233Y-98131490D02*
X90190805Y-98702919D01*
X90190805Y-98702919D02*
X90809852Y-98702919D01*
X91762233Y-98702919D02*
X91190805Y-98702919D01*
X91476519Y-98702919D02*
X91476519Y-97702919D01*
X91476519Y-97702919D02*
X91381281Y-97845776D01*
X91381281Y-97845776D02*
X91286043Y-97941014D01*
X91286043Y-97941014D02*
X91190805Y-97988633D01*
X104309852Y-93602919D02*
X103738424Y-93602919D01*
X104024138Y-93602919D02*
X104024138Y-92602919D01*
X104024138Y-92602919D02*
X103928900Y-92745776D01*
X103928900Y-92745776D02*
X103833662Y-92841014D01*
X103833662Y-92841014D02*
X103738424Y-92888633D01*
X105166995Y-92936252D02*
X105166995Y-93602919D01*
X104928900Y-92555300D02*
X104690805Y-93269585D01*
X104690805Y-93269585D02*
X105309852Y-93269585D01*
X90238424Y-75517204D02*
X90714614Y-75517204D01*
X90143186Y-75802919D02*
X90476519Y-74802919D01*
X90476519Y-74802919D02*
X90809852Y-75802919D01*
X91095567Y-74898157D02*
X91143186Y-74850538D01*
X91143186Y-74850538D02*
X91238424Y-74802919D01*
X91238424Y-74802919D02*
X91476519Y-74802919D01*
X91476519Y-74802919D02*
X91571757Y-74850538D01*
X91571757Y-74850538D02*
X91619376Y-74898157D01*
X91619376Y-74898157D02*
X91666995Y-74993395D01*
X91666995Y-74993395D02*
X91666995Y-75088633D01*
X91666995Y-75088633D02*
X91619376Y-75231490D01*
X91619376Y-75231490D02*
X91047948Y-75802919D01*
X91047948Y-75802919D02*
X91666995Y-75802919D01*
X104309852Y-78402919D02*
X103738424Y-78402919D01*
X104024138Y-78402919D02*
X104024138Y-77402919D01*
X104024138Y-77402919D02*
X103928900Y-77545776D01*
X103928900Y-77545776D02*
X103833662Y-77641014D01*
X103833662Y-77641014D02*
X103738424Y-77688633D01*
X104643186Y-77402919D02*
X105262233Y-77402919D01*
X105262233Y-77402919D02*
X104928900Y-77783871D01*
X104928900Y-77783871D02*
X105071757Y-77783871D01*
X105071757Y-77783871D02*
X105166995Y-77831490D01*
X105166995Y-77831490D02*
X105214614Y-77879109D01*
X105214614Y-77879109D02*
X105262233Y-77974347D01*
X105262233Y-77974347D02*
X105262233Y-78212442D01*
X105262233Y-78212442D02*
X105214614Y-78307680D01*
X105214614Y-78307680D02*
X105166995Y-78355300D01*
X105166995Y-78355300D02*
X105071757Y-78402919D01*
X105071757Y-78402919D02*
X104786043Y-78402919D01*
X104786043Y-78402919D02*
X104690805Y-78355300D01*
X104690805Y-78355300D02*
X104643186Y-78307680D01*
X90143186Y-95102919D02*
X90714614Y-95102919D01*
X90428900Y-96102919D02*
X90428900Y-95102919D01*
X90952710Y-95102919D02*
X91619376Y-96102919D01*
X91619376Y-95102919D02*
X90952710Y-96102919D01*
X90238424Y-70517204D02*
X90714614Y-70517204D01*
X90143186Y-70802919D02*
X90476519Y-69802919D01*
X90476519Y-69802919D02*
X90809852Y-70802919D01*
X91333662Y-69802919D02*
X91428900Y-69802919D01*
X91428900Y-69802919D02*
X91524138Y-69850538D01*
X91524138Y-69850538D02*
X91571757Y-69898157D01*
X91571757Y-69898157D02*
X91619376Y-69993395D01*
X91619376Y-69993395D02*
X91666995Y-70183871D01*
X91666995Y-70183871D02*
X91666995Y-70421966D01*
X91666995Y-70421966D02*
X91619376Y-70612442D01*
X91619376Y-70612442D02*
X91571757Y-70707680D01*
X91571757Y-70707680D02*
X91524138Y-70755300D01*
X91524138Y-70755300D02*
X91428900Y-70802919D01*
X91428900Y-70802919D02*
X91333662Y-70802919D01*
X91333662Y-70802919D02*
X91238424Y-70755300D01*
X91238424Y-70755300D02*
X91190805Y-70707680D01*
X91190805Y-70707680D02*
X91143186Y-70612442D01*
X91143186Y-70612442D02*
X91095567Y-70421966D01*
X91095567Y-70421966D02*
X91095567Y-70183871D01*
X91095567Y-70183871D02*
X91143186Y-69993395D01*
X91143186Y-69993395D02*
X91190805Y-69898157D01*
X91190805Y-69898157D02*
X91238424Y-69850538D01*
X91238424Y-69850538D02*
X91333662Y-69802919D01*
D13*
X107428168Y-63960387D02*
X107475787Y-63817530D01*
X107475787Y-63817530D02*
X107523406Y-63769911D01*
X107523406Y-63769911D02*
X107618644Y-63722292D01*
X107618644Y-63722292D02*
X107761501Y-63722292D01*
X107761501Y-63722292D02*
X107856739Y-63769911D01*
X107856739Y-63769911D02*
X107904359Y-63817530D01*
X107904359Y-63817530D02*
X107951978Y-63912768D01*
X107951978Y-63912768D02*
X107951978Y-64293720D01*
X107951978Y-64293720D02*
X106951978Y-64293720D01*
X106951978Y-64293720D02*
X106951978Y-63960387D01*
X106951978Y-63960387D02*
X106999597Y-63865149D01*
X106999597Y-63865149D02*
X107047216Y-63817530D01*
X107047216Y-63817530D02*
X107142454Y-63769911D01*
X107142454Y-63769911D02*
X107237692Y-63769911D01*
X107237692Y-63769911D02*
X107332930Y-63817530D01*
X107332930Y-63817530D02*
X107380549Y-63865149D01*
X107380549Y-63865149D02*
X107428168Y-63960387D01*
X107428168Y-63960387D02*
X107428168Y-64293720D01*
X107666263Y-63341339D02*
X107666263Y-62865149D01*
X107951978Y-63436577D02*
X106951978Y-63103244D01*
X106951978Y-63103244D02*
X107951978Y-62769911D01*
X106951978Y-62579434D02*
X106951978Y-62008006D01*
X107951978Y-62293720D02*
X106951978Y-62293720D01*
D11*
X103786043Y-72779109D02*
X104119376Y-72779109D01*
X104262233Y-73302919D02*
X103786043Y-73302919D01*
X103786043Y-73302919D02*
X103786043Y-72302919D01*
X103786043Y-72302919D02*
X104262233Y-72302919D01*
X104690805Y-73302919D02*
X104690805Y-72302919D01*
X104690805Y-72302919D02*
X105262233Y-73302919D01*
X105262233Y-73302919D02*
X105262233Y-72302919D01*
X90238424Y-80617204D02*
X90714614Y-80617204D01*
X90143186Y-80902919D02*
X90476519Y-79902919D01*
X90476519Y-79902919D02*
X90809852Y-80902919D01*
X91571757Y-80236252D02*
X91571757Y-80902919D01*
X91333662Y-79855300D02*
X91095567Y-80569585D01*
X91095567Y-80569585D02*
X91714614Y-80569585D01*
X90857471Y-93602919D02*
X90524138Y-93126728D01*
X90286043Y-93602919D02*
X90286043Y-92602919D01*
X90286043Y-92602919D02*
X90666995Y-92602919D01*
X90666995Y-92602919D02*
X90762233Y-92650538D01*
X90762233Y-92650538D02*
X90809852Y-92698157D01*
X90809852Y-92698157D02*
X90857471Y-92793395D01*
X90857471Y-92793395D02*
X90857471Y-92936252D01*
X90857471Y-92936252D02*
X90809852Y-93031490D01*
X90809852Y-93031490D02*
X90762233Y-93079109D01*
X90762233Y-93079109D02*
X90666995Y-93126728D01*
X90666995Y-93126728D02*
X90286043Y-93126728D01*
X91190805Y-92602919D02*
X91857471Y-93602919D01*
X91857471Y-92602919D02*
X91190805Y-93602919D01*
X104309852Y-80902919D02*
X103738424Y-80902919D01*
X104024138Y-80902919D02*
X104024138Y-79902919D01*
X104024138Y-79902919D02*
X103928900Y-80045776D01*
X103928900Y-80045776D02*
X103833662Y-80141014D01*
X103833662Y-80141014D02*
X103738424Y-80188633D01*
X104690805Y-79998157D02*
X104738424Y-79950538D01*
X104738424Y-79950538D02*
X104833662Y-79902919D01*
X104833662Y-79902919D02*
X105071757Y-79902919D01*
X105071757Y-79902919D02*
X105166995Y-79950538D01*
X105166995Y-79950538D02*
X105214614Y-79998157D01*
X105214614Y-79998157D02*
X105262233Y-80093395D01*
X105262233Y-80093395D02*
X105262233Y-80188633D01*
X105262233Y-80188633D02*
X105214614Y-80331490D01*
X105214614Y-80331490D02*
X104643186Y-80902919D01*
X104643186Y-80902919D02*
X105262233Y-80902919D01*
X103738424Y-82598157D02*
X103786043Y-82550538D01*
X103786043Y-82550538D02*
X103881281Y-82502919D01*
X103881281Y-82502919D02*
X104119376Y-82502919D01*
X104119376Y-82502919D02*
X104214614Y-82550538D01*
X104214614Y-82550538D02*
X104262233Y-82598157D01*
X104262233Y-82598157D02*
X104309852Y-82693395D01*
X104309852Y-82693395D02*
X104309852Y-82788633D01*
X104309852Y-82788633D02*
X104262233Y-82931490D01*
X104262233Y-82931490D02*
X103690805Y-83502919D01*
X103690805Y-83502919D02*
X104309852Y-83502919D01*
X104643186Y-82502919D02*
X105309852Y-82502919D01*
X105309852Y-82502919D02*
X104881281Y-83502919D01*
X90957471Y-60602919D02*
X90624138Y-60126728D01*
X90386043Y-60602919D02*
X90386043Y-59602919D01*
X90386043Y-59602919D02*
X90766995Y-59602919D01*
X90766995Y-59602919D02*
X90862233Y-59650538D01*
X90862233Y-59650538D02*
X90909852Y-59698157D01*
X90909852Y-59698157D02*
X90957471Y-59793395D01*
X90957471Y-59793395D02*
X90957471Y-59936252D01*
X90957471Y-59936252D02*
X90909852Y-60031490D01*
X90909852Y-60031490D02*
X90862233Y-60079109D01*
X90862233Y-60079109D02*
X90766995Y-60126728D01*
X90766995Y-60126728D02*
X90386043Y-60126728D01*
X91338424Y-60555300D02*
X91481281Y-60602919D01*
X91481281Y-60602919D02*
X91719376Y-60602919D01*
X91719376Y-60602919D02*
X91814614Y-60555300D01*
X91814614Y-60555300D02*
X91862233Y-60507680D01*
X91862233Y-60507680D02*
X91909852Y-60412442D01*
X91909852Y-60412442D02*
X91909852Y-60317204D01*
X91909852Y-60317204D02*
X91862233Y-60221966D01*
X91862233Y-60221966D02*
X91814614Y-60174347D01*
X91814614Y-60174347D02*
X91719376Y-60126728D01*
X91719376Y-60126728D02*
X91528900Y-60079109D01*
X91528900Y-60079109D02*
X91433662Y-60031490D01*
X91433662Y-60031490D02*
X91386043Y-59983871D01*
X91386043Y-59983871D02*
X91338424Y-59888633D01*
X91338424Y-59888633D02*
X91338424Y-59793395D01*
X91338424Y-59793395D02*
X91386043Y-59698157D01*
X91386043Y-59698157D02*
X91433662Y-59650538D01*
X91433662Y-59650538D02*
X91528900Y-59602919D01*
X91528900Y-59602919D02*
X91766995Y-59602919D01*
X91766995Y-59602919D02*
X91909852Y-59650538D01*
X92195567Y-59602919D02*
X92766995Y-59602919D01*
X92481281Y-60602919D02*
X92481281Y-59602919D01*
X103690805Y-90102919D02*
X104309852Y-90102919D01*
X104309852Y-90102919D02*
X103976519Y-90483871D01*
X103976519Y-90483871D02*
X104119376Y-90483871D01*
X104119376Y-90483871D02*
X104214614Y-90531490D01*
X104214614Y-90531490D02*
X104262233Y-90579109D01*
X104262233Y-90579109D02*
X104309852Y-90674347D01*
X104309852Y-90674347D02*
X104309852Y-90912442D01*
X104309852Y-90912442D02*
X104262233Y-91007680D01*
X104262233Y-91007680D02*
X104214614Y-91055300D01*
X104214614Y-91055300D02*
X104119376Y-91102919D01*
X104119376Y-91102919D02*
X103833662Y-91102919D01*
X103833662Y-91102919D02*
X103738424Y-91055300D01*
X103738424Y-91055300D02*
X103690805Y-91007680D01*
X104690805Y-90198157D02*
X104738424Y-90150538D01*
X104738424Y-90150538D02*
X104833662Y-90102919D01*
X104833662Y-90102919D02*
X105071757Y-90102919D01*
X105071757Y-90102919D02*
X105166995Y-90150538D01*
X105166995Y-90150538D02*
X105214614Y-90198157D01*
X105214614Y-90198157D02*
X105262233Y-90293395D01*
X105262233Y-90293395D02*
X105262233Y-90388633D01*
X105262233Y-90388633D02*
X105214614Y-90531490D01*
X105214614Y-90531490D02*
X104643186Y-91102919D01*
X104643186Y-91102919D02*
X105262233Y-91102919D01*
X90238424Y-78117204D02*
X90714614Y-78117204D01*
X90143186Y-78402919D02*
X90476519Y-77402919D01*
X90476519Y-77402919D02*
X90809852Y-78402919D01*
X91047948Y-77402919D02*
X91666995Y-77402919D01*
X91666995Y-77402919D02*
X91333662Y-77783871D01*
X91333662Y-77783871D02*
X91476519Y-77783871D01*
X91476519Y-77783871D02*
X91571757Y-77831490D01*
X91571757Y-77831490D02*
X91619376Y-77879109D01*
X91619376Y-77879109D02*
X91666995Y-77974347D01*
X91666995Y-77974347D02*
X91666995Y-78212442D01*
X91666995Y-78212442D02*
X91619376Y-78307680D01*
X91619376Y-78307680D02*
X91571757Y-78355300D01*
X91571757Y-78355300D02*
X91476519Y-78402919D01*
X91476519Y-78402919D02*
X91190805Y-78402919D01*
X91190805Y-78402919D02*
X91095567Y-78355300D01*
X91095567Y-78355300D02*
X91047948Y-78307680D01*
X90238424Y-85955300D02*
X90381281Y-86002919D01*
X90381281Y-86002919D02*
X90619376Y-86002919D01*
X90619376Y-86002919D02*
X90714614Y-85955300D01*
X90714614Y-85955300D02*
X90762233Y-85907680D01*
X90762233Y-85907680D02*
X90809852Y-85812442D01*
X90809852Y-85812442D02*
X90809852Y-85717204D01*
X90809852Y-85717204D02*
X90762233Y-85621966D01*
X90762233Y-85621966D02*
X90714614Y-85574347D01*
X90714614Y-85574347D02*
X90619376Y-85526728D01*
X90619376Y-85526728D02*
X90428900Y-85479109D01*
X90428900Y-85479109D02*
X90333662Y-85431490D01*
X90333662Y-85431490D02*
X90286043Y-85383871D01*
X90286043Y-85383871D02*
X90238424Y-85288633D01*
X90238424Y-85288633D02*
X90238424Y-85193395D01*
X90238424Y-85193395D02*
X90286043Y-85098157D01*
X90286043Y-85098157D02*
X90333662Y-85050538D01*
X90333662Y-85050538D02*
X90428900Y-85002919D01*
X90428900Y-85002919D02*
X90666995Y-85002919D01*
X90666995Y-85002919D02*
X90809852Y-85050538D01*
X91809852Y-85907680D02*
X91762233Y-85955300D01*
X91762233Y-85955300D02*
X91619376Y-86002919D01*
X91619376Y-86002919D02*
X91524138Y-86002919D01*
X91524138Y-86002919D02*
X91381281Y-85955300D01*
X91381281Y-85955300D02*
X91286043Y-85860061D01*
X91286043Y-85860061D02*
X91238424Y-85764823D01*
X91238424Y-85764823D02*
X91190805Y-85574347D01*
X91190805Y-85574347D02*
X91190805Y-85431490D01*
X91190805Y-85431490D02*
X91238424Y-85241014D01*
X91238424Y-85241014D02*
X91286043Y-85145776D01*
X91286043Y-85145776D02*
X91381281Y-85050538D01*
X91381281Y-85050538D02*
X91524138Y-85002919D01*
X91524138Y-85002919D02*
X91619376Y-85002919D01*
X91619376Y-85002919D02*
X91762233Y-85050538D01*
X91762233Y-85050538D02*
X91809852Y-85098157D01*
X92238424Y-86002919D02*
X92238424Y-85002919D01*
X92809852Y-86002919D02*
X92381281Y-85431490D01*
X92809852Y-85002919D02*
X92238424Y-85574347D01*
X104309852Y-88502919D02*
X103738424Y-88502919D01*
X104024138Y-88502919D02*
X104024138Y-87502919D01*
X104024138Y-87502919D02*
X103928900Y-87645776D01*
X103928900Y-87645776D02*
X103833662Y-87741014D01*
X103833662Y-87741014D02*
X103738424Y-87788633D01*
X105214614Y-87502919D02*
X104738424Y-87502919D01*
X104738424Y-87502919D02*
X104690805Y-87979109D01*
X104690805Y-87979109D02*
X104738424Y-87931490D01*
X104738424Y-87931490D02*
X104833662Y-87883871D01*
X104833662Y-87883871D02*
X105071757Y-87883871D01*
X105071757Y-87883871D02*
X105166995Y-87931490D01*
X105166995Y-87931490D02*
X105214614Y-87979109D01*
X105214614Y-87979109D02*
X105262233Y-88074347D01*
X105262233Y-88074347D02*
X105262233Y-88312442D01*
X105262233Y-88312442D02*
X105214614Y-88407680D01*
X105214614Y-88407680D02*
X105166995Y-88455300D01*
X105166995Y-88455300D02*
X105071757Y-88502919D01*
X105071757Y-88502919D02*
X104833662Y-88502919D01*
X104833662Y-88502919D02*
X104738424Y-88455300D01*
X104738424Y-88455300D02*
X104690805Y-88407680D01*
X103738424Y-96055300D02*
X103881281Y-96102919D01*
X103881281Y-96102919D02*
X104119376Y-96102919D01*
X104119376Y-96102919D02*
X104214614Y-96055300D01*
X104214614Y-96055300D02*
X104262233Y-96007680D01*
X104262233Y-96007680D02*
X104309852Y-95912442D01*
X104309852Y-95912442D02*
X104309852Y-95817204D01*
X104309852Y-95817204D02*
X104262233Y-95721966D01*
X104262233Y-95721966D02*
X104214614Y-95674347D01*
X104214614Y-95674347D02*
X104119376Y-95626728D01*
X104119376Y-95626728D02*
X103928900Y-95579109D01*
X103928900Y-95579109D02*
X103833662Y-95531490D01*
X103833662Y-95531490D02*
X103786043Y-95483871D01*
X103786043Y-95483871D02*
X103738424Y-95388633D01*
X103738424Y-95388633D02*
X103738424Y-95293395D01*
X103738424Y-95293395D02*
X103786043Y-95198157D01*
X103786043Y-95198157D02*
X103833662Y-95150538D01*
X103833662Y-95150538D02*
X103928900Y-95102919D01*
X103928900Y-95102919D02*
X104166995Y-95102919D01*
X104166995Y-95102919D02*
X104309852Y-95150538D01*
X105309852Y-96007680D02*
X105262233Y-96055300D01*
X105262233Y-96055300D02*
X105119376Y-96102919D01*
X105119376Y-96102919D02*
X105024138Y-96102919D01*
X105024138Y-96102919D02*
X104881281Y-96055300D01*
X104881281Y-96055300D02*
X104786043Y-95960061D01*
X104786043Y-95960061D02*
X104738424Y-95864823D01*
X104738424Y-95864823D02*
X104690805Y-95674347D01*
X104690805Y-95674347D02*
X104690805Y-95531490D01*
X104690805Y-95531490D02*
X104738424Y-95341014D01*
X104738424Y-95341014D02*
X104786043Y-95245776D01*
X104786043Y-95245776D02*
X104881281Y-95150538D01*
X104881281Y-95150538D02*
X105024138Y-95102919D01*
X105024138Y-95102919D02*
X105119376Y-95102919D01*
X105119376Y-95102919D02*
X105262233Y-95150538D01*
X105262233Y-95150538D02*
X105309852Y-95198157D01*
X106214614Y-96102919D02*
X105738424Y-96102919D01*
X105738424Y-96102919D02*
X105738424Y-95102919D01*
X103738424Y-98655300D02*
X103881281Y-98702919D01*
X103881281Y-98702919D02*
X104119376Y-98702919D01*
X104119376Y-98702919D02*
X104214614Y-98655300D01*
X104214614Y-98655300D02*
X104262233Y-98607680D01*
X104262233Y-98607680D02*
X104309852Y-98512442D01*
X104309852Y-98512442D02*
X104309852Y-98417204D01*
X104309852Y-98417204D02*
X104262233Y-98321966D01*
X104262233Y-98321966D02*
X104214614Y-98274347D01*
X104214614Y-98274347D02*
X104119376Y-98226728D01*
X104119376Y-98226728D02*
X103928900Y-98179109D01*
X103928900Y-98179109D02*
X103833662Y-98131490D01*
X103833662Y-98131490D02*
X103786043Y-98083871D01*
X103786043Y-98083871D02*
X103738424Y-97988633D01*
X103738424Y-97988633D02*
X103738424Y-97893395D01*
X103738424Y-97893395D02*
X103786043Y-97798157D01*
X103786043Y-97798157D02*
X103833662Y-97750538D01*
X103833662Y-97750538D02*
X103928900Y-97702919D01*
X103928900Y-97702919D02*
X104166995Y-97702919D01*
X104166995Y-97702919D02*
X104309852Y-97750538D01*
X104738424Y-98702919D02*
X104738424Y-97702919D01*
X104738424Y-97702919D02*
X104976519Y-97702919D01*
X104976519Y-97702919D02*
X105119376Y-97750538D01*
X105119376Y-97750538D02*
X105214614Y-97845776D01*
X105214614Y-97845776D02*
X105262233Y-97941014D01*
X105262233Y-97941014D02*
X105309852Y-98131490D01*
X105309852Y-98131490D02*
X105309852Y-98274347D01*
X105309852Y-98274347D02*
X105262233Y-98464823D01*
X105262233Y-98464823D02*
X105214614Y-98560061D01*
X105214614Y-98560061D02*
X105119376Y-98655300D01*
X105119376Y-98655300D02*
X104976519Y-98702919D01*
X104976519Y-98702919D02*
X104738424Y-98702919D01*
X105690805Y-98417204D02*
X106166995Y-98417204D01*
X105595567Y-98702919D02*
X105928900Y-97702919D01*
X105928900Y-97702919D02*
X106262233Y-98702919D01*
X90386043Y-65702919D02*
X90386043Y-64702919D01*
X90386043Y-64702919D02*
X90957471Y-65702919D01*
X90957471Y-65702919D02*
X90957471Y-64702919D01*
X91290805Y-64702919D02*
X91624138Y-65702919D01*
X91624138Y-65702919D02*
X91957471Y-64702919D01*
X103690805Y-85002919D02*
X104309852Y-85002919D01*
X104309852Y-85002919D02*
X103976519Y-85383871D01*
X103976519Y-85383871D02*
X104119376Y-85383871D01*
X104119376Y-85383871D02*
X104214614Y-85431490D01*
X104214614Y-85431490D02*
X104262233Y-85479109D01*
X104262233Y-85479109D02*
X104309852Y-85574347D01*
X104309852Y-85574347D02*
X104309852Y-85812442D01*
X104309852Y-85812442D02*
X104262233Y-85907680D01*
X104262233Y-85907680D02*
X104214614Y-85955300D01*
X104214614Y-85955300D02*
X104119376Y-86002919D01*
X104119376Y-86002919D02*
X103833662Y-86002919D01*
X103833662Y-86002919D02*
X103738424Y-85955300D01*
X103738424Y-85955300D02*
X103690805Y-85907680D01*
X104643186Y-85002919D02*
X105262233Y-85002919D01*
X105262233Y-85002919D02*
X104928900Y-85383871D01*
X104928900Y-85383871D02*
X105071757Y-85383871D01*
X105071757Y-85383871D02*
X105166995Y-85431490D01*
X105166995Y-85431490D02*
X105214614Y-85479109D01*
X105214614Y-85479109D02*
X105262233Y-85574347D01*
X105262233Y-85574347D02*
X105262233Y-85812442D01*
X105262233Y-85812442D02*
X105214614Y-85907680D01*
X105214614Y-85907680D02*
X105166995Y-85955300D01*
X105166995Y-85955300D02*
X105071757Y-86002919D01*
X105071757Y-86002919D02*
X104786043Y-86002919D01*
X104786043Y-86002919D02*
X104690805Y-85955300D01*
X104690805Y-85955300D02*
X104643186Y-85907680D01*
X90909852Y-67250538D02*
X90814614Y-67202919D01*
X90814614Y-67202919D02*
X90671757Y-67202919D01*
X90671757Y-67202919D02*
X90528900Y-67250538D01*
X90528900Y-67250538D02*
X90433662Y-67345776D01*
X90433662Y-67345776D02*
X90386043Y-67441014D01*
X90386043Y-67441014D02*
X90338424Y-67631490D01*
X90338424Y-67631490D02*
X90338424Y-67774347D01*
X90338424Y-67774347D02*
X90386043Y-67964823D01*
X90386043Y-67964823D02*
X90433662Y-68060061D01*
X90433662Y-68060061D02*
X90528900Y-68155300D01*
X90528900Y-68155300D02*
X90671757Y-68202919D01*
X90671757Y-68202919D02*
X90766995Y-68202919D01*
X90766995Y-68202919D02*
X90909852Y-68155300D01*
X90909852Y-68155300D02*
X90957471Y-68107680D01*
X90957471Y-68107680D02*
X90957471Y-67774347D01*
X90957471Y-67774347D02*
X90766995Y-67774347D01*
X91386043Y-68202919D02*
X91386043Y-67202919D01*
X91386043Y-67202919D02*
X91957471Y-68202919D01*
X91957471Y-68202919D02*
X91957471Y-67202919D01*
X92433662Y-68202919D02*
X92433662Y-67202919D01*
X92433662Y-67202919D02*
X92671757Y-67202919D01*
X92671757Y-67202919D02*
X92814614Y-67250538D01*
X92814614Y-67250538D02*
X92909852Y-67345776D01*
X92909852Y-67345776D02*
X92957471Y-67441014D01*
X92957471Y-67441014D02*
X93005090Y-67631490D01*
X93005090Y-67631490D02*
X93005090Y-67774347D01*
X93005090Y-67774347D02*
X92957471Y-67964823D01*
X92957471Y-67964823D02*
X92909852Y-68060061D01*
X92909852Y-68060061D02*
X92814614Y-68155300D01*
X92814614Y-68155300D02*
X92671757Y-68202919D01*
X92671757Y-68202919D02*
X92433662Y-68202919D01*
X90286043Y-91102919D02*
X90286043Y-90102919D01*
X90286043Y-90102919D02*
X90619376Y-90817204D01*
X90619376Y-90817204D02*
X90952709Y-90102919D01*
X90952709Y-90102919D02*
X90952709Y-91102919D01*
X91428900Y-91102919D02*
X91428900Y-90102919D01*
X90238424Y-73017204D02*
X90714614Y-73017204D01*
X90143186Y-73302919D02*
X90476519Y-72302919D01*
X90476519Y-72302919D02*
X90809852Y-73302919D01*
X91666995Y-73302919D02*
X91095567Y-73302919D01*
X91381281Y-73302919D02*
X91381281Y-72302919D01*
X91381281Y-72302919D02*
X91286043Y-72445776D01*
X91286043Y-72445776D02*
X91190805Y-72541014D01*
X91190805Y-72541014D02*
X91095567Y-72588633D01*
D13*
X97086779Y-57369819D02*
X97086779Y-58179342D01*
X97086779Y-58179342D02*
X97134398Y-58274580D01*
X97134398Y-58274580D02*
X97182017Y-58322200D01*
X97182017Y-58322200D02*
X97277255Y-58369819D01*
X97277255Y-58369819D02*
X97467731Y-58369819D01*
X97467731Y-58369819D02*
X97562969Y-58322200D01*
X97562969Y-58322200D02*
X97610588Y-58274580D01*
X97610588Y-58274580D02*
X97658207Y-58179342D01*
X97658207Y-58179342D02*
X97658207Y-57369819D01*
X98086779Y-58322200D02*
X98229636Y-58369819D01*
X98229636Y-58369819D02*
X98467731Y-58369819D01*
X98467731Y-58369819D02*
X98562969Y-58322200D01*
X98562969Y-58322200D02*
X98610588Y-58274580D01*
X98610588Y-58274580D02*
X98658207Y-58179342D01*
X98658207Y-58179342D02*
X98658207Y-58084104D01*
X98658207Y-58084104D02*
X98610588Y-57988866D01*
X98610588Y-57988866D02*
X98562969Y-57941247D01*
X98562969Y-57941247D02*
X98467731Y-57893628D01*
X98467731Y-57893628D02*
X98277255Y-57846009D01*
X98277255Y-57846009D02*
X98182017Y-57798390D01*
X98182017Y-57798390D02*
X98134398Y-57750771D01*
X98134398Y-57750771D02*
X98086779Y-57655533D01*
X98086779Y-57655533D02*
X98086779Y-57560295D01*
X98086779Y-57560295D02*
X98134398Y-57465057D01*
X98134398Y-57465057D02*
X98182017Y-57417438D01*
X98182017Y-57417438D02*
X98277255Y-57369819D01*
X98277255Y-57369819D02*
X98515350Y-57369819D01*
X98515350Y-57369819D02*
X98658207Y-57417438D01*
X99420112Y-57846009D02*
X99562969Y-57893628D01*
X99562969Y-57893628D02*
X99610588Y-57941247D01*
X99610588Y-57941247D02*
X99658207Y-58036485D01*
X99658207Y-58036485D02*
X99658207Y-58179342D01*
X99658207Y-58179342D02*
X99610588Y-58274580D01*
X99610588Y-58274580D02*
X99562969Y-58322200D01*
X99562969Y-58322200D02*
X99467731Y-58369819D01*
X99467731Y-58369819D02*
X99086779Y-58369819D01*
X99086779Y-58369819D02*
X99086779Y-57369819D01*
X99086779Y-57369819D02*
X99420112Y-57369819D01*
X99420112Y-57369819D02*
X99515350Y-57417438D01*
X99515350Y-57417438D02*
X99562969Y-57465057D01*
X99562969Y-57465057D02*
X99610588Y-57560295D01*
X99610588Y-57560295D02*
X99610588Y-57655533D01*
X99610588Y-57655533D02*
X99562969Y-57750771D01*
X99562969Y-57750771D02*
X99515350Y-57798390D01*
X99515350Y-57798390D02*
X99420112Y-57846009D01*
X99420112Y-57846009D02*
X99086779Y-57846009D01*
D11*
X90286043Y-88502919D02*
X90286043Y-87502919D01*
X90286043Y-87502919D02*
X90619376Y-88217204D01*
X90619376Y-88217204D02*
X90952709Y-87502919D01*
X90952709Y-87502919D02*
X90952709Y-88502919D01*
X91619376Y-87502919D02*
X91809852Y-87502919D01*
X91809852Y-87502919D02*
X91905090Y-87550538D01*
X91905090Y-87550538D02*
X92000328Y-87645776D01*
X92000328Y-87645776D02*
X92047947Y-87836252D01*
X92047947Y-87836252D02*
X92047947Y-88169585D01*
X92047947Y-88169585D02*
X92000328Y-88360061D01*
X92000328Y-88360061D02*
X91905090Y-88455300D01*
X91905090Y-88455300D02*
X91809852Y-88502919D01*
X91809852Y-88502919D02*
X91619376Y-88502919D01*
X91619376Y-88502919D02*
X91524138Y-88455300D01*
X91524138Y-88455300D02*
X91428900Y-88360061D01*
X91428900Y-88360061D02*
X91381281Y-88169585D01*
X91381281Y-88169585D02*
X91381281Y-87836252D01*
X91381281Y-87836252D02*
X91428900Y-87645776D01*
X91428900Y-87645776D02*
X91524138Y-87550538D01*
X91524138Y-87550538D02*
X91619376Y-87502919D01*
X103786043Y-74802919D02*
X103786043Y-75612442D01*
X103786043Y-75612442D02*
X103833662Y-75707680D01*
X103833662Y-75707680D02*
X103881281Y-75755300D01*
X103881281Y-75755300D02*
X103976519Y-75802919D01*
X103976519Y-75802919D02*
X104166995Y-75802919D01*
X104166995Y-75802919D02*
X104262233Y-75755300D01*
X104262233Y-75755300D02*
X104309852Y-75707680D01*
X104309852Y-75707680D02*
X104357471Y-75612442D01*
X104357471Y-75612442D02*
X104357471Y-74802919D01*
X104786043Y-75755300D02*
X104928900Y-75802919D01*
X104928900Y-75802919D02*
X105166995Y-75802919D01*
X105166995Y-75802919D02*
X105262233Y-75755300D01*
X105262233Y-75755300D02*
X105309852Y-75707680D01*
X105309852Y-75707680D02*
X105357471Y-75612442D01*
X105357471Y-75612442D02*
X105357471Y-75517204D01*
X105357471Y-75517204D02*
X105309852Y-75421966D01*
X105309852Y-75421966D02*
X105262233Y-75374347D01*
X105262233Y-75374347D02*
X105166995Y-75326728D01*
X105166995Y-75326728D02*
X104976519Y-75279109D01*
X104976519Y-75279109D02*
X104881281Y-75231490D01*
X104881281Y-75231490D02*
X104833662Y-75183871D01*
X104833662Y-75183871D02*
X104786043Y-75088633D01*
X104786043Y-75088633D02*
X104786043Y-74993395D01*
X104786043Y-74993395D02*
X104833662Y-74898157D01*
X104833662Y-74898157D02*
X104881281Y-74850538D01*
X104881281Y-74850538D02*
X104976519Y-74802919D01*
X104976519Y-74802919D02*
X105214614Y-74802919D01*
X105214614Y-74802919D02*
X105357471Y-74850538D01*
X106119376Y-75279109D02*
X106262233Y-75326728D01*
X106262233Y-75326728D02*
X106309852Y-75374347D01*
X106309852Y-75374347D02*
X106357471Y-75469585D01*
X106357471Y-75469585D02*
X106357471Y-75612442D01*
X106357471Y-75612442D02*
X106309852Y-75707680D01*
X106309852Y-75707680D02*
X106262233Y-75755300D01*
X106262233Y-75755300D02*
X106166995Y-75802919D01*
X106166995Y-75802919D02*
X105786043Y-75802919D01*
X105786043Y-75802919D02*
X105786043Y-74802919D01*
X105786043Y-74802919D02*
X106119376Y-74802919D01*
X106119376Y-74802919D02*
X106214614Y-74850538D01*
X106214614Y-74850538D02*
X106262233Y-74898157D01*
X106262233Y-74898157D02*
X106309852Y-74993395D01*
X106309852Y-74993395D02*
X106309852Y-75088633D01*
X106309852Y-75088633D02*
X106262233Y-75183871D01*
X106262233Y-75183871D02*
X106214614Y-75231490D01*
X106214614Y-75231490D02*
X106119376Y-75279109D01*
X106119376Y-75279109D02*
X105786043Y-75279109D01*
X63337024Y-112978895D02*
X63337024Y-112178895D01*
X63337024Y-112178895D02*
X63641786Y-112178895D01*
X63641786Y-112178895D02*
X63717976Y-112216990D01*
X63717976Y-112216990D02*
X63756071Y-112255085D01*
X63756071Y-112255085D02*
X63794167Y-112331276D01*
X63794167Y-112331276D02*
X63794167Y-112445561D01*
X63794167Y-112445561D02*
X63756071Y-112521752D01*
X63756071Y-112521752D02*
X63717976Y-112559847D01*
X63717976Y-112559847D02*
X63641786Y-112597942D01*
X63641786Y-112597942D02*
X63337024Y-112597942D01*
X64098928Y-112940800D02*
X64213214Y-112978895D01*
X64213214Y-112978895D02*
X64403690Y-112978895D01*
X64403690Y-112978895D02*
X64479881Y-112940800D01*
X64479881Y-112940800D02*
X64517976Y-112902704D01*
X64517976Y-112902704D02*
X64556071Y-112826514D01*
X64556071Y-112826514D02*
X64556071Y-112750323D01*
X64556071Y-112750323D02*
X64517976Y-112674133D01*
X64517976Y-112674133D02*
X64479881Y-112636038D01*
X64479881Y-112636038D02*
X64403690Y-112597942D01*
X64403690Y-112597942D02*
X64251309Y-112559847D01*
X64251309Y-112559847D02*
X64175119Y-112521752D01*
X64175119Y-112521752D02*
X64137024Y-112483657D01*
X64137024Y-112483657D02*
X64098928Y-112407466D01*
X64098928Y-112407466D02*
X64098928Y-112331276D01*
X64098928Y-112331276D02*
X64137024Y-112255085D01*
X64137024Y-112255085D02*
X64175119Y-112216990D01*
X64175119Y-112216990D02*
X64251309Y-112178895D01*
X64251309Y-112178895D02*
X64441786Y-112178895D01*
X64441786Y-112178895D02*
X64556071Y-112216990D01*
X65317976Y-112978895D02*
X64860833Y-112978895D01*
X65089405Y-112978895D02*
X65089405Y-112178895D01*
X65089405Y-112178895D02*
X65013214Y-112293180D01*
X65013214Y-112293180D02*
X64937024Y-112369371D01*
X64937024Y-112369371D02*
X64860833Y-112407466D01*
X60670024Y-112978895D02*
X60670024Y-112178895D01*
X60670024Y-112178895D02*
X60974786Y-112178895D01*
X60974786Y-112178895D02*
X61050976Y-112216990D01*
X61050976Y-112216990D02*
X61089071Y-112255085D01*
X61089071Y-112255085D02*
X61127167Y-112331276D01*
X61127167Y-112331276D02*
X61127167Y-112445561D01*
X61127167Y-112445561D02*
X61089071Y-112521752D01*
X61089071Y-112521752D02*
X61050976Y-112559847D01*
X61050976Y-112559847D02*
X60974786Y-112597942D01*
X60974786Y-112597942D02*
X60670024Y-112597942D01*
X61431928Y-112940800D02*
X61546214Y-112978895D01*
X61546214Y-112978895D02*
X61736690Y-112978895D01*
X61736690Y-112978895D02*
X61812881Y-112940800D01*
X61812881Y-112940800D02*
X61850976Y-112902704D01*
X61850976Y-112902704D02*
X61889071Y-112826514D01*
X61889071Y-112826514D02*
X61889071Y-112750323D01*
X61889071Y-112750323D02*
X61850976Y-112674133D01*
X61850976Y-112674133D02*
X61812881Y-112636038D01*
X61812881Y-112636038D02*
X61736690Y-112597942D01*
X61736690Y-112597942D02*
X61584309Y-112559847D01*
X61584309Y-112559847D02*
X61508119Y-112521752D01*
X61508119Y-112521752D02*
X61470024Y-112483657D01*
X61470024Y-112483657D02*
X61431928Y-112407466D01*
X61431928Y-112407466D02*
X61431928Y-112331276D01*
X61431928Y-112331276D02*
X61470024Y-112255085D01*
X61470024Y-112255085D02*
X61508119Y-112216990D01*
X61508119Y-112216990D02*
X61584309Y-112178895D01*
X61584309Y-112178895D02*
X61774786Y-112178895D01*
X61774786Y-112178895D02*
X61889071Y-112216990D01*
X62384310Y-112178895D02*
X62460500Y-112178895D01*
X62460500Y-112178895D02*
X62536691Y-112216990D01*
X62536691Y-112216990D02*
X62574786Y-112255085D01*
X62574786Y-112255085D02*
X62612881Y-112331276D01*
X62612881Y-112331276D02*
X62650976Y-112483657D01*
X62650976Y-112483657D02*
X62650976Y-112674133D01*
X62650976Y-112674133D02*
X62612881Y-112826514D01*
X62612881Y-112826514D02*
X62574786Y-112902704D01*
X62574786Y-112902704D02*
X62536691Y-112940800D01*
X62536691Y-112940800D02*
X62460500Y-112978895D01*
X62460500Y-112978895D02*
X62384310Y-112978895D01*
X62384310Y-112978895D02*
X62308119Y-112940800D01*
X62308119Y-112940800D02*
X62270024Y-112902704D01*
X62270024Y-112902704D02*
X62231929Y-112826514D01*
X62231929Y-112826514D02*
X62193833Y-112674133D01*
X62193833Y-112674133D02*
X62193833Y-112483657D01*
X62193833Y-112483657D02*
X62231929Y-112331276D01*
X62231929Y-112331276D02*
X62270024Y-112255085D01*
X62270024Y-112255085D02*
X62308119Y-112216990D01*
X62308119Y-112216990D02*
X62384310Y-112178895D01*
X65813528Y-127418800D02*
X65927814Y-127456895D01*
X65927814Y-127456895D02*
X66118290Y-127456895D01*
X66118290Y-127456895D02*
X66194481Y-127418800D01*
X66194481Y-127418800D02*
X66232576Y-127380704D01*
X66232576Y-127380704D02*
X66270671Y-127304514D01*
X66270671Y-127304514D02*
X66270671Y-127228323D01*
X66270671Y-127228323D02*
X66232576Y-127152133D01*
X66232576Y-127152133D02*
X66194481Y-127114038D01*
X66194481Y-127114038D02*
X66118290Y-127075942D01*
X66118290Y-127075942D02*
X65965909Y-127037847D01*
X65965909Y-127037847D02*
X65889719Y-126999752D01*
X65889719Y-126999752D02*
X65851624Y-126961657D01*
X65851624Y-126961657D02*
X65813528Y-126885466D01*
X65813528Y-126885466D02*
X65813528Y-126809276D01*
X65813528Y-126809276D02*
X65851624Y-126733085D01*
X65851624Y-126733085D02*
X65889719Y-126694990D01*
X65889719Y-126694990D02*
X65965909Y-126656895D01*
X65965909Y-126656895D02*
X66156386Y-126656895D01*
X66156386Y-126656895D02*
X66270671Y-126694990D01*
X66613529Y-127456895D02*
X66613529Y-126656895D01*
X66613529Y-126656895D02*
X66804005Y-126656895D01*
X66804005Y-126656895D02*
X66918291Y-126694990D01*
X66918291Y-126694990D02*
X66994481Y-126771180D01*
X66994481Y-126771180D02*
X67032576Y-126847371D01*
X67032576Y-126847371D02*
X67070672Y-126999752D01*
X67070672Y-126999752D02*
X67070672Y-127114038D01*
X67070672Y-127114038D02*
X67032576Y-127266419D01*
X67032576Y-127266419D02*
X66994481Y-127342609D01*
X66994481Y-127342609D02*
X66918291Y-127418800D01*
X66918291Y-127418800D02*
X66804005Y-127456895D01*
X66804005Y-127456895D02*
X66613529Y-127456895D01*
X67375433Y-127228323D02*
X67756386Y-127228323D01*
X67299243Y-127456895D02*
X67565910Y-126656895D01*
X67565910Y-126656895D02*
X67832576Y-127456895D01*
X61111833Y-126656895D02*
X61607071Y-126656895D01*
X61607071Y-126656895D02*
X61340405Y-126961657D01*
X61340405Y-126961657D02*
X61454690Y-126961657D01*
X61454690Y-126961657D02*
X61530881Y-126999752D01*
X61530881Y-126999752D02*
X61568976Y-127037847D01*
X61568976Y-127037847D02*
X61607071Y-127114038D01*
X61607071Y-127114038D02*
X61607071Y-127304514D01*
X61607071Y-127304514D02*
X61568976Y-127380704D01*
X61568976Y-127380704D02*
X61530881Y-127418800D01*
X61530881Y-127418800D02*
X61454690Y-127456895D01*
X61454690Y-127456895D02*
X61226119Y-127456895D01*
X61226119Y-127456895D02*
X61149928Y-127418800D01*
X61149928Y-127418800D02*
X61111833Y-127380704D01*
X61835643Y-126656895D02*
X62102310Y-127456895D01*
X62102310Y-127456895D02*
X62368976Y-126656895D01*
X58373738Y-126656895D02*
X58640405Y-127456895D01*
X58640405Y-127456895D02*
X58907071Y-126656895D01*
X59173738Y-127456895D02*
X59173738Y-126656895D01*
X59554690Y-127456895D02*
X59554690Y-126656895D01*
X59554690Y-126656895D02*
X60011833Y-127456895D01*
X60011833Y-127456895D02*
X60011833Y-126656895D01*
X68378928Y-112750323D02*
X68759881Y-112750323D01*
X68302738Y-112978895D02*
X68569405Y-112178895D01*
X68569405Y-112178895D02*
X68836071Y-112978895D01*
X69102738Y-112978895D02*
X69102738Y-112178895D01*
X69102738Y-112178895D02*
X69293214Y-112178895D01*
X69293214Y-112178895D02*
X69407500Y-112216990D01*
X69407500Y-112216990D02*
X69483690Y-112293180D01*
X69483690Y-112293180D02*
X69521785Y-112369371D01*
X69521785Y-112369371D02*
X69559881Y-112521752D01*
X69559881Y-112521752D02*
X69559881Y-112636038D01*
X69559881Y-112636038D02*
X69521785Y-112788419D01*
X69521785Y-112788419D02*
X69483690Y-112864609D01*
X69483690Y-112864609D02*
X69407500Y-112940800D01*
X69407500Y-112940800D02*
X69293214Y-112978895D01*
X69293214Y-112978895D02*
X69102738Y-112978895D01*
X70359881Y-112978895D02*
X70093214Y-112597942D01*
X69902738Y-112978895D02*
X69902738Y-112178895D01*
X69902738Y-112178895D02*
X70207500Y-112178895D01*
X70207500Y-112178895D02*
X70283690Y-112216990D01*
X70283690Y-112216990D02*
X70321785Y-112255085D01*
X70321785Y-112255085D02*
X70359881Y-112331276D01*
X70359881Y-112331276D02*
X70359881Y-112445561D01*
X70359881Y-112445561D02*
X70321785Y-112521752D01*
X70321785Y-112521752D02*
X70283690Y-112559847D01*
X70283690Y-112559847D02*
X70207500Y-112597942D01*
X70207500Y-112597942D02*
X69902738Y-112597942D01*
X66131024Y-112978895D02*
X66131024Y-112178895D01*
X66511976Y-112978895D02*
X66511976Y-112178895D01*
X66511976Y-112178895D02*
X66969119Y-112978895D01*
X66969119Y-112978895D02*
X66969119Y-112178895D01*
X67235785Y-112178895D02*
X67692928Y-112178895D01*
X67464356Y-112978895D02*
X67464356Y-112178895D01*
X63602071Y-126694990D02*
X63525881Y-126656895D01*
X63525881Y-126656895D02*
X63411595Y-126656895D01*
X63411595Y-126656895D02*
X63297309Y-126694990D01*
X63297309Y-126694990D02*
X63221119Y-126771180D01*
X63221119Y-126771180D02*
X63183024Y-126847371D01*
X63183024Y-126847371D02*
X63144928Y-126999752D01*
X63144928Y-126999752D02*
X63144928Y-127114038D01*
X63144928Y-127114038D02*
X63183024Y-127266419D01*
X63183024Y-127266419D02*
X63221119Y-127342609D01*
X63221119Y-127342609D02*
X63297309Y-127418800D01*
X63297309Y-127418800D02*
X63411595Y-127456895D01*
X63411595Y-127456895D02*
X63487786Y-127456895D01*
X63487786Y-127456895D02*
X63602071Y-127418800D01*
X63602071Y-127418800D02*
X63640167Y-127380704D01*
X63640167Y-127380704D02*
X63640167Y-127114038D01*
X63640167Y-127114038D02*
X63487786Y-127114038D01*
X63983024Y-127456895D02*
X63983024Y-126656895D01*
X63983024Y-126656895D02*
X64440167Y-127456895D01*
X64440167Y-127456895D02*
X64440167Y-126656895D01*
X64821119Y-127456895D02*
X64821119Y-126656895D01*
X64821119Y-126656895D02*
X65011595Y-126656895D01*
X65011595Y-126656895D02*
X65125881Y-126694990D01*
X65125881Y-126694990D02*
X65202071Y-126771180D01*
X65202071Y-126771180D02*
X65240166Y-126847371D01*
X65240166Y-126847371D02*
X65278262Y-126999752D01*
X65278262Y-126999752D02*
X65278262Y-127114038D01*
X65278262Y-127114038D02*
X65240166Y-127266419D01*
X65240166Y-127266419D02*
X65202071Y-127342609D01*
X65202071Y-127342609D02*
X65125881Y-127418800D01*
X65125881Y-127418800D02*
X65011595Y-127456895D01*
X65011595Y-127456895D02*
X64821119Y-127456895D01*
X71514167Y-127456895D02*
X71247500Y-127075942D01*
X71057024Y-127456895D02*
X71057024Y-126656895D01*
X71057024Y-126656895D02*
X71361786Y-126656895D01*
X71361786Y-126656895D02*
X71437976Y-126694990D01*
X71437976Y-126694990D02*
X71476071Y-126733085D01*
X71476071Y-126733085D02*
X71514167Y-126809276D01*
X71514167Y-126809276D02*
X71514167Y-126923561D01*
X71514167Y-126923561D02*
X71476071Y-126999752D01*
X71476071Y-126999752D02*
X71437976Y-127037847D01*
X71437976Y-127037847D02*
X71361786Y-127075942D01*
X71361786Y-127075942D02*
X71057024Y-127075942D01*
X71818928Y-127418800D02*
X71933214Y-127456895D01*
X71933214Y-127456895D02*
X72123690Y-127456895D01*
X72123690Y-127456895D02*
X72199881Y-127418800D01*
X72199881Y-127418800D02*
X72237976Y-127380704D01*
X72237976Y-127380704D02*
X72276071Y-127304514D01*
X72276071Y-127304514D02*
X72276071Y-127228323D01*
X72276071Y-127228323D02*
X72237976Y-127152133D01*
X72237976Y-127152133D02*
X72199881Y-127114038D01*
X72199881Y-127114038D02*
X72123690Y-127075942D01*
X72123690Y-127075942D02*
X71971309Y-127037847D01*
X71971309Y-127037847D02*
X71895119Y-126999752D01*
X71895119Y-126999752D02*
X71857024Y-126961657D01*
X71857024Y-126961657D02*
X71818928Y-126885466D01*
X71818928Y-126885466D02*
X71818928Y-126809276D01*
X71818928Y-126809276D02*
X71857024Y-126733085D01*
X71857024Y-126733085D02*
X71895119Y-126694990D01*
X71895119Y-126694990D02*
X71971309Y-126656895D01*
X71971309Y-126656895D02*
X72161786Y-126656895D01*
X72161786Y-126656895D02*
X72276071Y-126694990D01*
X72504643Y-126656895D02*
X72961786Y-126656895D01*
X72733214Y-127456895D02*
X72733214Y-126656895D01*
X68478928Y-127418800D02*
X68593214Y-127456895D01*
X68593214Y-127456895D02*
X68783690Y-127456895D01*
X68783690Y-127456895D02*
X68859881Y-127418800D01*
X68859881Y-127418800D02*
X68897976Y-127380704D01*
X68897976Y-127380704D02*
X68936071Y-127304514D01*
X68936071Y-127304514D02*
X68936071Y-127228323D01*
X68936071Y-127228323D02*
X68897976Y-127152133D01*
X68897976Y-127152133D02*
X68859881Y-127114038D01*
X68859881Y-127114038D02*
X68783690Y-127075942D01*
X68783690Y-127075942D02*
X68631309Y-127037847D01*
X68631309Y-127037847D02*
X68555119Y-126999752D01*
X68555119Y-126999752D02*
X68517024Y-126961657D01*
X68517024Y-126961657D02*
X68478928Y-126885466D01*
X68478928Y-126885466D02*
X68478928Y-126809276D01*
X68478928Y-126809276D02*
X68517024Y-126733085D01*
X68517024Y-126733085D02*
X68555119Y-126694990D01*
X68555119Y-126694990D02*
X68631309Y-126656895D01*
X68631309Y-126656895D02*
X68821786Y-126656895D01*
X68821786Y-126656895D02*
X68936071Y-126694990D01*
X69736072Y-127380704D02*
X69697976Y-127418800D01*
X69697976Y-127418800D02*
X69583691Y-127456895D01*
X69583691Y-127456895D02*
X69507500Y-127456895D01*
X69507500Y-127456895D02*
X69393214Y-127418800D01*
X69393214Y-127418800D02*
X69317024Y-127342609D01*
X69317024Y-127342609D02*
X69278929Y-127266419D01*
X69278929Y-127266419D02*
X69240833Y-127114038D01*
X69240833Y-127114038D02*
X69240833Y-126999752D01*
X69240833Y-126999752D02*
X69278929Y-126847371D01*
X69278929Y-126847371D02*
X69317024Y-126771180D01*
X69317024Y-126771180D02*
X69393214Y-126694990D01*
X69393214Y-126694990D02*
X69507500Y-126656895D01*
X69507500Y-126656895D02*
X69583691Y-126656895D01*
X69583691Y-126656895D02*
X69697976Y-126694990D01*
X69697976Y-126694990D02*
X69736072Y-126733085D01*
X70459881Y-127456895D02*
X70078929Y-127456895D01*
X70078929Y-127456895D02*
X70078929Y-126656895D01*
D13*
X79178578Y-99992048D02*
X78702387Y-100325381D01*
X79178578Y-100563476D02*
X78178578Y-100563476D01*
X78178578Y-100563476D02*
X78178578Y-100182524D01*
X78178578Y-100182524D02*
X78226197Y-100087286D01*
X78226197Y-100087286D02*
X78273816Y-100039667D01*
X78273816Y-100039667D02*
X78369054Y-99992048D01*
X78369054Y-99992048D02*
X78511911Y-99992048D01*
X78511911Y-99992048D02*
X78607149Y-100039667D01*
X78607149Y-100039667D02*
X78654768Y-100087286D01*
X78654768Y-100087286D02*
X78702387Y-100182524D01*
X78702387Y-100182524D02*
X78702387Y-100563476D01*
X78178578Y-99658714D02*
X78178578Y-98992048D01*
X78178578Y-98992048D02*
X79178578Y-99420619D01*
X104470717Y-127662780D02*
X103804051Y-127662780D01*
X103804051Y-127662780D02*
X104232622Y-126662780D01*
X96326908Y-127329447D02*
X96326908Y-126662780D01*
X96565003Y-127710400D02*
X96803098Y-126996114D01*
X96803098Y-126996114D02*
X96184051Y-126996114D01*
X98819289Y-127662780D02*
X99295479Y-127662780D01*
X99295479Y-127662780D02*
X99343098Y-127186590D01*
X99343098Y-127186590D02*
X99295479Y-127234209D01*
X99295479Y-127234209D02*
X99200241Y-127281828D01*
X99200241Y-127281828D02*
X98962146Y-127281828D01*
X98962146Y-127281828D02*
X98866908Y-127234209D01*
X98866908Y-127234209D02*
X98819289Y-127186590D01*
X98819289Y-127186590D02*
X98771670Y-127091352D01*
X98771670Y-127091352D02*
X98771670Y-126853257D01*
X98771670Y-126853257D02*
X98819289Y-126758019D01*
X98819289Y-126758019D02*
X98866908Y-126710400D01*
X98866908Y-126710400D02*
X98962146Y-126662780D01*
X98962146Y-126662780D02*
X99200241Y-126662780D01*
X99200241Y-126662780D02*
X99295479Y-126710400D01*
X99295479Y-126710400D02*
X99343098Y-126758019D01*
X111979670Y-126662780D02*
X112551098Y-126662780D01*
X112265384Y-126662780D02*
X112265384Y-127662780D01*
X112265384Y-127662780D02*
X112360622Y-127519923D01*
X112360622Y-127519923D02*
X112455860Y-127424685D01*
X112455860Y-127424685D02*
X112551098Y-127377066D01*
X111360622Y-127662780D02*
X111265384Y-127662780D01*
X111265384Y-127662780D02*
X111170146Y-127615161D01*
X111170146Y-127615161D02*
X111122527Y-127567542D01*
X111122527Y-127567542D02*
X111074908Y-127472304D01*
X111074908Y-127472304D02*
X111027289Y-127281828D01*
X111027289Y-127281828D02*
X111027289Y-127043733D01*
X111027289Y-127043733D02*
X111074908Y-126853257D01*
X111074908Y-126853257D02*
X111122527Y-126758019D01*
X111122527Y-126758019D02*
X111170146Y-126710400D01*
X111170146Y-126710400D02*
X111265384Y-126662780D01*
X111265384Y-126662780D02*
X111360622Y-126662780D01*
X111360622Y-126662780D02*
X111455860Y-126710400D01*
X111455860Y-126710400D02*
X111503479Y-126758019D01*
X111503479Y-126758019D02*
X111551098Y-126853257D01*
X111551098Y-126853257D02*
X111598717Y-127043733D01*
X111598717Y-127043733D02*
X111598717Y-127281828D01*
X111598717Y-127281828D02*
X111551098Y-127472304D01*
X111551098Y-127472304D02*
X111503479Y-127567542D01*
X111503479Y-127567542D02*
X111455860Y-127615161D01*
X111455860Y-127615161D02*
X111360622Y-127662780D01*
X109407860Y-126662780D02*
X109217384Y-126662780D01*
X109217384Y-126662780D02*
X109122146Y-126710400D01*
X109122146Y-126710400D02*
X109074527Y-126758019D01*
X109074527Y-126758019D02*
X108979289Y-126900876D01*
X108979289Y-126900876D02*
X108931670Y-127091352D01*
X108931670Y-127091352D02*
X108931670Y-127472304D01*
X108931670Y-127472304D02*
X108979289Y-127567542D01*
X108979289Y-127567542D02*
X109026908Y-127615161D01*
X109026908Y-127615161D02*
X109122146Y-127662780D01*
X109122146Y-127662780D02*
X109312622Y-127662780D01*
X109312622Y-127662780D02*
X109407860Y-127615161D01*
X109407860Y-127615161D02*
X109455479Y-127567542D01*
X109455479Y-127567542D02*
X109503098Y-127472304D01*
X109503098Y-127472304D02*
X109503098Y-127234209D01*
X109503098Y-127234209D02*
X109455479Y-127138971D01*
X109455479Y-127138971D02*
X109407860Y-127091352D01*
X109407860Y-127091352D02*
X109312622Y-127043733D01*
X109312622Y-127043733D02*
X109122146Y-127043733D01*
X109122146Y-127043733D02*
X109026908Y-127091352D01*
X109026908Y-127091352D02*
X108979289Y-127138971D01*
X108979289Y-127138971D02*
X108931670Y-127234209D01*
X102327670Y-112375161D02*
X102422908Y-112422780D01*
X102422908Y-112422780D02*
X102565765Y-112422780D01*
X102565765Y-112422780D02*
X102708622Y-112375161D01*
X102708622Y-112375161D02*
X102803860Y-112279923D01*
X102803860Y-112279923D02*
X102851479Y-112184685D01*
X102851479Y-112184685D02*
X102899098Y-111994209D01*
X102899098Y-111994209D02*
X102899098Y-111851352D01*
X102899098Y-111851352D02*
X102851479Y-111660876D01*
X102851479Y-111660876D02*
X102803860Y-111565638D01*
X102803860Y-111565638D02*
X102708622Y-111470400D01*
X102708622Y-111470400D02*
X102565765Y-111422780D01*
X102565765Y-111422780D02*
X102470527Y-111422780D01*
X102470527Y-111422780D02*
X102327670Y-111470400D01*
X102327670Y-111470400D02*
X102280051Y-111518019D01*
X102280051Y-111518019D02*
X102280051Y-111851352D01*
X102280051Y-111851352D02*
X102470527Y-111851352D01*
X101851479Y-111422780D02*
X101851479Y-112422780D01*
X101851479Y-112422780D02*
X101280051Y-111422780D01*
X101280051Y-111422780D02*
X101280051Y-112422780D01*
X100803860Y-111422780D02*
X100803860Y-112422780D01*
X100803860Y-112422780D02*
X100565765Y-112422780D01*
X100565765Y-112422780D02*
X100422908Y-112375161D01*
X100422908Y-112375161D02*
X100327670Y-112279923D01*
X100327670Y-112279923D02*
X100280051Y-112184685D01*
X100280051Y-112184685D02*
X100232432Y-111994209D01*
X100232432Y-111994209D02*
X100232432Y-111851352D01*
X100232432Y-111851352D02*
X100280051Y-111660876D01*
X100280051Y-111660876D02*
X100327670Y-111565638D01*
X100327670Y-111565638D02*
X100422908Y-111470400D01*
X100422908Y-111470400D02*
X100565765Y-111422780D01*
X100565765Y-111422780D02*
X100803860Y-111422780D01*
X88611670Y-126662780D02*
X89183098Y-126662780D01*
X88897384Y-126662780D02*
X88897384Y-127662780D01*
X88897384Y-127662780D02*
X88992622Y-127519923D01*
X88992622Y-127519923D02*
X89087860Y-127424685D01*
X89087860Y-127424685D02*
X89183098Y-127377066D01*
X114392670Y-126662780D02*
X114964098Y-126662780D01*
X114678384Y-126662780D02*
X114678384Y-127662780D01*
X114678384Y-127662780D02*
X114773622Y-127519923D01*
X114773622Y-127519923D02*
X114868860Y-127424685D01*
X114868860Y-127424685D02*
X114964098Y-127377066D01*
X113440289Y-126662780D02*
X114011717Y-126662780D01*
X113726003Y-126662780D02*
X113726003Y-127662780D01*
X113726003Y-127662780D02*
X113821241Y-127519923D01*
X113821241Y-127519923D02*
X113916479Y-127424685D01*
X113916479Y-127424685D02*
X114011717Y-127377066D01*
X105022717Y-115978780D02*
X104403670Y-115978780D01*
X104403670Y-115978780D02*
X104737003Y-115597828D01*
X104737003Y-115597828D02*
X104594146Y-115597828D01*
X104594146Y-115597828D02*
X104498908Y-115550209D01*
X104498908Y-115550209D02*
X104451289Y-115502590D01*
X104451289Y-115502590D02*
X104403670Y-115407352D01*
X104403670Y-115407352D02*
X104403670Y-115169257D01*
X104403670Y-115169257D02*
X104451289Y-115074019D01*
X104451289Y-115074019D02*
X104498908Y-115026400D01*
X104498908Y-115026400D02*
X104594146Y-114978780D01*
X104594146Y-114978780D02*
X104879860Y-114978780D01*
X104879860Y-114978780D02*
X104975098Y-115026400D01*
X104975098Y-115026400D02*
X105022717Y-115074019D01*
X104117955Y-115978780D02*
X103784622Y-114978780D01*
X103784622Y-114978780D02*
X103451289Y-115978780D01*
X94977479Y-114978780D02*
X94977479Y-115978780D01*
X94501289Y-114978780D02*
X94501289Y-115978780D01*
X94501289Y-115978780D02*
X93929861Y-114978780D01*
X93929861Y-114978780D02*
X93929861Y-115978780D01*
X93596527Y-115978780D02*
X93025099Y-115978780D01*
X93310813Y-114978780D02*
X93310813Y-115978780D01*
X106772622Y-127234209D02*
X106867860Y-127281828D01*
X106867860Y-127281828D02*
X106915479Y-127329447D01*
X106915479Y-127329447D02*
X106963098Y-127424685D01*
X106963098Y-127424685D02*
X106963098Y-127472304D01*
X106963098Y-127472304D02*
X106915479Y-127567542D01*
X106915479Y-127567542D02*
X106867860Y-127615161D01*
X106867860Y-127615161D02*
X106772622Y-127662780D01*
X106772622Y-127662780D02*
X106582146Y-127662780D01*
X106582146Y-127662780D02*
X106486908Y-127615161D01*
X106486908Y-127615161D02*
X106439289Y-127567542D01*
X106439289Y-127567542D02*
X106391670Y-127472304D01*
X106391670Y-127472304D02*
X106391670Y-127424685D01*
X106391670Y-127424685D02*
X106439289Y-127329447D01*
X106439289Y-127329447D02*
X106486908Y-127281828D01*
X106486908Y-127281828D02*
X106582146Y-127234209D01*
X106582146Y-127234209D02*
X106772622Y-127234209D01*
X106772622Y-127234209D02*
X106867860Y-127186590D01*
X106867860Y-127186590D02*
X106915479Y-127138971D01*
X106915479Y-127138971D02*
X106963098Y-127043733D01*
X106963098Y-127043733D02*
X106963098Y-126853257D01*
X106963098Y-126853257D02*
X106915479Y-126758019D01*
X106915479Y-126758019D02*
X106867860Y-126710400D01*
X106867860Y-126710400D02*
X106772622Y-126662780D01*
X106772622Y-126662780D02*
X106582146Y-126662780D01*
X106582146Y-126662780D02*
X106486908Y-126710400D01*
X106486908Y-126710400D02*
X106439289Y-126758019D01*
X106439289Y-126758019D02*
X106391670Y-126853257D01*
X106391670Y-126853257D02*
X106391670Y-127043733D01*
X106391670Y-127043733D02*
X106439289Y-127138971D01*
X106439289Y-127138971D02*
X106486908Y-127186590D01*
X106486908Y-127186590D02*
X106582146Y-127234209D01*
X86457003Y-127662780D02*
X86361765Y-127662780D01*
X86361765Y-127662780D02*
X86266527Y-127615161D01*
X86266527Y-127615161D02*
X86218908Y-127567542D01*
X86218908Y-127567542D02*
X86171289Y-127472304D01*
X86171289Y-127472304D02*
X86123670Y-127281828D01*
X86123670Y-127281828D02*
X86123670Y-127043733D01*
X86123670Y-127043733D02*
X86171289Y-126853257D01*
X86171289Y-126853257D02*
X86218908Y-126758019D01*
X86218908Y-126758019D02*
X86266527Y-126710400D01*
X86266527Y-126710400D02*
X86361765Y-126662780D01*
X86361765Y-126662780D02*
X86457003Y-126662780D01*
X86457003Y-126662780D02*
X86552241Y-126710400D01*
X86552241Y-126710400D02*
X86599860Y-126758019D01*
X86599860Y-126758019D02*
X86647479Y-126853257D01*
X86647479Y-126853257D02*
X86695098Y-127043733D01*
X86695098Y-127043733D02*
X86695098Y-127281828D01*
X86695098Y-127281828D02*
X86647479Y-127472304D01*
X86647479Y-127472304D02*
X86599860Y-127567542D01*
X86599860Y-127567542D02*
X86552241Y-127615161D01*
X86552241Y-127615161D02*
X86457003Y-127662780D01*
X94310717Y-127662780D02*
X93691670Y-127662780D01*
X93691670Y-127662780D02*
X94025003Y-127281828D01*
X94025003Y-127281828D02*
X93882146Y-127281828D01*
X93882146Y-127281828D02*
X93786908Y-127234209D01*
X93786908Y-127234209D02*
X93739289Y-127186590D01*
X93739289Y-127186590D02*
X93691670Y-127091352D01*
X93691670Y-127091352D02*
X93691670Y-126853257D01*
X93691670Y-126853257D02*
X93739289Y-126758019D01*
X93739289Y-126758019D02*
X93786908Y-126710400D01*
X93786908Y-126710400D02*
X93882146Y-126662780D01*
X93882146Y-126662780D02*
X94167860Y-126662780D01*
X94167860Y-126662780D02*
X94263098Y-126710400D01*
X94263098Y-126710400D02*
X94310717Y-126758019D01*
X92993098Y-111708495D02*
X92516908Y-111708495D01*
X93088336Y-111422780D02*
X92755003Y-112422780D01*
X92755003Y-112422780D02*
X92421670Y-111422780D01*
X92088336Y-111422780D02*
X92088336Y-112422780D01*
X92088336Y-112422780D02*
X91850241Y-112422780D01*
X91850241Y-112422780D02*
X91707384Y-112375161D01*
X91707384Y-112375161D02*
X91612146Y-112279923D01*
X91612146Y-112279923D02*
X91564527Y-112184685D01*
X91564527Y-112184685D02*
X91516908Y-111994209D01*
X91516908Y-111994209D02*
X91516908Y-111851352D01*
X91516908Y-111851352D02*
X91564527Y-111660876D01*
X91564527Y-111660876D02*
X91612146Y-111565638D01*
X91612146Y-111565638D02*
X91707384Y-111470400D01*
X91707384Y-111470400D02*
X91850241Y-111422780D01*
X91850241Y-111422780D02*
X92088336Y-111422780D01*
X91088336Y-111422780D02*
X91088336Y-112422780D01*
X91088336Y-112422780D02*
X90850241Y-112422780D01*
X90850241Y-112422780D02*
X90707384Y-112375161D01*
X90707384Y-112375161D02*
X90612146Y-112279923D01*
X90612146Y-112279923D02*
X90564527Y-112184685D01*
X90564527Y-112184685D02*
X90516908Y-111994209D01*
X90516908Y-111994209D02*
X90516908Y-111851352D01*
X90516908Y-111851352D02*
X90564527Y-111660876D01*
X90564527Y-111660876D02*
X90612146Y-111565638D01*
X90612146Y-111565638D02*
X90707384Y-111470400D01*
X90707384Y-111470400D02*
X90850241Y-111422780D01*
X90850241Y-111422780D02*
X91088336Y-111422780D01*
X89516908Y-111422780D02*
X89850241Y-111898971D01*
X90088336Y-111422780D02*
X90088336Y-112422780D01*
X90088336Y-112422780D02*
X89707384Y-112422780D01*
X89707384Y-112422780D02*
X89612146Y-112375161D01*
X89612146Y-112375161D02*
X89564527Y-112327542D01*
X89564527Y-112327542D02*
X89516908Y-112232304D01*
X89516908Y-112232304D02*
X89516908Y-112089447D01*
X89516908Y-112089447D02*
X89564527Y-111994209D01*
X89564527Y-111994209D02*
X89612146Y-111946590D01*
X89612146Y-111946590D02*
X89707384Y-111898971D01*
X89707384Y-111898971D02*
X90088336Y-111898971D01*
X91723098Y-127567542D02*
X91675479Y-127615161D01*
X91675479Y-127615161D02*
X91580241Y-127662780D01*
X91580241Y-127662780D02*
X91342146Y-127662780D01*
X91342146Y-127662780D02*
X91246908Y-127615161D01*
X91246908Y-127615161D02*
X91199289Y-127567542D01*
X91199289Y-127567542D02*
X91151670Y-127472304D01*
X91151670Y-127472304D02*
X91151670Y-127377066D01*
X91151670Y-127377066D02*
X91199289Y-127234209D01*
X91199289Y-127234209D02*
X91770717Y-126662780D01*
X91770717Y-126662780D02*
X91151670Y-126662780D01*
X101406908Y-127662780D02*
X101597384Y-127662780D01*
X101597384Y-127662780D02*
X101692622Y-127615161D01*
X101692622Y-127615161D02*
X101740241Y-127567542D01*
X101740241Y-127567542D02*
X101835479Y-127424685D01*
X101835479Y-127424685D02*
X101883098Y-127234209D01*
X101883098Y-127234209D02*
X101883098Y-126853257D01*
X101883098Y-126853257D02*
X101835479Y-126758019D01*
X101835479Y-126758019D02*
X101787860Y-126710400D01*
X101787860Y-126710400D02*
X101692622Y-126662780D01*
X101692622Y-126662780D02*
X101502146Y-126662780D01*
X101502146Y-126662780D02*
X101406908Y-126710400D01*
X101406908Y-126710400D02*
X101359289Y-126758019D01*
X101359289Y-126758019D02*
X101311670Y-126853257D01*
X101311670Y-126853257D02*
X101311670Y-127091352D01*
X101311670Y-127091352D02*
X101359289Y-127186590D01*
X101359289Y-127186590D02*
X101406908Y-127234209D01*
X101406908Y-127234209D02*
X101502146Y-127281828D01*
X101502146Y-127281828D02*
X101692622Y-127281828D01*
X101692622Y-127281828D02*
X101787860Y-127234209D01*
X101787860Y-127234209D02*
X101835479Y-127186590D01*
X101835479Y-127186590D02*
X101883098Y-127091352D01*
X100359098Y-115026400D02*
X100216241Y-114978780D01*
X100216241Y-114978780D02*
X99978146Y-114978780D01*
X99978146Y-114978780D02*
X99882908Y-115026400D01*
X99882908Y-115026400D02*
X99835289Y-115074019D01*
X99835289Y-115074019D02*
X99787670Y-115169257D01*
X99787670Y-115169257D02*
X99787670Y-115264495D01*
X99787670Y-115264495D02*
X99835289Y-115359733D01*
X99835289Y-115359733D02*
X99882908Y-115407352D01*
X99882908Y-115407352D02*
X99978146Y-115454971D01*
X99978146Y-115454971D02*
X100168622Y-115502590D01*
X100168622Y-115502590D02*
X100263860Y-115550209D01*
X100263860Y-115550209D02*
X100311479Y-115597828D01*
X100311479Y-115597828D02*
X100359098Y-115693066D01*
X100359098Y-115693066D02*
X100359098Y-115788304D01*
X100359098Y-115788304D02*
X100311479Y-115883542D01*
X100311479Y-115883542D02*
X100263860Y-115931161D01*
X100263860Y-115931161D02*
X100168622Y-115978780D01*
X100168622Y-115978780D02*
X99930527Y-115978780D01*
X99930527Y-115978780D02*
X99787670Y-115931161D01*
X98787670Y-115074019D02*
X98835289Y-115026400D01*
X98835289Y-115026400D02*
X98978146Y-114978780D01*
X98978146Y-114978780D02*
X99073384Y-114978780D01*
X99073384Y-114978780D02*
X99216241Y-115026400D01*
X99216241Y-115026400D02*
X99311479Y-115121638D01*
X99311479Y-115121638D02*
X99359098Y-115216876D01*
X99359098Y-115216876D02*
X99406717Y-115407352D01*
X99406717Y-115407352D02*
X99406717Y-115550209D01*
X99406717Y-115550209D02*
X99359098Y-115740685D01*
X99359098Y-115740685D02*
X99311479Y-115835923D01*
X99311479Y-115835923D02*
X99216241Y-115931161D01*
X99216241Y-115931161D02*
X99073384Y-115978780D01*
X99073384Y-115978780D02*
X98978146Y-115978780D01*
X98978146Y-115978780D02*
X98835289Y-115931161D01*
X98835289Y-115931161D02*
X98787670Y-115883542D01*
X97882908Y-114978780D02*
X98359098Y-114978780D01*
X98359098Y-114978780D02*
X98359098Y-115978780D01*
X84458820Y-125615188D02*
X84506439Y-125519950D01*
X84506439Y-125519950D02*
X84506439Y-125377093D01*
X84506439Y-125377093D02*
X84458820Y-125234236D01*
X84458820Y-125234236D02*
X84363582Y-125138998D01*
X84363582Y-125138998D02*
X84268344Y-125091379D01*
X84268344Y-125091379D02*
X84077868Y-125043760D01*
X84077868Y-125043760D02*
X83935011Y-125043760D01*
X83935011Y-125043760D02*
X83744535Y-125091379D01*
X83744535Y-125091379D02*
X83649297Y-125138998D01*
X83649297Y-125138998D02*
X83554059Y-125234236D01*
X83554059Y-125234236D02*
X83506439Y-125377093D01*
X83506439Y-125377093D02*
X83506439Y-125472331D01*
X83506439Y-125472331D02*
X83554059Y-125615188D01*
X83554059Y-125615188D02*
X83601678Y-125662807D01*
X83601678Y-125662807D02*
X83935011Y-125662807D01*
X83935011Y-125662807D02*
X83935011Y-125472331D01*
X83506439Y-126091379D02*
X84506439Y-126091379D01*
X84506439Y-126091379D02*
X83506439Y-126662807D01*
X83506439Y-126662807D02*
X84506439Y-126662807D01*
X83506439Y-127138998D02*
X84506439Y-127138998D01*
X84506439Y-127138998D02*
X84506439Y-127377093D01*
X84506439Y-127377093D02*
X84458820Y-127519950D01*
X84458820Y-127519950D02*
X84363582Y-127615188D01*
X84363582Y-127615188D02*
X84268344Y-127662807D01*
X84268344Y-127662807D02*
X84077868Y-127710426D01*
X84077868Y-127710426D02*
X83935011Y-127710426D01*
X83935011Y-127710426D02*
X83744535Y-127662807D01*
X83744535Y-127662807D02*
X83649297Y-127615188D01*
X83649297Y-127615188D02*
X83554059Y-127519950D01*
X83554059Y-127519950D02*
X83506439Y-127377093D01*
X83506439Y-127377093D02*
X83506439Y-127138998D01*
X107770336Y-112422780D02*
X107437003Y-111422780D01*
X107437003Y-111422780D02*
X107103670Y-112422780D01*
X106770336Y-111422780D02*
X106770336Y-112422780D01*
X106294146Y-111422780D02*
X106294146Y-112422780D01*
X106294146Y-112422780D02*
X105722718Y-111422780D01*
X105722718Y-111422780D02*
X105722718Y-112422780D01*
X97819098Y-111470400D02*
X97676241Y-111422780D01*
X97676241Y-111422780D02*
X97438146Y-111422780D01*
X97438146Y-111422780D02*
X97342908Y-111470400D01*
X97342908Y-111470400D02*
X97295289Y-111518019D01*
X97295289Y-111518019D02*
X97247670Y-111613257D01*
X97247670Y-111613257D02*
X97247670Y-111708495D01*
X97247670Y-111708495D02*
X97295289Y-111803733D01*
X97295289Y-111803733D02*
X97342908Y-111851352D01*
X97342908Y-111851352D02*
X97438146Y-111898971D01*
X97438146Y-111898971D02*
X97628622Y-111946590D01*
X97628622Y-111946590D02*
X97723860Y-111994209D01*
X97723860Y-111994209D02*
X97771479Y-112041828D01*
X97771479Y-112041828D02*
X97819098Y-112137066D01*
X97819098Y-112137066D02*
X97819098Y-112232304D01*
X97819098Y-112232304D02*
X97771479Y-112327542D01*
X97771479Y-112327542D02*
X97723860Y-112375161D01*
X97723860Y-112375161D02*
X97628622Y-112422780D01*
X97628622Y-112422780D02*
X97390527Y-112422780D01*
X97390527Y-112422780D02*
X97247670Y-112375161D01*
X96819098Y-111422780D02*
X96819098Y-112422780D01*
X96819098Y-112422780D02*
X96581003Y-112422780D01*
X96581003Y-112422780D02*
X96438146Y-112375161D01*
X96438146Y-112375161D02*
X96342908Y-112279923D01*
X96342908Y-112279923D02*
X96295289Y-112184685D01*
X96295289Y-112184685D02*
X96247670Y-111994209D01*
X96247670Y-111994209D02*
X96247670Y-111851352D01*
X96247670Y-111851352D02*
X96295289Y-111660876D01*
X96295289Y-111660876D02*
X96342908Y-111565638D01*
X96342908Y-111565638D02*
X96438146Y-111470400D01*
X96438146Y-111470400D02*
X96581003Y-111422780D01*
X96581003Y-111422780D02*
X96819098Y-111422780D01*
X95866717Y-111708495D02*
X95390527Y-111708495D01*
X95961955Y-111422780D02*
X95628622Y-112422780D01*
X95628622Y-112422780D02*
X95295289Y-111422780D01*
X129758219Y-129642200D02*
X129901076Y-129689819D01*
X129901076Y-129689819D02*
X130139171Y-129689819D01*
X130139171Y-129689819D02*
X130234409Y-129642200D01*
X130234409Y-129642200D02*
X130282028Y-129594580D01*
X130282028Y-129594580D02*
X130329647Y-129499342D01*
X130329647Y-129499342D02*
X130329647Y-129404104D01*
X130329647Y-129404104D02*
X130282028Y-129308866D01*
X130282028Y-129308866D02*
X130234409Y-129261247D01*
X130234409Y-129261247D02*
X130139171Y-129213628D01*
X130139171Y-129213628D02*
X129948695Y-129166009D01*
X129948695Y-129166009D02*
X129853457Y-129118390D01*
X129853457Y-129118390D02*
X129805838Y-129070771D01*
X129805838Y-129070771D02*
X129758219Y-128975533D01*
X129758219Y-128975533D02*
X129758219Y-128880295D01*
X129758219Y-128880295D02*
X129805838Y-128785057D01*
X129805838Y-128785057D02*
X129853457Y-128737438D01*
X129853457Y-128737438D02*
X129948695Y-128689819D01*
X129948695Y-128689819D02*
X130186790Y-128689819D01*
X130186790Y-128689819D02*
X130329647Y-128737438D01*
X131329647Y-129594580D02*
X131282028Y-129642200D01*
X131282028Y-129642200D02*
X131139171Y-129689819D01*
X131139171Y-129689819D02*
X131043933Y-129689819D01*
X131043933Y-129689819D02*
X130901076Y-129642200D01*
X130901076Y-129642200D02*
X130805838Y-129546961D01*
X130805838Y-129546961D02*
X130758219Y-129451723D01*
X130758219Y-129451723D02*
X130710600Y-129261247D01*
X130710600Y-129261247D02*
X130710600Y-129118390D01*
X130710600Y-129118390D02*
X130758219Y-128927914D01*
X130758219Y-128927914D02*
X130805838Y-128832676D01*
X130805838Y-128832676D02*
X130901076Y-128737438D01*
X130901076Y-128737438D02*
X131043933Y-128689819D01*
X131043933Y-128689819D02*
X131139171Y-128689819D01*
X131139171Y-128689819D02*
X131282028Y-128737438D01*
X131282028Y-128737438D02*
X131329647Y-128785057D01*
X132234409Y-129689819D02*
X131758219Y-129689819D01*
X131758219Y-129689819D02*
X131758219Y-128689819D01*
X134929647Y-128737438D02*
X134834409Y-128689819D01*
X134834409Y-128689819D02*
X134691552Y-128689819D01*
X134691552Y-128689819D02*
X134548695Y-128737438D01*
X134548695Y-128737438D02*
X134453457Y-128832676D01*
X134453457Y-128832676D02*
X134405838Y-128927914D01*
X134405838Y-128927914D02*
X134358219Y-129118390D01*
X134358219Y-129118390D02*
X134358219Y-129261247D01*
X134358219Y-129261247D02*
X134405838Y-129451723D01*
X134405838Y-129451723D02*
X134453457Y-129546961D01*
X134453457Y-129546961D02*
X134548695Y-129642200D01*
X134548695Y-129642200D02*
X134691552Y-129689819D01*
X134691552Y-129689819D02*
X134786790Y-129689819D01*
X134786790Y-129689819D02*
X134929647Y-129642200D01*
X134929647Y-129642200D02*
X134977266Y-129594580D01*
X134977266Y-129594580D02*
X134977266Y-129261247D01*
X134977266Y-129261247D02*
X134786790Y-129261247D01*
X135405838Y-129689819D02*
X135405838Y-128689819D01*
X135405838Y-128689819D02*
X135786790Y-128689819D01*
X135786790Y-128689819D02*
X135882028Y-128737438D01*
X135882028Y-128737438D02*
X135929647Y-128785057D01*
X135929647Y-128785057D02*
X135977266Y-128880295D01*
X135977266Y-128880295D02*
X135977266Y-129023152D01*
X135977266Y-129023152D02*
X135929647Y-129118390D01*
X135929647Y-129118390D02*
X135882028Y-129166009D01*
X135882028Y-129166009D02*
X135786790Y-129213628D01*
X135786790Y-129213628D02*
X135405838Y-129213628D01*
X136405838Y-129689819D02*
X136405838Y-128689819D01*
X137072504Y-128689819D02*
X137262980Y-128689819D01*
X137262980Y-128689819D02*
X137358218Y-128737438D01*
X137358218Y-128737438D02*
X137453456Y-128832676D01*
X137453456Y-128832676D02*
X137501075Y-129023152D01*
X137501075Y-129023152D02*
X137501075Y-129356485D01*
X137501075Y-129356485D02*
X137453456Y-129546961D01*
X137453456Y-129546961D02*
X137358218Y-129642200D01*
X137358218Y-129642200D02*
X137262980Y-129689819D01*
X137262980Y-129689819D02*
X137072504Y-129689819D01*
X137072504Y-129689819D02*
X136977266Y-129642200D01*
X136977266Y-129642200D02*
X136882028Y-129546961D01*
X136882028Y-129546961D02*
X136834409Y-129356485D01*
X136834409Y-129356485D02*
X136834409Y-129023152D01*
X136834409Y-129023152D02*
X136882028Y-128832676D01*
X136882028Y-128832676D02*
X136977266Y-128737438D01*
X136977266Y-128737438D02*
X137072504Y-128689819D01*
X127629647Y-125207438D02*
X127534409Y-125159819D01*
X127534409Y-125159819D02*
X127391552Y-125159819D01*
X127391552Y-125159819D02*
X127248695Y-125207438D01*
X127248695Y-125207438D02*
X127153457Y-125302676D01*
X127153457Y-125302676D02*
X127105838Y-125397914D01*
X127105838Y-125397914D02*
X127058219Y-125588390D01*
X127058219Y-125588390D02*
X127058219Y-125731247D01*
X127058219Y-125731247D02*
X127105838Y-125921723D01*
X127105838Y-125921723D02*
X127153457Y-126016961D01*
X127153457Y-126016961D02*
X127248695Y-126112200D01*
X127248695Y-126112200D02*
X127391552Y-126159819D01*
X127391552Y-126159819D02*
X127486790Y-126159819D01*
X127486790Y-126159819D02*
X127629647Y-126112200D01*
X127629647Y-126112200D02*
X127677266Y-126064580D01*
X127677266Y-126064580D02*
X127677266Y-125731247D01*
X127677266Y-125731247D02*
X127486790Y-125731247D01*
X128105838Y-126159819D02*
X128105838Y-125159819D01*
X128105838Y-125159819D02*
X128677266Y-126159819D01*
X128677266Y-126159819D02*
X128677266Y-125159819D01*
X129153457Y-126159819D02*
X129153457Y-125159819D01*
X129153457Y-125159819D02*
X129391552Y-125159819D01*
X129391552Y-125159819D02*
X129534409Y-125207438D01*
X129534409Y-125207438D02*
X129629647Y-125302676D01*
X129629647Y-125302676D02*
X129677266Y-125397914D01*
X129677266Y-125397914D02*
X129724885Y-125588390D01*
X129724885Y-125588390D02*
X129724885Y-125731247D01*
X129724885Y-125731247D02*
X129677266Y-125921723D01*
X129677266Y-125921723D02*
X129629647Y-126016961D01*
X129629647Y-126016961D02*
X129534409Y-126112200D01*
X129534409Y-126112200D02*
X129391552Y-126159819D01*
X129391552Y-126159819D02*
X129153457Y-126159819D01*
X136410600Y-125159819D02*
X137077266Y-126159819D01*
X137077266Y-125159819D02*
X136410600Y-126159819D01*
X137410600Y-126112200D02*
X137553457Y-126159819D01*
X137553457Y-126159819D02*
X137791552Y-126159819D01*
X137791552Y-126159819D02*
X137886790Y-126112200D01*
X137886790Y-126112200D02*
X137934409Y-126064580D01*
X137934409Y-126064580D02*
X137982028Y-125969342D01*
X137982028Y-125969342D02*
X137982028Y-125874104D01*
X137982028Y-125874104D02*
X137934409Y-125778866D01*
X137934409Y-125778866D02*
X137886790Y-125731247D01*
X137886790Y-125731247D02*
X137791552Y-125683628D01*
X137791552Y-125683628D02*
X137601076Y-125636009D01*
X137601076Y-125636009D02*
X137505838Y-125588390D01*
X137505838Y-125588390D02*
X137458219Y-125540771D01*
X137458219Y-125540771D02*
X137410600Y-125445533D01*
X137410600Y-125445533D02*
X137410600Y-125350295D01*
X137410600Y-125350295D02*
X137458219Y-125255057D01*
X137458219Y-125255057D02*
X137505838Y-125207438D01*
X137505838Y-125207438D02*
X137601076Y-125159819D01*
X137601076Y-125159819D02*
X137839171Y-125159819D01*
X137839171Y-125159819D02*
X137982028Y-125207438D01*
X138410600Y-126159819D02*
X138410600Y-125159819D01*
X138410600Y-125636009D02*
X138982028Y-125636009D01*
X138982028Y-126159819D02*
X138982028Y-125159819D01*
X139458219Y-125159819D02*
X139458219Y-125969342D01*
X139458219Y-125969342D02*
X139505838Y-126064580D01*
X139505838Y-126064580D02*
X139553457Y-126112200D01*
X139553457Y-126112200D02*
X139648695Y-126159819D01*
X139648695Y-126159819D02*
X139839171Y-126159819D01*
X139839171Y-126159819D02*
X139934409Y-126112200D01*
X139934409Y-126112200D02*
X139982028Y-126064580D01*
X139982028Y-126064580D02*
X140029647Y-125969342D01*
X140029647Y-125969342D02*
X140029647Y-125159819D01*
X140362981Y-125159819D02*
X140934409Y-125159819D01*
X140648695Y-126159819D02*
X140648695Y-125159819D01*
X124762981Y-128689819D02*
X125096314Y-129689819D01*
X125096314Y-129689819D02*
X125429647Y-128689819D01*
X125762981Y-129689819D02*
X125762981Y-128689819D01*
X126239171Y-129689819D02*
X126239171Y-128689819D01*
X126239171Y-128689819D02*
X126810599Y-129689819D01*
X126810599Y-129689819D02*
X126810599Y-128689819D01*
X132258219Y-126112200D02*
X132401076Y-126159819D01*
X132401076Y-126159819D02*
X132639171Y-126159819D01*
X132639171Y-126159819D02*
X132734409Y-126112200D01*
X132734409Y-126112200D02*
X132782028Y-126064580D01*
X132782028Y-126064580D02*
X132829647Y-125969342D01*
X132829647Y-125969342D02*
X132829647Y-125874104D01*
X132829647Y-125874104D02*
X132782028Y-125778866D01*
X132782028Y-125778866D02*
X132734409Y-125731247D01*
X132734409Y-125731247D02*
X132639171Y-125683628D01*
X132639171Y-125683628D02*
X132448695Y-125636009D01*
X132448695Y-125636009D02*
X132353457Y-125588390D01*
X132353457Y-125588390D02*
X132305838Y-125540771D01*
X132305838Y-125540771D02*
X132258219Y-125445533D01*
X132258219Y-125445533D02*
X132258219Y-125350295D01*
X132258219Y-125350295D02*
X132305838Y-125255057D01*
X132305838Y-125255057D02*
X132353457Y-125207438D01*
X132353457Y-125207438D02*
X132448695Y-125159819D01*
X132448695Y-125159819D02*
X132686790Y-125159819D01*
X132686790Y-125159819D02*
X132829647Y-125207438D01*
X133258219Y-126159819D02*
X133258219Y-125159819D01*
X133258219Y-125159819D02*
X133496314Y-125159819D01*
X133496314Y-125159819D02*
X133639171Y-125207438D01*
X133639171Y-125207438D02*
X133734409Y-125302676D01*
X133734409Y-125302676D02*
X133782028Y-125397914D01*
X133782028Y-125397914D02*
X133829647Y-125588390D01*
X133829647Y-125588390D02*
X133829647Y-125731247D01*
X133829647Y-125731247D02*
X133782028Y-125921723D01*
X133782028Y-125921723D02*
X133734409Y-126016961D01*
X133734409Y-126016961D02*
X133639171Y-126112200D01*
X133639171Y-126112200D02*
X133496314Y-126159819D01*
X133496314Y-126159819D02*
X133258219Y-126159819D01*
X134210600Y-125874104D02*
X134686790Y-125874104D01*
X134115362Y-126159819D02*
X134448695Y-125159819D01*
X134448695Y-125159819D02*
X134782028Y-126159819D01*
X74278578Y-100062048D02*
X73802387Y-100395381D01*
X74278578Y-100633476D02*
X73278578Y-100633476D01*
X73278578Y-100633476D02*
X73278578Y-100252524D01*
X73278578Y-100252524D02*
X73326197Y-100157286D01*
X73326197Y-100157286D02*
X73373816Y-100109667D01*
X73373816Y-100109667D02*
X73469054Y-100062048D01*
X73469054Y-100062048D02*
X73611911Y-100062048D01*
X73611911Y-100062048D02*
X73707149Y-100109667D01*
X73707149Y-100109667D02*
X73754768Y-100157286D01*
X73754768Y-100157286D02*
X73802387Y-100252524D01*
X73802387Y-100252524D02*
X73802387Y-100633476D01*
X73278578Y-99204905D02*
X73278578Y-99395381D01*
X73278578Y-99395381D02*
X73326197Y-99490619D01*
X73326197Y-99490619D02*
X73373816Y-99538238D01*
X73373816Y-99538238D02*
X73516673Y-99633476D01*
X73516673Y-99633476D02*
X73707149Y-99681095D01*
X73707149Y-99681095D02*
X74088101Y-99681095D01*
X74088101Y-99681095D02*
X74183339Y-99633476D01*
X74183339Y-99633476D02*
X74230959Y-99585857D01*
X74230959Y-99585857D02*
X74278578Y-99490619D01*
X74278578Y-99490619D02*
X74278578Y-99300143D01*
X74278578Y-99300143D02*
X74230959Y-99204905D01*
X74230959Y-99204905D02*
X74183339Y-99157286D01*
X74183339Y-99157286D02*
X74088101Y-99109667D01*
X74088101Y-99109667D02*
X73850006Y-99109667D01*
X73850006Y-99109667D02*
X73754768Y-99157286D01*
X73754768Y-99157286D02*
X73707149Y-99204905D01*
X73707149Y-99204905D02*
X73659530Y-99300143D01*
X73659530Y-99300143D02*
X73659530Y-99490619D01*
X73659530Y-99490619D02*
X73707149Y-99585857D01*
X73707149Y-99585857D02*
X73754768Y-99633476D01*
X73754768Y-99633476D02*
X73850006Y-99681095D01*
X125127092Y-63284367D02*
X124793759Y-62808176D01*
X124555664Y-63284367D02*
X124555664Y-62284367D01*
X124555664Y-62284367D02*
X124936616Y-62284367D01*
X124936616Y-62284367D02*
X125031854Y-62331986D01*
X125031854Y-62331986D02*
X125079473Y-62379605D01*
X125079473Y-62379605D02*
X125127092Y-62474843D01*
X125127092Y-62474843D02*
X125127092Y-62617700D01*
X125127092Y-62617700D02*
X125079473Y-62712938D01*
X125079473Y-62712938D02*
X125031854Y-62760557D01*
X125031854Y-62760557D02*
X124936616Y-62808176D01*
X124936616Y-62808176D02*
X124555664Y-62808176D01*
X126031854Y-62284367D02*
X125555664Y-62284367D01*
X125555664Y-62284367D02*
X125508045Y-62760557D01*
X125508045Y-62760557D02*
X125555664Y-62712938D01*
X125555664Y-62712938D02*
X125650902Y-62665319D01*
X125650902Y-62665319D02*
X125888997Y-62665319D01*
X125888997Y-62665319D02*
X125984235Y-62712938D01*
X125984235Y-62712938D02*
X126031854Y-62760557D01*
X126031854Y-62760557D02*
X126079473Y-62855795D01*
X126079473Y-62855795D02*
X126079473Y-63093890D01*
X126079473Y-63093890D02*
X126031854Y-63189128D01*
X126031854Y-63189128D02*
X125984235Y-63236748D01*
X125984235Y-63236748D02*
X125888997Y-63284367D01*
X125888997Y-63284367D02*
X125650902Y-63284367D01*
X125650902Y-63284367D02*
X125555664Y-63236748D01*
X125555664Y-63236748D02*
X125508045Y-63189128D01*
D11*
X61092738Y-101330895D02*
X61359405Y-102130895D01*
X61359405Y-102130895D02*
X61626071Y-101330895D01*
X62349881Y-102054704D02*
X62311785Y-102092800D01*
X62311785Y-102092800D02*
X62197500Y-102130895D01*
X62197500Y-102130895D02*
X62121309Y-102130895D01*
X62121309Y-102130895D02*
X62007023Y-102092800D01*
X62007023Y-102092800D02*
X61930833Y-102016609D01*
X61930833Y-102016609D02*
X61892738Y-101940419D01*
X61892738Y-101940419D02*
X61854642Y-101788038D01*
X61854642Y-101788038D02*
X61854642Y-101673752D01*
X61854642Y-101673752D02*
X61892738Y-101521371D01*
X61892738Y-101521371D02*
X61930833Y-101445180D01*
X61930833Y-101445180D02*
X62007023Y-101368990D01*
X62007023Y-101368990D02*
X62121309Y-101330895D01*
X62121309Y-101330895D02*
X62197500Y-101330895D01*
X62197500Y-101330895D02*
X62311785Y-101368990D01*
X62311785Y-101368990D02*
X62349881Y-101407085D01*
X63149881Y-102054704D02*
X63111785Y-102092800D01*
X63111785Y-102092800D02*
X62997500Y-102130895D01*
X62997500Y-102130895D02*
X62921309Y-102130895D01*
X62921309Y-102130895D02*
X62807023Y-102092800D01*
X62807023Y-102092800D02*
X62730833Y-102016609D01*
X62730833Y-102016609D02*
X62692738Y-101940419D01*
X62692738Y-101940419D02*
X62654642Y-101788038D01*
X62654642Y-101788038D02*
X62654642Y-101673752D01*
X62654642Y-101673752D02*
X62692738Y-101521371D01*
X62692738Y-101521371D02*
X62730833Y-101445180D01*
X62730833Y-101445180D02*
X62807023Y-101368990D01*
X62807023Y-101368990D02*
X62921309Y-101330895D01*
X62921309Y-101330895D02*
X62997500Y-101330895D01*
X62997500Y-101330895D02*
X63111785Y-101368990D01*
X63111785Y-101368990D02*
X63149881Y-101407085D01*
X55009405Y-101330895D02*
X55161786Y-101330895D01*
X55161786Y-101330895D02*
X55237976Y-101368990D01*
X55237976Y-101368990D02*
X55314167Y-101445180D01*
X55314167Y-101445180D02*
X55352262Y-101597561D01*
X55352262Y-101597561D02*
X55352262Y-101864228D01*
X55352262Y-101864228D02*
X55314167Y-102016609D01*
X55314167Y-102016609D02*
X55237976Y-102092800D01*
X55237976Y-102092800D02*
X55161786Y-102130895D01*
X55161786Y-102130895D02*
X55009405Y-102130895D01*
X55009405Y-102130895D02*
X54933214Y-102092800D01*
X54933214Y-102092800D02*
X54857024Y-102016609D01*
X54857024Y-102016609D02*
X54818928Y-101864228D01*
X54818928Y-101864228D02*
X54818928Y-101597561D01*
X54818928Y-101597561D02*
X54857024Y-101445180D01*
X54857024Y-101445180D02*
X54933214Y-101368990D01*
X54933214Y-101368990D02*
X55009405Y-101330895D01*
X55695119Y-101330895D02*
X55695119Y-101978514D01*
X55695119Y-101978514D02*
X55733214Y-102054704D01*
X55733214Y-102054704D02*
X55771309Y-102092800D01*
X55771309Y-102092800D02*
X55847500Y-102130895D01*
X55847500Y-102130895D02*
X55999881Y-102130895D01*
X55999881Y-102130895D02*
X56076071Y-102092800D01*
X56076071Y-102092800D02*
X56114166Y-102054704D01*
X56114166Y-102054704D02*
X56152262Y-101978514D01*
X56152262Y-101978514D02*
X56152262Y-101330895D01*
X56418928Y-101330895D02*
X56876071Y-101330895D01*
X56647499Y-102130895D02*
X56647499Y-101330895D01*
X58324071Y-101368990D02*
X58247881Y-101330895D01*
X58247881Y-101330895D02*
X58133595Y-101330895D01*
X58133595Y-101330895D02*
X58019309Y-101368990D01*
X58019309Y-101368990D02*
X57943119Y-101445180D01*
X57943119Y-101445180D02*
X57905024Y-101521371D01*
X57905024Y-101521371D02*
X57866928Y-101673752D01*
X57866928Y-101673752D02*
X57866928Y-101788038D01*
X57866928Y-101788038D02*
X57905024Y-101940419D01*
X57905024Y-101940419D02*
X57943119Y-102016609D01*
X57943119Y-102016609D02*
X58019309Y-102092800D01*
X58019309Y-102092800D02*
X58133595Y-102130895D01*
X58133595Y-102130895D02*
X58209786Y-102130895D01*
X58209786Y-102130895D02*
X58324071Y-102092800D01*
X58324071Y-102092800D02*
X58362167Y-102054704D01*
X58362167Y-102054704D02*
X58362167Y-101788038D01*
X58362167Y-101788038D02*
X58209786Y-101788038D01*
X58705024Y-102130895D02*
X58705024Y-101330895D01*
X58705024Y-101330895D02*
X59162167Y-102130895D01*
X59162167Y-102130895D02*
X59162167Y-101330895D01*
X59543119Y-102130895D02*
X59543119Y-101330895D01*
X59543119Y-101330895D02*
X59733595Y-101330895D01*
X59733595Y-101330895D02*
X59847881Y-101368990D01*
X59847881Y-101368990D02*
X59924071Y-101445180D01*
X59924071Y-101445180D02*
X59962166Y-101521371D01*
X59962166Y-101521371D02*
X60000262Y-101673752D01*
X60000262Y-101673752D02*
X60000262Y-101788038D01*
X60000262Y-101788038D02*
X59962166Y-101940419D01*
X59962166Y-101940419D02*
X59924071Y-102016609D01*
X59924071Y-102016609D02*
X59847881Y-102092800D01*
X59847881Y-102092800D02*
X59733595Y-102130895D01*
X59733595Y-102130895D02*
X59543119Y-102130895D01*
D13*
X76149292Y-91860201D02*
X75815959Y-91384010D01*
X75577864Y-91860201D02*
X75577864Y-90860201D01*
X75577864Y-90860201D02*
X75958816Y-90860201D01*
X75958816Y-90860201D02*
X76054054Y-90907820D01*
X76054054Y-90907820D02*
X76101673Y-90955439D01*
X76101673Y-90955439D02*
X76149292Y-91050677D01*
X76149292Y-91050677D02*
X76149292Y-91193534D01*
X76149292Y-91193534D02*
X76101673Y-91288772D01*
X76101673Y-91288772D02*
X76054054Y-91336391D01*
X76054054Y-91336391D02*
X75958816Y-91384010D01*
X75958816Y-91384010D02*
X75577864Y-91384010D01*
X76530245Y-90955439D02*
X76577864Y-90907820D01*
X76577864Y-90907820D02*
X76673102Y-90860201D01*
X76673102Y-90860201D02*
X76911197Y-90860201D01*
X76911197Y-90860201D02*
X77006435Y-90907820D01*
X77006435Y-90907820D02*
X77054054Y-90955439D01*
X77054054Y-90955439D02*
X77101673Y-91050677D01*
X77101673Y-91050677D02*
X77101673Y-91145915D01*
X77101673Y-91145915D02*
X77054054Y-91288772D01*
X77054054Y-91288772D02*
X76482626Y-91860201D01*
X76482626Y-91860201D02*
X77101673Y-91860201D01*
X125067092Y-55284367D02*
X124733759Y-54808176D01*
X124495664Y-55284367D02*
X124495664Y-54284367D01*
X124495664Y-54284367D02*
X124876616Y-54284367D01*
X124876616Y-54284367D02*
X124971854Y-54331986D01*
X124971854Y-54331986D02*
X125019473Y-54379605D01*
X125019473Y-54379605D02*
X125067092Y-54474843D01*
X125067092Y-54474843D02*
X125067092Y-54617700D01*
X125067092Y-54617700D02*
X125019473Y-54712938D01*
X125019473Y-54712938D02*
X124971854Y-54760557D01*
X124971854Y-54760557D02*
X124876616Y-54808176D01*
X124876616Y-54808176D02*
X124495664Y-54808176D01*
X125400426Y-54284367D02*
X126019473Y-54284367D01*
X126019473Y-54284367D02*
X125686140Y-54665319D01*
X125686140Y-54665319D02*
X125828997Y-54665319D01*
X125828997Y-54665319D02*
X125924235Y-54712938D01*
X125924235Y-54712938D02*
X125971854Y-54760557D01*
X125971854Y-54760557D02*
X126019473Y-54855795D01*
X126019473Y-54855795D02*
X126019473Y-55093890D01*
X126019473Y-55093890D02*
X125971854Y-55189128D01*
X125971854Y-55189128D02*
X125924235Y-55236748D01*
X125924235Y-55236748D02*
X125828997Y-55284367D01*
X125828997Y-55284367D02*
X125543283Y-55284367D01*
X125543283Y-55284367D02*
X125448045Y-55236748D01*
X125448045Y-55236748D02*
X125400426Y-55189128D01*
D14*
X121963759Y-57459548D02*
X121963759Y-57789548D01*
X121963759Y-60199548D02*
X121963759Y-59869548D01*
X128503759Y-57459548D02*
X121963759Y-57459548D01*
X128503759Y-57789548D02*
X128503759Y-57459548D01*
X128503759Y-59869548D02*
X128503759Y-60199548D01*
X128503759Y-60199548D02*
X121963759Y-60199548D01*
X86382159Y-61130500D02*
X86382159Y-59130500D01*
X86702159Y-56320500D02*
X86702159Y-102040500D01*
D11*
X94082159Y-53630500D02*
X94082159Y-62130500D01*
X94082159Y-62130500D02*
X102582159Y-62130500D01*
X102582159Y-62130500D02*
X102582159Y-53630500D01*
X105082159Y-60380500D02*
X109582159Y-60380500D01*
X105082159Y-66130500D02*
X105082159Y-60380500D01*
D14*
X107132159Y-53670500D02*
X89352159Y-53670500D01*
X107132159Y-104690500D02*
X89352159Y-104690500D01*
D11*
X109582159Y-66130500D02*
X105082159Y-66130500D01*
D14*
X109782159Y-56320500D02*
X109782159Y-102040500D01*
X86702159Y-56320500D02*
G75*
G02*
X89352159Y-53670500I2650000J0D01*
G01*
X89352159Y-104690500D02*
G75*
G02*
X86702159Y-102040500I0J2650000D01*
G01*
X107132159Y-53670500D02*
G75*
G02*
X109782159Y-56320500I0J-2650000D01*
G01*
X109782159Y-102040500D02*
G75*
G02*
X107132159Y-104690500I-2650000J0D01*
G01*
X52031759Y-109650000D02*
X52031759Y-127690000D01*
X52031759Y-125020000D02*
X52031759Y-130227000D01*
X52031759Y-130227000D02*
X78955759Y-130201600D01*
X78955759Y-109653000D02*
X52031759Y-109650000D01*
X78955759Y-130201600D02*
X78955759Y-109653000D01*
X77353759Y-96555382D02*
X77353759Y-103095382D01*
X77353759Y-103095382D02*
X77683759Y-103095382D01*
X77683759Y-96555382D02*
X77353759Y-96555382D01*
X79763759Y-96555382D02*
X80093759Y-96555382D01*
X80093759Y-96555382D02*
X80093759Y-103095382D01*
X80093759Y-103095382D02*
X79763759Y-103095382D01*
X82563459Y-110632200D02*
X82563459Y-117258600D01*
X82563459Y-130218600D02*
X82563459Y-117258600D01*
X82563459Y-130218600D02*
X115634259Y-130218600D01*
X115634259Y-110632200D02*
X82563459Y-110632200D01*
X115634259Y-114848600D02*
X115634259Y-110632200D01*
X115634259Y-130218600D02*
X115634259Y-112178600D01*
X74995959Y-83345382D02*
X77645959Y-83345382D01*
X74995959Y-87645382D02*
X77645959Y-87645382D01*
X74995959Y-87645382D02*
G75*
G02*
X74970483Y-83360994I1300000J2150000D01*
G01*
X77645959Y-83345382D02*
G75*
G02*
X77673986Y-87627527I-1350000J-2150000D01*
G01*
X119242059Y-112190000D02*
X119242059Y-130227000D01*
X119242059Y-130227000D02*
X144896059Y-130227000D01*
X144896059Y-112193000D02*
X119242059Y-112190000D01*
X144896059Y-130227000D02*
X144896059Y-112193000D01*
X72453759Y-96625382D02*
X72453759Y-103165382D01*
X72453759Y-103165382D02*
X72783759Y-103165382D01*
X72783759Y-96625382D02*
X72453759Y-96625382D01*
X74863759Y-96625382D02*
X75193759Y-96625382D01*
X75193759Y-96625382D02*
X75193759Y-103165382D01*
X75193759Y-103165382D02*
X74863759Y-103165382D01*
X122023759Y-61459548D02*
X122023759Y-61789548D01*
X122023759Y-64199548D02*
X122023759Y-63869548D01*
X128563759Y-61459548D02*
X122023759Y-61459548D01*
X128563759Y-61789548D02*
X128563759Y-61459548D01*
X128563759Y-63869548D02*
X128563759Y-64199548D01*
X128563759Y-64199548D02*
X122023759Y-64199548D01*
X74323759Y-57700000D02*
X72023759Y-57700000D01*
X80623759Y-57700000D02*
X78423759Y-57700000D01*
X80623759Y-62300000D02*
X72023759Y-62300000D01*
X51908359Y-83031600D02*
X66183159Y-83031600D01*
X51908359Y-104926400D02*
X51908359Y-83031600D01*
X66183159Y-83031600D02*
X66183159Y-104926400D01*
X66183159Y-104926400D02*
X51908359Y-104926400D01*
D11*
X113923759Y-104805500D02*
X144423759Y-104805500D01*
X144423759Y-66805500D01*
X113923759Y-66805500D01*
X113923759Y-104805500D01*
D14*
X133747478Y-61480500D02*
X134212478Y-61480500D01*
X136372478Y-61480500D02*
X136837478Y-61480500D01*
X133747648Y-61480500D02*
G75*
G02*
X134211651Y-56132685I1544830J2560000D01*
G01*
X134212478Y-61175184D02*
G75*
G02*
X134212049Y-56666021I1080000J2254684D01*
G01*
X136372907Y-56666021D02*
G75*
G02*
X136372478Y-61175184I-1080429J-2254479D01*
G01*
X136373305Y-56132685D02*
G75*
G02*
X136837308Y-61480500I-1080827J-2787815D01*
G01*
X72873759Y-72172691D02*
X72873759Y-73672691D01*
X74123759Y-76172691D02*
X78623759Y-76172691D01*
X78623759Y-69672691D02*
X74123759Y-69672691D01*
X79873759Y-73672691D02*
X79873759Y-72172691D01*
X73045959Y-90035382D02*
X73045959Y-90365382D01*
X73045959Y-92775382D02*
X73045959Y-92445382D01*
X79585959Y-90035382D02*
X73045959Y-90035382D01*
X79585959Y-90365382D02*
X79585959Y-90035382D01*
X79585959Y-92445382D02*
X79585959Y-92775382D01*
X79585959Y-92775382D02*
X73045959Y-92775382D01*
X121963759Y-53459548D02*
X121963759Y-53789548D01*
X121963759Y-56199548D02*
X121963759Y-55869548D01*
X128503759Y-53459548D02*
X121963759Y-53459548D01*
X128503759Y-53789548D02*
X128503759Y-53459548D01*
X128503759Y-55869548D02*
X128503759Y-56199548D01*
X128503759Y-56199548D02*
X121963759Y-56199548D01*
X53503759Y-65307758D02*
X53503759Y-68027758D01*
X53503759Y-72527758D02*
X53503759Y-76897758D01*
X55323759Y-76897758D02*
X53503759Y-76897758D01*
X64443759Y-65307758D02*
X53503759Y-65307758D01*
X64443759Y-65307758D02*
X64443759Y-68027758D01*
X64443759Y-72527758D02*
X64443759Y-76897758D01*
X64443759Y-76897758D02*
X62623759Y-76897758D01*
%LPC*%
D15*
X129043759Y-58829548D03*
D16*
X121423759Y-58829548D03*
D17*
X88382159Y-60130500D03*
D18*
X88382159Y-62670500D03*
X88382159Y-65210500D03*
X88382159Y-67750500D03*
X88382159Y-70290500D03*
X88382159Y-72830500D03*
X88382159Y-75370500D03*
X88382159Y-77910500D03*
X88382159Y-80450500D03*
X88382159Y-82990500D03*
X88382159Y-85530500D03*
X88382159Y-88070500D03*
X88382159Y-90610500D03*
X88382159Y-93150500D03*
X88382159Y-95690500D03*
X88382159Y-98230500D03*
X108102159Y-98230500D03*
X108102159Y-95690500D03*
X108102159Y-93150500D03*
X108102159Y-90610500D03*
X108102159Y-88070500D03*
X108102159Y-85530500D03*
X108102159Y-82990500D03*
X108102159Y-80450500D03*
X108102159Y-77910500D03*
X108102159Y-75370500D03*
X108102159Y-72830500D03*
X108102159Y-70290500D03*
D19*
X59223759Y-140874600D03*
D16*
X64223759Y-128830000D03*
X59143759Y-128830000D03*
X61683759Y-128830000D03*
X64223759Y-111050000D03*
X61683759Y-111050000D03*
X71843759Y-128830000D03*
X66763759Y-111050000D03*
X69303759Y-111050000D03*
X69303759Y-128830000D03*
X66763759Y-128830000D03*
D15*
X78723759Y-96015382D03*
D16*
X78723759Y-103635382D03*
X94017259Y-113554600D03*
X99097259Y-113554600D03*
X96557259Y-113554600D03*
X91477259Y-113554600D03*
X104177259Y-113554600D03*
X101637259Y-113554600D03*
X83884259Y-128818600D03*
X86424259Y-128818600D03*
X88964259Y-128818600D03*
X91504259Y-128818600D03*
X94044259Y-128818600D03*
X96584259Y-128818600D03*
X99124259Y-128818600D03*
X101664259Y-128818600D03*
X104204259Y-128818600D03*
X106744259Y-128818600D03*
X109284259Y-128818600D03*
X111824259Y-128818600D03*
X114364259Y-128818600D03*
X106717259Y-113554600D03*
D15*
X75045959Y-85495382D03*
X77585959Y-85495382D03*
D19*
X104080859Y-140950900D03*
D16*
X125719059Y-127560000D03*
X128259059Y-127560000D03*
X130799059Y-127560000D03*
X133339059Y-127560000D03*
X135879059Y-127560000D03*
X138419059Y-127560000D03*
D15*
X73823759Y-96085382D03*
D16*
X73823759Y-103705382D03*
D20*
X113803440Y-85411602D03*
D19*
X126509459Y-140950900D03*
D15*
X129103759Y-62829548D03*
D16*
X121483759Y-62829548D03*
D19*
X70438059Y-140950900D03*
D21*
X80423759Y-60000000D03*
X72223759Y-60000000D03*
D22*
X78323759Y-60000000D03*
D23*
X76323759Y-60000000D03*
X74323759Y-60000000D03*
D19*
X115295159Y-140950900D03*
D24*
X61458759Y-103250000D03*
X58918759Y-103250000D03*
X56378759Y-103250000D03*
D25*
X135292478Y-62159000D03*
D26*
X135292478Y-60000000D03*
X135292478Y-57841000D03*
X135292478Y-55682000D03*
D27*
X79623759Y-75172691D03*
X73123759Y-75172691D03*
X79623759Y-70672691D03*
X73123759Y-70672691D03*
D20*
X144402159Y-55575000D03*
X52402159Y-55575000D03*
X144322301Y-85440694D03*
X144402159Y-147575000D03*
X52402159Y-147575000D03*
D15*
X80125959Y-91405382D03*
D16*
X72505959Y-91405382D03*
D19*
X81652359Y-140950900D03*
D15*
X129043759Y-54829548D03*
D16*
X121423759Y-54829548D03*
D19*
X92866659Y-140950900D03*
D28*
X54223759Y-70277758D03*
X63723759Y-70277758D03*
D25*
X56473759Y-77777758D03*
D26*
X58973759Y-77777758D03*
X61473759Y-77777758D03*
D19*
X137723759Y-140840500D03*
%LPD*%
M02*
