%TF.GenerationSoftware,KiCad,Pcbnew,8.0.8*%
%TF.CreationDate,2025-02-10T20:43:30+01:00*%
%TF.ProjectId,tesi,74657369-2e6b-4696-9361-645f70636258,rev?*%
%TF.SameCoordinates,Original*%
%TF.FileFunction,Drillmap*%
%TF.FilePolarity,Positive*%
%FSLAX45Y45*%
G04 Gerber Fmt 4.5, Leading zero omitted, Abs format (unit mm)*
G04 Created by KiCad (PCBNEW 8.0.8) date 2025-02-10 20:43:30*
%MOMM*%
%LPD*%
G01*
G04 APERTURE LIST*
%ADD10C,0.038100*%
%ADD11C,0.200000*%
%ADD12C,0.100000*%
%ADD13C,0.110000*%
%ADD14C,0.150000*%
G04 APERTURE END LIST*
D10*
X4842376Y-14750000D02*
X4842376Y-5550000D01*
X5242376Y-5150000D02*
X14442376Y-5150000D01*
X14442376Y-5150000D02*
G75*
G02*
X14842370Y-5550000I4J-399990D01*
G01*
X14442376Y-15150000D02*
X5242376Y-15150000D01*
X4842376Y-5550000D02*
G75*
G02*
X5242376Y-5149996I400004J0D01*
G01*
X14842376Y-5550000D02*
X14842376Y-14750000D01*
X14842376Y-14750000D02*
G75*
G02*
X14442376Y-15149996I-399996J0D01*
G01*
X5242376Y-15150000D02*
G75*
G02*
X4842370Y-14750000I4J400010D01*
G01*
D11*
D12*
X5599776Y-10286900D02*
X5675976Y-10363100D01*
X5675976Y-10286900D02*
X5599776Y-10363100D01*
X5853776Y-10286900D02*
X5929976Y-10363100D01*
X5929976Y-10286900D02*
X5853776Y-10363100D01*
X6107776Y-10286900D02*
X6183976Y-10363100D01*
X6183976Y-10286900D02*
X6107776Y-10363100D01*
X7290596Y-9140538D02*
G75*
G02*
X7210596Y-9140538I-40000J0D01*
G01*
X7210596Y-9140538D02*
G75*
G02*
X7290596Y-9140538I40000J0D01*
G01*
X7422376Y-9608538D02*
G75*
G02*
X7342376Y-9608538I-40000J0D01*
G01*
X7342376Y-9608538D02*
G75*
G02*
X7422376Y-9608538I40000J0D01*
G01*
X7422376Y-10370538D02*
G75*
G02*
X7342376Y-10370538I-40000J0D01*
G01*
X7342376Y-10370538D02*
G75*
G02*
X7422376Y-10370538I40000J0D01*
G01*
X7544596Y-8549538D02*
G75*
G02*
X7464596Y-8549538I-40000J0D01*
G01*
X7464596Y-8549538D02*
G75*
G02*
X7544596Y-8549538I40000J0D01*
G01*
X7798596Y-8549538D02*
G75*
G02*
X7718596Y-8549538I-40000J0D01*
G01*
X7718596Y-8549538D02*
G75*
G02*
X7798596Y-8549538I40000J0D01*
G01*
X7912376Y-9601538D02*
G75*
G02*
X7832376Y-9601538I-40000J0D01*
G01*
X7832376Y-9601538D02*
G75*
G02*
X7912376Y-9601538I40000J0D01*
G01*
X7912376Y-10363538D02*
G75*
G02*
X7832376Y-10363538I-40000J0D01*
G01*
X7832376Y-10363538D02*
G75*
G02*
X7912376Y-10363538I40000J0D01*
G01*
X8052596Y-9140538D02*
G75*
G02*
X7972596Y-9140538I-40000J0D01*
G01*
X7972596Y-9140538D02*
G75*
G02*
X8052596Y-9140538I40000J0D01*
G01*
X12182376Y-5482955D02*
G75*
G02*
X12102376Y-5482955I-40000J0D01*
G01*
X12102376Y-5482955D02*
G75*
G02*
X12182376Y-5482955I40000J0D01*
G01*
X12182376Y-5882955D02*
G75*
G02*
X12102376Y-5882955I-40000J0D01*
G01*
X12102376Y-5882955D02*
G75*
G02*
X12182376Y-5882955I40000J0D01*
G01*
X12188376Y-6282955D02*
G75*
G02*
X12108376Y-6282955I-40000J0D01*
G01*
X12108376Y-6282955D02*
G75*
G02*
X12188376Y-6282955I40000J0D01*
G01*
X12944376Y-5482955D02*
G75*
G02*
X12864376Y-5482955I-40000J0D01*
G01*
X12864376Y-5482955D02*
G75*
G02*
X12944376Y-5482955I40000J0D01*
G01*
X12944376Y-5882955D02*
G75*
G02*
X12864376Y-5882955I-40000J0D01*
G01*
X12864376Y-5882955D02*
G75*
G02*
X12944376Y-5882955I40000J0D01*
G01*
X12950376Y-6282955D02*
G75*
G02*
X12870376Y-6282955I-40000J0D01*
G01*
X12870376Y-6282955D02*
G75*
G02*
X12950376Y-6282955I40000J0D01*
G01*
X7432376Y-5955000D02*
X7432376Y-6045000D01*
X7387376Y-6000000D02*
X7477376Y-6000000D01*
X7632376Y-5955000D02*
X7632376Y-6045000D01*
X7587376Y-6000000D02*
X7677376Y-6000000D01*
X7832376Y-5955000D02*
X7832376Y-6045000D01*
X7787376Y-6000000D02*
X7877376Y-6000000D01*
X13529248Y-5523200D02*
X13529248Y-5613200D01*
X13484248Y-5568200D02*
X13574248Y-5568200D01*
X13529248Y-5739100D02*
X13529248Y-5829100D01*
X13484248Y-5784100D02*
X13574248Y-5784100D01*
X13529248Y-5955000D02*
X13529248Y-6045000D01*
X13484248Y-6000000D02*
X13574248Y-6000000D01*
X13529248Y-6170900D02*
X13529248Y-6260900D01*
X13484248Y-6215900D02*
X13574248Y-6215900D01*
X5682732Y-7813131D02*
X5682732Y-7742420D01*
X5612020Y-7742420D01*
X5612020Y-7813131D01*
X5682732Y-7813131D01*
X5932732Y-7813131D02*
X5932732Y-7742420D01*
X5862020Y-7742420D01*
X5862020Y-7813131D01*
X5932732Y-7813131D01*
X5949732Y-12918356D02*
X5949732Y-12847644D01*
X5879020Y-12847644D01*
X5879020Y-12918356D01*
X5949732Y-12918356D01*
X6182732Y-7813131D02*
X6182732Y-7742420D01*
X6112020Y-7742420D01*
X6112020Y-7813131D01*
X6182732Y-7813131D01*
X6203732Y-11140356D02*
X6203732Y-11069644D01*
X6133020Y-11069644D01*
X6133020Y-11140356D01*
X6203732Y-11140356D01*
X6203732Y-12918356D02*
X6203732Y-12847644D01*
X6133020Y-12847644D01*
X6133020Y-12918356D01*
X6203732Y-12918356D01*
X6457732Y-11140356D02*
X6457732Y-11069644D01*
X6387020Y-11069644D01*
X6387020Y-11140356D01*
X6457732Y-11140356D01*
X6457732Y-12918356D02*
X6457732Y-12847644D01*
X6387020Y-12847644D01*
X6387020Y-12918356D01*
X6457732Y-12918356D01*
X6711732Y-11140356D02*
X6711732Y-11069644D01*
X6641020Y-11069644D01*
X6641020Y-11140356D01*
X6711732Y-11140356D01*
X6711732Y-12918356D02*
X6711732Y-12847644D01*
X6641020Y-12847644D01*
X6641020Y-12918356D01*
X6711732Y-12918356D01*
X6965732Y-11140356D02*
X6965732Y-11069644D01*
X6895020Y-11069644D01*
X6895020Y-11140356D01*
X6965732Y-11140356D01*
X6965732Y-12918356D02*
X6965732Y-12847644D01*
X6895020Y-12847644D01*
X6895020Y-12918356D01*
X6965732Y-12918356D01*
X7219732Y-12918356D02*
X7219732Y-12847644D01*
X7149020Y-12847644D01*
X7149020Y-12918356D01*
X7219732Y-12918356D01*
X8423782Y-12917216D02*
X8423782Y-12846504D01*
X8353070Y-12846504D01*
X8353070Y-12917216D01*
X8423782Y-12917216D01*
X8677782Y-12917216D02*
X8677782Y-12846504D01*
X8607070Y-12846504D01*
X8607070Y-12917216D01*
X8677782Y-12917216D01*
X8843572Y-6048406D02*
X8843572Y-5977694D01*
X8772860Y-5977694D01*
X8772860Y-6048406D01*
X8843572Y-6048406D01*
X8843572Y-6302406D02*
X8843572Y-6231694D01*
X8772860Y-6231694D01*
X8772860Y-6302406D01*
X8843572Y-6302406D01*
X8843572Y-6556406D02*
X8843572Y-6485694D01*
X8772860Y-6485694D01*
X8772860Y-6556406D01*
X8843572Y-6556406D01*
X8843572Y-6810406D02*
X8843572Y-6739694D01*
X8772860Y-6739694D01*
X8772860Y-6810406D01*
X8843572Y-6810406D01*
X8843572Y-7064406D02*
X8843572Y-6993694D01*
X8772860Y-6993694D01*
X8772860Y-7064406D01*
X8843572Y-7064406D01*
X8843572Y-7318406D02*
X8843572Y-7247694D01*
X8772860Y-7247694D01*
X8772860Y-7318406D01*
X8843572Y-7318406D01*
X8843572Y-7572406D02*
X8843572Y-7501694D01*
X8772860Y-7501694D01*
X8772860Y-7572406D01*
X8843572Y-7572406D01*
X8843572Y-7826406D02*
X8843572Y-7755694D01*
X8772860Y-7755694D01*
X8772860Y-7826406D01*
X8843572Y-7826406D01*
X8843572Y-8080406D02*
X8843572Y-8009694D01*
X8772860Y-8009694D01*
X8772860Y-8080406D01*
X8843572Y-8080406D01*
X8843572Y-8334406D02*
X8843572Y-8263694D01*
X8772860Y-8263694D01*
X8772860Y-8334406D01*
X8843572Y-8334406D01*
X8843572Y-8588406D02*
X8843572Y-8517694D01*
X8772860Y-8517694D01*
X8772860Y-8588406D01*
X8843572Y-8588406D01*
X8843572Y-8842406D02*
X8843572Y-8771694D01*
X8772860Y-8771694D01*
X8772860Y-8842406D01*
X8843572Y-8842406D01*
X8843572Y-9096406D02*
X8843572Y-9025694D01*
X8772860Y-9025694D01*
X8772860Y-9096406D01*
X8843572Y-9096406D01*
X8843572Y-9350406D02*
X8843572Y-9279694D01*
X8772860Y-9279694D01*
X8772860Y-9350406D01*
X8843572Y-9350406D01*
X8843572Y-9604406D02*
X8843572Y-9533694D01*
X8772860Y-9533694D01*
X8772860Y-9604406D01*
X8843572Y-9604406D01*
X8843572Y-9858406D02*
X8843572Y-9787694D01*
X8772860Y-9787694D01*
X8772860Y-9858406D01*
X8843572Y-9858406D01*
X8931782Y-12917216D02*
X8931782Y-12846504D01*
X8861070Y-12846504D01*
X8861070Y-12917216D01*
X8931782Y-12917216D01*
X9183082Y-11390816D02*
X9183082Y-11320104D01*
X9112370Y-11320104D01*
X9112370Y-11390816D01*
X9183082Y-11390816D01*
X9185782Y-12917216D02*
X9185782Y-12846504D01*
X9115070Y-12846504D01*
X9115070Y-12917216D01*
X9185782Y-12917216D01*
X9437082Y-11390816D02*
X9437082Y-11320104D01*
X9366370Y-11320104D01*
X9366370Y-11390816D01*
X9437082Y-11390816D01*
X9439782Y-12917216D02*
X9439782Y-12846504D01*
X9369070Y-12846504D01*
X9369070Y-12917216D01*
X9439782Y-12917216D01*
X9691082Y-11390816D02*
X9691082Y-11320104D01*
X9620370Y-11320104D01*
X9620370Y-11390816D01*
X9691082Y-11390816D01*
X9693782Y-12917216D02*
X9693782Y-12846504D01*
X9623070Y-12846504D01*
X9623070Y-12917216D01*
X9693782Y-12917216D01*
X9945082Y-11390816D02*
X9945082Y-11320104D01*
X9874370Y-11320104D01*
X9874370Y-11390816D01*
X9945082Y-11390816D01*
X9947782Y-12917216D02*
X9947782Y-12846504D01*
X9877070Y-12846504D01*
X9877070Y-12917216D01*
X9947782Y-12917216D01*
X10199082Y-11390816D02*
X10199082Y-11320104D01*
X10128370Y-11320104D01*
X10128370Y-11390816D01*
X10199082Y-11390816D01*
X10201782Y-12917216D02*
X10201782Y-12846504D01*
X10131070Y-12846504D01*
X10131070Y-12917216D01*
X10201782Y-12917216D01*
X10453082Y-11390816D02*
X10453082Y-11320104D01*
X10382370Y-11320104D01*
X10382370Y-11390816D01*
X10453082Y-11390816D01*
X10455782Y-12917216D02*
X10455782Y-12846504D01*
X10385070Y-12846504D01*
X10385070Y-12917216D01*
X10455782Y-12917216D01*
X10707082Y-11390816D02*
X10707082Y-11320104D01*
X10636370Y-11320104D01*
X10636370Y-11390816D01*
X10707082Y-11390816D01*
X10709782Y-12917216D02*
X10709782Y-12846504D01*
X10639070Y-12846504D01*
X10639070Y-12917216D01*
X10709782Y-12917216D01*
X10875572Y-7064406D02*
X10875572Y-6993694D01*
X10804860Y-6993694D01*
X10804860Y-7064406D01*
X10875572Y-7064406D01*
X10875572Y-7318406D02*
X10875572Y-7247694D01*
X10804860Y-7247694D01*
X10804860Y-7318406D01*
X10875572Y-7318406D01*
X10875572Y-7572406D02*
X10875572Y-7501694D01*
X10804860Y-7501694D01*
X10804860Y-7572406D01*
X10875572Y-7572406D01*
X10875572Y-7826406D02*
X10875572Y-7755694D01*
X10804860Y-7755694D01*
X10804860Y-7826406D01*
X10875572Y-7826406D01*
X10875572Y-8080406D02*
X10875572Y-8009694D01*
X10804860Y-8009694D01*
X10804860Y-8080406D01*
X10875572Y-8080406D01*
X10875572Y-8334406D02*
X10875572Y-8263694D01*
X10804860Y-8263694D01*
X10804860Y-8334406D01*
X10875572Y-8334406D01*
X10875572Y-8588406D02*
X10875572Y-8517694D01*
X10804860Y-8517694D01*
X10804860Y-8588406D01*
X10875572Y-8588406D01*
X10875572Y-8842406D02*
X10875572Y-8771694D01*
X10804860Y-8771694D01*
X10804860Y-8842406D01*
X10875572Y-8842406D01*
X10875572Y-9096406D02*
X10875572Y-9025694D01*
X10804860Y-9025694D01*
X10804860Y-9096406D01*
X10875572Y-9096406D01*
X10875572Y-9350406D02*
X10875572Y-9279694D01*
X10804860Y-9279694D01*
X10804860Y-9350406D01*
X10875572Y-9350406D01*
X10875572Y-9604406D02*
X10875572Y-9533694D01*
X10804860Y-9533694D01*
X10804860Y-9604406D01*
X10875572Y-9604406D01*
X10875572Y-9858406D02*
X10875572Y-9787694D01*
X10804860Y-9787694D01*
X10804860Y-9858406D01*
X10875572Y-9858406D01*
X10963782Y-12917216D02*
X10963782Y-12846504D01*
X10893070Y-12846504D01*
X10893070Y-12917216D01*
X10963782Y-12917216D01*
X11217782Y-12917216D02*
X11217782Y-12846504D01*
X11147070Y-12846504D01*
X11147070Y-12917216D01*
X11217782Y-12917216D01*
X11471782Y-12917216D02*
X11471782Y-12846504D01*
X11401070Y-12846504D01*
X11401070Y-12917216D01*
X11471782Y-12917216D01*
X12607262Y-12791356D02*
X12607262Y-12720644D01*
X12536550Y-12720644D01*
X12536550Y-12791356D01*
X12607262Y-12791356D01*
X12861262Y-12791356D02*
X12861262Y-12720644D01*
X12790550Y-12720644D01*
X12790550Y-12791356D01*
X12861262Y-12791356D01*
X13115262Y-12791356D02*
X13115262Y-12720644D01*
X13044550Y-12720644D01*
X13044550Y-12791356D01*
X13115262Y-12791356D01*
X13369262Y-12791356D02*
X13369262Y-12720644D01*
X13298550Y-12720644D01*
X13298550Y-12791356D01*
X13369262Y-12791356D01*
X13623262Y-12791356D02*
X13623262Y-12720644D01*
X13552550Y-12720644D01*
X13552550Y-12791356D01*
X13623262Y-12791356D01*
X13877262Y-12791356D02*
X13877262Y-12720644D01*
X13806550Y-12720644D01*
X13806550Y-12791356D01*
X13877262Y-12791356D01*
D13*
X7312376Y-7122269D02*
X7367376Y-7067269D01*
X7312376Y-7012269D01*
X7257376Y-7067269D01*
X7312376Y-7122269D01*
X7312376Y-7572269D02*
X7367376Y-7517269D01*
X7312376Y-7462269D01*
X7257376Y-7517269D01*
X7312376Y-7572269D01*
X7962376Y-7122269D02*
X8017376Y-7067269D01*
X7962376Y-7012269D01*
X7907376Y-7067269D01*
X7962376Y-7122269D01*
X7962376Y-7572269D02*
X8017376Y-7517269D01*
X7962376Y-7462269D01*
X7907376Y-7517269D01*
X7962376Y-7572269D01*
D14*
X7147376Y-5925000D02*
X7297376Y-6075000D01*
X7297376Y-5925000D02*
X7147376Y-6075000D01*
X7297376Y-6000000D02*
G75*
G02*
X7147376Y-6000000I-75000J0D01*
G01*
X7147376Y-6000000D02*
G75*
G02*
X7297376Y-6000000I75000J0D01*
G01*
X7967376Y-5925000D02*
X8117376Y-6075000D01*
X8117376Y-5925000D02*
X7967376Y-6075000D01*
X8117376Y-6000000D02*
G75*
G02*
X7967376Y-6000000I-75000J0D01*
G01*
X7967376Y-6000000D02*
G75*
G02*
X8117376Y-6000000I75000J0D01*
G01*
D11*
X5322376Y-6927776D02*
X5522376Y-7127776D01*
X5522376Y-6927776D02*
X5322376Y-7127776D01*
X5422376Y-6927776D02*
X5422376Y-7127776D01*
X5322376Y-7027776D02*
X5522376Y-7027776D01*
X6272376Y-6927776D02*
X6472376Y-7127776D01*
X6472376Y-6927776D02*
X6272376Y-7127776D01*
X6372376Y-6927776D02*
X6372376Y-7127776D01*
X6272376Y-7027776D02*
X6472376Y-7027776D01*
X5101248Y-15463389D02*
X5101248Y-15263389D01*
X5101248Y-15263389D02*
X5148867Y-15263389D01*
X5148867Y-15263389D02*
X5177438Y-15272913D01*
X5177438Y-15272913D02*
X5196486Y-15291960D01*
X5196486Y-15291960D02*
X5206010Y-15311008D01*
X5206010Y-15311008D02*
X5215533Y-15349103D01*
X5215533Y-15349103D02*
X5215533Y-15377674D01*
X5215533Y-15377674D02*
X5206010Y-15415770D01*
X5206010Y-15415770D02*
X5196486Y-15434817D01*
X5196486Y-15434817D02*
X5177438Y-15453865D01*
X5177438Y-15453865D02*
X5148867Y-15463389D01*
X5148867Y-15463389D02*
X5101248Y-15463389D01*
X5301248Y-15463389D02*
X5301248Y-15330055D01*
X5301248Y-15368151D02*
X5310772Y-15349103D01*
X5310772Y-15349103D02*
X5320295Y-15339579D01*
X5320295Y-15339579D02*
X5339343Y-15330055D01*
X5339343Y-15330055D02*
X5358391Y-15330055D01*
X5425057Y-15463389D02*
X5425057Y-15330055D01*
X5425057Y-15263389D02*
X5415533Y-15272913D01*
X5415533Y-15272913D02*
X5425057Y-15282436D01*
X5425057Y-15282436D02*
X5434581Y-15272913D01*
X5434581Y-15272913D02*
X5425057Y-15263389D01*
X5425057Y-15263389D02*
X5425057Y-15282436D01*
X5548867Y-15463389D02*
X5529819Y-15453865D01*
X5529819Y-15453865D02*
X5520295Y-15434817D01*
X5520295Y-15434817D02*
X5520295Y-15263389D01*
X5653629Y-15463389D02*
X5634581Y-15453865D01*
X5634581Y-15453865D02*
X5625057Y-15434817D01*
X5625057Y-15434817D02*
X5625057Y-15263389D01*
X5882200Y-15463389D02*
X5882200Y-15263389D01*
X5882200Y-15263389D02*
X5948867Y-15406246D01*
X5948867Y-15406246D02*
X6015533Y-15263389D01*
X6015533Y-15263389D02*
X6015533Y-15463389D01*
X6196486Y-15463389D02*
X6196486Y-15358627D01*
X6196486Y-15358627D02*
X6186962Y-15339579D01*
X6186962Y-15339579D02*
X6167914Y-15330055D01*
X6167914Y-15330055D02*
X6129819Y-15330055D01*
X6129819Y-15330055D02*
X6110771Y-15339579D01*
X6196486Y-15453865D02*
X6177438Y-15463389D01*
X6177438Y-15463389D02*
X6129819Y-15463389D01*
X6129819Y-15463389D02*
X6110771Y-15453865D01*
X6110771Y-15453865D02*
X6101248Y-15434817D01*
X6101248Y-15434817D02*
X6101248Y-15415770D01*
X6101248Y-15415770D02*
X6110771Y-15396722D01*
X6110771Y-15396722D02*
X6129819Y-15387198D01*
X6129819Y-15387198D02*
X6177438Y-15387198D01*
X6177438Y-15387198D02*
X6196486Y-15377674D01*
X6291724Y-15330055D02*
X6291724Y-15530055D01*
X6291724Y-15339579D02*
X6310771Y-15330055D01*
X6310771Y-15330055D02*
X6348867Y-15330055D01*
X6348867Y-15330055D02*
X6367914Y-15339579D01*
X6367914Y-15339579D02*
X6377438Y-15349103D01*
X6377438Y-15349103D02*
X6386962Y-15368151D01*
X6386962Y-15368151D02*
X6386962Y-15425293D01*
X6386962Y-15425293D02*
X6377438Y-15444341D01*
X6377438Y-15444341D02*
X6367914Y-15453865D01*
X6367914Y-15453865D02*
X6348867Y-15463389D01*
X6348867Y-15463389D02*
X6310771Y-15463389D01*
X6310771Y-15463389D02*
X6291724Y-15453865D01*
X6472676Y-15444341D02*
X6482200Y-15453865D01*
X6482200Y-15453865D02*
X6472676Y-15463389D01*
X6472676Y-15463389D02*
X6463152Y-15453865D01*
X6463152Y-15453865D02*
X6472676Y-15444341D01*
X6472676Y-15444341D02*
X6472676Y-15463389D01*
X6472676Y-15339579D02*
X6482200Y-15349103D01*
X6482200Y-15349103D02*
X6472676Y-15358627D01*
X6472676Y-15358627D02*
X6463152Y-15349103D01*
X6463152Y-15349103D02*
X6472676Y-15339579D01*
X6472676Y-15339579D02*
X6472676Y-15358627D01*
D12*
X4764271Y-15753805D02*
X4840471Y-15830005D01*
X4840471Y-15753805D02*
X4764271Y-15830005D01*
D11*
X5139343Y-15683389D02*
X5158391Y-15683389D01*
X5158391Y-15683389D02*
X5177438Y-15692913D01*
X5177438Y-15692913D02*
X5186962Y-15702436D01*
X5186962Y-15702436D02*
X5196486Y-15721484D01*
X5196486Y-15721484D02*
X5206010Y-15759579D01*
X5206010Y-15759579D02*
X5206010Y-15807198D01*
X5206010Y-15807198D02*
X5196486Y-15845293D01*
X5196486Y-15845293D02*
X5186962Y-15864341D01*
X5186962Y-15864341D02*
X5177438Y-15873865D01*
X5177438Y-15873865D02*
X5158391Y-15883389D01*
X5158391Y-15883389D02*
X5139343Y-15883389D01*
X5139343Y-15883389D02*
X5120295Y-15873865D01*
X5120295Y-15873865D02*
X5110772Y-15864341D01*
X5110772Y-15864341D02*
X5101248Y-15845293D01*
X5101248Y-15845293D02*
X5091724Y-15807198D01*
X5091724Y-15807198D02*
X5091724Y-15759579D01*
X5091724Y-15759579D02*
X5101248Y-15721484D01*
X5101248Y-15721484D02*
X5110772Y-15702436D01*
X5110772Y-15702436D02*
X5120295Y-15692913D01*
X5120295Y-15692913D02*
X5139343Y-15683389D01*
X5291724Y-15864341D02*
X5301248Y-15873865D01*
X5301248Y-15873865D02*
X5291724Y-15883389D01*
X5291724Y-15883389D02*
X5282200Y-15873865D01*
X5282200Y-15873865D02*
X5291724Y-15864341D01*
X5291724Y-15864341D02*
X5291724Y-15883389D01*
X5367914Y-15683389D02*
X5501248Y-15683389D01*
X5501248Y-15683389D02*
X5415533Y-15883389D01*
X5663152Y-15683389D02*
X5625057Y-15683389D01*
X5625057Y-15683389D02*
X5606010Y-15692913D01*
X5606010Y-15692913D02*
X5596486Y-15702436D01*
X5596486Y-15702436D02*
X5577438Y-15731008D01*
X5577438Y-15731008D02*
X5567914Y-15769103D01*
X5567914Y-15769103D02*
X5567914Y-15845293D01*
X5567914Y-15845293D02*
X5577438Y-15864341D01*
X5577438Y-15864341D02*
X5586962Y-15873865D01*
X5586962Y-15873865D02*
X5606010Y-15883389D01*
X5606010Y-15883389D02*
X5644105Y-15883389D01*
X5644105Y-15883389D02*
X5663152Y-15873865D01*
X5663152Y-15873865D02*
X5672676Y-15864341D01*
X5672676Y-15864341D02*
X5682200Y-15845293D01*
X5682200Y-15845293D02*
X5682200Y-15797674D01*
X5682200Y-15797674D02*
X5672676Y-15778627D01*
X5672676Y-15778627D02*
X5663152Y-15769103D01*
X5663152Y-15769103D02*
X5644105Y-15759579D01*
X5644105Y-15759579D02*
X5606010Y-15759579D01*
X5606010Y-15759579D02*
X5586962Y-15769103D01*
X5586962Y-15769103D02*
X5577438Y-15778627D01*
X5577438Y-15778627D02*
X5567914Y-15797674D01*
X5758391Y-15702436D02*
X5767914Y-15692913D01*
X5767914Y-15692913D02*
X5786962Y-15683389D01*
X5786962Y-15683389D02*
X5834581Y-15683389D01*
X5834581Y-15683389D02*
X5853629Y-15692913D01*
X5853629Y-15692913D02*
X5863152Y-15702436D01*
X5863152Y-15702436D02*
X5872676Y-15721484D01*
X5872676Y-15721484D02*
X5872676Y-15740532D01*
X5872676Y-15740532D02*
X5863152Y-15769103D01*
X5863152Y-15769103D02*
X5748867Y-15883389D01*
X5748867Y-15883389D02*
X5872676Y-15883389D01*
X5958391Y-15883389D02*
X5958391Y-15750055D01*
X5958391Y-15769103D02*
X5967914Y-15759579D01*
X5967914Y-15759579D02*
X5986962Y-15750055D01*
X5986962Y-15750055D02*
X6015533Y-15750055D01*
X6015533Y-15750055D02*
X6034581Y-15759579D01*
X6034581Y-15759579D02*
X6044105Y-15778627D01*
X6044105Y-15778627D02*
X6044105Y-15883389D01*
X6044105Y-15778627D02*
X6053629Y-15759579D01*
X6053629Y-15759579D02*
X6072676Y-15750055D01*
X6072676Y-15750055D02*
X6101248Y-15750055D01*
X6101248Y-15750055D02*
X6120295Y-15759579D01*
X6120295Y-15759579D02*
X6129819Y-15778627D01*
X6129819Y-15778627D02*
X6129819Y-15883389D01*
X6225057Y-15883389D02*
X6225057Y-15750055D01*
X6225057Y-15769103D02*
X6234581Y-15759579D01*
X6234581Y-15759579D02*
X6253629Y-15750055D01*
X6253629Y-15750055D02*
X6282200Y-15750055D01*
X6282200Y-15750055D02*
X6301248Y-15759579D01*
X6301248Y-15759579D02*
X6310772Y-15778627D01*
X6310772Y-15778627D02*
X6310772Y-15883389D01*
X6310772Y-15778627D02*
X6320295Y-15759579D01*
X6320295Y-15759579D02*
X6339343Y-15750055D01*
X6339343Y-15750055D02*
X6367914Y-15750055D01*
X6367914Y-15750055D02*
X6386962Y-15759579D01*
X6386962Y-15759579D02*
X6396486Y-15778627D01*
X6396486Y-15778627D02*
X6396486Y-15883389D01*
X6786962Y-15673865D02*
X6615534Y-15931008D01*
X7044105Y-15683389D02*
X7063153Y-15683389D01*
X7063153Y-15683389D02*
X7082200Y-15692913D01*
X7082200Y-15692913D02*
X7091724Y-15702436D01*
X7091724Y-15702436D02*
X7101248Y-15721484D01*
X7101248Y-15721484D02*
X7110772Y-15759579D01*
X7110772Y-15759579D02*
X7110772Y-15807198D01*
X7110772Y-15807198D02*
X7101248Y-15845293D01*
X7101248Y-15845293D02*
X7091724Y-15864341D01*
X7091724Y-15864341D02*
X7082200Y-15873865D01*
X7082200Y-15873865D02*
X7063153Y-15883389D01*
X7063153Y-15883389D02*
X7044105Y-15883389D01*
X7044105Y-15883389D02*
X7025057Y-15873865D01*
X7025057Y-15873865D02*
X7015534Y-15864341D01*
X7015534Y-15864341D02*
X7006010Y-15845293D01*
X7006010Y-15845293D02*
X6996486Y-15807198D01*
X6996486Y-15807198D02*
X6996486Y-15759579D01*
X6996486Y-15759579D02*
X7006010Y-15721484D01*
X7006010Y-15721484D02*
X7015534Y-15702436D01*
X7015534Y-15702436D02*
X7025057Y-15692913D01*
X7025057Y-15692913D02*
X7044105Y-15683389D01*
X7196486Y-15864341D02*
X7206010Y-15873865D01*
X7206010Y-15873865D02*
X7196486Y-15883389D01*
X7196486Y-15883389D02*
X7186962Y-15873865D01*
X7186962Y-15873865D02*
X7196486Y-15864341D01*
X7196486Y-15864341D02*
X7196486Y-15883389D01*
X7329819Y-15683389D02*
X7348867Y-15683389D01*
X7348867Y-15683389D02*
X7367915Y-15692913D01*
X7367915Y-15692913D02*
X7377438Y-15702436D01*
X7377438Y-15702436D02*
X7386962Y-15721484D01*
X7386962Y-15721484D02*
X7396486Y-15759579D01*
X7396486Y-15759579D02*
X7396486Y-15807198D01*
X7396486Y-15807198D02*
X7386962Y-15845293D01*
X7386962Y-15845293D02*
X7377438Y-15864341D01*
X7377438Y-15864341D02*
X7367915Y-15873865D01*
X7367915Y-15873865D02*
X7348867Y-15883389D01*
X7348867Y-15883389D02*
X7329819Y-15883389D01*
X7329819Y-15883389D02*
X7310772Y-15873865D01*
X7310772Y-15873865D02*
X7301248Y-15864341D01*
X7301248Y-15864341D02*
X7291724Y-15845293D01*
X7291724Y-15845293D02*
X7282200Y-15807198D01*
X7282200Y-15807198D02*
X7282200Y-15759579D01*
X7282200Y-15759579D02*
X7291724Y-15721484D01*
X7291724Y-15721484D02*
X7301248Y-15702436D01*
X7301248Y-15702436D02*
X7310772Y-15692913D01*
X7310772Y-15692913D02*
X7329819Y-15683389D01*
X7463153Y-15683389D02*
X7586962Y-15683389D01*
X7586962Y-15683389D02*
X7520295Y-15759579D01*
X7520295Y-15759579D02*
X7548867Y-15759579D01*
X7548867Y-15759579D02*
X7567915Y-15769103D01*
X7567915Y-15769103D02*
X7577438Y-15778627D01*
X7577438Y-15778627D02*
X7586962Y-15797674D01*
X7586962Y-15797674D02*
X7586962Y-15845293D01*
X7586962Y-15845293D02*
X7577438Y-15864341D01*
X7577438Y-15864341D02*
X7567915Y-15873865D01*
X7567915Y-15873865D02*
X7548867Y-15883389D01*
X7548867Y-15883389D02*
X7491724Y-15883389D01*
X7491724Y-15883389D02*
X7472676Y-15873865D01*
X7472676Y-15873865D02*
X7463153Y-15864341D01*
X7710772Y-15683389D02*
X7729819Y-15683389D01*
X7729819Y-15683389D02*
X7748867Y-15692913D01*
X7748867Y-15692913D02*
X7758391Y-15702436D01*
X7758391Y-15702436D02*
X7767915Y-15721484D01*
X7767915Y-15721484D02*
X7777438Y-15759579D01*
X7777438Y-15759579D02*
X7777438Y-15807198D01*
X7777438Y-15807198D02*
X7767915Y-15845293D01*
X7767915Y-15845293D02*
X7758391Y-15864341D01*
X7758391Y-15864341D02*
X7748867Y-15873865D01*
X7748867Y-15873865D02*
X7729819Y-15883389D01*
X7729819Y-15883389D02*
X7710772Y-15883389D01*
X7710772Y-15883389D02*
X7691724Y-15873865D01*
X7691724Y-15873865D02*
X7682200Y-15864341D01*
X7682200Y-15864341D02*
X7672676Y-15845293D01*
X7672676Y-15845293D02*
X7663153Y-15807198D01*
X7663153Y-15807198D02*
X7663153Y-15759579D01*
X7663153Y-15759579D02*
X7672676Y-15721484D01*
X7672676Y-15721484D02*
X7682200Y-15702436D01*
X7682200Y-15702436D02*
X7691724Y-15692913D01*
X7691724Y-15692913D02*
X7710772Y-15683389D01*
X7901248Y-15683389D02*
X7920296Y-15683389D01*
X7920296Y-15683389D02*
X7939343Y-15692913D01*
X7939343Y-15692913D02*
X7948867Y-15702436D01*
X7948867Y-15702436D02*
X7958391Y-15721484D01*
X7958391Y-15721484D02*
X7967915Y-15759579D01*
X7967915Y-15759579D02*
X7967915Y-15807198D01*
X7967915Y-15807198D02*
X7958391Y-15845293D01*
X7958391Y-15845293D02*
X7948867Y-15864341D01*
X7948867Y-15864341D02*
X7939343Y-15873865D01*
X7939343Y-15873865D02*
X7920296Y-15883389D01*
X7920296Y-15883389D02*
X7901248Y-15883389D01*
X7901248Y-15883389D02*
X7882200Y-15873865D01*
X7882200Y-15873865D02*
X7872676Y-15864341D01*
X7872676Y-15864341D02*
X7863153Y-15845293D01*
X7863153Y-15845293D02*
X7853629Y-15807198D01*
X7853629Y-15807198D02*
X7853629Y-15759579D01*
X7853629Y-15759579D02*
X7863153Y-15721484D01*
X7863153Y-15721484D02*
X7872676Y-15702436D01*
X7872676Y-15702436D02*
X7882200Y-15692913D01*
X7882200Y-15692913D02*
X7901248Y-15683389D01*
X8044105Y-15683389D02*
X8044105Y-15721484D01*
X8120296Y-15683389D02*
X8120296Y-15721484D01*
X8415534Y-15959579D02*
X8406010Y-15950055D01*
X8406010Y-15950055D02*
X8386962Y-15921484D01*
X8386962Y-15921484D02*
X8377438Y-15902436D01*
X8377438Y-15902436D02*
X8367915Y-15873865D01*
X8367915Y-15873865D02*
X8358391Y-15826246D01*
X8358391Y-15826246D02*
X8358391Y-15788151D01*
X8358391Y-15788151D02*
X8367915Y-15740532D01*
X8367915Y-15740532D02*
X8377438Y-15711960D01*
X8377438Y-15711960D02*
X8386962Y-15692913D01*
X8386962Y-15692913D02*
X8406010Y-15664341D01*
X8406010Y-15664341D02*
X8415534Y-15654817D01*
X8472677Y-15683389D02*
X8596486Y-15683389D01*
X8596486Y-15683389D02*
X8529819Y-15759579D01*
X8529819Y-15759579D02*
X8558391Y-15759579D01*
X8558391Y-15759579D02*
X8577439Y-15769103D01*
X8577439Y-15769103D02*
X8586962Y-15778627D01*
X8586962Y-15778627D02*
X8596486Y-15797674D01*
X8596486Y-15797674D02*
X8596486Y-15845293D01*
X8596486Y-15845293D02*
X8586962Y-15864341D01*
X8586962Y-15864341D02*
X8577439Y-15873865D01*
X8577439Y-15873865D02*
X8558391Y-15883389D01*
X8558391Y-15883389D02*
X8501248Y-15883389D01*
X8501248Y-15883389D02*
X8482200Y-15873865D01*
X8482200Y-15873865D02*
X8472677Y-15864341D01*
X8834581Y-15883389D02*
X8834581Y-15683389D01*
X8920296Y-15883389D02*
X8920296Y-15778627D01*
X8920296Y-15778627D02*
X8910772Y-15759579D01*
X8910772Y-15759579D02*
X8891724Y-15750055D01*
X8891724Y-15750055D02*
X8863153Y-15750055D01*
X8863153Y-15750055D02*
X8844105Y-15759579D01*
X8844105Y-15759579D02*
X8834581Y-15769103D01*
X9044105Y-15883389D02*
X9025058Y-15873865D01*
X9025058Y-15873865D02*
X9015534Y-15864341D01*
X9015534Y-15864341D02*
X9006010Y-15845293D01*
X9006010Y-15845293D02*
X9006010Y-15788151D01*
X9006010Y-15788151D02*
X9015534Y-15769103D01*
X9015534Y-15769103D02*
X9025058Y-15759579D01*
X9025058Y-15759579D02*
X9044105Y-15750055D01*
X9044105Y-15750055D02*
X9072677Y-15750055D01*
X9072677Y-15750055D02*
X9091724Y-15759579D01*
X9091724Y-15759579D02*
X9101248Y-15769103D01*
X9101248Y-15769103D02*
X9110772Y-15788151D01*
X9110772Y-15788151D02*
X9110772Y-15845293D01*
X9110772Y-15845293D02*
X9101248Y-15864341D01*
X9101248Y-15864341D02*
X9091724Y-15873865D01*
X9091724Y-15873865D02*
X9072677Y-15883389D01*
X9072677Y-15883389D02*
X9044105Y-15883389D01*
X9225058Y-15883389D02*
X9206010Y-15873865D01*
X9206010Y-15873865D02*
X9196486Y-15854817D01*
X9196486Y-15854817D02*
X9196486Y-15683389D01*
X9377439Y-15873865D02*
X9358391Y-15883389D01*
X9358391Y-15883389D02*
X9320296Y-15883389D01*
X9320296Y-15883389D02*
X9301248Y-15873865D01*
X9301248Y-15873865D02*
X9291724Y-15854817D01*
X9291724Y-15854817D02*
X9291724Y-15778627D01*
X9291724Y-15778627D02*
X9301248Y-15759579D01*
X9301248Y-15759579D02*
X9320296Y-15750055D01*
X9320296Y-15750055D02*
X9358391Y-15750055D01*
X9358391Y-15750055D02*
X9377439Y-15759579D01*
X9377439Y-15759579D02*
X9386962Y-15778627D01*
X9386962Y-15778627D02*
X9386962Y-15797674D01*
X9386962Y-15797674D02*
X9291724Y-15816722D01*
X9463153Y-15873865D02*
X9482201Y-15883389D01*
X9482201Y-15883389D02*
X9520296Y-15883389D01*
X9520296Y-15883389D02*
X9539343Y-15873865D01*
X9539343Y-15873865D02*
X9548867Y-15854817D01*
X9548867Y-15854817D02*
X9548867Y-15845293D01*
X9548867Y-15845293D02*
X9539343Y-15826246D01*
X9539343Y-15826246D02*
X9520296Y-15816722D01*
X9520296Y-15816722D02*
X9491724Y-15816722D01*
X9491724Y-15816722D02*
X9472677Y-15807198D01*
X9472677Y-15807198D02*
X9463153Y-15788151D01*
X9463153Y-15788151D02*
X9463153Y-15778627D01*
X9463153Y-15778627D02*
X9472677Y-15759579D01*
X9472677Y-15759579D02*
X9491724Y-15750055D01*
X9491724Y-15750055D02*
X9520296Y-15750055D01*
X9520296Y-15750055D02*
X9539343Y-15759579D01*
X9615534Y-15959579D02*
X9625058Y-15950055D01*
X9625058Y-15950055D02*
X9644105Y-15921484D01*
X9644105Y-15921484D02*
X9653629Y-15902436D01*
X9653629Y-15902436D02*
X9663153Y-15873865D01*
X9663153Y-15873865D02*
X9672677Y-15826246D01*
X9672677Y-15826246D02*
X9672677Y-15788151D01*
X9672677Y-15788151D02*
X9663153Y-15740532D01*
X9663153Y-15740532D02*
X9653629Y-15711960D01*
X9653629Y-15711960D02*
X9644105Y-15692913D01*
X9644105Y-15692913D02*
X9625058Y-15664341D01*
X9625058Y-15664341D02*
X9615534Y-15654817D01*
D12*
X4840471Y-16055905D02*
G75*
G02*
X4760471Y-16055905I-40000J0D01*
G01*
X4760471Y-16055905D02*
G75*
G02*
X4840471Y-16055905I40000J0D01*
G01*
D11*
X5139343Y-15947389D02*
X5158391Y-15947389D01*
X5158391Y-15947389D02*
X5177438Y-15956913D01*
X5177438Y-15956913D02*
X5186962Y-15966436D01*
X5186962Y-15966436D02*
X5196486Y-15985484D01*
X5196486Y-15985484D02*
X5206010Y-16023579D01*
X5206010Y-16023579D02*
X5206010Y-16071198D01*
X5206010Y-16071198D02*
X5196486Y-16109293D01*
X5196486Y-16109293D02*
X5186962Y-16128341D01*
X5186962Y-16128341D02*
X5177438Y-16137865D01*
X5177438Y-16137865D02*
X5158391Y-16147389D01*
X5158391Y-16147389D02*
X5139343Y-16147389D01*
X5139343Y-16147389D02*
X5120295Y-16137865D01*
X5120295Y-16137865D02*
X5110772Y-16128341D01*
X5110772Y-16128341D02*
X5101248Y-16109293D01*
X5101248Y-16109293D02*
X5091724Y-16071198D01*
X5091724Y-16071198D02*
X5091724Y-16023579D01*
X5091724Y-16023579D02*
X5101248Y-15985484D01*
X5101248Y-15985484D02*
X5110772Y-15966436D01*
X5110772Y-15966436D02*
X5120295Y-15956913D01*
X5120295Y-15956913D02*
X5139343Y-15947389D01*
X5291724Y-16128341D02*
X5301248Y-16137865D01*
X5301248Y-16137865D02*
X5291724Y-16147389D01*
X5291724Y-16147389D02*
X5282200Y-16137865D01*
X5282200Y-16137865D02*
X5291724Y-16128341D01*
X5291724Y-16128341D02*
X5291724Y-16147389D01*
X5415533Y-16033103D02*
X5396486Y-16023579D01*
X5396486Y-16023579D02*
X5386962Y-16014055D01*
X5386962Y-16014055D02*
X5377438Y-15995008D01*
X5377438Y-15995008D02*
X5377438Y-15985484D01*
X5377438Y-15985484D02*
X5386962Y-15966436D01*
X5386962Y-15966436D02*
X5396486Y-15956913D01*
X5396486Y-15956913D02*
X5415533Y-15947389D01*
X5415533Y-15947389D02*
X5453629Y-15947389D01*
X5453629Y-15947389D02*
X5472676Y-15956913D01*
X5472676Y-15956913D02*
X5482200Y-15966436D01*
X5482200Y-15966436D02*
X5491724Y-15985484D01*
X5491724Y-15985484D02*
X5491724Y-15995008D01*
X5491724Y-15995008D02*
X5482200Y-16014055D01*
X5482200Y-16014055D02*
X5472676Y-16023579D01*
X5472676Y-16023579D02*
X5453629Y-16033103D01*
X5453629Y-16033103D02*
X5415533Y-16033103D01*
X5415533Y-16033103D02*
X5396486Y-16042627D01*
X5396486Y-16042627D02*
X5386962Y-16052151D01*
X5386962Y-16052151D02*
X5377438Y-16071198D01*
X5377438Y-16071198D02*
X5377438Y-16109293D01*
X5377438Y-16109293D02*
X5386962Y-16128341D01*
X5386962Y-16128341D02*
X5396486Y-16137865D01*
X5396486Y-16137865D02*
X5415533Y-16147389D01*
X5415533Y-16147389D02*
X5453629Y-16147389D01*
X5453629Y-16147389D02*
X5472676Y-16137865D01*
X5472676Y-16137865D02*
X5482200Y-16128341D01*
X5482200Y-16128341D02*
X5491724Y-16109293D01*
X5491724Y-16109293D02*
X5491724Y-16071198D01*
X5491724Y-16071198D02*
X5482200Y-16052151D01*
X5482200Y-16052151D02*
X5472676Y-16042627D01*
X5472676Y-16042627D02*
X5453629Y-16033103D01*
X5615533Y-15947389D02*
X5634581Y-15947389D01*
X5634581Y-15947389D02*
X5653629Y-15956913D01*
X5653629Y-15956913D02*
X5663152Y-15966436D01*
X5663152Y-15966436D02*
X5672676Y-15985484D01*
X5672676Y-15985484D02*
X5682200Y-16023579D01*
X5682200Y-16023579D02*
X5682200Y-16071198D01*
X5682200Y-16071198D02*
X5672676Y-16109293D01*
X5672676Y-16109293D02*
X5663152Y-16128341D01*
X5663152Y-16128341D02*
X5653629Y-16137865D01*
X5653629Y-16137865D02*
X5634581Y-16147389D01*
X5634581Y-16147389D02*
X5615533Y-16147389D01*
X5615533Y-16147389D02*
X5596486Y-16137865D01*
X5596486Y-16137865D02*
X5586962Y-16128341D01*
X5586962Y-16128341D02*
X5577438Y-16109293D01*
X5577438Y-16109293D02*
X5567914Y-16071198D01*
X5567914Y-16071198D02*
X5567914Y-16023579D01*
X5567914Y-16023579D02*
X5577438Y-15985484D01*
X5577438Y-15985484D02*
X5586962Y-15966436D01*
X5586962Y-15966436D02*
X5596486Y-15956913D01*
X5596486Y-15956913D02*
X5615533Y-15947389D01*
X5806010Y-15947389D02*
X5825057Y-15947389D01*
X5825057Y-15947389D02*
X5844105Y-15956913D01*
X5844105Y-15956913D02*
X5853629Y-15966436D01*
X5853629Y-15966436D02*
X5863152Y-15985484D01*
X5863152Y-15985484D02*
X5872676Y-16023579D01*
X5872676Y-16023579D02*
X5872676Y-16071198D01*
X5872676Y-16071198D02*
X5863152Y-16109293D01*
X5863152Y-16109293D02*
X5853629Y-16128341D01*
X5853629Y-16128341D02*
X5844105Y-16137865D01*
X5844105Y-16137865D02*
X5825057Y-16147389D01*
X5825057Y-16147389D02*
X5806010Y-16147389D01*
X5806010Y-16147389D02*
X5786962Y-16137865D01*
X5786962Y-16137865D02*
X5777438Y-16128341D01*
X5777438Y-16128341D02*
X5767914Y-16109293D01*
X5767914Y-16109293D02*
X5758391Y-16071198D01*
X5758391Y-16071198D02*
X5758391Y-16023579D01*
X5758391Y-16023579D02*
X5767914Y-15985484D01*
X5767914Y-15985484D02*
X5777438Y-15966436D01*
X5777438Y-15966436D02*
X5786962Y-15956913D01*
X5786962Y-15956913D02*
X5806010Y-15947389D01*
X5958391Y-16147389D02*
X5958391Y-16014055D01*
X5958391Y-16033103D02*
X5967914Y-16023579D01*
X5967914Y-16023579D02*
X5986962Y-16014055D01*
X5986962Y-16014055D02*
X6015533Y-16014055D01*
X6015533Y-16014055D02*
X6034581Y-16023579D01*
X6034581Y-16023579D02*
X6044105Y-16042627D01*
X6044105Y-16042627D02*
X6044105Y-16147389D01*
X6044105Y-16042627D02*
X6053629Y-16023579D01*
X6053629Y-16023579D02*
X6072676Y-16014055D01*
X6072676Y-16014055D02*
X6101248Y-16014055D01*
X6101248Y-16014055D02*
X6120295Y-16023579D01*
X6120295Y-16023579D02*
X6129819Y-16042627D01*
X6129819Y-16042627D02*
X6129819Y-16147389D01*
X6225057Y-16147389D02*
X6225057Y-16014055D01*
X6225057Y-16033103D02*
X6234581Y-16023579D01*
X6234581Y-16023579D02*
X6253629Y-16014055D01*
X6253629Y-16014055D02*
X6282200Y-16014055D01*
X6282200Y-16014055D02*
X6301248Y-16023579D01*
X6301248Y-16023579D02*
X6310772Y-16042627D01*
X6310772Y-16042627D02*
X6310772Y-16147389D01*
X6310772Y-16042627D02*
X6320295Y-16023579D01*
X6320295Y-16023579D02*
X6339343Y-16014055D01*
X6339343Y-16014055D02*
X6367914Y-16014055D01*
X6367914Y-16014055D02*
X6386962Y-16023579D01*
X6386962Y-16023579D02*
X6396486Y-16042627D01*
X6396486Y-16042627D02*
X6396486Y-16147389D01*
X6786962Y-15937865D02*
X6615534Y-16195008D01*
X7044105Y-15947389D02*
X7063153Y-15947389D01*
X7063153Y-15947389D02*
X7082200Y-15956913D01*
X7082200Y-15956913D02*
X7091724Y-15966436D01*
X7091724Y-15966436D02*
X7101248Y-15985484D01*
X7101248Y-15985484D02*
X7110772Y-16023579D01*
X7110772Y-16023579D02*
X7110772Y-16071198D01*
X7110772Y-16071198D02*
X7101248Y-16109293D01*
X7101248Y-16109293D02*
X7091724Y-16128341D01*
X7091724Y-16128341D02*
X7082200Y-16137865D01*
X7082200Y-16137865D02*
X7063153Y-16147389D01*
X7063153Y-16147389D02*
X7044105Y-16147389D01*
X7044105Y-16147389D02*
X7025057Y-16137865D01*
X7025057Y-16137865D02*
X7015534Y-16128341D01*
X7015534Y-16128341D02*
X7006010Y-16109293D01*
X7006010Y-16109293D02*
X6996486Y-16071198D01*
X6996486Y-16071198D02*
X6996486Y-16023579D01*
X6996486Y-16023579D02*
X7006010Y-15985484D01*
X7006010Y-15985484D02*
X7015534Y-15966436D01*
X7015534Y-15966436D02*
X7025057Y-15956913D01*
X7025057Y-15956913D02*
X7044105Y-15947389D01*
X7196486Y-16128341D02*
X7206010Y-16137865D01*
X7206010Y-16137865D02*
X7196486Y-16147389D01*
X7196486Y-16147389D02*
X7186962Y-16137865D01*
X7186962Y-16137865D02*
X7196486Y-16128341D01*
X7196486Y-16128341D02*
X7196486Y-16147389D01*
X7329819Y-15947389D02*
X7348867Y-15947389D01*
X7348867Y-15947389D02*
X7367915Y-15956913D01*
X7367915Y-15956913D02*
X7377438Y-15966436D01*
X7377438Y-15966436D02*
X7386962Y-15985484D01*
X7386962Y-15985484D02*
X7396486Y-16023579D01*
X7396486Y-16023579D02*
X7396486Y-16071198D01*
X7396486Y-16071198D02*
X7386962Y-16109293D01*
X7386962Y-16109293D02*
X7377438Y-16128341D01*
X7377438Y-16128341D02*
X7367915Y-16137865D01*
X7367915Y-16137865D02*
X7348867Y-16147389D01*
X7348867Y-16147389D02*
X7329819Y-16147389D01*
X7329819Y-16147389D02*
X7310772Y-16137865D01*
X7310772Y-16137865D02*
X7301248Y-16128341D01*
X7301248Y-16128341D02*
X7291724Y-16109293D01*
X7291724Y-16109293D02*
X7282200Y-16071198D01*
X7282200Y-16071198D02*
X7282200Y-16023579D01*
X7282200Y-16023579D02*
X7291724Y-15985484D01*
X7291724Y-15985484D02*
X7301248Y-15966436D01*
X7301248Y-15966436D02*
X7310772Y-15956913D01*
X7310772Y-15956913D02*
X7329819Y-15947389D01*
X7463153Y-15947389D02*
X7586962Y-15947389D01*
X7586962Y-15947389D02*
X7520295Y-16023579D01*
X7520295Y-16023579D02*
X7548867Y-16023579D01*
X7548867Y-16023579D02*
X7567915Y-16033103D01*
X7567915Y-16033103D02*
X7577438Y-16042627D01*
X7577438Y-16042627D02*
X7586962Y-16061674D01*
X7586962Y-16061674D02*
X7586962Y-16109293D01*
X7586962Y-16109293D02*
X7577438Y-16128341D01*
X7577438Y-16128341D02*
X7567915Y-16137865D01*
X7567915Y-16137865D02*
X7548867Y-16147389D01*
X7548867Y-16147389D02*
X7491724Y-16147389D01*
X7491724Y-16147389D02*
X7472676Y-16137865D01*
X7472676Y-16137865D02*
X7463153Y-16128341D01*
X7777438Y-16147389D02*
X7663153Y-16147389D01*
X7720295Y-16147389D02*
X7720295Y-15947389D01*
X7720295Y-15947389D02*
X7701248Y-15975960D01*
X7701248Y-15975960D02*
X7682200Y-15995008D01*
X7682200Y-15995008D02*
X7663153Y-16004532D01*
X7958391Y-15947389D02*
X7863153Y-15947389D01*
X7863153Y-15947389D02*
X7853629Y-16042627D01*
X7853629Y-16042627D02*
X7863153Y-16033103D01*
X7863153Y-16033103D02*
X7882200Y-16023579D01*
X7882200Y-16023579D02*
X7929819Y-16023579D01*
X7929819Y-16023579D02*
X7948867Y-16033103D01*
X7948867Y-16033103D02*
X7958391Y-16042627D01*
X7958391Y-16042627D02*
X7967915Y-16061674D01*
X7967915Y-16061674D02*
X7967915Y-16109293D01*
X7967915Y-16109293D02*
X7958391Y-16128341D01*
X7958391Y-16128341D02*
X7948867Y-16137865D01*
X7948867Y-16137865D02*
X7929819Y-16147389D01*
X7929819Y-16147389D02*
X7882200Y-16147389D01*
X7882200Y-16147389D02*
X7863153Y-16137865D01*
X7863153Y-16137865D02*
X7853629Y-16128341D01*
X8044105Y-15947389D02*
X8044105Y-15985484D01*
X8120296Y-15947389D02*
X8120296Y-15985484D01*
X8415534Y-16223579D02*
X8406010Y-16214055D01*
X8406010Y-16214055D02*
X8386962Y-16185484D01*
X8386962Y-16185484D02*
X8377438Y-16166436D01*
X8377438Y-16166436D02*
X8367915Y-16137865D01*
X8367915Y-16137865D02*
X8358391Y-16090246D01*
X8358391Y-16090246D02*
X8358391Y-16052151D01*
X8358391Y-16052151D02*
X8367915Y-16004532D01*
X8367915Y-16004532D02*
X8377438Y-15975960D01*
X8377438Y-15975960D02*
X8386962Y-15956913D01*
X8386962Y-15956913D02*
X8406010Y-15928341D01*
X8406010Y-15928341D02*
X8415534Y-15918817D01*
X8596486Y-16147389D02*
X8482200Y-16147389D01*
X8539343Y-16147389D02*
X8539343Y-15947389D01*
X8539343Y-15947389D02*
X8520296Y-15975960D01*
X8520296Y-15975960D02*
X8501248Y-15995008D01*
X8501248Y-15995008D02*
X8482200Y-16004532D01*
X8767915Y-16014055D02*
X8767915Y-16147389D01*
X8720296Y-15937865D02*
X8672677Y-16080722D01*
X8672677Y-16080722D02*
X8796486Y-16080722D01*
X9025058Y-16147389D02*
X9025058Y-15947389D01*
X9110772Y-16147389D02*
X9110772Y-16042627D01*
X9110772Y-16042627D02*
X9101248Y-16023579D01*
X9101248Y-16023579D02*
X9082201Y-16014055D01*
X9082201Y-16014055D02*
X9053629Y-16014055D01*
X9053629Y-16014055D02*
X9034581Y-16023579D01*
X9034581Y-16023579D02*
X9025058Y-16033103D01*
X9234581Y-16147389D02*
X9215534Y-16137865D01*
X9215534Y-16137865D02*
X9206010Y-16128341D01*
X9206010Y-16128341D02*
X9196486Y-16109293D01*
X9196486Y-16109293D02*
X9196486Y-16052151D01*
X9196486Y-16052151D02*
X9206010Y-16033103D01*
X9206010Y-16033103D02*
X9215534Y-16023579D01*
X9215534Y-16023579D02*
X9234581Y-16014055D01*
X9234581Y-16014055D02*
X9263153Y-16014055D01*
X9263153Y-16014055D02*
X9282201Y-16023579D01*
X9282201Y-16023579D02*
X9291724Y-16033103D01*
X9291724Y-16033103D02*
X9301248Y-16052151D01*
X9301248Y-16052151D02*
X9301248Y-16109293D01*
X9301248Y-16109293D02*
X9291724Y-16128341D01*
X9291724Y-16128341D02*
X9282201Y-16137865D01*
X9282201Y-16137865D02*
X9263153Y-16147389D01*
X9263153Y-16147389D02*
X9234581Y-16147389D01*
X9415534Y-16147389D02*
X9396486Y-16137865D01*
X9396486Y-16137865D02*
X9386962Y-16118817D01*
X9386962Y-16118817D02*
X9386962Y-15947389D01*
X9567915Y-16137865D02*
X9548867Y-16147389D01*
X9548867Y-16147389D02*
X9510772Y-16147389D01*
X9510772Y-16147389D02*
X9491724Y-16137865D01*
X9491724Y-16137865D02*
X9482201Y-16118817D01*
X9482201Y-16118817D02*
X9482201Y-16042627D01*
X9482201Y-16042627D02*
X9491724Y-16023579D01*
X9491724Y-16023579D02*
X9510772Y-16014055D01*
X9510772Y-16014055D02*
X9548867Y-16014055D01*
X9548867Y-16014055D02*
X9567915Y-16023579D01*
X9567915Y-16023579D02*
X9577439Y-16042627D01*
X9577439Y-16042627D02*
X9577439Y-16061674D01*
X9577439Y-16061674D02*
X9482201Y-16080722D01*
X9653629Y-16137865D02*
X9672677Y-16147389D01*
X9672677Y-16147389D02*
X9710772Y-16147389D01*
X9710772Y-16147389D02*
X9729820Y-16137865D01*
X9729820Y-16137865D02*
X9739343Y-16118817D01*
X9739343Y-16118817D02*
X9739343Y-16109293D01*
X9739343Y-16109293D02*
X9729820Y-16090246D01*
X9729820Y-16090246D02*
X9710772Y-16080722D01*
X9710772Y-16080722D02*
X9682201Y-16080722D01*
X9682201Y-16080722D02*
X9663153Y-16071198D01*
X9663153Y-16071198D02*
X9653629Y-16052151D01*
X9653629Y-16052151D02*
X9653629Y-16042627D01*
X9653629Y-16042627D02*
X9663153Y-16023579D01*
X9663153Y-16023579D02*
X9682201Y-16014055D01*
X9682201Y-16014055D02*
X9710772Y-16014055D01*
X9710772Y-16014055D02*
X9729820Y-16023579D01*
X9806010Y-16223579D02*
X9815534Y-16214055D01*
X9815534Y-16214055D02*
X9834582Y-16185484D01*
X9834582Y-16185484D02*
X9844105Y-16166436D01*
X9844105Y-16166436D02*
X9853629Y-16137865D01*
X9853629Y-16137865D02*
X9863153Y-16090246D01*
X9863153Y-16090246D02*
X9863153Y-16052151D01*
X9863153Y-16052151D02*
X9853629Y-16004532D01*
X9853629Y-16004532D02*
X9844105Y-15975960D01*
X9844105Y-15975960D02*
X9834582Y-15956913D01*
X9834582Y-15956913D02*
X9815534Y-15928341D01*
X9815534Y-15928341D02*
X9806010Y-15918817D01*
D12*
X4795471Y-16274905D02*
X4795471Y-16364905D01*
X4750471Y-16319905D02*
X4840471Y-16319905D01*
D11*
X5139343Y-16211389D02*
X5158391Y-16211389D01*
X5158391Y-16211389D02*
X5177438Y-16220913D01*
X5177438Y-16220913D02*
X5186962Y-16230436D01*
X5186962Y-16230436D02*
X5196486Y-16249484D01*
X5196486Y-16249484D02*
X5206010Y-16287579D01*
X5206010Y-16287579D02*
X5206010Y-16335198D01*
X5206010Y-16335198D02*
X5196486Y-16373293D01*
X5196486Y-16373293D02*
X5186962Y-16392341D01*
X5186962Y-16392341D02*
X5177438Y-16401865D01*
X5177438Y-16401865D02*
X5158391Y-16411389D01*
X5158391Y-16411389D02*
X5139343Y-16411389D01*
X5139343Y-16411389D02*
X5120295Y-16401865D01*
X5120295Y-16401865D02*
X5110772Y-16392341D01*
X5110772Y-16392341D02*
X5101248Y-16373293D01*
X5101248Y-16373293D02*
X5091724Y-16335198D01*
X5091724Y-16335198D02*
X5091724Y-16287579D01*
X5091724Y-16287579D02*
X5101248Y-16249484D01*
X5101248Y-16249484D02*
X5110772Y-16230436D01*
X5110772Y-16230436D02*
X5120295Y-16220913D01*
X5120295Y-16220913D02*
X5139343Y-16211389D01*
X5291724Y-16392341D02*
X5301248Y-16401865D01*
X5301248Y-16401865D02*
X5291724Y-16411389D01*
X5291724Y-16411389D02*
X5282200Y-16401865D01*
X5282200Y-16401865D02*
X5291724Y-16392341D01*
X5291724Y-16392341D02*
X5291724Y-16411389D01*
X5396486Y-16411389D02*
X5434581Y-16411389D01*
X5434581Y-16411389D02*
X5453629Y-16401865D01*
X5453629Y-16401865D02*
X5463153Y-16392341D01*
X5463153Y-16392341D02*
X5482200Y-16363770D01*
X5482200Y-16363770D02*
X5491724Y-16325674D01*
X5491724Y-16325674D02*
X5491724Y-16249484D01*
X5491724Y-16249484D02*
X5482200Y-16230436D01*
X5482200Y-16230436D02*
X5472676Y-16220913D01*
X5472676Y-16220913D02*
X5453629Y-16211389D01*
X5453629Y-16211389D02*
X5415533Y-16211389D01*
X5415533Y-16211389D02*
X5396486Y-16220913D01*
X5396486Y-16220913D02*
X5386962Y-16230436D01*
X5386962Y-16230436D02*
X5377438Y-16249484D01*
X5377438Y-16249484D02*
X5377438Y-16297103D01*
X5377438Y-16297103D02*
X5386962Y-16316151D01*
X5386962Y-16316151D02*
X5396486Y-16325674D01*
X5396486Y-16325674D02*
X5415533Y-16335198D01*
X5415533Y-16335198D02*
X5453629Y-16335198D01*
X5453629Y-16335198D02*
X5472676Y-16325674D01*
X5472676Y-16325674D02*
X5482200Y-16316151D01*
X5482200Y-16316151D02*
X5491724Y-16297103D01*
X5615533Y-16211389D02*
X5634581Y-16211389D01*
X5634581Y-16211389D02*
X5653629Y-16220913D01*
X5653629Y-16220913D02*
X5663152Y-16230436D01*
X5663152Y-16230436D02*
X5672676Y-16249484D01*
X5672676Y-16249484D02*
X5682200Y-16287579D01*
X5682200Y-16287579D02*
X5682200Y-16335198D01*
X5682200Y-16335198D02*
X5672676Y-16373293D01*
X5672676Y-16373293D02*
X5663152Y-16392341D01*
X5663152Y-16392341D02*
X5653629Y-16401865D01*
X5653629Y-16401865D02*
X5634581Y-16411389D01*
X5634581Y-16411389D02*
X5615533Y-16411389D01*
X5615533Y-16411389D02*
X5596486Y-16401865D01*
X5596486Y-16401865D02*
X5586962Y-16392341D01*
X5586962Y-16392341D02*
X5577438Y-16373293D01*
X5577438Y-16373293D02*
X5567914Y-16335198D01*
X5567914Y-16335198D02*
X5567914Y-16287579D01*
X5567914Y-16287579D02*
X5577438Y-16249484D01*
X5577438Y-16249484D02*
X5586962Y-16230436D01*
X5586962Y-16230436D02*
X5596486Y-16220913D01*
X5596486Y-16220913D02*
X5615533Y-16211389D01*
X5806010Y-16211389D02*
X5825057Y-16211389D01*
X5825057Y-16211389D02*
X5844105Y-16220913D01*
X5844105Y-16220913D02*
X5853629Y-16230436D01*
X5853629Y-16230436D02*
X5863152Y-16249484D01*
X5863152Y-16249484D02*
X5872676Y-16287579D01*
X5872676Y-16287579D02*
X5872676Y-16335198D01*
X5872676Y-16335198D02*
X5863152Y-16373293D01*
X5863152Y-16373293D02*
X5853629Y-16392341D01*
X5853629Y-16392341D02*
X5844105Y-16401865D01*
X5844105Y-16401865D02*
X5825057Y-16411389D01*
X5825057Y-16411389D02*
X5806010Y-16411389D01*
X5806010Y-16411389D02*
X5786962Y-16401865D01*
X5786962Y-16401865D02*
X5777438Y-16392341D01*
X5777438Y-16392341D02*
X5767914Y-16373293D01*
X5767914Y-16373293D02*
X5758391Y-16335198D01*
X5758391Y-16335198D02*
X5758391Y-16287579D01*
X5758391Y-16287579D02*
X5767914Y-16249484D01*
X5767914Y-16249484D02*
X5777438Y-16230436D01*
X5777438Y-16230436D02*
X5786962Y-16220913D01*
X5786962Y-16220913D02*
X5806010Y-16211389D01*
X5958391Y-16411389D02*
X5958391Y-16278055D01*
X5958391Y-16297103D02*
X5967914Y-16287579D01*
X5967914Y-16287579D02*
X5986962Y-16278055D01*
X5986962Y-16278055D02*
X6015533Y-16278055D01*
X6015533Y-16278055D02*
X6034581Y-16287579D01*
X6034581Y-16287579D02*
X6044105Y-16306627D01*
X6044105Y-16306627D02*
X6044105Y-16411389D01*
X6044105Y-16306627D02*
X6053629Y-16287579D01*
X6053629Y-16287579D02*
X6072676Y-16278055D01*
X6072676Y-16278055D02*
X6101248Y-16278055D01*
X6101248Y-16278055D02*
X6120295Y-16287579D01*
X6120295Y-16287579D02*
X6129819Y-16306627D01*
X6129819Y-16306627D02*
X6129819Y-16411389D01*
X6225057Y-16411389D02*
X6225057Y-16278055D01*
X6225057Y-16297103D02*
X6234581Y-16287579D01*
X6234581Y-16287579D02*
X6253629Y-16278055D01*
X6253629Y-16278055D02*
X6282200Y-16278055D01*
X6282200Y-16278055D02*
X6301248Y-16287579D01*
X6301248Y-16287579D02*
X6310772Y-16306627D01*
X6310772Y-16306627D02*
X6310772Y-16411389D01*
X6310772Y-16306627D02*
X6320295Y-16287579D01*
X6320295Y-16287579D02*
X6339343Y-16278055D01*
X6339343Y-16278055D02*
X6367914Y-16278055D01*
X6367914Y-16278055D02*
X6386962Y-16287579D01*
X6386962Y-16287579D02*
X6396486Y-16306627D01*
X6396486Y-16306627D02*
X6396486Y-16411389D01*
X6786962Y-16201865D02*
X6615534Y-16459008D01*
X7044105Y-16211389D02*
X7063153Y-16211389D01*
X7063153Y-16211389D02*
X7082200Y-16220913D01*
X7082200Y-16220913D02*
X7091724Y-16230436D01*
X7091724Y-16230436D02*
X7101248Y-16249484D01*
X7101248Y-16249484D02*
X7110772Y-16287579D01*
X7110772Y-16287579D02*
X7110772Y-16335198D01*
X7110772Y-16335198D02*
X7101248Y-16373293D01*
X7101248Y-16373293D02*
X7091724Y-16392341D01*
X7091724Y-16392341D02*
X7082200Y-16401865D01*
X7082200Y-16401865D02*
X7063153Y-16411389D01*
X7063153Y-16411389D02*
X7044105Y-16411389D01*
X7044105Y-16411389D02*
X7025057Y-16401865D01*
X7025057Y-16401865D02*
X7015534Y-16392341D01*
X7015534Y-16392341D02*
X7006010Y-16373293D01*
X7006010Y-16373293D02*
X6996486Y-16335198D01*
X6996486Y-16335198D02*
X6996486Y-16287579D01*
X6996486Y-16287579D02*
X7006010Y-16249484D01*
X7006010Y-16249484D02*
X7015534Y-16230436D01*
X7015534Y-16230436D02*
X7025057Y-16220913D01*
X7025057Y-16220913D02*
X7044105Y-16211389D01*
X7196486Y-16392341D02*
X7206010Y-16401865D01*
X7206010Y-16401865D02*
X7196486Y-16411389D01*
X7196486Y-16411389D02*
X7186962Y-16401865D01*
X7186962Y-16401865D02*
X7196486Y-16392341D01*
X7196486Y-16392341D02*
X7196486Y-16411389D01*
X7329819Y-16211389D02*
X7348867Y-16211389D01*
X7348867Y-16211389D02*
X7367915Y-16220913D01*
X7367915Y-16220913D02*
X7377438Y-16230436D01*
X7377438Y-16230436D02*
X7386962Y-16249484D01*
X7386962Y-16249484D02*
X7396486Y-16287579D01*
X7396486Y-16287579D02*
X7396486Y-16335198D01*
X7396486Y-16335198D02*
X7386962Y-16373293D01*
X7386962Y-16373293D02*
X7377438Y-16392341D01*
X7377438Y-16392341D02*
X7367915Y-16401865D01*
X7367915Y-16401865D02*
X7348867Y-16411389D01*
X7348867Y-16411389D02*
X7329819Y-16411389D01*
X7329819Y-16411389D02*
X7310772Y-16401865D01*
X7310772Y-16401865D02*
X7301248Y-16392341D01*
X7301248Y-16392341D02*
X7291724Y-16373293D01*
X7291724Y-16373293D02*
X7282200Y-16335198D01*
X7282200Y-16335198D02*
X7282200Y-16287579D01*
X7282200Y-16287579D02*
X7291724Y-16249484D01*
X7291724Y-16249484D02*
X7301248Y-16230436D01*
X7301248Y-16230436D02*
X7310772Y-16220913D01*
X7310772Y-16220913D02*
X7329819Y-16211389D01*
X7463153Y-16211389D02*
X7586962Y-16211389D01*
X7586962Y-16211389D02*
X7520295Y-16287579D01*
X7520295Y-16287579D02*
X7548867Y-16287579D01*
X7548867Y-16287579D02*
X7567915Y-16297103D01*
X7567915Y-16297103D02*
X7577438Y-16306627D01*
X7577438Y-16306627D02*
X7586962Y-16325674D01*
X7586962Y-16325674D02*
X7586962Y-16373293D01*
X7586962Y-16373293D02*
X7577438Y-16392341D01*
X7577438Y-16392341D02*
X7567915Y-16401865D01*
X7567915Y-16401865D02*
X7548867Y-16411389D01*
X7548867Y-16411389D02*
X7491724Y-16411389D01*
X7491724Y-16411389D02*
X7472676Y-16401865D01*
X7472676Y-16401865D02*
X7463153Y-16392341D01*
X7767915Y-16211389D02*
X7672676Y-16211389D01*
X7672676Y-16211389D02*
X7663153Y-16306627D01*
X7663153Y-16306627D02*
X7672676Y-16297103D01*
X7672676Y-16297103D02*
X7691724Y-16287579D01*
X7691724Y-16287579D02*
X7739343Y-16287579D01*
X7739343Y-16287579D02*
X7758391Y-16297103D01*
X7758391Y-16297103D02*
X7767915Y-16306627D01*
X7767915Y-16306627D02*
X7777438Y-16325674D01*
X7777438Y-16325674D02*
X7777438Y-16373293D01*
X7777438Y-16373293D02*
X7767915Y-16392341D01*
X7767915Y-16392341D02*
X7758391Y-16401865D01*
X7758391Y-16401865D02*
X7739343Y-16411389D01*
X7739343Y-16411389D02*
X7691724Y-16411389D01*
X7691724Y-16411389D02*
X7672676Y-16401865D01*
X7672676Y-16401865D02*
X7663153Y-16392341D01*
X7948867Y-16278055D02*
X7948867Y-16411389D01*
X7901248Y-16201865D02*
X7853629Y-16344722D01*
X7853629Y-16344722D02*
X7977438Y-16344722D01*
X8044105Y-16211389D02*
X8044105Y-16249484D01*
X8120296Y-16211389D02*
X8120296Y-16249484D01*
X8415534Y-16487579D02*
X8406010Y-16478055D01*
X8406010Y-16478055D02*
X8386962Y-16449484D01*
X8386962Y-16449484D02*
X8377438Y-16430436D01*
X8377438Y-16430436D02*
X8367915Y-16401865D01*
X8367915Y-16401865D02*
X8358391Y-16354246D01*
X8358391Y-16354246D02*
X8358391Y-16316151D01*
X8358391Y-16316151D02*
X8367915Y-16268532D01*
X8367915Y-16268532D02*
X8377438Y-16239960D01*
X8377438Y-16239960D02*
X8386962Y-16220913D01*
X8386962Y-16220913D02*
X8406010Y-16192341D01*
X8406010Y-16192341D02*
X8415534Y-16182817D01*
X8472677Y-16211389D02*
X8606010Y-16211389D01*
X8606010Y-16211389D02*
X8520296Y-16411389D01*
X8834581Y-16411389D02*
X8834581Y-16211389D01*
X8920296Y-16411389D02*
X8920296Y-16306627D01*
X8920296Y-16306627D02*
X8910772Y-16287579D01*
X8910772Y-16287579D02*
X8891724Y-16278055D01*
X8891724Y-16278055D02*
X8863153Y-16278055D01*
X8863153Y-16278055D02*
X8844105Y-16287579D01*
X8844105Y-16287579D02*
X8834581Y-16297103D01*
X9044105Y-16411389D02*
X9025058Y-16401865D01*
X9025058Y-16401865D02*
X9015534Y-16392341D01*
X9015534Y-16392341D02*
X9006010Y-16373293D01*
X9006010Y-16373293D02*
X9006010Y-16316151D01*
X9006010Y-16316151D02*
X9015534Y-16297103D01*
X9015534Y-16297103D02*
X9025058Y-16287579D01*
X9025058Y-16287579D02*
X9044105Y-16278055D01*
X9044105Y-16278055D02*
X9072677Y-16278055D01*
X9072677Y-16278055D02*
X9091724Y-16287579D01*
X9091724Y-16287579D02*
X9101248Y-16297103D01*
X9101248Y-16297103D02*
X9110772Y-16316151D01*
X9110772Y-16316151D02*
X9110772Y-16373293D01*
X9110772Y-16373293D02*
X9101248Y-16392341D01*
X9101248Y-16392341D02*
X9091724Y-16401865D01*
X9091724Y-16401865D02*
X9072677Y-16411389D01*
X9072677Y-16411389D02*
X9044105Y-16411389D01*
X9225058Y-16411389D02*
X9206010Y-16401865D01*
X9206010Y-16401865D02*
X9196486Y-16382817D01*
X9196486Y-16382817D02*
X9196486Y-16211389D01*
X9377439Y-16401865D02*
X9358391Y-16411389D01*
X9358391Y-16411389D02*
X9320296Y-16411389D01*
X9320296Y-16411389D02*
X9301248Y-16401865D01*
X9301248Y-16401865D02*
X9291724Y-16382817D01*
X9291724Y-16382817D02*
X9291724Y-16306627D01*
X9291724Y-16306627D02*
X9301248Y-16287579D01*
X9301248Y-16287579D02*
X9320296Y-16278055D01*
X9320296Y-16278055D02*
X9358391Y-16278055D01*
X9358391Y-16278055D02*
X9377439Y-16287579D01*
X9377439Y-16287579D02*
X9386962Y-16306627D01*
X9386962Y-16306627D02*
X9386962Y-16325674D01*
X9386962Y-16325674D02*
X9291724Y-16344722D01*
X9463153Y-16401865D02*
X9482201Y-16411389D01*
X9482201Y-16411389D02*
X9520296Y-16411389D01*
X9520296Y-16411389D02*
X9539343Y-16401865D01*
X9539343Y-16401865D02*
X9548867Y-16382817D01*
X9548867Y-16382817D02*
X9548867Y-16373293D01*
X9548867Y-16373293D02*
X9539343Y-16354246D01*
X9539343Y-16354246D02*
X9520296Y-16344722D01*
X9520296Y-16344722D02*
X9491724Y-16344722D01*
X9491724Y-16344722D02*
X9472677Y-16335198D01*
X9472677Y-16335198D02*
X9463153Y-16316151D01*
X9463153Y-16316151D02*
X9463153Y-16306627D01*
X9463153Y-16306627D02*
X9472677Y-16287579D01*
X9472677Y-16287579D02*
X9491724Y-16278055D01*
X9491724Y-16278055D02*
X9520296Y-16278055D01*
X9520296Y-16278055D02*
X9539343Y-16287579D01*
X9615534Y-16487579D02*
X9625058Y-16478055D01*
X9625058Y-16478055D02*
X9644105Y-16449484D01*
X9644105Y-16449484D02*
X9653629Y-16430436D01*
X9653629Y-16430436D02*
X9663153Y-16401865D01*
X9663153Y-16401865D02*
X9672677Y-16354246D01*
X9672677Y-16354246D02*
X9672677Y-16316151D01*
X9672677Y-16316151D02*
X9663153Y-16268532D01*
X9663153Y-16268532D02*
X9653629Y-16239960D01*
X9653629Y-16239960D02*
X9644105Y-16220913D01*
X9644105Y-16220913D02*
X9625058Y-16192341D01*
X9625058Y-16192341D02*
X9615534Y-16182817D01*
D12*
X4825827Y-16619261D02*
X4825827Y-16548549D01*
X4755115Y-16548549D01*
X4755115Y-16619261D01*
X4825827Y-16619261D01*
D11*
X5206010Y-16675389D02*
X5091724Y-16675389D01*
X5148867Y-16675389D02*
X5148867Y-16475389D01*
X5148867Y-16475389D02*
X5129819Y-16503960D01*
X5129819Y-16503960D02*
X5110772Y-16523008D01*
X5110772Y-16523008D02*
X5091724Y-16532532D01*
X5291724Y-16656341D02*
X5301248Y-16665865D01*
X5301248Y-16665865D02*
X5291724Y-16675389D01*
X5291724Y-16675389D02*
X5282200Y-16665865D01*
X5282200Y-16665865D02*
X5291724Y-16656341D01*
X5291724Y-16656341D02*
X5291724Y-16675389D01*
X5425057Y-16475389D02*
X5444105Y-16475389D01*
X5444105Y-16475389D02*
X5463153Y-16484913D01*
X5463153Y-16484913D02*
X5472676Y-16494436D01*
X5472676Y-16494436D02*
X5482200Y-16513484D01*
X5482200Y-16513484D02*
X5491724Y-16551579D01*
X5491724Y-16551579D02*
X5491724Y-16599198D01*
X5491724Y-16599198D02*
X5482200Y-16637293D01*
X5482200Y-16637293D02*
X5472676Y-16656341D01*
X5472676Y-16656341D02*
X5463153Y-16665865D01*
X5463153Y-16665865D02*
X5444105Y-16675389D01*
X5444105Y-16675389D02*
X5425057Y-16675389D01*
X5425057Y-16675389D02*
X5406010Y-16665865D01*
X5406010Y-16665865D02*
X5396486Y-16656341D01*
X5396486Y-16656341D02*
X5386962Y-16637293D01*
X5386962Y-16637293D02*
X5377438Y-16599198D01*
X5377438Y-16599198D02*
X5377438Y-16551579D01*
X5377438Y-16551579D02*
X5386962Y-16513484D01*
X5386962Y-16513484D02*
X5396486Y-16494436D01*
X5396486Y-16494436D02*
X5406010Y-16484913D01*
X5406010Y-16484913D02*
X5425057Y-16475389D01*
X5615533Y-16475389D02*
X5634581Y-16475389D01*
X5634581Y-16475389D02*
X5653629Y-16484913D01*
X5653629Y-16484913D02*
X5663152Y-16494436D01*
X5663152Y-16494436D02*
X5672676Y-16513484D01*
X5672676Y-16513484D02*
X5682200Y-16551579D01*
X5682200Y-16551579D02*
X5682200Y-16599198D01*
X5682200Y-16599198D02*
X5672676Y-16637293D01*
X5672676Y-16637293D02*
X5663152Y-16656341D01*
X5663152Y-16656341D02*
X5653629Y-16665865D01*
X5653629Y-16665865D02*
X5634581Y-16675389D01*
X5634581Y-16675389D02*
X5615533Y-16675389D01*
X5615533Y-16675389D02*
X5596486Y-16665865D01*
X5596486Y-16665865D02*
X5586962Y-16656341D01*
X5586962Y-16656341D02*
X5577438Y-16637293D01*
X5577438Y-16637293D02*
X5567914Y-16599198D01*
X5567914Y-16599198D02*
X5567914Y-16551579D01*
X5567914Y-16551579D02*
X5577438Y-16513484D01*
X5577438Y-16513484D02*
X5586962Y-16494436D01*
X5586962Y-16494436D02*
X5596486Y-16484913D01*
X5596486Y-16484913D02*
X5615533Y-16475389D01*
X5806010Y-16475389D02*
X5825057Y-16475389D01*
X5825057Y-16475389D02*
X5844105Y-16484913D01*
X5844105Y-16484913D02*
X5853629Y-16494436D01*
X5853629Y-16494436D02*
X5863152Y-16513484D01*
X5863152Y-16513484D02*
X5872676Y-16551579D01*
X5872676Y-16551579D02*
X5872676Y-16599198D01*
X5872676Y-16599198D02*
X5863152Y-16637293D01*
X5863152Y-16637293D02*
X5853629Y-16656341D01*
X5853629Y-16656341D02*
X5844105Y-16665865D01*
X5844105Y-16665865D02*
X5825057Y-16675389D01*
X5825057Y-16675389D02*
X5806010Y-16675389D01*
X5806010Y-16675389D02*
X5786962Y-16665865D01*
X5786962Y-16665865D02*
X5777438Y-16656341D01*
X5777438Y-16656341D02*
X5767914Y-16637293D01*
X5767914Y-16637293D02*
X5758391Y-16599198D01*
X5758391Y-16599198D02*
X5758391Y-16551579D01*
X5758391Y-16551579D02*
X5767914Y-16513484D01*
X5767914Y-16513484D02*
X5777438Y-16494436D01*
X5777438Y-16494436D02*
X5786962Y-16484913D01*
X5786962Y-16484913D02*
X5806010Y-16475389D01*
X5958391Y-16675389D02*
X5958391Y-16542055D01*
X5958391Y-16561103D02*
X5967914Y-16551579D01*
X5967914Y-16551579D02*
X5986962Y-16542055D01*
X5986962Y-16542055D02*
X6015533Y-16542055D01*
X6015533Y-16542055D02*
X6034581Y-16551579D01*
X6034581Y-16551579D02*
X6044105Y-16570627D01*
X6044105Y-16570627D02*
X6044105Y-16675389D01*
X6044105Y-16570627D02*
X6053629Y-16551579D01*
X6053629Y-16551579D02*
X6072676Y-16542055D01*
X6072676Y-16542055D02*
X6101248Y-16542055D01*
X6101248Y-16542055D02*
X6120295Y-16551579D01*
X6120295Y-16551579D02*
X6129819Y-16570627D01*
X6129819Y-16570627D02*
X6129819Y-16675389D01*
X6225057Y-16675389D02*
X6225057Y-16542055D01*
X6225057Y-16561103D02*
X6234581Y-16551579D01*
X6234581Y-16551579D02*
X6253629Y-16542055D01*
X6253629Y-16542055D02*
X6282200Y-16542055D01*
X6282200Y-16542055D02*
X6301248Y-16551579D01*
X6301248Y-16551579D02*
X6310772Y-16570627D01*
X6310772Y-16570627D02*
X6310772Y-16675389D01*
X6310772Y-16570627D02*
X6320295Y-16551579D01*
X6320295Y-16551579D02*
X6339343Y-16542055D01*
X6339343Y-16542055D02*
X6367914Y-16542055D01*
X6367914Y-16542055D02*
X6386962Y-16551579D01*
X6386962Y-16551579D02*
X6396486Y-16570627D01*
X6396486Y-16570627D02*
X6396486Y-16675389D01*
X6786962Y-16465865D02*
X6615534Y-16723008D01*
X7044105Y-16475389D02*
X7063153Y-16475389D01*
X7063153Y-16475389D02*
X7082200Y-16484913D01*
X7082200Y-16484913D02*
X7091724Y-16494436D01*
X7091724Y-16494436D02*
X7101248Y-16513484D01*
X7101248Y-16513484D02*
X7110772Y-16551579D01*
X7110772Y-16551579D02*
X7110772Y-16599198D01*
X7110772Y-16599198D02*
X7101248Y-16637293D01*
X7101248Y-16637293D02*
X7091724Y-16656341D01*
X7091724Y-16656341D02*
X7082200Y-16665865D01*
X7082200Y-16665865D02*
X7063153Y-16675389D01*
X7063153Y-16675389D02*
X7044105Y-16675389D01*
X7044105Y-16675389D02*
X7025057Y-16665865D01*
X7025057Y-16665865D02*
X7015534Y-16656341D01*
X7015534Y-16656341D02*
X7006010Y-16637293D01*
X7006010Y-16637293D02*
X6996486Y-16599198D01*
X6996486Y-16599198D02*
X6996486Y-16551579D01*
X6996486Y-16551579D02*
X7006010Y-16513484D01*
X7006010Y-16513484D02*
X7015534Y-16494436D01*
X7015534Y-16494436D02*
X7025057Y-16484913D01*
X7025057Y-16484913D02*
X7044105Y-16475389D01*
X7196486Y-16656341D02*
X7206010Y-16665865D01*
X7206010Y-16665865D02*
X7196486Y-16675389D01*
X7196486Y-16675389D02*
X7186962Y-16665865D01*
X7186962Y-16665865D02*
X7196486Y-16656341D01*
X7196486Y-16656341D02*
X7196486Y-16675389D01*
X7329819Y-16475389D02*
X7348867Y-16475389D01*
X7348867Y-16475389D02*
X7367915Y-16484913D01*
X7367915Y-16484913D02*
X7377438Y-16494436D01*
X7377438Y-16494436D02*
X7386962Y-16513484D01*
X7386962Y-16513484D02*
X7396486Y-16551579D01*
X7396486Y-16551579D02*
X7396486Y-16599198D01*
X7396486Y-16599198D02*
X7386962Y-16637293D01*
X7386962Y-16637293D02*
X7377438Y-16656341D01*
X7377438Y-16656341D02*
X7367915Y-16665865D01*
X7367915Y-16665865D02*
X7348867Y-16675389D01*
X7348867Y-16675389D02*
X7329819Y-16675389D01*
X7329819Y-16675389D02*
X7310772Y-16665865D01*
X7310772Y-16665865D02*
X7301248Y-16656341D01*
X7301248Y-16656341D02*
X7291724Y-16637293D01*
X7291724Y-16637293D02*
X7282200Y-16599198D01*
X7282200Y-16599198D02*
X7282200Y-16551579D01*
X7282200Y-16551579D02*
X7291724Y-16513484D01*
X7291724Y-16513484D02*
X7301248Y-16494436D01*
X7301248Y-16494436D02*
X7310772Y-16484913D01*
X7310772Y-16484913D02*
X7329819Y-16475389D01*
X7463153Y-16475389D02*
X7586962Y-16475389D01*
X7586962Y-16475389D02*
X7520295Y-16551579D01*
X7520295Y-16551579D02*
X7548867Y-16551579D01*
X7548867Y-16551579D02*
X7567915Y-16561103D01*
X7567915Y-16561103D02*
X7577438Y-16570627D01*
X7577438Y-16570627D02*
X7586962Y-16589674D01*
X7586962Y-16589674D02*
X7586962Y-16637293D01*
X7586962Y-16637293D02*
X7577438Y-16656341D01*
X7577438Y-16656341D02*
X7567915Y-16665865D01*
X7567915Y-16665865D02*
X7548867Y-16675389D01*
X7548867Y-16675389D02*
X7491724Y-16675389D01*
X7491724Y-16675389D02*
X7472676Y-16665865D01*
X7472676Y-16665865D02*
X7463153Y-16656341D01*
X7682200Y-16675389D02*
X7720295Y-16675389D01*
X7720295Y-16675389D02*
X7739343Y-16665865D01*
X7739343Y-16665865D02*
X7748867Y-16656341D01*
X7748867Y-16656341D02*
X7767915Y-16627770D01*
X7767915Y-16627770D02*
X7777438Y-16589674D01*
X7777438Y-16589674D02*
X7777438Y-16513484D01*
X7777438Y-16513484D02*
X7767915Y-16494436D01*
X7767915Y-16494436D02*
X7758391Y-16484913D01*
X7758391Y-16484913D02*
X7739343Y-16475389D01*
X7739343Y-16475389D02*
X7701248Y-16475389D01*
X7701248Y-16475389D02*
X7682200Y-16484913D01*
X7682200Y-16484913D02*
X7672676Y-16494436D01*
X7672676Y-16494436D02*
X7663153Y-16513484D01*
X7663153Y-16513484D02*
X7663153Y-16561103D01*
X7663153Y-16561103D02*
X7672676Y-16580151D01*
X7672676Y-16580151D02*
X7682200Y-16589674D01*
X7682200Y-16589674D02*
X7701248Y-16599198D01*
X7701248Y-16599198D02*
X7739343Y-16599198D01*
X7739343Y-16599198D02*
X7758391Y-16589674D01*
X7758391Y-16589674D02*
X7767915Y-16580151D01*
X7767915Y-16580151D02*
X7777438Y-16561103D01*
X7948867Y-16542055D02*
X7948867Y-16675389D01*
X7901248Y-16465865D02*
X7853629Y-16608722D01*
X7853629Y-16608722D02*
X7977438Y-16608722D01*
X8044105Y-16475389D02*
X8044105Y-16513484D01*
X8120296Y-16475389D02*
X8120296Y-16513484D01*
X8415534Y-16751579D02*
X8406010Y-16742055D01*
X8406010Y-16742055D02*
X8386962Y-16713484D01*
X8386962Y-16713484D02*
X8377438Y-16694436D01*
X8377438Y-16694436D02*
X8367915Y-16665865D01*
X8367915Y-16665865D02*
X8358391Y-16618246D01*
X8358391Y-16618246D02*
X8358391Y-16580151D01*
X8358391Y-16580151D02*
X8367915Y-16532532D01*
X8367915Y-16532532D02*
X8377438Y-16503960D01*
X8377438Y-16503960D02*
X8386962Y-16484913D01*
X8386962Y-16484913D02*
X8406010Y-16456341D01*
X8406010Y-16456341D02*
X8415534Y-16446817D01*
X8577439Y-16475389D02*
X8539343Y-16475389D01*
X8539343Y-16475389D02*
X8520296Y-16484913D01*
X8520296Y-16484913D02*
X8510772Y-16494436D01*
X8510772Y-16494436D02*
X8491724Y-16523008D01*
X8491724Y-16523008D02*
X8482200Y-16561103D01*
X8482200Y-16561103D02*
X8482200Y-16637293D01*
X8482200Y-16637293D02*
X8491724Y-16656341D01*
X8491724Y-16656341D02*
X8501248Y-16665865D01*
X8501248Y-16665865D02*
X8520296Y-16675389D01*
X8520296Y-16675389D02*
X8558391Y-16675389D01*
X8558391Y-16675389D02*
X8577439Y-16665865D01*
X8577439Y-16665865D02*
X8586962Y-16656341D01*
X8586962Y-16656341D02*
X8596486Y-16637293D01*
X8596486Y-16637293D02*
X8596486Y-16589674D01*
X8596486Y-16589674D02*
X8586962Y-16570627D01*
X8586962Y-16570627D02*
X8577439Y-16561103D01*
X8577439Y-16561103D02*
X8558391Y-16551579D01*
X8558391Y-16551579D02*
X8520296Y-16551579D01*
X8520296Y-16551579D02*
X8501248Y-16561103D01*
X8501248Y-16561103D02*
X8491724Y-16570627D01*
X8491724Y-16570627D02*
X8482200Y-16589674D01*
X8663153Y-16475389D02*
X8796486Y-16475389D01*
X8796486Y-16475389D02*
X8710772Y-16675389D01*
X9025058Y-16675389D02*
X9025058Y-16475389D01*
X9110772Y-16675389D02*
X9110772Y-16570627D01*
X9110772Y-16570627D02*
X9101248Y-16551579D01*
X9101248Y-16551579D02*
X9082201Y-16542055D01*
X9082201Y-16542055D02*
X9053629Y-16542055D01*
X9053629Y-16542055D02*
X9034581Y-16551579D01*
X9034581Y-16551579D02*
X9025058Y-16561103D01*
X9234581Y-16675389D02*
X9215534Y-16665865D01*
X9215534Y-16665865D02*
X9206010Y-16656341D01*
X9206010Y-16656341D02*
X9196486Y-16637293D01*
X9196486Y-16637293D02*
X9196486Y-16580151D01*
X9196486Y-16580151D02*
X9206010Y-16561103D01*
X9206010Y-16561103D02*
X9215534Y-16551579D01*
X9215534Y-16551579D02*
X9234581Y-16542055D01*
X9234581Y-16542055D02*
X9263153Y-16542055D01*
X9263153Y-16542055D02*
X9282201Y-16551579D01*
X9282201Y-16551579D02*
X9291724Y-16561103D01*
X9291724Y-16561103D02*
X9301248Y-16580151D01*
X9301248Y-16580151D02*
X9301248Y-16637293D01*
X9301248Y-16637293D02*
X9291724Y-16656341D01*
X9291724Y-16656341D02*
X9282201Y-16665865D01*
X9282201Y-16665865D02*
X9263153Y-16675389D01*
X9263153Y-16675389D02*
X9234581Y-16675389D01*
X9415534Y-16675389D02*
X9396486Y-16665865D01*
X9396486Y-16665865D02*
X9386962Y-16646817D01*
X9386962Y-16646817D02*
X9386962Y-16475389D01*
X9567915Y-16665865D02*
X9548867Y-16675389D01*
X9548867Y-16675389D02*
X9510772Y-16675389D01*
X9510772Y-16675389D02*
X9491724Y-16665865D01*
X9491724Y-16665865D02*
X9482201Y-16646817D01*
X9482201Y-16646817D02*
X9482201Y-16570627D01*
X9482201Y-16570627D02*
X9491724Y-16551579D01*
X9491724Y-16551579D02*
X9510772Y-16542055D01*
X9510772Y-16542055D02*
X9548867Y-16542055D01*
X9548867Y-16542055D02*
X9567915Y-16551579D01*
X9567915Y-16551579D02*
X9577439Y-16570627D01*
X9577439Y-16570627D02*
X9577439Y-16589674D01*
X9577439Y-16589674D02*
X9482201Y-16608722D01*
X9653629Y-16665865D02*
X9672677Y-16675389D01*
X9672677Y-16675389D02*
X9710772Y-16675389D01*
X9710772Y-16675389D02*
X9729820Y-16665865D01*
X9729820Y-16665865D02*
X9739343Y-16646817D01*
X9739343Y-16646817D02*
X9739343Y-16637293D01*
X9739343Y-16637293D02*
X9729820Y-16618246D01*
X9729820Y-16618246D02*
X9710772Y-16608722D01*
X9710772Y-16608722D02*
X9682201Y-16608722D01*
X9682201Y-16608722D02*
X9663153Y-16599198D01*
X9663153Y-16599198D02*
X9653629Y-16580151D01*
X9653629Y-16580151D02*
X9653629Y-16570627D01*
X9653629Y-16570627D02*
X9663153Y-16551579D01*
X9663153Y-16551579D02*
X9682201Y-16542055D01*
X9682201Y-16542055D02*
X9710772Y-16542055D01*
X9710772Y-16542055D02*
X9729820Y-16551579D01*
X9806010Y-16751579D02*
X9815534Y-16742055D01*
X9815534Y-16742055D02*
X9834582Y-16713484D01*
X9834582Y-16713484D02*
X9844105Y-16694436D01*
X9844105Y-16694436D02*
X9853629Y-16665865D01*
X9853629Y-16665865D02*
X9863153Y-16618246D01*
X9863153Y-16618246D02*
X9863153Y-16580151D01*
X9863153Y-16580151D02*
X9853629Y-16532532D01*
X9853629Y-16532532D02*
X9844105Y-16503960D01*
X9844105Y-16503960D02*
X9834582Y-16484913D01*
X9834582Y-16484913D02*
X9815534Y-16456341D01*
X9815534Y-16456341D02*
X9806010Y-16446817D01*
D13*
X4785471Y-16902905D02*
X4840471Y-16847905D01*
X4785471Y-16792905D01*
X4730471Y-16847905D01*
X4785471Y-16902905D01*
D11*
X5206010Y-16939389D02*
X5091724Y-16939389D01*
X5148867Y-16939389D02*
X5148867Y-16739389D01*
X5148867Y-16739389D02*
X5129819Y-16767960D01*
X5129819Y-16767960D02*
X5110772Y-16787008D01*
X5110772Y-16787008D02*
X5091724Y-16796532D01*
X5291724Y-16920341D02*
X5301248Y-16929865D01*
X5301248Y-16929865D02*
X5291724Y-16939389D01*
X5291724Y-16939389D02*
X5282200Y-16929865D01*
X5282200Y-16929865D02*
X5291724Y-16920341D01*
X5291724Y-16920341D02*
X5291724Y-16939389D01*
X5491724Y-16939389D02*
X5377438Y-16939389D01*
X5434581Y-16939389D02*
X5434581Y-16739389D01*
X5434581Y-16739389D02*
X5415533Y-16767960D01*
X5415533Y-16767960D02*
X5396486Y-16787008D01*
X5396486Y-16787008D02*
X5377438Y-16796532D01*
X5615533Y-16739389D02*
X5634581Y-16739389D01*
X5634581Y-16739389D02*
X5653629Y-16748913D01*
X5653629Y-16748913D02*
X5663152Y-16758436D01*
X5663152Y-16758436D02*
X5672676Y-16777484D01*
X5672676Y-16777484D02*
X5682200Y-16815579D01*
X5682200Y-16815579D02*
X5682200Y-16863198D01*
X5682200Y-16863198D02*
X5672676Y-16901294D01*
X5672676Y-16901294D02*
X5663152Y-16920341D01*
X5663152Y-16920341D02*
X5653629Y-16929865D01*
X5653629Y-16929865D02*
X5634581Y-16939389D01*
X5634581Y-16939389D02*
X5615533Y-16939389D01*
X5615533Y-16939389D02*
X5596486Y-16929865D01*
X5596486Y-16929865D02*
X5586962Y-16920341D01*
X5586962Y-16920341D02*
X5577438Y-16901294D01*
X5577438Y-16901294D02*
X5567914Y-16863198D01*
X5567914Y-16863198D02*
X5567914Y-16815579D01*
X5567914Y-16815579D02*
X5577438Y-16777484D01*
X5577438Y-16777484D02*
X5586962Y-16758436D01*
X5586962Y-16758436D02*
X5596486Y-16748913D01*
X5596486Y-16748913D02*
X5615533Y-16739389D01*
X5806010Y-16739389D02*
X5825057Y-16739389D01*
X5825057Y-16739389D02*
X5844105Y-16748913D01*
X5844105Y-16748913D02*
X5853629Y-16758436D01*
X5853629Y-16758436D02*
X5863152Y-16777484D01*
X5863152Y-16777484D02*
X5872676Y-16815579D01*
X5872676Y-16815579D02*
X5872676Y-16863198D01*
X5872676Y-16863198D02*
X5863152Y-16901294D01*
X5863152Y-16901294D02*
X5853629Y-16920341D01*
X5853629Y-16920341D02*
X5844105Y-16929865D01*
X5844105Y-16929865D02*
X5825057Y-16939389D01*
X5825057Y-16939389D02*
X5806010Y-16939389D01*
X5806010Y-16939389D02*
X5786962Y-16929865D01*
X5786962Y-16929865D02*
X5777438Y-16920341D01*
X5777438Y-16920341D02*
X5767914Y-16901294D01*
X5767914Y-16901294D02*
X5758391Y-16863198D01*
X5758391Y-16863198D02*
X5758391Y-16815579D01*
X5758391Y-16815579D02*
X5767914Y-16777484D01*
X5767914Y-16777484D02*
X5777438Y-16758436D01*
X5777438Y-16758436D02*
X5786962Y-16748913D01*
X5786962Y-16748913D02*
X5806010Y-16739389D01*
X5958391Y-16939389D02*
X5958391Y-16806055D01*
X5958391Y-16825103D02*
X5967914Y-16815579D01*
X5967914Y-16815579D02*
X5986962Y-16806055D01*
X5986962Y-16806055D02*
X6015533Y-16806055D01*
X6015533Y-16806055D02*
X6034581Y-16815579D01*
X6034581Y-16815579D02*
X6044105Y-16834627D01*
X6044105Y-16834627D02*
X6044105Y-16939389D01*
X6044105Y-16834627D02*
X6053629Y-16815579D01*
X6053629Y-16815579D02*
X6072676Y-16806055D01*
X6072676Y-16806055D02*
X6101248Y-16806055D01*
X6101248Y-16806055D02*
X6120295Y-16815579D01*
X6120295Y-16815579D02*
X6129819Y-16834627D01*
X6129819Y-16834627D02*
X6129819Y-16939389D01*
X6225057Y-16939389D02*
X6225057Y-16806055D01*
X6225057Y-16825103D02*
X6234581Y-16815579D01*
X6234581Y-16815579D02*
X6253629Y-16806055D01*
X6253629Y-16806055D02*
X6282200Y-16806055D01*
X6282200Y-16806055D02*
X6301248Y-16815579D01*
X6301248Y-16815579D02*
X6310772Y-16834627D01*
X6310772Y-16834627D02*
X6310772Y-16939389D01*
X6310772Y-16834627D02*
X6320295Y-16815579D01*
X6320295Y-16815579D02*
X6339343Y-16806055D01*
X6339343Y-16806055D02*
X6367914Y-16806055D01*
X6367914Y-16806055D02*
X6386962Y-16815579D01*
X6386962Y-16815579D02*
X6396486Y-16834627D01*
X6396486Y-16834627D02*
X6396486Y-16939389D01*
X6786962Y-16729865D02*
X6615534Y-16987008D01*
X7044105Y-16739389D02*
X7063153Y-16739389D01*
X7063153Y-16739389D02*
X7082200Y-16748913D01*
X7082200Y-16748913D02*
X7091724Y-16758436D01*
X7091724Y-16758436D02*
X7101248Y-16777484D01*
X7101248Y-16777484D02*
X7110772Y-16815579D01*
X7110772Y-16815579D02*
X7110772Y-16863198D01*
X7110772Y-16863198D02*
X7101248Y-16901294D01*
X7101248Y-16901294D02*
X7091724Y-16920341D01*
X7091724Y-16920341D02*
X7082200Y-16929865D01*
X7082200Y-16929865D02*
X7063153Y-16939389D01*
X7063153Y-16939389D02*
X7044105Y-16939389D01*
X7044105Y-16939389D02*
X7025057Y-16929865D01*
X7025057Y-16929865D02*
X7015534Y-16920341D01*
X7015534Y-16920341D02*
X7006010Y-16901294D01*
X7006010Y-16901294D02*
X6996486Y-16863198D01*
X6996486Y-16863198D02*
X6996486Y-16815579D01*
X6996486Y-16815579D02*
X7006010Y-16777484D01*
X7006010Y-16777484D02*
X7015534Y-16758436D01*
X7015534Y-16758436D02*
X7025057Y-16748913D01*
X7025057Y-16748913D02*
X7044105Y-16739389D01*
X7196486Y-16920341D02*
X7206010Y-16929865D01*
X7206010Y-16929865D02*
X7196486Y-16939389D01*
X7196486Y-16939389D02*
X7186962Y-16929865D01*
X7186962Y-16929865D02*
X7196486Y-16920341D01*
X7196486Y-16920341D02*
X7196486Y-16939389D01*
X7329819Y-16739389D02*
X7348867Y-16739389D01*
X7348867Y-16739389D02*
X7367915Y-16748913D01*
X7367915Y-16748913D02*
X7377438Y-16758436D01*
X7377438Y-16758436D02*
X7386962Y-16777484D01*
X7386962Y-16777484D02*
X7396486Y-16815579D01*
X7396486Y-16815579D02*
X7396486Y-16863198D01*
X7396486Y-16863198D02*
X7386962Y-16901294D01*
X7386962Y-16901294D02*
X7377438Y-16920341D01*
X7377438Y-16920341D02*
X7367915Y-16929865D01*
X7367915Y-16929865D02*
X7348867Y-16939389D01*
X7348867Y-16939389D02*
X7329819Y-16939389D01*
X7329819Y-16939389D02*
X7310772Y-16929865D01*
X7310772Y-16929865D02*
X7301248Y-16920341D01*
X7301248Y-16920341D02*
X7291724Y-16901294D01*
X7291724Y-16901294D02*
X7282200Y-16863198D01*
X7282200Y-16863198D02*
X7282200Y-16815579D01*
X7282200Y-16815579D02*
X7291724Y-16777484D01*
X7291724Y-16777484D02*
X7301248Y-16758436D01*
X7301248Y-16758436D02*
X7310772Y-16748913D01*
X7310772Y-16748913D02*
X7329819Y-16739389D01*
X7567915Y-16806055D02*
X7567915Y-16939389D01*
X7520295Y-16729865D02*
X7472676Y-16872722D01*
X7472676Y-16872722D02*
X7596486Y-16872722D01*
X7653629Y-16739389D02*
X7777438Y-16739389D01*
X7777438Y-16739389D02*
X7710772Y-16815579D01*
X7710772Y-16815579D02*
X7739343Y-16815579D01*
X7739343Y-16815579D02*
X7758391Y-16825103D01*
X7758391Y-16825103D02*
X7767915Y-16834627D01*
X7767915Y-16834627D02*
X7777438Y-16853675D01*
X7777438Y-16853675D02*
X7777438Y-16901294D01*
X7777438Y-16901294D02*
X7767915Y-16920341D01*
X7767915Y-16920341D02*
X7758391Y-16929865D01*
X7758391Y-16929865D02*
X7739343Y-16939389D01*
X7739343Y-16939389D02*
X7682200Y-16939389D01*
X7682200Y-16939389D02*
X7663153Y-16929865D01*
X7663153Y-16929865D02*
X7653629Y-16920341D01*
X7844105Y-16739389D02*
X7967915Y-16739389D01*
X7967915Y-16739389D02*
X7901248Y-16815579D01*
X7901248Y-16815579D02*
X7929819Y-16815579D01*
X7929819Y-16815579D02*
X7948867Y-16825103D01*
X7948867Y-16825103D02*
X7958391Y-16834627D01*
X7958391Y-16834627D02*
X7967915Y-16853675D01*
X7967915Y-16853675D02*
X7967915Y-16901294D01*
X7967915Y-16901294D02*
X7958391Y-16920341D01*
X7958391Y-16920341D02*
X7948867Y-16929865D01*
X7948867Y-16929865D02*
X7929819Y-16939389D01*
X7929819Y-16939389D02*
X7872676Y-16939389D01*
X7872676Y-16939389D02*
X7853629Y-16929865D01*
X7853629Y-16929865D02*
X7844105Y-16920341D01*
X8044105Y-16739389D02*
X8044105Y-16777484D01*
X8120296Y-16739389D02*
X8120296Y-16777484D01*
X8415534Y-17015579D02*
X8406010Y-17006055D01*
X8406010Y-17006055D02*
X8386962Y-16977484D01*
X8386962Y-16977484D02*
X8377438Y-16958436D01*
X8377438Y-16958436D02*
X8367915Y-16929865D01*
X8367915Y-16929865D02*
X8358391Y-16882246D01*
X8358391Y-16882246D02*
X8358391Y-16844151D01*
X8358391Y-16844151D02*
X8367915Y-16796532D01*
X8367915Y-16796532D02*
X8377438Y-16767960D01*
X8377438Y-16767960D02*
X8386962Y-16748913D01*
X8386962Y-16748913D02*
X8406010Y-16720341D01*
X8406010Y-16720341D02*
X8415534Y-16710817D01*
X8577439Y-16806055D02*
X8577439Y-16939389D01*
X8529819Y-16729865D02*
X8482200Y-16872722D01*
X8482200Y-16872722D02*
X8606010Y-16872722D01*
X8834581Y-16939389D02*
X8834581Y-16739389D01*
X8920296Y-16939389D02*
X8920296Y-16834627D01*
X8920296Y-16834627D02*
X8910772Y-16815579D01*
X8910772Y-16815579D02*
X8891724Y-16806055D01*
X8891724Y-16806055D02*
X8863153Y-16806055D01*
X8863153Y-16806055D02*
X8844105Y-16815579D01*
X8844105Y-16815579D02*
X8834581Y-16825103D01*
X9044105Y-16939389D02*
X9025058Y-16929865D01*
X9025058Y-16929865D02*
X9015534Y-16920341D01*
X9015534Y-16920341D02*
X9006010Y-16901294D01*
X9006010Y-16901294D02*
X9006010Y-16844151D01*
X9006010Y-16844151D02*
X9015534Y-16825103D01*
X9015534Y-16825103D02*
X9025058Y-16815579D01*
X9025058Y-16815579D02*
X9044105Y-16806055D01*
X9044105Y-16806055D02*
X9072677Y-16806055D01*
X9072677Y-16806055D02*
X9091724Y-16815579D01*
X9091724Y-16815579D02*
X9101248Y-16825103D01*
X9101248Y-16825103D02*
X9110772Y-16844151D01*
X9110772Y-16844151D02*
X9110772Y-16901294D01*
X9110772Y-16901294D02*
X9101248Y-16920341D01*
X9101248Y-16920341D02*
X9091724Y-16929865D01*
X9091724Y-16929865D02*
X9072677Y-16939389D01*
X9072677Y-16939389D02*
X9044105Y-16939389D01*
X9225058Y-16939389D02*
X9206010Y-16929865D01*
X9206010Y-16929865D02*
X9196486Y-16910817D01*
X9196486Y-16910817D02*
X9196486Y-16739389D01*
X9377439Y-16929865D02*
X9358391Y-16939389D01*
X9358391Y-16939389D02*
X9320296Y-16939389D01*
X9320296Y-16939389D02*
X9301248Y-16929865D01*
X9301248Y-16929865D02*
X9291724Y-16910817D01*
X9291724Y-16910817D02*
X9291724Y-16834627D01*
X9291724Y-16834627D02*
X9301248Y-16815579D01*
X9301248Y-16815579D02*
X9320296Y-16806055D01*
X9320296Y-16806055D02*
X9358391Y-16806055D01*
X9358391Y-16806055D02*
X9377439Y-16815579D01*
X9377439Y-16815579D02*
X9386962Y-16834627D01*
X9386962Y-16834627D02*
X9386962Y-16853675D01*
X9386962Y-16853675D02*
X9291724Y-16872722D01*
X9463153Y-16929865D02*
X9482201Y-16939389D01*
X9482201Y-16939389D02*
X9520296Y-16939389D01*
X9520296Y-16939389D02*
X9539343Y-16929865D01*
X9539343Y-16929865D02*
X9548867Y-16910817D01*
X9548867Y-16910817D02*
X9548867Y-16901294D01*
X9548867Y-16901294D02*
X9539343Y-16882246D01*
X9539343Y-16882246D02*
X9520296Y-16872722D01*
X9520296Y-16872722D02*
X9491724Y-16872722D01*
X9491724Y-16872722D02*
X9472677Y-16863198D01*
X9472677Y-16863198D02*
X9463153Y-16844151D01*
X9463153Y-16844151D02*
X9463153Y-16834627D01*
X9463153Y-16834627D02*
X9472677Y-16815579D01*
X9472677Y-16815579D02*
X9491724Y-16806055D01*
X9491724Y-16806055D02*
X9520296Y-16806055D01*
X9520296Y-16806055D02*
X9539343Y-16815579D01*
X9615534Y-17015579D02*
X9625058Y-17006055D01*
X9625058Y-17006055D02*
X9644105Y-16977484D01*
X9644105Y-16977484D02*
X9653629Y-16958436D01*
X9653629Y-16958436D02*
X9663153Y-16929865D01*
X9663153Y-16929865D02*
X9672677Y-16882246D01*
X9672677Y-16882246D02*
X9672677Y-16844151D01*
X9672677Y-16844151D02*
X9663153Y-16796532D01*
X9663153Y-16796532D02*
X9653629Y-16767960D01*
X9653629Y-16767960D02*
X9644105Y-16748913D01*
X9644105Y-16748913D02*
X9625058Y-16720341D01*
X9625058Y-16720341D02*
X9615534Y-16710817D01*
D14*
X4690471Y-17036905D02*
X4840471Y-17186905D01*
X4840471Y-17036905D02*
X4690471Y-17186905D01*
X4840471Y-17111905D02*
G75*
G02*
X4690471Y-17111905I-75000J0D01*
G01*
X4690471Y-17111905D02*
G75*
G02*
X4840471Y-17111905I75000J0D01*
G01*
D11*
X5206010Y-17203389D02*
X5091724Y-17203389D01*
X5148867Y-17203389D02*
X5148867Y-17003389D01*
X5148867Y-17003389D02*
X5129819Y-17031960D01*
X5129819Y-17031960D02*
X5110772Y-17051008D01*
X5110772Y-17051008D02*
X5091724Y-17060532D01*
X5291724Y-17184341D02*
X5301248Y-17193865D01*
X5301248Y-17193865D02*
X5291724Y-17203389D01*
X5291724Y-17203389D02*
X5282200Y-17193865D01*
X5282200Y-17193865D02*
X5291724Y-17184341D01*
X5291724Y-17184341D02*
X5291724Y-17203389D01*
X5482200Y-17003389D02*
X5386962Y-17003389D01*
X5386962Y-17003389D02*
X5377438Y-17098627D01*
X5377438Y-17098627D02*
X5386962Y-17089103D01*
X5386962Y-17089103D02*
X5406010Y-17079579D01*
X5406010Y-17079579D02*
X5453629Y-17079579D01*
X5453629Y-17079579D02*
X5472676Y-17089103D01*
X5472676Y-17089103D02*
X5482200Y-17098627D01*
X5482200Y-17098627D02*
X5491724Y-17117675D01*
X5491724Y-17117675D02*
X5491724Y-17165294D01*
X5491724Y-17165294D02*
X5482200Y-17184341D01*
X5482200Y-17184341D02*
X5472676Y-17193865D01*
X5472676Y-17193865D02*
X5453629Y-17203389D01*
X5453629Y-17203389D02*
X5406010Y-17203389D01*
X5406010Y-17203389D02*
X5386962Y-17193865D01*
X5386962Y-17193865D02*
X5377438Y-17184341D01*
X5615533Y-17003389D02*
X5634581Y-17003389D01*
X5634581Y-17003389D02*
X5653629Y-17012913D01*
X5653629Y-17012913D02*
X5663152Y-17022436D01*
X5663152Y-17022436D02*
X5672676Y-17041484D01*
X5672676Y-17041484D02*
X5682200Y-17079579D01*
X5682200Y-17079579D02*
X5682200Y-17127198D01*
X5682200Y-17127198D02*
X5672676Y-17165294D01*
X5672676Y-17165294D02*
X5663152Y-17184341D01*
X5663152Y-17184341D02*
X5653629Y-17193865D01*
X5653629Y-17193865D02*
X5634581Y-17203389D01*
X5634581Y-17203389D02*
X5615533Y-17203389D01*
X5615533Y-17203389D02*
X5596486Y-17193865D01*
X5596486Y-17193865D02*
X5586962Y-17184341D01*
X5586962Y-17184341D02*
X5577438Y-17165294D01*
X5577438Y-17165294D02*
X5567914Y-17127198D01*
X5567914Y-17127198D02*
X5567914Y-17079579D01*
X5567914Y-17079579D02*
X5577438Y-17041484D01*
X5577438Y-17041484D02*
X5586962Y-17022436D01*
X5586962Y-17022436D02*
X5596486Y-17012913D01*
X5596486Y-17012913D02*
X5615533Y-17003389D01*
X5806010Y-17003389D02*
X5825057Y-17003389D01*
X5825057Y-17003389D02*
X5844105Y-17012913D01*
X5844105Y-17012913D02*
X5853629Y-17022436D01*
X5853629Y-17022436D02*
X5863152Y-17041484D01*
X5863152Y-17041484D02*
X5872676Y-17079579D01*
X5872676Y-17079579D02*
X5872676Y-17127198D01*
X5872676Y-17127198D02*
X5863152Y-17165294D01*
X5863152Y-17165294D02*
X5853629Y-17184341D01*
X5853629Y-17184341D02*
X5844105Y-17193865D01*
X5844105Y-17193865D02*
X5825057Y-17203389D01*
X5825057Y-17203389D02*
X5806010Y-17203389D01*
X5806010Y-17203389D02*
X5786962Y-17193865D01*
X5786962Y-17193865D02*
X5777438Y-17184341D01*
X5777438Y-17184341D02*
X5767914Y-17165294D01*
X5767914Y-17165294D02*
X5758391Y-17127198D01*
X5758391Y-17127198D02*
X5758391Y-17079579D01*
X5758391Y-17079579D02*
X5767914Y-17041484D01*
X5767914Y-17041484D02*
X5777438Y-17022436D01*
X5777438Y-17022436D02*
X5786962Y-17012913D01*
X5786962Y-17012913D02*
X5806010Y-17003389D01*
X5958391Y-17203389D02*
X5958391Y-17070055D01*
X5958391Y-17089103D02*
X5967914Y-17079579D01*
X5967914Y-17079579D02*
X5986962Y-17070055D01*
X5986962Y-17070055D02*
X6015533Y-17070055D01*
X6015533Y-17070055D02*
X6034581Y-17079579D01*
X6034581Y-17079579D02*
X6044105Y-17098627D01*
X6044105Y-17098627D02*
X6044105Y-17203389D01*
X6044105Y-17098627D02*
X6053629Y-17079579D01*
X6053629Y-17079579D02*
X6072676Y-17070055D01*
X6072676Y-17070055D02*
X6101248Y-17070055D01*
X6101248Y-17070055D02*
X6120295Y-17079579D01*
X6120295Y-17079579D02*
X6129819Y-17098627D01*
X6129819Y-17098627D02*
X6129819Y-17203389D01*
X6225057Y-17203389D02*
X6225057Y-17070055D01*
X6225057Y-17089103D02*
X6234581Y-17079579D01*
X6234581Y-17079579D02*
X6253629Y-17070055D01*
X6253629Y-17070055D02*
X6282200Y-17070055D01*
X6282200Y-17070055D02*
X6301248Y-17079579D01*
X6301248Y-17079579D02*
X6310772Y-17098627D01*
X6310772Y-17098627D02*
X6310772Y-17203389D01*
X6310772Y-17098627D02*
X6320295Y-17079579D01*
X6320295Y-17079579D02*
X6339343Y-17070055D01*
X6339343Y-17070055D02*
X6367914Y-17070055D01*
X6367914Y-17070055D02*
X6386962Y-17079579D01*
X6386962Y-17079579D02*
X6396486Y-17098627D01*
X6396486Y-17098627D02*
X6396486Y-17203389D01*
X6786962Y-16993865D02*
X6615534Y-17251008D01*
X7044105Y-17003389D02*
X7063153Y-17003389D01*
X7063153Y-17003389D02*
X7082200Y-17012913D01*
X7082200Y-17012913D02*
X7091724Y-17022436D01*
X7091724Y-17022436D02*
X7101248Y-17041484D01*
X7101248Y-17041484D02*
X7110772Y-17079579D01*
X7110772Y-17079579D02*
X7110772Y-17127198D01*
X7110772Y-17127198D02*
X7101248Y-17165294D01*
X7101248Y-17165294D02*
X7091724Y-17184341D01*
X7091724Y-17184341D02*
X7082200Y-17193865D01*
X7082200Y-17193865D02*
X7063153Y-17203389D01*
X7063153Y-17203389D02*
X7044105Y-17203389D01*
X7044105Y-17203389D02*
X7025057Y-17193865D01*
X7025057Y-17193865D02*
X7015534Y-17184341D01*
X7015534Y-17184341D02*
X7006010Y-17165294D01*
X7006010Y-17165294D02*
X6996486Y-17127198D01*
X6996486Y-17127198D02*
X6996486Y-17079579D01*
X6996486Y-17079579D02*
X7006010Y-17041484D01*
X7006010Y-17041484D02*
X7015534Y-17022436D01*
X7015534Y-17022436D02*
X7025057Y-17012913D01*
X7025057Y-17012913D02*
X7044105Y-17003389D01*
X7196486Y-17184341D02*
X7206010Y-17193865D01*
X7206010Y-17193865D02*
X7196486Y-17203389D01*
X7196486Y-17203389D02*
X7186962Y-17193865D01*
X7186962Y-17193865D02*
X7196486Y-17184341D01*
X7196486Y-17184341D02*
X7196486Y-17203389D01*
X7329819Y-17003389D02*
X7348867Y-17003389D01*
X7348867Y-17003389D02*
X7367915Y-17012913D01*
X7367915Y-17012913D02*
X7377438Y-17022436D01*
X7377438Y-17022436D02*
X7386962Y-17041484D01*
X7386962Y-17041484D02*
X7396486Y-17079579D01*
X7396486Y-17079579D02*
X7396486Y-17127198D01*
X7396486Y-17127198D02*
X7386962Y-17165294D01*
X7386962Y-17165294D02*
X7377438Y-17184341D01*
X7377438Y-17184341D02*
X7367915Y-17193865D01*
X7367915Y-17193865D02*
X7348867Y-17203389D01*
X7348867Y-17203389D02*
X7329819Y-17203389D01*
X7329819Y-17203389D02*
X7310772Y-17193865D01*
X7310772Y-17193865D02*
X7301248Y-17184341D01*
X7301248Y-17184341D02*
X7291724Y-17165294D01*
X7291724Y-17165294D02*
X7282200Y-17127198D01*
X7282200Y-17127198D02*
X7282200Y-17079579D01*
X7282200Y-17079579D02*
X7291724Y-17041484D01*
X7291724Y-17041484D02*
X7301248Y-17022436D01*
X7301248Y-17022436D02*
X7310772Y-17012913D01*
X7310772Y-17012913D02*
X7329819Y-17003389D01*
X7577438Y-17003389D02*
X7482200Y-17003389D01*
X7482200Y-17003389D02*
X7472676Y-17098627D01*
X7472676Y-17098627D02*
X7482200Y-17089103D01*
X7482200Y-17089103D02*
X7501248Y-17079579D01*
X7501248Y-17079579D02*
X7548867Y-17079579D01*
X7548867Y-17079579D02*
X7567915Y-17089103D01*
X7567915Y-17089103D02*
X7577438Y-17098627D01*
X7577438Y-17098627D02*
X7586962Y-17117675D01*
X7586962Y-17117675D02*
X7586962Y-17165294D01*
X7586962Y-17165294D02*
X7577438Y-17184341D01*
X7577438Y-17184341D02*
X7567915Y-17193865D01*
X7567915Y-17193865D02*
X7548867Y-17203389D01*
X7548867Y-17203389D02*
X7501248Y-17203389D01*
X7501248Y-17203389D02*
X7482200Y-17193865D01*
X7482200Y-17193865D02*
X7472676Y-17184341D01*
X7682200Y-17203389D02*
X7720295Y-17203389D01*
X7720295Y-17203389D02*
X7739343Y-17193865D01*
X7739343Y-17193865D02*
X7748867Y-17184341D01*
X7748867Y-17184341D02*
X7767915Y-17155770D01*
X7767915Y-17155770D02*
X7777438Y-17117675D01*
X7777438Y-17117675D02*
X7777438Y-17041484D01*
X7777438Y-17041484D02*
X7767915Y-17022436D01*
X7767915Y-17022436D02*
X7758391Y-17012913D01*
X7758391Y-17012913D02*
X7739343Y-17003389D01*
X7739343Y-17003389D02*
X7701248Y-17003389D01*
X7701248Y-17003389D02*
X7682200Y-17012913D01*
X7682200Y-17012913D02*
X7672676Y-17022436D01*
X7672676Y-17022436D02*
X7663153Y-17041484D01*
X7663153Y-17041484D02*
X7663153Y-17089103D01*
X7663153Y-17089103D02*
X7672676Y-17108151D01*
X7672676Y-17108151D02*
X7682200Y-17117675D01*
X7682200Y-17117675D02*
X7701248Y-17127198D01*
X7701248Y-17127198D02*
X7739343Y-17127198D01*
X7739343Y-17127198D02*
X7758391Y-17117675D01*
X7758391Y-17117675D02*
X7767915Y-17108151D01*
X7767915Y-17108151D02*
X7777438Y-17089103D01*
X7967915Y-17203389D02*
X7853629Y-17203389D01*
X7910772Y-17203389D02*
X7910772Y-17003389D01*
X7910772Y-17003389D02*
X7891724Y-17031960D01*
X7891724Y-17031960D02*
X7872676Y-17051008D01*
X7872676Y-17051008D02*
X7853629Y-17060532D01*
X8044105Y-17003389D02*
X8044105Y-17041484D01*
X8120296Y-17003389D02*
X8120296Y-17041484D01*
X8415534Y-17279579D02*
X8406010Y-17270055D01*
X8406010Y-17270055D02*
X8386962Y-17241484D01*
X8386962Y-17241484D02*
X8377438Y-17222436D01*
X8377438Y-17222436D02*
X8367915Y-17193865D01*
X8367915Y-17193865D02*
X8358391Y-17146246D01*
X8358391Y-17146246D02*
X8358391Y-17108151D01*
X8358391Y-17108151D02*
X8367915Y-17060532D01*
X8367915Y-17060532D02*
X8377438Y-17031960D01*
X8377438Y-17031960D02*
X8386962Y-17012913D01*
X8386962Y-17012913D02*
X8406010Y-16984341D01*
X8406010Y-16984341D02*
X8415534Y-16974817D01*
X8482200Y-17022436D02*
X8491724Y-17012913D01*
X8491724Y-17012913D02*
X8510772Y-17003389D01*
X8510772Y-17003389D02*
X8558391Y-17003389D01*
X8558391Y-17003389D02*
X8577439Y-17012913D01*
X8577439Y-17012913D02*
X8586962Y-17022436D01*
X8586962Y-17022436D02*
X8596486Y-17041484D01*
X8596486Y-17041484D02*
X8596486Y-17060532D01*
X8596486Y-17060532D02*
X8586962Y-17089103D01*
X8586962Y-17089103D02*
X8472677Y-17203389D01*
X8472677Y-17203389D02*
X8596486Y-17203389D01*
X8834581Y-17203389D02*
X8834581Y-17003389D01*
X8920296Y-17203389D02*
X8920296Y-17098627D01*
X8920296Y-17098627D02*
X8910772Y-17079579D01*
X8910772Y-17079579D02*
X8891724Y-17070055D01*
X8891724Y-17070055D02*
X8863153Y-17070055D01*
X8863153Y-17070055D02*
X8844105Y-17079579D01*
X8844105Y-17079579D02*
X8834581Y-17089103D01*
X9044105Y-17203389D02*
X9025058Y-17193865D01*
X9025058Y-17193865D02*
X9015534Y-17184341D01*
X9015534Y-17184341D02*
X9006010Y-17165294D01*
X9006010Y-17165294D02*
X9006010Y-17108151D01*
X9006010Y-17108151D02*
X9015534Y-17089103D01*
X9015534Y-17089103D02*
X9025058Y-17079579D01*
X9025058Y-17079579D02*
X9044105Y-17070055D01*
X9044105Y-17070055D02*
X9072677Y-17070055D01*
X9072677Y-17070055D02*
X9091724Y-17079579D01*
X9091724Y-17079579D02*
X9101248Y-17089103D01*
X9101248Y-17089103D02*
X9110772Y-17108151D01*
X9110772Y-17108151D02*
X9110772Y-17165294D01*
X9110772Y-17165294D02*
X9101248Y-17184341D01*
X9101248Y-17184341D02*
X9091724Y-17193865D01*
X9091724Y-17193865D02*
X9072677Y-17203389D01*
X9072677Y-17203389D02*
X9044105Y-17203389D01*
X9225058Y-17203389D02*
X9206010Y-17193865D01*
X9206010Y-17193865D02*
X9196486Y-17174817D01*
X9196486Y-17174817D02*
X9196486Y-17003389D01*
X9377439Y-17193865D02*
X9358391Y-17203389D01*
X9358391Y-17203389D02*
X9320296Y-17203389D01*
X9320296Y-17203389D02*
X9301248Y-17193865D01*
X9301248Y-17193865D02*
X9291724Y-17174817D01*
X9291724Y-17174817D02*
X9291724Y-17098627D01*
X9291724Y-17098627D02*
X9301248Y-17079579D01*
X9301248Y-17079579D02*
X9320296Y-17070055D01*
X9320296Y-17070055D02*
X9358391Y-17070055D01*
X9358391Y-17070055D02*
X9377439Y-17079579D01*
X9377439Y-17079579D02*
X9386962Y-17098627D01*
X9386962Y-17098627D02*
X9386962Y-17117675D01*
X9386962Y-17117675D02*
X9291724Y-17136722D01*
X9463153Y-17193865D02*
X9482201Y-17203389D01*
X9482201Y-17203389D02*
X9520296Y-17203389D01*
X9520296Y-17203389D02*
X9539343Y-17193865D01*
X9539343Y-17193865D02*
X9548867Y-17174817D01*
X9548867Y-17174817D02*
X9548867Y-17165294D01*
X9548867Y-17165294D02*
X9539343Y-17146246D01*
X9539343Y-17146246D02*
X9520296Y-17136722D01*
X9520296Y-17136722D02*
X9491724Y-17136722D01*
X9491724Y-17136722D02*
X9472677Y-17127198D01*
X9472677Y-17127198D02*
X9463153Y-17108151D01*
X9463153Y-17108151D02*
X9463153Y-17098627D01*
X9463153Y-17098627D02*
X9472677Y-17079579D01*
X9472677Y-17079579D02*
X9491724Y-17070055D01*
X9491724Y-17070055D02*
X9520296Y-17070055D01*
X9520296Y-17070055D02*
X9539343Y-17079579D01*
X9615534Y-17279579D02*
X9625058Y-17270055D01*
X9625058Y-17270055D02*
X9644105Y-17241484D01*
X9644105Y-17241484D02*
X9653629Y-17222436D01*
X9653629Y-17222436D02*
X9663153Y-17193865D01*
X9663153Y-17193865D02*
X9672677Y-17146246D01*
X9672677Y-17146246D02*
X9672677Y-17108151D01*
X9672677Y-17108151D02*
X9663153Y-17060532D01*
X9663153Y-17060532D02*
X9653629Y-17031960D01*
X9653629Y-17031960D02*
X9644105Y-17012913D01*
X9644105Y-17012913D02*
X9625058Y-16984341D01*
X9625058Y-16984341D02*
X9615534Y-16974817D01*
X4640471Y-17281905D02*
X4840471Y-17481905D01*
X4840471Y-17281905D02*
X4640471Y-17481905D01*
X4740471Y-17281905D02*
X4740471Y-17481905D01*
X4640471Y-17381905D02*
X4840471Y-17381905D01*
X5091724Y-17292436D02*
X5101248Y-17282913D01*
X5101248Y-17282913D02*
X5120295Y-17273389D01*
X5120295Y-17273389D02*
X5167914Y-17273389D01*
X5167914Y-17273389D02*
X5186962Y-17282913D01*
X5186962Y-17282913D02*
X5196486Y-17292436D01*
X5196486Y-17292436D02*
X5206010Y-17311484D01*
X5206010Y-17311484D02*
X5206010Y-17330532D01*
X5206010Y-17330532D02*
X5196486Y-17359103D01*
X5196486Y-17359103D02*
X5082200Y-17473389D01*
X5082200Y-17473389D02*
X5206010Y-17473389D01*
X5291724Y-17454341D02*
X5301248Y-17463865D01*
X5301248Y-17463865D02*
X5291724Y-17473389D01*
X5291724Y-17473389D02*
X5282200Y-17463865D01*
X5282200Y-17463865D02*
X5291724Y-17454341D01*
X5291724Y-17454341D02*
X5291724Y-17473389D01*
X5425057Y-17273389D02*
X5444105Y-17273389D01*
X5444105Y-17273389D02*
X5463153Y-17282913D01*
X5463153Y-17282913D02*
X5472676Y-17292436D01*
X5472676Y-17292436D02*
X5482200Y-17311484D01*
X5482200Y-17311484D02*
X5491724Y-17349579D01*
X5491724Y-17349579D02*
X5491724Y-17397198D01*
X5491724Y-17397198D02*
X5482200Y-17435294D01*
X5482200Y-17435294D02*
X5472676Y-17454341D01*
X5472676Y-17454341D02*
X5463153Y-17463865D01*
X5463153Y-17463865D02*
X5444105Y-17473389D01*
X5444105Y-17473389D02*
X5425057Y-17473389D01*
X5425057Y-17473389D02*
X5406010Y-17463865D01*
X5406010Y-17463865D02*
X5396486Y-17454341D01*
X5396486Y-17454341D02*
X5386962Y-17435294D01*
X5386962Y-17435294D02*
X5377438Y-17397198D01*
X5377438Y-17397198D02*
X5377438Y-17349579D01*
X5377438Y-17349579D02*
X5386962Y-17311484D01*
X5386962Y-17311484D02*
X5396486Y-17292436D01*
X5396486Y-17292436D02*
X5406010Y-17282913D01*
X5406010Y-17282913D02*
X5425057Y-17273389D01*
X5615533Y-17273389D02*
X5634581Y-17273389D01*
X5634581Y-17273389D02*
X5653629Y-17282913D01*
X5653629Y-17282913D02*
X5663152Y-17292436D01*
X5663152Y-17292436D02*
X5672676Y-17311484D01*
X5672676Y-17311484D02*
X5682200Y-17349579D01*
X5682200Y-17349579D02*
X5682200Y-17397198D01*
X5682200Y-17397198D02*
X5672676Y-17435294D01*
X5672676Y-17435294D02*
X5663152Y-17454341D01*
X5663152Y-17454341D02*
X5653629Y-17463865D01*
X5653629Y-17463865D02*
X5634581Y-17473389D01*
X5634581Y-17473389D02*
X5615533Y-17473389D01*
X5615533Y-17473389D02*
X5596486Y-17463865D01*
X5596486Y-17463865D02*
X5586962Y-17454341D01*
X5586962Y-17454341D02*
X5577438Y-17435294D01*
X5577438Y-17435294D02*
X5567914Y-17397198D01*
X5567914Y-17397198D02*
X5567914Y-17349579D01*
X5567914Y-17349579D02*
X5577438Y-17311484D01*
X5577438Y-17311484D02*
X5586962Y-17292436D01*
X5586962Y-17292436D02*
X5596486Y-17282913D01*
X5596486Y-17282913D02*
X5615533Y-17273389D01*
X5806010Y-17273389D02*
X5825057Y-17273389D01*
X5825057Y-17273389D02*
X5844105Y-17282913D01*
X5844105Y-17282913D02*
X5853629Y-17292436D01*
X5853629Y-17292436D02*
X5863152Y-17311484D01*
X5863152Y-17311484D02*
X5872676Y-17349579D01*
X5872676Y-17349579D02*
X5872676Y-17397198D01*
X5872676Y-17397198D02*
X5863152Y-17435294D01*
X5863152Y-17435294D02*
X5853629Y-17454341D01*
X5853629Y-17454341D02*
X5844105Y-17463865D01*
X5844105Y-17463865D02*
X5825057Y-17473389D01*
X5825057Y-17473389D02*
X5806010Y-17473389D01*
X5806010Y-17473389D02*
X5786962Y-17463865D01*
X5786962Y-17463865D02*
X5777438Y-17454341D01*
X5777438Y-17454341D02*
X5767914Y-17435294D01*
X5767914Y-17435294D02*
X5758391Y-17397198D01*
X5758391Y-17397198D02*
X5758391Y-17349579D01*
X5758391Y-17349579D02*
X5767914Y-17311484D01*
X5767914Y-17311484D02*
X5777438Y-17292436D01*
X5777438Y-17292436D02*
X5786962Y-17282913D01*
X5786962Y-17282913D02*
X5806010Y-17273389D01*
X5958391Y-17473389D02*
X5958391Y-17340055D01*
X5958391Y-17359103D02*
X5967914Y-17349579D01*
X5967914Y-17349579D02*
X5986962Y-17340055D01*
X5986962Y-17340055D02*
X6015533Y-17340055D01*
X6015533Y-17340055D02*
X6034581Y-17349579D01*
X6034581Y-17349579D02*
X6044105Y-17368627D01*
X6044105Y-17368627D02*
X6044105Y-17473389D01*
X6044105Y-17368627D02*
X6053629Y-17349579D01*
X6053629Y-17349579D02*
X6072676Y-17340055D01*
X6072676Y-17340055D02*
X6101248Y-17340055D01*
X6101248Y-17340055D02*
X6120295Y-17349579D01*
X6120295Y-17349579D02*
X6129819Y-17368627D01*
X6129819Y-17368627D02*
X6129819Y-17473389D01*
X6225057Y-17473389D02*
X6225057Y-17340055D01*
X6225057Y-17359103D02*
X6234581Y-17349579D01*
X6234581Y-17349579D02*
X6253629Y-17340055D01*
X6253629Y-17340055D02*
X6282200Y-17340055D01*
X6282200Y-17340055D02*
X6301248Y-17349579D01*
X6301248Y-17349579D02*
X6310772Y-17368627D01*
X6310772Y-17368627D02*
X6310772Y-17473389D01*
X6310772Y-17368627D02*
X6320295Y-17349579D01*
X6320295Y-17349579D02*
X6339343Y-17340055D01*
X6339343Y-17340055D02*
X6367914Y-17340055D01*
X6367914Y-17340055D02*
X6386962Y-17349579D01*
X6386962Y-17349579D02*
X6396486Y-17368627D01*
X6396486Y-17368627D02*
X6396486Y-17473389D01*
X6786962Y-17263865D02*
X6615534Y-17521008D01*
X7044105Y-17273389D02*
X7063153Y-17273389D01*
X7063153Y-17273389D02*
X7082200Y-17282913D01*
X7082200Y-17282913D02*
X7091724Y-17292436D01*
X7091724Y-17292436D02*
X7101248Y-17311484D01*
X7101248Y-17311484D02*
X7110772Y-17349579D01*
X7110772Y-17349579D02*
X7110772Y-17397198D01*
X7110772Y-17397198D02*
X7101248Y-17435294D01*
X7101248Y-17435294D02*
X7091724Y-17454341D01*
X7091724Y-17454341D02*
X7082200Y-17463865D01*
X7082200Y-17463865D02*
X7063153Y-17473389D01*
X7063153Y-17473389D02*
X7044105Y-17473389D01*
X7044105Y-17473389D02*
X7025057Y-17463865D01*
X7025057Y-17463865D02*
X7015534Y-17454341D01*
X7015534Y-17454341D02*
X7006010Y-17435294D01*
X7006010Y-17435294D02*
X6996486Y-17397198D01*
X6996486Y-17397198D02*
X6996486Y-17349579D01*
X6996486Y-17349579D02*
X7006010Y-17311484D01*
X7006010Y-17311484D02*
X7015534Y-17292436D01*
X7015534Y-17292436D02*
X7025057Y-17282913D01*
X7025057Y-17282913D02*
X7044105Y-17273389D01*
X7196486Y-17454341D02*
X7206010Y-17463865D01*
X7206010Y-17463865D02*
X7196486Y-17473389D01*
X7196486Y-17473389D02*
X7186962Y-17463865D01*
X7186962Y-17463865D02*
X7196486Y-17454341D01*
X7196486Y-17454341D02*
X7196486Y-17473389D01*
X7329819Y-17273389D02*
X7348867Y-17273389D01*
X7348867Y-17273389D02*
X7367915Y-17282913D01*
X7367915Y-17282913D02*
X7377438Y-17292436D01*
X7377438Y-17292436D02*
X7386962Y-17311484D01*
X7386962Y-17311484D02*
X7396486Y-17349579D01*
X7396486Y-17349579D02*
X7396486Y-17397198D01*
X7396486Y-17397198D02*
X7386962Y-17435294D01*
X7386962Y-17435294D02*
X7377438Y-17454341D01*
X7377438Y-17454341D02*
X7367915Y-17463865D01*
X7367915Y-17463865D02*
X7348867Y-17473389D01*
X7348867Y-17473389D02*
X7329819Y-17473389D01*
X7329819Y-17473389D02*
X7310772Y-17463865D01*
X7310772Y-17463865D02*
X7301248Y-17454341D01*
X7301248Y-17454341D02*
X7291724Y-17435294D01*
X7291724Y-17435294D02*
X7282200Y-17397198D01*
X7282200Y-17397198D02*
X7282200Y-17349579D01*
X7282200Y-17349579D02*
X7291724Y-17311484D01*
X7291724Y-17311484D02*
X7301248Y-17292436D01*
X7301248Y-17292436D02*
X7310772Y-17282913D01*
X7310772Y-17282913D02*
X7329819Y-17273389D01*
X7463153Y-17273389D02*
X7596486Y-17273389D01*
X7596486Y-17273389D02*
X7510772Y-17473389D01*
X7701248Y-17359103D02*
X7682200Y-17349579D01*
X7682200Y-17349579D02*
X7672676Y-17340055D01*
X7672676Y-17340055D02*
X7663153Y-17321008D01*
X7663153Y-17321008D02*
X7663153Y-17311484D01*
X7663153Y-17311484D02*
X7672676Y-17292436D01*
X7672676Y-17292436D02*
X7682200Y-17282913D01*
X7682200Y-17282913D02*
X7701248Y-17273389D01*
X7701248Y-17273389D02*
X7739343Y-17273389D01*
X7739343Y-17273389D02*
X7758391Y-17282913D01*
X7758391Y-17282913D02*
X7767915Y-17292436D01*
X7767915Y-17292436D02*
X7777438Y-17311484D01*
X7777438Y-17311484D02*
X7777438Y-17321008D01*
X7777438Y-17321008D02*
X7767915Y-17340055D01*
X7767915Y-17340055D02*
X7758391Y-17349579D01*
X7758391Y-17349579D02*
X7739343Y-17359103D01*
X7739343Y-17359103D02*
X7701248Y-17359103D01*
X7701248Y-17359103D02*
X7682200Y-17368627D01*
X7682200Y-17368627D02*
X7672676Y-17378151D01*
X7672676Y-17378151D02*
X7663153Y-17397198D01*
X7663153Y-17397198D02*
X7663153Y-17435294D01*
X7663153Y-17435294D02*
X7672676Y-17454341D01*
X7672676Y-17454341D02*
X7682200Y-17463865D01*
X7682200Y-17463865D02*
X7701248Y-17473389D01*
X7701248Y-17473389D02*
X7739343Y-17473389D01*
X7739343Y-17473389D02*
X7758391Y-17463865D01*
X7758391Y-17463865D02*
X7767915Y-17454341D01*
X7767915Y-17454341D02*
X7777438Y-17435294D01*
X7777438Y-17435294D02*
X7777438Y-17397198D01*
X7777438Y-17397198D02*
X7767915Y-17378151D01*
X7767915Y-17378151D02*
X7758391Y-17368627D01*
X7758391Y-17368627D02*
X7739343Y-17359103D01*
X7844105Y-17273389D02*
X7977438Y-17273389D01*
X7977438Y-17273389D02*
X7891724Y-17473389D01*
X8044105Y-17273389D02*
X8044105Y-17311484D01*
X8120296Y-17273389D02*
X8120296Y-17311484D01*
X8415534Y-17549579D02*
X8406010Y-17540055D01*
X8406010Y-17540055D02*
X8386962Y-17511484D01*
X8386962Y-17511484D02*
X8377438Y-17492436D01*
X8377438Y-17492436D02*
X8367915Y-17463865D01*
X8367915Y-17463865D02*
X8358391Y-17416246D01*
X8358391Y-17416246D02*
X8358391Y-17378151D01*
X8358391Y-17378151D02*
X8367915Y-17330532D01*
X8367915Y-17330532D02*
X8377438Y-17301960D01*
X8377438Y-17301960D02*
X8386962Y-17282913D01*
X8386962Y-17282913D02*
X8406010Y-17254341D01*
X8406010Y-17254341D02*
X8415534Y-17244817D01*
X8482200Y-17292436D02*
X8491724Y-17282913D01*
X8491724Y-17282913D02*
X8510772Y-17273389D01*
X8510772Y-17273389D02*
X8558391Y-17273389D01*
X8558391Y-17273389D02*
X8577439Y-17282913D01*
X8577439Y-17282913D02*
X8586962Y-17292436D01*
X8586962Y-17292436D02*
X8596486Y-17311484D01*
X8596486Y-17311484D02*
X8596486Y-17330532D01*
X8596486Y-17330532D02*
X8586962Y-17359103D01*
X8586962Y-17359103D02*
X8472677Y-17473389D01*
X8472677Y-17473389D02*
X8596486Y-17473389D01*
X8834581Y-17473389D02*
X8834581Y-17273389D01*
X8920296Y-17473389D02*
X8920296Y-17368627D01*
X8920296Y-17368627D02*
X8910772Y-17349579D01*
X8910772Y-17349579D02*
X8891724Y-17340055D01*
X8891724Y-17340055D02*
X8863153Y-17340055D01*
X8863153Y-17340055D02*
X8844105Y-17349579D01*
X8844105Y-17349579D02*
X8834581Y-17359103D01*
X9044105Y-17473389D02*
X9025058Y-17463865D01*
X9025058Y-17463865D02*
X9015534Y-17454341D01*
X9015534Y-17454341D02*
X9006010Y-17435294D01*
X9006010Y-17435294D02*
X9006010Y-17378151D01*
X9006010Y-17378151D02*
X9015534Y-17359103D01*
X9015534Y-17359103D02*
X9025058Y-17349579D01*
X9025058Y-17349579D02*
X9044105Y-17340055D01*
X9044105Y-17340055D02*
X9072677Y-17340055D01*
X9072677Y-17340055D02*
X9091724Y-17349579D01*
X9091724Y-17349579D02*
X9101248Y-17359103D01*
X9101248Y-17359103D02*
X9110772Y-17378151D01*
X9110772Y-17378151D02*
X9110772Y-17435294D01*
X9110772Y-17435294D02*
X9101248Y-17454341D01*
X9101248Y-17454341D02*
X9091724Y-17463865D01*
X9091724Y-17463865D02*
X9072677Y-17473389D01*
X9072677Y-17473389D02*
X9044105Y-17473389D01*
X9225058Y-17473389D02*
X9206010Y-17463865D01*
X9206010Y-17463865D02*
X9196486Y-17444817D01*
X9196486Y-17444817D02*
X9196486Y-17273389D01*
X9377439Y-17463865D02*
X9358391Y-17473389D01*
X9358391Y-17473389D02*
X9320296Y-17473389D01*
X9320296Y-17473389D02*
X9301248Y-17463865D01*
X9301248Y-17463865D02*
X9291724Y-17444817D01*
X9291724Y-17444817D02*
X9291724Y-17368627D01*
X9291724Y-17368627D02*
X9301248Y-17349579D01*
X9301248Y-17349579D02*
X9320296Y-17340055D01*
X9320296Y-17340055D02*
X9358391Y-17340055D01*
X9358391Y-17340055D02*
X9377439Y-17349579D01*
X9377439Y-17349579D02*
X9386962Y-17368627D01*
X9386962Y-17368627D02*
X9386962Y-17387675D01*
X9386962Y-17387675D02*
X9291724Y-17406722D01*
X9463153Y-17463865D02*
X9482201Y-17473389D01*
X9482201Y-17473389D02*
X9520296Y-17473389D01*
X9520296Y-17473389D02*
X9539343Y-17463865D01*
X9539343Y-17463865D02*
X9548867Y-17444817D01*
X9548867Y-17444817D02*
X9548867Y-17435294D01*
X9548867Y-17435294D02*
X9539343Y-17416246D01*
X9539343Y-17416246D02*
X9520296Y-17406722D01*
X9520296Y-17406722D02*
X9491724Y-17406722D01*
X9491724Y-17406722D02*
X9472677Y-17397198D01*
X9472677Y-17397198D02*
X9463153Y-17378151D01*
X9463153Y-17378151D02*
X9463153Y-17368627D01*
X9463153Y-17368627D02*
X9472677Y-17349579D01*
X9472677Y-17349579D02*
X9491724Y-17340055D01*
X9491724Y-17340055D02*
X9520296Y-17340055D01*
X9520296Y-17340055D02*
X9539343Y-17349579D01*
X9615534Y-17549579D02*
X9625058Y-17540055D01*
X9625058Y-17540055D02*
X9644105Y-17511484D01*
X9644105Y-17511484D02*
X9653629Y-17492436D01*
X9653629Y-17492436D02*
X9663153Y-17463865D01*
X9663153Y-17463865D02*
X9672677Y-17416246D01*
X9672677Y-17416246D02*
X9672677Y-17378151D01*
X9672677Y-17378151D02*
X9663153Y-17330532D01*
X9663153Y-17330532D02*
X9653629Y-17301960D01*
X9653629Y-17301960D02*
X9644105Y-17282913D01*
X9644105Y-17282913D02*
X9625058Y-17254341D01*
X9625058Y-17254341D02*
X9615534Y-17244817D01*
M02*
