G04 #@! TF.GenerationSoftware,KiCad,Pcbnew,8.0.8*
G04 #@! TF.CreationDate,2025-02-15T15:01:55+01:00*
G04 #@! TF.ProjectId,tesi,74657369-2e6b-4696-9361-645f70636258,rev?*
G04 #@! TF.SameCoordinates,Original*
G04 #@! TF.FileFunction,Copper,L1,Top*
G04 #@! TF.FilePolarity,Positive*
%FSLAX46Y46*%
G04 Gerber Fmt 4.6, Leading zero omitted, Abs format (unit mm)*
G04 Created by KiCad (PCBNEW 8.0.8) date 2025-02-15 15:01:55*
%MOMM*%
%LPD*%
G01*
G04 APERTURE LIST*
G04 Aperture macros list*
%AMRoundRect*
0 Rectangle with rounded corners*
0 $1 Rounding radius*
0 $2 $3 $4 $5 $6 $7 $8 $9 X,Y pos of 4 corners*
0 Add a 4 corners polygon primitive as box body*
4,1,4,$2,$3,$4,$5,$6,$7,$8,$9,$2,$3,0*
0 Add four circle primitives for the rounded corners*
1,1,$1+$1,$2,$3*
1,1,$1+$1,$4,$5*
1,1,$1+$1,$6,$7*
1,1,$1+$1,$8,$9*
0 Add four rect primitives between the rounded corners*
20,1,$1+$1,$2,$3,$4,$5,0*
20,1,$1+$1,$4,$5,$6,$7,0*
20,1,$1+$1,$6,$7,$8,$9,0*
20,1,$1+$1,$8,$9,$2,$3,0*%
G04 Aperture macros list end*
G04 #@! TA.AperFunction,ComponentPad*
%ADD10C,1.600000*%
G04 #@! TD*
G04 #@! TA.AperFunction,ComponentPad*
%ADD11O,1.600000X1.600000*%
G04 #@! TD*
G04 #@! TA.AperFunction,ComponentPad*
%ADD12RoundRect,0.250000X-1.050000X-0.550000X1.050000X-0.550000X1.050000X0.550000X-1.050000X0.550000X0*%
G04 #@! TD*
G04 #@! TA.AperFunction,ComponentPad*
%ADD13O,2.600000X1.600000*%
G04 #@! TD*
G04 #@! TA.AperFunction,SMDPad,CuDef*
%ADD14C,8.000000*%
G04 #@! TD*
G04 #@! TA.AperFunction,ComponentPad*
%ADD15R,1.700000X1.700000*%
G04 #@! TD*
G04 #@! TA.AperFunction,ComponentPad*
%ADD16O,1.700000X1.700000*%
G04 #@! TD*
G04 #@! TA.AperFunction,ComponentPad*
%ADD17R,1.200000X1.200000*%
G04 #@! TD*
G04 #@! TA.AperFunction,ComponentPad*
%ADD18C,1.200000*%
G04 #@! TD*
G04 #@! TA.AperFunction,ComponentPad*
%ADD19R,1.800000X1.800000*%
G04 #@! TD*
G04 #@! TA.AperFunction,ComponentPad*
%ADD20C,1.800000*%
G04 #@! TD*
G04 #@! TA.AperFunction,ComponentPad*
%ADD21C,2.000000*%
G04 #@! TD*
G04 #@! TA.AperFunction,ComponentPad*
%ADD22O,3.500000X2.200000*%
G04 #@! TD*
G04 #@! TA.AperFunction,ComponentPad*
%ADD23R,2.500000X1.500000*%
G04 #@! TD*
G04 #@! TA.AperFunction,ComponentPad*
%ADD24O,2.500000X1.500000*%
G04 #@! TD*
G04 #@! TA.AperFunction,ComponentPad*
%ADD25O,4.000000X4.000000*%
G04 #@! TD*
G04 #@! TA.AperFunction,Conductor*
%ADD26C,0.500000*%
G04 #@! TD*
G04 APERTURE END LIST*
D10*
X65640000Y-110800485D03*
X60560000Y-110800485D03*
X63100000Y-110800485D03*
X70750000Y-95800485D03*
X68210000Y-95800485D03*
X73260000Y-110800485D03*
X63130000Y-95800485D03*
X65670000Y-95800485D03*
X68180000Y-110800485D03*
X70720000Y-110800485D03*
X125025505Y-41851626D03*
D11*
X114865505Y-41851626D03*
D12*
X89503759Y-41240485D03*
D13*
X89503759Y-43780485D03*
X89503759Y-46320485D03*
X89503759Y-48860485D03*
X89503759Y-51400485D03*
X89503759Y-53940485D03*
X89503759Y-56480485D03*
X89503759Y-59020485D03*
X89503759Y-61560485D03*
X89503759Y-64100485D03*
X89503759Y-66640485D03*
X89503759Y-69180485D03*
X89503759Y-71720485D03*
X89503759Y-74260485D03*
X89503759Y-76800485D03*
X89503759Y-79340485D03*
X109223759Y-79340485D03*
X109223759Y-76800485D03*
X109223759Y-74260485D03*
X109223759Y-71720485D03*
X109223759Y-69180485D03*
X109223759Y-66640485D03*
X109223759Y-64100485D03*
X109223759Y-61560485D03*
X109223759Y-59020485D03*
X109223759Y-56480485D03*
X109223759Y-53940485D03*
X109223759Y-51400485D03*
D14*
X61461335Y-122498532D03*
D10*
X132900000Y-91431721D03*
D11*
X122740000Y-91431721D03*
X94363759Y-94550485D03*
X96903759Y-94550485D03*
X99443759Y-94550485D03*
X101983759Y-94550485D03*
X104523759Y-94550485D03*
X107063759Y-94550485D03*
X86723759Y-112300485D03*
X89263759Y-112300485D03*
X91803759Y-112300485D03*
X94343759Y-112300485D03*
X96883759Y-112300485D03*
X99423759Y-112300485D03*
X101963759Y-112300485D03*
X104503759Y-112300485D03*
X107043759Y-112300485D03*
X109583759Y-112300485D03*
X112123759Y-112300485D03*
X114663759Y-112300485D03*
D10*
X78160191Y-82800000D03*
X75620191Y-82800000D03*
D14*
X106318435Y-122574832D03*
D10*
X132900000Y-94931721D03*
D11*
X122740000Y-94931721D03*
D14*
X128747035Y-122574832D03*
D10*
X125025505Y-38639304D03*
D11*
X114865505Y-38639304D03*
D14*
X72675635Y-122574832D03*
X117532735Y-122574832D03*
D15*
X74525000Y-60884145D03*
D16*
X77065000Y-60884145D03*
X79605000Y-60884145D03*
D17*
X77050000Y-37954801D03*
D18*
X77050000Y-39954801D03*
D10*
X63850000Y-87090021D03*
X61310000Y-87090021D03*
X58770000Y-87090021D03*
D15*
X137780000Y-91431721D03*
D16*
X140320000Y-91431721D03*
X142860000Y-91431721D03*
X145400000Y-91431721D03*
D15*
X74498431Y-64541586D03*
D16*
X77038431Y-64541586D03*
X79578431Y-64541586D03*
D19*
X130700000Y-38792434D03*
D20*
X130700000Y-40951434D03*
X130700000Y-43110434D03*
X130700000Y-45269434D03*
D21*
X73800000Y-46900000D03*
X80300000Y-46900000D03*
X73800000Y-51400000D03*
X80300000Y-51400000D03*
D15*
X86750000Y-89475000D03*
D16*
X89290000Y-89475000D03*
D22*
X139900000Y-38000000D03*
X139900000Y-46200000D03*
D23*
X139900000Y-40100000D03*
D24*
X139900000Y-42100000D03*
X139900000Y-44100000D03*
D11*
X127740000Y-110727696D03*
X130280000Y-110727696D03*
X132820000Y-110727696D03*
X135360000Y-110727696D03*
X137900000Y-110727696D03*
X140440000Y-110727696D03*
D10*
X71773101Y-89500000D03*
D11*
X81933101Y-89500000D03*
D14*
X83889935Y-122574832D03*
D10*
X125025505Y-45091349D03*
D11*
X114865505Y-45091349D03*
D14*
X95104235Y-122574832D03*
D25*
X56495479Y-53400000D03*
X65995479Y-53400000D03*
D19*
X58745479Y-60900000D03*
D20*
X61245479Y-60900000D03*
X63745479Y-60900000D03*
D14*
X139961335Y-122464432D03*
D26*
X99443759Y-93156241D02*
X99443759Y-94550485D01*
X122671721Y-91500000D02*
X101100000Y-91500000D01*
X101100000Y-91500000D02*
X99443759Y-93156241D01*
X122740000Y-91431721D02*
X122671721Y-91500000D01*
X103600000Y-97200000D02*
X101983759Y-95583759D01*
X101983759Y-95583759D02*
X101983759Y-94550485D01*
X120471721Y-97200000D02*
X103600000Y-97200000D01*
X122740000Y-94931721D02*
X120471721Y-97200000D01*
X69569382Y-114390485D02*
X61461335Y-122498532D01*
X89685921Y-114390485D02*
X69569382Y-114390485D01*
X91803759Y-112272647D02*
X89685921Y-114390485D01*
X94343759Y-112272647D02*
X90125921Y-116490485D01*
X90125921Y-116490485D02*
X78759982Y-116490485D01*
X78759982Y-116490485D02*
X72675635Y-122574832D01*
X96883759Y-112272647D02*
X86581574Y-122574832D01*
X86581574Y-122574832D02*
X83889935Y-122574832D01*
X99423759Y-118255308D02*
X95104235Y-122574832D01*
X99423759Y-112272647D02*
X99423759Y-118255308D01*
X101963759Y-112272647D02*
X101963759Y-118220156D01*
X101963759Y-118220156D02*
X106318435Y-122574832D01*
X114805944Y-122574832D02*
X117532735Y-122574832D01*
X104503759Y-112272647D02*
X114805944Y-122574832D01*
X86750000Y-112274244D02*
X86723759Y-112300485D01*
X86750000Y-89475000D02*
X86750000Y-112274244D01*
X89263759Y-89501241D02*
X89290000Y-89475000D01*
X89263759Y-112300485D02*
X89263759Y-89501241D01*
X107043759Y-112272647D02*
X111461597Y-116690485D01*
X111461597Y-116690485D02*
X122862688Y-116690485D01*
X122862688Y-116690485D02*
X128747035Y-122574832D01*
X111701597Y-114390485D02*
X131887388Y-114390485D01*
X109583759Y-112272647D02*
X111701597Y-114390485D01*
X131887388Y-114390485D02*
X139961335Y-122464432D01*
G04 #@! TA.AperFunction,Conductor*
G36*
X146664363Y-33624581D02*
G01*
X146998262Y-33640987D01*
X147010368Y-33642179D01*
X147338042Y-33690787D01*
X147349941Y-33693154D01*
X147671295Y-33773650D01*
X147682908Y-33777174D01*
X147994807Y-33888774D01*
X148006021Y-33893419D01*
X148305488Y-34035057D01*
X148316213Y-34040790D01*
X148600294Y-34211062D01*
X148600328Y-34211082D01*
X148610443Y-34217840D01*
X148876506Y-34415165D01*
X148885905Y-34422878D01*
X149131352Y-34645338D01*
X149139942Y-34653928D01*
X149184877Y-34703505D01*
X149362400Y-34899369D01*
X149370120Y-34908776D01*
X149567436Y-35174824D01*
X149574197Y-35184941D01*
X149744499Y-35469065D01*
X149750235Y-35479797D01*
X149887168Y-35769312D01*
X149891859Y-35779229D01*
X149896516Y-35790472D01*
X150008114Y-36102359D01*
X150011646Y-36114003D01*
X150092132Y-36435303D01*
X150094507Y-36447238D01*
X150143116Y-36774902D01*
X150144309Y-36787011D01*
X150160686Y-37120237D01*
X150160835Y-37126324D01*
X150160835Y-129120878D01*
X150160685Y-129126966D01*
X150144272Y-129460839D01*
X150143079Y-129472949D01*
X150094468Y-129800603D01*
X150092094Y-129812537D01*
X150011603Y-130133842D01*
X150008071Y-130145487D01*
X149896469Y-130457375D01*
X149891812Y-130468617D01*
X149750188Y-130768043D01*
X149744452Y-130778774D01*
X149574152Y-131062897D01*
X149567391Y-131073014D01*
X149370076Y-131339060D01*
X149362357Y-131348466D01*
X149139908Y-131593901D01*
X149131303Y-131602506D01*
X148885868Y-131824955D01*
X148876462Y-131832674D01*
X148610416Y-132029989D01*
X148600299Y-132036750D01*
X148316176Y-132207051D01*
X148305445Y-132212787D01*
X148006019Y-132354411D01*
X147994777Y-132359068D01*
X147682890Y-132470670D01*
X147671245Y-132474202D01*
X147349939Y-132554693D01*
X147338005Y-132557067D01*
X147010351Y-132605679D01*
X146998241Y-132606872D01*
X146664430Y-132623282D01*
X146658342Y-132623432D01*
X54734833Y-132623432D01*
X54734817Y-132623431D01*
X54664379Y-132623431D01*
X54658296Y-132623282D01*
X54324403Y-132606882D01*
X54312292Y-132605689D01*
X53984639Y-132557088D01*
X53972704Y-132554714D01*
X53651395Y-132474233D01*
X53639750Y-132470701D01*
X53327868Y-132359109D01*
X53316625Y-132354452D01*
X53017182Y-132212827D01*
X53006455Y-132207092D01*
X52722346Y-132036804D01*
X52712228Y-132030043D01*
X52446171Y-131832720D01*
X52436764Y-131825001D01*
X52191326Y-131602548D01*
X52182722Y-131593943D01*
X51960280Y-131348514D01*
X51952560Y-131339107D01*
X51952525Y-131339060D01*
X51755244Y-131073053D01*
X51748484Y-131062937D01*
X51683781Y-130954984D01*
X51578188Y-130778808D01*
X51572456Y-130768084D01*
X51559584Y-130740868D01*
X51430836Y-130468647D01*
X51426180Y-130457405D01*
X51314591Y-130145523D01*
X51311059Y-130133878D01*
X51230579Y-129812568D01*
X51228205Y-129800633D01*
X51227374Y-129795032D01*
X51179606Y-129472975D01*
X51178414Y-129460869D01*
X51165109Y-129189943D01*
X51161983Y-129126292D01*
X51161835Y-129120230D01*
X51161836Y-129077643D01*
X52789235Y-129077643D01*
X52789235Y-129320220D01*
X52820896Y-129560717D01*
X52883682Y-129795036D01*
X52976508Y-130019137D01*
X52976511Y-130019144D01*
X53097799Y-130229221D01*
X53097801Y-130229224D01*
X53097802Y-130229225D01*
X53245468Y-130421668D01*
X53245474Y-130421675D01*
X53416991Y-130593192D01*
X53416997Y-130593197D01*
X53609446Y-130740868D01*
X53819523Y-130862156D01*
X54043635Y-130954986D01*
X54277946Y-131017770D01*
X54458321Y-131041516D01*
X54518446Y-131049432D01*
X54518447Y-131049432D01*
X54761024Y-131049432D01*
X54809123Y-131043099D01*
X55001524Y-131017770D01*
X55235835Y-130954986D01*
X55459947Y-130862156D01*
X55670024Y-130740868D01*
X55862473Y-130593197D01*
X56034000Y-130421670D01*
X56181671Y-130229221D01*
X56302959Y-130019144D01*
X56395789Y-129795032D01*
X56458573Y-129560721D01*
X56490235Y-129320220D01*
X56490235Y-129077644D01*
X56490235Y-129077643D01*
X144789235Y-129077643D01*
X144789235Y-129320220D01*
X144820896Y-129560717D01*
X144883682Y-129795036D01*
X144976508Y-130019137D01*
X144976511Y-130019144D01*
X145097799Y-130229221D01*
X145097801Y-130229224D01*
X145097802Y-130229225D01*
X145245468Y-130421668D01*
X145245474Y-130421675D01*
X145416991Y-130593192D01*
X145416997Y-130593197D01*
X145609446Y-130740868D01*
X145819523Y-130862156D01*
X146043635Y-130954986D01*
X146277946Y-131017770D01*
X146458321Y-131041516D01*
X146518446Y-131049432D01*
X146518447Y-131049432D01*
X146761024Y-131049432D01*
X146809123Y-131043099D01*
X147001524Y-131017770D01*
X147235835Y-130954986D01*
X147459947Y-130862156D01*
X147670024Y-130740868D01*
X147862473Y-130593197D01*
X148034000Y-130421670D01*
X148181671Y-130229221D01*
X148302959Y-130019144D01*
X148395789Y-129795032D01*
X148458573Y-129560721D01*
X148490235Y-129320220D01*
X148490235Y-129077644D01*
X148458573Y-128837143D01*
X148395789Y-128602832D01*
X148302959Y-128378720D01*
X148181671Y-128168643D01*
X148034000Y-127976194D01*
X148033995Y-127976188D01*
X147862478Y-127804671D01*
X147862471Y-127804665D01*
X147670028Y-127656999D01*
X147670027Y-127656998D01*
X147670024Y-127656996D01*
X147459947Y-127535708D01*
X147459940Y-127535705D01*
X147235839Y-127442879D01*
X147001520Y-127380093D01*
X146761024Y-127348432D01*
X146761023Y-127348432D01*
X146518447Y-127348432D01*
X146518446Y-127348432D01*
X146277949Y-127380093D01*
X146043630Y-127442879D01*
X145819529Y-127535705D01*
X145819520Y-127535709D01*
X145609441Y-127656999D01*
X145416998Y-127804665D01*
X145416991Y-127804671D01*
X145245474Y-127976188D01*
X145245468Y-127976195D01*
X145097802Y-128168638D01*
X144976512Y-128378717D01*
X144976508Y-128378726D01*
X144883682Y-128602827D01*
X144820896Y-128837146D01*
X144789235Y-129077643D01*
X56490235Y-129077643D01*
X56458573Y-128837143D01*
X56395789Y-128602832D01*
X56302959Y-128378720D01*
X56181671Y-128168643D01*
X56034000Y-127976194D01*
X56033995Y-127976188D01*
X55862478Y-127804671D01*
X55862471Y-127804665D01*
X55670028Y-127656999D01*
X55670027Y-127656998D01*
X55670024Y-127656996D01*
X55459947Y-127535708D01*
X55459940Y-127535705D01*
X55235839Y-127442879D01*
X55001520Y-127380093D01*
X54761024Y-127348432D01*
X54761023Y-127348432D01*
X54518447Y-127348432D01*
X54518446Y-127348432D01*
X54277949Y-127380093D01*
X54043630Y-127442879D01*
X53819529Y-127535705D01*
X53819520Y-127535709D01*
X53609441Y-127656999D01*
X53416998Y-127804665D01*
X53416991Y-127804671D01*
X53245474Y-127976188D01*
X53245468Y-127976195D01*
X53097802Y-128168638D01*
X52976512Y-128378717D01*
X52976508Y-128378726D01*
X52883682Y-128602827D01*
X52820896Y-128837146D01*
X52789235Y-129077643D01*
X51161836Y-129077643D01*
X51161836Y-129058048D01*
X51161835Y-129058044D01*
X51161835Y-122498532D01*
X56956028Y-122498532D01*
X56975247Y-122914229D01*
X56975247Y-122914234D01*
X56975248Y-122914239D01*
X57032738Y-123326377D01*
X57032740Y-123326385D01*
X57128014Y-123731465D01*
X57260264Y-124126046D01*
X57428345Y-124506709D01*
X57428355Y-124506730D01*
X57630841Y-124870263D01*
X57630844Y-124870267D01*
X57630846Y-124870271D01*
X57866022Y-125213586D01*
X57866024Y-125213588D01*
X57866031Y-125213598D01*
X58103547Y-125499626D01*
X58131873Y-125533738D01*
X58426129Y-125827994D01*
X58426140Y-125828003D01*
X58746268Y-126093835D01*
X58746274Y-126093839D01*
X58746281Y-126093845D01*
X59089596Y-126329021D01*
X59089602Y-126329024D01*
X59089603Y-126329025D01*
X59391925Y-126497417D01*
X59453147Y-126531517D01*
X59625935Y-126607811D01*
X59833820Y-126699602D01*
X59833823Y-126699603D01*
X59833830Y-126699606D01*
X60228399Y-126831852D01*
X60633487Y-126927128D01*
X61045638Y-126984620D01*
X61461335Y-127003839D01*
X61877032Y-126984620D01*
X62289183Y-126927128D01*
X62694271Y-126831852D01*
X63088840Y-126699606D01*
X63469523Y-126531517D01*
X63833074Y-126329021D01*
X64176389Y-126093845D01*
X64496541Y-125827994D01*
X64790797Y-125533738D01*
X65056648Y-125213586D01*
X65291824Y-124870271D01*
X65494320Y-124506720D01*
X65662409Y-124126037D01*
X65794655Y-123731468D01*
X65889931Y-123326380D01*
X65947423Y-122914229D01*
X65966642Y-122498532D01*
X65947423Y-122082835D01*
X65889931Y-121670684D01*
X65794655Y-121265596D01*
X65662409Y-120871027D01*
X65647352Y-120836927D01*
X65494324Y-120490354D01*
X65494320Y-120490344D01*
X65475326Y-120456244D01*
X65291828Y-120126800D01*
X65291826Y-120126798D01*
X65291824Y-120126793D01*
X65291820Y-120126787D01*
X65291815Y-120126779D01*
X65188465Y-119975908D01*
X65166818Y-119909477D01*
X65184523Y-119841887D01*
X65203079Y-119818154D01*
X69843931Y-115177304D01*
X69905254Y-115143819D01*
X69931612Y-115140985D01*
X89759841Y-115140985D01*
X89857383Y-115121581D01*
X89904834Y-115112143D01*
X90041416Y-115055569D01*
X90090650Y-115022671D01*
X90164337Y-114973437D01*
X91512812Y-113624959D01*
X91574133Y-113591476D01*
X91611293Y-113589114D01*
X91672487Y-113594468D01*
X91737555Y-113619921D01*
X91778533Y-113676513D01*
X91782410Y-113746275D01*
X91749359Y-113805677D01*
X89851372Y-115703666D01*
X89790049Y-115737151D01*
X89763691Y-115739985D01*
X78686062Y-115739985D01*
X78541074Y-115768825D01*
X78541068Y-115768827D01*
X78404490Y-115825399D01*
X78404478Y-115825406D01*
X78355251Y-115858298D01*
X78281570Y-115907529D01*
X78281562Y-115907535D01*
X75356015Y-118833082D01*
X75294692Y-118866567D01*
X75225000Y-118861583D01*
X75198260Y-118847702D01*
X75047374Y-118744343D01*
X75047370Y-118744341D01*
X75047366Y-118744338D01*
X74683833Y-118541852D01*
X74683812Y-118541842D01*
X74303149Y-118373761D01*
X73908568Y-118241511D01*
X73503488Y-118146237D01*
X73503480Y-118146235D01*
X73091342Y-118088745D01*
X73091337Y-118088744D01*
X73091332Y-118088744D01*
X72675635Y-118069525D01*
X72259938Y-118088744D01*
X72259932Y-118088744D01*
X72259927Y-118088745D01*
X71847789Y-118146235D01*
X71847781Y-118146237D01*
X71442701Y-118241511D01*
X71048120Y-118373761D01*
X70667457Y-118541842D01*
X70667436Y-118541852D01*
X70303903Y-118744338D01*
X70303897Y-118744342D01*
X69960578Y-118979521D01*
X69960568Y-118979528D01*
X69640440Y-119245360D01*
X69640420Y-119245378D01*
X69346181Y-119539617D01*
X69346163Y-119539637D01*
X69080331Y-119859765D01*
X69080324Y-119859775D01*
X68845145Y-120203094D01*
X68845141Y-120203100D01*
X68642655Y-120566633D01*
X68642645Y-120566654D01*
X68474564Y-120947317D01*
X68342314Y-121341898D01*
X68247040Y-121746978D01*
X68247038Y-121746986D01*
X68189548Y-122159124D01*
X68189548Y-122159126D01*
X68189547Y-122159135D01*
X68170328Y-122574832D01*
X68189547Y-122990529D01*
X68189547Y-122990534D01*
X68189548Y-122990539D01*
X68247038Y-123402677D01*
X68247040Y-123402685D01*
X68342314Y-123807765D01*
X68474564Y-124202346D01*
X68642645Y-124583009D01*
X68642655Y-124583030D01*
X68845141Y-124946563D01*
X68845144Y-124946567D01*
X68845146Y-124946571D01*
X69080322Y-125289886D01*
X69080324Y-125289888D01*
X69080331Y-125289898D01*
X69282804Y-125533726D01*
X69346173Y-125610038D01*
X69640429Y-125904294D01*
X69640440Y-125904303D01*
X69960568Y-126170135D01*
X69960574Y-126170139D01*
X69960581Y-126170145D01*
X70303896Y-126405321D01*
X70303902Y-126405324D01*
X70303903Y-126405325D01*
X70469247Y-126497421D01*
X70667447Y-126607817D01*
X70857788Y-126691861D01*
X71048120Y-126775902D01*
X71048123Y-126775903D01*
X71048130Y-126775906D01*
X71442699Y-126908152D01*
X71847787Y-127003428D01*
X72259938Y-127060920D01*
X72675635Y-127080139D01*
X73091332Y-127060920D01*
X73503483Y-127003428D01*
X73908571Y-126908152D01*
X74303140Y-126775906D01*
X74683823Y-126607817D01*
X75047374Y-126405321D01*
X75390689Y-126170145D01*
X75710841Y-125904294D01*
X76005097Y-125610038D01*
X76270948Y-125289886D01*
X76506124Y-124946571D01*
X76708620Y-124583020D01*
X76876709Y-124202337D01*
X77008955Y-123807768D01*
X77104231Y-123402680D01*
X77161723Y-122990529D01*
X77180942Y-122574832D01*
X77161723Y-122159135D01*
X77104231Y-121746984D01*
X77008955Y-121341896D01*
X76876709Y-120947327D01*
X76827962Y-120836927D01*
X76708624Y-120566654D01*
X76708620Y-120566644D01*
X76534835Y-120254640D01*
X76506128Y-120203100D01*
X76506126Y-120203098D01*
X76506124Y-120203093D01*
X76506117Y-120203083D01*
X76506115Y-120203079D01*
X76402765Y-120052208D01*
X76381118Y-119985777D01*
X76398823Y-119918187D01*
X76417379Y-119894454D01*
X79034531Y-117277304D01*
X79095854Y-117243819D01*
X79122212Y-117240985D01*
X90199841Y-117240985D01*
X90297383Y-117221581D01*
X90344834Y-117212143D01*
X90481416Y-117155569D01*
X90530650Y-117122671D01*
X90604337Y-117073437D01*
X94052813Y-113624959D01*
X94114134Y-113591476D01*
X94151293Y-113589114D01*
X94212487Y-113594468D01*
X94277556Y-113619922D01*
X94318533Y-113676513D01*
X94322410Y-113746275D01*
X94289359Y-113805677D01*
X87895743Y-120199293D01*
X87834420Y-120232778D01*
X87764728Y-120227794D01*
X87708795Y-120185922D01*
X87705762Y-120181689D01*
X87617065Y-120052208D01*
X87485248Y-119859778D01*
X87485242Y-119859771D01*
X87485238Y-119859765D01*
X87219406Y-119539637D01*
X87219397Y-119539626D01*
X86925141Y-119245370D01*
X86833266Y-119169078D01*
X86605001Y-118979528D01*
X86604991Y-118979521D01*
X86604989Y-118979519D01*
X86261674Y-118744343D01*
X86261670Y-118744341D01*
X86261666Y-118744338D01*
X85898133Y-118541852D01*
X85898112Y-118541842D01*
X85517449Y-118373761D01*
X85122868Y-118241511D01*
X84717788Y-118146237D01*
X84717780Y-118146235D01*
X84305642Y-118088745D01*
X84305637Y-118088744D01*
X84305632Y-118088744D01*
X83889935Y-118069525D01*
X83474238Y-118088744D01*
X83474232Y-118088744D01*
X83474227Y-118088745D01*
X83062089Y-118146235D01*
X83062081Y-118146237D01*
X82657001Y-118241511D01*
X82262420Y-118373761D01*
X81881757Y-118541842D01*
X81881736Y-118541852D01*
X81518203Y-118744338D01*
X81518197Y-118744342D01*
X81174878Y-118979521D01*
X81174868Y-118979528D01*
X80854740Y-119245360D01*
X80854720Y-119245378D01*
X80560481Y-119539617D01*
X80560463Y-119539637D01*
X80294631Y-119859765D01*
X80294624Y-119859775D01*
X80059445Y-120203094D01*
X80059441Y-120203100D01*
X79856955Y-120566633D01*
X79856945Y-120566654D01*
X79688864Y-120947317D01*
X79556614Y-121341898D01*
X79461340Y-121746978D01*
X79461338Y-121746986D01*
X79403848Y-122159124D01*
X79403848Y-122159126D01*
X79403847Y-122159135D01*
X79384628Y-122574832D01*
X79403847Y-122990529D01*
X79403847Y-122990534D01*
X79403848Y-122990539D01*
X79461338Y-123402677D01*
X79461340Y-123402685D01*
X79556614Y-123807765D01*
X79688864Y-124202346D01*
X79856945Y-124583009D01*
X79856955Y-124583030D01*
X80059441Y-124946563D01*
X80059444Y-124946567D01*
X80059446Y-124946571D01*
X80294622Y-125289886D01*
X80294624Y-125289888D01*
X80294631Y-125289898D01*
X80497104Y-125533726D01*
X80560473Y-125610038D01*
X80854729Y-125904294D01*
X80854740Y-125904303D01*
X81174868Y-126170135D01*
X81174874Y-126170139D01*
X81174881Y-126170145D01*
X81518196Y-126405321D01*
X81518202Y-126405324D01*
X81518203Y-126405325D01*
X81683547Y-126497421D01*
X81881747Y-126607817D01*
X82072088Y-126691861D01*
X82262420Y-126775902D01*
X82262423Y-126775903D01*
X82262430Y-126775906D01*
X82656999Y-126908152D01*
X83062087Y-127003428D01*
X83474238Y-127060920D01*
X83889935Y-127080139D01*
X84305632Y-127060920D01*
X84717783Y-127003428D01*
X85122871Y-126908152D01*
X85517440Y-126775906D01*
X85898123Y-126607817D01*
X86261674Y-126405321D01*
X86604989Y-126170145D01*
X86925141Y-125904294D01*
X87219397Y-125610038D01*
X87485248Y-125289886D01*
X87720424Y-124946571D01*
X87922920Y-124583020D01*
X88091009Y-124202337D01*
X88223255Y-123807768D01*
X88318531Y-123402680D01*
X88376023Y-122990529D01*
X88395242Y-122574832D01*
X88376023Y-122159135D01*
X88345699Y-121941754D01*
X88355933Y-121872640D01*
X88380826Y-121836946D01*
X96592813Y-113624959D01*
X96654134Y-113591476D01*
X96691293Y-113589114D01*
X96868309Y-113604601D01*
X96883758Y-113605953D01*
X96883759Y-113605953D01*
X96883761Y-113605953D01*
X96942212Y-113600839D01*
X97110451Y-113586120D01*
X97330255Y-113527224D01*
X97536493Y-113431053D01*
X97722898Y-113300532D01*
X97883806Y-113139624D01*
X98014327Y-112953219D01*
X98041377Y-112895209D01*
X98087549Y-112842770D01*
X98154742Y-112823618D01*
X98221624Y-112843833D01*
X98266141Y-112895210D01*
X98293188Y-112953213D01*
X98293191Y-112953219D01*
X98423713Y-113139626D01*
X98584618Y-113300531D01*
X98620380Y-113325571D01*
X98664006Y-113380147D01*
X98673259Y-113427147D01*
X98673259Y-117893078D01*
X98653574Y-117960117D01*
X98636940Y-117980759D01*
X97784616Y-118833082D01*
X97723293Y-118866567D01*
X97653601Y-118861583D01*
X97626858Y-118847701D01*
X97475973Y-118744342D01*
X97475966Y-118744338D01*
X97112433Y-118541852D01*
X97112412Y-118541842D01*
X96731749Y-118373761D01*
X96337168Y-118241511D01*
X95932088Y-118146237D01*
X95932080Y-118146235D01*
X95519942Y-118088745D01*
X95519937Y-118088744D01*
X95519932Y-118088744D01*
X95104235Y-118069525D01*
X94688538Y-118088744D01*
X94688532Y-118088744D01*
X94688527Y-118088745D01*
X94276389Y-118146235D01*
X94276381Y-118146237D01*
X93871301Y-118241511D01*
X93476720Y-118373761D01*
X93096057Y-118541842D01*
X93096036Y-118541852D01*
X92732503Y-118744338D01*
X92732497Y-118744342D01*
X92389178Y-118979521D01*
X92389168Y-118979528D01*
X92069040Y-119245360D01*
X92069020Y-119245378D01*
X91774781Y-119539617D01*
X91774763Y-119539637D01*
X91508931Y-119859765D01*
X91508924Y-119859775D01*
X91273745Y-120203094D01*
X91273741Y-120203100D01*
X91071255Y-120566633D01*
X91071245Y-120566654D01*
X90903164Y-120947317D01*
X90770914Y-121341898D01*
X90675640Y-121746978D01*
X90675638Y-121746986D01*
X90618148Y-122159124D01*
X90618148Y-122159126D01*
X90618147Y-122159135D01*
X90598928Y-122574832D01*
X90618147Y-122990529D01*
X90618147Y-122990534D01*
X90618148Y-122990539D01*
X90675638Y-123402677D01*
X90675640Y-123402685D01*
X90770914Y-123807765D01*
X90903164Y-124202346D01*
X91071245Y-124583009D01*
X91071255Y-124583030D01*
X91273741Y-124946563D01*
X91273744Y-124946567D01*
X91273746Y-124946571D01*
X91508922Y-125289886D01*
X91508924Y-125289888D01*
X91508931Y-125289898D01*
X91711404Y-125533726D01*
X91774773Y-125610038D01*
X92069029Y-125904294D01*
X92069040Y-125904303D01*
X92389168Y-126170135D01*
X92389174Y-126170139D01*
X92389181Y-126170145D01*
X92732496Y-126405321D01*
X92732502Y-126405324D01*
X92732503Y-126405325D01*
X92897847Y-126497421D01*
X93096047Y-126607817D01*
X93286388Y-126691861D01*
X93476720Y-126775902D01*
X93476723Y-126775903D01*
X93476730Y-126775906D01*
X93871299Y-126908152D01*
X94276387Y-127003428D01*
X94688538Y-127060920D01*
X95104235Y-127080139D01*
X95519932Y-127060920D01*
X95932083Y-127003428D01*
X96337171Y-126908152D01*
X96731740Y-126775906D01*
X97112423Y-126607817D01*
X97475974Y-126405321D01*
X97819289Y-126170145D01*
X98139441Y-125904294D01*
X98433697Y-125610038D01*
X98699548Y-125289886D01*
X98934724Y-124946571D01*
X99137220Y-124583020D01*
X99305309Y-124202337D01*
X99437555Y-123807768D01*
X99532831Y-123402680D01*
X99590323Y-122990529D01*
X99609542Y-122574832D01*
X99590323Y-122159135D01*
X99532831Y-121746984D01*
X99437555Y-121341896D01*
X99305309Y-120947327D01*
X99256562Y-120836927D01*
X99137224Y-120566654D01*
X99137220Y-120566644D01*
X98963435Y-120254640D01*
X98934728Y-120203100D01*
X98934727Y-120203099D01*
X98934724Y-120203093D01*
X98831363Y-120052205D01*
X98809718Y-119985775D01*
X98827423Y-119918186D01*
X98845979Y-119894453D01*
X100006710Y-118733724D01*
X100088843Y-118610803D01*
X100145417Y-118474221D01*
X100174259Y-118329226D01*
X100174259Y-118181391D01*
X100174259Y-113427147D01*
X100193944Y-113360108D01*
X100227138Y-113325571D01*
X100262899Y-113300531D01*
X100423804Y-113139626D01*
X100423806Y-113139624D01*
X100554327Y-112953219D01*
X100581377Y-112895209D01*
X100627549Y-112842770D01*
X100694742Y-112823618D01*
X100761624Y-112843833D01*
X100806141Y-112895210D01*
X100833188Y-112953213D01*
X100833191Y-112953219D01*
X100963713Y-113139626D01*
X101124618Y-113300531D01*
X101160380Y-113325571D01*
X101204006Y-113380147D01*
X101213259Y-113427147D01*
X101213259Y-118294074D01*
X101213259Y-118294076D01*
X101213258Y-118294076D01*
X101242099Y-118439063D01*
X101242102Y-118439073D01*
X101298672Y-118575646D01*
X101298673Y-118575647D01*
X101298675Y-118575651D01*
X101322163Y-118610803D01*
X101360405Y-118668038D01*
X101380810Y-118698576D01*
X101380811Y-118698577D01*
X102576685Y-119894450D01*
X102610170Y-119955773D01*
X102605186Y-120025465D01*
X102591304Y-120052207D01*
X102487952Y-120203083D01*
X102487941Y-120203100D01*
X102285455Y-120566633D01*
X102285445Y-120566654D01*
X102117364Y-120947317D01*
X101985114Y-121341898D01*
X101889840Y-121746978D01*
X101889838Y-121746986D01*
X101832348Y-122159124D01*
X101832348Y-122159126D01*
X101832347Y-122159135D01*
X101813128Y-122574832D01*
X101832347Y-122990529D01*
X101832347Y-122990534D01*
X101832348Y-122990539D01*
X101889838Y-123402677D01*
X101889840Y-123402685D01*
X101985114Y-123807765D01*
X102117364Y-124202346D01*
X102285445Y-124583009D01*
X102285455Y-124583030D01*
X102487941Y-124946563D01*
X102487944Y-124946567D01*
X102487946Y-124946571D01*
X102723122Y-125289886D01*
X102723124Y-125289888D01*
X102723131Y-125289898D01*
X102925604Y-125533726D01*
X102988973Y-125610038D01*
X103283229Y-125904294D01*
X103283240Y-125904303D01*
X103603368Y-126170135D01*
X103603374Y-126170139D01*
X103603381Y-126170145D01*
X103946696Y-126405321D01*
X103946702Y-126405324D01*
X103946703Y-126405325D01*
X104112047Y-126497421D01*
X104310247Y-126607817D01*
X104500588Y-126691861D01*
X104690920Y-126775902D01*
X104690923Y-126775903D01*
X104690930Y-126775906D01*
X105085499Y-126908152D01*
X105490587Y-127003428D01*
X105902738Y-127060920D01*
X106318435Y-127080139D01*
X106734132Y-127060920D01*
X107146283Y-127003428D01*
X107551371Y-126908152D01*
X107945940Y-126775906D01*
X108326623Y-126607817D01*
X108690174Y-126405321D01*
X109033489Y-126170145D01*
X109353641Y-125904294D01*
X109647897Y-125610038D01*
X109913748Y-125289886D01*
X110148924Y-124946571D01*
X110351420Y-124583020D01*
X110519509Y-124202337D01*
X110651755Y-123807768D01*
X110747031Y-123402680D01*
X110804523Y-122990529D01*
X110823742Y-122574832D01*
X110804523Y-122159135D01*
X110747031Y-121746984D01*
X110651755Y-121341896D01*
X110519509Y-120947327D01*
X110470762Y-120836927D01*
X110351424Y-120566654D01*
X110351420Y-120566644D01*
X110177635Y-120254640D01*
X110148928Y-120203100D01*
X110148927Y-120203099D01*
X110148924Y-120203093D01*
X109913748Y-119859778D01*
X109913742Y-119859771D01*
X109913738Y-119859765D01*
X109647906Y-119539637D01*
X109647897Y-119539626D01*
X109353641Y-119245370D01*
X109261766Y-119169078D01*
X109033501Y-118979528D01*
X109033491Y-118979521D01*
X109033489Y-118979519D01*
X108690174Y-118744343D01*
X108690170Y-118744341D01*
X108690166Y-118744338D01*
X108326633Y-118541852D01*
X108326612Y-118541842D01*
X107945949Y-118373761D01*
X107551368Y-118241511D01*
X107146288Y-118146237D01*
X107146280Y-118146235D01*
X106734142Y-118088745D01*
X106734137Y-118088744D01*
X106734132Y-118088744D01*
X106318435Y-118069525D01*
X105902738Y-118088744D01*
X105902732Y-118088744D01*
X105902727Y-118088745D01*
X105490589Y-118146235D01*
X105490581Y-118146237D01*
X105085501Y-118241511D01*
X104690920Y-118373761D01*
X104310257Y-118541842D01*
X104310236Y-118541852D01*
X103946703Y-118744338D01*
X103946686Y-118744349D01*
X103795810Y-118847701D01*
X103729379Y-118869347D01*
X103661789Y-118851642D01*
X103638053Y-118833082D01*
X102750578Y-117945607D01*
X102717093Y-117884284D01*
X102714259Y-117857926D01*
X102714259Y-113427147D01*
X102733944Y-113360108D01*
X102767138Y-113325571D01*
X102802899Y-113300531D01*
X102963804Y-113139626D01*
X102963806Y-113139624D01*
X103094327Y-112953219D01*
X103121377Y-112895209D01*
X103167549Y-112842770D01*
X103234742Y-112823618D01*
X103301624Y-112843833D01*
X103346141Y-112895210D01*
X103373188Y-112953213D01*
X103373191Y-112953219D01*
X103503713Y-113139626D01*
X103664617Y-113300530D01*
X103664620Y-113300532D01*
X103851025Y-113431053D01*
X104057263Y-113527224D01*
X104277067Y-113586120D01*
X104438989Y-113600286D01*
X104503757Y-113605953D01*
X104503759Y-113605953D01*
X104503761Y-113605953D01*
X104696218Y-113589115D01*
X104764718Y-113602882D01*
X104794706Y-113624962D01*
X113037535Y-121867791D01*
X113071020Y-121929114D01*
X113072665Y-121972602D01*
X113046648Y-122159124D01*
X113046648Y-122159126D01*
X113046647Y-122159135D01*
X113027428Y-122574832D01*
X113046647Y-122990529D01*
X113046647Y-122990534D01*
X113046648Y-122990539D01*
X113104138Y-123402677D01*
X113104140Y-123402685D01*
X113199414Y-123807765D01*
X113331664Y-124202346D01*
X113499745Y-124583009D01*
X113499755Y-124583030D01*
X113702241Y-124946563D01*
X113702244Y-124946567D01*
X113702246Y-124946571D01*
X113937422Y-125289886D01*
X113937424Y-125289888D01*
X113937431Y-125289898D01*
X114139904Y-125533726D01*
X114203273Y-125610038D01*
X114497529Y-125904294D01*
X114497540Y-125904303D01*
X114817668Y-126170135D01*
X114817674Y-126170139D01*
X114817681Y-126170145D01*
X115160996Y-126405321D01*
X115161002Y-126405324D01*
X115161003Y-126405325D01*
X115326347Y-126497421D01*
X115524547Y-126607817D01*
X115714888Y-126691861D01*
X115905220Y-126775902D01*
X115905223Y-126775903D01*
X115905230Y-126775906D01*
X116299799Y-126908152D01*
X116704887Y-127003428D01*
X117117038Y-127060920D01*
X117532735Y-127080139D01*
X117948432Y-127060920D01*
X118360583Y-127003428D01*
X118765671Y-126908152D01*
X119160240Y-126775906D01*
X119540923Y-126607817D01*
X119904474Y-126405321D01*
X120247789Y-126170145D01*
X120567941Y-125904294D01*
X120862197Y-125610038D01*
X121128048Y-125289886D01*
X121363224Y-124946571D01*
X121565720Y-124583020D01*
X121733809Y-124202337D01*
X121866055Y-123807768D01*
X121961331Y-123402680D01*
X122018823Y-122990529D01*
X122038042Y-122574832D01*
X122018823Y-122159135D01*
X121961331Y-121746984D01*
X121866055Y-121341896D01*
X121733809Y-120947327D01*
X121685062Y-120836927D01*
X121565724Y-120566654D01*
X121565720Y-120566644D01*
X121391935Y-120254640D01*
X121363228Y-120203100D01*
X121363227Y-120203099D01*
X121363224Y-120203093D01*
X121128048Y-119859778D01*
X121128042Y-119859771D01*
X121128038Y-119859765D01*
X120862206Y-119539637D01*
X120862197Y-119539626D01*
X120567941Y-119245370D01*
X120476066Y-119169078D01*
X120247801Y-118979528D01*
X120247791Y-118979521D01*
X120247789Y-118979519D01*
X119904474Y-118744343D01*
X119904470Y-118744341D01*
X119904466Y-118744338D01*
X119540933Y-118541852D01*
X119540912Y-118541842D01*
X119160249Y-118373761D01*
X118765668Y-118241511D01*
X118360588Y-118146237D01*
X118360580Y-118146235D01*
X117948442Y-118088745D01*
X117948437Y-118088744D01*
X117948432Y-118088744D01*
X117532735Y-118069525D01*
X117117038Y-118088744D01*
X117117032Y-118088744D01*
X117117027Y-118088745D01*
X116704889Y-118146235D01*
X116704881Y-118146237D01*
X116299801Y-118241511D01*
X115905220Y-118373761D01*
X115524557Y-118541842D01*
X115524536Y-118541852D01*
X115161003Y-118744338D01*
X115160997Y-118744342D01*
X114817678Y-118979521D01*
X114817668Y-118979528D01*
X114497540Y-119245360D01*
X114497520Y-119245378D01*
X114203281Y-119539617D01*
X114203263Y-119539637D01*
X113937431Y-119859765D01*
X113937424Y-119859775D01*
X113702616Y-120202551D01*
X113648489Y-120246734D01*
X113579068Y-120254640D01*
X113516393Y-120223759D01*
X113512635Y-120220155D01*
X107098157Y-113805677D01*
X107064672Y-113744354D01*
X107069656Y-113674662D01*
X107111528Y-113618729D01*
X107175030Y-113594468D01*
X107236218Y-113589115D01*
X107304718Y-113602882D01*
X107334705Y-113624961D01*
X110878645Y-117168900D01*
X110878646Y-117168901D01*
X110950730Y-117240985D01*
X110983182Y-117273437D01*
X111106095Y-117355565D01*
X111106108Y-117355572D01*
X111242679Y-117412141D01*
X111242684Y-117412143D01*
X111242688Y-117412143D01*
X111242689Y-117412144D01*
X111387676Y-117440985D01*
X111387679Y-117440985D01*
X122500458Y-117440985D01*
X122567497Y-117460670D01*
X122588139Y-117477304D01*
X123809412Y-118698577D01*
X125005285Y-119894449D01*
X125038770Y-119955772D01*
X125033786Y-120025464D01*
X125019904Y-120052206D01*
X124916552Y-120203083D01*
X124916541Y-120203100D01*
X124714055Y-120566633D01*
X124714045Y-120566654D01*
X124545964Y-120947317D01*
X124413714Y-121341898D01*
X124318440Y-121746978D01*
X124318438Y-121746986D01*
X124260948Y-122159124D01*
X124260948Y-122159126D01*
X124260947Y-122159135D01*
X124241728Y-122574832D01*
X124260947Y-122990529D01*
X124260947Y-122990534D01*
X124260948Y-122990539D01*
X124318438Y-123402677D01*
X124318440Y-123402685D01*
X124413714Y-123807765D01*
X124545964Y-124202346D01*
X124714045Y-124583009D01*
X124714055Y-124583030D01*
X124916541Y-124946563D01*
X124916544Y-124946567D01*
X124916546Y-124946571D01*
X125151722Y-125289886D01*
X125151724Y-125289888D01*
X125151731Y-125289898D01*
X125354204Y-125533726D01*
X125417573Y-125610038D01*
X125711829Y-125904294D01*
X125711840Y-125904303D01*
X126031968Y-126170135D01*
X126031974Y-126170139D01*
X126031981Y-126170145D01*
X126375296Y-126405321D01*
X126375302Y-126405324D01*
X126375303Y-126405325D01*
X126540647Y-126497421D01*
X126738847Y-126607817D01*
X126929188Y-126691861D01*
X127119520Y-126775902D01*
X127119523Y-126775903D01*
X127119530Y-126775906D01*
X127514099Y-126908152D01*
X127919187Y-127003428D01*
X128331338Y-127060920D01*
X128747035Y-127080139D01*
X129162732Y-127060920D01*
X129574883Y-127003428D01*
X129979971Y-126908152D01*
X130374540Y-126775906D01*
X130755223Y-126607817D01*
X131118774Y-126405321D01*
X131462089Y-126170145D01*
X131782241Y-125904294D01*
X132076497Y-125610038D01*
X132342348Y-125289886D01*
X132577524Y-124946571D01*
X132780020Y-124583020D01*
X132948109Y-124202337D01*
X133080355Y-123807768D01*
X133175631Y-123402680D01*
X133233123Y-122990529D01*
X133252342Y-122574832D01*
X133233123Y-122159135D01*
X133175631Y-121746984D01*
X133080355Y-121341896D01*
X132948109Y-120947327D01*
X132899362Y-120836927D01*
X132780024Y-120566654D01*
X132780020Y-120566644D01*
X132606235Y-120254640D01*
X132577528Y-120203100D01*
X132577527Y-120203099D01*
X132577524Y-120203093D01*
X132342348Y-119859778D01*
X132342342Y-119859771D01*
X132342338Y-119859765D01*
X132076506Y-119539637D01*
X132076497Y-119539626D01*
X131782241Y-119245370D01*
X131690366Y-119169078D01*
X131462101Y-118979528D01*
X131462091Y-118979521D01*
X131462089Y-118979519D01*
X131118774Y-118744343D01*
X131118770Y-118744341D01*
X131118766Y-118744338D01*
X130755233Y-118541852D01*
X130755212Y-118541842D01*
X130374549Y-118373761D01*
X129979968Y-118241511D01*
X129574888Y-118146237D01*
X129574880Y-118146235D01*
X129162742Y-118088745D01*
X129162737Y-118088744D01*
X129162732Y-118088744D01*
X128747035Y-118069525D01*
X128331338Y-118088744D01*
X128331332Y-118088744D01*
X128331327Y-118088745D01*
X127919189Y-118146235D01*
X127919181Y-118146237D01*
X127514101Y-118241511D01*
X127119520Y-118373761D01*
X126738857Y-118541842D01*
X126738836Y-118541852D01*
X126375303Y-118744338D01*
X126375286Y-118744349D01*
X126224409Y-118847701D01*
X126157977Y-118869347D01*
X126090388Y-118851642D01*
X126066652Y-118833082D01*
X123341109Y-116107537D01*
X123341102Y-116107531D01*
X123267417Y-116058297D01*
X123267417Y-116058298D01*
X123218179Y-116025398D01*
X123081605Y-115968828D01*
X123081595Y-115968825D01*
X122936608Y-115939985D01*
X122936606Y-115939985D01*
X111823826Y-115939985D01*
X111756787Y-115920300D01*
X111736145Y-115903666D01*
X109638157Y-113805677D01*
X109604672Y-113744354D01*
X109609656Y-113674662D01*
X109651528Y-113618729D01*
X109715030Y-113594468D01*
X109776218Y-113589115D01*
X109844718Y-113602882D01*
X109874706Y-113624962D01*
X111223177Y-114973433D01*
X111223181Y-114973436D01*
X111346095Y-115055565D01*
X111346108Y-115055572D01*
X111482679Y-115112141D01*
X111482684Y-115112143D01*
X111482688Y-115112143D01*
X111482689Y-115112144D01*
X111627676Y-115140985D01*
X111627679Y-115140985D01*
X111775514Y-115140985D01*
X131525158Y-115140985D01*
X131592197Y-115160670D01*
X131612839Y-115177304D01*
X136219585Y-119784049D01*
X136253070Y-119845372D01*
X136248086Y-119915064D01*
X136234204Y-119941806D01*
X136130852Y-120092683D01*
X136130841Y-120092700D01*
X135928355Y-120456233D01*
X135928345Y-120456254D01*
X135760264Y-120836917D01*
X135628014Y-121231498D01*
X135532740Y-121636578D01*
X135532738Y-121636586D01*
X135475248Y-122048724D01*
X135475247Y-122048729D01*
X135475247Y-122048735D01*
X135456028Y-122464432D01*
X135475247Y-122880129D01*
X135475247Y-122880134D01*
X135475248Y-122880139D01*
X135532738Y-123292277D01*
X135532740Y-123292285D01*
X135628014Y-123697365D01*
X135760264Y-124091946D01*
X135928345Y-124472609D01*
X135928355Y-124472630D01*
X136130841Y-124836163D01*
X136130844Y-124836167D01*
X136130846Y-124836171D01*
X136366022Y-125179486D01*
X136366024Y-125179488D01*
X136366031Y-125179498D01*
X136631863Y-125499626D01*
X136631873Y-125499638D01*
X136926129Y-125793894D01*
X136926140Y-125793903D01*
X137246268Y-126059735D01*
X137246274Y-126059739D01*
X137246281Y-126059745D01*
X137589596Y-126294921D01*
X137589602Y-126294924D01*
X137589603Y-126294925D01*
X137787802Y-126405321D01*
X137953147Y-126497417D01*
X138030376Y-126531517D01*
X138333820Y-126665502D01*
X138333823Y-126665503D01*
X138333830Y-126665506D01*
X138728399Y-126797752D01*
X139133487Y-126893028D01*
X139545638Y-126950520D01*
X139961335Y-126969739D01*
X140377032Y-126950520D01*
X140789183Y-126893028D01*
X141194271Y-126797752D01*
X141588840Y-126665506D01*
X141969523Y-126497417D01*
X142333074Y-126294921D01*
X142676389Y-126059745D01*
X142996541Y-125793894D01*
X143290797Y-125499638D01*
X143556648Y-125179486D01*
X143791824Y-124836171D01*
X143994320Y-124472620D01*
X144162409Y-124091937D01*
X144294655Y-123697368D01*
X144389931Y-123292280D01*
X144447423Y-122880129D01*
X144466642Y-122464432D01*
X144447423Y-122048735D01*
X144389931Y-121636584D01*
X144294655Y-121231496D01*
X144162409Y-120836927D01*
X143994320Y-120456244D01*
X143853308Y-120203079D01*
X143791828Y-120092700D01*
X143791827Y-120092699D01*
X143791824Y-120092693D01*
X143556648Y-119749378D01*
X143556642Y-119749371D01*
X143556638Y-119749365D01*
X143290806Y-119429237D01*
X143290797Y-119429226D01*
X142996541Y-119134970D01*
X142996529Y-119134960D01*
X142676401Y-118869128D01*
X142676391Y-118869121D01*
X142676389Y-118869119D01*
X142333074Y-118633943D01*
X142333070Y-118633941D01*
X142333066Y-118633938D01*
X141969533Y-118431452D01*
X141969512Y-118431442D01*
X141588849Y-118263361D01*
X141194268Y-118131111D01*
X140789188Y-118035837D01*
X140789180Y-118035835D01*
X140377042Y-117978345D01*
X140377037Y-117978344D01*
X140377032Y-117978344D01*
X139961335Y-117959125D01*
X139545638Y-117978344D01*
X139545632Y-117978344D01*
X139545627Y-117978345D01*
X139133489Y-118035835D01*
X139133481Y-118035837D01*
X138728401Y-118131111D01*
X138333820Y-118263361D01*
X137953157Y-118431442D01*
X137953136Y-118431452D01*
X137589603Y-118633938D01*
X137589586Y-118633949D01*
X137438709Y-118737301D01*
X137372277Y-118758947D01*
X137304688Y-118741242D01*
X137280952Y-118722682D01*
X132365809Y-113807537D01*
X132365802Y-113807531D01*
X132292117Y-113758297D01*
X132292117Y-113758298D01*
X132242879Y-113725398D01*
X132106305Y-113668828D01*
X132106295Y-113668825D01*
X131961308Y-113639985D01*
X131961306Y-113639985D01*
X115411384Y-113639985D01*
X115344345Y-113620300D01*
X115298590Y-113567496D01*
X115288646Y-113498338D01*
X115317671Y-113434782D01*
X115340257Y-113414412D01*
X115502898Y-113300532D01*
X115663806Y-113139624D01*
X115794327Y-112953219D01*
X115890498Y-112746981D01*
X115949394Y-112527177D01*
X115969227Y-112300485D01*
X115949394Y-112073793D01*
X115897336Y-111879509D01*
X115890500Y-111853996D01*
X115890497Y-111853987D01*
X115794327Y-111647752D01*
X115794326Y-111647750D01*
X115737669Y-111566835D01*
X115663806Y-111461346D01*
X115663804Y-111461343D01*
X115502900Y-111300439D01*
X115316493Y-111169917D01*
X115316491Y-111169916D01*
X115110256Y-111073746D01*
X115110247Y-111073743D01*
X114890456Y-111014851D01*
X114890452Y-111014850D01*
X114890451Y-111014850D01*
X114890450Y-111014849D01*
X114890445Y-111014849D01*
X114663761Y-110995017D01*
X114663757Y-110995017D01*
X114437072Y-111014849D01*
X114437061Y-111014851D01*
X114217270Y-111073743D01*
X114217261Y-111073746D01*
X114011026Y-111169916D01*
X114011024Y-111169917D01*
X113824617Y-111300439D01*
X113663713Y-111461343D01*
X113533191Y-111647750D01*
X113533190Y-111647752D01*
X113506141Y-111705760D01*
X113459968Y-111758199D01*
X113392775Y-111777351D01*
X113325894Y-111757135D01*
X113281377Y-111705760D01*
X113254327Y-111647752D01*
X113254326Y-111647750D01*
X113197669Y-111566835D01*
X113123806Y-111461346D01*
X113123804Y-111461343D01*
X112962900Y-111300439D01*
X112776493Y-111169917D01*
X112776491Y-111169916D01*
X112570256Y-111073746D01*
X112570247Y-111073743D01*
X112350456Y-111014851D01*
X112350452Y-111014850D01*
X112350451Y-111014850D01*
X112350450Y-111014849D01*
X112350445Y-111014849D01*
X112123761Y-110995017D01*
X112123757Y-110995017D01*
X111897072Y-111014849D01*
X111897061Y-111014851D01*
X111677270Y-111073743D01*
X111677261Y-111073746D01*
X111471026Y-111169916D01*
X111471024Y-111169917D01*
X111284617Y-111300439D01*
X111123713Y-111461343D01*
X110993191Y-111647750D01*
X110993190Y-111647752D01*
X110966141Y-111705760D01*
X110919968Y-111758199D01*
X110852775Y-111777351D01*
X110785894Y-111757135D01*
X110741377Y-111705760D01*
X110714327Y-111647752D01*
X110714326Y-111647750D01*
X110657669Y-111566835D01*
X110583806Y-111461346D01*
X110583804Y-111461343D01*
X110422900Y-111300439D01*
X110236493Y-111169917D01*
X110236491Y-111169916D01*
X110030256Y-111073746D01*
X110030247Y-111073743D01*
X109810456Y-111014851D01*
X109810452Y-111014850D01*
X109810451Y-111014850D01*
X109810450Y-111014849D01*
X109810445Y-111014849D01*
X109583761Y-110995017D01*
X109583757Y-110995017D01*
X109357072Y-111014849D01*
X109357061Y-111014851D01*
X109137270Y-111073743D01*
X109137261Y-111073746D01*
X108931026Y-111169916D01*
X108931024Y-111169917D01*
X108744617Y-111300439D01*
X108583713Y-111461343D01*
X108453191Y-111647750D01*
X108453190Y-111647752D01*
X108426141Y-111705760D01*
X108379968Y-111758199D01*
X108312775Y-111777351D01*
X108245894Y-111757135D01*
X108201377Y-111705760D01*
X108174327Y-111647752D01*
X108174326Y-111647750D01*
X108117669Y-111566835D01*
X108043806Y-111461346D01*
X108043804Y-111461343D01*
X107882900Y-111300439D01*
X107696493Y-111169917D01*
X107696491Y-111169916D01*
X107490256Y-111073746D01*
X107490247Y-111073743D01*
X107270456Y-111014851D01*
X107270452Y-111014850D01*
X107270451Y-111014850D01*
X107270450Y-111014849D01*
X107270445Y-111014849D01*
X107043761Y-110995017D01*
X107043757Y-110995017D01*
X106817072Y-111014849D01*
X106817061Y-111014851D01*
X106597270Y-111073743D01*
X106597261Y-111073746D01*
X106391026Y-111169916D01*
X106391024Y-111169917D01*
X106204617Y-111300439D01*
X106043713Y-111461343D01*
X105913191Y-111647750D01*
X105913190Y-111647752D01*
X105886141Y-111705760D01*
X105839968Y-111758199D01*
X105772775Y-111777351D01*
X105705894Y-111757135D01*
X105661377Y-111705760D01*
X105634327Y-111647752D01*
X105634326Y-111647750D01*
X105577669Y-111566835D01*
X105503806Y-111461346D01*
X105503804Y-111461343D01*
X105342900Y-111300439D01*
X105156493Y-111169917D01*
X105156491Y-111169916D01*
X104950256Y-111073746D01*
X104950247Y-111073743D01*
X104730456Y-111014851D01*
X104730452Y-111014850D01*
X104730451Y-111014850D01*
X104730450Y-111014849D01*
X104730445Y-111014849D01*
X104503761Y-110995017D01*
X104503757Y-110995017D01*
X104277072Y-111014849D01*
X104277061Y-111014851D01*
X104057270Y-111073743D01*
X104057261Y-111073746D01*
X103851026Y-111169916D01*
X103851024Y-111169917D01*
X103664617Y-111300439D01*
X103503713Y-111461343D01*
X103373191Y-111647750D01*
X103373190Y-111647752D01*
X103346141Y-111705760D01*
X103299968Y-111758199D01*
X103232775Y-111777351D01*
X103165894Y-111757135D01*
X103121377Y-111705760D01*
X103094327Y-111647752D01*
X103094326Y-111647750D01*
X103037669Y-111566835D01*
X102963806Y-111461346D01*
X102963804Y-111461343D01*
X102802900Y-111300439D01*
X102616493Y-111169917D01*
X102616491Y-111169916D01*
X102410256Y-111073746D01*
X102410247Y-111073743D01*
X102190456Y-111014851D01*
X102190452Y-111014850D01*
X102190451Y-111014850D01*
X102190450Y-111014849D01*
X102190445Y-111014849D01*
X101963761Y-110995017D01*
X101963757Y-110995017D01*
X101737072Y-111014849D01*
X101737061Y-111014851D01*
X101517270Y-111073743D01*
X101517261Y-111073746D01*
X101311026Y-111169916D01*
X101311024Y-111169917D01*
X101124617Y-111300439D01*
X100963713Y-111461343D01*
X100833191Y-111647750D01*
X100833190Y-111647752D01*
X100806141Y-111705760D01*
X100759968Y-111758199D01*
X100692775Y-111777351D01*
X100625894Y-111757135D01*
X100581377Y-111705760D01*
X100554327Y-111647752D01*
X100554326Y-111647750D01*
X100497669Y-111566835D01*
X100423806Y-111461346D01*
X100423804Y-111461343D01*
X100262900Y-111300439D01*
X100076493Y-111169917D01*
X100076491Y-111169916D01*
X99870256Y-111073746D01*
X99870247Y-111073743D01*
X99650456Y-111014851D01*
X99650452Y-111014850D01*
X99650451Y-111014850D01*
X99650450Y-111014849D01*
X99650445Y-111014849D01*
X99423761Y-110995017D01*
X99423757Y-110995017D01*
X99197072Y-111014849D01*
X99197061Y-111014851D01*
X98977270Y-111073743D01*
X98977261Y-111073746D01*
X98771026Y-111169916D01*
X98771024Y-111169917D01*
X98584617Y-111300439D01*
X98423713Y-111461343D01*
X98293191Y-111647750D01*
X98293190Y-111647752D01*
X98266141Y-111705760D01*
X98219968Y-111758199D01*
X98152775Y-111777351D01*
X98085894Y-111757135D01*
X98041377Y-111705760D01*
X98014327Y-111647752D01*
X98014326Y-111647750D01*
X97957669Y-111566835D01*
X97883806Y-111461346D01*
X97883804Y-111461343D01*
X97722900Y-111300439D01*
X97536493Y-111169917D01*
X97536491Y-111169916D01*
X97330256Y-111073746D01*
X97330247Y-111073743D01*
X97110456Y-111014851D01*
X97110452Y-111014850D01*
X97110451Y-111014850D01*
X97110450Y-111014849D01*
X97110445Y-111014849D01*
X96883761Y-110995017D01*
X96883757Y-110995017D01*
X96657072Y-111014849D01*
X96657061Y-111014851D01*
X96437270Y-111073743D01*
X96437261Y-111073746D01*
X96231026Y-111169916D01*
X96231024Y-111169917D01*
X96044617Y-111300439D01*
X95883713Y-111461343D01*
X95753191Y-111647750D01*
X95753190Y-111647752D01*
X95726141Y-111705760D01*
X95679968Y-111758199D01*
X95612775Y-111777351D01*
X95545894Y-111757135D01*
X95501377Y-111705760D01*
X95474327Y-111647752D01*
X95474326Y-111647750D01*
X95417669Y-111566835D01*
X95343806Y-111461346D01*
X95343804Y-111461343D01*
X95182900Y-111300439D01*
X94996493Y-111169917D01*
X94996491Y-111169916D01*
X94790256Y-111073746D01*
X94790247Y-111073743D01*
X94570456Y-111014851D01*
X94570452Y-111014850D01*
X94570451Y-111014850D01*
X94570450Y-111014849D01*
X94570445Y-111014849D01*
X94343761Y-110995017D01*
X94343757Y-110995017D01*
X94117072Y-111014849D01*
X94117061Y-111014851D01*
X93897270Y-111073743D01*
X93897261Y-111073746D01*
X93691026Y-111169916D01*
X93691024Y-111169917D01*
X93504617Y-111300439D01*
X93343713Y-111461343D01*
X93213191Y-111647750D01*
X93213190Y-111647752D01*
X93186141Y-111705760D01*
X93139968Y-111758199D01*
X93072775Y-111777351D01*
X93005894Y-111757135D01*
X92961377Y-111705760D01*
X92934327Y-111647752D01*
X92934326Y-111647750D01*
X92877669Y-111566835D01*
X92803806Y-111461346D01*
X92803804Y-111461343D01*
X92642900Y-111300439D01*
X92456493Y-111169917D01*
X92456491Y-111169916D01*
X92250256Y-111073746D01*
X92250247Y-111073743D01*
X92030456Y-111014851D01*
X92030452Y-111014850D01*
X92030451Y-111014850D01*
X92030450Y-111014849D01*
X92030445Y-111014849D01*
X91803761Y-110995017D01*
X91803757Y-110995017D01*
X91577072Y-111014849D01*
X91577061Y-111014851D01*
X91357270Y-111073743D01*
X91357261Y-111073746D01*
X91151026Y-111169916D01*
X91151024Y-111169917D01*
X90964617Y-111300439D01*
X90803713Y-111461343D01*
X90673191Y-111647750D01*
X90673190Y-111647752D01*
X90646141Y-111705760D01*
X90599968Y-111758199D01*
X90532775Y-111777351D01*
X90465894Y-111757135D01*
X90421377Y-111705760D01*
X90394327Y-111647752D01*
X90394326Y-111647750D01*
X90337669Y-111566835D01*
X90263806Y-111461346D01*
X90102898Y-111300438D01*
X90098132Y-111297100D01*
X90067134Y-111275395D01*
X90023510Y-111220817D01*
X90014259Y-111173821D01*
X90014259Y-110477695D01*
X126461127Y-110477695D01*
X126461128Y-110477696D01*
X127306988Y-110477696D01*
X127274075Y-110534703D01*
X127240000Y-110661870D01*
X127240000Y-110793522D01*
X127274075Y-110920689D01*
X127306988Y-110977696D01*
X126461128Y-110977696D01*
X126513730Y-111174013D01*
X126513734Y-111174022D01*
X126609865Y-111380178D01*
X126740342Y-111566516D01*
X126901179Y-111727353D01*
X127087517Y-111857830D01*
X127293673Y-111953961D01*
X127293682Y-111953965D01*
X127489999Y-112006568D01*
X127490000Y-112006567D01*
X127490000Y-111160708D01*
X127547007Y-111193621D01*
X127674174Y-111227696D01*
X127805826Y-111227696D01*
X127932993Y-111193621D01*
X127990000Y-111160708D01*
X127990000Y-112006568D01*
X128186317Y-111953965D01*
X128186326Y-111953961D01*
X128392482Y-111857830D01*
X128578820Y-111727353D01*
X128739657Y-111566516D01*
X128870132Y-111380180D01*
X128897341Y-111321830D01*
X128943513Y-111269391D01*
X129010707Y-111250238D01*
X129077588Y-111270453D01*
X129122105Y-111321828D01*
X129144088Y-111368971D01*
X129149431Y-111380428D01*
X129149432Y-111380430D01*
X129279954Y-111566837D01*
X129440858Y-111727741D01*
X129484357Y-111758199D01*
X129627266Y-111858264D01*
X129833504Y-111954435D01*
X130053308Y-112013331D01*
X130215230Y-112027497D01*
X130279998Y-112033164D01*
X130280000Y-112033164D01*
X130280002Y-112033164D01*
X130336673Y-112028205D01*
X130506692Y-112013331D01*
X130726496Y-111954435D01*
X130932734Y-111858264D01*
X131119139Y-111727743D01*
X131280047Y-111566835D01*
X131410568Y-111380430D01*
X131437618Y-111322420D01*
X131483790Y-111269981D01*
X131550983Y-111250829D01*
X131617865Y-111271044D01*
X131662382Y-111322421D01*
X131689429Y-111380424D01*
X131689432Y-111380430D01*
X131819954Y-111566837D01*
X131980858Y-111727741D01*
X132024357Y-111758199D01*
X132167266Y-111858264D01*
X132373504Y-111954435D01*
X132593308Y-112013331D01*
X132755230Y-112027497D01*
X132819998Y-112033164D01*
X132820000Y-112033164D01*
X132820002Y-112033164D01*
X132876673Y-112028205D01*
X133046692Y-112013331D01*
X133266496Y-111954435D01*
X133472734Y-111858264D01*
X133659139Y-111727743D01*
X133820047Y-111566835D01*
X133950568Y-111380430D01*
X133977618Y-111322420D01*
X134023790Y-111269981D01*
X134090983Y-111250829D01*
X134157865Y-111271044D01*
X134202382Y-111322421D01*
X134229429Y-111380424D01*
X134229432Y-111380430D01*
X134359954Y-111566837D01*
X134520858Y-111727741D01*
X134564357Y-111758199D01*
X134707266Y-111858264D01*
X134913504Y-111954435D01*
X135133308Y-112013331D01*
X135295230Y-112027497D01*
X135359998Y-112033164D01*
X135360000Y-112033164D01*
X135360002Y-112033164D01*
X135416673Y-112028205D01*
X135586692Y-112013331D01*
X135806496Y-111954435D01*
X136012734Y-111858264D01*
X136199139Y-111727743D01*
X136360047Y-111566835D01*
X136490568Y-111380430D01*
X136517618Y-111322420D01*
X136563790Y-111269981D01*
X136630983Y-111250829D01*
X136697865Y-111271044D01*
X136742382Y-111322421D01*
X136769429Y-111380424D01*
X136769432Y-111380430D01*
X136899954Y-111566837D01*
X137060858Y-111727741D01*
X137104357Y-111758199D01*
X137247266Y-111858264D01*
X137453504Y-111954435D01*
X137673308Y-112013331D01*
X137835230Y-112027497D01*
X137899998Y-112033164D01*
X137900000Y-112033164D01*
X137900002Y-112033164D01*
X137956673Y-112028205D01*
X138126692Y-112013331D01*
X138346496Y-111954435D01*
X138552734Y-111858264D01*
X138739139Y-111727743D01*
X138900047Y-111566835D01*
X139030568Y-111380430D01*
X139057618Y-111322420D01*
X139103790Y-111269981D01*
X139170983Y-111250829D01*
X139237865Y-111271044D01*
X139282382Y-111322421D01*
X139309429Y-111380424D01*
X139309432Y-111380430D01*
X139439954Y-111566837D01*
X139600858Y-111727741D01*
X139644357Y-111758199D01*
X139787266Y-111858264D01*
X139993504Y-111954435D01*
X140213308Y-112013331D01*
X140375230Y-112027497D01*
X140439998Y-112033164D01*
X140440000Y-112033164D01*
X140440002Y-112033164D01*
X140496673Y-112028205D01*
X140666692Y-112013331D01*
X140886496Y-111954435D01*
X141092734Y-111858264D01*
X141279139Y-111727743D01*
X141440047Y-111566835D01*
X141570568Y-111380430D01*
X141666739Y-111174192D01*
X141725635Y-110954388D01*
X141745468Y-110727696D01*
X141725635Y-110501004D01*
X141666739Y-110281200D01*
X141570568Y-110074962D01*
X141440047Y-109888557D01*
X141440045Y-109888554D01*
X141279141Y-109727650D01*
X141092734Y-109597128D01*
X141092732Y-109597127D01*
X140886497Y-109500957D01*
X140886488Y-109500954D01*
X140666697Y-109442062D01*
X140666693Y-109442061D01*
X140666692Y-109442061D01*
X140666691Y-109442060D01*
X140666686Y-109442060D01*
X140440002Y-109422228D01*
X140439998Y-109422228D01*
X140213313Y-109442060D01*
X140213302Y-109442062D01*
X139993511Y-109500954D01*
X139993502Y-109500957D01*
X139787267Y-109597127D01*
X139787265Y-109597128D01*
X139600858Y-109727650D01*
X139439954Y-109888554D01*
X139309432Y-110074961D01*
X139309431Y-110074963D01*
X139282382Y-110132971D01*
X139236209Y-110185410D01*
X139169016Y-110204562D01*
X139102135Y-110184346D01*
X139057618Y-110132971D01*
X139030686Y-110075216D01*
X139030568Y-110074962D01*
X138900047Y-109888557D01*
X138900045Y-109888554D01*
X138739141Y-109727650D01*
X138552734Y-109597128D01*
X138552732Y-109597127D01*
X138346497Y-109500957D01*
X138346488Y-109500954D01*
X138126697Y-109442062D01*
X138126693Y-109442061D01*
X138126692Y-109442061D01*
X138126691Y-109442060D01*
X138126686Y-109442060D01*
X137900002Y-109422228D01*
X137899998Y-109422228D01*
X137673313Y-109442060D01*
X137673302Y-109442062D01*
X137453511Y-109500954D01*
X137453502Y-109500957D01*
X137247267Y-109597127D01*
X137247265Y-109597128D01*
X137060858Y-109727650D01*
X136899954Y-109888554D01*
X136769432Y-110074961D01*
X136769431Y-110074963D01*
X136742382Y-110132971D01*
X136696209Y-110185410D01*
X136629016Y-110204562D01*
X136562135Y-110184346D01*
X136517618Y-110132971D01*
X136490686Y-110075216D01*
X136490568Y-110074962D01*
X136360047Y-109888557D01*
X136360045Y-109888554D01*
X136199141Y-109727650D01*
X136012734Y-109597128D01*
X136012732Y-109597127D01*
X135806497Y-109500957D01*
X135806488Y-109500954D01*
X135586697Y-109442062D01*
X135586693Y-109442061D01*
X135586692Y-109442061D01*
X135586691Y-109442060D01*
X135586686Y-109442060D01*
X135360002Y-109422228D01*
X135359998Y-109422228D01*
X135133313Y-109442060D01*
X135133302Y-109442062D01*
X134913511Y-109500954D01*
X134913502Y-109500957D01*
X134707267Y-109597127D01*
X134707265Y-109597128D01*
X134520858Y-109727650D01*
X134359954Y-109888554D01*
X134229432Y-110074961D01*
X134229431Y-110074963D01*
X134202382Y-110132971D01*
X134156209Y-110185410D01*
X134089016Y-110204562D01*
X134022135Y-110184346D01*
X133977618Y-110132971D01*
X133950686Y-110075216D01*
X133950568Y-110074962D01*
X133820047Y-109888557D01*
X133820045Y-109888554D01*
X133659141Y-109727650D01*
X133472734Y-109597128D01*
X133472732Y-109597127D01*
X133266497Y-109500957D01*
X133266488Y-109500954D01*
X133046697Y-109442062D01*
X133046693Y-109442061D01*
X133046692Y-109442061D01*
X133046691Y-109442060D01*
X133046686Y-109442060D01*
X132820002Y-109422228D01*
X132819998Y-109422228D01*
X132593313Y-109442060D01*
X132593302Y-109442062D01*
X132373511Y-109500954D01*
X132373502Y-109500957D01*
X132167267Y-109597127D01*
X132167265Y-109597128D01*
X131980858Y-109727650D01*
X131819954Y-109888554D01*
X131689432Y-110074961D01*
X131689431Y-110074963D01*
X131662382Y-110132971D01*
X131616209Y-110185410D01*
X131549016Y-110204562D01*
X131482135Y-110184346D01*
X131437618Y-110132971D01*
X131410686Y-110075216D01*
X131410568Y-110074962D01*
X131280047Y-109888557D01*
X131280045Y-109888554D01*
X131119141Y-109727650D01*
X130932734Y-109597128D01*
X130932732Y-109597127D01*
X130726497Y-109500957D01*
X130726488Y-109500954D01*
X130506697Y-109442062D01*
X130506693Y-109442061D01*
X130506692Y-109442061D01*
X130506691Y-109442060D01*
X130506686Y-109442060D01*
X130280002Y-109422228D01*
X130279998Y-109422228D01*
X130053313Y-109442060D01*
X130053302Y-109442062D01*
X129833511Y-109500954D01*
X129833502Y-109500957D01*
X129627267Y-109597127D01*
X129627265Y-109597128D01*
X129440858Y-109727650D01*
X129279954Y-109888554D01*
X129149433Y-110074960D01*
X129149432Y-110074962D01*
X129149315Y-110075214D01*
X129122106Y-110133563D01*
X129075933Y-110186002D01*
X129008739Y-110205153D01*
X128941858Y-110184937D01*
X128897342Y-110133561D01*
X128870135Y-110075216D01*
X128870134Y-110075214D01*
X128739657Y-109888875D01*
X128578820Y-109728038D01*
X128392482Y-109597561D01*
X128186328Y-109501430D01*
X127990000Y-109448823D01*
X127990000Y-110294684D01*
X127932993Y-110261771D01*
X127805826Y-110227696D01*
X127674174Y-110227696D01*
X127547007Y-110261771D01*
X127490000Y-110294684D01*
X127490000Y-109448823D01*
X127293671Y-109501430D01*
X127087517Y-109597561D01*
X126901179Y-109728038D01*
X126740342Y-109888875D01*
X126609865Y-110075213D01*
X126513734Y-110281369D01*
X126513730Y-110281378D01*
X126461127Y-110477695D01*
X90014259Y-110477695D01*
X90014259Y-94550483D01*
X93058291Y-94550483D01*
X93058291Y-94550486D01*
X93078123Y-94777171D01*
X93078125Y-94777182D01*
X93137017Y-94996973D01*
X93137020Y-94996982D01*
X93233190Y-95203217D01*
X93233191Y-95203219D01*
X93363713Y-95389626D01*
X93524617Y-95550530D01*
X93524620Y-95550532D01*
X93711025Y-95681053D01*
X93917263Y-95777224D01*
X94137067Y-95836120D01*
X94298989Y-95850286D01*
X94363757Y-95855953D01*
X94363759Y-95855953D01*
X94363761Y-95855953D01*
X94420432Y-95850994D01*
X94590451Y-95836120D01*
X94810255Y-95777224D01*
X95016493Y-95681053D01*
X95202898Y-95550532D01*
X95363806Y-95389624D01*
X95494327Y-95203219D01*
X95521377Y-95145209D01*
X95567549Y-95092770D01*
X95634742Y-95073618D01*
X95701624Y-95093833D01*
X95746140Y-95145209D01*
X95760276Y-95175523D01*
X95773188Y-95203213D01*
X95773191Y-95203219D01*
X95903713Y-95389626D01*
X96064617Y-95550530D01*
X96064620Y-95550532D01*
X96251025Y-95681053D01*
X96457263Y-95777224D01*
X96677067Y-95836120D01*
X96838989Y-95850286D01*
X96903757Y-95855953D01*
X96903759Y-95855953D01*
X96903761Y-95855953D01*
X96960432Y-95850994D01*
X97130451Y-95836120D01*
X97350255Y-95777224D01*
X97556493Y-95681053D01*
X97742898Y-95550532D01*
X97903806Y-95389624D01*
X98034327Y-95203219D01*
X98061377Y-95145209D01*
X98107549Y-95092770D01*
X98174742Y-95073618D01*
X98241624Y-95093833D01*
X98286140Y-95145209D01*
X98300276Y-95175523D01*
X98313188Y-95203213D01*
X98313191Y-95203219D01*
X98443713Y-95389626D01*
X98604617Y-95550530D01*
X98604620Y-95550532D01*
X98791025Y-95681053D01*
X98997263Y-95777224D01*
X99217067Y-95836120D01*
X99378989Y-95850286D01*
X99443757Y-95855953D01*
X99443759Y-95855953D01*
X99443761Y-95855953D01*
X99500432Y-95850994D01*
X99670451Y-95836120D01*
X99890255Y-95777224D01*
X100096493Y-95681053D01*
X100282898Y-95550532D01*
X100443806Y-95389624D01*
X100574327Y-95203219D01*
X100601377Y-95145209D01*
X100647549Y-95092770D01*
X100714742Y-95073618D01*
X100781624Y-95093833D01*
X100826140Y-95145209D01*
X100840276Y-95175523D01*
X100853188Y-95203213D01*
X100853191Y-95203219D01*
X100983713Y-95389626D01*
X101144616Y-95550529D01*
X101144619Y-95550531D01*
X101144620Y-95550532D01*
X101182057Y-95576745D01*
X101225683Y-95631322D01*
X101232552Y-95654129D01*
X101262099Y-95802666D01*
X101262102Y-95802676D01*
X101318673Y-95939251D01*
X101351571Y-95988486D01*
X101351572Y-95988489D01*
X101400805Y-96062173D01*
X101400811Y-96062180D01*
X103121584Y-97782952D01*
X103121586Y-97782954D01*
X103151058Y-97802645D01*
X103195270Y-97832186D01*
X103244505Y-97865084D01*
X103244506Y-97865084D01*
X103244507Y-97865085D01*
X103244509Y-97865086D01*
X103381082Y-97921656D01*
X103381087Y-97921658D01*
X103381091Y-97921658D01*
X103381092Y-97921659D01*
X103526079Y-97950500D01*
X103526082Y-97950500D01*
X120545641Y-97950500D01*
X120643183Y-97931096D01*
X120690634Y-97921658D01*
X120827216Y-97865084D01*
X120876450Y-97832186D01*
X120876455Y-97832183D01*
X120900792Y-97815921D01*
X120950137Y-97782952D01*
X122474652Y-96258435D01*
X122535973Y-96224952D01*
X122573135Y-96222590D01*
X122716366Y-96235121D01*
X122739999Y-96237189D01*
X122740000Y-96237189D01*
X122740002Y-96237189D01*
X122796673Y-96232230D01*
X122966692Y-96217356D01*
X123186496Y-96158460D01*
X123392734Y-96062289D01*
X123579139Y-95931768D01*
X123740047Y-95770860D01*
X123870568Y-95584455D01*
X123966739Y-95378217D01*
X124025635Y-95158413D01*
X124045468Y-94931721D01*
X124045468Y-94931718D01*
X131595034Y-94931718D01*
X131595034Y-94931723D01*
X131614858Y-95158320D01*
X131614860Y-95158331D01*
X131673730Y-95378038D01*
X131673735Y-95378052D01*
X131769863Y-95584199D01*
X131820974Y-95657193D01*
X132500000Y-94978167D01*
X132500000Y-94984382D01*
X132527259Y-95086115D01*
X132579920Y-95177327D01*
X132654394Y-95251801D01*
X132745606Y-95304462D01*
X132847339Y-95331721D01*
X132853553Y-95331721D01*
X132174526Y-96010746D01*
X132247513Y-96061853D01*
X132247521Y-96061857D01*
X132453668Y-96157985D01*
X132453682Y-96157990D01*
X132673389Y-96216860D01*
X132673400Y-96216862D01*
X132899998Y-96236687D01*
X132900002Y-96236687D01*
X133126599Y-96216862D01*
X133126610Y-96216860D01*
X133346317Y-96157990D01*
X133346331Y-96157985D01*
X133552478Y-96061857D01*
X133625471Y-96010745D01*
X132946447Y-95331721D01*
X132952661Y-95331721D01*
X133054394Y-95304462D01*
X133145606Y-95251801D01*
X133220080Y-95177327D01*
X133272741Y-95086115D01*
X133300000Y-94984382D01*
X133300000Y-94978168D01*
X133979024Y-95657192D01*
X134030136Y-95584199D01*
X134126264Y-95378052D01*
X134126269Y-95378038D01*
X134185139Y-95158331D01*
X134185141Y-95158320D01*
X134204966Y-94931723D01*
X134204966Y-94931718D01*
X134185141Y-94705121D01*
X134185139Y-94705110D01*
X134126269Y-94485403D01*
X134126264Y-94485389D01*
X134030136Y-94279242D01*
X134030132Y-94279234D01*
X133979025Y-94206247D01*
X133300000Y-94885272D01*
X133300000Y-94879060D01*
X133272741Y-94777327D01*
X133220080Y-94686115D01*
X133145606Y-94611641D01*
X133054394Y-94558980D01*
X132952661Y-94531721D01*
X132946445Y-94531721D01*
X133625472Y-93852695D01*
X133552478Y-93801584D01*
X133346331Y-93705456D01*
X133346317Y-93705451D01*
X133126610Y-93646581D01*
X133126599Y-93646579D01*
X132900002Y-93626755D01*
X132899998Y-93626755D01*
X132673400Y-93646579D01*
X132673389Y-93646581D01*
X132453682Y-93705451D01*
X132453673Y-93705455D01*
X132247516Y-93801587D01*
X132247512Y-93801589D01*
X132174526Y-93852694D01*
X132174526Y-93852695D01*
X132853553Y-94531721D01*
X132847339Y-94531721D01*
X132745606Y-94558980D01*
X132654394Y-94611641D01*
X132579920Y-94686115D01*
X132527259Y-94777327D01*
X132500000Y-94879060D01*
X132500000Y-94885273D01*
X131820974Y-94206247D01*
X131820973Y-94206247D01*
X131769868Y-94279233D01*
X131769866Y-94279237D01*
X131673734Y-94485394D01*
X131673730Y-94485403D01*
X131614860Y-94705110D01*
X131614858Y-94705121D01*
X131595034Y-94931718D01*
X124045468Y-94931718D01*
X124025635Y-94705029D01*
X123966739Y-94485225D01*
X123870568Y-94278987D01*
X123740047Y-94092582D01*
X123740045Y-94092579D01*
X123579141Y-93931675D01*
X123392734Y-93801153D01*
X123392732Y-93801152D01*
X123186497Y-93704982D01*
X123186488Y-93704979D01*
X122966697Y-93646087D01*
X122966693Y-93646086D01*
X122966692Y-93646086D01*
X122966691Y-93646085D01*
X122966686Y-93646085D01*
X122740002Y-93626253D01*
X122739998Y-93626253D01*
X122513313Y-93646085D01*
X122513302Y-93646087D01*
X122293511Y-93704979D01*
X122293502Y-93704982D01*
X122087267Y-93801152D01*
X122087265Y-93801153D01*
X121900858Y-93931675D01*
X121739954Y-94092579D01*
X121609432Y-94278986D01*
X121609431Y-94278988D01*
X121513261Y-94485223D01*
X121513258Y-94485232D01*
X121454366Y-94705023D01*
X121454364Y-94705034D01*
X121434532Y-94931719D01*
X121434532Y-94931724D01*
X121449129Y-95098582D01*
X121435362Y-95167081D01*
X121413282Y-95197069D01*
X120197172Y-96413181D01*
X120135849Y-96446666D01*
X120109491Y-96449500D01*
X103962230Y-96449500D01*
X103895191Y-96429815D01*
X103874549Y-96413181D01*
X103002681Y-95541313D01*
X102969196Y-95479990D01*
X102974180Y-95410298D01*
X102988784Y-95382514D01*
X103114327Y-95203219D01*
X103141377Y-95145209D01*
X103187549Y-95092770D01*
X103254742Y-95073618D01*
X103321624Y-95093833D01*
X103366140Y-95145209D01*
X103380276Y-95175523D01*
X103393188Y-95203213D01*
X103393191Y-95203219D01*
X103523713Y-95389626D01*
X103684617Y-95550530D01*
X103684620Y-95550532D01*
X103871025Y-95681053D01*
X104077263Y-95777224D01*
X104297067Y-95836120D01*
X104458989Y-95850286D01*
X104523757Y-95855953D01*
X104523759Y-95855953D01*
X104523761Y-95855953D01*
X104580432Y-95850994D01*
X104750451Y-95836120D01*
X104970255Y-95777224D01*
X105176493Y-95681053D01*
X105362898Y-95550532D01*
X105523806Y-95389624D01*
X105654327Y-95203219D01*
X105681654Y-95144614D01*
X105727823Y-95092180D01*
X105795016Y-95073027D01*
X105861898Y-95093242D01*
X105906416Y-95144618D01*
X105933624Y-95202967D01*
X106064101Y-95389305D01*
X106224938Y-95550142D01*
X106411276Y-95680619D01*
X106617432Y-95776750D01*
X106617441Y-95776754D01*
X106813758Y-95829357D01*
X106813759Y-95829356D01*
X106813759Y-94983497D01*
X106870766Y-95016410D01*
X106997933Y-95050485D01*
X107129585Y-95050485D01*
X107256752Y-95016410D01*
X107313759Y-94983497D01*
X107313759Y-95829357D01*
X107510076Y-95776754D01*
X107510085Y-95776750D01*
X107716241Y-95680619D01*
X107902579Y-95550142D01*
X108063416Y-95389305D01*
X108193893Y-95202967D01*
X108290024Y-94996811D01*
X108290028Y-94996802D01*
X108342631Y-94800485D01*
X107496771Y-94800485D01*
X107529684Y-94743478D01*
X107563759Y-94616311D01*
X107563759Y-94484659D01*
X107529684Y-94357492D01*
X107496771Y-94300485D01*
X108342631Y-94300485D01*
X108342631Y-94300484D01*
X108290028Y-94104167D01*
X108290024Y-94104158D01*
X108193893Y-93898002D01*
X108063416Y-93711664D01*
X107902579Y-93550827D01*
X107716241Y-93420350D01*
X107510087Y-93324219D01*
X107313759Y-93271612D01*
X107313759Y-94117473D01*
X107256752Y-94084560D01*
X107129585Y-94050485D01*
X106997933Y-94050485D01*
X106870766Y-94084560D01*
X106813759Y-94117473D01*
X106813759Y-93271612D01*
X106617430Y-93324219D01*
X106411276Y-93420350D01*
X106224938Y-93550827D01*
X106064101Y-93711664D01*
X105933626Y-93898000D01*
X105906416Y-93956352D01*
X105860243Y-94008791D01*
X105793049Y-94027942D01*
X105726168Y-94007726D01*
X105681652Y-93956350D01*
X105670145Y-93931674D01*
X105654327Y-93897751D01*
X105523806Y-93711346D01*
X105523804Y-93711343D01*
X105362900Y-93550439D01*
X105176493Y-93419917D01*
X105176491Y-93419916D01*
X104970256Y-93323746D01*
X104970247Y-93323743D01*
X104750456Y-93264851D01*
X104750452Y-93264850D01*
X104750451Y-93264850D01*
X104750450Y-93264849D01*
X104750445Y-93264849D01*
X104523761Y-93245017D01*
X104523757Y-93245017D01*
X104297072Y-93264849D01*
X104297061Y-93264851D01*
X104077270Y-93323743D01*
X104077261Y-93323746D01*
X103871026Y-93419916D01*
X103871024Y-93419917D01*
X103684617Y-93550439D01*
X103523713Y-93711343D01*
X103393191Y-93897750D01*
X103393190Y-93897752D01*
X103366141Y-93955760D01*
X103319968Y-94008199D01*
X103252775Y-94027351D01*
X103185894Y-94007135D01*
X103141377Y-93955760D01*
X103130146Y-93931675D01*
X103114327Y-93897751D01*
X102983806Y-93711346D01*
X102983804Y-93711343D01*
X102822900Y-93550439D01*
X102636493Y-93419917D01*
X102636491Y-93419916D01*
X102430256Y-93323746D01*
X102430247Y-93323743D01*
X102210456Y-93264851D01*
X102210452Y-93264850D01*
X102210451Y-93264850D01*
X102210450Y-93264849D01*
X102210445Y-93264849D01*
X101983761Y-93245017D01*
X101983757Y-93245017D01*
X101757072Y-93264849D01*
X101757061Y-93264851D01*
X101537270Y-93323743D01*
X101537261Y-93323746D01*
X101331026Y-93419916D01*
X101331024Y-93419917D01*
X101144617Y-93550439D01*
X100983713Y-93711343D01*
X100853191Y-93897750D01*
X100853190Y-93897752D01*
X100826141Y-93955760D01*
X100779968Y-94008199D01*
X100712775Y-94027351D01*
X100645894Y-94007135D01*
X100601377Y-93955760D01*
X100590146Y-93931675D01*
X100574327Y-93897751D01*
X100443806Y-93711346D01*
X100284592Y-93552132D01*
X100251109Y-93490811D01*
X100256093Y-93421120D01*
X100284592Y-93376774D01*
X101374548Y-92286819D01*
X101435871Y-92253334D01*
X101462229Y-92250500D01*
X121668230Y-92250500D01*
X121735269Y-92270185D01*
X121755911Y-92286819D01*
X121900858Y-92431766D01*
X121900861Y-92431768D01*
X122087266Y-92562289D01*
X122293504Y-92658460D01*
X122513308Y-92717356D01*
X122675230Y-92731522D01*
X122739998Y-92737189D01*
X122740000Y-92737189D01*
X122740002Y-92737189D01*
X122796673Y-92732230D01*
X122966692Y-92717356D01*
X123186496Y-92658460D01*
X123392734Y-92562289D01*
X123579139Y-92431768D01*
X123740047Y-92270860D01*
X123870568Y-92084455D01*
X123966739Y-91878217D01*
X124025635Y-91658413D01*
X124045468Y-91431721D01*
X124045468Y-91431718D01*
X131595034Y-91431718D01*
X131595034Y-91431723D01*
X131614858Y-91658320D01*
X131614860Y-91658331D01*
X131673730Y-91878038D01*
X131673735Y-91878052D01*
X131769863Y-92084199D01*
X131820974Y-92157193D01*
X132500000Y-91478167D01*
X132500000Y-91484382D01*
X132527259Y-91586115D01*
X132579920Y-91677327D01*
X132654394Y-91751801D01*
X132745606Y-91804462D01*
X132847339Y-91831721D01*
X132853553Y-91831721D01*
X132174526Y-92510746D01*
X132247513Y-92561853D01*
X132247521Y-92561857D01*
X132453668Y-92657985D01*
X132453682Y-92657990D01*
X132673389Y-92716860D01*
X132673400Y-92716862D01*
X132899998Y-92736687D01*
X132900002Y-92736687D01*
X133126599Y-92716862D01*
X133126610Y-92716860D01*
X133346317Y-92657990D01*
X133346331Y-92657985D01*
X133552478Y-92561857D01*
X133625471Y-92510745D01*
X132946447Y-91831721D01*
X132952661Y-91831721D01*
X133054394Y-91804462D01*
X133145606Y-91751801D01*
X133220080Y-91677327D01*
X133272741Y-91586115D01*
X133300000Y-91484382D01*
X133300000Y-91478168D01*
X133979024Y-92157192D01*
X134030136Y-92084199D01*
X134126264Y-91878052D01*
X134126269Y-91878038D01*
X134185139Y-91658331D01*
X134185141Y-91658320D01*
X134204966Y-91431723D01*
X134204966Y-91431718D01*
X134185141Y-91205121D01*
X134185139Y-91205110D01*
X134126269Y-90985403D01*
X134126264Y-90985389D01*
X134030136Y-90779242D01*
X134030132Y-90779234D01*
X133979025Y-90706247D01*
X133300000Y-91385272D01*
X133300000Y-91379060D01*
X133272741Y-91277327D01*
X133220080Y-91186115D01*
X133145606Y-91111641D01*
X133054394Y-91058980D01*
X132952661Y-91031721D01*
X132946445Y-91031721D01*
X133444311Y-90533856D01*
X136429500Y-90533856D01*
X136429500Y-92329591D01*
X136429501Y-92329597D01*
X136435908Y-92389204D01*
X136486202Y-92524049D01*
X136486206Y-92524056D01*
X136572452Y-92639265D01*
X136572455Y-92639268D01*
X136687664Y-92725514D01*
X136687671Y-92725518D01*
X136822517Y-92775812D01*
X136822516Y-92775812D01*
X136829444Y-92776556D01*
X136882127Y-92782221D01*
X138677872Y-92782220D01*
X138737483Y-92775812D01*
X138872331Y-92725517D01*
X138987546Y-92639267D01*
X139073796Y-92524052D01*
X139123002Y-92392122D01*
X139164872Y-92336189D01*
X139230337Y-92311771D01*
X139298610Y-92326622D01*
X139326865Y-92347774D01*
X139448917Y-92469826D01*
X139642421Y-92605321D01*
X139856507Y-92705150D01*
X139856516Y-92705154D01*
X140070000Y-92762355D01*
X140070000Y-91864733D01*
X140127007Y-91897646D01*
X140254174Y-91931721D01*
X140385826Y-91931721D01*
X140512993Y-91897646D01*
X140570000Y-91864733D01*
X140570000Y-92762354D01*
X140783483Y-92705154D01*
X140783492Y-92705150D01*
X140997578Y-92605321D01*
X141191082Y-92469826D01*
X141358105Y-92302803D01*
X141488119Y-92117126D01*
X141542696Y-92073502D01*
X141612195Y-92066309D01*
X141674549Y-92097831D01*
X141691269Y-92117126D01*
X141821505Y-92303122D01*
X141988599Y-92470216D01*
X142085384Y-92537986D01*
X142182165Y-92605753D01*
X142182167Y-92605754D01*
X142182170Y-92605756D01*
X142396337Y-92705624D01*
X142624592Y-92766784D01*
X142801034Y-92782221D01*
X142859999Y-92787380D01*
X142860000Y-92787380D01*
X142860001Y-92787380D01*
X142918966Y-92782221D01*
X143095408Y-92766784D01*
X143323663Y-92705624D01*
X143537830Y-92605756D01*
X143731401Y-92470216D01*
X143898495Y-92303122D01*
X144028425Y-92117563D01*
X144083002Y-92073938D01*
X144152500Y-92066744D01*
X144214855Y-92098267D01*
X144231575Y-92117563D01*
X144361500Y-92303116D01*
X144361505Y-92303122D01*
X144528599Y-92470216D01*
X144625384Y-92537986D01*
X144722165Y-92605753D01*
X144722167Y-92605754D01*
X144722170Y-92605756D01*
X144936337Y-92705624D01*
X145164592Y-92766784D01*
X145341034Y-92782221D01*
X145399999Y-92787380D01*
X145400000Y-92787380D01*
X145400001Y-92787380D01*
X145458966Y-92782221D01*
X145635408Y-92766784D01*
X145863663Y-92705624D01*
X146077830Y-92605756D01*
X146271401Y-92470216D01*
X146438495Y-92303122D01*
X146574035Y-92109551D01*
X146673903Y-91895384D01*
X146735063Y-91667129D01*
X146755659Y-91431721D01*
X146735063Y-91196313D01*
X146673903Y-90968058D01*
X146574035Y-90753892D01*
X146568731Y-90746316D01*
X146438494Y-90560318D01*
X146271402Y-90393227D01*
X146271395Y-90393222D01*
X146269034Y-90391569D01*
X146213515Y-90352694D01*
X146077834Y-90257688D01*
X146077830Y-90257686D01*
X146077828Y-90257685D01*
X145863663Y-90157818D01*
X145863659Y-90157817D01*
X145863655Y-90157815D01*
X145635413Y-90096659D01*
X145635403Y-90096657D01*
X145400001Y-90076062D01*
X145399999Y-90076062D01*
X145164596Y-90096657D01*
X145164586Y-90096659D01*
X144936344Y-90157815D01*
X144936335Y-90157819D01*
X144722171Y-90257685D01*
X144722169Y-90257686D01*
X144528597Y-90393226D01*
X144361505Y-90560318D01*
X144231575Y-90745879D01*
X144176998Y-90789504D01*
X144107500Y-90796698D01*
X144045145Y-90765175D01*
X144028425Y-90745879D01*
X143898494Y-90560318D01*
X143731402Y-90393227D01*
X143731395Y-90393222D01*
X143729034Y-90391569D01*
X143673515Y-90352694D01*
X143537834Y-90257688D01*
X143537830Y-90257686D01*
X143537828Y-90257685D01*
X143323663Y-90157818D01*
X143323659Y-90157817D01*
X143323655Y-90157815D01*
X143095413Y-90096659D01*
X143095403Y-90096657D01*
X142860001Y-90076062D01*
X142859999Y-90076062D01*
X142624596Y-90096657D01*
X142624586Y-90096659D01*
X142396344Y-90157815D01*
X142396335Y-90157819D01*
X142182171Y-90257685D01*
X142182169Y-90257686D01*
X141988597Y-90393226D01*
X141821508Y-90560315D01*
X141691269Y-90746316D01*
X141636692Y-90789940D01*
X141567193Y-90797133D01*
X141504839Y-90765611D01*
X141488119Y-90746315D01*
X141358113Y-90560647D01*
X141358108Y-90560641D01*
X141191082Y-90393615D01*
X140997578Y-90258120D01*
X140783492Y-90158291D01*
X140783486Y-90158288D01*
X140570000Y-90101085D01*
X140570000Y-90998709D01*
X140512993Y-90965796D01*
X140385826Y-90931721D01*
X140254174Y-90931721D01*
X140127007Y-90965796D01*
X140070000Y-90998709D01*
X140070000Y-90101085D01*
X140069999Y-90101085D01*
X139856513Y-90158288D01*
X139856507Y-90158291D01*
X139642422Y-90258120D01*
X139642420Y-90258121D01*
X139448926Y-90393607D01*
X139326865Y-90515668D01*
X139265542Y-90549152D01*
X139195850Y-90544168D01*
X139139917Y-90502296D01*
X139123002Y-90471319D01*
X139073797Y-90339392D01*
X139073793Y-90339385D01*
X138987547Y-90224176D01*
X138987544Y-90224173D01*
X138872335Y-90137927D01*
X138872328Y-90137923D01*
X138737482Y-90087629D01*
X138737483Y-90087629D01*
X138677883Y-90081222D01*
X138677881Y-90081221D01*
X138677873Y-90081221D01*
X138677864Y-90081221D01*
X136882129Y-90081221D01*
X136882123Y-90081222D01*
X136822516Y-90087629D01*
X136687671Y-90137923D01*
X136687664Y-90137927D01*
X136572455Y-90224173D01*
X136572452Y-90224176D01*
X136486206Y-90339385D01*
X136486202Y-90339392D01*
X136435908Y-90474238D01*
X136429501Y-90533837D01*
X136429500Y-90533856D01*
X133444311Y-90533856D01*
X133625472Y-90352695D01*
X133552478Y-90301584D01*
X133346331Y-90205456D01*
X133346317Y-90205451D01*
X133126610Y-90146581D01*
X133126599Y-90146579D01*
X132900002Y-90126755D01*
X132899998Y-90126755D01*
X132673400Y-90146579D01*
X132673389Y-90146581D01*
X132453682Y-90205451D01*
X132453673Y-90205455D01*
X132247516Y-90301587D01*
X132247512Y-90301589D01*
X132174526Y-90352694D01*
X132174526Y-90352695D01*
X132853553Y-91031721D01*
X132847339Y-91031721D01*
X132745606Y-91058980D01*
X132654394Y-91111641D01*
X132579920Y-91186115D01*
X132527259Y-91277327D01*
X132500000Y-91379060D01*
X132500000Y-91385273D01*
X131820974Y-90706247D01*
X131820973Y-90706247D01*
X131769868Y-90779233D01*
X131769866Y-90779237D01*
X131673734Y-90985394D01*
X131673730Y-90985403D01*
X131614860Y-91205110D01*
X131614858Y-91205121D01*
X131595034Y-91431718D01*
X124045468Y-91431718D01*
X124025635Y-91205029D01*
X123966739Y-90985225D01*
X123870568Y-90778987D01*
X123740047Y-90592582D01*
X123740045Y-90592579D01*
X123579141Y-90431675D01*
X123392734Y-90301153D01*
X123392732Y-90301152D01*
X123186497Y-90204982D01*
X123186488Y-90204979D01*
X122966697Y-90146087D01*
X122966693Y-90146086D01*
X122966692Y-90146086D01*
X122966691Y-90146085D01*
X122966686Y-90146085D01*
X122740002Y-90126253D01*
X122739998Y-90126253D01*
X122513313Y-90146085D01*
X122513302Y-90146087D01*
X122293511Y-90204979D01*
X122293502Y-90204982D01*
X122087267Y-90301152D01*
X122087265Y-90301153D01*
X121900858Y-90431675D01*
X121739954Y-90592579D01*
X121667103Y-90696623D01*
X121612526Y-90740248D01*
X121565528Y-90749500D01*
X101026080Y-90749500D01*
X100881092Y-90778340D01*
X100881082Y-90778343D01*
X100744511Y-90834912D01*
X100744498Y-90834919D01*
X100621584Y-90917048D01*
X100621580Y-90917051D01*
X98860803Y-92677828D01*
X98844852Y-92701703D01*
X98842233Y-92705624D01*
X98821478Y-92736687D01*
X98778673Y-92800748D01*
X98722102Y-92937323D01*
X98722099Y-92937333D01*
X98693259Y-93082320D01*
X98693259Y-93423821D01*
X98673574Y-93490860D01*
X98640384Y-93525395D01*
X98604622Y-93550436D01*
X98443710Y-93711347D01*
X98313191Y-93897750D01*
X98313190Y-93897752D01*
X98286141Y-93955760D01*
X98239968Y-94008199D01*
X98172775Y-94027351D01*
X98105894Y-94007135D01*
X98061377Y-93955760D01*
X98050146Y-93931675D01*
X98034327Y-93897751D01*
X97903806Y-93711346D01*
X97903804Y-93711343D01*
X97742900Y-93550439D01*
X97556493Y-93419917D01*
X97556491Y-93419916D01*
X97350256Y-93323746D01*
X97350247Y-93323743D01*
X97130456Y-93264851D01*
X97130452Y-93264850D01*
X97130451Y-93264850D01*
X97130450Y-93264849D01*
X97130445Y-93264849D01*
X96903761Y-93245017D01*
X96903757Y-93245017D01*
X96677072Y-93264849D01*
X96677061Y-93264851D01*
X96457270Y-93323743D01*
X96457261Y-93323746D01*
X96251026Y-93419916D01*
X96251024Y-93419917D01*
X96064617Y-93550439D01*
X95903713Y-93711343D01*
X95773191Y-93897750D01*
X95773190Y-93897752D01*
X95746141Y-93955760D01*
X95699968Y-94008199D01*
X95632775Y-94027351D01*
X95565894Y-94007135D01*
X95521377Y-93955760D01*
X95510146Y-93931675D01*
X95494327Y-93897751D01*
X95363806Y-93711346D01*
X95363804Y-93711343D01*
X95202900Y-93550439D01*
X95016493Y-93419917D01*
X95016491Y-93419916D01*
X94810256Y-93323746D01*
X94810247Y-93323743D01*
X94590456Y-93264851D01*
X94590452Y-93264850D01*
X94590451Y-93264850D01*
X94590450Y-93264849D01*
X94590445Y-93264849D01*
X94363761Y-93245017D01*
X94363757Y-93245017D01*
X94137072Y-93264849D01*
X94137061Y-93264851D01*
X93917270Y-93323743D01*
X93917261Y-93323746D01*
X93711026Y-93419916D01*
X93711024Y-93419917D01*
X93524617Y-93550439D01*
X93363713Y-93711343D01*
X93233191Y-93897750D01*
X93233190Y-93897752D01*
X93137020Y-94103987D01*
X93137017Y-94103996D01*
X93078125Y-94323787D01*
X93078123Y-94323798D01*
X93058291Y-94550483D01*
X90014259Y-94550483D01*
X90014259Y-90681075D01*
X90033944Y-90614036D01*
X90067136Y-90579500D01*
X90161401Y-90513495D01*
X90328495Y-90346401D01*
X90464035Y-90152830D01*
X90563903Y-89938663D01*
X90625063Y-89710408D01*
X90645659Y-89475000D01*
X90625063Y-89239592D01*
X90575203Y-89053511D01*
X90563905Y-89011344D01*
X90563904Y-89011343D01*
X90563903Y-89011337D01*
X90464035Y-88797171D01*
X90368591Y-88660861D01*
X90328494Y-88603597D01*
X90161402Y-88436506D01*
X90161395Y-88436501D01*
X89967834Y-88300967D01*
X89967830Y-88300965D01*
X89967828Y-88300964D01*
X89753663Y-88201097D01*
X89753659Y-88201096D01*
X89753655Y-88201094D01*
X89525413Y-88139938D01*
X89525403Y-88139936D01*
X89290001Y-88119341D01*
X89289999Y-88119341D01*
X89054596Y-88139936D01*
X89054586Y-88139938D01*
X88826344Y-88201094D01*
X88826335Y-88201098D01*
X88612171Y-88300964D01*
X88612169Y-88300965D01*
X88418600Y-88436503D01*
X88296673Y-88558430D01*
X88235350Y-88591914D01*
X88165658Y-88586930D01*
X88109725Y-88545058D01*
X88092810Y-88514081D01*
X88043797Y-88382671D01*
X88043793Y-88382664D01*
X87957547Y-88267455D01*
X87957544Y-88267452D01*
X87842335Y-88181206D01*
X87842328Y-88181202D01*
X87707482Y-88130908D01*
X87707483Y-88130908D01*
X87647883Y-88124501D01*
X87647881Y-88124500D01*
X87647873Y-88124500D01*
X87647864Y-88124500D01*
X85852129Y-88124500D01*
X85852123Y-88124501D01*
X85792516Y-88130908D01*
X85657671Y-88181202D01*
X85657664Y-88181206D01*
X85542455Y-88267452D01*
X85542452Y-88267455D01*
X85456206Y-88382664D01*
X85456202Y-88382671D01*
X85405908Y-88517517D01*
X85399501Y-88577116D01*
X85399500Y-88577135D01*
X85399500Y-90372870D01*
X85399501Y-90372876D01*
X85405908Y-90432483D01*
X85456202Y-90567328D01*
X85456206Y-90567335D01*
X85542452Y-90682544D01*
X85542455Y-90682547D01*
X85657664Y-90768793D01*
X85657671Y-90768797D01*
X85685663Y-90779237D01*
X85792517Y-90819091D01*
X85852127Y-90825500D01*
X85875497Y-90825499D01*
X85942536Y-90845181D01*
X85988292Y-90897983D01*
X85999500Y-90949499D01*
X85999500Y-111155447D01*
X85979815Y-111222486D01*
X85946625Y-111257021D01*
X85884620Y-111300438D01*
X85723710Y-111461347D01*
X85593191Y-111647750D01*
X85593190Y-111647752D01*
X85497020Y-111853987D01*
X85497017Y-111853996D01*
X85438125Y-112073787D01*
X85438123Y-112073798D01*
X85418291Y-112300483D01*
X85418291Y-112300486D01*
X85438123Y-112527171D01*
X85438125Y-112527182D01*
X85497017Y-112746973D01*
X85497020Y-112746982D01*
X85593190Y-112953217D01*
X85593191Y-112953219D01*
X85723713Y-113139626D01*
X85884617Y-113300530D01*
X85884620Y-113300532D01*
X86047258Y-113414411D01*
X86090882Y-113468986D01*
X86098076Y-113538484D01*
X86066554Y-113600839D01*
X86006324Y-113636254D01*
X85976134Y-113639985D01*
X69495462Y-113639985D01*
X69350474Y-113668825D01*
X69350468Y-113668827D01*
X69213890Y-113725399D01*
X69213878Y-113725406D01*
X69164651Y-113758298D01*
X69090970Y-113807529D01*
X69090962Y-113807535D01*
X64141715Y-118756782D01*
X64080392Y-118790267D01*
X64010700Y-118785283D01*
X63983960Y-118771402D01*
X63833074Y-118668043D01*
X63833070Y-118668041D01*
X63833066Y-118668038D01*
X63469533Y-118465552D01*
X63469512Y-118465542D01*
X63088849Y-118297461D01*
X62694268Y-118165211D01*
X62289188Y-118069937D01*
X62289180Y-118069935D01*
X61877042Y-118012445D01*
X61877037Y-118012444D01*
X61877032Y-118012444D01*
X61461335Y-117993225D01*
X61045638Y-118012444D01*
X61045632Y-118012444D01*
X61045627Y-118012445D01*
X60633489Y-118069935D01*
X60633481Y-118069937D01*
X60228401Y-118165211D01*
X59833820Y-118297461D01*
X59453157Y-118465542D01*
X59453136Y-118465552D01*
X59089603Y-118668038D01*
X59089597Y-118668042D01*
X58746278Y-118903221D01*
X58746268Y-118903228D01*
X58426140Y-119169060D01*
X58426120Y-119169078D01*
X58131881Y-119463317D01*
X58131863Y-119463337D01*
X57866031Y-119783465D01*
X57866024Y-119783475D01*
X57630845Y-120126794D01*
X57630841Y-120126800D01*
X57428355Y-120490333D01*
X57428345Y-120490354D01*
X57260264Y-120871017D01*
X57128014Y-121265598D01*
X57032740Y-121670678D01*
X57032738Y-121670686D01*
X56975248Y-122082824D01*
X56975247Y-122082829D01*
X56975247Y-122082835D01*
X56956028Y-122498532D01*
X51161835Y-122498532D01*
X51161835Y-110800482D01*
X59255034Y-110800482D01*
X59255034Y-110800487D01*
X59274858Y-111027084D01*
X59274860Y-111027095D01*
X59333730Y-111246802D01*
X59333735Y-111246816D01*
X59429863Y-111452963D01*
X59480974Y-111525957D01*
X60077037Y-110929893D01*
X60094075Y-110993478D01*
X60159901Y-111107492D01*
X60252993Y-111200584D01*
X60367007Y-111266410D01*
X60430590Y-111283447D01*
X59834526Y-111879510D01*
X59907513Y-111930617D01*
X59907521Y-111930621D01*
X60113668Y-112026749D01*
X60113682Y-112026754D01*
X60333389Y-112085624D01*
X60333400Y-112085626D01*
X60559998Y-112105451D01*
X60560002Y-112105451D01*
X60786599Y-112085626D01*
X60786610Y-112085624D01*
X61006317Y-112026754D01*
X61006331Y-112026749D01*
X61212478Y-111930621D01*
X61285471Y-111879509D01*
X60689409Y-111283447D01*
X60752993Y-111266410D01*
X60867007Y-111200584D01*
X60960099Y-111107492D01*
X61025925Y-110993478D01*
X61042962Y-110929894D01*
X61639024Y-111525956D01*
X61690133Y-111452967D01*
X61717341Y-111394620D01*
X61763513Y-111342181D01*
X61830707Y-111323028D01*
X61897588Y-111343243D01*
X61942105Y-111394617D01*
X61969432Y-111453219D01*
X62020363Y-111525956D01*
X62099954Y-111639626D01*
X62260858Y-111800530D01*
X62260861Y-111800532D01*
X62447266Y-111931053D01*
X62653504Y-112027224D01*
X62873308Y-112086120D01*
X63035230Y-112100286D01*
X63099998Y-112105953D01*
X63100000Y-112105953D01*
X63100002Y-112105953D01*
X63156673Y-112100994D01*
X63326692Y-112086120D01*
X63546496Y-112027224D01*
X63752734Y-111931053D01*
X63939139Y-111800532D01*
X64100047Y-111639624D01*
X64230568Y-111453219D01*
X64257618Y-111395209D01*
X64303790Y-111342770D01*
X64370983Y-111323618D01*
X64437865Y-111343833D01*
X64482382Y-111395210D01*
X64509429Y-111453213D01*
X64509432Y-111453219D01*
X64639954Y-111639626D01*
X64800858Y-111800530D01*
X64800861Y-111800532D01*
X64987266Y-111931053D01*
X65193504Y-112027224D01*
X65413308Y-112086120D01*
X65575230Y-112100286D01*
X65639998Y-112105953D01*
X65640000Y-112105953D01*
X65640002Y-112105953D01*
X65696673Y-112100994D01*
X65866692Y-112086120D01*
X66086496Y-112027224D01*
X66292734Y-111931053D01*
X66479139Y-111800532D01*
X66640047Y-111639624D01*
X66770568Y-111453219D01*
X66797618Y-111395209D01*
X66843790Y-111342770D01*
X66910983Y-111323618D01*
X66977865Y-111343833D01*
X67022382Y-111395210D01*
X67049429Y-111453213D01*
X67049432Y-111453219D01*
X67179954Y-111639626D01*
X67340858Y-111800530D01*
X67340861Y-111800532D01*
X67527266Y-111931053D01*
X67733504Y-112027224D01*
X67953308Y-112086120D01*
X68115230Y-112100286D01*
X68179998Y-112105953D01*
X68180000Y-112105953D01*
X68180002Y-112105953D01*
X68236673Y-112100994D01*
X68406692Y-112086120D01*
X68626496Y-112027224D01*
X68832734Y-111931053D01*
X69019139Y-111800532D01*
X69180047Y-111639624D01*
X69310568Y-111453219D01*
X69337618Y-111395209D01*
X69383790Y-111342770D01*
X69450983Y-111323618D01*
X69517865Y-111343833D01*
X69562382Y-111395210D01*
X69589429Y-111453213D01*
X69589432Y-111453219D01*
X69719954Y-111639626D01*
X69880858Y-111800530D01*
X69880861Y-111800532D01*
X70067266Y-111931053D01*
X70273504Y-112027224D01*
X70493308Y-112086120D01*
X70655230Y-112100286D01*
X70719998Y-112105953D01*
X70720000Y-112105953D01*
X70720002Y-112105953D01*
X70776673Y-112100994D01*
X70946692Y-112086120D01*
X71166496Y-112027224D01*
X71372734Y-111931053D01*
X71559139Y-111800532D01*
X71720047Y-111639624D01*
X71850568Y-111453219D01*
X71877618Y-111395209D01*
X71923790Y-111342770D01*
X71990983Y-111323618D01*
X72057865Y-111343833D01*
X72102382Y-111395210D01*
X72129429Y-111453213D01*
X72129432Y-111453219D01*
X72259954Y-111639626D01*
X72420858Y-111800530D01*
X72420861Y-111800532D01*
X72607266Y-111931053D01*
X72813504Y-112027224D01*
X73033308Y-112086120D01*
X73195230Y-112100286D01*
X73259998Y-112105953D01*
X73260000Y-112105953D01*
X73260002Y-112105953D01*
X73316673Y-112100994D01*
X73486692Y-112086120D01*
X73706496Y-112027224D01*
X73912734Y-111931053D01*
X74099139Y-111800532D01*
X74260047Y-111639624D01*
X74390568Y-111453219D01*
X74486739Y-111246981D01*
X74545635Y-111027177D01*
X74565468Y-110800485D01*
X74545635Y-110573793D01*
X74486739Y-110353989D01*
X74390568Y-110147751D01*
X74260047Y-109961346D01*
X74260045Y-109961343D01*
X74099141Y-109800439D01*
X73912734Y-109669917D01*
X73912732Y-109669916D01*
X73706497Y-109573746D01*
X73706488Y-109573743D01*
X73486697Y-109514851D01*
X73486693Y-109514850D01*
X73486692Y-109514850D01*
X73486691Y-109514849D01*
X73486686Y-109514849D01*
X73260002Y-109495017D01*
X73259998Y-109495017D01*
X73033313Y-109514849D01*
X73033302Y-109514851D01*
X72813511Y-109573743D01*
X72813502Y-109573746D01*
X72607267Y-109669916D01*
X72607265Y-109669917D01*
X72420858Y-109800439D01*
X72259954Y-109961343D01*
X72129432Y-110147750D01*
X72129431Y-110147752D01*
X72129315Y-110148001D01*
X72102941Y-110204562D01*
X72102382Y-110205760D01*
X72056209Y-110258199D01*
X71989016Y-110277351D01*
X71922135Y-110257135D01*
X71877618Y-110205760D01*
X71877335Y-110205153D01*
X71850568Y-110147751D01*
X71720047Y-109961346D01*
X71720045Y-109961343D01*
X71559141Y-109800439D01*
X71372734Y-109669917D01*
X71372732Y-109669916D01*
X71166497Y-109573746D01*
X71166488Y-109573743D01*
X70946697Y-109514851D01*
X70946693Y-109514850D01*
X70946692Y-109514850D01*
X70946691Y-109514849D01*
X70946686Y-109514849D01*
X70720002Y-109495017D01*
X70719998Y-109495017D01*
X70493313Y-109514849D01*
X70493302Y-109514851D01*
X70273511Y-109573743D01*
X70273502Y-109573746D01*
X70067267Y-109669916D01*
X70067265Y-109669917D01*
X69880858Y-109800439D01*
X69719954Y-109961343D01*
X69589432Y-110147750D01*
X69589431Y-110147752D01*
X69589315Y-110148001D01*
X69562941Y-110204562D01*
X69562382Y-110205760D01*
X69516209Y-110258199D01*
X69449016Y-110277351D01*
X69382135Y-110257135D01*
X69337618Y-110205760D01*
X69337335Y-110205153D01*
X69310568Y-110147751D01*
X69180047Y-109961346D01*
X69180045Y-109961343D01*
X69019141Y-109800439D01*
X68832734Y-109669917D01*
X68832732Y-109669916D01*
X68626497Y-109573746D01*
X68626488Y-109573743D01*
X68406697Y-109514851D01*
X68406693Y-109514850D01*
X68406692Y-109514850D01*
X68406691Y-109514849D01*
X68406686Y-109514849D01*
X68180002Y-109495017D01*
X68179998Y-109495017D01*
X67953313Y-109514849D01*
X67953302Y-109514851D01*
X67733511Y-109573743D01*
X67733502Y-109573746D01*
X67527267Y-109669916D01*
X67527265Y-109669917D01*
X67340858Y-109800439D01*
X67179954Y-109961343D01*
X67049432Y-110147750D01*
X67049431Y-110147752D01*
X67049315Y-110148001D01*
X67022941Y-110204562D01*
X67022382Y-110205760D01*
X66976209Y-110258199D01*
X66909016Y-110277351D01*
X66842135Y-110257135D01*
X66797618Y-110205760D01*
X66797335Y-110205153D01*
X66770568Y-110147751D01*
X66640047Y-109961346D01*
X66640045Y-109961343D01*
X66479141Y-109800439D01*
X66292734Y-109669917D01*
X66292732Y-109669916D01*
X66086497Y-109573746D01*
X66086488Y-109573743D01*
X65866697Y-109514851D01*
X65866693Y-109514850D01*
X65866692Y-109514850D01*
X65866691Y-109514849D01*
X65866686Y-109514849D01*
X65640002Y-109495017D01*
X65639998Y-109495017D01*
X65413313Y-109514849D01*
X65413302Y-109514851D01*
X65193511Y-109573743D01*
X65193502Y-109573746D01*
X64987267Y-109669916D01*
X64987265Y-109669917D01*
X64800858Y-109800439D01*
X64639954Y-109961343D01*
X64509432Y-110147750D01*
X64509431Y-110147752D01*
X64509315Y-110148001D01*
X64482941Y-110204562D01*
X64482382Y-110205760D01*
X64436209Y-110258199D01*
X64369016Y-110277351D01*
X64302135Y-110257135D01*
X64257618Y-110205760D01*
X64257335Y-110205153D01*
X64230568Y-110147751D01*
X64100047Y-109961346D01*
X64100045Y-109961343D01*
X63939141Y-109800439D01*
X63752734Y-109669917D01*
X63752732Y-109669916D01*
X63546497Y-109573746D01*
X63546488Y-109573743D01*
X63326697Y-109514851D01*
X63326693Y-109514850D01*
X63326692Y-109514850D01*
X63326691Y-109514849D01*
X63326686Y-109514849D01*
X63100002Y-109495017D01*
X63099998Y-109495017D01*
X62873313Y-109514849D01*
X62873302Y-109514851D01*
X62653511Y-109573743D01*
X62653502Y-109573746D01*
X62447267Y-109669916D01*
X62447265Y-109669917D01*
X62260858Y-109800439D01*
X62099954Y-109961343D01*
X61969432Y-110147750D01*
X61969428Y-110147757D01*
X61942105Y-110206351D01*
X61895932Y-110258790D01*
X61828738Y-110277941D01*
X61761858Y-110257724D01*
X61717342Y-110206349D01*
X61690136Y-110148006D01*
X61690132Y-110147998D01*
X61639025Y-110075011D01*
X61042962Y-110671074D01*
X61025925Y-110607492D01*
X60960099Y-110493478D01*
X60867007Y-110400386D01*
X60752993Y-110334560D01*
X60689408Y-110317522D01*
X61285472Y-109721459D01*
X61212478Y-109670348D01*
X61006331Y-109574220D01*
X61006317Y-109574215D01*
X60786610Y-109515345D01*
X60786599Y-109515343D01*
X60560002Y-109495519D01*
X60559998Y-109495519D01*
X60333400Y-109515343D01*
X60333389Y-109515345D01*
X60113682Y-109574215D01*
X60113673Y-109574219D01*
X59907516Y-109670351D01*
X59907512Y-109670353D01*
X59834526Y-109721458D01*
X59834526Y-109721459D01*
X60430590Y-110317522D01*
X60367007Y-110334560D01*
X60252993Y-110400386D01*
X60159901Y-110493478D01*
X60094075Y-110607492D01*
X60077037Y-110671075D01*
X59480973Y-110075011D01*
X59429868Y-110147997D01*
X59429866Y-110148001D01*
X59333734Y-110354158D01*
X59333730Y-110354167D01*
X59274860Y-110573874D01*
X59274858Y-110573885D01*
X59255034Y-110800482D01*
X51161835Y-110800482D01*
X51161835Y-95800483D01*
X61824532Y-95800483D01*
X61824532Y-95800486D01*
X61844364Y-96027171D01*
X61844366Y-96027182D01*
X61903258Y-96246973D01*
X61903261Y-96246982D01*
X61999431Y-96453217D01*
X61999432Y-96453219D01*
X62129954Y-96639626D01*
X62290858Y-96800530D01*
X62290861Y-96800532D01*
X62477266Y-96931053D01*
X62683504Y-97027224D01*
X62903308Y-97086120D01*
X63065230Y-97100286D01*
X63129998Y-97105953D01*
X63130000Y-97105953D01*
X63130002Y-97105953D01*
X63186673Y-97100994D01*
X63356692Y-97086120D01*
X63576496Y-97027224D01*
X63782734Y-96931053D01*
X63969139Y-96800532D01*
X64130047Y-96639624D01*
X64260568Y-96453219D01*
X64287618Y-96395209D01*
X64333790Y-96342770D01*
X64400983Y-96323618D01*
X64467865Y-96343833D01*
X64512382Y-96395210D01*
X64539429Y-96453213D01*
X64539432Y-96453219D01*
X64669954Y-96639626D01*
X64830858Y-96800530D01*
X64830861Y-96800532D01*
X65017266Y-96931053D01*
X65223504Y-97027224D01*
X65443308Y-97086120D01*
X65605230Y-97100286D01*
X65669998Y-97105953D01*
X65670000Y-97105953D01*
X65670002Y-97105953D01*
X65726673Y-97100994D01*
X65896692Y-97086120D01*
X66116496Y-97027224D01*
X66322734Y-96931053D01*
X66509139Y-96800532D01*
X66670047Y-96639624D01*
X66800568Y-96453219D01*
X66827618Y-96395209D01*
X66873790Y-96342770D01*
X66940983Y-96323618D01*
X67007865Y-96343833D01*
X67052382Y-96395210D01*
X67079429Y-96453213D01*
X67079432Y-96453219D01*
X67209954Y-96639626D01*
X67370858Y-96800530D01*
X67370861Y-96800532D01*
X67557266Y-96931053D01*
X67763504Y-97027224D01*
X67983308Y-97086120D01*
X68145230Y-97100286D01*
X68209998Y-97105953D01*
X68210000Y-97105953D01*
X68210002Y-97105953D01*
X68266673Y-97100994D01*
X68436692Y-97086120D01*
X68656496Y-97027224D01*
X68862734Y-96931053D01*
X69049139Y-96800532D01*
X69210047Y-96639624D01*
X69340568Y-96453219D01*
X69367618Y-96395209D01*
X69413790Y-96342770D01*
X69480983Y-96323618D01*
X69547865Y-96343833D01*
X69592382Y-96395210D01*
X69619429Y-96453213D01*
X69619432Y-96453219D01*
X69749954Y-96639626D01*
X69910858Y-96800530D01*
X69910861Y-96800532D01*
X70097266Y-96931053D01*
X70303504Y-97027224D01*
X70523308Y-97086120D01*
X70685230Y-97100286D01*
X70749998Y-97105953D01*
X70750000Y-97105953D01*
X70750002Y-97105953D01*
X70806673Y-97100994D01*
X70976692Y-97086120D01*
X71196496Y-97027224D01*
X71402734Y-96931053D01*
X71589139Y-96800532D01*
X71750047Y-96639624D01*
X71880568Y-96453219D01*
X71976739Y-96246981D01*
X72035635Y-96027177D01*
X72055468Y-95800485D01*
X72053391Y-95776750D01*
X72042974Y-95657677D01*
X72035635Y-95573793D01*
X71976739Y-95353989D01*
X71880568Y-95147751D01*
X71750047Y-94961346D01*
X71750045Y-94961343D01*
X71589141Y-94800439D01*
X71402734Y-94669917D01*
X71402732Y-94669916D01*
X71196497Y-94573746D01*
X71196488Y-94573743D01*
X70976697Y-94514851D01*
X70976693Y-94514850D01*
X70976692Y-94514850D01*
X70976691Y-94514849D01*
X70976686Y-94514849D01*
X70750002Y-94495017D01*
X70749998Y-94495017D01*
X70523313Y-94514849D01*
X70523302Y-94514851D01*
X70303511Y-94573743D01*
X70303502Y-94573746D01*
X70097267Y-94669916D01*
X70097265Y-94669917D01*
X69910858Y-94800439D01*
X69749954Y-94961343D01*
X69619432Y-95147750D01*
X69619431Y-95147752D01*
X69610418Y-95167081D01*
X69593570Y-95203213D01*
X69592382Y-95205760D01*
X69546209Y-95258199D01*
X69479016Y-95277351D01*
X69412135Y-95257135D01*
X69367618Y-95205760D01*
X69366432Y-95203217D01*
X69340568Y-95147751D01*
X69210047Y-94961346D01*
X69210045Y-94961343D01*
X69049141Y-94800439D01*
X68862734Y-94669917D01*
X68862732Y-94669916D01*
X68656497Y-94573746D01*
X68656488Y-94573743D01*
X68436697Y-94514851D01*
X68436693Y-94514850D01*
X68436692Y-94514850D01*
X68436691Y-94514849D01*
X68436686Y-94514849D01*
X68210002Y-94495017D01*
X68209998Y-94495017D01*
X67983313Y-94514849D01*
X67983302Y-94514851D01*
X67763511Y-94573743D01*
X67763502Y-94573746D01*
X67557267Y-94669916D01*
X67557265Y-94669917D01*
X67370858Y-94800439D01*
X67209954Y-94961343D01*
X67079432Y-95147750D01*
X67079431Y-95147752D01*
X67070418Y-95167081D01*
X67053570Y-95203213D01*
X67052382Y-95205760D01*
X67006209Y-95258199D01*
X66939016Y-95277351D01*
X66872135Y-95257135D01*
X66827618Y-95205760D01*
X66826432Y-95203217D01*
X66800568Y-95147751D01*
X66670047Y-94961346D01*
X66670045Y-94961343D01*
X66509141Y-94800439D01*
X66322734Y-94669917D01*
X66322732Y-94669916D01*
X66116497Y-94573746D01*
X66116488Y-94573743D01*
X65896697Y-94514851D01*
X65896693Y-94514850D01*
X65896692Y-94514850D01*
X65896691Y-94514849D01*
X65896686Y-94514849D01*
X65670002Y-94495017D01*
X65669998Y-94495017D01*
X65443313Y-94514849D01*
X65443302Y-94514851D01*
X65223511Y-94573743D01*
X65223502Y-94573746D01*
X65017267Y-94669916D01*
X65017265Y-94669917D01*
X64830858Y-94800439D01*
X64669954Y-94961343D01*
X64539432Y-95147750D01*
X64539431Y-95147752D01*
X64530418Y-95167081D01*
X64513570Y-95203213D01*
X64512382Y-95205760D01*
X64466209Y-95258199D01*
X64399016Y-95277351D01*
X64332135Y-95257135D01*
X64287618Y-95205760D01*
X64286432Y-95203217D01*
X64260568Y-95147751D01*
X64130047Y-94961346D01*
X64130045Y-94961343D01*
X63969141Y-94800439D01*
X63782734Y-94669917D01*
X63782732Y-94669916D01*
X63576497Y-94573746D01*
X63576488Y-94573743D01*
X63356697Y-94514851D01*
X63356693Y-94514850D01*
X63356692Y-94514850D01*
X63356691Y-94514849D01*
X63356686Y-94514849D01*
X63130002Y-94495017D01*
X63129998Y-94495017D01*
X62903313Y-94514849D01*
X62903302Y-94514851D01*
X62683511Y-94573743D01*
X62683502Y-94573746D01*
X62477267Y-94669916D01*
X62477265Y-94669917D01*
X62290858Y-94800439D01*
X62129954Y-94961343D01*
X61999432Y-95147750D01*
X61999431Y-95147752D01*
X61903261Y-95353987D01*
X61903258Y-95353996D01*
X61844366Y-95573787D01*
X61844364Y-95573798D01*
X61824532Y-95800483D01*
X51161835Y-95800483D01*
X51161835Y-89499998D01*
X70467633Y-89499998D01*
X70467633Y-89500001D01*
X70487465Y-89726686D01*
X70487467Y-89726697D01*
X70546359Y-89946488D01*
X70546362Y-89946497D01*
X70642532Y-90152732D01*
X70642533Y-90152734D01*
X70773055Y-90339141D01*
X70933959Y-90500045D01*
X70933962Y-90500047D01*
X71120367Y-90630568D01*
X71326605Y-90726739D01*
X71546409Y-90785635D01*
X71708331Y-90799801D01*
X71773099Y-90805468D01*
X71773101Y-90805468D01*
X71773103Y-90805468D01*
X71829774Y-90800509D01*
X71999793Y-90785635D01*
X72219597Y-90726739D01*
X72425835Y-90630568D01*
X72612240Y-90500047D01*
X72773148Y-90339139D01*
X72903669Y-90152734D01*
X72999840Y-89946496D01*
X73058736Y-89726692D01*
X73078569Y-89500000D01*
X73078569Y-89499998D01*
X80627633Y-89499998D01*
X80627633Y-89500001D01*
X80647465Y-89726686D01*
X80647467Y-89726697D01*
X80706359Y-89946488D01*
X80706362Y-89946497D01*
X80802532Y-90152732D01*
X80802533Y-90152734D01*
X80933055Y-90339141D01*
X81093959Y-90500045D01*
X81093962Y-90500047D01*
X81280367Y-90630568D01*
X81486605Y-90726739D01*
X81706409Y-90785635D01*
X81868331Y-90799801D01*
X81933099Y-90805468D01*
X81933101Y-90805468D01*
X81933103Y-90805468D01*
X81989774Y-90800509D01*
X82159793Y-90785635D01*
X82379597Y-90726739D01*
X82585835Y-90630568D01*
X82772240Y-90500047D01*
X82933148Y-90339139D01*
X83063669Y-90152734D01*
X83159840Y-89946496D01*
X83218736Y-89726692D01*
X83238569Y-89500000D01*
X83218736Y-89273308D01*
X83159840Y-89053504D01*
X83063669Y-88847266D01*
X82933148Y-88660861D01*
X82933146Y-88660858D01*
X82772242Y-88499954D01*
X82585835Y-88369432D01*
X82585833Y-88369431D01*
X82379598Y-88273261D01*
X82379589Y-88273258D01*
X82159798Y-88214366D01*
X82159794Y-88214365D01*
X82159793Y-88214365D01*
X82159792Y-88214364D01*
X82159787Y-88214364D01*
X81933103Y-88194532D01*
X81933099Y-88194532D01*
X81706414Y-88214364D01*
X81706403Y-88214366D01*
X81486612Y-88273258D01*
X81486603Y-88273261D01*
X81280368Y-88369431D01*
X81280366Y-88369432D01*
X81093959Y-88499954D01*
X80933055Y-88660858D01*
X80802533Y-88847265D01*
X80802532Y-88847267D01*
X80706362Y-89053502D01*
X80706359Y-89053511D01*
X80647467Y-89273302D01*
X80647465Y-89273313D01*
X80627633Y-89499998D01*
X73078569Y-89499998D01*
X73058736Y-89273308D01*
X72999840Y-89053504D01*
X72903669Y-88847266D01*
X72773148Y-88660861D01*
X72773146Y-88660858D01*
X72612242Y-88499954D01*
X72425835Y-88369432D01*
X72425833Y-88369431D01*
X72219598Y-88273261D01*
X72219589Y-88273258D01*
X71999798Y-88214366D01*
X71999794Y-88214365D01*
X71999793Y-88214365D01*
X71999792Y-88214364D01*
X71999787Y-88214364D01*
X71773103Y-88194532D01*
X71773099Y-88194532D01*
X71546414Y-88214364D01*
X71546403Y-88214366D01*
X71326612Y-88273258D01*
X71326603Y-88273261D01*
X71120368Y-88369431D01*
X71120366Y-88369432D01*
X70933959Y-88499954D01*
X70773055Y-88660858D01*
X70642533Y-88847265D01*
X70642532Y-88847267D01*
X70546362Y-89053502D01*
X70546359Y-89053511D01*
X70487467Y-89273302D01*
X70487465Y-89273313D01*
X70467633Y-89499998D01*
X51161835Y-89499998D01*
X51161835Y-87090019D01*
X57464532Y-87090019D01*
X57464532Y-87090022D01*
X57484364Y-87316707D01*
X57484366Y-87316718D01*
X57543258Y-87536509D01*
X57543261Y-87536518D01*
X57639431Y-87742753D01*
X57639432Y-87742755D01*
X57769954Y-87929162D01*
X57930858Y-88090066D01*
X57930861Y-88090068D01*
X58117266Y-88220589D01*
X58323504Y-88316760D01*
X58543308Y-88375656D01*
X58705230Y-88389822D01*
X58769998Y-88395489D01*
X58770000Y-88395489D01*
X58770002Y-88395489D01*
X58826673Y-88390530D01*
X58996692Y-88375656D01*
X59216496Y-88316760D01*
X59422734Y-88220589D01*
X59609139Y-88090068D01*
X59770047Y-87929160D01*
X59900568Y-87742755D01*
X59927618Y-87684745D01*
X59973790Y-87632306D01*
X60040983Y-87613154D01*
X60107865Y-87633369D01*
X60152382Y-87684746D01*
X60179429Y-87742749D01*
X60179432Y-87742755D01*
X60309954Y-87929162D01*
X60470858Y-88090066D01*
X60470861Y-88090068D01*
X60657266Y-88220589D01*
X60863504Y-88316760D01*
X61083308Y-88375656D01*
X61245230Y-88389822D01*
X61309998Y-88395489D01*
X61310000Y-88395489D01*
X61310002Y-88395489D01*
X61366673Y-88390530D01*
X61536692Y-88375656D01*
X61756496Y-88316760D01*
X61962734Y-88220589D01*
X62149139Y-88090068D01*
X62310047Y-87929160D01*
X62440568Y-87742755D01*
X62467893Y-87684155D01*
X62514065Y-87631716D01*
X62581258Y-87612564D01*
X62648139Y-87632779D01*
X62692657Y-87684155D01*
X62719864Y-87742501D01*
X62770974Y-87815493D01*
X63469000Y-87117467D01*
X63469000Y-87140181D01*
X63494964Y-87237082D01*
X63545124Y-87323961D01*
X63616060Y-87394897D01*
X63702939Y-87445057D01*
X63799840Y-87471021D01*
X63822553Y-87471021D01*
X63124526Y-88169046D01*
X63197513Y-88220153D01*
X63197521Y-88220157D01*
X63403668Y-88316285D01*
X63403682Y-88316290D01*
X63623389Y-88375160D01*
X63623400Y-88375162D01*
X63849998Y-88394987D01*
X63850002Y-88394987D01*
X64076599Y-88375162D01*
X64076610Y-88375160D01*
X64296317Y-88316290D01*
X64296331Y-88316285D01*
X64502478Y-88220157D01*
X64575471Y-88169045D01*
X63877447Y-87471021D01*
X63900160Y-87471021D01*
X63997061Y-87445057D01*
X64083940Y-87394897D01*
X64154876Y-87323961D01*
X64205036Y-87237082D01*
X64231000Y-87140181D01*
X64231000Y-87117468D01*
X64929024Y-87815492D01*
X64980136Y-87742499D01*
X65076264Y-87536352D01*
X65076269Y-87536338D01*
X65135139Y-87316631D01*
X65135141Y-87316620D01*
X65154966Y-87090023D01*
X65154966Y-87090018D01*
X65135141Y-86863421D01*
X65135139Y-86863410D01*
X65076269Y-86643703D01*
X65076264Y-86643689D01*
X64980136Y-86437542D01*
X64980132Y-86437534D01*
X64929025Y-86364547D01*
X64231000Y-87062572D01*
X64231000Y-87039861D01*
X64205036Y-86942960D01*
X64154876Y-86856081D01*
X64083940Y-86785145D01*
X63997061Y-86734985D01*
X63900160Y-86709021D01*
X63877445Y-86709021D01*
X64575472Y-86010995D01*
X64502478Y-85959884D01*
X64296331Y-85863756D01*
X64296317Y-85863751D01*
X64076610Y-85804881D01*
X64076599Y-85804879D01*
X63850002Y-85785055D01*
X63849998Y-85785055D01*
X63623400Y-85804879D01*
X63623389Y-85804881D01*
X63403682Y-85863751D01*
X63403673Y-85863755D01*
X63197516Y-85959887D01*
X63197512Y-85959889D01*
X63124526Y-86010994D01*
X63124526Y-86010995D01*
X63822553Y-86709021D01*
X63799840Y-86709021D01*
X63702939Y-86734985D01*
X63616060Y-86785145D01*
X63545124Y-86856081D01*
X63494964Y-86942960D01*
X63469000Y-87039861D01*
X63469000Y-87062573D01*
X62770974Y-86364547D01*
X62770973Y-86364547D01*
X62719868Y-86437533D01*
X62719868Y-86437534D01*
X62692657Y-86495888D01*
X62646484Y-86548327D01*
X62579290Y-86567478D01*
X62512409Y-86547262D01*
X62467893Y-86495886D01*
X62440682Y-86437533D01*
X62440568Y-86437287D01*
X62310047Y-86250882D01*
X62310045Y-86250879D01*
X62149141Y-86089975D01*
X61962734Y-85959453D01*
X61962732Y-85959452D01*
X61756497Y-85863282D01*
X61756488Y-85863279D01*
X61536697Y-85804387D01*
X61536693Y-85804386D01*
X61536692Y-85804386D01*
X61536691Y-85804385D01*
X61536686Y-85804385D01*
X61310002Y-85784553D01*
X61309998Y-85784553D01*
X61083313Y-85804385D01*
X61083302Y-85804387D01*
X60863511Y-85863279D01*
X60863502Y-85863282D01*
X60657267Y-85959452D01*
X60657265Y-85959453D01*
X60470858Y-86089975D01*
X60309954Y-86250879D01*
X60179432Y-86437286D01*
X60179431Y-86437288D01*
X60152382Y-86495296D01*
X60106209Y-86547735D01*
X60039016Y-86566887D01*
X59972135Y-86546671D01*
X59927618Y-86495296D01*
X59900568Y-86437287D01*
X59770047Y-86250882D01*
X59770045Y-86250879D01*
X59609141Y-86089975D01*
X59422734Y-85959453D01*
X59422732Y-85959452D01*
X59216497Y-85863282D01*
X59216488Y-85863279D01*
X58996697Y-85804387D01*
X58996693Y-85804386D01*
X58996692Y-85804386D01*
X58996691Y-85804385D01*
X58996686Y-85804385D01*
X58770002Y-85784553D01*
X58769998Y-85784553D01*
X58543313Y-85804385D01*
X58543302Y-85804387D01*
X58323511Y-85863279D01*
X58323502Y-85863282D01*
X58117267Y-85959452D01*
X58117265Y-85959453D01*
X57930858Y-86089975D01*
X57769954Y-86250879D01*
X57639432Y-86437286D01*
X57639431Y-86437288D01*
X57543261Y-86643523D01*
X57543258Y-86643532D01*
X57484366Y-86863323D01*
X57484364Y-86863334D01*
X57464532Y-87090019D01*
X51161835Y-87090019D01*
X51161835Y-82799997D01*
X74315225Y-82799997D01*
X74315225Y-82800002D01*
X74335049Y-83026599D01*
X74335051Y-83026610D01*
X74393921Y-83246317D01*
X74393926Y-83246331D01*
X74490054Y-83452478D01*
X74541165Y-83525472D01*
X75220191Y-82846446D01*
X75220191Y-82852661D01*
X75247450Y-82954394D01*
X75300111Y-83045606D01*
X75374585Y-83120080D01*
X75465797Y-83172741D01*
X75567530Y-83200000D01*
X75573744Y-83200000D01*
X74894717Y-83879025D01*
X74967704Y-83930132D01*
X74967712Y-83930136D01*
X75173859Y-84026264D01*
X75173873Y-84026269D01*
X75393580Y-84085139D01*
X75393591Y-84085141D01*
X75620189Y-84104966D01*
X75620193Y-84104966D01*
X75846790Y-84085141D01*
X75846801Y-84085139D01*
X76066508Y-84026269D01*
X76066522Y-84026264D01*
X76272669Y-83930136D01*
X76345662Y-83879024D01*
X75666638Y-83200000D01*
X75672852Y-83200000D01*
X75774585Y-83172741D01*
X75865797Y-83120080D01*
X75940271Y-83045606D01*
X75992932Y-82954394D01*
X76020191Y-82852661D01*
X76020191Y-82846447D01*
X76699215Y-83525471D01*
X76750324Y-83452482D01*
X76777532Y-83394135D01*
X76823704Y-83341696D01*
X76890898Y-83322543D01*
X76957779Y-83342758D01*
X77002296Y-83394132D01*
X77029623Y-83452734D01*
X77029624Y-83452735D01*
X77160145Y-83639141D01*
X77321049Y-83800045D01*
X77321052Y-83800047D01*
X77507457Y-83930568D01*
X77713695Y-84026739D01*
X77933499Y-84085635D01*
X78095421Y-84099801D01*
X78160189Y-84105468D01*
X78160191Y-84105468D01*
X78160193Y-84105468D01*
X78216864Y-84100509D01*
X78386883Y-84085635D01*
X78606687Y-84026739D01*
X78812925Y-83930568D01*
X78999330Y-83800047D01*
X79160238Y-83639139D01*
X79290759Y-83452734D01*
X79386930Y-83246496D01*
X79445826Y-83026692D01*
X79465659Y-82800000D01*
X79445826Y-82573308D01*
X79386930Y-82353504D01*
X79290759Y-82147266D01*
X79160238Y-81960861D01*
X79160236Y-81960858D01*
X78999332Y-81799954D01*
X78812925Y-81669432D01*
X78812923Y-81669431D01*
X78606688Y-81573261D01*
X78606679Y-81573258D01*
X78386888Y-81514366D01*
X78386884Y-81514365D01*
X78386883Y-81514365D01*
X78386882Y-81514364D01*
X78386877Y-81514364D01*
X78160193Y-81494532D01*
X78160189Y-81494532D01*
X77933504Y-81514364D01*
X77933493Y-81514366D01*
X77713702Y-81573258D01*
X77713693Y-81573261D01*
X77507458Y-81669431D01*
X77507456Y-81669432D01*
X77321049Y-81799954D01*
X77160145Y-81960858D01*
X77029623Y-82147265D01*
X77029619Y-82147272D01*
X77002296Y-82205866D01*
X76956123Y-82258305D01*
X76888929Y-82277456D01*
X76822049Y-82257239D01*
X76777533Y-82205864D01*
X76750327Y-82147521D01*
X76750323Y-82147513D01*
X76699216Y-82074526D01*
X76020191Y-82753551D01*
X76020191Y-82747339D01*
X75992932Y-82645606D01*
X75940271Y-82554394D01*
X75865797Y-82479920D01*
X75774585Y-82427259D01*
X75672852Y-82400000D01*
X75666636Y-82400000D01*
X76345663Y-81720974D01*
X76272669Y-81669863D01*
X76066522Y-81573735D01*
X76066508Y-81573730D01*
X75846801Y-81514860D01*
X75846790Y-81514858D01*
X75620193Y-81495034D01*
X75620189Y-81495034D01*
X75393591Y-81514858D01*
X75393580Y-81514860D01*
X75173873Y-81573730D01*
X75173864Y-81573734D01*
X74967707Y-81669866D01*
X74967703Y-81669868D01*
X74894717Y-81720973D01*
X74894717Y-81720974D01*
X75573744Y-82400000D01*
X75567530Y-82400000D01*
X75465797Y-82427259D01*
X75374585Y-82479920D01*
X75300111Y-82554394D01*
X75247450Y-82645606D01*
X75220191Y-82747339D01*
X75220191Y-82753552D01*
X74541165Y-82074526D01*
X74541164Y-82074526D01*
X74490059Y-82147512D01*
X74490057Y-82147516D01*
X74393925Y-82353673D01*
X74393921Y-82353682D01*
X74335051Y-82573389D01*
X74335049Y-82573400D01*
X74315225Y-82799997D01*
X51161835Y-82799997D01*
X51161835Y-63643721D01*
X73147931Y-63643721D01*
X73147931Y-65439456D01*
X73147932Y-65439462D01*
X73154339Y-65499069D01*
X73204633Y-65633914D01*
X73204637Y-65633921D01*
X73290883Y-65749130D01*
X73290886Y-65749133D01*
X73406095Y-65835379D01*
X73406102Y-65835383D01*
X73540948Y-65885677D01*
X73540947Y-65885677D01*
X73547875Y-65886421D01*
X73600558Y-65892086D01*
X75396303Y-65892085D01*
X75455914Y-65885677D01*
X75590762Y-65835382D01*
X75705977Y-65749132D01*
X75792227Y-65633917D01*
X75841433Y-65501987D01*
X75883303Y-65446054D01*
X75948768Y-65421636D01*
X76017041Y-65436487D01*
X76045296Y-65457639D01*
X76167348Y-65579691D01*
X76360852Y-65715186D01*
X76574938Y-65815015D01*
X76574947Y-65815019D01*
X76788431Y-65872220D01*
X76788431Y-64974598D01*
X76845438Y-65007511D01*
X76972605Y-65041586D01*
X77104257Y-65041586D01*
X77231424Y-65007511D01*
X77288431Y-64974598D01*
X77288431Y-65872219D01*
X77501914Y-65815019D01*
X77501923Y-65815015D01*
X77716009Y-65715186D01*
X77909513Y-65579691D01*
X78076536Y-65412668D01*
X78206550Y-65226991D01*
X78261127Y-65183367D01*
X78330626Y-65176174D01*
X78392980Y-65207696D01*
X78409700Y-65226991D01*
X78539936Y-65412987D01*
X78707030Y-65580081D01*
X78803815Y-65647851D01*
X78900596Y-65715618D01*
X78900598Y-65715619D01*
X78900601Y-65715621D01*
X79114768Y-65815489D01*
X79343023Y-65876649D01*
X79519465Y-65892086D01*
X79578430Y-65897245D01*
X79578431Y-65897245D01*
X79578432Y-65897245D01*
X79637397Y-65892086D01*
X79813839Y-65876649D01*
X80042094Y-65815489D01*
X80256261Y-65715621D01*
X80449832Y-65580081D01*
X80616926Y-65412987D01*
X80752466Y-65219416D01*
X80852334Y-65005249D01*
X80913494Y-64776994D01*
X80934090Y-64541586D01*
X80913494Y-64306178D01*
X80852334Y-64077923D01*
X80752466Y-63863757D01*
X80747162Y-63856181D01*
X80616925Y-63670183D01*
X80449833Y-63503092D01*
X80449826Y-63503087D01*
X80256265Y-63367553D01*
X80256261Y-63367551D01*
X80256259Y-63367550D01*
X80042094Y-63267683D01*
X80042090Y-63267682D01*
X80042086Y-63267680D01*
X79813844Y-63206524D01*
X79813834Y-63206522D01*
X79578432Y-63185927D01*
X79578430Y-63185927D01*
X79343027Y-63206522D01*
X79343017Y-63206524D01*
X79114775Y-63267680D01*
X79114766Y-63267684D01*
X78900602Y-63367550D01*
X78900600Y-63367551D01*
X78707028Y-63503091D01*
X78539939Y-63670180D01*
X78409700Y-63856181D01*
X78355123Y-63899805D01*
X78285624Y-63906998D01*
X78223270Y-63875476D01*
X78206550Y-63856180D01*
X78076544Y-63670512D01*
X78076539Y-63670506D01*
X77909513Y-63503480D01*
X77716009Y-63367985D01*
X77501923Y-63268156D01*
X77501917Y-63268153D01*
X77288431Y-63210950D01*
X77288431Y-64108574D01*
X77231424Y-64075661D01*
X77104257Y-64041586D01*
X76972605Y-64041586D01*
X76845438Y-64075661D01*
X76788431Y-64108574D01*
X76788431Y-63210950D01*
X76788430Y-63210950D01*
X76574944Y-63268153D01*
X76574938Y-63268156D01*
X76360853Y-63367985D01*
X76360851Y-63367986D01*
X76167357Y-63503472D01*
X76045296Y-63625533D01*
X75983973Y-63659017D01*
X75914281Y-63654033D01*
X75858348Y-63612161D01*
X75841433Y-63581184D01*
X75792228Y-63449257D01*
X75792224Y-63449250D01*
X75705978Y-63334041D01*
X75705975Y-63334038D01*
X75590766Y-63247792D01*
X75590759Y-63247788D01*
X75455913Y-63197494D01*
X75455914Y-63197494D01*
X75396314Y-63191087D01*
X75396312Y-63191086D01*
X75396304Y-63191086D01*
X75396295Y-63191086D01*
X73600560Y-63191086D01*
X73600554Y-63191087D01*
X73540947Y-63197494D01*
X73406102Y-63247788D01*
X73406095Y-63247792D01*
X73290886Y-63334038D01*
X73290883Y-63334041D01*
X73204637Y-63449250D01*
X73204633Y-63449257D01*
X73154339Y-63584103D01*
X73147932Y-63643702D01*
X73147931Y-63643721D01*
X51161835Y-63643721D01*
X51161835Y-59952135D01*
X57344979Y-59952135D01*
X57344979Y-61847870D01*
X57344980Y-61847876D01*
X57351387Y-61907483D01*
X57401681Y-62042328D01*
X57401685Y-62042335D01*
X57487931Y-62157544D01*
X57487934Y-62157547D01*
X57603143Y-62243793D01*
X57603150Y-62243797D01*
X57737996Y-62294091D01*
X57737995Y-62294091D01*
X57744923Y-62294835D01*
X57797606Y-62300500D01*
X59693351Y-62300499D01*
X59752962Y-62294091D01*
X59887810Y-62243796D01*
X60003025Y-62157546D01*
X60089275Y-62042331D01*
X60107571Y-61993274D01*
X60149440Y-61937342D01*
X60214904Y-61912924D01*
X60283178Y-61927775D01*
X60299915Y-61938755D01*
X60476844Y-62076464D01*
X60476850Y-62076468D01*
X60476853Y-62076470D01*
X60504979Y-62091691D01*
X60680131Y-62186479D01*
X60680976Y-62186936D01*
X60774981Y-62219208D01*
X60900494Y-62262297D01*
X60900496Y-62262297D01*
X60900498Y-62262298D01*
X61129430Y-62300500D01*
X61129431Y-62300500D01*
X61361527Y-62300500D01*
X61361528Y-62300500D01*
X61590460Y-62262298D01*
X61809982Y-62186936D01*
X62014105Y-62076470D01*
X62014649Y-62076047D01*
X62120992Y-61993277D01*
X62197263Y-61933913D01*
X62354458Y-61763153D01*
X62391968Y-61705738D01*
X62445114Y-61660382D01*
X62514345Y-61650958D01*
X62577681Y-61680459D01*
X62592393Y-61697437D01*
X62594290Y-61697634D01*
X63262516Y-61029408D01*
X63279554Y-61092993D01*
X63345380Y-61207007D01*
X63438472Y-61300099D01*
X63552486Y-61365925D01*
X63616069Y-61382962D01*
X62946680Y-62052351D01*
X62977128Y-62076050D01*
X63181176Y-62186476D01*
X63181185Y-62186479D01*
X63400618Y-62261811D01*
X63629472Y-62300000D01*
X63861486Y-62300000D01*
X64090339Y-62261811D01*
X64309772Y-62186479D01*
X64309780Y-62186476D01*
X64513834Y-62076047D01*
X64544276Y-62052351D01*
X64544277Y-62052350D01*
X63874889Y-61382962D01*
X63938472Y-61365925D01*
X64052486Y-61300099D01*
X64145578Y-61207007D01*
X64211404Y-61092993D01*
X64228441Y-61029409D01*
X64896665Y-61697634D01*
X64980963Y-61568606D01*
X65074161Y-61356135D01*
X65131117Y-61131218D01*
X65150277Y-60900005D01*
X65150277Y-60899994D01*
X65131117Y-60668781D01*
X65074161Y-60443864D01*
X64980962Y-60231390D01*
X64896665Y-60102364D01*
X64228441Y-60770589D01*
X64211404Y-60707007D01*
X64145578Y-60592993D01*
X64052486Y-60499901D01*
X63938472Y-60434075D01*
X63874888Y-60417037D01*
X64305644Y-59986280D01*
X73174500Y-59986280D01*
X73174500Y-61782015D01*
X73174501Y-61782021D01*
X73180908Y-61841628D01*
X73231202Y-61976473D01*
X73231206Y-61976480D01*
X73317452Y-62091689D01*
X73317455Y-62091692D01*
X73432664Y-62177938D01*
X73432671Y-62177942D01*
X73567517Y-62228236D01*
X73567516Y-62228236D01*
X73574444Y-62228980D01*
X73627127Y-62234645D01*
X75422872Y-62234644D01*
X75482483Y-62228236D01*
X75617331Y-62177941D01*
X75732546Y-62091691D01*
X75818796Y-61976476D01*
X75868002Y-61844546D01*
X75909872Y-61788613D01*
X75975337Y-61764195D01*
X76043610Y-61779046D01*
X76071865Y-61800198D01*
X76193917Y-61922250D01*
X76387421Y-62057745D01*
X76601507Y-62157574D01*
X76601516Y-62157578D01*
X76815000Y-62214779D01*
X76815000Y-61317157D01*
X76872007Y-61350070D01*
X76999174Y-61384145D01*
X77130826Y-61384145D01*
X77257993Y-61350070D01*
X77315000Y-61317157D01*
X77315000Y-62214778D01*
X77528483Y-62157578D01*
X77528492Y-62157574D01*
X77742578Y-62057745D01*
X77936082Y-61922250D01*
X78103105Y-61755227D01*
X78233119Y-61569550D01*
X78287696Y-61525926D01*
X78357195Y-61518733D01*
X78419549Y-61550255D01*
X78436269Y-61569550D01*
X78566505Y-61755546D01*
X78733599Y-61922640D01*
X78830384Y-61990410D01*
X78927165Y-62058177D01*
X78927167Y-62058178D01*
X78927170Y-62058180D01*
X79141337Y-62158048D01*
X79369592Y-62219208D01*
X79546034Y-62234645D01*
X79604999Y-62239804D01*
X79605000Y-62239804D01*
X79605001Y-62239804D01*
X79663966Y-62234645D01*
X79840408Y-62219208D01*
X80068663Y-62158048D01*
X80282830Y-62058180D01*
X80476401Y-61922640D01*
X80643495Y-61755546D01*
X80779035Y-61561975D01*
X80878903Y-61347808D01*
X80940063Y-61119553D01*
X80960659Y-60884145D01*
X80940063Y-60648737D01*
X80878903Y-60420482D01*
X80779035Y-60206316D01*
X80773731Y-60198740D01*
X80643494Y-60012742D01*
X80476402Y-59845651D01*
X80476395Y-59845646D01*
X80282834Y-59710112D01*
X80282830Y-59710110D01*
X80265642Y-59702095D01*
X80068663Y-59610242D01*
X80068659Y-59610241D01*
X80068655Y-59610239D01*
X79840413Y-59549083D01*
X79840403Y-59549081D01*
X79605001Y-59528486D01*
X79604999Y-59528486D01*
X79369596Y-59549081D01*
X79369586Y-59549083D01*
X79141344Y-59610239D01*
X79141335Y-59610243D01*
X78927171Y-59710109D01*
X78927169Y-59710110D01*
X78733597Y-59845650D01*
X78566508Y-60012739D01*
X78436269Y-60198740D01*
X78381692Y-60242364D01*
X78312193Y-60249557D01*
X78249839Y-60218035D01*
X78233119Y-60198739D01*
X78103113Y-60013071D01*
X78103108Y-60013065D01*
X77936082Y-59846039D01*
X77742578Y-59710544D01*
X77528492Y-59610715D01*
X77528486Y-59610712D01*
X77315000Y-59553509D01*
X77315000Y-60451133D01*
X77257993Y-60418220D01*
X77130826Y-60384145D01*
X76999174Y-60384145D01*
X76872007Y-60418220D01*
X76815000Y-60451133D01*
X76815000Y-59553509D01*
X76814999Y-59553509D01*
X76601513Y-59610712D01*
X76601507Y-59610715D01*
X76387422Y-59710544D01*
X76387420Y-59710545D01*
X76193926Y-59846031D01*
X76071865Y-59968092D01*
X76010542Y-60001576D01*
X75940850Y-59996592D01*
X75884917Y-59954720D01*
X75868002Y-59923743D01*
X75818797Y-59791816D01*
X75818793Y-59791809D01*
X75732547Y-59676600D01*
X75732544Y-59676597D01*
X75617335Y-59590351D01*
X75617328Y-59590347D01*
X75482482Y-59540053D01*
X75482483Y-59540053D01*
X75422883Y-59533646D01*
X75422881Y-59533645D01*
X75422873Y-59533645D01*
X75422864Y-59533645D01*
X73627129Y-59533645D01*
X73627123Y-59533646D01*
X73567516Y-59540053D01*
X73432671Y-59590347D01*
X73432664Y-59590351D01*
X73317455Y-59676597D01*
X73317452Y-59676600D01*
X73231206Y-59791809D01*
X73231202Y-59791816D01*
X73180908Y-59926662D01*
X73174501Y-59986261D01*
X73174500Y-59986280D01*
X64305644Y-59986280D01*
X64544276Y-59747647D01*
X64544276Y-59747645D01*
X64513839Y-59723955D01*
X64513833Y-59723951D01*
X64309781Y-59613523D01*
X64309772Y-59613520D01*
X64090339Y-59538188D01*
X63861486Y-59500000D01*
X63629472Y-59500000D01*
X63400618Y-59538188D01*
X63181185Y-59613520D01*
X63181176Y-59613523D01*
X62977129Y-59723949D01*
X62946679Y-59747647D01*
X63616070Y-60417037D01*
X63552486Y-60434075D01*
X63438472Y-60499901D01*
X63345380Y-60592993D01*
X63279554Y-60707007D01*
X63262516Y-60770590D01*
X62594290Y-60102364D01*
X62589509Y-60102860D01*
X62546439Y-60139617D01*
X62477208Y-60149041D01*
X62413872Y-60119539D01*
X62391968Y-60094260D01*
X62354462Y-60036852D01*
X62354459Y-60036849D01*
X62354458Y-60036847D01*
X62197263Y-59866087D01*
X62197258Y-59866083D01*
X62197256Y-59866081D01*
X62014113Y-59723535D01*
X62014107Y-59723531D01*
X61809983Y-59613064D01*
X61809974Y-59613061D01*
X61590463Y-59537702D01*
X61399929Y-59505908D01*
X61361528Y-59499500D01*
X61129430Y-59499500D01*
X61091029Y-59505908D01*
X60900494Y-59537702D01*
X60680983Y-59613061D01*
X60680974Y-59613064D01*
X60476851Y-59723531D01*
X60299915Y-59861245D01*
X60234921Y-59886887D01*
X60166381Y-59873320D01*
X60116056Y-59824852D01*
X60107571Y-59806723D01*
X60089277Y-59757673D01*
X60089272Y-59757664D01*
X60003026Y-59642455D01*
X60003023Y-59642452D01*
X59887814Y-59556206D01*
X59887807Y-59556202D01*
X59752961Y-59505908D01*
X59752962Y-59505908D01*
X59693362Y-59499501D01*
X59693360Y-59499500D01*
X59693352Y-59499500D01*
X59693343Y-59499500D01*
X57797608Y-59499500D01*
X57797602Y-59499501D01*
X57737995Y-59505908D01*
X57603150Y-59556202D01*
X57603143Y-59556206D01*
X57487934Y-59642452D01*
X57487931Y-59642455D01*
X57401685Y-59757664D01*
X57401681Y-59757671D01*
X57351387Y-59892517D01*
X57344980Y-59952116D01*
X57344979Y-59952135D01*
X51161835Y-59952135D01*
X51161835Y-53399994D01*
X53990035Y-53399994D01*
X53990035Y-53400005D01*
X54009789Y-53714004D01*
X54009790Y-53714011D01*
X54068749Y-54023083D01*
X54165976Y-54322316D01*
X54165978Y-54322321D01*
X54299940Y-54607003D01*
X54299943Y-54607009D01*
X54468530Y-54872661D01*
X54468533Y-54872665D01*
X54669085Y-55115090D01*
X54669087Y-55115092D01*
X54669089Y-55115094D01*
X54776326Y-55215796D01*
X54898447Y-55330476D01*
X54898457Y-55330484D01*
X55152983Y-55515408D01*
X55152988Y-55515410D01*
X55152995Y-55515416D01*
X55428713Y-55666994D01*
X55428718Y-55666996D01*
X55428720Y-55666997D01*
X55428721Y-55666998D01*
X55721250Y-55782818D01*
X55721253Y-55782819D01*
X56026002Y-55861065D01*
X56026006Y-55861066D01*
X56091489Y-55869338D01*
X56338149Y-55900499D01*
X56338158Y-55900499D01*
X56338161Y-55900500D01*
X56338163Y-55900500D01*
X56652795Y-55900500D01*
X56652797Y-55900500D01*
X56652800Y-55900499D01*
X56652808Y-55900499D01*
X56839072Y-55876968D01*
X56964952Y-55861066D01*
X57269704Y-55782819D01*
X57269707Y-55782818D01*
X57562236Y-55666998D01*
X57562237Y-55666997D01*
X57562235Y-55666997D01*
X57562245Y-55666994D01*
X57837963Y-55515416D01*
X58092509Y-55330478D01*
X58321869Y-55115094D01*
X58522426Y-54872663D01*
X58691016Y-54607007D01*
X58824982Y-54322315D01*
X58922210Y-54023079D01*
X58981167Y-53714015D01*
X58981168Y-53714004D01*
X59000923Y-53400005D01*
X59000923Y-53399994D01*
X63490035Y-53399994D01*
X63490035Y-53400005D01*
X63509789Y-53714004D01*
X63509790Y-53714011D01*
X63568749Y-54023083D01*
X63665976Y-54322316D01*
X63665978Y-54322321D01*
X63799940Y-54607003D01*
X63799943Y-54607009D01*
X63968530Y-54872661D01*
X63968533Y-54872665D01*
X64169085Y-55115090D01*
X64169087Y-55115092D01*
X64169089Y-55115094D01*
X64276326Y-55215796D01*
X64398447Y-55330476D01*
X64398457Y-55330484D01*
X64652983Y-55515408D01*
X64652988Y-55515410D01*
X64652995Y-55515416D01*
X64928713Y-55666994D01*
X64928718Y-55666996D01*
X64928720Y-55666997D01*
X64928721Y-55666998D01*
X65221250Y-55782818D01*
X65221253Y-55782819D01*
X65526002Y-55861065D01*
X65526006Y-55861066D01*
X65591489Y-55869338D01*
X65838149Y-55900499D01*
X65838158Y-55900499D01*
X65838161Y-55900500D01*
X65838163Y-55900500D01*
X66152795Y-55900500D01*
X66152797Y-55900500D01*
X66152800Y-55900499D01*
X66152808Y-55900499D01*
X66339072Y-55876968D01*
X66464952Y-55861066D01*
X66769704Y-55782819D01*
X66769707Y-55782818D01*
X67062236Y-55666998D01*
X67062237Y-55666997D01*
X67062235Y-55666997D01*
X67062245Y-55666994D01*
X67337963Y-55515416D01*
X67592509Y-55330478D01*
X67821869Y-55115094D01*
X68022426Y-54872663D01*
X68191016Y-54607007D01*
X68324982Y-54322315D01*
X68422210Y-54023079D01*
X68481167Y-53714015D01*
X68481168Y-53714004D01*
X68500923Y-53400005D01*
X68500923Y-53399994D01*
X68481168Y-53085995D01*
X68481167Y-53085988D01*
X68481167Y-53085985D01*
X68422210Y-52776921D01*
X68324982Y-52477685D01*
X68191016Y-52192993D01*
X68022426Y-51927337D01*
X68022424Y-51927334D01*
X67821872Y-51684909D01*
X67821870Y-51684907D01*
X67592510Y-51469523D01*
X67592500Y-51469515D01*
X67496813Y-51399994D01*
X72294357Y-51399994D01*
X72294357Y-51400005D01*
X72314890Y-51647812D01*
X72314892Y-51647824D01*
X72375936Y-51888881D01*
X72475826Y-52116606D01*
X72611833Y-52324782D01*
X72611836Y-52324785D01*
X72780256Y-52507738D01*
X72976491Y-52660474D01*
X73195190Y-52778828D01*
X73430386Y-52859571D01*
X73675665Y-52900500D01*
X73924335Y-52900500D01*
X74169614Y-52859571D01*
X74404810Y-52778828D01*
X74623509Y-52660474D01*
X74819744Y-52507738D01*
X74988164Y-52324785D01*
X75124173Y-52116607D01*
X75224063Y-51888881D01*
X75285108Y-51647821D01*
X75297122Y-51502836D01*
X75305643Y-51400005D01*
X75305643Y-51399994D01*
X78794357Y-51399994D01*
X78794357Y-51400005D01*
X78814890Y-51647812D01*
X78814892Y-51647824D01*
X78875936Y-51888881D01*
X78975826Y-52116606D01*
X79111833Y-52324782D01*
X79111836Y-52324785D01*
X79280256Y-52507738D01*
X79476491Y-52660474D01*
X79695190Y-52778828D01*
X79930386Y-52859571D01*
X80175665Y-52900500D01*
X80424335Y-52900500D01*
X80669614Y-52859571D01*
X80904810Y-52778828D01*
X81123509Y-52660474D01*
X81319744Y-52507738D01*
X81488164Y-52324785D01*
X81624173Y-52116607D01*
X81724063Y-51888881D01*
X81785108Y-51647821D01*
X81797122Y-51502836D01*
X81805643Y-51400005D01*
X81805643Y-51399994D01*
X81785109Y-51152187D01*
X81785107Y-51152175D01*
X81724063Y-50911118D01*
X81624173Y-50683393D01*
X81488166Y-50475217D01*
X81426766Y-50408519D01*
X81319744Y-50292262D01*
X81123509Y-50139526D01*
X81123507Y-50139525D01*
X81123506Y-50139524D01*
X80904811Y-50021172D01*
X80904802Y-50021169D01*
X80669616Y-49940429D01*
X80424335Y-49899500D01*
X80175665Y-49899500D01*
X79930383Y-49940429D01*
X79695197Y-50021169D01*
X79695188Y-50021172D01*
X79476493Y-50139524D01*
X79280257Y-50292261D01*
X79111833Y-50475217D01*
X78975826Y-50683393D01*
X78875936Y-50911118D01*
X78814892Y-51152175D01*
X78814890Y-51152187D01*
X78794357Y-51399994D01*
X75305643Y-51399994D01*
X75285109Y-51152187D01*
X75285107Y-51152175D01*
X75224063Y-50911118D01*
X75124173Y-50683393D01*
X74988166Y-50475217D01*
X74926766Y-50408519D01*
X74819744Y-50292262D01*
X74623509Y-50139526D01*
X74623507Y-50139525D01*
X74623506Y-50139524D01*
X74404811Y-50021172D01*
X74404802Y-50021169D01*
X74169616Y-49940429D01*
X73924335Y-49899500D01*
X73675665Y-49899500D01*
X73430383Y-49940429D01*
X73195197Y-50021169D01*
X73195188Y-50021172D01*
X72976493Y-50139524D01*
X72780257Y-50292261D01*
X72611833Y-50475217D01*
X72475826Y-50683393D01*
X72375936Y-50911118D01*
X72314892Y-51152175D01*
X72314890Y-51152187D01*
X72294357Y-51399994D01*
X67496813Y-51399994D01*
X67337974Y-51284591D01*
X67337967Y-51284586D01*
X67337963Y-51284584D01*
X67062245Y-51133006D01*
X67062242Y-51133004D01*
X67062237Y-51133002D01*
X67062236Y-51133001D01*
X66769707Y-51017181D01*
X66769704Y-51017180D01*
X66464955Y-50938934D01*
X66464942Y-50938932D01*
X66152808Y-50899500D01*
X66152797Y-50899500D01*
X65838161Y-50899500D01*
X65838149Y-50899500D01*
X65526015Y-50938932D01*
X65526002Y-50938934D01*
X65221253Y-51017180D01*
X65221250Y-51017181D01*
X64928721Y-51133001D01*
X64928720Y-51133002D01*
X64652995Y-51284584D01*
X64652983Y-51284591D01*
X64398457Y-51469515D01*
X64398447Y-51469523D01*
X64169087Y-51684907D01*
X64169085Y-51684909D01*
X63968533Y-51927334D01*
X63968530Y-51927338D01*
X63799943Y-52192990D01*
X63799940Y-52192996D01*
X63665978Y-52477678D01*
X63665976Y-52477683D01*
X63568749Y-52776916D01*
X63509790Y-53085988D01*
X63509789Y-53085995D01*
X63490035Y-53399994D01*
X59000923Y-53399994D01*
X58981168Y-53085995D01*
X58981167Y-53085988D01*
X58981167Y-53085985D01*
X58922210Y-52776921D01*
X58824982Y-52477685D01*
X58691016Y-52192993D01*
X58522426Y-51927337D01*
X58522424Y-51927334D01*
X58321872Y-51684909D01*
X58321870Y-51684907D01*
X58092510Y-51469523D01*
X58092500Y-51469515D01*
X57837974Y-51284591D01*
X57837967Y-51284586D01*
X57837963Y-51284584D01*
X57562245Y-51133006D01*
X57562242Y-51133004D01*
X57562237Y-51133002D01*
X57562236Y-51133001D01*
X57269707Y-51017181D01*
X57269704Y-51017180D01*
X56964955Y-50938934D01*
X56964942Y-50938932D01*
X56652808Y-50899500D01*
X56652797Y-50899500D01*
X56338161Y-50899500D01*
X56338149Y-50899500D01*
X56026015Y-50938932D01*
X56026002Y-50938934D01*
X55721253Y-51017180D01*
X55721250Y-51017181D01*
X55428721Y-51133001D01*
X55428720Y-51133002D01*
X55152995Y-51284584D01*
X55152983Y-51284591D01*
X54898457Y-51469515D01*
X54898447Y-51469523D01*
X54669087Y-51684907D01*
X54669085Y-51684909D01*
X54468533Y-51927334D01*
X54468530Y-51927338D01*
X54299943Y-52192990D01*
X54299940Y-52192996D01*
X54165978Y-52477678D01*
X54165976Y-52477683D01*
X54068749Y-52776916D01*
X54009790Y-53085988D01*
X54009789Y-53085995D01*
X53990035Y-53399994D01*
X51161835Y-53399994D01*
X51161835Y-46899994D01*
X72294357Y-46899994D01*
X72294357Y-46900005D01*
X72314890Y-47147812D01*
X72314892Y-47147824D01*
X72375936Y-47388881D01*
X72475826Y-47616606D01*
X72611833Y-47824782D01*
X72611836Y-47824785D01*
X72780256Y-48007738D01*
X72976491Y-48160474D01*
X73195190Y-48278828D01*
X73430386Y-48359571D01*
X73675665Y-48400500D01*
X73924335Y-48400500D01*
X74169614Y-48359571D01*
X74404810Y-48278828D01*
X74623509Y-48160474D01*
X74819744Y-48007738D01*
X74988164Y-47824785D01*
X75124173Y-47616607D01*
X75224063Y-47388881D01*
X75285108Y-47147821D01*
X75297183Y-47002098D01*
X75305643Y-46900005D01*
X75305643Y-46899994D01*
X78794357Y-46899994D01*
X78794357Y-46900005D01*
X78814890Y-47147812D01*
X78814892Y-47147824D01*
X78875936Y-47388881D01*
X78975826Y-47616606D01*
X79111833Y-47824782D01*
X79111836Y-47824785D01*
X79280256Y-48007738D01*
X79476491Y-48160474D01*
X79695190Y-48278828D01*
X79930386Y-48359571D01*
X80175665Y-48400500D01*
X80424335Y-48400500D01*
X80669614Y-48359571D01*
X80904810Y-48278828D01*
X81123509Y-48160474D01*
X81319744Y-48007738D01*
X81488164Y-47824785D01*
X81624173Y-47616607D01*
X81724063Y-47388881D01*
X81785108Y-47147821D01*
X81797183Y-47002098D01*
X81805643Y-46900005D01*
X81805643Y-46899994D01*
X81785109Y-46652187D01*
X81785107Y-46652175D01*
X81724063Y-46411118D01*
X81624173Y-46183393D01*
X81488166Y-45975217D01*
X81446990Y-45930488D01*
X81319744Y-45792262D01*
X81123509Y-45639526D01*
X81123507Y-45639525D01*
X81123506Y-45639524D01*
X80904811Y-45521172D01*
X80904802Y-45521169D01*
X80669616Y-45440429D01*
X80424335Y-45399500D01*
X80175665Y-45399500D01*
X79930383Y-45440429D01*
X79695197Y-45521169D01*
X79695188Y-45521172D01*
X79476493Y-45639524D01*
X79280257Y-45792261D01*
X79111833Y-45975217D01*
X78975826Y-46183393D01*
X78875936Y-46411118D01*
X78814892Y-46652175D01*
X78814890Y-46652187D01*
X78794357Y-46899994D01*
X75305643Y-46899994D01*
X75285109Y-46652187D01*
X75285107Y-46652175D01*
X75224063Y-46411118D01*
X75124173Y-46183393D01*
X74988166Y-45975217D01*
X74946990Y-45930488D01*
X74819744Y-45792262D01*
X74623509Y-45639526D01*
X74623507Y-45639525D01*
X74623506Y-45639524D01*
X74404811Y-45521172D01*
X74404802Y-45521169D01*
X74169616Y-45440429D01*
X73924335Y-45399500D01*
X73675665Y-45399500D01*
X73430383Y-45440429D01*
X73195197Y-45521169D01*
X73195188Y-45521172D01*
X72976493Y-45639524D01*
X72780257Y-45792261D01*
X72611833Y-45975217D01*
X72475826Y-46183393D01*
X72375936Y-46411118D01*
X72314892Y-46652175D01*
X72314890Y-46652187D01*
X72294357Y-46899994D01*
X51161835Y-46899994D01*
X51161835Y-39954800D01*
X75944785Y-39954800D01*
X75944785Y-39954801D01*
X75963602Y-40157883D01*
X76019417Y-40354048D01*
X76019422Y-40354061D01*
X76110327Y-40536622D01*
X76233237Y-40699382D01*
X76383958Y-40836781D01*
X76383960Y-40836783D01*
X76482610Y-40897864D01*
X76557363Y-40944149D01*
X76747544Y-41017825D01*
X76948024Y-41055301D01*
X76948026Y-41055301D01*
X77151974Y-41055301D01*
X77151976Y-41055301D01*
X77352456Y-41017825D01*
X77542637Y-40944149D01*
X77716041Y-40836782D01*
X77866764Y-40699380D01*
X77911252Y-40640468D01*
X87703259Y-40640468D01*
X87703259Y-41840486D01*
X87703260Y-41840503D01*
X87713759Y-41943281D01*
X87713760Y-41943284D01*
X87768944Y-42109816D01*
X87768945Y-42109819D01*
X87861047Y-42259141D01*
X87985103Y-42383197D01*
X88134425Y-42475299D01*
X88216913Y-42502633D01*
X88274358Y-42542404D01*
X88301181Y-42606920D01*
X88288866Y-42675696D01*
X88250795Y-42720655D01*
X88156872Y-42788895D01*
X88156863Y-42788902D01*
X88012176Y-42933589D01*
X88012176Y-42933590D01*
X87891899Y-43099135D01*
X87799003Y-43281455D01*
X87735768Y-43476071D01*
X87727150Y-43530485D01*
X88770747Y-43530485D01*
X88737834Y-43587492D01*
X88703759Y-43714659D01*
X88703759Y-43846311D01*
X88737834Y-43973478D01*
X88770747Y-44030485D01*
X87727150Y-44030485D01*
X87735768Y-44084898D01*
X87799003Y-44279514D01*
X87891899Y-44461834D01*
X88012176Y-44627379D01*
X88012176Y-44627380D01*
X88156863Y-44772067D01*
X88322411Y-44892346D01*
X88415387Y-44939719D01*
X88466184Y-44987693D01*
X88482979Y-45055514D01*
X88460442Y-45121649D01*
X88415389Y-45160688D01*
X88322147Y-45208198D01*
X88156545Y-45328513D01*
X88011787Y-45473271D01*
X87891474Y-45638871D01*
X87798540Y-45821261D01*
X87735281Y-46015950D01*
X87703259Y-46218133D01*
X87703259Y-46422836D01*
X87735281Y-46625019D01*
X87798540Y-46819708D01*
X87891474Y-47002098D01*
X88011787Y-47167698D01*
X88156545Y-47312456D01*
X88305668Y-47420798D01*
X88322149Y-47432772D01*
X88413599Y-47479368D01*
X88414839Y-47480000D01*
X88465635Y-47527975D01*
X88482430Y-47595796D01*
X88459893Y-47661931D01*
X88414839Y-47700970D01*
X88322145Y-47748200D01*
X88156545Y-47868513D01*
X88011787Y-48013271D01*
X87891474Y-48178871D01*
X87798540Y-48361261D01*
X87735281Y-48555950D01*
X87703259Y-48758133D01*
X87703259Y-48962836D01*
X87735281Y-49165019D01*
X87798540Y-49359708D01*
X87891474Y-49542098D01*
X88011787Y-49707698D01*
X88156545Y-49852456D01*
X88277632Y-49940429D01*
X88322149Y-49972772D01*
X88413599Y-50019368D01*
X88414839Y-50020000D01*
X88465635Y-50067975D01*
X88482430Y-50135796D01*
X88459893Y-50201931D01*
X88414839Y-50240970D01*
X88322145Y-50288200D01*
X88156545Y-50408513D01*
X88011787Y-50553271D01*
X87891474Y-50718871D01*
X87798540Y-50901261D01*
X87735281Y-51095950D01*
X87703259Y-51298133D01*
X87703259Y-51502836D01*
X87735281Y-51705019D01*
X87798540Y-51899708D01*
X87891474Y-52082098D01*
X88011787Y-52247698D01*
X88156545Y-52392456D01*
X88273855Y-52477685D01*
X88322149Y-52512772D01*
X88413599Y-52559368D01*
X88414839Y-52560000D01*
X88465635Y-52607975D01*
X88482430Y-52675796D01*
X88459893Y-52741931D01*
X88414839Y-52780970D01*
X88322145Y-52828200D01*
X88156545Y-52948513D01*
X88011787Y-53093271D01*
X87891474Y-53258871D01*
X87798540Y-53441261D01*
X87735281Y-53635950D01*
X87703259Y-53838133D01*
X87703259Y-54042836D01*
X87735281Y-54245019D01*
X87798540Y-54439708D01*
X87862450Y-54565138D01*
X87883785Y-54607009D01*
X87891474Y-54622098D01*
X88011787Y-54787698D01*
X88156545Y-54932456D01*
X88311508Y-55045041D01*
X88322149Y-55052772D01*
X88413599Y-55099368D01*
X88414839Y-55100000D01*
X88465635Y-55147975D01*
X88482430Y-55215796D01*
X88459893Y-55281931D01*
X88414839Y-55320970D01*
X88322145Y-55368200D01*
X88156545Y-55488513D01*
X88011787Y-55633271D01*
X87891474Y-55798871D01*
X87798540Y-55981261D01*
X87735281Y-56175950D01*
X87703259Y-56378133D01*
X87703259Y-56582836D01*
X87735281Y-56785019D01*
X87798540Y-56979708D01*
X87891474Y-57162098D01*
X88011787Y-57327698D01*
X88156545Y-57472456D01*
X88311508Y-57585041D01*
X88322149Y-57592772D01*
X88413599Y-57639368D01*
X88414839Y-57640000D01*
X88465635Y-57687975D01*
X88482430Y-57755796D01*
X88459893Y-57821931D01*
X88414839Y-57860970D01*
X88322145Y-57908200D01*
X88156545Y-58028513D01*
X88011787Y-58173271D01*
X87891474Y-58338871D01*
X87798540Y-58521261D01*
X87735281Y-58715950D01*
X87703259Y-58918133D01*
X87703259Y-59122836D01*
X87735281Y-59325019D01*
X87798540Y-59519708D01*
X87891474Y-59702098D01*
X88011787Y-59867698D01*
X88156545Y-60012456D01*
X88280978Y-60102860D01*
X88322149Y-60132772D01*
X88413599Y-60179368D01*
X88414839Y-60180000D01*
X88465635Y-60227975D01*
X88482430Y-60295796D01*
X88459893Y-60361931D01*
X88414839Y-60400970D01*
X88322145Y-60448200D01*
X88156545Y-60568513D01*
X88011787Y-60713271D01*
X87891474Y-60878871D01*
X87798540Y-61061261D01*
X87735281Y-61255950D01*
X87703259Y-61458133D01*
X87703259Y-61662836D01*
X87735281Y-61865019D01*
X87798540Y-62059708D01*
X87848406Y-62157574D01*
X87884410Y-62228236D01*
X87891474Y-62242098D01*
X88011787Y-62407698D01*
X88156545Y-62552456D01*
X88311508Y-62665041D01*
X88322149Y-62672772D01*
X88413599Y-62719368D01*
X88414839Y-62720000D01*
X88465635Y-62767975D01*
X88482430Y-62835796D01*
X88459893Y-62901931D01*
X88414839Y-62940970D01*
X88322145Y-62988200D01*
X88156545Y-63108513D01*
X88011787Y-63253271D01*
X87891474Y-63418871D01*
X87798540Y-63601261D01*
X87735281Y-63795950D01*
X87703259Y-63998133D01*
X87703259Y-64202836D01*
X87735281Y-64405019D01*
X87798540Y-64599708D01*
X87862450Y-64725138D01*
X87888875Y-64776999D01*
X87891474Y-64782098D01*
X88011787Y-64947698D01*
X88156545Y-65092456D01*
X88281676Y-65183367D01*
X88322149Y-65212772D01*
X88413599Y-65259368D01*
X88414839Y-65260000D01*
X88465635Y-65307975D01*
X88482430Y-65375796D01*
X88459893Y-65441931D01*
X88414839Y-65480970D01*
X88322145Y-65528200D01*
X88156545Y-65648513D01*
X88011787Y-65793271D01*
X87891474Y-65958871D01*
X87798540Y-66141261D01*
X87735281Y-66335950D01*
X87703259Y-66538133D01*
X87703259Y-66742836D01*
X87735281Y-66945019D01*
X87798540Y-67139708D01*
X87891474Y-67322098D01*
X88011787Y-67487698D01*
X88156545Y-67632456D01*
X88311508Y-67745041D01*
X88322149Y-67752772D01*
X88375183Y-67779794D01*
X88414839Y-67800000D01*
X88465635Y-67847975D01*
X88482430Y-67915796D01*
X88459893Y-67981931D01*
X88414839Y-68020970D01*
X88322145Y-68068200D01*
X88156545Y-68188513D01*
X88011787Y-68333271D01*
X87891474Y-68498871D01*
X87798540Y-68681261D01*
X87735281Y-68875950D01*
X87703259Y-69078133D01*
X87703259Y-69282836D01*
X87735281Y-69485019D01*
X87798540Y-69679708D01*
X87891474Y-69862098D01*
X88011787Y-70027698D01*
X88156545Y-70172456D01*
X88281479Y-70263224D01*
X88322149Y-70292772D01*
X88413599Y-70339368D01*
X88414839Y-70340000D01*
X88465635Y-70387975D01*
X88482430Y-70455796D01*
X88459893Y-70521931D01*
X88414839Y-70560970D01*
X88322145Y-70608200D01*
X88156545Y-70728513D01*
X88011787Y-70873271D01*
X87891474Y-71038871D01*
X87798540Y-71221261D01*
X87735281Y-71415950D01*
X87703259Y-71618133D01*
X87703259Y-71822836D01*
X87735281Y-72025019D01*
X87798540Y-72219708D01*
X87891474Y-72402098D01*
X88011787Y-72567698D01*
X88156545Y-72712456D01*
X88311508Y-72825041D01*
X88322149Y-72832772D01*
X88413599Y-72879368D01*
X88414839Y-72880000D01*
X88465635Y-72927975D01*
X88482430Y-72995796D01*
X88459893Y-73061931D01*
X88414839Y-73100970D01*
X88322145Y-73148200D01*
X88156545Y-73268513D01*
X88011787Y-73413271D01*
X87891474Y-73578871D01*
X87798540Y-73761261D01*
X87735281Y-73955950D01*
X87703259Y-74158133D01*
X87703259Y-74362836D01*
X87735281Y-74565019D01*
X87798540Y-74759708D01*
X87891474Y-74942098D01*
X88011787Y-75107698D01*
X88156545Y-75252456D01*
X88311508Y-75365041D01*
X88322149Y-75372772D01*
X88413599Y-75419368D01*
X88414839Y-75420000D01*
X88465635Y-75467975D01*
X88482430Y-75535796D01*
X88459893Y-75601931D01*
X88414839Y-75640970D01*
X88322145Y-75688200D01*
X88156545Y-75808513D01*
X88011787Y-75953271D01*
X87891474Y-76118871D01*
X87798540Y-76301261D01*
X87735281Y-76495950D01*
X87703259Y-76698133D01*
X87703259Y-76902836D01*
X87735281Y-77105019D01*
X87798540Y-77299708D01*
X87891474Y-77482098D01*
X88011787Y-77647698D01*
X88156545Y-77792456D01*
X88311508Y-77905041D01*
X88322149Y-77912772D01*
X88413599Y-77959368D01*
X88414839Y-77960000D01*
X88465635Y-78007975D01*
X88482430Y-78075796D01*
X88459893Y-78141931D01*
X88414839Y-78180970D01*
X88322145Y-78228200D01*
X88156545Y-78348513D01*
X88011787Y-78493271D01*
X87891474Y-78658871D01*
X87798540Y-78841261D01*
X87735281Y-79035950D01*
X87703259Y-79238133D01*
X87703259Y-79442836D01*
X87735281Y-79645019D01*
X87798540Y-79839708D01*
X87891474Y-80022098D01*
X88011787Y-80187698D01*
X88156545Y-80332456D01*
X88311508Y-80445041D01*
X88322149Y-80452772D01*
X88438366Y-80511988D01*
X88504535Y-80545703D01*
X88504537Y-80545703D01*
X88504540Y-80545705D01*
X88608896Y-80579612D01*
X88699224Y-80608962D01*
X88800316Y-80624973D01*
X88901407Y-80640985D01*
X88901408Y-80640985D01*
X90106110Y-80640985D01*
X90106111Y-80640985D01*
X90308293Y-80608962D01*
X90502978Y-80545705D01*
X90685369Y-80452772D01*
X90778349Y-80385217D01*
X90850972Y-80332456D01*
X90850974Y-80332453D01*
X90850978Y-80332451D01*
X90995725Y-80187704D01*
X90995727Y-80187700D01*
X90995730Y-80187698D01*
X91048491Y-80115075D01*
X91116046Y-80022095D01*
X91208979Y-79839704D01*
X91272236Y-79645019D01*
X91304259Y-79442837D01*
X91304259Y-79238133D01*
X91272236Y-79035951D01*
X91208979Y-78841266D01*
X91208977Y-78841263D01*
X91208977Y-78841261D01*
X91175262Y-78775092D01*
X91116046Y-78658875D01*
X91108315Y-78648234D01*
X90995730Y-78493271D01*
X90850972Y-78348513D01*
X90685373Y-78228200D01*
X90678765Y-78224833D01*
X90592676Y-78180968D01*
X90541882Y-78132996D01*
X90525087Y-78065175D01*
X90547624Y-77999040D01*
X90592676Y-77960001D01*
X90685369Y-77912772D01*
X90706529Y-77897398D01*
X90850972Y-77792456D01*
X90850974Y-77792453D01*
X90850978Y-77792451D01*
X90995725Y-77647704D01*
X90995727Y-77647700D01*
X90995730Y-77647698D01*
X91048491Y-77575075D01*
X91116046Y-77482095D01*
X91208979Y-77299704D01*
X91272236Y-77105019D01*
X91304259Y-76902837D01*
X91304259Y-76698133D01*
X91272236Y-76495951D01*
X91208979Y-76301266D01*
X91208977Y-76301263D01*
X91208977Y-76301261D01*
X91175262Y-76235092D01*
X91116046Y-76118875D01*
X91108315Y-76108234D01*
X90995730Y-75953271D01*
X90850972Y-75808513D01*
X90685373Y-75688200D01*
X90678765Y-75684833D01*
X90592676Y-75640968D01*
X90541882Y-75592996D01*
X90525087Y-75525175D01*
X90547624Y-75459040D01*
X90592676Y-75420001D01*
X90685369Y-75372772D01*
X90706529Y-75357398D01*
X90850972Y-75252456D01*
X90850974Y-75252453D01*
X90850978Y-75252451D01*
X90995725Y-75107704D01*
X90995727Y-75107700D01*
X90995730Y-75107698D01*
X91048491Y-75035075D01*
X91116046Y-74942095D01*
X91208979Y-74759704D01*
X91272236Y-74565019D01*
X91304259Y-74362837D01*
X91304259Y-74158133D01*
X91272236Y-73955951D01*
X91208979Y-73761266D01*
X91208977Y-73761263D01*
X91208977Y-73761261D01*
X91175262Y-73695092D01*
X91116046Y-73578875D01*
X91108315Y-73568234D01*
X90995730Y-73413271D01*
X90850972Y-73268513D01*
X90685373Y-73148200D01*
X90678765Y-73144833D01*
X90592676Y-73100968D01*
X90541882Y-73052996D01*
X90525087Y-72985175D01*
X90547624Y-72919040D01*
X90592676Y-72880001D01*
X90685369Y-72832772D01*
X90706529Y-72817398D01*
X90850972Y-72712456D01*
X90850974Y-72712453D01*
X90850978Y-72712451D01*
X90995725Y-72567704D01*
X90995727Y-72567700D01*
X90995730Y-72567698D01*
X91048491Y-72495075D01*
X91116046Y-72402095D01*
X91208979Y-72219704D01*
X91272236Y-72025019D01*
X91304259Y-71822837D01*
X91304259Y-71618133D01*
X91272236Y-71415951D01*
X91208979Y-71221266D01*
X91208977Y-71221263D01*
X91208977Y-71221261D01*
X91175262Y-71155092D01*
X91116046Y-71038875D01*
X91108315Y-71028234D01*
X90995730Y-70873271D01*
X90850972Y-70728513D01*
X90685373Y-70608200D01*
X90678765Y-70604833D01*
X90592676Y-70560968D01*
X90541882Y-70512996D01*
X90525087Y-70445175D01*
X90547624Y-70379040D01*
X90592676Y-70340001D01*
X90685369Y-70292772D01*
X90726039Y-70263224D01*
X90850972Y-70172456D01*
X90850974Y-70172453D01*
X90850978Y-70172451D01*
X90995725Y-70027704D01*
X90995727Y-70027700D01*
X90995730Y-70027698D01*
X91048491Y-69955075D01*
X91116046Y-69862095D01*
X91208979Y-69679704D01*
X91272236Y-69485019D01*
X91304259Y-69282837D01*
X91304259Y-69078133D01*
X91272236Y-68875951D01*
X91208979Y-68681266D01*
X91208977Y-68681263D01*
X91208977Y-68681261D01*
X91175262Y-68615092D01*
X91116046Y-68498875D01*
X91101396Y-68478711D01*
X90995730Y-68333271D01*
X90850972Y-68188513D01*
X90685373Y-68068200D01*
X90642356Y-68046282D01*
X90592676Y-68020968D01*
X90541882Y-67972996D01*
X90525087Y-67905175D01*
X90547624Y-67839040D01*
X90592676Y-67800001D01*
X90685369Y-67752772D01*
X90706529Y-67737398D01*
X90850972Y-67632456D01*
X90850974Y-67632453D01*
X90850978Y-67632451D01*
X90995725Y-67487704D01*
X90995727Y-67487700D01*
X90995730Y-67487698D01*
X91075965Y-67377262D01*
X91116046Y-67322095D01*
X91208979Y-67139704D01*
X91272236Y-66945019D01*
X91304259Y-66742837D01*
X91304259Y-66538133D01*
X91272236Y-66335951D01*
X91208979Y-66141266D01*
X91208977Y-66141263D01*
X91208977Y-66141261D01*
X91175262Y-66075092D01*
X91116046Y-65958875D01*
X91071270Y-65897245D01*
X90995730Y-65793271D01*
X90850972Y-65648513D01*
X90685373Y-65528200D01*
X90628200Y-65499069D01*
X90592676Y-65480968D01*
X90541882Y-65432996D01*
X90525087Y-65365175D01*
X90547624Y-65299040D01*
X90592676Y-65260001D01*
X90685369Y-65212772D01*
X90735742Y-65176174D01*
X90850972Y-65092456D01*
X90850974Y-65092453D01*
X90850978Y-65092451D01*
X90995725Y-64947704D01*
X90995727Y-64947700D01*
X90995730Y-64947698D01*
X91067733Y-64848593D01*
X91116046Y-64782095D01*
X91208979Y-64599704D01*
X91272236Y-64405019D01*
X91304259Y-64202837D01*
X91304259Y-63998133D01*
X91281776Y-63856181D01*
X91272236Y-63795950D01*
X91231371Y-63670183D01*
X91208979Y-63601266D01*
X91208977Y-63601263D01*
X91208977Y-63601261D01*
X91131525Y-63449255D01*
X91116046Y-63418875D01*
X91108315Y-63408234D01*
X90995730Y-63253271D01*
X90850972Y-63108513D01*
X90685373Y-62988200D01*
X90678765Y-62984833D01*
X90592676Y-62940968D01*
X90541882Y-62892996D01*
X90525087Y-62825175D01*
X90547624Y-62759040D01*
X90592676Y-62720001D01*
X90685369Y-62672772D01*
X90706529Y-62657398D01*
X90850972Y-62552456D01*
X90850974Y-62552453D01*
X90850978Y-62552451D01*
X90995725Y-62407704D01*
X90995727Y-62407700D01*
X90995730Y-62407698D01*
X91048491Y-62335075D01*
X91116046Y-62242095D01*
X91208979Y-62059704D01*
X91272236Y-61865019D01*
X91304259Y-61662837D01*
X91304259Y-61458133D01*
X91272236Y-61255950D01*
X91227919Y-61119558D01*
X91208979Y-61061266D01*
X91208977Y-61061263D01*
X91208977Y-61061261D01*
X91126812Y-60900005D01*
X91116046Y-60878875D01*
X91072050Y-60818319D01*
X90995730Y-60713271D01*
X90850972Y-60568513D01*
X90685373Y-60448200D01*
X90630969Y-60420480D01*
X90592676Y-60400968D01*
X90541882Y-60352996D01*
X90525087Y-60285175D01*
X90547624Y-60219040D01*
X90592676Y-60180001D01*
X90685369Y-60132772D01*
X90817400Y-60036847D01*
X90850972Y-60012456D01*
X90850974Y-60012453D01*
X90850978Y-60012451D01*
X90995725Y-59867704D01*
X90995727Y-59867700D01*
X90995730Y-59867698D01*
X91050865Y-59791809D01*
X91116046Y-59702095D01*
X91208979Y-59519704D01*
X91272236Y-59325019D01*
X91304259Y-59122837D01*
X91304259Y-58918133D01*
X91272236Y-58715951D01*
X91208979Y-58521266D01*
X91208977Y-58521263D01*
X91208977Y-58521261D01*
X91175262Y-58455092D01*
X91116046Y-58338875D01*
X91108315Y-58328234D01*
X90995730Y-58173271D01*
X90850972Y-58028513D01*
X90685373Y-57908200D01*
X90678765Y-57904833D01*
X90592676Y-57860968D01*
X90541882Y-57812996D01*
X90525087Y-57745175D01*
X90547624Y-57679040D01*
X90592676Y-57640001D01*
X90685369Y-57592772D01*
X90706529Y-57577398D01*
X90850972Y-57472456D01*
X90850974Y-57472453D01*
X90850978Y-57472451D01*
X90995725Y-57327704D01*
X90995727Y-57327700D01*
X90995730Y-57327698D01*
X91048491Y-57255075D01*
X91116046Y-57162095D01*
X91208979Y-56979704D01*
X91272236Y-56785019D01*
X91304259Y-56582837D01*
X91304259Y-56378133D01*
X91272236Y-56175951D01*
X91208979Y-55981266D01*
X91208977Y-55981263D01*
X91208977Y-55981261D01*
X91175262Y-55915092D01*
X91116046Y-55798875D01*
X91104380Y-55782818D01*
X90995730Y-55633271D01*
X90850972Y-55488513D01*
X90685373Y-55368200D01*
X90678765Y-55364833D01*
X90592676Y-55320968D01*
X90541882Y-55272996D01*
X90525087Y-55205175D01*
X90547624Y-55139040D01*
X90592676Y-55100001D01*
X90685369Y-55052772D01*
X90706529Y-55037398D01*
X90850972Y-54932456D01*
X90850974Y-54932453D01*
X90850978Y-54932451D01*
X90995725Y-54787704D01*
X90995727Y-54787700D01*
X90995730Y-54787698D01*
X91048491Y-54715075D01*
X91116046Y-54622095D01*
X91208979Y-54439704D01*
X91272236Y-54245019D01*
X91304259Y-54042837D01*
X91304259Y-53838133D01*
X91272236Y-53635951D01*
X91208979Y-53441266D01*
X91208977Y-53441263D01*
X91208977Y-53441261D01*
X91175262Y-53375092D01*
X91116046Y-53258875D01*
X91108315Y-53248234D01*
X90995730Y-53093271D01*
X90850972Y-52948513D01*
X90685373Y-52828200D01*
X90678765Y-52824833D01*
X90592676Y-52780968D01*
X90541882Y-52732996D01*
X90525087Y-52665175D01*
X90547624Y-52599040D01*
X90592676Y-52560001D01*
X90685369Y-52512772D01*
X90733672Y-52477678D01*
X90850972Y-52392456D01*
X90850974Y-52392453D01*
X90850978Y-52392451D01*
X90995725Y-52247704D01*
X90995727Y-52247700D01*
X90995730Y-52247698D01*
X91048491Y-52175075D01*
X91116046Y-52082095D01*
X91208979Y-51899704D01*
X91272236Y-51705019D01*
X91304259Y-51502837D01*
X91304259Y-51298133D01*
X107423259Y-51298133D01*
X107423259Y-51502836D01*
X107455281Y-51705019D01*
X107518540Y-51899708D01*
X107611474Y-52082098D01*
X107731787Y-52247698D01*
X107876545Y-52392456D01*
X107993855Y-52477685D01*
X108042149Y-52512772D01*
X108133599Y-52559368D01*
X108134839Y-52560000D01*
X108185635Y-52607975D01*
X108202430Y-52675796D01*
X108179893Y-52741931D01*
X108134839Y-52780970D01*
X108042145Y-52828200D01*
X107876545Y-52948513D01*
X107731787Y-53093271D01*
X107611474Y-53258871D01*
X107518540Y-53441261D01*
X107455281Y-53635950D01*
X107423259Y-53838133D01*
X107423259Y-54042836D01*
X107455281Y-54245019D01*
X107518540Y-54439708D01*
X107582450Y-54565138D01*
X107603785Y-54607009D01*
X107611474Y-54622098D01*
X107731787Y-54787698D01*
X107876545Y-54932456D01*
X108031508Y-55045041D01*
X108042149Y-55052772D01*
X108133599Y-55099368D01*
X108134839Y-55100000D01*
X108185635Y-55147975D01*
X108202430Y-55215796D01*
X108179893Y-55281931D01*
X108134839Y-55320970D01*
X108042145Y-55368200D01*
X107876545Y-55488513D01*
X107731787Y-55633271D01*
X107611474Y-55798871D01*
X107518540Y-55981261D01*
X107455281Y-56175950D01*
X107423259Y-56378133D01*
X107423259Y-56582836D01*
X107455281Y-56785019D01*
X107518540Y-56979708D01*
X107611474Y-57162098D01*
X107731787Y-57327698D01*
X107876545Y-57472456D01*
X108031508Y-57585041D01*
X108042149Y-57592772D01*
X108133599Y-57639368D01*
X108134839Y-57640000D01*
X108185635Y-57687975D01*
X108202430Y-57755796D01*
X108179893Y-57821931D01*
X108134839Y-57860970D01*
X108042145Y-57908200D01*
X107876545Y-58028513D01*
X107731787Y-58173271D01*
X107611474Y-58338871D01*
X107518540Y-58521261D01*
X107455281Y-58715950D01*
X107423259Y-58918133D01*
X107423259Y-59122836D01*
X107455281Y-59325019D01*
X107518540Y-59519708D01*
X107611474Y-59702098D01*
X107731787Y-59867698D01*
X107876545Y-60012456D01*
X108000978Y-60102860D01*
X108042149Y-60132772D01*
X108133599Y-60179368D01*
X108134839Y-60180000D01*
X108185635Y-60227975D01*
X108202430Y-60295796D01*
X108179893Y-60361931D01*
X108134839Y-60400970D01*
X108042145Y-60448200D01*
X107876545Y-60568513D01*
X107731787Y-60713271D01*
X107611474Y-60878871D01*
X107518540Y-61061261D01*
X107455281Y-61255950D01*
X107423259Y-61458133D01*
X107423259Y-61662836D01*
X107455281Y-61865019D01*
X107518540Y-62059708D01*
X107568406Y-62157574D01*
X107604410Y-62228236D01*
X107611474Y-62242098D01*
X107731787Y-62407698D01*
X107876545Y-62552456D01*
X108031508Y-62665041D01*
X108042149Y-62672772D01*
X108133599Y-62719368D01*
X108134839Y-62720000D01*
X108185635Y-62767975D01*
X108202430Y-62835796D01*
X108179893Y-62901931D01*
X108134839Y-62940970D01*
X108042145Y-62988200D01*
X107876545Y-63108513D01*
X107731787Y-63253271D01*
X107611474Y-63418871D01*
X107518540Y-63601261D01*
X107455281Y-63795950D01*
X107423259Y-63998133D01*
X107423259Y-64202836D01*
X107455281Y-64405019D01*
X107518540Y-64599708D01*
X107582450Y-64725138D01*
X107608875Y-64776999D01*
X107611474Y-64782098D01*
X107731787Y-64947698D01*
X107876545Y-65092456D01*
X108001676Y-65183367D01*
X108042149Y-65212772D01*
X108133599Y-65259368D01*
X108134839Y-65260000D01*
X108185635Y-65307975D01*
X108202430Y-65375796D01*
X108179893Y-65441931D01*
X108134839Y-65480970D01*
X108042145Y-65528200D01*
X107876545Y-65648513D01*
X107731787Y-65793271D01*
X107611474Y-65958871D01*
X107518540Y-66141261D01*
X107455281Y-66335950D01*
X107423259Y-66538133D01*
X107423259Y-66742836D01*
X107455281Y-66945019D01*
X107518540Y-67139708D01*
X107611474Y-67322098D01*
X107731787Y-67487698D01*
X107876545Y-67632456D01*
X108031508Y-67745041D01*
X108042149Y-67752772D01*
X108095183Y-67779794D01*
X108134839Y-67800000D01*
X108185635Y-67847975D01*
X108202430Y-67915796D01*
X108179893Y-67981931D01*
X108134839Y-68020970D01*
X108042145Y-68068200D01*
X107876545Y-68188513D01*
X107731787Y-68333271D01*
X107611474Y-68498871D01*
X107518540Y-68681261D01*
X107455281Y-68875950D01*
X107423259Y-69078133D01*
X107423259Y-69282836D01*
X107455281Y-69485019D01*
X107518540Y-69679708D01*
X107611474Y-69862098D01*
X107731787Y-70027698D01*
X107876545Y-70172456D01*
X108001479Y-70263224D01*
X108042149Y-70292772D01*
X108133599Y-70339368D01*
X108134839Y-70340000D01*
X108185635Y-70387975D01*
X108202430Y-70455796D01*
X108179893Y-70521931D01*
X108134839Y-70560970D01*
X108042145Y-70608200D01*
X107876545Y-70728513D01*
X107731787Y-70873271D01*
X107611474Y-71038871D01*
X107518540Y-71221261D01*
X107455281Y-71415950D01*
X107423259Y-71618133D01*
X107423259Y-71822836D01*
X107455281Y-72025019D01*
X107518540Y-72219708D01*
X107611474Y-72402098D01*
X107731787Y-72567698D01*
X107876545Y-72712456D01*
X108031508Y-72825041D01*
X108042149Y-72832772D01*
X108133599Y-72879368D01*
X108134839Y-72880000D01*
X108185635Y-72927975D01*
X108202430Y-72995796D01*
X108179893Y-73061931D01*
X108134839Y-73100970D01*
X108042145Y-73148200D01*
X107876545Y-73268513D01*
X107731787Y-73413271D01*
X107611474Y-73578871D01*
X107518540Y-73761261D01*
X107455281Y-73955950D01*
X107423259Y-74158133D01*
X107423259Y-74362836D01*
X107455281Y-74565019D01*
X107518540Y-74759708D01*
X107611474Y-74942098D01*
X107731787Y-75107698D01*
X107876545Y-75252456D01*
X108031508Y-75365041D01*
X108042149Y-75372772D01*
X108133599Y-75419368D01*
X108134839Y-75420000D01*
X108185635Y-75467975D01*
X108202430Y-75535796D01*
X108179893Y-75601931D01*
X108134839Y-75640970D01*
X108042145Y-75688200D01*
X107876545Y-75808513D01*
X107731787Y-75953271D01*
X107611474Y-76118871D01*
X107518540Y-76301261D01*
X107455281Y-76495950D01*
X107423259Y-76698133D01*
X107423259Y-76902836D01*
X107455281Y-77105019D01*
X107518540Y-77299708D01*
X107611474Y-77482098D01*
X107731787Y-77647698D01*
X107876545Y-77792456D01*
X108031508Y-77905041D01*
X108042149Y-77912772D01*
X108133599Y-77959368D01*
X108134839Y-77960000D01*
X108185635Y-78007975D01*
X108202430Y-78075796D01*
X108179893Y-78141931D01*
X108134839Y-78180970D01*
X108042145Y-78228200D01*
X107876545Y-78348513D01*
X107731787Y-78493271D01*
X107611474Y-78658871D01*
X107518540Y-78841261D01*
X107455281Y-79035950D01*
X107423259Y-79238133D01*
X107423259Y-79442836D01*
X107455281Y-79645019D01*
X107518540Y-79839708D01*
X107611474Y-80022098D01*
X107731787Y-80187698D01*
X107876545Y-80332456D01*
X108031508Y-80445041D01*
X108042149Y-80452772D01*
X108158366Y-80511988D01*
X108224535Y-80545703D01*
X108224537Y-80545703D01*
X108224540Y-80545705D01*
X108328896Y-80579612D01*
X108419224Y-80608962D01*
X108520316Y-80624973D01*
X108621407Y-80640985D01*
X108621408Y-80640985D01*
X109826110Y-80640985D01*
X109826111Y-80640985D01*
X110028293Y-80608962D01*
X110222978Y-80545705D01*
X110405369Y-80452772D01*
X110498349Y-80385217D01*
X110570972Y-80332456D01*
X110570974Y-80332453D01*
X110570978Y-80332451D01*
X110715725Y-80187704D01*
X110715727Y-80187700D01*
X110715730Y-80187698D01*
X110768491Y-80115075D01*
X110836046Y-80022095D01*
X110928979Y-79839704D01*
X110992236Y-79645019D01*
X111024259Y-79442837D01*
X111024259Y-79238133D01*
X110992236Y-79035951D01*
X110928979Y-78841266D01*
X110928977Y-78841263D01*
X110928977Y-78841261D01*
X110895262Y-78775092D01*
X110836046Y-78658875D01*
X110828315Y-78648234D01*
X110715730Y-78493271D01*
X110570972Y-78348513D01*
X110405373Y-78228200D01*
X110398765Y-78224833D01*
X110312676Y-78180968D01*
X110261882Y-78132996D01*
X110245087Y-78065175D01*
X110267624Y-77999040D01*
X110312676Y-77960001D01*
X110405369Y-77912772D01*
X110426529Y-77897398D01*
X110570972Y-77792456D01*
X110570974Y-77792453D01*
X110570978Y-77792451D01*
X110715725Y-77647704D01*
X110715727Y-77647700D01*
X110715730Y-77647698D01*
X110768491Y-77575075D01*
X110836046Y-77482095D01*
X110928979Y-77299704D01*
X110992236Y-77105019D01*
X111024259Y-76902837D01*
X111024259Y-76698133D01*
X110992236Y-76495951D01*
X110928979Y-76301266D01*
X110928977Y-76301263D01*
X110928977Y-76301261D01*
X110895262Y-76235092D01*
X110836046Y-76118875D01*
X110828315Y-76108234D01*
X110715730Y-75953271D01*
X110570972Y-75808513D01*
X110405373Y-75688200D01*
X110398765Y-75684833D01*
X110312676Y-75640968D01*
X110261882Y-75592996D01*
X110245087Y-75525175D01*
X110267624Y-75459040D01*
X110312676Y-75420001D01*
X110405369Y-75372772D01*
X110426529Y-75357398D01*
X110570972Y-75252456D01*
X110570974Y-75252453D01*
X110570978Y-75252451D01*
X110715725Y-75107704D01*
X110715727Y-75107700D01*
X110715730Y-75107698D01*
X110768491Y-75035075D01*
X110836046Y-74942095D01*
X110928979Y-74759704D01*
X110992236Y-74565019D01*
X111024259Y-74362837D01*
X111024259Y-74158133D01*
X110992236Y-73955951D01*
X110928979Y-73761266D01*
X110928977Y-73761263D01*
X110928977Y-73761261D01*
X110895262Y-73695092D01*
X110836046Y-73578875D01*
X110828315Y-73568234D01*
X110715730Y-73413271D01*
X110570972Y-73268513D01*
X110405373Y-73148200D01*
X110398765Y-73144833D01*
X110312676Y-73100968D01*
X110261882Y-73052996D01*
X110245087Y-72985175D01*
X110267624Y-72919040D01*
X110312676Y-72880001D01*
X110405369Y-72832772D01*
X110426529Y-72817398D01*
X110570972Y-72712456D01*
X110570974Y-72712453D01*
X110570978Y-72712451D01*
X110715725Y-72567704D01*
X110715727Y-72567700D01*
X110715730Y-72567698D01*
X110768491Y-72495075D01*
X110836046Y-72402095D01*
X110928979Y-72219704D01*
X110992236Y-72025019D01*
X111024259Y-71822837D01*
X111024259Y-71618133D01*
X110992236Y-71415951D01*
X110928979Y-71221266D01*
X110928977Y-71221263D01*
X110928977Y-71221261D01*
X110895262Y-71155092D01*
X110836046Y-71038875D01*
X110828315Y-71028234D01*
X110715730Y-70873271D01*
X110570972Y-70728513D01*
X110405373Y-70608200D01*
X110398765Y-70604833D01*
X110312676Y-70560968D01*
X110261882Y-70512996D01*
X110245087Y-70445175D01*
X110267624Y-70379040D01*
X110312676Y-70340001D01*
X110405369Y-70292772D01*
X110446039Y-70263224D01*
X110570972Y-70172456D01*
X110570974Y-70172453D01*
X110570978Y-70172451D01*
X110715725Y-70027704D01*
X110715727Y-70027700D01*
X110715730Y-70027698D01*
X110768491Y-69955075D01*
X110836046Y-69862095D01*
X110928979Y-69679704D01*
X110992236Y-69485019D01*
X111024259Y-69282837D01*
X111024259Y-69078133D01*
X110992236Y-68875951D01*
X110928979Y-68681266D01*
X110928977Y-68681263D01*
X110928977Y-68681261D01*
X110895262Y-68615092D01*
X110847369Y-68521098D01*
X113849500Y-68521098D01*
X113849500Y-68763675D01*
X113881161Y-69004172D01*
X113943947Y-69238491D01*
X114036773Y-69462592D01*
X114036776Y-69462599D01*
X114158064Y-69672676D01*
X114158066Y-69672679D01*
X114158067Y-69672680D01*
X114305733Y-69865123D01*
X114305739Y-69865130D01*
X114477256Y-70036647D01*
X114477262Y-70036652D01*
X114669711Y-70184323D01*
X114879788Y-70305611D01*
X115103900Y-70398441D01*
X115338211Y-70461225D01*
X115518586Y-70484971D01*
X115578711Y-70492887D01*
X115578712Y-70492887D01*
X115821289Y-70492887D01*
X115869388Y-70486554D01*
X116061789Y-70461225D01*
X116296100Y-70398441D01*
X116520212Y-70305611D01*
X116730289Y-70184323D01*
X116922738Y-70036652D01*
X117094265Y-69865125D01*
X117241936Y-69672676D01*
X117363224Y-69462599D01*
X117456054Y-69238487D01*
X117518838Y-69004176D01*
X117550500Y-68763675D01*
X117550500Y-68521099D01*
X117544920Y-68478711D01*
X144755278Y-68478711D01*
X144755278Y-68721288D01*
X144786939Y-68961785D01*
X144849725Y-69196104D01*
X144942551Y-69420205D01*
X144942554Y-69420212D01*
X145063842Y-69630289D01*
X145063844Y-69630292D01*
X145063845Y-69630293D01*
X145211511Y-69822736D01*
X145211517Y-69822743D01*
X145383034Y-69994260D01*
X145383041Y-69994266D01*
X145438273Y-70036647D01*
X145575489Y-70141936D01*
X145785566Y-70263224D01*
X146009678Y-70356054D01*
X146243989Y-70418838D01*
X146424364Y-70442584D01*
X146484489Y-70450500D01*
X146484490Y-70450500D01*
X146727067Y-70450500D01*
X146775166Y-70444167D01*
X146967567Y-70418838D01*
X147201878Y-70356054D01*
X147425990Y-70263224D01*
X147636067Y-70141936D01*
X147828516Y-69994265D01*
X148000043Y-69822738D01*
X148147714Y-69630289D01*
X148269002Y-69420212D01*
X148361832Y-69196100D01*
X148424616Y-68961789D01*
X148456278Y-68721288D01*
X148456278Y-68478712D01*
X148424616Y-68238211D01*
X148361832Y-68003900D01*
X148269002Y-67779788D01*
X148147714Y-67569711D01*
X148084783Y-67487698D01*
X148000044Y-67377263D01*
X148000038Y-67377256D01*
X147828521Y-67205739D01*
X147828514Y-67205733D01*
X147636071Y-67058067D01*
X147636070Y-67058066D01*
X147636067Y-67058064D01*
X147425990Y-66936776D01*
X147425983Y-66936773D01*
X147201882Y-66843947D01*
X146967563Y-66781161D01*
X146727067Y-66749500D01*
X146727066Y-66749500D01*
X146484490Y-66749500D01*
X146484489Y-66749500D01*
X146243992Y-66781161D01*
X146009673Y-66843947D01*
X145785572Y-66936773D01*
X145785563Y-66936777D01*
X145575484Y-67058067D01*
X145383041Y-67205733D01*
X145383034Y-67205739D01*
X145211517Y-67377256D01*
X145211511Y-67377263D01*
X145063845Y-67569706D01*
X144942555Y-67779785D01*
X144942551Y-67779794D01*
X144849725Y-68003895D01*
X144786939Y-68238214D01*
X144755278Y-68478711D01*
X117544920Y-68478711D01*
X117518838Y-68280598D01*
X117456054Y-68046287D01*
X117363224Y-67822175D01*
X117241936Y-67612098D01*
X117094265Y-67419649D01*
X117094260Y-67419643D01*
X116922743Y-67248126D01*
X116922736Y-67248120D01*
X116730293Y-67100454D01*
X116730292Y-67100453D01*
X116730289Y-67100451D01*
X116520212Y-66979163D01*
X116520205Y-66979160D01*
X116296104Y-66886334D01*
X116061785Y-66823548D01*
X115821289Y-66791887D01*
X115821288Y-66791887D01*
X115578712Y-66791887D01*
X115578711Y-66791887D01*
X115338214Y-66823548D01*
X115103895Y-66886334D01*
X114879794Y-66979160D01*
X114879785Y-66979164D01*
X114669706Y-67100454D01*
X114477263Y-67248120D01*
X114477256Y-67248126D01*
X114305739Y-67419643D01*
X114305733Y-67419650D01*
X114158067Y-67612093D01*
X114036777Y-67822172D01*
X114036773Y-67822181D01*
X113943947Y-68046282D01*
X113881161Y-68280601D01*
X113849500Y-68521098D01*
X110847369Y-68521098D01*
X110836046Y-68498875D01*
X110821396Y-68478711D01*
X110715730Y-68333271D01*
X110570972Y-68188513D01*
X110405373Y-68068200D01*
X110362356Y-68046282D01*
X110312676Y-68020968D01*
X110261882Y-67972996D01*
X110245087Y-67905175D01*
X110267624Y-67839040D01*
X110312676Y-67800001D01*
X110405369Y-67752772D01*
X110426529Y-67737398D01*
X110570972Y-67632456D01*
X110570974Y-67632453D01*
X110570978Y-67632451D01*
X110715725Y-67487704D01*
X110715727Y-67487700D01*
X110715730Y-67487698D01*
X110795965Y-67377262D01*
X110836046Y-67322095D01*
X110928979Y-67139704D01*
X110992236Y-66945019D01*
X111024259Y-66742837D01*
X111024259Y-66538133D01*
X110992236Y-66335951D01*
X110928979Y-66141266D01*
X110928977Y-66141263D01*
X110928977Y-66141261D01*
X110895262Y-66075092D01*
X110836046Y-65958875D01*
X110791270Y-65897245D01*
X110715730Y-65793271D01*
X110570972Y-65648513D01*
X110405373Y-65528200D01*
X110348200Y-65499069D01*
X110312676Y-65480968D01*
X110261882Y-65432996D01*
X110245087Y-65365175D01*
X110267624Y-65299040D01*
X110312676Y-65260001D01*
X110405369Y-65212772D01*
X110455742Y-65176174D01*
X110570972Y-65092456D01*
X110570974Y-65092453D01*
X110570978Y-65092451D01*
X110715725Y-64947704D01*
X110715727Y-64947700D01*
X110715730Y-64947698D01*
X110787733Y-64848593D01*
X110836046Y-64782095D01*
X110928979Y-64599704D01*
X110992236Y-64405019D01*
X111024259Y-64202837D01*
X111024259Y-63998133D01*
X111001776Y-63856181D01*
X110992236Y-63795950D01*
X110951371Y-63670183D01*
X110928979Y-63601266D01*
X110928977Y-63601263D01*
X110928977Y-63601261D01*
X110851525Y-63449255D01*
X110836046Y-63418875D01*
X110828315Y-63408234D01*
X110715730Y-63253271D01*
X110570972Y-63108513D01*
X110405373Y-62988200D01*
X110398765Y-62984833D01*
X110312676Y-62940968D01*
X110261882Y-62892996D01*
X110245087Y-62825175D01*
X110267624Y-62759040D01*
X110312676Y-62720001D01*
X110405369Y-62672772D01*
X110426529Y-62657398D01*
X110570972Y-62552456D01*
X110570974Y-62552453D01*
X110570978Y-62552451D01*
X110715725Y-62407704D01*
X110715727Y-62407700D01*
X110715730Y-62407698D01*
X110768491Y-62335075D01*
X110836046Y-62242095D01*
X110928979Y-62059704D01*
X110992236Y-61865019D01*
X111024259Y-61662837D01*
X111024259Y-61458133D01*
X110992236Y-61255950D01*
X110947919Y-61119558D01*
X110928979Y-61061266D01*
X110928977Y-61061263D01*
X110928977Y-61061261D01*
X110846812Y-60900005D01*
X110836046Y-60878875D01*
X110792050Y-60818319D01*
X110715730Y-60713271D01*
X110570972Y-60568513D01*
X110405373Y-60448200D01*
X110350969Y-60420480D01*
X110312676Y-60400968D01*
X110261882Y-60352996D01*
X110245087Y-60285175D01*
X110267624Y-60219040D01*
X110312676Y-60180001D01*
X110405369Y-60132772D01*
X110537400Y-60036847D01*
X110570972Y-60012456D01*
X110570974Y-60012453D01*
X110570978Y-60012451D01*
X110715725Y-59867704D01*
X110715727Y-59867700D01*
X110715730Y-59867698D01*
X110770865Y-59791809D01*
X110836046Y-59702095D01*
X110928979Y-59519704D01*
X110992236Y-59325019D01*
X111024259Y-59122837D01*
X111024259Y-58918133D01*
X110992236Y-58715951D01*
X110928979Y-58521266D01*
X110928977Y-58521263D01*
X110928977Y-58521261D01*
X110895262Y-58455092D01*
X110836046Y-58338875D01*
X110828315Y-58328234D01*
X110715730Y-58173271D01*
X110570972Y-58028513D01*
X110405373Y-57908200D01*
X110398765Y-57904833D01*
X110312676Y-57860968D01*
X110261882Y-57812996D01*
X110245087Y-57745175D01*
X110267624Y-57679040D01*
X110312676Y-57640001D01*
X110405369Y-57592772D01*
X110426529Y-57577398D01*
X110570972Y-57472456D01*
X110570974Y-57472453D01*
X110570978Y-57472451D01*
X110715725Y-57327704D01*
X110715727Y-57327700D01*
X110715730Y-57327698D01*
X110768491Y-57255075D01*
X110836046Y-57162095D01*
X110928979Y-56979704D01*
X110992236Y-56785019D01*
X111024259Y-56582837D01*
X111024259Y-56378133D01*
X110992236Y-56175951D01*
X110928979Y-55981266D01*
X110928977Y-55981263D01*
X110928977Y-55981261D01*
X110895262Y-55915092D01*
X110836046Y-55798875D01*
X110824380Y-55782818D01*
X110715730Y-55633271D01*
X110570972Y-55488513D01*
X110405373Y-55368200D01*
X110398765Y-55364833D01*
X110312676Y-55320968D01*
X110261882Y-55272996D01*
X110245087Y-55205175D01*
X110267624Y-55139040D01*
X110312676Y-55100001D01*
X110405369Y-55052772D01*
X110426529Y-55037398D01*
X110570972Y-54932456D01*
X110570974Y-54932453D01*
X110570978Y-54932451D01*
X110715725Y-54787704D01*
X110715727Y-54787700D01*
X110715730Y-54787698D01*
X110768491Y-54715075D01*
X110836046Y-54622095D01*
X110928979Y-54439704D01*
X110992236Y-54245019D01*
X111024259Y-54042837D01*
X111024259Y-53838133D01*
X110992236Y-53635951D01*
X110928979Y-53441266D01*
X110928977Y-53441263D01*
X110928977Y-53441261D01*
X110895262Y-53375092D01*
X110836046Y-53258875D01*
X110828315Y-53248234D01*
X110715730Y-53093271D01*
X110570972Y-52948513D01*
X110405373Y-52828200D01*
X110398765Y-52824833D01*
X110312676Y-52780968D01*
X110261882Y-52732996D01*
X110245087Y-52665175D01*
X110267624Y-52599040D01*
X110312676Y-52560001D01*
X110405369Y-52512772D01*
X110453672Y-52477678D01*
X110570972Y-52392456D01*
X110570974Y-52392453D01*
X110570978Y-52392451D01*
X110715725Y-52247704D01*
X110715727Y-52247700D01*
X110715730Y-52247698D01*
X110768491Y-52175075D01*
X110836046Y-52082095D01*
X110928979Y-51899704D01*
X110992236Y-51705019D01*
X111024259Y-51502837D01*
X111024259Y-51298133D01*
X110998105Y-51133006D01*
X110992236Y-51095950D01*
X110928977Y-50901261D01*
X110895262Y-50835092D01*
X110836046Y-50718875D01*
X110810267Y-50683393D01*
X110715730Y-50553271D01*
X110570972Y-50408513D01*
X110405372Y-50288200D01*
X110405371Y-50288199D01*
X110405369Y-50288198D01*
X110348412Y-50259176D01*
X110222982Y-50195266D01*
X110028293Y-50132007D01*
X109853754Y-50104363D01*
X109826111Y-50099985D01*
X108621407Y-50099985D01*
X108597088Y-50103836D01*
X108419224Y-50132007D01*
X108224535Y-50195266D01*
X108042145Y-50288200D01*
X107876545Y-50408513D01*
X107731787Y-50553271D01*
X107611474Y-50718871D01*
X107518540Y-50901261D01*
X107455281Y-51095950D01*
X107423259Y-51298133D01*
X91304259Y-51298133D01*
X91278105Y-51133006D01*
X91272236Y-51095950D01*
X91208977Y-50901261D01*
X91175262Y-50835092D01*
X91116046Y-50718875D01*
X91090267Y-50683393D01*
X90995730Y-50553271D01*
X90850972Y-50408513D01*
X90685373Y-50288200D01*
X90678765Y-50284833D01*
X90592676Y-50240968D01*
X90541882Y-50192996D01*
X90525087Y-50125175D01*
X90547624Y-50059040D01*
X90592676Y-50020001D01*
X90685369Y-49972772D01*
X90729886Y-49940429D01*
X90850972Y-49852456D01*
X90850974Y-49852453D01*
X90850978Y-49852451D01*
X90995725Y-49707704D01*
X90995727Y-49707700D01*
X90995730Y-49707698D01*
X91048491Y-49635075D01*
X91116046Y-49542095D01*
X91208979Y-49359704D01*
X91272236Y-49165019D01*
X91304259Y-48962837D01*
X91304259Y-48758133D01*
X91272236Y-48555951D01*
X91208979Y-48361266D01*
X91208977Y-48361263D01*
X91208977Y-48361261D01*
X91166974Y-48278827D01*
X91116046Y-48178875D01*
X91102677Y-48160474D01*
X90995730Y-48013271D01*
X90850972Y-47868513D01*
X90685373Y-47748200D01*
X90678765Y-47744833D01*
X90592676Y-47700968D01*
X90541882Y-47652996D01*
X90525087Y-47585175D01*
X90547624Y-47519040D01*
X90592676Y-47480001D01*
X90685369Y-47432772D01*
X90706529Y-47417398D01*
X90850972Y-47312456D01*
X90850974Y-47312453D01*
X90850978Y-47312451D01*
X90995725Y-47167704D01*
X90995727Y-47167700D01*
X90995730Y-47167698D01*
X91048491Y-47095075D01*
X91116046Y-47002095D01*
X91208979Y-46819704D01*
X91272236Y-46625019D01*
X91304259Y-46422837D01*
X91304259Y-46218133D01*
X91272236Y-46015951D01*
X91208979Y-45821266D01*
X91208977Y-45821263D01*
X91208977Y-45821261D01*
X91160303Y-45725734D01*
X91116046Y-45638875D01*
X91077355Y-45585621D01*
X90995730Y-45473271D01*
X90850972Y-45328513D01*
X90685370Y-45208198D01*
X90592128Y-45160688D01*
X90541333Y-45112714D01*
X90536042Y-45091347D01*
X113560037Y-45091347D01*
X113560037Y-45091350D01*
X113579869Y-45318035D01*
X113579871Y-45318046D01*
X113638763Y-45537837D01*
X113638766Y-45537846D01*
X113734936Y-45744081D01*
X113734937Y-45744083D01*
X113865459Y-45930490D01*
X114026363Y-46091394D01*
X114026366Y-46091396D01*
X114212771Y-46221917D01*
X114419009Y-46318088D01*
X114419014Y-46318089D01*
X114419016Y-46318090D01*
X114448395Y-46325962D01*
X114638813Y-46376984D01*
X114800735Y-46391150D01*
X114865503Y-46396817D01*
X114865505Y-46396817D01*
X114865507Y-46396817D01*
X114922178Y-46391858D01*
X115092197Y-46376984D01*
X115312001Y-46318088D01*
X115518239Y-46221917D01*
X115704644Y-46091396D01*
X115865552Y-45930488D01*
X115996073Y-45744083D01*
X116092244Y-45537845D01*
X116151140Y-45318041D01*
X116170973Y-45091349D01*
X116170973Y-45091347D01*
X123720037Y-45091347D01*
X123720037Y-45091350D01*
X123739869Y-45318035D01*
X123739871Y-45318046D01*
X123798763Y-45537837D01*
X123798766Y-45537846D01*
X123894936Y-45744081D01*
X123894937Y-45744083D01*
X124025459Y-45930490D01*
X124186363Y-46091394D01*
X124186366Y-46091396D01*
X124372771Y-46221917D01*
X124579009Y-46318088D01*
X124579014Y-46318089D01*
X124579016Y-46318090D01*
X124608395Y-46325962D01*
X124798813Y-46376984D01*
X124960735Y-46391150D01*
X125025503Y-46396817D01*
X125025505Y-46396817D01*
X125025507Y-46396817D01*
X125082178Y-46391858D01*
X125252197Y-46376984D01*
X125472001Y-46318088D01*
X125678239Y-46221917D01*
X125864644Y-46091396D01*
X126025552Y-45930488D01*
X126156073Y-45744083D01*
X126252244Y-45537845D01*
X126311140Y-45318041D01*
X126330973Y-45091349D01*
X126326316Y-45038125D01*
X126321161Y-44979202D01*
X126311140Y-44864657D01*
X126252244Y-44644853D01*
X126156073Y-44438615D01*
X126025552Y-44252210D01*
X126025550Y-44252207D01*
X125864646Y-44091303D01*
X125678239Y-43960781D01*
X125678237Y-43960780D01*
X125472002Y-43864610D01*
X125471993Y-43864607D01*
X125252202Y-43805715D01*
X125252198Y-43805714D01*
X125252197Y-43805714D01*
X125252196Y-43805713D01*
X125252191Y-43805713D01*
X125025507Y-43785881D01*
X125025503Y-43785881D01*
X124798818Y-43805713D01*
X124798807Y-43805715D01*
X124579016Y-43864607D01*
X124579007Y-43864610D01*
X124372772Y-43960780D01*
X124372770Y-43960781D01*
X124186363Y-44091303D01*
X124025459Y-44252207D01*
X123894937Y-44438614D01*
X123894936Y-44438616D01*
X123798766Y-44644851D01*
X123798763Y-44644860D01*
X123739871Y-44864651D01*
X123739869Y-44864662D01*
X123720037Y-45091347D01*
X116170973Y-45091347D01*
X116166316Y-45038125D01*
X116161161Y-44979202D01*
X116151140Y-44864657D01*
X116092244Y-44644853D01*
X115996073Y-44438615D01*
X115865552Y-44252210D01*
X115865550Y-44252207D01*
X115704646Y-44091303D01*
X115518239Y-43960781D01*
X115518237Y-43960780D01*
X115312002Y-43864610D01*
X115311993Y-43864607D01*
X115092202Y-43805715D01*
X115092198Y-43805714D01*
X115092197Y-43805714D01*
X115092196Y-43805713D01*
X115092191Y-43805713D01*
X114865507Y-43785881D01*
X114865503Y-43785881D01*
X114638818Y-43805713D01*
X114638807Y-43805715D01*
X114419016Y-43864607D01*
X114419007Y-43864610D01*
X114212772Y-43960780D01*
X114212770Y-43960781D01*
X114026363Y-44091303D01*
X113865459Y-44252207D01*
X113734937Y-44438614D01*
X113734936Y-44438616D01*
X113638766Y-44644851D01*
X113638763Y-44644860D01*
X113579871Y-44864651D01*
X113579869Y-44864662D01*
X113560037Y-45091347D01*
X90536042Y-45091347D01*
X90524538Y-45044892D01*
X90547076Y-44978758D01*
X90592130Y-44939719D01*
X90685106Y-44892346D01*
X90850653Y-44772067D01*
X90850654Y-44772067D01*
X90995341Y-44627380D01*
X90995341Y-44627379D01*
X91115618Y-44461834D01*
X91208514Y-44279514D01*
X91271749Y-44084898D01*
X91280368Y-44030485D01*
X89636771Y-44030485D01*
X89669684Y-43973478D01*
X89703759Y-43846311D01*
X89703759Y-43714659D01*
X89669684Y-43587492D01*
X89636771Y-43530485D01*
X91280368Y-43530485D01*
X91271749Y-43476071D01*
X91208514Y-43281455D01*
X91115618Y-43099135D01*
X90995341Y-42933590D01*
X90995341Y-42933589D01*
X90850654Y-42788902D01*
X90850645Y-42788895D01*
X90756723Y-42720655D01*
X90714057Y-42665325D01*
X90708079Y-42595712D01*
X90740685Y-42533917D01*
X90790604Y-42502633D01*
X90873093Y-42475299D01*
X91022415Y-42383197D01*
X91146471Y-42259141D01*
X91238573Y-42109819D01*
X91293758Y-41943282D01*
X91303122Y-41851624D01*
X113560037Y-41851624D01*
X113560037Y-41851627D01*
X113579869Y-42078312D01*
X113579871Y-42078323D01*
X113638763Y-42298114D01*
X113638766Y-42298123D01*
X113734936Y-42504358D01*
X113734937Y-42504360D01*
X113865459Y-42690767D01*
X114026363Y-42851671D01*
X114026366Y-42851673D01*
X114212771Y-42982194D01*
X114419009Y-43078365D01*
X114638813Y-43137261D01*
X114800735Y-43151427D01*
X114865503Y-43157094D01*
X114865505Y-43157094D01*
X114865507Y-43157094D01*
X114922178Y-43152135D01*
X115092197Y-43137261D01*
X115312001Y-43078365D01*
X115518239Y-42982194D01*
X115704644Y-42851673D01*
X115865552Y-42690765D01*
X115996073Y-42504360D01*
X116092244Y-42298122D01*
X116151140Y-42078318D01*
X116170973Y-41851626D01*
X116170973Y-41851624D01*
X123720037Y-41851624D01*
X123720037Y-41851627D01*
X123739869Y-42078312D01*
X123739871Y-42078323D01*
X123798763Y-42298114D01*
X123798766Y-42298123D01*
X123894936Y-42504358D01*
X123894937Y-42504360D01*
X124025459Y-42690767D01*
X124186363Y-42851671D01*
X124186366Y-42851673D01*
X124372771Y-42982194D01*
X124579009Y-43078365D01*
X124798813Y-43137261D01*
X124960735Y-43151427D01*
X125025503Y-43157094D01*
X125025505Y-43157094D01*
X125025507Y-43157094D01*
X125082178Y-43152135D01*
X125252197Y-43137261D01*
X125472001Y-43078365D01*
X125678239Y-42982194D01*
X125864644Y-42851673D01*
X126025552Y-42690765D01*
X126156073Y-42504360D01*
X126252244Y-42298122D01*
X126311140Y-42078318D01*
X126330973Y-41851626D01*
X126329998Y-41840486D01*
X126311140Y-41624939D01*
X126311140Y-41624934D01*
X126262817Y-41444590D01*
X126252246Y-41405137D01*
X126252243Y-41405128D01*
X126204757Y-41303294D01*
X126156073Y-41198892D01*
X126025552Y-41012487D01*
X126025550Y-41012484D01*
X125964493Y-40951427D01*
X129294700Y-40951427D01*
X129294700Y-40951440D01*
X129313864Y-41182731D01*
X129313866Y-41182742D01*
X129370842Y-41407734D01*
X129464075Y-41620282D01*
X129467118Y-41624939D01*
X129591021Y-41814587D01*
X129625116Y-41851624D01*
X129712870Y-41946952D01*
X129743792Y-42009607D01*
X129735931Y-42079033D01*
X129712870Y-42114916D01*
X129591019Y-42247283D01*
X129464075Y-42441585D01*
X129370842Y-42654133D01*
X129313866Y-42879125D01*
X129313864Y-42879136D01*
X129294700Y-43110427D01*
X129294700Y-43110440D01*
X129313864Y-43341731D01*
X129313866Y-43341742D01*
X129370842Y-43566734D01*
X129464075Y-43779282D01*
X129519821Y-43864607D01*
X129591021Y-43973587D01*
X129616788Y-44001577D01*
X129712870Y-44105952D01*
X129743792Y-44168607D01*
X129735931Y-44238033D01*
X129712870Y-44273916D01*
X129591019Y-44406283D01*
X129464075Y-44600585D01*
X129370842Y-44813133D01*
X129313866Y-45038125D01*
X129313864Y-45038136D01*
X129294700Y-45269427D01*
X129294700Y-45269440D01*
X129313864Y-45500731D01*
X129313866Y-45500742D01*
X129370842Y-45725734D01*
X129464075Y-45938282D01*
X129591016Y-46132581D01*
X129591019Y-46132585D01*
X129591021Y-46132587D01*
X129748216Y-46303347D01*
X129748219Y-46303349D01*
X129748222Y-46303352D01*
X129931365Y-46445898D01*
X129931371Y-46445902D01*
X129931374Y-46445904D01*
X130135497Y-46556370D01*
X130249487Y-46595502D01*
X130355015Y-46631731D01*
X130355017Y-46631731D01*
X130355019Y-46631732D01*
X130583951Y-46669934D01*
X130583952Y-46669934D01*
X130816048Y-46669934D01*
X130816049Y-46669934D01*
X131044981Y-46631732D01*
X131264503Y-46556370D01*
X131468626Y-46445904D01*
X131651784Y-46303347D01*
X131808979Y-46132587D01*
X131935924Y-45938283D01*
X132029157Y-45725734D01*
X132086134Y-45500739D01*
X132088410Y-45473271D01*
X132105300Y-45269440D01*
X132105300Y-45269427D01*
X132086135Y-45038136D01*
X132086133Y-45038125D01*
X132029157Y-44813133D01*
X131935924Y-44600585D01*
X131808983Y-44406286D01*
X131808980Y-44406283D01*
X131808979Y-44406281D01*
X131687128Y-44273914D01*
X131656207Y-44211262D01*
X131664067Y-44141836D01*
X131687127Y-44105954D01*
X131808979Y-43973587D01*
X131935924Y-43779283D01*
X132029157Y-43566734D01*
X132086134Y-43341739D01*
X132090806Y-43285354D01*
X132105300Y-43110440D01*
X132105300Y-43110427D01*
X132086135Y-42879136D01*
X132086133Y-42879125D01*
X132029157Y-42654133D01*
X131935924Y-42441585D01*
X131808983Y-42247286D01*
X131808980Y-42247283D01*
X131808979Y-42247281D01*
X131687128Y-42114914D01*
X131656207Y-42052262D01*
X131664067Y-41982836D01*
X131687127Y-41946954D01*
X131808979Y-41814587D01*
X131935924Y-41620283D01*
X132029157Y-41407734D01*
X132086134Y-41182739D01*
X132093625Y-41092335D01*
X132105300Y-40951440D01*
X132105300Y-40951427D01*
X132086135Y-40720136D01*
X132086133Y-40720125D01*
X132029157Y-40495133D01*
X131935923Y-40282583D01*
X131904318Y-40234208D01*
X131884130Y-40167318D01*
X131903309Y-40100133D01*
X131933817Y-40067118D01*
X131957190Y-40049621D01*
X132043350Y-39934527D01*
X132043354Y-39934520D01*
X132093596Y-39799813D01*
X132093598Y-39799806D01*
X132099999Y-39740278D01*
X132100000Y-39740261D01*
X132100000Y-39042434D01*
X131075278Y-39042434D01*
X131119333Y-38966128D01*
X131150000Y-38851678D01*
X131150000Y-38733190D01*
X131119333Y-38618740D01*
X131075278Y-38542434D01*
X132100000Y-38542434D01*
X132100000Y-37874038D01*
X137649500Y-37874038D01*
X137649500Y-38125962D01*
X137660089Y-38192815D01*
X137688910Y-38374785D01*
X137766760Y-38614383D01*
X137827296Y-38733190D01*
X137859751Y-38796887D01*
X137881132Y-38838848D01*
X138029201Y-39042649D01*
X138029205Y-39042654D01*
X138121061Y-39134510D01*
X138154546Y-39195833D01*
X138156669Y-39235446D01*
X138149501Y-39302116D01*
X138149500Y-39302135D01*
X138149500Y-40897870D01*
X138149501Y-40897876D01*
X138155908Y-40957483D01*
X138206202Y-41092328D01*
X138206206Y-41092335D01*
X138292451Y-41207543D01*
X138292452Y-41207544D01*
X138292454Y-41207546D01*
X138330777Y-41236234D01*
X138372647Y-41292167D01*
X138377631Y-41361859D01*
X138356784Y-41408385D01*
X138330475Y-41444595D01*
X138241117Y-41619970D01*
X138180290Y-41807173D01*
X138149500Y-42001577D01*
X138149500Y-42198422D01*
X138180290Y-42392826D01*
X138241117Y-42580029D01*
X138312770Y-42720655D01*
X138330476Y-42755405D01*
X138446172Y-42914646D01*
X138446174Y-42914648D01*
X138543845Y-43012319D01*
X138577330Y-43073642D01*
X138572346Y-43143334D01*
X138543845Y-43187681D01*
X138446174Y-43285351D01*
X138446174Y-43285352D01*
X138446172Y-43285354D01*
X138396485Y-43353741D01*
X138330476Y-43444594D01*
X138241117Y-43619970D01*
X138180290Y-43807173D01*
X138149500Y-44001577D01*
X138149500Y-44198422D01*
X138180290Y-44392826D01*
X138241117Y-44580029D01*
X138332352Y-44759087D01*
X138345248Y-44827757D01*
X138318971Y-44892497D01*
X138294753Y-44915699D01*
X138207350Y-44979202D01*
X138207341Y-44979209D01*
X138029205Y-45157345D01*
X138029201Y-45157350D01*
X137881132Y-45361151D01*
X137766760Y-45585616D01*
X137690193Y-45821266D01*
X137688910Y-45825215D01*
X137649500Y-46074038D01*
X137649500Y-46325962D01*
X137664844Y-46422837D01*
X137688910Y-46574785D01*
X137766760Y-46814383D01*
X137845413Y-46968747D01*
X137862406Y-47002098D01*
X137881132Y-47038848D01*
X138029201Y-47242649D01*
X138029205Y-47242654D01*
X138207345Y-47420794D01*
X138207350Y-47420798D01*
X138342570Y-47519040D01*
X138411155Y-47568870D01*
X138554184Y-47641747D01*
X138635616Y-47683239D01*
X138635618Y-47683239D01*
X138635621Y-47683241D01*
X138875215Y-47761090D01*
X139124038Y-47800500D01*
X139124039Y-47800500D01*
X140675961Y-47800500D01*
X140675962Y-47800500D01*
X140924785Y-47761090D01*
X141164379Y-47683241D01*
X141388845Y-47568870D01*
X141592656Y-47420793D01*
X141770793Y-47242656D01*
X141918870Y-47038845D01*
X142033241Y-46814379D01*
X142111090Y-46574785D01*
X142150500Y-46325962D01*
X142150500Y-46074038D01*
X142111090Y-45825215D01*
X142033241Y-45585621D01*
X142033239Y-45585618D01*
X142033239Y-45585616D01*
X141989993Y-45500742D01*
X141918870Y-45361155D01*
X141887542Y-45318035D01*
X141770798Y-45157350D01*
X141770794Y-45157345D01*
X141592658Y-44979209D01*
X141592656Y-44979207D01*
X141505245Y-44915699D01*
X141462581Y-44860370D01*
X141456602Y-44790756D01*
X141467647Y-44759087D01*
X141469520Y-44755409D01*
X141469524Y-44755405D01*
X141558884Y-44580025D01*
X141619709Y-44392826D01*
X141637656Y-44279514D01*
X141650500Y-44198422D01*
X141650500Y-44001577D01*
X141619709Y-43807173D01*
X141558882Y-43619970D01*
X141511743Y-43527455D01*
X141469524Y-43444595D01*
X141353828Y-43285354D01*
X141256155Y-43187681D01*
X141222670Y-43126358D01*
X141227654Y-43056666D01*
X141256155Y-43012319D01*
X141286281Y-42982193D01*
X141353828Y-42914646D01*
X141469524Y-42755405D01*
X141558884Y-42580025D01*
X141619709Y-42392826D01*
X141621234Y-42383195D01*
X141650500Y-42198422D01*
X141650500Y-42001577D01*
X141619709Y-41807173D01*
X141558984Y-41620283D01*
X141558884Y-41619975D01*
X141558882Y-41619972D01*
X141558882Y-41619970D01*
X141469521Y-41444590D01*
X141443217Y-41408386D01*
X141419736Y-41342580D01*
X141435561Y-41274526D01*
X141469219Y-41236237D01*
X141507546Y-41207546D01*
X141593796Y-41092331D01*
X141644091Y-40957483D01*
X141650500Y-40897873D01*
X141650499Y-39302128D01*
X141644091Y-39242517D01*
X141644089Y-39242514D01*
X141643330Y-39235445D01*
X141655736Y-39166685D01*
X141678938Y-39134510D01*
X141770793Y-39042656D01*
X141918870Y-38838845D01*
X142033241Y-38614379D01*
X142111090Y-38374785D01*
X142150500Y-38125962D01*
X142150500Y-37874038D01*
X142111090Y-37625215D01*
X142033241Y-37385621D01*
X142033239Y-37385618D01*
X142033239Y-37385616D01*
X141962828Y-37247428D01*
X141918870Y-37161155D01*
X141858195Y-37077643D01*
X144789235Y-37077643D01*
X144789235Y-37320220D01*
X144820896Y-37560717D01*
X144883682Y-37795036D01*
X144963018Y-37986569D01*
X144976511Y-38019144D01*
X145097799Y-38229221D01*
X145097801Y-38229224D01*
X145097802Y-38229225D01*
X145245468Y-38421668D01*
X145245474Y-38421675D01*
X145416991Y-38593192D01*
X145416998Y-38593198D01*
X145429310Y-38602645D01*
X145609446Y-38740868D01*
X145819523Y-38862156D01*
X146043635Y-38954986D01*
X146277946Y-39017770D01*
X146458321Y-39041516D01*
X146518446Y-39049432D01*
X146518447Y-39049432D01*
X146761024Y-39049432D01*
X146814179Y-39042434D01*
X147001524Y-39017770D01*
X147235835Y-38954986D01*
X147459947Y-38862156D01*
X147670024Y-38740868D01*
X147862473Y-38593197D01*
X148034000Y-38421670D01*
X148181671Y-38229221D01*
X148302959Y-38019144D01*
X148395789Y-37795032D01*
X148458573Y-37560721D01*
X148490235Y-37320220D01*
X148490235Y-37077644D01*
X148458573Y-36837143D01*
X148395789Y-36602832D01*
X148302959Y-36378720D01*
X148181671Y-36168643D01*
X148034000Y-35976194D01*
X148033995Y-35976188D01*
X147862478Y-35804671D01*
X147862471Y-35804665D01*
X147670028Y-35656999D01*
X147670027Y-35656998D01*
X147670024Y-35656996D01*
X147459947Y-35535708D01*
X147459940Y-35535705D01*
X147235839Y-35442879D01*
X147001520Y-35380093D01*
X146761024Y-35348432D01*
X146761023Y-35348432D01*
X146518447Y-35348432D01*
X146518446Y-35348432D01*
X146277949Y-35380093D01*
X146043630Y-35442879D01*
X145819529Y-35535705D01*
X145819520Y-35535709D01*
X145609441Y-35656999D01*
X145416998Y-35804665D01*
X145416991Y-35804671D01*
X145245474Y-35976188D01*
X145245468Y-35976195D01*
X145097802Y-36168638D01*
X144976512Y-36378717D01*
X144976508Y-36378726D01*
X144883682Y-36602827D01*
X144820896Y-36837146D01*
X144789235Y-37077643D01*
X141858195Y-37077643D01*
X141770798Y-36957350D01*
X141770794Y-36957345D01*
X141592654Y-36779205D01*
X141592649Y-36779201D01*
X141388848Y-36631132D01*
X141388847Y-36631131D01*
X141388845Y-36631130D01*
X141318747Y-36595413D01*
X141164383Y-36516760D01*
X140924785Y-36438910D01*
X140901986Y-36435299D01*
X140675962Y-36399500D01*
X139124038Y-36399500D01*
X138999626Y-36419205D01*
X138875214Y-36438910D01*
X138635616Y-36516760D01*
X138411151Y-36631132D01*
X138207350Y-36779201D01*
X138207345Y-36779205D01*
X138029205Y-36957345D01*
X138029201Y-36957350D01*
X137881132Y-37161151D01*
X137766760Y-37385616D01*
X137688910Y-37625214D01*
X137684929Y-37650347D01*
X137649500Y-37874038D01*
X132100000Y-37874038D01*
X132100000Y-37844606D01*
X132099999Y-37844589D01*
X132093598Y-37785061D01*
X132093596Y-37785054D01*
X132043354Y-37650347D01*
X132043350Y-37650340D01*
X131957190Y-37535246D01*
X131957187Y-37535243D01*
X131842093Y-37449083D01*
X131842086Y-37449079D01*
X131707379Y-37398837D01*
X131707372Y-37398835D01*
X131647844Y-37392434D01*
X130950000Y-37392434D01*
X130950000Y-38417156D01*
X130873694Y-38373101D01*
X130759244Y-38342434D01*
X130640756Y-38342434D01*
X130526306Y-38373101D01*
X130450000Y-38417156D01*
X130450000Y-37392434D01*
X129752155Y-37392434D01*
X129692627Y-37398835D01*
X129692620Y-37398837D01*
X129557913Y-37449079D01*
X129557906Y-37449083D01*
X129442812Y-37535243D01*
X129442809Y-37535246D01*
X129356649Y-37650340D01*
X129356645Y-37650347D01*
X129306403Y-37785054D01*
X129306401Y-37785061D01*
X129300000Y-37844589D01*
X129300000Y-38542434D01*
X130324722Y-38542434D01*
X130280667Y-38618740D01*
X130250000Y-38733190D01*
X130250000Y-38851678D01*
X130280667Y-38966128D01*
X130324722Y-39042434D01*
X129300000Y-39042434D01*
X129300000Y-39740278D01*
X129306401Y-39799806D01*
X129306403Y-39799813D01*
X129356645Y-39934520D01*
X129356649Y-39934527D01*
X129442809Y-40049621D01*
X129442810Y-40049622D01*
X129466183Y-40067119D01*
X129508055Y-40123052D01*
X129513039Y-40192744D01*
X129495682Y-40234207D01*
X129464075Y-40282585D01*
X129370842Y-40495133D01*
X129313866Y-40720125D01*
X129313864Y-40720136D01*
X129294700Y-40951427D01*
X125964493Y-40951427D01*
X125864646Y-40851580D01*
X125678239Y-40721058D01*
X125678237Y-40721057D01*
X125472002Y-40624887D01*
X125471993Y-40624884D01*
X125252202Y-40565992D01*
X125252198Y-40565991D01*
X125252197Y-40565991D01*
X125252196Y-40565990D01*
X125252191Y-40565990D01*
X125025507Y-40546158D01*
X125025503Y-40546158D01*
X124798818Y-40565990D01*
X124798807Y-40565992D01*
X124579016Y-40624884D01*
X124579007Y-40624887D01*
X124372772Y-40721057D01*
X124372770Y-40721058D01*
X124186363Y-40851580D01*
X124025459Y-41012484D01*
X123894937Y-41198891D01*
X123894936Y-41198893D01*
X123798766Y-41405128D01*
X123798763Y-41405137D01*
X123739871Y-41624928D01*
X123739869Y-41624939D01*
X123720037Y-41851624D01*
X116170973Y-41851624D01*
X116169998Y-41840486D01*
X116151140Y-41624939D01*
X116151140Y-41624934D01*
X116102817Y-41444590D01*
X116092246Y-41405137D01*
X116092243Y-41405128D01*
X116044757Y-41303294D01*
X115996073Y-41198892D01*
X115865552Y-41012487D01*
X115865550Y-41012484D01*
X115704646Y-40851580D01*
X115518239Y-40721058D01*
X115518237Y-40721057D01*
X115312002Y-40624887D01*
X115311993Y-40624884D01*
X115092202Y-40565992D01*
X115092198Y-40565991D01*
X115092197Y-40565991D01*
X115092196Y-40565990D01*
X115092191Y-40565990D01*
X114865507Y-40546158D01*
X114865503Y-40546158D01*
X114638818Y-40565990D01*
X114638807Y-40565992D01*
X114419016Y-40624884D01*
X114419007Y-40624887D01*
X114212772Y-40721057D01*
X114212770Y-40721058D01*
X114026363Y-40851580D01*
X113865459Y-41012484D01*
X113734937Y-41198891D01*
X113734936Y-41198893D01*
X113638766Y-41405128D01*
X113638763Y-41405137D01*
X113579871Y-41624928D01*
X113579869Y-41624939D01*
X113560037Y-41851624D01*
X91303122Y-41851624D01*
X91304259Y-41840494D01*
X91304258Y-40640477D01*
X91302665Y-40624887D01*
X91293758Y-40537688D01*
X91293757Y-40537685D01*
X91279657Y-40495134D01*
X91238573Y-40371151D01*
X91146471Y-40221829D01*
X91022415Y-40097773D01*
X90873093Y-40005671D01*
X90706556Y-39950486D01*
X90706554Y-39950485D01*
X90603769Y-39939985D01*
X88403757Y-39939985D01*
X88403740Y-39939986D01*
X88300962Y-39950485D01*
X88300959Y-39950486D01*
X88134427Y-40005670D01*
X88134422Y-40005672D01*
X87985101Y-40097774D01*
X87861048Y-40221827D01*
X87768946Y-40371148D01*
X87768945Y-40371151D01*
X87713760Y-40537688D01*
X87713760Y-40537689D01*
X87713759Y-40537689D01*
X87703259Y-40640468D01*
X77911252Y-40640468D01*
X77989673Y-40536622D01*
X78080582Y-40354051D01*
X78136397Y-40157884D01*
X78155215Y-39954801D01*
X78136397Y-39751718D01*
X78080582Y-39555551D01*
X77989673Y-39372980D01*
X77866764Y-39210222D01*
X77859135Y-39203267D01*
X77822855Y-39143559D01*
X77824614Y-39073711D01*
X77863857Y-39015903D01*
X77885017Y-39003712D01*
X77884304Y-39002405D01*
X77892093Y-38998151D01*
X78007187Y-38911991D01*
X78007190Y-38911988D01*
X78093350Y-38796894D01*
X78093354Y-38796887D01*
X78143596Y-38662180D01*
X78143598Y-38662173D01*
X78146057Y-38639302D01*
X113560037Y-38639302D01*
X113560037Y-38639305D01*
X113579869Y-38865990D01*
X113579871Y-38866001D01*
X113638763Y-39085792D01*
X113638766Y-39085801D01*
X113734936Y-39292036D01*
X113734937Y-39292038D01*
X113865459Y-39478445D01*
X114026363Y-39639349D01*
X114026366Y-39639351D01*
X114212771Y-39769872D01*
X114419009Y-39866043D01*
X114638813Y-39924939D01*
X114800735Y-39939105D01*
X114865503Y-39944772D01*
X114865505Y-39944772D01*
X114865507Y-39944772D01*
X114922178Y-39939813D01*
X115092197Y-39924939D01*
X115312001Y-39866043D01*
X115518239Y-39769872D01*
X115704644Y-39639351D01*
X115865552Y-39478443D01*
X115996073Y-39292038D01*
X116092244Y-39085800D01*
X116151140Y-38865996D01*
X116170973Y-38639304D01*
X116170973Y-38639302D01*
X123720037Y-38639302D01*
X123720037Y-38639305D01*
X123739869Y-38865990D01*
X123739871Y-38866001D01*
X123798763Y-39085792D01*
X123798766Y-39085801D01*
X123894936Y-39292036D01*
X123894937Y-39292038D01*
X124025459Y-39478445D01*
X124186363Y-39639349D01*
X124186366Y-39639351D01*
X124372771Y-39769872D01*
X124579009Y-39866043D01*
X124798813Y-39924939D01*
X124960735Y-39939105D01*
X125025503Y-39944772D01*
X125025505Y-39944772D01*
X125025507Y-39944772D01*
X125082178Y-39939813D01*
X125252197Y-39924939D01*
X125472001Y-39866043D01*
X125678239Y-39769872D01*
X125864644Y-39639351D01*
X126025552Y-39478443D01*
X126156073Y-39292038D01*
X126252244Y-39085800D01*
X126311140Y-38865996D01*
X126330973Y-38639304D01*
X126311140Y-38412612D01*
X126262001Y-38229221D01*
X126252246Y-38192815D01*
X126252243Y-38192806D01*
X126156073Y-37986570D01*
X126025552Y-37800165D01*
X126025550Y-37800162D01*
X125864646Y-37639258D01*
X125678239Y-37508736D01*
X125678237Y-37508735D01*
X125472002Y-37412565D01*
X125471993Y-37412562D01*
X125252202Y-37353670D01*
X125252198Y-37353669D01*
X125252197Y-37353669D01*
X125252196Y-37353668D01*
X125252191Y-37353668D01*
X125025507Y-37333836D01*
X125025503Y-37333836D01*
X124798818Y-37353668D01*
X124798807Y-37353670D01*
X124579016Y-37412562D01*
X124579007Y-37412565D01*
X124372772Y-37508735D01*
X124372770Y-37508736D01*
X124186363Y-37639258D01*
X124025459Y-37800162D01*
X123894937Y-37986569D01*
X123894936Y-37986571D01*
X123798766Y-38192806D01*
X123798763Y-38192815D01*
X123739871Y-38412606D01*
X123739869Y-38412617D01*
X123720037Y-38639302D01*
X116170973Y-38639302D01*
X116151140Y-38412612D01*
X116102001Y-38229221D01*
X116092246Y-38192815D01*
X116092243Y-38192806D01*
X115996073Y-37986570D01*
X115865552Y-37800165D01*
X115865550Y-37800162D01*
X115704646Y-37639258D01*
X115518239Y-37508736D01*
X115518237Y-37508735D01*
X115312002Y-37412565D01*
X115311993Y-37412562D01*
X115092202Y-37353670D01*
X115092198Y-37353669D01*
X115092197Y-37353669D01*
X115092196Y-37353668D01*
X115092191Y-37353668D01*
X114865507Y-37333836D01*
X114865503Y-37333836D01*
X114638818Y-37353668D01*
X114638807Y-37353670D01*
X114419016Y-37412562D01*
X114419007Y-37412565D01*
X114212772Y-37508735D01*
X114212770Y-37508736D01*
X114026363Y-37639258D01*
X113865459Y-37800162D01*
X113734937Y-37986569D01*
X113734936Y-37986571D01*
X113638766Y-38192806D01*
X113638763Y-38192815D01*
X113579871Y-38412606D01*
X113579869Y-38412617D01*
X113560037Y-38639302D01*
X78146057Y-38639302D01*
X78149999Y-38602645D01*
X78150000Y-38602628D01*
X78150000Y-38204801D01*
X77216988Y-38204801D01*
X77234205Y-38194861D01*
X77290060Y-38139006D01*
X77329556Y-38070597D01*
X77350000Y-37994297D01*
X77350000Y-37915305D01*
X77329556Y-37839005D01*
X77290060Y-37770596D01*
X77234205Y-37714741D01*
X77216988Y-37704801D01*
X77300000Y-37704801D01*
X78150000Y-37704801D01*
X78150000Y-37306973D01*
X78149999Y-37306956D01*
X78143598Y-37247428D01*
X78143596Y-37247421D01*
X78093354Y-37112714D01*
X78093350Y-37112707D01*
X78007190Y-36997613D01*
X78007187Y-36997610D01*
X77892093Y-36911450D01*
X77892086Y-36911446D01*
X77757379Y-36861204D01*
X77757372Y-36861202D01*
X77697844Y-36854801D01*
X77300000Y-36854801D01*
X77300000Y-37704801D01*
X77216988Y-37704801D01*
X77165796Y-37675245D01*
X77089496Y-37654801D01*
X77010504Y-37654801D01*
X76934204Y-37675245D01*
X76865795Y-37714741D01*
X76809940Y-37770596D01*
X76770444Y-37839005D01*
X76750000Y-37915305D01*
X76750000Y-37994297D01*
X76770444Y-38070597D01*
X76809940Y-38139006D01*
X76865795Y-38194861D01*
X76883012Y-38204801D01*
X75950000Y-38204801D01*
X75950000Y-38602645D01*
X75956401Y-38662173D01*
X75956403Y-38662180D01*
X76006645Y-38796887D01*
X76006649Y-38796894D01*
X76092809Y-38911988D01*
X76092812Y-38911991D01*
X76207906Y-38998151D01*
X76215696Y-39002405D01*
X76214026Y-39005461D01*
X76256577Y-39037301D01*
X76281007Y-39102760D01*
X76266169Y-39171036D01*
X76240866Y-39203266D01*
X76233236Y-39210221D01*
X76110327Y-39372979D01*
X76019422Y-39555540D01*
X76019417Y-39555553D01*
X75963602Y-39751718D01*
X75944785Y-39954800D01*
X51161835Y-39954800D01*
X51161835Y-37189823D01*
X51161836Y-37189820D01*
X51161835Y-37126976D01*
X51161984Y-37120893D01*
X51164108Y-37077643D01*
X52789235Y-37077643D01*
X52789235Y-37320220D01*
X52820896Y-37560717D01*
X52883682Y-37795036D01*
X52963018Y-37986569D01*
X52976511Y-38019144D01*
X53097799Y-38229221D01*
X53097801Y-38229224D01*
X53097802Y-38229225D01*
X53245468Y-38421668D01*
X53245474Y-38421675D01*
X53416991Y-38593192D01*
X53416998Y-38593198D01*
X53429310Y-38602645D01*
X53609446Y-38740868D01*
X53819523Y-38862156D01*
X54043635Y-38954986D01*
X54277946Y-39017770D01*
X54458321Y-39041516D01*
X54518446Y-39049432D01*
X54518447Y-39049432D01*
X54761024Y-39049432D01*
X54814179Y-39042434D01*
X55001524Y-39017770D01*
X55235835Y-38954986D01*
X55459947Y-38862156D01*
X55670024Y-38740868D01*
X55862473Y-38593197D01*
X56034000Y-38421670D01*
X56181671Y-38229221D01*
X56302959Y-38019144D01*
X56395789Y-37795032D01*
X56458573Y-37560721D01*
X56490235Y-37320220D01*
X56490235Y-37306956D01*
X75950000Y-37306956D01*
X75950000Y-37704801D01*
X76800000Y-37704801D01*
X76800000Y-36854801D01*
X76402155Y-36854801D01*
X76342627Y-36861202D01*
X76342620Y-36861204D01*
X76207913Y-36911446D01*
X76207906Y-36911450D01*
X76092812Y-36997610D01*
X76092809Y-36997613D01*
X76006649Y-37112707D01*
X76006645Y-37112714D01*
X75956403Y-37247421D01*
X75956401Y-37247428D01*
X75950000Y-37306956D01*
X56490235Y-37306956D01*
X56490235Y-37077644D01*
X56458573Y-36837143D01*
X56395789Y-36602832D01*
X56302959Y-36378720D01*
X56181671Y-36168643D01*
X56034000Y-35976194D01*
X56033995Y-35976188D01*
X55862478Y-35804671D01*
X55862471Y-35804665D01*
X55670028Y-35656999D01*
X55670027Y-35656998D01*
X55670024Y-35656996D01*
X55459947Y-35535708D01*
X55459940Y-35535705D01*
X55235839Y-35442879D01*
X55001520Y-35380093D01*
X54761024Y-35348432D01*
X54761023Y-35348432D01*
X54518447Y-35348432D01*
X54518446Y-35348432D01*
X54277949Y-35380093D01*
X54043630Y-35442879D01*
X53819529Y-35535705D01*
X53819520Y-35535709D01*
X53609441Y-35656999D01*
X53416998Y-35804665D01*
X53416991Y-35804671D01*
X53245474Y-35976188D01*
X53245468Y-35976195D01*
X53097802Y-36168638D01*
X52976512Y-36378717D01*
X52976508Y-36378726D01*
X52883682Y-36602827D01*
X52820896Y-36837146D01*
X52789235Y-37077643D01*
X51164108Y-37077643D01*
X51171486Y-36927439D01*
X51178384Y-36786993D01*
X51179577Y-36774888D01*
X51228179Y-36447227D01*
X51230552Y-36435299D01*
X51239519Y-36399500D01*
X51311039Y-36113970D01*
X51314560Y-36102359D01*
X51426163Y-35790448D01*
X51430817Y-35779214D01*
X51435501Y-35769312D01*
X51572441Y-35479773D01*
X51578168Y-35469057D01*
X51748474Y-35184917D01*
X51755214Y-35174829D01*
X51952557Y-34908742D01*
X51960260Y-34899357D01*
X52182730Y-34653899D01*
X52191300Y-34645329D01*
X52436759Y-34422859D01*
X52446144Y-34415156D01*
X52712232Y-34217812D01*
X52722320Y-34211072D01*
X53006459Y-34040767D01*
X53017175Y-34035040D01*
X53316624Y-33893412D01*
X53327850Y-33888762D01*
X53639768Y-33777157D01*
X53651373Y-33773638D01*
X53972703Y-33693151D01*
X53984629Y-33690779D01*
X54312295Y-33642176D01*
X54324395Y-33640984D01*
X54658363Y-33624580D01*
X54664437Y-33624432D01*
X54727223Y-33624433D01*
X54727227Y-33624432D01*
X146595439Y-33624432D01*
X146658278Y-33624432D01*
X146664363Y-33624581D01*
G37*
G04 #@! TD.AperFunction*
M02*
