%TF.GenerationSoftware,KiCad,Pcbnew,8.0.8*%
%TF.CreationDate,2025-02-12T12:00:41+01:00*%
%TF.ProjectId,tesi,74657369-2e6b-4696-9361-645f70636258,rev?*%
%TF.SameCoordinates,Original*%
%TF.FileFunction,Drillmap*%
%TF.FilePolarity,Positive*%
%FSLAX45Y45*%
G04 Gerber Fmt 4.5, Leading zero omitted, Abs format (unit mm)*
G04 Created by KiCad (PCBNEW 8.0.8) date 2025-02-12 12:00:41*
%MOMM*%
%LPD*%
G01*
G04 APERTURE LIST*
%ADD10C,0.038100*%
%ADD11C,0.200000*%
%ADD12C,0.100000*%
%ADD13C,0.110000*%
%ADD14C,0.150000*%
G04 APERTURE END LIST*
D10*
X5066134Y-12912393D02*
X5066134Y-3712393D01*
X5466134Y-3312393D02*
X14666133Y-3312393D01*
X14666133Y-3312393D02*
G75*
G02*
X15066137Y-3712393I-4J-400007D01*
G01*
X14666133Y-13312393D02*
X5466134Y-13312393D01*
X5066134Y-3712393D02*
G75*
G02*
X5466134Y-3312393I399997J3D01*
G01*
X15066133Y-3712393D02*
X15066133Y-12912393D01*
X15066133Y-12912393D02*
G75*
G02*
X14666133Y-13312393I-400014J13D01*
G01*
X5466134Y-13312393D02*
G75*
G02*
X5066137Y-12912393I-4J399993D01*
G01*
D11*
D12*
X5834276Y-8405949D02*
X5910476Y-8482149D01*
X5910476Y-8405949D02*
X5834276Y-8482149D01*
X6088276Y-8405949D02*
X6164476Y-8482149D01*
X6164476Y-8405949D02*
X6088276Y-8482149D01*
X6342276Y-8405949D02*
X6418476Y-8482149D01*
X6418476Y-8405949D02*
X6342276Y-8482149D01*
X7436810Y-6669048D02*
G75*
G02*
X7356810Y-6669048I-40000J0D01*
G01*
X7356810Y-6669048D02*
G75*
G02*
X7436810Y-6669048I40000J0D01*
G01*
X7695810Y-6163048D02*
G75*
G02*
X7615810Y-6163048I-40000J0D01*
G01*
X7615810Y-6163048D02*
G75*
G02*
X7695810Y-6163048I40000J0D01*
G01*
X7949810Y-6163048D02*
G75*
G02*
X7869810Y-6163048I-40000J0D01*
G01*
X7869810Y-6163048D02*
G75*
G02*
X7949810Y-6163048I40000J0D01*
G01*
X8198810Y-6669048D02*
G75*
G02*
X8118810Y-6669048I-40000J0D01*
G01*
X8118810Y-6669048D02*
G75*
G02*
X8198810Y-6669048I40000J0D01*
G01*
X11506376Y-3599048D02*
G75*
G02*
X11426376Y-3599048I-40000J0D01*
G01*
X11426376Y-3599048D02*
G75*
G02*
X11506376Y-3599048I40000J0D01*
G01*
X11506376Y-4114048D02*
G75*
G02*
X11426376Y-4114048I-40000J0D01*
G01*
X11426376Y-4114048D02*
G75*
G02*
X11506376Y-4114048I40000J0D01*
G01*
X11506376Y-4629049D02*
G75*
G02*
X11426376Y-4629049I-40000J0D01*
G01*
X11426376Y-4629049D02*
G75*
G02*
X11506376Y-4629049I40000J0D01*
G01*
X12263605Y-10211986D02*
G75*
G02*
X12183605Y-10211986I-40000J0D01*
G01*
X12183605Y-10211986D02*
G75*
G02*
X12263605Y-10211986I40000J0D01*
G01*
X12264605Y-9701986D02*
G75*
G02*
X12184605Y-9701986I-40000J0D01*
G01*
X12184605Y-9701986D02*
G75*
G02*
X12264605Y-9701986I40000J0D01*
G01*
X12268376Y-3599048D02*
G75*
G02*
X12188376Y-3599048I-40000J0D01*
G01*
X12188376Y-3599048D02*
G75*
G02*
X12268376Y-3599048I40000J0D01*
G01*
X12268376Y-4114048D02*
G75*
G02*
X12188376Y-4114048I-40000J0D01*
G01*
X12188376Y-4114048D02*
G75*
G02*
X12268376Y-4114048I40000J0D01*
G01*
X12268376Y-4629049D02*
G75*
G02*
X12188376Y-4629049I-40000J0D01*
G01*
X12188376Y-4629049D02*
G75*
G02*
X12268376Y-4629049I40000J0D01*
G01*
X13025605Y-10211986D02*
G75*
G02*
X12945605Y-10211986I-40000J0D01*
G01*
X12945605Y-10211986D02*
G75*
G02*
X13025605Y-10211986I40000J0D01*
G01*
X13026605Y-9701986D02*
G75*
G02*
X12946605Y-9701986I-40000J0D01*
G01*
X12946605Y-9701986D02*
G75*
G02*
X13026605Y-9701986I40000J0D01*
G01*
X13830376Y-3917048D02*
G75*
G02*
X13750376Y-3917048I-40000J0D01*
G01*
X13750376Y-3917048D02*
G75*
G02*
X13830376Y-3917048I40000J0D01*
G01*
X13830376Y-4117048D02*
G75*
G02*
X13750376Y-4117048I-40000J0D01*
G01*
X13750376Y-4117048D02*
G75*
G02*
X13830376Y-4117048I40000J0D01*
G01*
X13830376Y-4317049D02*
G75*
G02*
X13750376Y-4317049I-40000J0D01*
G01*
X13750376Y-4317049D02*
G75*
G02*
X13830376Y-4317049I40000J0D01*
G01*
X12740376Y-3755548D02*
X12740376Y-3845548D01*
X12695376Y-3800548D02*
X12785376Y-3800548D01*
X12740376Y-3971448D02*
X12740376Y-4061448D01*
X12695376Y-4016448D02*
X12785376Y-4016448D01*
X12740376Y-4187348D02*
X12740376Y-4277349D01*
X12695376Y-4232349D02*
X12785376Y-4232349D01*
X12740376Y-4403249D02*
X12740376Y-4493249D01*
X12695376Y-4448249D02*
X12785376Y-4448249D01*
X5912732Y-5684404D02*
X5912732Y-5613693D01*
X5842020Y-5613693D01*
X5842020Y-5684404D01*
X5912732Y-5684404D01*
X6162732Y-5684404D02*
X6162732Y-5613693D01*
X6092020Y-5613693D01*
X6092020Y-5684404D01*
X6162732Y-5684404D01*
X6163902Y-11264266D02*
X6163902Y-11193555D01*
X6093190Y-11193555D01*
X6093190Y-11264266D01*
X6163902Y-11264266D01*
X6412732Y-5684404D02*
X6412732Y-5613693D01*
X6342020Y-5613693D01*
X6342020Y-5684404D01*
X6412732Y-5684404D01*
X6417902Y-9486267D02*
X6417902Y-9415555D01*
X6347190Y-9415555D01*
X6347190Y-9486267D01*
X6417902Y-9486267D01*
X6417902Y-11264266D02*
X6417902Y-11193555D01*
X6347190Y-11193555D01*
X6347190Y-11264266D01*
X6417902Y-11264266D01*
X6671902Y-9486267D02*
X6671902Y-9415555D01*
X6601190Y-9415555D01*
X6601190Y-9486267D01*
X6671902Y-9486267D01*
X6671902Y-11264266D02*
X6671902Y-11193555D01*
X6601190Y-11193555D01*
X6601190Y-11264266D01*
X6671902Y-11264266D01*
X6925902Y-9486267D02*
X6925902Y-9415555D01*
X6855190Y-9415555D01*
X6855190Y-9486267D01*
X6925902Y-9486267D01*
X6925902Y-11264266D02*
X6925902Y-11193555D01*
X6855190Y-11193555D01*
X6855190Y-11264266D01*
X6925902Y-11264266D01*
X7179902Y-9486267D02*
X7179902Y-9415555D01*
X7109190Y-9415555D01*
X7109190Y-9486267D01*
X7179902Y-9486267D01*
X7179902Y-11264266D02*
X7179902Y-11193555D01*
X7109190Y-11193555D01*
X7109190Y-11264266D01*
X7179902Y-11264266D01*
X7433902Y-11264266D02*
X7433902Y-11193555D01*
X7363190Y-11193555D01*
X7363190Y-11264266D01*
X7433902Y-11264266D01*
X7560665Y-7455262D02*
X7560665Y-7384551D01*
X7489954Y-7384551D01*
X7489954Y-7455262D01*
X7560665Y-7455262D01*
X7560665Y-7962762D02*
X7560665Y-7892051D01*
X7489954Y-7892051D01*
X7489954Y-7962762D01*
X7560665Y-7962762D01*
X7560665Y-8470262D02*
X7560665Y-8399551D01*
X7489954Y-8399551D01*
X7489954Y-8470262D01*
X7560665Y-8470262D01*
X7814665Y-7455262D02*
X7814665Y-7384551D01*
X7743954Y-7384551D01*
X7743954Y-7455262D01*
X7814665Y-7455262D01*
X7814665Y-7962762D02*
X7814665Y-7892051D01*
X7743954Y-7892051D01*
X7743954Y-7962762D01*
X7814665Y-7962762D01*
X7814665Y-8470262D02*
X7814665Y-8399551D01*
X7743954Y-8399551D01*
X7743954Y-8470262D01*
X7814665Y-8470262D01*
X8068665Y-7455262D02*
X8068665Y-7384551D01*
X7997954Y-7384551D01*
X7997954Y-7455262D01*
X8068665Y-7455262D01*
X8068665Y-7962762D02*
X8068665Y-7892051D01*
X7997954Y-7892051D01*
X7997954Y-7962762D01*
X8068665Y-7962762D01*
X8068665Y-8470262D02*
X8068665Y-8399551D01*
X7997954Y-8399551D01*
X7997954Y-8470262D01*
X8068665Y-8470262D01*
X8322665Y-8470262D02*
X8322665Y-8399551D01*
X8251954Y-8399551D01*
X8251954Y-8470262D01*
X8322665Y-8470262D01*
X8707732Y-11265404D02*
X8707732Y-11194693D01*
X8637020Y-11194693D01*
X8637020Y-11265404D01*
X8707732Y-11265404D01*
X8955732Y-4159404D02*
X8955732Y-4088693D01*
X8885020Y-4088693D01*
X8885020Y-4159404D01*
X8955732Y-4159404D01*
X8955732Y-4413404D02*
X8955732Y-4342693D01*
X8885020Y-4342693D01*
X8885020Y-4413404D01*
X8955732Y-4413404D01*
X8955732Y-4667404D02*
X8955732Y-4596693D01*
X8885020Y-4596693D01*
X8885020Y-4667404D01*
X8955732Y-4667404D01*
X8955732Y-4921404D02*
X8955732Y-4850693D01*
X8885020Y-4850693D01*
X8885020Y-4921404D01*
X8955732Y-4921404D01*
X8955732Y-5175404D02*
X8955732Y-5104693D01*
X8885020Y-5104693D01*
X8885020Y-5175404D01*
X8955732Y-5175404D01*
X8955732Y-5429404D02*
X8955732Y-5358693D01*
X8885020Y-5358693D01*
X8885020Y-5429404D01*
X8955732Y-5429404D01*
X8955732Y-5683404D02*
X8955732Y-5612693D01*
X8885020Y-5612693D01*
X8885020Y-5683404D01*
X8955732Y-5683404D01*
X8955732Y-5937404D02*
X8955732Y-5866693D01*
X8885020Y-5866693D01*
X8885020Y-5937404D01*
X8955732Y-5937404D01*
X8955732Y-6191404D02*
X8955732Y-6120693D01*
X8885020Y-6120693D01*
X8885020Y-6191404D01*
X8955732Y-6191404D01*
X8955732Y-6445404D02*
X8955732Y-6374693D01*
X8885020Y-6374693D01*
X8885020Y-6445404D01*
X8955732Y-6445404D01*
X8955732Y-6699404D02*
X8955732Y-6628693D01*
X8885020Y-6628693D01*
X8885020Y-6699404D01*
X8955732Y-6699404D01*
X8955732Y-6953404D02*
X8955732Y-6882693D01*
X8885020Y-6882693D01*
X8885020Y-6953404D01*
X8955732Y-6953404D01*
X8955732Y-7207404D02*
X8955732Y-7136693D01*
X8885020Y-7136693D01*
X8885020Y-7207404D01*
X8955732Y-7207404D01*
X8955732Y-7461404D02*
X8955732Y-7390693D01*
X8885020Y-7390693D01*
X8885020Y-7461404D01*
X8955732Y-7461404D01*
X8955732Y-7715404D02*
X8955732Y-7644693D01*
X8885020Y-7644693D01*
X8885020Y-7715404D01*
X8955732Y-7715404D01*
X8955732Y-7969404D02*
X8955732Y-7898693D01*
X8885020Y-7898693D01*
X8885020Y-7969404D01*
X8955732Y-7969404D01*
X8961732Y-11265404D02*
X8961732Y-11194693D01*
X8891020Y-11194693D01*
X8891020Y-11265404D01*
X8961732Y-11265404D01*
X9215732Y-11265404D02*
X9215732Y-11194693D01*
X9145020Y-11194693D01*
X9145020Y-11265404D01*
X9215732Y-11265404D01*
X9469732Y-11265404D02*
X9469732Y-11194693D01*
X9399020Y-11194693D01*
X9399020Y-11265404D01*
X9469732Y-11265404D01*
X9471732Y-9490404D02*
X9471732Y-9419693D01*
X9401020Y-9419693D01*
X9401020Y-9490404D01*
X9471732Y-9490404D01*
X9723732Y-11265404D02*
X9723732Y-11194693D01*
X9653020Y-11194693D01*
X9653020Y-11265404D01*
X9723732Y-11265404D01*
X9725732Y-9490404D02*
X9725732Y-9419693D01*
X9655020Y-9419693D01*
X9655020Y-9490404D01*
X9725732Y-9490404D01*
X9977732Y-11265404D02*
X9977732Y-11194693D01*
X9907020Y-11194693D01*
X9907020Y-11265404D01*
X9977732Y-11265404D01*
X9979732Y-9490404D02*
X9979732Y-9419693D01*
X9909020Y-9419693D01*
X9909020Y-9490404D01*
X9979732Y-9490404D01*
X10231732Y-11265404D02*
X10231732Y-11194693D01*
X10161020Y-11194693D01*
X10161020Y-11265404D01*
X10231732Y-11265404D01*
X10233732Y-9490404D02*
X10233732Y-9419693D01*
X10163020Y-9419693D01*
X10163020Y-9490404D01*
X10233732Y-9490404D01*
X10485732Y-11265404D02*
X10485732Y-11194693D01*
X10415020Y-11194693D01*
X10415020Y-11265404D01*
X10485732Y-11265404D01*
X10487732Y-9490404D02*
X10487732Y-9419693D01*
X10417020Y-9419693D01*
X10417020Y-9490404D01*
X10487732Y-9490404D01*
X10739732Y-11265404D02*
X10739732Y-11194693D01*
X10669020Y-11194693D01*
X10669020Y-11265404D01*
X10739732Y-11265404D01*
X10741732Y-9490404D02*
X10741732Y-9419693D01*
X10671020Y-9419693D01*
X10671020Y-9490404D01*
X10741732Y-9490404D01*
X10987732Y-5175404D02*
X10987732Y-5104693D01*
X10917020Y-5104693D01*
X10917020Y-5175404D01*
X10987732Y-5175404D01*
X10987732Y-5429404D02*
X10987732Y-5358693D01*
X10917020Y-5358693D01*
X10917020Y-5429404D01*
X10987732Y-5429404D01*
X10987732Y-5683404D02*
X10987732Y-5612693D01*
X10917020Y-5612693D01*
X10917020Y-5683404D01*
X10987732Y-5683404D01*
X10987732Y-5937404D02*
X10987732Y-5866693D01*
X10917020Y-5866693D01*
X10917020Y-5937404D01*
X10987732Y-5937404D01*
X10987732Y-6191404D02*
X10987732Y-6120693D01*
X10917020Y-6120693D01*
X10917020Y-6191404D01*
X10987732Y-6191404D01*
X10987732Y-6445404D02*
X10987732Y-6374693D01*
X10917020Y-6374693D01*
X10917020Y-6445404D01*
X10987732Y-6445404D01*
X10987732Y-6699404D02*
X10987732Y-6628693D01*
X10917020Y-6628693D01*
X10917020Y-6699404D01*
X10987732Y-6699404D01*
X10987732Y-6953404D02*
X10987732Y-6882693D01*
X10917020Y-6882693D01*
X10917020Y-6953404D01*
X10987732Y-6953404D01*
X10987732Y-7207404D02*
X10987732Y-7136693D01*
X10917020Y-7136693D01*
X10917020Y-7207404D01*
X10987732Y-7207404D01*
X10987732Y-7461404D02*
X10987732Y-7390693D01*
X10917020Y-7390693D01*
X10917020Y-7461404D01*
X10987732Y-7461404D01*
X10987732Y-7715404D02*
X10987732Y-7644693D01*
X10917020Y-7644693D01*
X10917020Y-7715404D01*
X10987732Y-7715404D01*
X10987732Y-7969404D02*
X10987732Y-7898693D01*
X10917020Y-7898693D01*
X10917020Y-7969404D01*
X10987732Y-7969404D01*
X10993732Y-11265404D02*
X10993732Y-11194693D01*
X10923020Y-11194693D01*
X10923020Y-11265404D01*
X10993732Y-11265404D01*
X11247732Y-11265404D02*
X11247732Y-11194693D01*
X11177020Y-11194693D01*
X11177020Y-11265404D01*
X11247732Y-11265404D01*
X11501732Y-11265404D02*
X11501732Y-11194693D01*
X11431020Y-11194693D01*
X11431020Y-11265404D01*
X11501732Y-11265404D01*
X12259188Y-10756808D02*
X12259188Y-10686097D01*
X12188476Y-10686097D01*
X12188476Y-10756808D01*
X12259188Y-10756808D01*
X12513188Y-10756808D02*
X12513188Y-10686097D01*
X12442476Y-10686097D01*
X12442476Y-10756808D01*
X12513188Y-10756808D01*
X12767188Y-10756808D02*
X12767188Y-10686097D01*
X12696476Y-10686097D01*
X12696476Y-10756808D01*
X12767188Y-10756808D01*
X13021188Y-10756808D02*
X13021188Y-10686097D01*
X12950476Y-10686097D01*
X12950476Y-10756808D01*
X13021188Y-10756808D01*
X13782732Y-9749404D02*
X13782732Y-9678693D01*
X13712020Y-9678693D01*
X13712020Y-9749404D01*
X13782732Y-9749404D01*
X13782732Y-10003404D02*
X13782732Y-9932693D01*
X13712020Y-9932693D01*
X13712020Y-10003404D01*
X13782732Y-10003404D01*
X13782732Y-10257404D02*
X13782732Y-10186693D01*
X13712020Y-10186693D01*
X13712020Y-10257404D01*
X13782732Y-10257404D01*
X13782732Y-10511404D02*
X13782732Y-10440693D01*
X13712020Y-10440693D01*
X13712020Y-10511404D01*
X13782732Y-10511404D01*
X13782732Y-10765404D02*
X13782732Y-10694693D01*
X13712020Y-10694693D01*
X13712020Y-10765404D01*
X13782732Y-10765404D01*
X13782732Y-11019404D02*
X13782732Y-10948693D01*
X13712020Y-10948693D01*
X13712020Y-11019404D01*
X13782732Y-11019404D01*
D13*
X7462376Y-4712049D02*
X7517376Y-4657049D01*
X7462376Y-4602049D01*
X7407376Y-4657049D01*
X7462376Y-4712049D01*
X7462376Y-5162049D02*
X7517376Y-5107049D01*
X7462376Y-5052049D01*
X7407376Y-5107049D01*
X7462376Y-5162049D01*
X8112376Y-4712049D02*
X8167376Y-4657049D01*
X8112376Y-4602049D01*
X8057376Y-4657049D01*
X8112376Y-4712049D01*
X8112376Y-5162049D02*
X8167376Y-5107049D01*
X8112376Y-5052049D01*
X8057376Y-5107049D01*
X8112376Y-5162049D01*
D14*
X13715376Y-3632048D02*
X13865376Y-3782048D01*
X13865376Y-3632048D02*
X13715376Y-3782048D01*
X13865376Y-3707048D02*
G75*
G02*
X13715376Y-3707048I-75000J0D01*
G01*
X13715376Y-3707048D02*
G75*
G02*
X13865376Y-3707048I75000J0D01*
G01*
X13715376Y-4452049D02*
X13865376Y-4602049D01*
X13865376Y-4452049D02*
X13715376Y-4602049D01*
X13865376Y-4527049D02*
G75*
G02*
X13715376Y-4527049I-75000J0D01*
G01*
X13715376Y-4527049D02*
G75*
G02*
X13865376Y-4527049I75000J0D01*
G01*
D11*
X5552376Y-4799049D02*
X5752376Y-4999049D01*
X5752376Y-4799049D02*
X5552376Y-4999049D01*
X5652376Y-4799049D02*
X5652376Y-4999049D01*
X5552376Y-4899049D02*
X5752376Y-4899049D01*
X6502376Y-4799049D02*
X6702376Y-4999049D01*
X6702376Y-4799049D02*
X6502376Y-4999049D01*
X6602376Y-4799049D02*
X6602376Y-4999049D01*
X6502376Y-4899049D02*
X6702376Y-4899049D01*
X5325005Y-13625782D02*
X5325005Y-13425782D01*
X5325005Y-13425782D02*
X5372624Y-13425782D01*
X5372624Y-13425782D02*
X5401196Y-13435306D01*
X5401196Y-13435306D02*
X5420243Y-13454353D01*
X5420243Y-13454353D02*
X5429767Y-13473401D01*
X5429767Y-13473401D02*
X5439291Y-13511496D01*
X5439291Y-13511496D02*
X5439291Y-13540068D01*
X5439291Y-13540068D02*
X5429767Y-13578163D01*
X5429767Y-13578163D02*
X5420243Y-13597210D01*
X5420243Y-13597210D02*
X5401196Y-13616258D01*
X5401196Y-13616258D02*
X5372624Y-13625782D01*
X5372624Y-13625782D02*
X5325005Y-13625782D01*
X5525005Y-13625782D02*
X5525005Y-13492449D01*
X5525005Y-13530544D02*
X5534529Y-13511496D01*
X5534529Y-13511496D02*
X5544053Y-13501972D01*
X5544053Y-13501972D02*
X5563101Y-13492449D01*
X5563101Y-13492449D02*
X5582148Y-13492449D01*
X5648815Y-13625782D02*
X5648815Y-13492449D01*
X5648815Y-13425782D02*
X5639291Y-13435306D01*
X5639291Y-13435306D02*
X5648815Y-13444830D01*
X5648815Y-13444830D02*
X5658339Y-13435306D01*
X5658339Y-13435306D02*
X5648815Y-13425782D01*
X5648815Y-13425782D02*
X5648815Y-13444830D01*
X5772624Y-13625782D02*
X5753577Y-13616258D01*
X5753577Y-13616258D02*
X5744053Y-13597210D01*
X5744053Y-13597210D02*
X5744053Y-13425782D01*
X5877386Y-13625782D02*
X5858339Y-13616258D01*
X5858339Y-13616258D02*
X5848815Y-13597210D01*
X5848815Y-13597210D02*
X5848815Y-13425782D01*
X6105958Y-13625782D02*
X6105958Y-13425782D01*
X6105958Y-13425782D02*
X6172624Y-13568639D01*
X6172624Y-13568639D02*
X6239291Y-13425782D01*
X6239291Y-13425782D02*
X6239291Y-13625782D01*
X6420243Y-13625782D02*
X6420243Y-13521020D01*
X6420243Y-13521020D02*
X6410720Y-13501972D01*
X6410720Y-13501972D02*
X6391672Y-13492449D01*
X6391672Y-13492449D02*
X6353577Y-13492449D01*
X6353577Y-13492449D02*
X6334529Y-13501972D01*
X6420243Y-13616258D02*
X6401196Y-13625782D01*
X6401196Y-13625782D02*
X6353577Y-13625782D01*
X6353577Y-13625782D02*
X6334529Y-13616258D01*
X6334529Y-13616258D02*
X6325005Y-13597210D01*
X6325005Y-13597210D02*
X6325005Y-13578163D01*
X6325005Y-13578163D02*
X6334529Y-13559115D01*
X6334529Y-13559115D02*
X6353577Y-13549591D01*
X6353577Y-13549591D02*
X6401196Y-13549591D01*
X6401196Y-13549591D02*
X6420243Y-13540068D01*
X6515481Y-13492449D02*
X6515481Y-13692449D01*
X6515481Y-13501972D02*
X6534529Y-13492449D01*
X6534529Y-13492449D02*
X6572624Y-13492449D01*
X6572624Y-13492449D02*
X6591672Y-13501972D01*
X6591672Y-13501972D02*
X6601196Y-13511496D01*
X6601196Y-13511496D02*
X6610720Y-13530544D01*
X6610720Y-13530544D02*
X6610720Y-13587687D01*
X6610720Y-13587687D02*
X6601196Y-13606734D01*
X6601196Y-13606734D02*
X6591672Y-13616258D01*
X6591672Y-13616258D02*
X6572624Y-13625782D01*
X6572624Y-13625782D02*
X6534529Y-13625782D01*
X6534529Y-13625782D02*
X6515481Y-13616258D01*
X6696434Y-13606734D02*
X6705958Y-13616258D01*
X6705958Y-13616258D02*
X6696434Y-13625782D01*
X6696434Y-13625782D02*
X6686910Y-13616258D01*
X6686910Y-13616258D02*
X6696434Y-13606734D01*
X6696434Y-13606734D02*
X6696434Y-13625782D01*
X6696434Y-13501972D02*
X6705958Y-13511496D01*
X6705958Y-13511496D02*
X6696434Y-13521020D01*
X6696434Y-13521020D02*
X6686910Y-13511496D01*
X6686910Y-13511496D02*
X6696434Y-13501972D01*
X6696434Y-13501972D02*
X6696434Y-13521020D01*
D12*
X4988029Y-13916198D02*
X5064229Y-13992398D01*
X5064229Y-13916198D02*
X4988029Y-13992398D01*
D11*
X5363101Y-13845782D02*
X5382148Y-13845782D01*
X5382148Y-13845782D02*
X5401196Y-13855306D01*
X5401196Y-13855306D02*
X5410720Y-13864830D01*
X5410720Y-13864830D02*
X5420243Y-13883877D01*
X5420243Y-13883877D02*
X5429767Y-13921972D01*
X5429767Y-13921972D02*
X5429767Y-13969591D01*
X5429767Y-13969591D02*
X5420243Y-14007687D01*
X5420243Y-14007687D02*
X5410720Y-14026734D01*
X5410720Y-14026734D02*
X5401196Y-14036258D01*
X5401196Y-14036258D02*
X5382148Y-14045782D01*
X5382148Y-14045782D02*
X5363101Y-14045782D01*
X5363101Y-14045782D02*
X5344053Y-14036258D01*
X5344053Y-14036258D02*
X5334529Y-14026734D01*
X5334529Y-14026734D02*
X5325005Y-14007687D01*
X5325005Y-14007687D02*
X5315482Y-13969591D01*
X5315482Y-13969591D02*
X5315482Y-13921972D01*
X5315482Y-13921972D02*
X5325005Y-13883877D01*
X5325005Y-13883877D02*
X5334529Y-13864830D01*
X5334529Y-13864830D02*
X5344053Y-13855306D01*
X5344053Y-13855306D02*
X5363101Y-13845782D01*
X5515482Y-14026734D02*
X5525005Y-14036258D01*
X5525005Y-14036258D02*
X5515482Y-14045782D01*
X5515482Y-14045782D02*
X5505958Y-14036258D01*
X5505958Y-14036258D02*
X5515482Y-14026734D01*
X5515482Y-14026734D02*
X5515482Y-14045782D01*
X5591672Y-13845782D02*
X5725005Y-13845782D01*
X5725005Y-13845782D02*
X5639291Y-14045782D01*
X5886910Y-13845782D02*
X5848815Y-13845782D01*
X5848815Y-13845782D02*
X5829767Y-13855306D01*
X5829767Y-13855306D02*
X5820243Y-13864830D01*
X5820243Y-13864830D02*
X5801196Y-13893401D01*
X5801196Y-13893401D02*
X5791672Y-13931496D01*
X5791672Y-13931496D02*
X5791672Y-14007687D01*
X5791672Y-14007687D02*
X5801196Y-14026734D01*
X5801196Y-14026734D02*
X5810720Y-14036258D01*
X5810720Y-14036258D02*
X5829767Y-14045782D01*
X5829767Y-14045782D02*
X5867862Y-14045782D01*
X5867862Y-14045782D02*
X5886910Y-14036258D01*
X5886910Y-14036258D02*
X5896434Y-14026734D01*
X5896434Y-14026734D02*
X5905958Y-14007687D01*
X5905958Y-14007687D02*
X5905958Y-13960068D01*
X5905958Y-13960068D02*
X5896434Y-13941020D01*
X5896434Y-13941020D02*
X5886910Y-13931496D01*
X5886910Y-13931496D02*
X5867862Y-13921972D01*
X5867862Y-13921972D02*
X5829767Y-13921972D01*
X5829767Y-13921972D02*
X5810720Y-13931496D01*
X5810720Y-13931496D02*
X5801196Y-13941020D01*
X5801196Y-13941020D02*
X5791672Y-13960068D01*
X5982148Y-13864830D02*
X5991672Y-13855306D01*
X5991672Y-13855306D02*
X6010720Y-13845782D01*
X6010720Y-13845782D02*
X6058339Y-13845782D01*
X6058339Y-13845782D02*
X6077386Y-13855306D01*
X6077386Y-13855306D02*
X6086910Y-13864830D01*
X6086910Y-13864830D02*
X6096434Y-13883877D01*
X6096434Y-13883877D02*
X6096434Y-13902925D01*
X6096434Y-13902925D02*
X6086910Y-13931496D01*
X6086910Y-13931496D02*
X5972624Y-14045782D01*
X5972624Y-14045782D02*
X6096434Y-14045782D01*
X6182148Y-14045782D02*
X6182148Y-13912449D01*
X6182148Y-13931496D02*
X6191672Y-13921972D01*
X6191672Y-13921972D02*
X6210720Y-13912449D01*
X6210720Y-13912449D02*
X6239291Y-13912449D01*
X6239291Y-13912449D02*
X6258339Y-13921972D01*
X6258339Y-13921972D02*
X6267862Y-13941020D01*
X6267862Y-13941020D02*
X6267862Y-14045782D01*
X6267862Y-13941020D02*
X6277386Y-13921972D01*
X6277386Y-13921972D02*
X6296434Y-13912449D01*
X6296434Y-13912449D02*
X6325005Y-13912449D01*
X6325005Y-13912449D02*
X6344053Y-13921972D01*
X6344053Y-13921972D02*
X6353577Y-13941020D01*
X6353577Y-13941020D02*
X6353577Y-14045782D01*
X6448815Y-14045782D02*
X6448815Y-13912449D01*
X6448815Y-13931496D02*
X6458339Y-13921972D01*
X6458339Y-13921972D02*
X6477386Y-13912449D01*
X6477386Y-13912449D02*
X6505958Y-13912449D01*
X6505958Y-13912449D02*
X6525005Y-13921972D01*
X6525005Y-13921972D02*
X6534529Y-13941020D01*
X6534529Y-13941020D02*
X6534529Y-14045782D01*
X6534529Y-13941020D02*
X6544053Y-13921972D01*
X6544053Y-13921972D02*
X6563101Y-13912449D01*
X6563101Y-13912449D02*
X6591672Y-13912449D01*
X6591672Y-13912449D02*
X6610720Y-13921972D01*
X6610720Y-13921972D02*
X6620243Y-13941020D01*
X6620243Y-13941020D02*
X6620243Y-14045782D01*
X7010720Y-13836258D02*
X6839291Y-14093401D01*
X7267863Y-13845782D02*
X7286910Y-13845782D01*
X7286910Y-13845782D02*
X7305958Y-13855306D01*
X7305958Y-13855306D02*
X7315482Y-13864830D01*
X7315482Y-13864830D02*
X7325005Y-13883877D01*
X7325005Y-13883877D02*
X7334529Y-13921972D01*
X7334529Y-13921972D02*
X7334529Y-13969591D01*
X7334529Y-13969591D02*
X7325005Y-14007687D01*
X7325005Y-14007687D02*
X7315482Y-14026734D01*
X7315482Y-14026734D02*
X7305958Y-14036258D01*
X7305958Y-14036258D02*
X7286910Y-14045782D01*
X7286910Y-14045782D02*
X7267863Y-14045782D01*
X7267863Y-14045782D02*
X7248815Y-14036258D01*
X7248815Y-14036258D02*
X7239291Y-14026734D01*
X7239291Y-14026734D02*
X7229767Y-14007687D01*
X7229767Y-14007687D02*
X7220244Y-13969591D01*
X7220244Y-13969591D02*
X7220244Y-13921972D01*
X7220244Y-13921972D02*
X7229767Y-13883877D01*
X7229767Y-13883877D02*
X7239291Y-13864830D01*
X7239291Y-13864830D02*
X7248815Y-13855306D01*
X7248815Y-13855306D02*
X7267863Y-13845782D01*
X7420244Y-14026734D02*
X7429767Y-14036258D01*
X7429767Y-14036258D02*
X7420244Y-14045782D01*
X7420244Y-14045782D02*
X7410720Y-14036258D01*
X7410720Y-14036258D02*
X7420244Y-14026734D01*
X7420244Y-14026734D02*
X7420244Y-14045782D01*
X7553577Y-13845782D02*
X7572625Y-13845782D01*
X7572625Y-13845782D02*
X7591672Y-13855306D01*
X7591672Y-13855306D02*
X7601196Y-13864830D01*
X7601196Y-13864830D02*
X7610720Y-13883877D01*
X7610720Y-13883877D02*
X7620244Y-13921972D01*
X7620244Y-13921972D02*
X7620244Y-13969591D01*
X7620244Y-13969591D02*
X7610720Y-14007687D01*
X7610720Y-14007687D02*
X7601196Y-14026734D01*
X7601196Y-14026734D02*
X7591672Y-14036258D01*
X7591672Y-14036258D02*
X7572625Y-14045782D01*
X7572625Y-14045782D02*
X7553577Y-14045782D01*
X7553577Y-14045782D02*
X7534529Y-14036258D01*
X7534529Y-14036258D02*
X7525005Y-14026734D01*
X7525005Y-14026734D02*
X7515482Y-14007687D01*
X7515482Y-14007687D02*
X7505958Y-13969591D01*
X7505958Y-13969591D02*
X7505958Y-13921972D01*
X7505958Y-13921972D02*
X7515482Y-13883877D01*
X7515482Y-13883877D02*
X7525005Y-13864830D01*
X7525005Y-13864830D02*
X7534529Y-13855306D01*
X7534529Y-13855306D02*
X7553577Y-13845782D01*
X7686910Y-13845782D02*
X7810720Y-13845782D01*
X7810720Y-13845782D02*
X7744053Y-13921972D01*
X7744053Y-13921972D02*
X7772625Y-13921972D01*
X7772625Y-13921972D02*
X7791672Y-13931496D01*
X7791672Y-13931496D02*
X7801196Y-13941020D01*
X7801196Y-13941020D02*
X7810720Y-13960068D01*
X7810720Y-13960068D02*
X7810720Y-14007687D01*
X7810720Y-14007687D02*
X7801196Y-14026734D01*
X7801196Y-14026734D02*
X7791672Y-14036258D01*
X7791672Y-14036258D02*
X7772625Y-14045782D01*
X7772625Y-14045782D02*
X7715482Y-14045782D01*
X7715482Y-14045782D02*
X7696434Y-14036258D01*
X7696434Y-14036258D02*
X7686910Y-14026734D01*
X7934529Y-13845782D02*
X7953577Y-13845782D01*
X7953577Y-13845782D02*
X7972625Y-13855306D01*
X7972625Y-13855306D02*
X7982148Y-13864830D01*
X7982148Y-13864830D02*
X7991672Y-13883877D01*
X7991672Y-13883877D02*
X8001196Y-13921972D01*
X8001196Y-13921972D02*
X8001196Y-13969591D01*
X8001196Y-13969591D02*
X7991672Y-14007687D01*
X7991672Y-14007687D02*
X7982148Y-14026734D01*
X7982148Y-14026734D02*
X7972625Y-14036258D01*
X7972625Y-14036258D02*
X7953577Y-14045782D01*
X7953577Y-14045782D02*
X7934529Y-14045782D01*
X7934529Y-14045782D02*
X7915482Y-14036258D01*
X7915482Y-14036258D02*
X7905958Y-14026734D01*
X7905958Y-14026734D02*
X7896434Y-14007687D01*
X7896434Y-14007687D02*
X7886910Y-13969591D01*
X7886910Y-13969591D02*
X7886910Y-13921972D01*
X7886910Y-13921972D02*
X7896434Y-13883877D01*
X7896434Y-13883877D02*
X7905958Y-13864830D01*
X7905958Y-13864830D02*
X7915482Y-13855306D01*
X7915482Y-13855306D02*
X7934529Y-13845782D01*
X8125005Y-13845782D02*
X8144053Y-13845782D01*
X8144053Y-13845782D02*
X8163101Y-13855306D01*
X8163101Y-13855306D02*
X8172625Y-13864830D01*
X8172625Y-13864830D02*
X8182148Y-13883877D01*
X8182148Y-13883877D02*
X8191672Y-13921972D01*
X8191672Y-13921972D02*
X8191672Y-13969591D01*
X8191672Y-13969591D02*
X8182148Y-14007687D01*
X8182148Y-14007687D02*
X8172625Y-14026734D01*
X8172625Y-14026734D02*
X8163101Y-14036258D01*
X8163101Y-14036258D02*
X8144053Y-14045782D01*
X8144053Y-14045782D02*
X8125005Y-14045782D01*
X8125005Y-14045782D02*
X8105958Y-14036258D01*
X8105958Y-14036258D02*
X8096434Y-14026734D01*
X8096434Y-14026734D02*
X8086910Y-14007687D01*
X8086910Y-14007687D02*
X8077386Y-13969591D01*
X8077386Y-13969591D02*
X8077386Y-13921972D01*
X8077386Y-13921972D02*
X8086910Y-13883877D01*
X8086910Y-13883877D02*
X8096434Y-13864830D01*
X8096434Y-13864830D02*
X8105958Y-13855306D01*
X8105958Y-13855306D02*
X8125005Y-13845782D01*
X8267863Y-13845782D02*
X8267863Y-13883877D01*
X8344053Y-13845782D02*
X8344053Y-13883877D01*
X8639291Y-14121972D02*
X8629768Y-14112449D01*
X8629768Y-14112449D02*
X8610720Y-14083877D01*
X8610720Y-14083877D02*
X8601196Y-14064830D01*
X8601196Y-14064830D02*
X8591672Y-14036258D01*
X8591672Y-14036258D02*
X8582149Y-13988639D01*
X8582149Y-13988639D02*
X8582149Y-13950544D01*
X8582149Y-13950544D02*
X8591672Y-13902925D01*
X8591672Y-13902925D02*
X8601196Y-13874353D01*
X8601196Y-13874353D02*
X8610720Y-13855306D01*
X8610720Y-13855306D02*
X8629768Y-13826734D01*
X8629768Y-13826734D02*
X8639291Y-13817210D01*
X8696434Y-13845782D02*
X8820244Y-13845782D01*
X8820244Y-13845782D02*
X8753577Y-13921972D01*
X8753577Y-13921972D02*
X8782149Y-13921972D01*
X8782149Y-13921972D02*
X8801196Y-13931496D01*
X8801196Y-13931496D02*
X8810720Y-13941020D01*
X8810720Y-13941020D02*
X8820244Y-13960068D01*
X8820244Y-13960068D02*
X8820244Y-14007687D01*
X8820244Y-14007687D02*
X8810720Y-14026734D01*
X8810720Y-14026734D02*
X8801196Y-14036258D01*
X8801196Y-14036258D02*
X8782149Y-14045782D01*
X8782149Y-14045782D02*
X8725006Y-14045782D01*
X8725006Y-14045782D02*
X8705958Y-14036258D01*
X8705958Y-14036258D02*
X8696434Y-14026734D01*
X9058339Y-14045782D02*
X9058339Y-13845782D01*
X9144053Y-14045782D02*
X9144053Y-13941020D01*
X9144053Y-13941020D02*
X9134530Y-13921972D01*
X9134530Y-13921972D02*
X9115482Y-13912449D01*
X9115482Y-13912449D02*
X9086910Y-13912449D01*
X9086910Y-13912449D02*
X9067863Y-13921972D01*
X9067863Y-13921972D02*
X9058339Y-13931496D01*
X9267863Y-14045782D02*
X9248815Y-14036258D01*
X9248815Y-14036258D02*
X9239291Y-14026734D01*
X9239291Y-14026734D02*
X9229768Y-14007687D01*
X9229768Y-14007687D02*
X9229768Y-13950544D01*
X9229768Y-13950544D02*
X9239291Y-13931496D01*
X9239291Y-13931496D02*
X9248815Y-13921972D01*
X9248815Y-13921972D02*
X9267863Y-13912449D01*
X9267863Y-13912449D02*
X9296434Y-13912449D01*
X9296434Y-13912449D02*
X9315482Y-13921972D01*
X9315482Y-13921972D02*
X9325006Y-13931496D01*
X9325006Y-13931496D02*
X9334530Y-13950544D01*
X9334530Y-13950544D02*
X9334530Y-14007687D01*
X9334530Y-14007687D02*
X9325006Y-14026734D01*
X9325006Y-14026734D02*
X9315482Y-14036258D01*
X9315482Y-14036258D02*
X9296434Y-14045782D01*
X9296434Y-14045782D02*
X9267863Y-14045782D01*
X9448815Y-14045782D02*
X9429768Y-14036258D01*
X9429768Y-14036258D02*
X9420244Y-14017210D01*
X9420244Y-14017210D02*
X9420244Y-13845782D01*
X9601196Y-14036258D02*
X9582149Y-14045782D01*
X9582149Y-14045782D02*
X9544053Y-14045782D01*
X9544053Y-14045782D02*
X9525006Y-14036258D01*
X9525006Y-14036258D02*
X9515482Y-14017210D01*
X9515482Y-14017210D02*
X9515482Y-13941020D01*
X9515482Y-13941020D02*
X9525006Y-13921972D01*
X9525006Y-13921972D02*
X9544053Y-13912449D01*
X9544053Y-13912449D02*
X9582149Y-13912449D01*
X9582149Y-13912449D02*
X9601196Y-13921972D01*
X9601196Y-13921972D02*
X9610720Y-13941020D01*
X9610720Y-13941020D02*
X9610720Y-13960068D01*
X9610720Y-13960068D02*
X9515482Y-13979115D01*
X9686911Y-14036258D02*
X9705958Y-14045782D01*
X9705958Y-14045782D02*
X9744053Y-14045782D01*
X9744053Y-14045782D02*
X9763101Y-14036258D01*
X9763101Y-14036258D02*
X9772625Y-14017210D01*
X9772625Y-14017210D02*
X9772625Y-14007687D01*
X9772625Y-14007687D02*
X9763101Y-13988639D01*
X9763101Y-13988639D02*
X9744053Y-13979115D01*
X9744053Y-13979115D02*
X9715482Y-13979115D01*
X9715482Y-13979115D02*
X9696434Y-13969591D01*
X9696434Y-13969591D02*
X9686911Y-13950544D01*
X9686911Y-13950544D02*
X9686911Y-13941020D01*
X9686911Y-13941020D02*
X9696434Y-13921972D01*
X9696434Y-13921972D02*
X9715482Y-13912449D01*
X9715482Y-13912449D02*
X9744053Y-13912449D01*
X9744053Y-13912449D02*
X9763101Y-13921972D01*
X9839292Y-14121972D02*
X9848815Y-14112449D01*
X9848815Y-14112449D02*
X9867863Y-14083877D01*
X9867863Y-14083877D02*
X9877387Y-14064830D01*
X9877387Y-14064830D02*
X9886911Y-14036258D01*
X9886911Y-14036258D02*
X9896434Y-13988639D01*
X9896434Y-13988639D02*
X9896434Y-13950544D01*
X9896434Y-13950544D02*
X9886911Y-13902925D01*
X9886911Y-13902925D02*
X9877387Y-13874353D01*
X9877387Y-13874353D02*
X9867863Y-13855306D01*
X9867863Y-13855306D02*
X9848815Y-13826734D01*
X9848815Y-13826734D02*
X9839292Y-13817210D01*
D12*
X5064229Y-14218298D02*
G75*
G02*
X4984229Y-14218298I-40000J0D01*
G01*
X4984229Y-14218298D02*
G75*
G02*
X5064229Y-14218298I40000J0D01*
G01*
D11*
X5363101Y-14109782D02*
X5382148Y-14109782D01*
X5382148Y-14109782D02*
X5401196Y-14119306D01*
X5401196Y-14119306D02*
X5410720Y-14128830D01*
X5410720Y-14128830D02*
X5420243Y-14147877D01*
X5420243Y-14147877D02*
X5429767Y-14185972D01*
X5429767Y-14185972D02*
X5429767Y-14233591D01*
X5429767Y-14233591D02*
X5420243Y-14271687D01*
X5420243Y-14271687D02*
X5410720Y-14290734D01*
X5410720Y-14290734D02*
X5401196Y-14300258D01*
X5401196Y-14300258D02*
X5382148Y-14309782D01*
X5382148Y-14309782D02*
X5363101Y-14309782D01*
X5363101Y-14309782D02*
X5344053Y-14300258D01*
X5344053Y-14300258D02*
X5334529Y-14290734D01*
X5334529Y-14290734D02*
X5325005Y-14271687D01*
X5325005Y-14271687D02*
X5315482Y-14233591D01*
X5315482Y-14233591D02*
X5315482Y-14185972D01*
X5315482Y-14185972D02*
X5325005Y-14147877D01*
X5325005Y-14147877D02*
X5334529Y-14128830D01*
X5334529Y-14128830D02*
X5344053Y-14119306D01*
X5344053Y-14119306D02*
X5363101Y-14109782D01*
X5515482Y-14290734D02*
X5525005Y-14300258D01*
X5525005Y-14300258D02*
X5515482Y-14309782D01*
X5515482Y-14309782D02*
X5505958Y-14300258D01*
X5505958Y-14300258D02*
X5515482Y-14290734D01*
X5515482Y-14290734D02*
X5515482Y-14309782D01*
X5639291Y-14195496D02*
X5620243Y-14185972D01*
X5620243Y-14185972D02*
X5610720Y-14176449D01*
X5610720Y-14176449D02*
X5601196Y-14157401D01*
X5601196Y-14157401D02*
X5601196Y-14147877D01*
X5601196Y-14147877D02*
X5610720Y-14128830D01*
X5610720Y-14128830D02*
X5620243Y-14119306D01*
X5620243Y-14119306D02*
X5639291Y-14109782D01*
X5639291Y-14109782D02*
X5677386Y-14109782D01*
X5677386Y-14109782D02*
X5696434Y-14119306D01*
X5696434Y-14119306D02*
X5705958Y-14128830D01*
X5705958Y-14128830D02*
X5715481Y-14147877D01*
X5715481Y-14147877D02*
X5715481Y-14157401D01*
X5715481Y-14157401D02*
X5705958Y-14176449D01*
X5705958Y-14176449D02*
X5696434Y-14185972D01*
X5696434Y-14185972D02*
X5677386Y-14195496D01*
X5677386Y-14195496D02*
X5639291Y-14195496D01*
X5639291Y-14195496D02*
X5620243Y-14205020D01*
X5620243Y-14205020D02*
X5610720Y-14214544D01*
X5610720Y-14214544D02*
X5601196Y-14233591D01*
X5601196Y-14233591D02*
X5601196Y-14271687D01*
X5601196Y-14271687D02*
X5610720Y-14290734D01*
X5610720Y-14290734D02*
X5620243Y-14300258D01*
X5620243Y-14300258D02*
X5639291Y-14309782D01*
X5639291Y-14309782D02*
X5677386Y-14309782D01*
X5677386Y-14309782D02*
X5696434Y-14300258D01*
X5696434Y-14300258D02*
X5705958Y-14290734D01*
X5705958Y-14290734D02*
X5715481Y-14271687D01*
X5715481Y-14271687D02*
X5715481Y-14233591D01*
X5715481Y-14233591D02*
X5705958Y-14214544D01*
X5705958Y-14214544D02*
X5696434Y-14205020D01*
X5696434Y-14205020D02*
X5677386Y-14195496D01*
X5839291Y-14109782D02*
X5858339Y-14109782D01*
X5858339Y-14109782D02*
X5877386Y-14119306D01*
X5877386Y-14119306D02*
X5886910Y-14128830D01*
X5886910Y-14128830D02*
X5896434Y-14147877D01*
X5896434Y-14147877D02*
X5905958Y-14185972D01*
X5905958Y-14185972D02*
X5905958Y-14233591D01*
X5905958Y-14233591D02*
X5896434Y-14271687D01*
X5896434Y-14271687D02*
X5886910Y-14290734D01*
X5886910Y-14290734D02*
X5877386Y-14300258D01*
X5877386Y-14300258D02*
X5858339Y-14309782D01*
X5858339Y-14309782D02*
X5839291Y-14309782D01*
X5839291Y-14309782D02*
X5820243Y-14300258D01*
X5820243Y-14300258D02*
X5810720Y-14290734D01*
X5810720Y-14290734D02*
X5801196Y-14271687D01*
X5801196Y-14271687D02*
X5791672Y-14233591D01*
X5791672Y-14233591D02*
X5791672Y-14185972D01*
X5791672Y-14185972D02*
X5801196Y-14147877D01*
X5801196Y-14147877D02*
X5810720Y-14128830D01*
X5810720Y-14128830D02*
X5820243Y-14119306D01*
X5820243Y-14119306D02*
X5839291Y-14109782D01*
X6029767Y-14109782D02*
X6048815Y-14109782D01*
X6048815Y-14109782D02*
X6067862Y-14119306D01*
X6067862Y-14119306D02*
X6077386Y-14128830D01*
X6077386Y-14128830D02*
X6086910Y-14147877D01*
X6086910Y-14147877D02*
X6096434Y-14185972D01*
X6096434Y-14185972D02*
X6096434Y-14233591D01*
X6096434Y-14233591D02*
X6086910Y-14271687D01*
X6086910Y-14271687D02*
X6077386Y-14290734D01*
X6077386Y-14290734D02*
X6067862Y-14300258D01*
X6067862Y-14300258D02*
X6048815Y-14309782D01*
X6048815Y-14309782D02*
X6029767Y-14309782D01*
X6029767Y-14309782D02*
X6010720Y-14300258D01*
X6010720Y-14300258D02*
X6001196Y-14290734D01*
X6001196Y-14290734D02*
X5991672Y-14271687D01*
X5991672Y-14271687D02*
X5982148Y-14233591D01*
X5982148Y-14233591D02*
X5982148Y-14185972D01*
X5982148Y-14185972D02*
X5991672Y-14147877D01*
X5991672Y-14147877D02*
X6001196Y-14128830D01*
X6001196Y-14128830D02*
X6010720Y-14119306D01*
X6010720Y-14119306D02*
X6029767Y-14109782D01*
X6182148Y-14309782D02*
X6182148Y-14176449D01*
X6182148Y-14195496D02*
X6191672Y-14185972D01*
X6191672Y-14185972D02*
X6210720Y-14176449D01*
X6210720Y-14176449D02*
X6239291Y-14176449D01*
X6239291Y-14176449D02*
X6258339Y-14185972D01*
X6258339Y-14185972D02*
X6267862Y-14205020D01*
X6267862Y-14205020D02*
X6267862Y-14309782D01*
X6267862Y-14205020D02*
X6277386Y-14185972D01*
X6277386Y-14185972D02*
X6296434Y-14176449D01*
X6296434Y-14176449D02*
X6325005Y-14176449D01*
X6325005Y-14176449D02*
X6344053Y-14185972D01*
X6344053Y-14185972D02*
X6353577Y-14205020D01*
X6353577Y-14205020D02*
X6353577Y-14309782D01*
X6448815Y-14309782D02*
X6448815Y-14176449D01*
X6448815Y-14195496D02*
X6458339Y-14185972D01*
X6458339Y-14185972D02*
X6477386Y-14176449D01*
X6477386Y-14176449D02*
X6505958Y-14176449D01*
X6505958Y-14176449D02*
X6525005Y-14185972D01*
X6525005Y-14185972D02*
X6534529Y-14205020D01*
X6534529Y-14205020D02*
X6534529Y-14309782D01*
X6534529Y-14205020D02*
X6544053Y-14185972D01*
X6544053Y-14185972D02*
X6563101Y-14176449D01*
X6563101Y-14176449D02*
X6591672Y-14176449D01*
X6591672Y-14176449D02*
X6610720Y-14185972D01*
X6610720Y-14185972D02*
X6620243Y-14205020D01*
X6620243Y-14205020D02*
X6620243Y-14309782D01*
X7010720Y-14100258D02*
X6839291Y-14357401D01*
X7267863Y-14109782D02*
X7286910Y-14109782D01*
X7286910Y-14109782D02*
X7305958Y-14119306D01*
X7305958Y-14119306D02*
X7315482Y-14128830D01*
X7315482Y-14128830D02*
X7325005Y-14147877D01*
X7325005Y-14147877D02*
X7334529Y-14185972D01*
X7334529Y-14185972D02*
X7334529Y-14233591D01*
X7334529Y-14233591D02*
X7325005Y-14271687D01*
X7325005Y-14271687D02*
X7315482Y-14290734D01*
X7315482Y-14290734D02*
X7305958Y-14300258D01*
X7305958Y-14300258D02*
X7286910Y-14309782D01*
X7286910Y-14309782D02*
X7267863Y-14309782D01*
X7267863Y-14309782D02*
X7248815Y-14300258D01*
X7248815Y-14300258D02*
X7239291Y-14290734D01*
X7239291Y-14290734D02*
X7229767Y-14271687D01*
X7229767Y-14271687D02*
X7220244Y-14233591D01*
X7220244Y-14233591D02*
X7220244Y-14185972D01*
X7220244Y-14185972D02*
X7229767Y-14147877D01*
X7229767Y-14147877D02*
X7239291Y-14128830D01*
X7239291Y-14128830D02*
X7248815Y-14119306D01*
X7248815Y-14119306D02*
X7267863Y-14109782D01*
X7420244Y-14290734D02*
X7429767Y-14300258D01*
X7429767Y-14300258D02*
X7420244Y-14309782D01*
X7420244Y-14309782D02*
X7410720Y-14300258D01*
X7410720Y-14300258D02*
X7420244Y-14290734D01*
X7420244Y-14290734D02*
X7420244Y-14309782D01*
X7553577Y-14109782D02*
X7572625Y-14109782D01*
X7572625Y-14109782D02*
X7591672Y-14119306D01*
X7591672Y-14119306D02*
X7601196Y-14128830D01*
X7601196Y-14128830D02*
X7610720Y-14147877D01*
X7610720Y-14147877D02*
X7620244Y-14185972D01*
X7620244Y-14185972D02*
X7620244Y-14233591D01*
X7620244Y-14233591D02*
X7610720Y-14271687D01*
X7610720Y-14271687D02*
X7601196Y-14290734D01*
X7601196Y-14290734D02*
X7591672Y-14300258D01*
X7591672Y-14300258D02*
X7572625Y-14309782D01*
X7572625Y-14309782D02*
X7553577Y-14309782D01*
X7553577Y-14309782D02*
X7534529Y-14300258D01*
X7534529Y-14300258D02*
X7525005Y-14290734D01*
X7525005Y-14290734D02*
X7515482Y-14271687D01*
X7515482Y-14271687D02*
X7505958Y-14233591D01*
X7505958Y-14233591D02*
X7505958Y-14185972D01*
X7505958Y-14185972D02*
X7515482Y-14147877D01*
X7515482Y-14147877D02*
X7525005Y-14128830D01*
X7525005Y-14128830D02*
X7534529Y-14119306D01*
X7534529Y-14119306D02*
X7553577Y-14109782D01*
X7686910Y-14109782D02*
X7810720Y-14109782D01*
X7810720Y-14109782D02*
X7744053Y-14185972D01*
X7744053Y-14185972D02*
X7772625Y-14185972D01*
X7772625Y-14185972D02*
X7791672Y-14195496D01*
X7791672Y-14195496D02*
X7801196Y-14205020D01*
X7801196Y-14205020D02*
X7810720Y-14224068D01*
X7810720Y-14224068D02*
X7810720Y-14271687D01*
X7810720Y-14271687D02*
X7801196Y-14290734D01*
X7801196Y-14290734D02*
X7791672Y-14300258D01*
X7791672Y-14300258D02*
X7772625Y-14309782D01*
X7772625Y-14309782D02*
X7715482Y-14309782D01*
X7715482Y-14309782D02*
X7696434Y-14300258D01*
X7696434Y-14300258D02*
X7686910Y-14290734D01*
X8001196Y-14309782D02*
X7886910Y-14309782D01*
X7944053Y-14309782D02*
X7944053Y-14109782D01*
X7944053Y-14109782D02*
X7925005Y-14138353D01*
X7925005Y-14138353D02*
X7905958Y-14157401D01*
X7905958Y-14157401D02*
X7886910Y-14166925D01*
X8182148Y-14109782D02*
X8086910Y-14109782D01*
X8086910Y-14109782D02*
X8077386Y-14205020D01*
X8077386Y-14205020D02*
X8086910Y-14195496D01*
X8086910Y-14195496D02*
X8105958Y-14185972D01*
X8105958Y-14185972D02*
X8153577Y-14185972D01*
X8153577Y-14185972D02*
X8172625Y-14195496D01*
X8172625Y-14195496D02*
X8182148Y-14205020D01*
X8182148Y-14205020D02*
X8191672Y-14224068D01*
X8191672Y-14224068D02*
X8191672Y-14271687D01*
X8191672Y-14271687D02*
X8182148Y-14290734D01*
X8182148Y-14290734D02*
X8172625Y-14300258D01*
X8172625Y-14300258D02*
X8153577Y-14309782D01*
X8153577Y-14309782D02*
X8105958Y-14309782D01*
X8105958Y-14309782D02*
X8086910Y-14300258D01*
X8086910Y-14300258D02*
X8077386Y-14290734D01*
X8267863Y-14109782D02*
X8267863Y-14147877D01*
X8344053Y-14109782D02*
X8344053Y-14147877D01*
X8639291Y-14385972D02*
X8629768Y-14376449D01*
X8629768Y-14376449D02*
X8610720Y-14347877D01*
X8610720Y-14347877D02*
X8601196Y-14328830D01*
X8601196Y-14328830D02*
X8591672Y-14300258D01*
X8591672Y-14300258D02*
X8582149Y-14252639D01*
X8582149Y-14252639D02*
X8582149Y-14214544D01*
X8582149Y-14214544D02*
X8591672Y-14166925D01*
X8591672Y-14166925D02*
X8601196Y-14138353D01*
X8601196Y-14138353D02*
X8610720Y-14119306D01*
X8610720Y-14119306D02*
X8629768Y-14090734D01*
X8629768Y-14090734D02*
X8639291Y-14081210D01*
X8820244Y-14309782D02*
X8705958Y-14309782D01*
X8763101Y-14309782D02*
X8763101Y-14109782D01*
X8763101Y-14109782D02*
X8744053Y-14138353D01*
X8744053Y-14138353D02*
X8725006Y-14157401D01*
X8725006Y-14157401D02*
X8705958Y-14166925D01*
X8886910Y-14109782D02*
X9020244Y-14109782D01*
X9020244Y-14109782D02*
X8934529Y-14309782D01*
X9248815Y-14309782D02*
X9248815Y-14109782D01*
X9334530Y-14309782D02*
X9334530Y-14205020D01*
X9334530Y-14205020D02*
X9325006Y-14185972D01*
X9325006Y-14185972D02*
X9305958Y-14176449D01*
X9305958Y-14176449D02*
X9277387Y-14176449D01*
X9277387Y-14176449D02*
X9258339Y-14185972D01*
X9258339Y-14185972D02*
X9248815Y-14195496D01*
X9458339Y-14309782D02*
X9439291Y-14300258D01*
X9439291Y-14300258D02*
X9429768Y-14290734D01*
X9429768Y-14290734D02*
X9420244Y-14271687D01*
X9420244Y-14271687D02*
X9420244Y-14214544D01*
X9420244Y-14214544D02*
X9429768Y-14195496D01*
X9429768Y-14195496D02*
X9439291Y-14185972D01*
X9439291Y-14185972D02*
X9458339Y-14176449D01*
X9458339Y-14176449D02*
X9486911Y-14176449D01*
X9486911Y-14176449D02*
X9505958Y-14185972D01*
X9505958Y-14185972D02*
X9515482Y-14195496D01*
X9515482Y-14195496D02*
X9525006Y-14214544D01*
X9525006Y-14214544D02*
X9525006Y-14271687D01*
X9525006Y-14271687D02*
X9515482Y-14290734D01*
X9515482Y-14290734D02*
X9505958Y-14300258D01*
X9505958Y-14300258D02*
X9486911Y-14309782D01*
X9486911Y-14309782D02*
X9458339Y-14309782D01*
X9639291Y-14309782D02*
X9620244Y-14300258D01*
X9620244Y-14300258D02*
X9610720Y-14281210D01*
X9610720Y-14281210D02*
X9610720Y-14109782D01*
X9791672Y-14300258D02*
X9772625Y-14309782D01*
X9772625Y-14309782D02*
X9734530Y-14309782D01*
X9734530Y-14309782D02*
X9715482Y-14300258D01*
X9715482Y-14300258D02*
X9705958Y-14281210D01*
X9705958Y-14281210D02*
X9705958Y-14205020D01*
X9705958Y-14205020D02*
X9715482Y-14185972D01*
X9715482Y-14185972D02*
X9734530Y-14176449D01*
X9734530Y-14176449D02*
X9772625Y-14176449D01*
X9772625Y-14176449D02*
X9791672Y-14185972D01*
X9791672Y-14185972D02*
X9801196Y-14205020D01*
X9801196Y-14205020D02*
X9801196Y-14224068D01*
X9801196Y-14224068D02*
X9705958Y-14243115D01*
X9877387Y-14300258D02*
X9896434Y-14309782D01*
X9896434Y-14309782D02*
X9934530Y-14309782D01*
X9934530Y-14309782D02*
X9953577Y-14300258D01*
X9953577Y-14300258D02*
X9963101Y-14281210D01*
X9963101Y-14281210D02*
X9963101Y-14271687D01*
X9963101Y-14271687D02*
X9953577Y-14252639D01*
X9953577Y-14252639D02*
X9934530Y-14243115D01*
X9934530Y-14243115D02*
X9905958Y-14243115D01*
X9905958Y-14243115D02*
X9886911Y-14233591D01*
X9886911Y-14233591D02*
X9877387Y-14214544D01*
X9877387Y-14214544D02*
X9877387Y-14205020D01*
X9877387Y-14205020D02*
X9886911Y-14185972D01*
X9886911Y-14185972D02*
X9905958Y-14176449D01*
X9905958Y-14176449D02*
X9934530Y-14176449D01*
X9934530Y-14176449D02*
X9953577Y-14185972D01*
X10029768Y-14385972D02*
X10039292Y-14376449D01*
X10039292Y-14376449D02*
X10058339Y-14347877D01*
X10058339Y-14347877D02*
X10067863Y-14328830D01*
X10067863Y-14328830D02*
X10077387Y-14300258D01*
X10077387Y-14300258D02*
X10086911Y-14252639D01*
X10086911Y-14252639D02*
X10086911Y-14214544D01*
X10086911Y-14214544D02*
X10077387Y-14166925D01*
X10077387Y-14166925D02*
X10067863Y-14138353D01*
X10067863Y-14138353D02*
X10058339Y-14119306D01*
X10058339Y-14119306D02*
X10039292Y-14090734D01*
X10039292Y-14090734D02*
X10029768Y-14081210D01*
D12*
X5019229Y-14437298D02*
X5019229Y-14527298D01*
X4974229Y-14482298D02*
X5064229Y-14482298D01*
D11*
X5363101Y-14373782D02*
X5382148Y-14373782D01*
X5382148Y-14373782D02*
X5401196Y-14383306D01*
X5401196Y-14383306D02*
X5410720Y-14392830D01*
X5410720Y-14392830D02*
X5420243Y-14411877D01*
X5420243Y-14411877D02*
X5429767Y-14449972D01*
X5429767Y-14449972D02*
X5429767Y-14497591D01*
X5429767Y-14497591D02*
X5420243Y-14535687D01*
X5420243Y-14535687D02*
X5410720Y-14554734D01*
X5410720Y-14554734D02*
X5401196Y-14564258D01*
X5401196Y-14564258D02*
X5382148Y-14573782D01*
X5382148Y-14573782D02*
X5363101Y-14573782D01*
X5363101Y-14573782D02*
X5344053Y-14564258D01*
X5344053Y-14564258D02*
X5334529Y-14554734D01*
X5334529Y-14554734D02*
X5325005Y-14535687D01*
X5325005Y-14535687D02*
X5315482Y-14497591D01*
X5315482Y-14497591D02*
X5315482Y-14449972D01*
X5315482Y-14449972D02*
X5325005Y-14411877D01*
X5325005Y-14411877D02*
X5334529Y-14392830D01*
X5334529Y-14392830D02*
X5344053Y-14383306D01*
X5344053Y-14383306D02*
X5363101Y-14373782D01*
X5515482Y-14554734D02*
X5525005Y-14564258D01*
X5525005Y-14564258D02*
X5515482Y-14573782D01*
X5515482Y-14573782D02*
X5505958Y-14564258D01*
X5505958Y-14564258D02*
X5515482Y-14554734D01*
X5515482Y-14554734D02*
X5515482Y-14573782D01*
X5620243Y-14573782D02*
X5658339Y-14573782D01*
X5658339Y-14573782D02*
X5677386Y-14564258D01*
X5677386Y-14564258D02*
X5686910Y-14554734D01*
X5686910Y-14554734D02*
X5705958Y-14526163D01*
X5705958Y-14526163D02*
X5715481Y-14488068D01*
X5715481Y-14488068D02*
X5715481Y-14411877D01*
X5715481Y-14411877D02*
X5705958Y-14392830D01*
X5705958Y-14392830D02*
X5696434Y-14383306D01*
X5696434Y-14383306D02*
X5677386Y-14373782D01*
X5677386Y-14373782D02*
X5639291Y-14373782D01*
X5639291Y-14373782D02*
X5620243Y-14383306D01*
X5620243Y-14383306D02*
X5610720Y-14392830D01*
X5610720Y-14392830D02*
X5601196Y-14411877D01*
X5601196Y-14411877D02*
X5601196Y-14459496D01*
X5601196Y-14459496D02*
X5610720Y-14478544D01*
X5610720Y-14478544D02*
X5620243Y-14488068D01*
X5620243Y-14488068D02*
X5639291Y-14497591D01*
X5639291Y-14497591D02*
X5677386Y-14497591D01*
X5677386Y-14497591D02*
X5696434Y-14488068D01*
X5696434Y-14488068D02*
X5705958Y-14478544D01*
X5705958Y-14478544D02*
X5715481Y-14459496D01*
X5839291Y-14373782D02*
X5858339Y-14373782D01*
X5858339Y-14373782D02*
X5877386Y-14383306D01*
X5877386Y-14383306D02*
X5886910Y-14392830D01*
X5886910Y-14392830D02*
X5896434Y-14411877D01*
X5896434Y-14411877D02*
X5905958Y-14449972D01*
X5905958Y-14449972D02*
X5905958Y-14497591D01*
X5905958Y-14497591D02*
X5896434Y-14535687D01*
X5896434Y-14535687D02*
X5886910Y-14554734D01*
X5886910Y-14554734D02*
X5877386Y-14564258D01*
X5877386Y-14564258D02*
X5858339Y-14573782D01*
X5858339Y-14573782D02*
X5839291Y-14573782D01*
X5839291Y-14573782D02*
X5820243Y-14564258D01*
X5820243Y-14564258D02*
X5810720Y-14554734D01*
X5810720Y-14554734D02*
X5801196Y-14535687D01*
X5801196Y-14535687D02*
X5791672Y-14497591D01*
X5791672Y-14497591D02*
X5791672Y-14449972D01*
X5791672Y-14449972D02*
X5801196Y-14411877D01*
X5801196Y-14411877D02*
X5810720Y-14392830D01*
X5810720Y-14392830D02*
X5820243Y-14383306D01*
X5820243Y-14383306D02*
X5839291Y-14373782D01*
X6029767Y-14373782D02*
X6048815Y-14373782D01*
X6048815Y-14373782D02*
X6067862Y-14383306D01*
X6067862Y-14383306D02*
X6077386Y-14392830D01*
X6077386Y-14392830D02*
X6086910Y-14411877D01*
X6086910Y-14411877D02*
X6096434Y-14449972D01*
X6096434Y-14449972D02*
X6096434Y-14497591D01*
X6096434Y-14497591D02*
X6086910Y-14535687D01*
X6086910Y-14535687D02*
X6077386Y-14554734D01*
X6077386Y-14554734D02*
X6067862Y-14564258D01*
X6067862Y-14564258D02*
X6048815Y-14573782D01*
X6048815Y-14573782D02*
X6029767Y-14573782D01*
X6029767Y-14573782D02*
X6010720Y-14564258D01*
X6010720Y-14564258D02*
X6001196Y-14554734D01*
X6001196Y-14554734D02*
X5991672Y-14535687D01*
X5991672Y-14535687D02*
X5982148Y-14497591D01*
X5982148Y-14497591D02*
X5982148Y-14449972D01*
X5982148Y-14449972D02*
X5991672Y-14411877D01*
X5991672Y-14411877D02*
X6001196Y-14392830D01*
X6001196Y-14392830D02*
X6010720Y-14383306D01*
X6010720Y-14383306D02*
X6029767Y-14373782D01*
X6182148Y-14573782D02*
X6182148Y-14440449D01*
X6182148Y-14459496D02*
X6191672Y-14449972D01*
X6191672Y-14449972D02*
X6210720Y-14440449D01*
X6210720Y-14440449D02*
X6239291Y-14440449D01*
X6239291Y-14440449D02*
X6258339Y-14449972D01*
X6258339Y-14449972D02*
X6267862Y-14469020D01*
X6267862Y-14469020D02*
X6267862Y-14573782D01*
X6267862Y-14469020D02*
X6277386Y-14449972D01*
X6277386Y-14449972D02*
X6296434Y-14440449D01*
X6296434Y-14440449D02*
X6325005Y-14440449D01*
X6325005Y-14440449D02*
X6344053Y-14449972D01*
X6344053Y-14449972D02*
X6353577Y-14469020D01*
X6353577Y-14469020D02*
X6353577Y-14573782D01*
X6448815Y-14573782D02*
X6448815Y-14440449D01*
X6448815Y-14459496D02*
X6458339Y-14449972D01*
X6458339Y-14449972D02*
X6477386Y-14440449D01*
X6477386Y-14440449D02*
X6505958Y-14440449D01*
X6505958Y-14440449D02*
X6525005Y-14449972D01*
X6525005Y-14449972D02*
X6534529Y-14469020D01*
X6534529Y-14469020D02*
X6534529Y-14573782D01*
X6534529Y-14469020D02*
X6544053Y-14449972D01*
X6544053Y-14449972D02*
X6563101Y-14440449D01*
X6563101Y-14440449D02*
X6591672Y-14440449D01*
X6591672Y-14440449D02*
X6610720Y-14449972D01*
X6610720Y-14449972D02*
X6620243Y-14469020D01*
X6620243Y-14469020D02*
X6620243Y-14573782D01*
X7010720Y-14364258D02*
X6839291Y-14621401D01*
X7267863Y-14373782D02*
X7286910Y-14373782D01*
X7286910Y-14373782D02*
X7305958Y-14383306D01*
X7305958Y-14383306D02*
X7315482Y-14392830D01*
X7315482Y-14392830D02*
X7325005Y-14411877D01*
X7325005Y-14411877D02*
X7334529Y-14449972D01*
X7334529Y-14449972D02*
X7334529Y-14497591D01*
X7334529Y-14497591D02*
X7325005Y-14535687D01*
X7325005Y-14535687D02*
X7315482Y-14554734D01*
X7315482Y-14554734D02*
X7305958Y-14564258D01*
X7305958Y-14564258D02*
X7286910Y-14573782D01*
X7286910Y-14573782D02*
X7267863Y-14573782D01*
X7267863Y-14573782D02*
X7248815Y-14564258D01*
X7248815Y-14564258D02*
X7239291Y-14554734D01*
X7239291Y-14554734D02*
X7229767Y-14535687D01*
X7229767Y-14535687D02*
X7220244Y-14497591D01*
X7220244Y-14497591D02*
X7220244Y-14449972D01*
X7220244Y-14449972D02*
X7229767Y-14411877D01*
X7229767Y-14411877D02*
X7239291Y-14392830D01*
X7239291Y-14392830D02*
X7248815Y-14383306D01*
X7248815Y-14383306D02*
X7267863Y-14373782D01*
X7420244Y-14554734D02*
X7429767Y-14564258D01*
X7429767Y-14564258D02*
X7420244Y-14573782D01*
X7420244Y-14573782D02*
X7410720Y-14564258D01*
X7410720Y-14564258D02*
X7420244Y-14554734D01*
X7420244Y-14554734D02*
X7420244Y-14573782D01*
X7553577Y-14373782D02*
X7572625Y-14373782D01*
X7572625Y-14373782D02*
X7591672Y-14383306D01*
X7591672Y-14383306D02*
X7601196Y-14392830D01*
X7601196Y-14392830D02*
X7610720Y-14411877D01*
X7610720Y-14411877D02*
X7620244Y-14449972D01*
X7620244Y-14449972D02*
X7620244Y-14497591D01*
X7620244Y-14497591D02*
X7610720Y-14535687D01*
X7610720Y-14535687D02*
X7601196Y-14554734D01*
X7601196Y-14554734D02*
X7591672Y-14564258D01*
X7591672Y-14564258D02*
X7572625Y-14573782D01*
X7572625Y-14573782D02*
X7553577Y-14573782D01*
X7553577Y-14573782D02*
X7534529Y-14564258D01*
X7534529Y-14564258D02*
X7525005Y-14554734D01*
X7525005Y-14554734D02*
X7515482Y-14535687D01*
X7515482Y-14535687D02*
X7505958Y-14497591D01*
X7505958Y-14497591D02*
X7505958Y-14449972D01*
X7505958Y-14449972D02*
X7515482Y-14411877D01*
X7515482Y-14411877D02*
X7525005Y-14392830D01*
X7525005Y-14392830D02*
X7534529Y-14383306D01*
X7534529Y-14383306D02*
X7553577Y-14373782D01*
X7686910Y-14373782D02*
X7810720Y-14373782D01*
X7810720Y-14373782D02*
X7744053Y-14449972D01*
X7744053Y-14449972D02*
X7772625Y-14449972D01*
X7772625Y-14449972D02*
X7791672Y-14459496D01*
X7791672Y-14459496D02*
X7801196Y-14469020D01*
X7801196Y-14469020D02*
X7810720Y-14488068D01*
X7810720Y-14488068D02*
X7810720Y-14535687D01*
X7810720Y-14535687D02*
X7801196Y-14554734D01*
X7801196Y-14554734D02*
X7791672Y-14564258D01*
X7791672Y-14564258D02*
X7772625Y-14573782D01*
X7772625Y-14573782D02*
X7715482Y-14573782D01*
X7715482Y-14573782D02*
X7696434Y-14564258D01*
X7696434Y-14564258D02*
X7686910Y-14554734D01*
X7991672Y-14373782D02*
X7896434Y-14373782D01*
X7896434Y-14373782D02*
X7886910Y-14469020D01*
X7886910Y-14469020D02*
X7896434Y-14459496D01*
X7896434Y-14459496D02*
X7915482Y-14449972D01*
X7915482Y-14449972D02*
X7963101Y-14449972D01*
X7963101Y-14449972D02*
X7982148Y-14459496D01*
X7982148Y-14459496D02*
X7991672Y-14469020D01*
X7991672Y-14469020D02*
X8001196Y-14488068D01*
X8001196Y-14488068D02*
X8001196Y-14535687D01*
X8001196Y-14535687D02*
X7991672Y-14554734D01*
X7991672Y-14554734D02*
X7982148Y-14564258D01*
X7982148Y-14564258D02*
X7963101Y-14573782D01*
X7963101Y-14573782D02*
X7915482Y-14573782D01*
X7915482Y-14573782D02*
X7896434Y-14564258D01*
X7896434Y-14564258D02*
X7886910Y-14554734D01*
X8172625Y-14440449D02*
X8172625Y-14573782D01*
X8125005Y-14364258D02*
X8077386Y-14507115D01*
X8077386Y-14507115D02*
X8201196Y-14507115D01*
X8267863Y-14373782D02*
X8267863Y-14411877D01*
X8344053Y-14373782D02*
X8344053Y-14411877D01*
X8639291Y-14649972D02*
X8629768Y-14640449D01*
X8629768Y-14640449D02*
X8610720Y-14611877D01*
X8610720Y-14611877D02*
X8601196Y-14592830D01*
X8601196Y-14592830D02*
X8591672Y-14564258D01*
X8591672Y-14564258D02*
X8582149Y-14516639D01*
X8582149Y-14516639D02*
X8582149Y-14478544D01*
X8582149Y-14478544D02*
X8591672Y-14430925D01*
X8591672Y-14430925D02*
X8601196Y-14402353D01*
X8601196Y-14402353D02*
X8610720Y-14383306D01*
X8610720Y-14383306D02*
X8629768Y-14354734D01*
X8629768Y-14354734D02*
X8639291Y-14345210D01*
X8801196Y-14440449D02*
X8801196Y-14573782D01*
X8753577Y-14364258D02*
X8705958Y-14507115D01*
X8705958Y-14507115D02*
X8829768Y-14507115D01*
X9058339Y-14573782D02*
X9058339Y-14373782D01*
X9144053Y-14573782D02*
X9144053Y-14469020D01*
X9144053Y-14469020D02*
X9134530Y-14449972D01*
X9134530Y-14449972D02*
X9115482Y-14440449D01*
X9115482Y-14440449D02*
X9086910Y-14440449D01*
X9086910Y-14440449D02*
X9067863Y-14449972D01*
X9067863Y-14449972D02*
X9058339Y-14459496D01*
X9267863Y-14573782D02*
X9248815Y-14564258D01*
X9248815Y-14564258D02*
X9239291Y-14554734D01*
X9239291Y-14554734D02*
X9229768Y-14535687D01*
X9229768Y-14535687D02*
X9229768Y-14478544D01*
X9229768Y-14478544D02*
X9239291Y-14459496D01*
X9239291Y-14459496D02*
X9248815Y-14449972D01*
X9248815Y-14449972D02*
X9267863Y-14440449D01*
X9267863Y-14440449D02*
X9296434Y-14440449D01*
X9296434Y-14440449D02*
X9315482Y-14449972D01*
X9315482Y-14449972D02*
X9325006Y-14459496D01*
X9325006Y-14459496D02*
X9334530Y-14478544D01*
X9334530Y-14478544D02*
X9334530Y-14535687D01*
X9334530Y-14535687D02*
X9325006Y-14554734D01*
X9325006Y-14554734D02*
X9315482Y-14564258D01*
X9315482Y-14564258D02*
X9296434Y-14573782D01*
X9296434Y-14573782D02*
X9267863Y-14573782D01*
X9448815Y-14573782D02*
X9429768Y-14564258D01*
X9429768Y-14564258D02*
X9420244Y-14545210D01*
X9420244Y-14545210D02*
X9420244Y-14373782D01*
X9601196Y-14564258D02*
X9582149Y-14573782D01*
X9582149Y-14573782D02*
X9544053Y-14573782D01*
X9544053Y-14573782D02*
X9525006Y-14564258D01*
X9525006Y-14564258D02*
X9515482Y-14545210D01*
X9515482Y-14545210D02*
X9515482Y-14469020D01*
X9515482Y-14469020D02*
X9525006Y-14449972D01*
X9525006Y-14449972D02*
X9544053Y-14440449D01*
X9544053Y-14440449D02*
X9582149Y-14440449D01*
X9582149Y-14440449D02*
X9601196Y-14449972D01*
X9601196Y-14449972D02*
X9610720Y-14469020D01*
X9610720Y-14469020D02*
X9610720Y-14488068D01*
X9610720Y-14488068D02*
X9515482Y-14507115D01*
X9686911Y-14564258D02*
X9705958Y-14573782D01*
X9705958Y-14573782D02*
X9744053Y-14573782D01*
X9744053Y-14573782D02*
X9763101Y-14564258D01*
X9763101Y-14564258D02*
X9772625Y-14545210D01*
X9772625Y-14545210D02*
X9772625Y-14535687D01*
X9772625Y-14535687D02*
X9763101Y-14516639D01*
X9763101Y-14516639D02*
X9744053Y-14507115D01*
X9744053Y-14507115D02*
X9715482Y-14507115D01*
X9715482Y-14507115D02*
X9696434Y-14497591D01*
X9696434Y-14497591D02*
X9686911Y-14478544D01*
X9686911Y-14478544D02*
X9686911Y-14469020D01*
X9686911Y-14469020D02*
X9696434Y-14449972D01*
X9696434Y-14449972D02*
X9715482Y-14440449D01*
X9715482Y-14440449D02*
X9744053Y-14440449D01*
X9744053Y-14440449D02*
X9763101Y-14449972D01*
X9839292Y-14649972D02*
X9848815Y-14640449D01*
X9848815Y-14640449D02*
X9867863Y-14611877D01*
X9867863Y-14611877D02*
X9877387Y-14592830D01*
X9877387Y-14592830D02*
X9886911Y-14564258D01*
X9886911Y-14564258D02*
X9896434Y-14516639D01*
X9896434Y-14516639D02*
X9896434Y-14478544D01*
X9896434Y-14478544D02*
X9886911Y-14430925D01*
X9886911Y-14430925D02*
X9877387Y-14402353D01*
X9877387Y-14402353D02*
X9867863Y-14383306D01*
X9867863Y-14383306D02*
X9848815Y-14354734D01*
X9848815Y-14354734D02*
X9839292Y-14345210D01*
D12*
X5049584Y-14781654D02*
X5049584Y-14710942D01*
X4978873Y-14710942D01*
X4978873Y-14781654D01*
X5049584Y-14781654D01*
D11*
X5429767Y-14837782D02*
X5315482Y-14837782D01*
X5372624Y-14837782D02*
X5372624Y-14637782D01*
X5372624Y-14637782D02*
X5353577Y-14666353D01*
X5353577Y-14666353D02*
X5334529Y-14685401D01*
X5334529Y-14685401D02*
X5315482Y-14694925D01*
X5515482Y-14818734D02*
X5525005Y-14828258D01*
X5525005Y-14828258D02*
X5515482Y-14837782D01*
X5515482Y-14837782D02*
X5505958Y-14828258D01*
X5505958Y-14828258D02*
X5515482Y-14818734D01*
X5515482Y-14818734D02*
X5515482Y-14837782D01*
X5648815Y-14637782D02*
X5667862Y-14637782D01*
X5667862Y-14637782D02*
X5686910Y-14647306D01*
X5686910Y-14647306D02*
X5696434Y-14656830D01*
X5696434Y-14656830D02*
X5705958Y-14675877D01*
X5705958Y-14675877D02*
X5715481Y-14713972D01*
X5715481Y-14713972D02*
X5715481Y-14761591D01*
X5715481Y-14761591D02*
X5705958Y-14799687D01*
X5705958Y-14799687D02*
X5696434Y-14818734D01*
X5696434Y-14818734D02*
X5686910Y-14828258D01*
X5686910Y-14828258D02*
X5667862Y-14837782D01*
X5667862Y-14837782D02*
X5648815Y-14837782D01*
X5648815Y-14837782D02*
X5629767Y-14828258D01*
X5629767Y-14828258D02*
X5620243Y-14818734D01*
X5620243Y-14818734D02*
X5610720Y-14799687D01*
X5610720Y-14799687D02*
X5601196Y-14761591D01*
X5601196Y-14761591D02*
X5601196Y-14713972D01*
X5601196Y-14713972D02*
X5610720Y-14675877D01*
X5610720Y-14675877D02*
X5620243Y-14656830D01*
X5620243Y-14656830D02*
X5629767Y-14647306D01*
X5629767Y-14647306D02*
X5648815Y-14637782D01*
X5839291Y-14637782D02*
X5858339Y-14637782D01*
X5858339Y-14637782D02*
X5877386Y-14647306D01*
X5877386Y-14647306D02*
X5886910Y-14656830D01*
X5886910Y-14656830D02*
X5896434Y-14675877D01*
X5896434Y-14675877D02*
X5905958Y-14713972D01*
X5905958Y-14713972D02*
X5905958Y-14761591D01*
X5905958Y-14761591D02*
X5896434Y-14799687D01*
X5896434Y-14799687D02*
X5886910Y-14818734D01*
X5886910Y-14818734D02*
X5877386Y-14828258D01*
X5877386Y-14828258D02*
X5858339Y-14837782D01*
X5858339Y-14837782D02*
X5839291Y-14837782D01*
X5839291Y-14837782D02*
X5820243Y-14828258D01*
X5820243Y-14828258D02*
X5810720Y-14818734D01*
X5810720Y-14818734D02*
X5801196Y-14799687D01*
X5801196Y-14799687D02*
X5791672Y-14761591D01*
X5791672Y-14761591D02*
X5791672Y-14713972D01*
X5791672Y-14713972D02*
X5801196Y-14675877D01*
X5801196Y-14675877D02*
X5810720Y-14656830D01*
X5810720Y-14656830D02*
X5820243Y-14647306D01*
X5820243Y-14647306D02*
X5839291Y-14637782D01*
X6029767Y-14637782D02*
X6048815Y-14637782D01*
X6048815Y-14637782D02*
X6067862Y-14647306D01*
X6067862Y-14647306D02*
X6077386Y-14656830D01*
X6077386Y-14656830D02*
X6086910Y-14675877D01*
X6086910Y-14675877D02*
X6096434Y-14713972D01*
X6096434Y-14713972D02*
X6096434Y-14761591D01*
X6096434Y-14761591D02*
X6086910Y-14799687D01*
X6086910Y-14799687D02*
X6077386Y-14818734D01*
X6077386Y-14818734D02*
X6067862Y-14828258D01*
X6067862Y-14828258D02*
X6048815Y-14837782D01*
X6048815Y-14837782D02*
X6029767Y-14837782D01*
X6029767Y-14837782D02*
X6010720Y-14828258D01*
X6010720Y-14828258D02*
X6001196Y-14818734D01*
X6001196Y-14818734D02*
X5991672Y-14799687D01*
X5991672Y-14799687D02*
X5982148Y-14761591D01*
X5982148Y-14761591D02*
X5982148Y-14713972D01*
X5982148Y-14713972D02*
X5991672Y-14675877D01*
X5991672Y-14675877D02*
X6001196Y-14656830D01*
X6001196Y-14656830D02*
X6010720Y-14647306D01*
X6010720Y-14647306D02*
X6029767Y-14637782D01*
X6182148Y-14837782D02*
X6182148Y-14704449D01*
X6182148Y-14723496D02*
X6191672Y-14713972D01*
X6191672Y-14713972D02*
X6210720Y-14704449D01*
X6210720Y-14704449D02*
X6239291Y-14704449D01*
X6239291Y-14704449D02*
X6258339Y-14713972D01*
X6258339Y-14713972D02*
X6267862Y-14733020D01*
X6267862Y-14733020D02*
X6267862Y-14837782D01*
X6267862Y-14733020D02*
X6277386Y-14713972D01*
X6277386Y-14713972D02*
X6296434Y-14704449D01*
X6296434Y-14704449D02*
X6325005Y-14704449D01*
X6325005Y-14704449D02*
X6344053Y-14713972D01*
X6344053Y-14713972D02*
X6353577Y-14733020D01*
X6353577Y-14733020D02*
X6353577Y-14837782D01*
X6448815Y-14837782D02*
X6448815Y-14704449D01*
X6448815Y-14723496D02*
X6458339Y-14713972D01*
X6458339Y-14713972D02*
X6477386Y-14704449D01*
X6477386Y-14704449D02*
X6505958Y-14704449D01*
X6505958Y-14704449D02*
X6525005Y-14713972D01*
X6525005Y-14713972D02*
X6534529Y-14733020D01*
X6534529Y-14733020D02*
X6534529Y-14837782D01*
X6534529Y-14733020D02*
X6544053Y-14713972D01*
X6544053Y-14713972D02*
X6563101Y-14704449D01*
X6563101Y-14704449D02*
X6591672Y-14704449D01*
X6591672Y-14704449D02*
X6610720Y-14713972D01*
X6610720Y-14713972D02*
X6620243Y-14733020D01*
X6620243Y-14733020D02*
X6620243Y-14837782D01*
X7010720Y-14628258D02*
X6839291Y-14885401D01*
X7267863Y-14637782D02*
X7286910Y-14637782D01*
X7286910Y-14637782D02*
X7305958Y-14647306D01*
X7305958Y-14647306D02*
X7315482Y-14656830D01*
X7315482Y-14656830D02*
X7325005Y-14675877D01*
X7325005Y-14675877D02*
X7334529Y-14713972D01*
X7334529Y-14713972D02*
X7334529Y-14761591D01*
X7334529Y-14761591D02*
X7325005Y-14799687D01*
X7325005Y-14799687D02*
X7315482Y-14818734D01*
X7315482Y-14818734D02*
X7305958Y-14828258D01*
X7305958Y-14828258D02*
X7286910Y-14837782D01*
X7286910Y-14837782D02*
X7267863Y-14837782D01*
X7267863Y-14837782D02*
X7248815Y-14828258D01*
X7248815Y-14828258D02*
X7239291Y-14818734D01*
X7239291Y-14818734D02*
X7229767Y-14799687D01*
X7229767Y-14799687D02*
X7220244Y-14761591D01*
X7220244Y-14761591D02*
X7220244Y-14713972D01*
X7220244Y-14713972D02*
X7229767Y-14675877D01*
X7229767Y-14675877D02*
X7239291Y-14656830D01*
X7239291Y-14656830D02*
X7248815Y-14647306D01*
X7248815Y-14647306D02*
X7267863Y-14637782D01*
X7420244Y-14818734D02*
X7429767Y-14828258D01*
X7429767Y-14828258D02*
X7420244Y-14837782D01*
X7420244Y-14837782D02*
X7410720Y-14828258D01*
X7410720Y-14828258D02*
X7420244Y-14818734D01*
X7420244Y-14818734D02*
X7420244Y-14837782D01*
X7553577Y-14637782D02*
X7572625Y-14637782D01*
X7572625Y-14637782D02*
X7591672Y-14647306D01*
X7591672Y-14647306D02*
X7601196Y-14656830D01*
X7601196Y-14656830D02*
X7610720Y-14675877D01*
X7610720Y-14675877D02*
X7620244Y-14713972D01*
X7620244Y-14713972D02*
X7620244Y-14761591D01*
X7620244Y-14761591D02*
X7610720Y-14799687D01*
X7610720Y-14799687D02*
X7601196Y-14818734D01*
X7601196Y-14818734D02*
X7591672Y-14828258D01*
X7591672Y-14828258D02*
X7572625Y-14837782D01*
X7572625Y-14837782D02*
X7553577Y-14837782D01*
X7553577Y-14837782D02*
X7534529Y-14828258D01*
X7534529Y-14828258D02*
X7525005Y-14818734D01*
X7525005Y-14818734D02*
X7515482Y-14799687D01*
X7515482Y-14799687D02*
X7505958Y-14761591D01*
X7505958Y-14761591D02*
X7505958Y-14713972D01*
X7505958Y-14713972D02*
X7515482Y-14675877D01*
X7515482Y-14675877D02*
X7525005Y-14656830D01*
X7525005Y-14656830D02*
X7534529Y-14647306D01*
X7534529Y-14647306D02*
X7553577Y-14637782D01*
X7686910Y-14637782D02*
X7810720Y-14637782D01*
X7810720Y-14637782D02*
X7744053Y-14713972D01*
X7744053Y-14713972D02*
X7772625Y-14713972D01*
X7772625Y-14713972D02*
X7791672Y-14723496D01*
X7791672Y-14723496D02*
X7801196Y-14733020D01*
X7801196Y-14733020D02*
X7810720Y-14752068D01*
X7810720Y-14752068D02*
X7810720Y-14799687D01*
X7810720Y-14799687D02*
X7801196Y-14818734D01*
X7801196Y-14818734D02*
X7791672Y-14828258D01*
X7791672Y-14828258D02*
X7772625Y-14837782D01*
X7772625Y-14837782D02*
X7715482Y-14837782D01*
X7715482Y-14837782D02*
X7696434Y-14828258D01*
X7696434Y-14828258D02*
X7686910Y-14818734D01*
X7905958Y-14837782D02*
X7944053Y-14837782D01*
X7944053Y-14837782D02*
X7963101Y-14828258D01*
X7963101Y-14828258D02*
X7972625Y-14818734D01*
X7972625Y-14818734D02*
X7991672Y-14790163D01*
X7991672Y-14790163D02*
X8001196Y-14752068D01*
X8001196Y-14752068D02*
X8001196Y-14675877D01*
X8001196Y-14675877D02*
X7991672Y-14656830D01*
X7991672Y-14656830D02*
X7982148Y-14647306D01*
X7982148Y-14647306D02*
X7963101Y-14637782D01*
X7963101Y-14637782D02*
X7925005Y-14637782D01*
X7925005Y-14637782D02*
X7905958Y-14647306D01*
X7905958Y-14647306D02*
X7896434Y-14656830D01*
X7896434Y-14656830D02*
X7886910Y-14675877D01*
X7886910Y-14675877D02*
X7886910Y-14723496D01*
X7886910Y-14723496D02*
X7896434Y-14742544D01*
X7896434Y-14742544D02*
X7905958Y-14752068D01*
X7905958Y-14752068D02*
X7925005Y-14761591D01*
X7925005Y-14761591D02*
X7963101Y-14761591D01*
X7963101Y-14761591D02*
X7982148Y-14752068D01*
X7982148Y-14752068D02*
X7991672Y-14742544D01*
X7991672Y-14742544D02*
X8001196Y-14723496D01*
X8172625Y-14704449D02*
X8172625Y-14837782D01*
X8125005Y-14628258D02*
X8077386Y-14771115D01*
X8077386Y-14771115D02*
X8201196Y-14771115D01*
X8267863Y-14637782D02*
X8267863Y-14675877D01*
X8344053Y-14637782D02*
X8344053Y-14675877D01*
X8639291Y-14913972D02*
X8629768Y-14904449D01*
X8629768Y-14904449D02*
X8610720Y-14875877D01*
X8610720Y-14875877D02*
X8601196Y-14856830D01*
X8601196Y-14856830D02*
X8591672Y-14828258D01*
X8591672Y-14828258D02*
X8582149Y-14780639D01*
X8582149Y-14780639D02*
X8582149Y-14742544D01*
X8582149Y-14742544D02*
X8591672Y-14694925D01*
X8591672Y-14694925D02*
X8601196Y-14666353D01*
X8601196Y-14666353D02*
X8610720Y-14647306D01*
X8610720Y-14647306D02*
X8629768Y-14618734D01*
X8629768Y-14618734D02*
X8639291Y-14609210D01*
X8696434Y-14637782D02*
X8829768Y-14637782D01*
X8829768Y-14637782D02*
X8744053Y-14837782D01*
X8915482Y-14837782D02*
X8953577Y-14837782D01*
X8953577Y-14837782D02*
X8972625Y-14828258D01*
X8972625Y-14828258D02*
X8982149Y-14818734D01*
X8982149Y-14818734D02*
X9001196Y-14790163D01*
X9001196Y-14790163D02*
X9010720Y-14752068D01*
X9010720Y-14752068D02*
X9010720Y-14675877D01*
X9010720Y-14675877D02*
X9001196Y-14656830D01*
X9001196Y-14656830D02*
X8991672Y-14647306D01*
X8991672Y-14647306D02*
X8972625Y-14637782D01*
X8972625Y-14637782D02*
X8934529Y-14637782D01*
X8934529Y-14637782D02*
X8915482Y-14647306D01*
X8915482Y-14647306D02*
X8905958Y-14656830D01*
X8905958Y-14656830D02*
X8896434Y-14675877D01*
X8896434Y-14675877D02*
X8896434Y-14723496D01*
X8896434Y-14723496D02*
X8905958Y-14742544D01*
X8905958Y-14742544D02*
X8915482Y-14752068D01*
X8915482Y-14752068D02*
X8934529Y-14761591D01*
X8934529Y-14761591D02*
X8972625Y-14761591D01*
X8972625Y-14761591D02*
X8991672Y-14752068D01*
X8991672Y-14752068D02*
X9001196Y-14742544D01*
X9001196Y-14742544D02*
X9010720Y-14723496D01*
X9248815Y-14837782D02*
X9248815Y-14637782D01*
X9334530Y-14837782D02*
X9334530Y-14733020D01*
X9334530Y-14733020D02*
X9325006Y-14713972D01*
X9325006Y-14713972D02*
X9305958Y-14704449D01*
X9305958Y-14704449D02*
X9277387Y-14704449D01*
X9277387Y-14704449D02*
X9258339Y-14713972D01*
X9258339Y-14713972D02*
X9248815Y-14723496D01*
X9458339Y-14837782D02*
X9439291Y-14828258D01*
X9439291Y-14828258D02*
X9429768Y-14818734D01*
X9429768Y-14818734D02*
X9420244Y-14799687D01*
X9420244Y-14799687D02*
X9420244Y-14742544D01*
X9420244Y-14742544D02*
X9429768Y-14723496D01*
X9429768Y-14723496D02*
X9439291Y-14713972D01*
X9439291Y-14713972D02*
X9458339Y-14704449D01*
X9458339Y-14704449D02*
X9486911Y-14704449D01*
X9486911Y-14704449D02*
X9505958Y-14713972D01*
X9505958Y-14713972D02*
X9515482Y-14723496D01*
X9515482Y-14723496D02*
X9525006Y-14742544D01*
X9525006Y-14742544D02*
X9525006Y-14799687D01*
X9525006Y-14799687D02*
X9515482Y-14818734D01*
X9515482Y-14818734D02*
X9505958Y-14828258D01*
X9505958Y-14828258D02*
X9486911Y-14837782D01*
X9486911Y-14837782D02*
X9458339Y-14837782D01*
X9639291Y-14837782D02*
X9620244Y-14828258D01*
X9620244Y-14828258D02*
X9610720Y-14809210D01*
X9610720Y-14809210D02*
X9610720Y-14637782D01*
X9791672Y-14828258D02*
X9772625Y-14837782D01*
X9772625Y-14837782D02*
X9734530Y-14837782D01*
X9734530Y-14837782D02*
X9715482Y-14828258D01*
X9715482Y-14828258D02*
X9705958Y-14809210D01*
X9705958Y-14809210D02*
X9705958Y-14733020D01*
X9705958Y-14733020D02*
X9715482Y-14713972D01*
X9715482Y-14713972D02*
X9734530Y-14704449D01*
X9734530Y-14704449D02*
X9772625Y-14704449D01*
X9772625Y-14704449D02*
X9791672Y-14713972D01*
X9791672Y-14713972D02*
X9801196Y-14733020D01*
X9801196Y-14733020D02*
X9801196Y-14752068D01*
X9801196Y-14752068D02*
X9705958Y-14771115D01*
X9877387Y-14828258D02*
X9896434Y-14837782D01*
X9896434Y-14837782D02*
X9934530Y-14837782D01*
X9934530Y-14837782D02*
X9953577Y-14828258D01*
X9953577Y-14828258D02*
X9963101Y-14809210D01*
X9963101Y-14809210D02*
X9963101Y-14799687D01*
X9963101Y-14799687D02*
X9953577Y-14780639D01*
X9953577Y-14780639D02*
X9934530Y-14771115D01*
X9934530Y-14771115D02*
X9905958Y-14771115D01*
X9905958Y-14771115D02*
X9886911Y-14761591D01*
X9886911Y-14761591D02*
X9877387Y-14742544D01*
X9877387Y-14742544D02*
X9877387Y-14733020D01*
X9877387Y-14733020D02*
X9886911Y-14713972D01*
X9886911Y-14713972D02*
X9905958Y-14704449D01*
X9905958Y-14704449D02*
X9934530Y-14704449D01*
X9934530Y-14704449D02*
X9953577Y-14713972D01*
X10029768Y-14913972D02*
X10039292Y-14904449D01*
X10039292Y-14904449D02*
X10058339Y-14875877D01*
X10058339Y-14875877D02*
X10067863Y-14856830D01*
X10067863Y-14856830D02*
X10077387Y-14828258D01*
X10077387Y-14828258D02*
X10086911Y-14780639D01*
X10086911Y-14780639D02*
X10086911Y-14742544D01*
X10086911Y-14742544D02*
X10077387Y-14694925D01*
X10077387Y-14694925D02*
X10067863Y-14666353D01*
X10067863Y-14666353D02*
X10058339Y-14647306D01*
X10058339Y-14647306D02*
X10039292Y-14618734D01*
X10039292Y-14618734D02*
X10029768Y-14609210D01*
D13*
X5009229Y-15065298D02*
X5064229Y-15010298D01*
X5009229Y-14955298D01*
X4954229Y-15010298D01*
X5009229Y-15065298D01*
D11*
X5429767Y-15101782D02*
X5315482Y-15101782D01*
X5372624Y-15101782D02*
X5372624Y-14901782D01*
X5372624Y-14901782D02*
X5353577Y-14930353D01*
X5353577Y-14930353D02*
X5334529Y-14949401D01*
X5334529Y-14949401D02*
X5315482Y-14958925D01*
X5515482Y-15082734D02*
X5525005Y-15092258D01*
X5525005Y-15092258D02*
X5515482Y-15101782D01*
X5515482Y-15101782D02*
X5505958Y-15092258D01*
X5505958Y-15092258D02*
X5515482Y-15082734D01*
X5515482Y-15082734D02*
X5515482Y-15101782D01*
X5715481Y-15101782D02*
X5601196Y-15101782D01*
X5658339Y-15101782D02*
X5658339Y-14901782D01*
X5658339Y-14901782D02*
X5639291Y-14930353D01*
X5639291Y-14930353D02*
X5620243Y-14949401D01*
X5620243Y-14949401D02*
X5601196Y-14958925D01*
X5839291Y-14901782D02*
X5858339Y-14901782D01*
X5858339Y-14901782D02*
X5877386Y-14911306D01*
X5877386Y-14911306D02*
X5886910Y-14920830D01*
X5886910Y-14920830D02*
X5896434Y-14939877D01*
X5896434Y-14939877D02*
X5905958Y-14977972D01*
X5905958Y-14977972D02*
X5905958Y-15025591D01*
X5905958Y-15025591D02*
X5896434Y-15063687D01*
X5896434Y-15063687D02*
X5886910Y-15082734D01*
X5886910Y-15082734D02*
X5877386Y-15092258D01*
X5877386Y-15092258D02*
X5858339Y-15101782D01*
X5858339Y-15101782D02*
X5839291Y-15101782D01*
X5839291Y-15101782D02*
X5820243Y-15092258D01*
X5820243Y-15092258D02*
X5810720Y-15082734D01*
X5810720Y-15082734D02*
X5801196Y-15063687D01*
X5801196Y-15063687D02*
X5791672Y-15025591D01*
X5791672Y-15025591D02*
X5791672Y-14977972D01*
X5791672Y-14977972D02*
X5801196Y-14939877D01*
X5801196Y-14939877D02*
X5810720Y-14920830D01*
X5810720Y-14920830D02*
X5820243Y-14911306D01*
X5820243Y-14911306D02*
X5839291Y-14901782D01*
X6029767Y-14901782D02*
X6048815Y-14901782D01*
X6048815Y-14901782D02*
X6067862Y-14911306D01*
X6067862Y-14911306D02*
X6077386Y-14920830D01*
X6077386Y-14920830D02*
X6086910Y-14939877D01*
X6086910Y-14939877D02*
X6096434Y-14977972D01*
X6096434Y-14977972D02*
X6096434Y-15025591D01*
X6096434Y-15025591D02*
X6086910Y-15063687D01*
X6086910Y-15063687D02*
X6077386Y-15082734D01*
X6077386Y-15082734D02*
X6067862Y-15092258D01*
X6067862Y-15092258D02*
X6048815Y-15101782D01*
X6048815Y-15101782D02*
X6029767Y-15101782D01*
X6029767Y-15101782D02*
X6010720Y-15092258D01*
X6010720Y-15092258D02*
X6001196Y-15082734D01*
X6001196Y-15082734D02*
X5991672Y-15063687D01*
X5991672Y-15063687D02*
X5982148Y-15025591D01*
X5982148Y-15025591D02*
X5982148Y-14977972D01*
X5982148Y-14977972D02*
X5991672Y-14939877D01*
X5991672Y-14939877D02*
X6001196Y-14920830D01*
X6001196Y-14920830D02*
X6010720Y-14911306D01*
X6010720Y-14911306D02*
X6029767Y-14901782D01*
X6182148Y-15101782D02*
X6182148Y-14968449D01*
X6182148Y-14987496D02*
X6191672Y-14977972D01*
X6191672Y-14977972D02*
X6210720Y-14968449D01*
X6210720Y-14968449D02*
X6239291Y-14968449D01*
X6239291Y-14968449D02*
X6258339Y-14977972D01*
X6258339Y-14977972D02*
X6267862Y-14997020D01*
X6267862Y-14997020D02*
X6267862Y-15101782D01*
X6267862Y-14997020D02*
X6277386Y-14977972D01*
X6277386Y-14977972D02*
X6296434Y-14968449D01*
X6296434Y-14968449D02*
X6325005Y-14968449D01*
X6325005Y-14968449D02*
X6344053Y-14977972D01*
X6344053Y-14977972D02*
X6353577Y-14997020D01*
X6353577Y-14997020D02*
X6353577Y-15101782D01*
X6448815Y-15101782D02*
X6448815Y-14968449D01*
X6448815Y-14987496D02*
X6458339Y-14977972D01*
X6458339Y-14977972D02*
X6477386Y-14968449D01*
X6477386Y-14968449D02*
X6505958Y-14968449D01*
X6505958Y-14968449D02*
X6525005Y-14977972D01*
X6525005Y-14977972D02*
X6534529Y-14997020D01*
X6534529Y-14997020D02*
X6534529Y-15101782D01*
X6534529Y-14997020D02*
X6544053Y-14977972D01*
X6544053Y-14977972D02*
X6563101Y-14968449D01*
X6563101Y-14968449D02*
X6591672Y-14968449D01*
X6591672Y-14968449D02*
X6610720Y-14977972D01*
X6610720Y-14977972D02*
X6620243Y-14997020D01*
X6620243Y-14997020D02*
X6620243Y-15101782D01*
X7010720Y-14892258D02*
X6839291Y-15149401D01*
X7267863Y-14901782D02*
X7286910Y-14901782D01*
X7286910Y-14901782D02*
X7305958Y-14911306D01*
X7305958Y-14911306D02*
X7315482Y-14920830D01*
X7315482Y-14920830D02*
X7325005Y-14939877D01*
X7325005Y-14939877D02*
X7334529Y-14977972D01*
X7334529Y-14977972D02*
X7334529Y-15025591D01*
X7334529Y-15025591D02*
X7325005Y-15063687D01*
X7325005Y-15063687D02*
X7315482Y-15082734D01*
X7315482Y-15082734D02*
X7305958Y-15092258D01*
X7305958Y-15092258D02*
X7286910Y-15101782D01*
X7286910Y-15101782D02*
X7267863Y-15101782D01*
X7267863Y-15101782D02*
X7248815Y-15092258D01*
X7248815Y-15092258D02*
X7239291Y-15082734D01*
X7239291Y-15082734D02*
X7229767Y-15063687D01*
X7229767Y-15063687D02*
X7220244Y-15025591D01*
X7220244Y-15025591D02*
X7220244Y-14977972D01*
X7220244Y-14977972D02*
X7229767Y-14939877D01*
X7229767Y-14939877D02*
X7239291Y-14920830D01*
X7239291Y-14920830D02*
X7248815Y-14911306D01*
X7248815Y-14911306D02*
X7267863Y-14901782D01*
X7420244Y-15082734D02*
X7429767Y-15092258D01*
X7429767Y-15092258D02*
X7420244Y-15101782D01*
X7420244Y-15101782D02*
X7410720Y-15092258D01*
X7410720Y-15092258D02*
X7420244Y-15082734D01*
X7420244Y-15082734D02*
X7420244Y-15101782D01*
X7553577Y-14901782D02*
X7572625Y-14901782D01*
X7572625Y-14901782D02*
X7591672Y-14911306D01*
X7591672Y-14911306D02*
X7601196Y-14920830D01*
X7601196Y-14920830D02*
X7610720Y-14939877D01*
X7610720Y-14939877D02*
X7620244Y-14977972D01*
X7620244Y-14977972D02*
X7620244Y-15025591D01*
X7620244Y-15025591D02*
X7610720Y-15063687D01*
X7610720Y-15063687D02*
X7601196Y-15082734D01*
X7601196Y-15082734D02*
X7591672Y-15092258D01*
X7591672Y-15092258D02*
X7572625Y-15101782D01*
X7572625Y-15101782D02*
X7553577Y-15101782D01*
X7553577Y-15101782D02*
X7534529Y-15092258D01*
X7534529Y-15092258D02*
X7525005Y-15082734D01*
X7525005Y-15082734D02*
X7515482Y-15063687D01*
X7515482Y-15063687D02*
X7505958Y-15025591D01*
X7505958Y-15025591D02*
X7505958Y-14977972D01*
X7505958Y-14977972D02*
X7515482Y-14939877D01*
X7515482Y-14939877D02*
X7525005Y-14920830D01*
X7525005Y-14920830D02*
X7534529Y-14911306D01*
X7534529Y-14911306D02*
X7553577Y-14901782D01*
X7791672Y-14968449D02*
X7791672Y-15101782D01*
X7744053Y-14892258D02*
X7696434Y-15035115D01*
X7696434Y-15035115D02*
X7820244Y-15035115D01*
X7877386Y-14901782D02*
X8001196Y-14901782D01*
X8001196Y-14901782D02*
X7934529Y-14977972D01*
X7934529Y-14977972D02*
X7963101Y-14977972D01*
X7963101Y-14977972D02*
X7982148Y-14987496D01*
X7982148Y-14987496D02*
X7991672Y-14997020D01*
X7991672Y-14997020D02*
X8001196Y-15016068D01*
X8001196Y-15016068D02*
X8001196Y-15063687D01*
X8001196Y-15063687D02*
X7991672Y-15082734D01*
X7991672Y-15082734D02*
X7982148Y-15092258D01*
X7982148Y-15092258D02*
X7963101Y-15101782D01*
X7963101Y-15101782D02*
X7905958Y-15101782D01*
X7905958Y-15101782D02*
X7886910Y-15092258D01*
X7886910Y-15092258D02*
X7877386Y-15082734D01*
X8067863Y-14901782D02*
X8191672Y-14901782D01*
X8191672Y-14901782D02*
X8125005Y-14977972D01*
X8125005Y-14977972D02*
X8153577Y-14977972D01*
X8153577Y-14977972D02*
X8172625Y-14987496D01*
X8172625Y-14987496D02*
X8182148Y-14997020D01*
X8182148Y-14997020D02*
X8191672Y-15016068D01*
X8191672Y-15016068D02*
X8191672Y-15063687D01*
X8191672Y-15063687D02*
X8182148Y-15082734D01*
X8182148Y-15082734D02*
X8172625Y-15092258D01*
X8172625Y-15092258D02*
X8153577Y-15101782D01*
X8153577Y-15101782D02*
X8096434Y-15101782D01*
X8096434Y-15101782D02*
X8077386Y-15092258D01*
X8077386Y-15092258D02*
X8067863Y-15082734D01*
X8267863Y-14901782D02*
X8267863Y-14939877D01*
X8344053Y-14901782D02*
X8344053Y-14939877D01*
X8639291Y-15177972D02*
X8629768Y-15168449D01*
X8629768Y-15168449D02*
X8610720Y-15139877D01*
X8610720Y-15139877D02*
X8601196Y-15120830D01*
X8601196Y-15120830D02*
X8591672Y-15092258D01*
X8591672Y-15092258D02*
X8582149Y-15044639D01*
X8582149Y-15044639D02*
X8582149Y-15006544D01*
X8582149Y-15006544D02*
X8591672Y-14958925D01*
X8591672Y-14958925D02*
X8601196Y-14930353D01*
X8601196Y-14930353D02*
X8610720Y-14911306D01*
X8610720Y-14911306D02*
X8629768Y-14882734D01*
X8629768Y-14882734D02*
X8639291Y-14873210D01*
X8801196Y-14968449D02*
X8801196Y-15101782D01*
X8753577Y-14892258D02*
X8705958Y-15035115D01*
X8705958Y-15035115D02*
X8829768Y-15035115D01*
X9058339Y-15101782D02*
X9058339Y-14901782D01*
X9144053Y-15101782D02*
X9144053Y-14997020D01*
X9144053Y-14997020D02*
X9134530Y-14977972D01*
X9134530Y-14977972D02*
X9115482Y-14968449D01*
X9115482Y-14968449D02*
X9086910Y-14968449D01*
X9086910Y-14968449D02*
X9067863Y-14977972D01*
X9067863Y-14977972D02*
X9058339Y-14987496D01*
X9267863Y-15101782D02*
X9248815Y-15092258D01*
X9248815Y-15092258D02*
X9239291Y-15082734D01*
X9239291Y-15082734D02*
X9229768Y-15063687D01*
X9229768Y-15063687D02*
X9229768Y-15006544D01*
X9229768Y-15006544D02*
X9239291Y-14987496D01*
X9239291Y-14987496D02*
X9248815Y-14977972D01*
X9248815Y-14977972D02*
X9267863Y-14968449D01*
X9267863Y-14968449D02*
X9296434Y-14968449D01*
X9296434Y-14968449D02*
X9315482Y-14977972D01*
X9315482Y-14977972D02*
X9325006Y-14987496D01*
X9325006Y-14987496D02*
X9334530Y-15006544D01*
X9334530Y-15006544D02*
X9334530Y-15063687D01*
X9334530Y-15063687D02*
X9325006Y-15082734D01*
X9325006Y-15082734D02*
X9315482Y-15092258D01*
X9315482Y-15092258D02*
X9296434Y-15101782D01*
X9296434Y-15101782D02*
X9267863Y-15101782D01*
X9448815Y-15101782D02*
X9429768Y-15092258D01*
X9429768Y-15092258D02*
X9420244Y-15073210D01*
X9420244Y-15073210D02*
X9420244Y-14901782D01*
X9601196Y-15092258D02*
X9582149Y-15101782D01*
X9582149Y-15101782D02*
X9544053Y-15101782D01*
X9544053Y-15101782D02*
X9525006Y-15092258D01*
X9525006Y-15092258D02*
X9515482Y-15073210D01*
X9515482Y-15073210D02*
X9515482Y-14997020D01*
X9515482Y-14997020D02*
X9525006Y-14977972D01*
X9525006Y-14977972D02*
X9544053Y-14968449D01*
X9544053Y-14968449D02*
X9582149Y-14968449D01*
X9582149Y-14968449D02*
X9601196Y-14977972D01*
X9601196Y-14977972D02*
X9610720Y-14997020D01*
X9610720Y-14997020D02*
X9610720Y-15016068D01*
X9610720Y-15016068D02*
X9515482Y-15035115D01*
X9686911Y-15092258D02*
X9705958Y-15101782D01*
X9705958Y-15101782D02*
X9744053Y-15101782D01*
X9744053Y-15101782D02*
X9763101Y-15092258D01*
X9763101Y-15092258D02*
X9772625Y-15073210D01*
X9772625Y-15073210D02*
X9772625Y-15063687D01*
X9772625Y-15063687D02*
X9763101Y-15044639D01*
X9763101Y-15044639D02*
X9744053Y-15035115D01*
X9744053Y-15035115D02*
X9715482Y-15035115D01*
X9715482Y-15035115D02*
X9696434Y-15025591D01*
X9696434Y-15025591D02*
X9686911Y-15006544D01*
X9686911Y-15006544D02*
X9686911Y-14997020D01*
X9686911Y-14997020D02*
X9696434Y-14977972D01*
X9696434Y-14977972D02*
X9715482Y-14968449D01*
X9715482Y-14968449D02*
X9744053Y-14968449D01*
X9744053Y-14968449D02*
X9763101Y-14977972D01*
X9839292Y-15177972D02*
X9848815Y-15168449D01*
X9848815Y-15168449D02*
X9867863Y-15139877D01*
X9867863Y-15139877D02*
X9877387Y-15120830D01*
X9877387Y-15120830D02*
X9886911Y-15092258D01*
X9886911Y-15092258D02*
X9896434Y-15044639D01*
X9896434Y-15044639D02*
X9896434Y-15006544D01*
X9896434Y-15006544D02*
X9886911Y-14958925D01*
X9886911Y-14958925D02*
X9877387Y-14930353D01*
X9877387Y-14930353D02*
X9867863Y-14911306D01*
X9867863Y-14911306D02*
X9848815Y-14882734D01*
X9848815Y-14882734D02*
X9839292Y-14873210D01*
D14*
X4914229Y-15199298D02*
X5064229Y-15349298D01*
X5064229Y-15199298D02*
X4914229Y-15349298D01*
X5064229Y-15274298D02*
G75*
G02*
X4914229Y-15274298I-75000J0D01*
G01*
X4914229Y-15274298D02*
G75*
G02*
X5064229Y-15274298I75000J0D01*
G01*
D11*
X5429767Y-15365782D02*
X5315482Y-15365782D01*
X5372624Y-15365782D02*
X5372624Y-15165782D01*
X5372624Y-15165782D02*
X5353577Y-15194353D01*
X5353577Y-15194353D02*
X5334529Y-15213401D01*
X5334529Y-15213401D02*
X5315482Y-15222925D01*
X5515482Y-15346734D02*
X5525005Y-15356258D01*
X5525005Y-15356258D02*
X5515482Y-15365782D01*
X5515482Y-15365782D02*
X5505958Y-15356258D01*
X5505958Y-15356258D02*
X5515482Y-15346734D01*
X5515482Y-15346734D02*
X5515482Y-15365782D01*
X5705958Y-15165782D02*
X5610720Y-15165782D01*
X5610720Y-15165782D02*
X5601196Y-15261020D01*
X5601196Y-15261020D02*
X5610720Y-15251496D01*
X5610720Y-15251496D02*
X5629767Y-15241972D01*
X5629767Y-15241972D02*
X5677386Y-15241972D01*
X5677386Y-15241972D02*
X5696434Y-15251496D01*
X5696434Y-15251496D02*
X5705958Y-15261020D01*
X5705958Y-15261020D02*
X5715481Y-15280068D01*
X5715481Y-15280068D02*
X5715481Y-15327687D01*
X5715481Y-15327687D02*
X5705958Y-15346734D01*
X5705958Y-15346734D02*
X5696434Y-15356258D01*
X5696434Y-15356258D02*
X5677386Y-15365782D01*
X5677386Y-15365782D02*
X5629767Y-15365782D01*
X5629767Y-15365782D02*
X5610720Y-15356258D01*
X5610720Y-15356258D02*
X5601196Y-15346734D01*
X5839291Y-15165782D02*
X5858339Y-15165782D01*
X5858339Y-15165782D02*
X5877386Y-15175306D01*
X5877386Y-15175306D02*
X5886910Y-15184830D01*
X5886910Y-15184830D02*
X5896434Y-15203877D01*
X5896434Y-15203877D02*
X5905958Y-15241972D01*
X5905958Y-15241972D02*
X5905958Y-15289591D01*
X5905958Y-15289591D02*
X5896434Y-15327687D01*
X5896434Y-15327687D02*
X5886910Y-15346734D01*
X5886910Y-15346734D02*
X5877386Y-15356258D01*
X5877386Y-15356258D02*
X5858339Y-15365782D01*
X5858339Y-15365782D02*
X5839291Y-15365782D01*
X5839291Y-15365782D02*
X5820243Y-15356258D01*
X5820243Y-15356258D02*
X5810720Y-15346734D01*
X5810720Y-15346734D02*
X5801196Y-15327687D01*
X5801196Y-15327687D02*
X5791672Y-15289591D01*
X5791672Y-15289591D02*
X5791672Y-15241972D01*
X5791672Y-15241972D02*
X5801196Y-15203877D01*
X5801196Y-15203877D02*
X5810720Y-15184830D01*
X5810720Y-15184830D02*
X5820243Y-15175306D01*
X5820243Y-15175306D02*
X5839291Y-15165782D01*
X6029767Y-15165782D02*
X6048815Y-15165782D01*
X6048815Y-15165782D02*
X6067862Y-15175306D01*
X6067862Y-15175306D02*
X6077386Y-15184830D01*
X6077386Y-15184830D02*
X6086910Y-15203877D01*
X6086910Y-15203877D02*
X6096434Y-15241972D01*
X6096434Y-15241972D02*
X6096434Y-15289591D01*
X6096434Y-15289591D02*
X6086910Y-15327687D01*
X6086910Y-15327687D02*
X6077386Y-15346734D01*
X6077386Y-15346734D02*
X6067862Y-15356258D01*
X6067862Y-15356258D02*
X6048815Y-15365782D01*
X6048815Y-15365782D02*
X6029767Y-15365782D01*
X6029767Y-15365782D02*
X6010720Y-15356258D01*
X6010720Y-15356258D02*
X6001196Y-15346734D01*
X6001196Y-15346734D02*
X5991672Y-15327687D01*
X5991672Y-15327687D02*
X5982148Y-15289591D01*
X5982148Y-15289591D02*
X5982148Y-15241972D01*
X5982148Y-15241972D02*
X5991672Y-15203877D01*
X5991672Y-15203877D02*
X6001196Y-15184830D01*
X6001196Y-15184830D02*
X6010720Y-15175306D01*
X6010720Y-15175306D02*
X6029767Y-15165782D01*
X6182148Y-15365782D02*
X6182148Y-15232449D01*
X6182148Y-15251496D02*
X6191672Y-15241972D01*
X6191672Y-15241972D02*
X6210720Y-15232449D01*
X6210720Y-15232449D02*
X6239291Y-15232449D01*
X6239291Y-15232449D02*
X6258339Y-15241972D01*
X6258339Y-15241972D02*
X6267862Y-15261020D01*
X6267862Y-15261020D02*
X6267862Y-15365782D01*
X6267862Y-15261020D02*
X6277386Y-15241972D01*
X6277386Y-15241972D02*
X6296434Y-15232449D01*
X6296434Y-15232449D02*
X6325005Y-15232449D01*
X6325005Y-15232449D02*
X6344053Y-15241972D01*
X6344053Y-15241972D02*
X6353577Y-15261020D01*
X6353577Y-15261020D02*
X6353577Y-15365782D01*
X6448815Y-15365782D02*
X6448815Y-15232449D01*
X6448815Y-15251496D02*
X6458339Y-15241972D01*
X6458339Y-15241972D02*
X6477386Y-15232449D01*
X6477386Y-15232449D02*
X6505958Y-15232449D01*
X6505958Y-15232449D02*
X6525005Y-15241972D01*
X6525005Y-15241972D02*
X6534529Y-15261020D01*
X6534529Y-15261020D02*
X6534529Y-15365782D01*
X6534529Y-15261020D02*
X6544053Y-15241972D01*
X6544053Y-15241972D02*
X6563101Y-15232449D01*
X6563101Y-15232449D02*
X6591672Y-15232449D01*
X6591672Y-15232449D02*
X6610720Y-15241972D01*
X6610720Y-15241972D02*
X6620243Y-15261020D01*
X6620243Y-15261020D02*
X6620243Y-15365782D01*
X7010720Y-15156258D02*
X6839291Y-15413401D01*
X7267863Y-15165782D02*
X7286910Y-15165782D01*
X7286910Y-15165782D02*
X7305958Y-15175306D01*
X7305958Y-15175306D02*
X7315482Y-15184830D01*
X7315482Y-15184830D02*
X7325005Y-15203877D01*
X7325005Y-15203877D02*
X7334529Y-15241972D01*
X7334529Y-15241972D02*
X7334529Y-15289591D01*
X7334529Y-15289591D02*
X7325005Y-15327687D01*
X7325005Y-15327687D02*
X7315482Y-15346734D01*
X7315482Y-15346734D02*
X7305958Y-15356258D01*
X7305958Y-15356258D02*
X7286910Y-15365782D01*
X7286910Y-15365782D02*
X7267863Y-15365782D01*
X7267863Y-15365782D02*
X7248815Y-15356258D01*
X7248815Y-15356258D02*
X7239291Y-15346734D01*
X7239291Y-15346734D02*
X7229767Y-15327687D01*
X7229767Y-15327687D02*
X7220244Y-15289591D01*
X7220244Y-15289591D02*
X7220244Y-15241972D01*
X7220244Y-15241972D02*
X7229767Y-15203877D01*
X7229767Y-15203877D02*
X7239291Y-15184830D01*
X7239291Y-15184830D02*
X7248815Y-15175306D01*
X7248815Y-15175306D02*
X7267863Y-15165782D01*
X7420244Y-15346734D02*
X7429767Y-15356258D01*
X7429767Y-15356258D02*
X7420244Y-15365782D01*
X7420244Y-15365782D02*
X7410720Y-15356258D01*
X7410720Y-15356258D02*
X7420244Y-15346734D01*
X7420244Y-15346734D02*
X7420244Y-15365782D01*
X7553577Y-15165782D02*
X7572625Y-15165782D01*
X7572625Y-15165782D02*
X7591672Y-15175306D01*
X7591672Y-15175306D02*
X7601196Y-15184830D01*
X7601196Y-15184830D02*
X7610720Y-15203877D01*
X7610720Y-15203877D02*
X7620244Y-15241972D01*
X7620244Y-15241972D02*
X7620244Y-15289591D01*
X7620244Y-15289591D02*
X7610720Y-15327687D01*
X7610720Y-15327687D02*
X7601196Y-15346734D01*
X7601196Y-15346734D02*
X7591672Y-15356258D01*
X7591672Y-15356258D02*
X7572625Y-15365782D01*
X7572625Y-15365782D02*
X7553577Y-15365782D01*
X7553577Y-15365782D02*
X7534529Y-15356258D01*
X7534529Y-15356258D02*
X7525005Y-15346734D01*
X7525005Y-15346734D02*
X7515482Y-15327687D01*
X7515482Y-15327687D02*
X7505958Y-15289591D01*
X7505958Y-15289591D02*
X7505958Y-15241972D01*
X7505958Y-15241972D02*
X7515482Y-15203877D01*
X7515482Y-15203877D02*
X7525005Y-15184830D01*
X7525005Y-15184830D02*
X7534529Y-15175306D01*
X7534529Y-15175306D02*
X7553577Y-15165782D01*
X7801196Y-15165782D02*
X7705958Y-15165782D01*
X7705958Y-15165782D02*
X7696434Y-15261020D01*
X7696434Y-15261020D02*
X7705958Y-15251496D01*
X7705958Y-15251496D02*
X7725005Y-15241972D01*
X7725005Y-15241972D02*
X7772625Y-15241972D01*
X7772625Y-15241972D02*
X7791672Y-15251496D01*
X7791672Y-15251496D02*
X7801196Y-15261020D01*
X7801196Y-15261020D02*
X7810720Y-15280068D01*
X7810720Y-15280068D02*
X7810720Y-15327687D01*
X7810720Y-15327687D02*
X7801196Y-15346734D01*
X7801196Y-15346734D02*
X7791672Y-15356258D01*
X7791672Y-15356258D02*
X7772625Y-15365782D01*
X7772625Y-15365782D02*
X7725005Y-15365782D01*
X7725005Y-15365782D02*
X7705958Y-15356258D01*
X7705958Y-15356258D02*
X7696434Y-15346734D01*
X7905958Y-15365782D02*
X7944053Y-15365782D01*
X7944053Y-15365782D02*
X7963101Y-15356258D01*
X7963101Y-15356258D02*
X7972625Y-15346734D01*
X7972625Y-15346734D02*
X7991672Y-15318163D01*
X7991672Y-15318163D02*
X8001196Y-15280068D01*
X8001196Y-15280068D02*
X8001196Y-15203877D01*
X8001196Y-15203877D02*
X7991672Y-15184830D01*
X7991672Y-15184830D02*
X7982148Y-15175306D01*
X7982148Y-15175306D02*
X7963101Y-15165782D01*
X7963101Y-15165782D02*
X7925005Y-15165782D01*
X7925005Y-15165782D02*
X7905958Y-15175306D01*
X7905958Y-15175306D02*
X7896434Y-15184830D01*
X7896434Y-15184830D02*
X7886910Y-15203877D01*
X7886910Y-15203877D02*
X7886910Y-15251496D01*
X7886910Y-15251496D02*
X7896434Y-15270544D01*
X7896434Y-15270544D02*
X7905958Y-15280068D01*
X7905958Y-15280068D02*
X7925005Y-15289591D01*
X7925005Y-15289591D02*
X7963101Y-15289591D01*
X7963101Y-15289591D02*
X7982148Y-15280068D01*
X7982148Y-15280068D02*
X7991672Y-15270544D01*
X7991672Y-15270544D02*
X8001196Y-15251496D01*
X8191672Y-15365782D02*
X8077386Y-15365782D01*
X8134529Y-15365782D02*
X8134529Y-15165782D01*
X8134529Y-15165782D02*
X8115482Y-15194353D01*
X8115482Y-15194353D02*
X8096434Y-15213401D01*
X8096434Y-15213401D02*
X8077386Y-15222925D01*
X8267863Y-15165782D02*
X8267863Y-15203877D01*
X8344053Y-15165782D02*
X8344053Y-15203877D01*
X8639291Y-15441972D02*
X8629768Y-15432449D01*
X8629768Y-15432449D02*
X8610720Y-15403877D01*
X8610720Y-15403877D02*
X8601196Y-15384830D01*
X8601196Y-15384830D02*
X8591672Y-15356258D01*
X8591672Y-15356258D02*
X8582149Y-15308639D01*
X8582149Y-15308639D02*
X8582149Y-15270544D01*
X8582149Y-15270544D02*
X8591672Y-15222925D01*
X8591672Y-15222925D02*
X8601196Y-15194353D01*
X8601196Y-15194353D02*
X8610720Y-15175306D01*
X8610720Y-15175306D02*
X8629768Y-15146734D01*
X8629768Y-15146734D02*
X8639291Y-15137210D01*
X8705958Y-15184830D02*
X8715482Y-15175306D01*
X8715482Y-15175306D02*
X8734529Y-15165782D01*
X8734529Y-15165782D02*
X8782149Y-15165782D01*
X8782149Y-15165782D02*
X8801196Y-15175306D01*
X8801196Y-15175306D02*
X8810720Y-15184830D01*
X8810720Y-15184830D02*
X8820244Y-15203877D01*
X8820244Y-15203877D02*
X8820244Y-15222925D01*
X8820244Y-15222925D02*
X8810720Y-15251496D01*
X8810720Y-15251496D02*
X8696434Y-15365782D01*
X8696434Y-15365782D02*
X8820244Y-15365782D01*
X9058339Y-15365782D02*
X9058339Y-15165782D01*
X9144053Y-15365782D02*
X9144053Y-15261020D01*
X9144053Y-15261020D02*
X9134530Y-15241972D01*
X9134530Y-15241972D02*
X9115482Y-15232449D01*
X9115482Y-15232449D02*
X9086910Y-15232449D01*
X9086910Y-15232449D02*
X9067863Y-15241972D01*
X9067863Y-15241972D02*
X9058339Y-15251496D01*
X9267863Y-15365782D02*
X9248815Y-15356258D01*
X9248815Y-15356258D02*
X9239291Y-15346734D01*
X9239291Y-15346734D02*
X9229768Y-15327687D01*
X9229768Y-15327687D02*
X9229768Y-15270544D01*
X9229768Y-15270544D02*
X9239291Y-15251496D01*
X9239291Y-15251496D02*
X9248815Y-15241972D01*
X9248815Y-15241972D02*
X9267863Y-15232449D01*
X9267863Y-15232449D02*
X9296434Y-15232449D01*
X9296434Y-15232449D02*
X9315482Y-15241972D01*
X9315482Y-15241972D02*
X9325006Y-15251496D01*
X9325006Y-15251496D02*
X9334530Y-15270544D01*
X9334530Y-15270544D02*
X9334530Y-15327687D01*
X9334530Y-15327687D02*
X9325006Y-15346734D01*
X9325006Y-15346734D02*
X9315482Y-15356258D01*
X9315482Y-15356258D02*
X9296434Y-15365782D01*
X9296434Y-15365782D02*
X9267863Y-15365782D01*
X9448815Y-15365782D02*
X9429768Y-15356258D01*
X9429768Y-15356258D02*
X9420244Y-15337210D01*
X9420244Y-15337210D02*
X9420244Y-15165782D01*
X9601196Y-15356258D02*
X9582149Y-15365782D01*
X9582149Y-15365782D02*
X9544053Y-15365782D01*
X9544053Y-15365782D02*
X9525006Y-15356258D01*
X9525006Y-15356258D02*
X9515482Y-15337210D01*
X9515482Y-15337210D02*
X9515482Y-15261020D01*
X9515482Y-15261020D02*
X9525006Y-15241972D01*
X9525006Y-15241972D02*
X9544053Y-15232449D01*
X9544053Y-15232449D02*
X9582149Y-15232449D01*
X9582149Y-15232449D02*
X9601196Y-15241972D01*
X9601196Y-15241972D02*
X9610720Y-15261020D01*
X9610720Y-15261020D02*
X9610720Y-15280068D01*
X9610720Y-15280068D02*
X9515482Y-15299115D01*
X9686911Y-15356258D02*
X9705958Y-15365782D01*
X9705958Y-15365782D02*
X9744053Y-15365782D01*
X9744053Y-15365782D02*
X9763101Y-15356258D01*
X9763101Y-15356258D02*
X9772625Y-15337210D01*
X9772625Y-15337210D02*
X9772625Y-15327687D01*
X9772625Y-15327687D02*
X9763101Y-15308639D01*
X9763101Y-15308639D02*
X9744053Y-15299115D01*
X9744053Y-15299115D02*
X9715482Y-15299115D01*
X9715482Y-15299115D02*
X9696434Y-15289591D01*
X9696434Y-15289591D02*
X9686911Y-15270544D01*
X9686911Y-15270544D02*
X9686911Y-15261020D01*
X9686911Y-15261020D02*
X9696434Y-15241972D01*
X9696434Y-15241972D02*
X9715482Y-15232449D01*
X9715482Y-15232449D02*
X9744053Y-15232449D01*
X9744053Y-15232449D02*
X9763101Y-15241972D01*
X9839292Y-15441972D02*
X9848815Y-15432449D01*
X9848815Y-15432449D02*
X9867863Y-15403877D01*
X9867863Y-15403877D02*
X9877387Y-15384830D01*
X9877387Y-15384830D02*
X9886911Y-15356258D01*
X9886911Y-15356258D02*
X9896434Y-15308639D01*
X9896434Y-15308639D02*
X9896434Y-15270544D01*
X9896434Y-15270544D02*
X9886911Y-15222925D01*
X9886911Y-15222925D02*
X9877387Y-15194353D01*
X9877387Y-15194353D02*
X9867863Y-15175306D01*
X9867863Y-15175306D02*
X9848815Y-15146734D01*
X9848815Y-15146734D02*
X9839292Y-15137210D01*
X4864229Y-15444298D02*
X5064229Y-15644298D01*
X5064229Y-15444298D02*
X4864229Y-15644298D01*
X4964229Y-15444298D02*
X4964229Y-15644298D01*
X4864229Y-15544298D02*
X5064229Y-15544298D01*
X5315482Y-15454830D02*
X5325005Y-15445306D01*
X5325005Y-15445306D02*
X5344053Y-15435782D01*
X5344053Y-15435782D02*
X5391672Y-15435782D01*
X5391672Y-15435782D02*
X5410720Y-15445306D01*
X5410720Y-15445306D02*
X5420243Y-15454830D01*
X5420243Y-15454830D02*
X5429767Y-15473877D01*
X5429767Y-15473877D02*
X5429767Y-15492925D01*
X5429767Y-15492925D02*
X5420243Y-15521496D01*
X5420243Y-15521496D02*
X5305958Y-15635782D01*
X5305958Y-15635782D02*
X5429767Y-15635782D01*
X5515482Y-15616734D02*
X5525005Y-15626258D01*
X5525005Y-15626258D02*
X5515482Y-15635782D01*
X5515482Y-15635782D02*
X5505958Y-15626258D01*
X5505958Y-15626258D02*
X5515482Y-15616734D01*
X5515482Y-15616734D02*
X5515482Y-15635782D01*
X5648815Y-15435782D02*
X5667862Y-15435782D01*
X5667862Y-15435782D02*
X5686910Y-15445306D01*
X5686910Y-15445306D02*
X5696434Y-15454830D01*
X5696434Y-15454830D02*
X5705958Y-15473877D01*
X5705958Y-15473877D02*
X5715481Y-15511972D01*
X5715481Y-15511972D02*
X5715481Y-15559591D01*
X5715481Y-15559591D02*
X5705958Y-15597687D01*
X5705958Y-15597687D02*
X5696434Y-15616734D01*
X5696434Y-15616734D02*
X5686910Y-15626258D01*
X5686910Y-15626258D02*
X5667862Y-15635782D01*
X5667862Y-15635782D02*
X5648815Y-15635782D01*
X5648815Y-15635782D02*
X5629767Y-15626258D01*
X5629767Y-15626258D02*
X5620243Y-15616734D01*
X5620243Y-15616734D02*
X5610720Y-15597687D01*
X5610720Y-15597687D02*
X5601196Y-15559591D01*
X5601196Y-15559591D02*
X5601196Y-15511972D01*
X5601196Y-15511972D02*
X5610720Y-15473877D01*
X5610720Y-15473877D02*
X5620243Y-15454830D01*
X5620243Y-15454830D02*
X5629767Y-15445306D01*
X5629767Y-15445306D02*
X5648815Y-15435782D01*
X5839291Y-15435782D02*
X5858339Y-15435782D01*
X5858339Y-15435782D02*
X5877386Y-15445306D01*
X5877386Y-15445306D02*
X5886910Y-15454830D01*
X5886910Y-15454830D02*
X5896434Y-15473877D01*
X5896434Y-15473877D02*
X5905958Y-15511972D01*
X5905958Y-15511972D02*
X5905958Y-15559591D01*
X5905958Y-15559591D02*
X5896434Y-15597687D01*
X5896434Y-15597687D02*
X5886910Y-15616734D01*
X5886910Y-15616734D02*
X5877386Y-15626258D01*
X5877386Y-15626258D02*
X5858339Y-15635782D01*
X5858339Y-15635782D02*
X5839291Y-15635782D01*
X5839291Y-15635782D02*
X5820243Y-15626258D01*
X5820243Y-15626258D02*
X5810720Y-15616734D01*
X5810720Y-15616734D02*
X5801196Y-15597687D01*
X5801196Y-15597687D02*
X5791672Y-15559591D01*
X5791672Y-15559591D02*
X5791672Y-15511972D01*
X5791672Y-15511972D02*
X5801196Y-15473877D01*
X5801196Y-15473877D02*
X5810720Y-15454830D01*
X5810720Y-15454830D02*
X5820243Y-15445306D01*
X5820243Y-15445306D02*
X5839291Y-15435782D01*
X6029767Y-15435782D02*
X6048815Y-15435782D01*
X6048815Y-15435782D02*
X6067862Y-15445306D01*
X6067862Y-15445306D02*
X6077386Y-15454830D01*
X6077386Y-15454830D02*
X6086910Y-15473877D01*
X6086910Y-15473877D02*
X6096434Y-15511972D01*
X6096434Y-15511972D02*
X6096434Y-15559591D01*
X6096434Y-15559591D02*
X6086910Y-15597687D01*
X6086910Y-15597687D02*
X6077386Y-15616734D01*
X6077386Y-15616734D02*
X6067862Y-15626258D01*
X6067862Y-15626258D02*
X6048815Y-15635782D01*
X6048815Y-15635782D02*
X6029767Y-15635782D01*
X6029767Y-15635782D02*
X6010720Y-15626258D01*
X6010720Y-15626258D02*
X6001196Y-15616734D01*
X6001196Y-15616734D02*
X5991672Y-15597687D01*
X5991672Y-15597687D02*
X5982148Y-15559591D01*
X5982148Y-15559591D02*
X5982148Y-15511972D01*
X5982148Y-15511972D02*
X5991672Y-15473877D01*
X5991672Y-15473877D02*
X6001196Y-15454830D01*
X6001196Y-15454830D02*
X6010720Y-15445306D01*
X6010720Y-15445306D02*
X6029767Y-15435782D01*
X6182148Y-15635782D02*
X6182148Y-15502449D01*
X6182148Y-15521496D02*
X6191672Y-15511972D01*
X6191672Y-15511972D02*
X6210720Y-15502449D01*
X6210720Y-15502449D02*
X6239291Y-15502449D01*
X6239291Y-15502449D02*
X6258339Y-15511972D01*
X6258339Y-15511972D02*
X6267862Y-15531020D01*
X6267862Y-15531020D02*
X6267862Y-15635782D01*
X6267862Y-15531020D02*
X6277386Y-15511972D01*
X6277386Y-15511972D02*
X6296434Y-15502449D01*
X6296434Y-15502449D02*
X6325005Y-15502449D01*
X6325005Y-15502449D02*
X6344053Y-15511972D01*
X6344053Y-15511972D02*
X6353577Y-15531020D01*
X6353577Y-15531020D02*
X6353577Y-15635782D01*
X6448815Y-15635782D02*
X6448815Y-15502449D01*
X6448815Y-15521496D02*
X6458339Y-15511972D01*
X6458339Y-15511972D02*
X6477386Y-15502449D01*
X6477386Y-15502449D02*
X6505958Y-15502449D01*
X6505958Y-15502449D02*
X6525005Y-15511972D01*
X6525005Y-15511972D02*
X6534529Y-15531020D01*
X6534529Y-15531020D02*
X6534529Y-15635782D01*
X6534529Y-15531020D02*
X6544053Y-15511972D01*
X6544053Y-15511972D02*
X6563101Y-15502449D01*
X6563101Y-15502449D02*
X6591672Y-15502449D01*
X6591672Y-15502449D02*
X6610720Y-15511972D01*
X6610720Y-15511972D02*
X6620243Y-15531020D01*
X6620243Y-15531020D02*
X6620243Y-15635782D01*
X7010720Y-15426258D02*
X6839291Y-15683401D01*
X7267863Y-15435782D02*
X7286910Y-15435782D01*
X7286910Y-15435782D02*
X7305958Y-15445306D01*
X7305958Y-15445306D02*
X7315482Y-15454830D01*
X7315482Y-15454830D02*
X7325005Y-15473877D01*
X7325005Y-15473877D02*
X7334529Y-15511972D01*
X7334529Y-15511972D02*
X7334529Y-15559591D01*
X7334529Y-15559591D02*
X7325005Y-15597687D01*
X7325005Y-15597687D02*
X7315482Y-15616734D01*
X7315482Y-15616734D02*
X7305958Y-15626258D01*
X7305958Y-15626258D02*
X7286910Y-15635782D01*
X7286910Y-15635782D02*
X7267863Y-15635782D01*
X7267863Y-15635782D02*
X7248815Y-15626258D01*
X7248815Y-15626258D02*
X7239291Y-15616734D01*
X7239291Y-15616734D02*
X7229767Y-15597687D01*
X7229767Y-15597687D02*
X7220244Y-15559591D01*
X7220244Y-15559591D02*
X7220244Y-15511972D01*
X7220244Y-15511972D02*
X7229767Y-15473877D01*
X7229767Y-15473877D02*
X7239291Y-15454830D01*
X7239291Y-15454830D02*
X7248815Y-15445306D01*
X7248815Y-15445306D02*
X7267863Y-15435782D01*
X7420244Y-15616734D02*
X7429767Y-15626258D01*
X7429767Y-15626258D02*
X7420244Y-15635782D01*
X7420244Y-15635782D02*
X7410720Y-15626258D01*
X7410720Y-15626258D02*
X7420244Y-15616734D01*
X7420244Y-15616734D02*
X7420244Y-15635782D01*
X7553577Y-15435782D02*
X7572625Y-15435782D01*
X7572625Y-15435782D02*
X7591672Y-15445306D01*
X7591672Y-15445306D02*
X7601196Y-15454830D01*
X7601196Y-15454830D02*
X7610720Y-15473877D01*
X7610720Y-15473877D02*
X7620244Y-15511972D01*
X7620244Y-15511972D02*
X7620244Y-15559591D01*
X7620244Y-15559591D02*
X7610720Y-15597687D01*
X7610720Y-15597687D02*
X7601196Y-15616734D01*
X7601196Y-15616734D02*
X7591672Y-15626258D01*
X7591672Y-15626258D02*
X7572625Y-15635782D01*
X7572625Y-15635782D02*
X7553577Y-15635782D01*
X7553577Y-15635782D02*
X7534529Y-15626258D01*
X7534529Y-15626258D02*
X7525005Y-15616734D01*
X7525005Y-15616734D02*
X7515482Y-15597687D01*
X7515482Y-15597687D02*
X7505958Y-15559591D01*
X7505958Y-15559591D02*
X7505958Y-15511972D01*
X7505958Y-15511972D02*
X7515482Y-15473877D01*
X7515482Y-15473877D02*
X7525005Y-15454830D01*
X7525005Y-15454830D02*
X7534529Y-15445306D01*
X7534529Y-15445306D02*
X7553577Y-15435782D01*
X7686910Y-15435782D02*
X7820244Y-15435782D01*
X7820244Y-15435782D02*
X7734529Y-15635782D01*
X7925005Y-15521496D02*
X7905958Y-15511972D01*
X7905958Y-15511972D02*
X7896434Y-15502449D01*
X7896434Y-15502449D02*
X7886910Y-15483401D01*
X7886910Y-15483401D02*
X7886910Y-15473877D01*
X7886910Y-15473877D02*
X7896434Y-15454830D01*
X7896434Y-15454830D02*
X7905958Y-15445306D01*
X7905958Y-15445306D02*
X7925005Y-15435782D01*
X7925005Y-15435782D02*
X7963101Y-15435782D01*
X7963101Y-15435782D02*
X7982148Y-15445306D01*
X7982148Y-15445306D02*
X7991672Y-15454830D01*
X7991672Y-15454830D02*
X8001196Y-15473877D01*
X8001196Y-15473877D02*
X8001196Y-15483401D01*
X8001196Y-15483401D02*
X7991672Y-15502449D01*
X7991672Y-15502449D02*
X7982148Y-15511972D01*
X7982148Y-15511972D02*
X7963101Y-15521496D01*
X7963101Y-15521496D02*
X7925005Y-15521496D01*
X7925005Y-15521496D02*
X7905958Y-15531020D01*
X7905958Y-15531020D02*
X7896434Y-15540544D01*
X7896434Y-15540544D02*
X7886910Y-15559591D01*
X7886910Y-15559591D02*
X7886910Y-15597687D01*
X7886910Y-15597687D02*
X7896434Y-15616734D01*
X7896434Y-15616734D02*
X7905958Y-15626258D01*
X7905958Y-15626258D02*
X7925005Y-15635782D01*
X7925005Y-15635782D02*
X7963101Y-15635782D01*
X7963101Y-15635782D02*
X7982148Y-15626258D01*
X7982148Y-15626258D02*
X7991672Y-15616734D01*
X7991672Y-15616734D02*
X8001196Y-15597687D01*
X8001196Y-15597687D02*
X8001196Y-15559591D01*
X8001196Y-15559591D02*
X7991672Y-15540544D01*
X7991672Y-15540544D02*
X7982148Y-15531020D01*
X7982148Y-15531020D02*
X7963101Y-15521496D01*
X8067863Y-15435782D02*
X8201196Y-15435782D01*
X8201196Y-15435782D02*
X8115482Y-15635782D01*
X8267863Y-15435782D02*
X8267863Y-15473877D01*
X8344053Y-15435782D02*
X8344053Y-15473877D01*
X8639291Y-15711972D02*
X8629768Y-15702449D01*
X8629768Y-15702449D02*
X8610720Y-15673877D01*
X8610720Y-15673877D02*
X8601196Y-15654830D01*
X8601196Y-15654830D02*
X8591672Y-15626258D01*
X8591672Y-15626258D02*
X8582149Y-15578639D01*
X8582149Y-15578639D02*
X8582149Y-15540544D01*
X8582149Y-15540544D02*
X8591672Y-15492925D01*
X8591672Y-15492925D02*
X8601196Y-15464353D01*
X8601196Y-15464353D02*
X8610720Y-15445306D01*
X8610720Y-15445306D02*
X8629768Y-15416734D01*
X8629768Y-15416734D02*
X8639291Y-15407210D01*
X8705958Y-15454830D02*
X8715482Y-15445306D01*
X8715482Y-15445306D02*
X8734529Y-15435782D01*
X8734529Y-15435782D02*
X8782149Y-15435782D01*
X8782149Y-15435782D02*
X8801196Y-15445306D01*
X8801196Y-15445306D02*
X8810720Y-15454830D01*
X8810720Y-15454830D02*
X8820244Y-15473877D01*
X8820244Y-15473877D02*
X8820244Y-15492925D01*
X8820244Y-15492925D02*
X8810720Y-15521496D01*
X8810720Y-15521496D02*
X8696434Y-15635782D01*
X8696434Y-15635782D02*
X8820244Y-15635782D01*
X9058339Y-15635782D02*
X9058339Y-15435782D01*
X9144053Y-15635782D02*
X9144053Y-15531020D01*
X9144053Y-15531020D02*
X9134530Y-15511972D01*
X9134530Y-15511972D02*
X9115482Y-15502449D01*
X9115482Y-15502449D02*
X9086910Y-15502449D01*
X9086910Y-15502449D02*
X9067863Y-15511972D01*
X9067863Y-15511972D02*
X9058339Y-15521496D01*
X9267863Y-15635782D02*
X9248815Y-15626258D01*
X9248815Y-15626258D02*
X9239291Y-15616734D01*
X9239291Y-15616734D02*
X9229768Y-15597687D01*
X9229768Y-15597687D02*
X9229768Y-15540544D01*
X9229768Y-15540544D02*
X9239291Y-15521496D01*
X9239291Y-15521496D02*
X9248815Y-15511972D01*
X9248815Y-15511972D02*
X9267863Y-15502449D01*
X9267863Y-15502449D02*
X9296434Y-15502449D01*
X9296434Y-15502449D02*
X9315482Y-15511972D01*
X9315482Y-15511972D02*
X9325006Y-15521496D01*
X9325006Y-15521496D02*
X9334530Y-15540544D01*
X9334530Y-15540544D02*
X9334530Y-15597687D01*
X9334530Y-15597687D02*
X9325006Y-15616734D01*
X9325006Y-15616734D02*
X9315482Y-15626258D01*
X9315482Y-15626258D02*
X9296434Y-15635782D01*
X9296434Y-15635782D02*
X9267863Y-15635782D01*
X9448815Y-15635782D02*
X9429768Y-15626258D01*
X9429768Y-15626258D02*
X9420244Y-15607210D01*
X9420244Y-15607210D02*
X9420244Y-15435782D01*
X9601196Y-15626258D02*
X9582149Y-15635782D01*
X9582149Y-15635782D02*
X9544053Y-15635782D01*
X9544053Y-15635782D02*
X9525006Y-15626258D01*
X9525006Y-15626258D02*
X9515482Y-15607210D01*
X9515482Y-15607210D02*
X9515482Y-15531020D01*
X9515482Y-15531020D02*
X9525006Y-15511972D01*
X9525006Y-15511972D02*
X9544053Y-15502449D01*
X9544053Y-15502449D02*
X9582149Y-15502449D01*
X9582149Y-15502449D02*
X9601196Y-15511972D01*
X9601196Y-15511972D02*
X9610720Y-15531020D01*
X9610720Y-15531020D02*
X9610720Y-15550068D01*
X9610720Y-15550068D02*
X9515482Y-15569115D01*
X9686911Y-15626258D02*
X9705958Y-15635782D01*
X9705958Y-15635782D02*
X9744053Y-15635782D01*
X9744053Y-15635782D02*
X9763101Y-15626258D01*
X9763101Y-15626258D02*
X9772625Y-15607210D01*
X9772625Y-15607210D02*
X9772625Y-15597687D01*
X9772625Y-15597687D02*
X9763101Y-15578639D01*
X9763101Y-15578639D02*
X9744053Y-15569115D01*
X9744053Y-15569115D02*
X9715482Y-15569115D01*
X9715482Y-15569115D02*
X9696434Y-15559591D01*
X9696434Y-15559591D02*
X9686911Y-15540544D01*
X9686911Y-15540544D02*
X9686911Y-15531020D01*
X9686911Y-15531020D02*
X9696434Y-15511972D01*
X9696434Y-15511972D02*
X9715482Y-15502449D01*
X9715482Y-15502449D02*
X9744053Y-15502449D01*
X9744053Y-15502449D02*
X9763101Y-15511972D01*
X9839292Y-15711972D02*
X9848815Y-15702449D01*
X9848815Y-15702449D02*
X9867863Y-15673877D01*
X9867863Y-15673877D02*
X9877387Y-15654830D01*
X9877387Y-15654830D02*
X9886911Y-15626258D01*
X9886911Y-15626258D02*
X9896434Y-15578639D01*
X9896434Y-15578639D02*
X9896434Y-15540544D01*
X9896434Y-15540544D02*
X9886911Y-15492925D01*
X9886911Y-15492925D02*
X9877387Y-15464353D01*
X9877387Y-15464353D02*
X9867863Y-15445306D01*
X9867863Y-15445306D02*
X9848815Y-15416734D01*
X9848815Y-15416734D02*
X9839292Y-15407210D01*
M02*
