G04 #@! TF.GenerationSoftware,KiCad,Pcbnew,8.0.8*
G04 #@! TF.CreationDate,2025-02-10T20:43:35+01:00*
G04 #@! TF.ProjectId,tesi,74657369-2e6b-4696-9361-645f70636258,rev?*
G04 #@! TF.SameCoordinates,Original*
G04 #@! TF.FileFunction,Soldermask,Bot*
G04 #@! TF.FilePolarity,Negative*
%FSLAX46Y46*%
G04 Gerber Fmt 4.6, Leading zero omitted, Abs format (unit mm)*
G04 Created by KiCad (PCBNEW 8.0.8) date 2025-02-10 20:43:35*
%MOMM*%
%LPD*%
G01*
G04 APERTURE LIST*
G04 Aperture macros list*
%AMRoundRect*
0 Rectangle with rounded corners*
0 $1 Rounding radius*
0 $2 $3 $4 $5 $6 $7 $8 $9 X,Y pos of 4 corners*
0 Add a 4 corners polygon primitive as box body*
4,1,4,$2,$3,$4,$5,$6,$7,$8,$9,$2,$3,0*
0 Add four circle primitives for the rounded corners*
1,1,$1+$1,$2,$3*
1,1,$1+$1,$4,$5*
1,1,$1+$1,$6,$7*
1,1,$1+$1,$8,$9*
0 Add four rect primitives between the rounded corners*
20,1,$1+$1,$2,$3,$4,$5,0*
20,1,$1+$1,$4,$5,$6,$7,0*
20,1,$1+$1,$6,$7,$8,$9,0*
20,1,$1+$1,$8,$9,$2,$3,0*%
G04 Aperture macros list end*
%ADD10C,1.600000*%
%ADD11O,1.600000X1.600000*%
%ADD12RoundRect,0.250000X-1.050000X-0.550000X1.050000X-0.550000X1.050000X0.550000X-1.050000X0.550000X0*%
%ADD13O,2.600000X1.600000*%
%ADD14C,3.200000*%
%ADD15O,2.200000X3.500000*%
%ADD16R,1.500000X2.500000*%
%ADD17O,1.500000X2.500000*%
%ADD18C,1.524000*%
%ADD19R,1.800000X1.800000*%
%ADD20C,1.800000*%
%ADD21C,2.000000*%
%ADD22O,4.000000X4.000000*%
G04 APERTURE END LIST*
D10*
X129043759Y-58829548D03*
D11*
X121423759Y-58829548D03*
D12*
X88382159Y-60130500D03*
D13*
X88382159Y-62670500D03*
X88382159Y-65210500D03*
X88382159Y-67750500D03*
X88382159Y-70290500D03*
X88382159Y-72830500D03*
X88382159Y-75370500D03*
X88382159Y-77910500D03*
X88382159Y-80450500D03*
X88382159Y-82990500D03*
X88382159Y-85530500D03*
X88382159Y-88070500D03*
X88382159Y-90610500D03*
X88382159Y-93150500D03*
X88382159Y-95690500D03*
X88382159Y-98230500D03*
X108102159Y-98230500D03*
X108102159Y-95690500D03*
X108102159Y-93150500D03*
X108102159Y-90610500D03*
X108102159Y-88070500D03*
X108102159Y-85530500D03*
X108102159Y-82990500D03*
X108102159Y-80450500D03*
X108102159Y-77910500D03*
X108102159Y-75370500D03*
X108102159Y-72830500D03*
X108102159Y-70290500D03*
D11*
X64223759Y-128830000D03*
X59143759Y-128830000D03*
X61683759Y-128830000D03*
X64223759Y-111050000D03*
X61683759Y-111050000D03*
X71843759Y-128830000D03*
X66763759Y-111050000D03*
X69303759Y-111050000D03*
X69303759Y-128830000D03*
X66763759Y-128830000D03*
D10*
X78723759Y-96015382D03*
D11*
X78723759Y-103635382D03*
X94017259Y-113554600D03*
X99097259Y-113554600D03*
X96557259Y-113554600D03*
X91477259Y-113554600D03*
X104177259Y-113554600D03*
X101637259Y-113554600D03*
X83884259Y-128818600D03*
X86424259Y-128818600D03*
X88964259Y-128818600D03*
X91504259Y-128818600D03*
X94044259Y-128818600D03*
X96584259Y-128818600D03*
X99124259Y-128818600D03*
X101664259Y-128818600D03*
X104204259Y-128818600D03*
X106744259Y-128818600D03*
X109284259Y-128818600D03*
X111824259Y-128818600D03*
X114364259Y-128818600D03*
X106717259Y-113554600D03*
D10*
X75045959Y-85495382D03*
X77585959Y-85495382D03*
D11*
X125719059Y-127560000D03*
X128259059Y-127560000D03*
X130799059Y-127560000D03*
X133339059Y-127560000D03*
X135879059Y-127560000D03*
X138419059Y-127560000D03*
D10*
X73823759Y-96085382D03*
D11*
X73823759Y-103705382D03*
D14*
X113803440Y-85411602D03*
D10*
X129103759Y-62829548D03*
D11*
X121483759Y-62829548D03*
D15*
X80423759Y-60000000D03*
X72223759Y-60000000D03*
D16*
X78323759Y-60000000D03*
D17*
X76323759Y-60000000D03*
X74323759Y-60000000D03*
D18*
X61458759Y-103250000D03*
X58918759Y-103250000D03*
X56378759Y-103250000D03*
D19*
X135292478Y-62159000D03*
D20*
X135292478Y-60000000D03*
X135292478Y-57841000D03*
X135292478Y-55682000D03*
D21*
X79623759Y-75172691D03*
X73123759Y-75172691D03*
X79623759Y-70672691D03*
X73123759Y-70672691D03*
D14*
X144402159Y-55575000D03*
X52402159Y-55575000D03*
X144322301Y-85440694D03*
X144402159Y-147575000D03*
X52402159Y-147575000D03*
D10*
X80125959Y-91405382D03*
D11*
X72505959Y-91405382D03*
D10*
X129043759Y-54829548D03*
D11*
X121423759Y-54829548D03*
D22*
X54223759Y-70277758D03*
X63723759Y-70277758D03*
D19*
X56473759Y-77777758D03*
D20*
X58973759Y-77777758D03*
X61473759Y-77777758D03*
M02*
