%TF.GenerationSoftware,KiCad,Pcbnew,8.0.8*%
%TF.CreationDate,2025-02-10T20:43:30+01:00*%
%TF.ProjectId,tesi,74657369-2e6b-4696-9361-645f70636258,rev?*%
%TF.SameCoordinates,Original*%
%TF.FileFunction,Drillmap*%
%TF.FilePolarity,Positive*%
%FSLAX45Y45*%
G04 Gerber Fmt 4.5, Leading zero omitted, Abs format (unit mm)*
G04 Created by KiCad (PCBNEW 8.0.8) date 2025-02-10 20:43:30*
%MOMM*%
%LPD*%
G01*
G04 APERTURE LIST*
%ADD10C,0.038100*%
%ADD11C,0.200000*%
%ADD12C,0.320000*%
G04 APERTURE END LIST*
D10*
X4842376Y-14750000D02*
X4842376Y-5550000D01*
X5242376Y-5150000D02*
X14442376Y-5150000D01*
X14442376Y-5150000D02*
G75*
G02*
X14842370Y-5550000I4J-399990D01*
G01*
X14442376Y-15150000D02*
X5242376Y-15150000D01*
X4842376Y-5550000D02*
G75*
G02*
X5242376Y-5149996I400004J0D01*
G01*
X14842376Y-5550000D02*
X14842376Y-14750000D01*
X14842376Y-14750000D02*
G75*
G02*
X14442376Y-15149996I-399996J0D01*
G01*
X5242376Y-15150000D02*
G75*
G02*
X4842370Y-14750000I4J400010D01*
G01*
D11*
D12*
X5080216Y-5397500D02*
X5400216Y-5717500D01*
X5400216Y-5397500D02*
X5080216Y-5717500D01*
X5080216Y-14597500D02*
X5400216Y-14917500D01*
X5400216Y-14597500D02*
X5080216Y-14917500D01*
X11220344Y-8381160D02*
X11540344Y-8701160D01*
X11540344Y-8381160D02*
X11220344Y-8701160D01*
X14272230Y-8384069D02*
X14592230Y-8704069D01*
X14592230Y-8384069D02*
X14272230Y-8704069D01*
X14280216Y-5397500D02*
X14600216Y-5717500D01*
X14600216Y-5397500D02*
X14280216Y-5717500D01*
X14280216Y-14597500D02*
X14600216Y-14917500D01*
X14600216Y-14597500D02*
X14280216Y-14917500D01*
D11*
X5101248Y-15463389D02*
X5101248Y-15263389D01*
X5101248Y-15263389D02*
X5148867Y-15263389D01*
X5148867Y-15263389D02*
X5177438Y-15272913D01*
X5177438Y-15272913D02*
X5196486Y-15291960D01*
X5196486Y-15291960D02*
X5206010Y-15311008D01*
X5206010Y-15311008D02*
X5215533Y-15349103D01*
X5215533Y-15349103D02*
X5215533Y-15377674D01*
X5215533Y-15377674D02*
X5206010Y-15415770D01*
X5206010Y-15415770D02*
X5196486Y-15434817D01*
X5196486Y-15434817D02*
X5177438Y-15453865D01*
X5177438Y-15453865D02*
X5148867Y-15463389D01*
X5148867Y-15463389D02*
X5101248Y-15463389D01*
X5301248Y-15463389D02*
X5301248Y-15330055D01*
X5301248Y-15368151D02*
X5310772Y-15349103D01*
X5310772Y-15349103D02*
X5320295Y-15339579D01*
X5320295Y-15339579D02*
X5339343Y-15330055D01*
X5339343Y-15330055D02*
X5358391Y-15330055D01*
X5425057Y-15463389D02*
X5425057Y-15330055D01*
X5425057Y-15263389D02*
X5415533Y-15272913D01*
X5415533Y-15272913D02*
X5425057Y-15282436D01*
X5425057Y-15282436D02*
X5434581Y-15272913D01*
X5434581Y-15272913D02*
X5425057Y-15263389D01*
X5425057Y-15263389D02*
X5425057Y-15282436D01*
X5548867Y-15463389D02*
X5529819Y-15453865D01*
X5529819Y-15453865D02*
X5520295Y-15434817D01*
X5520295Y-15434817D02*
X5520295Y-15263389D01*
X5653629Y-15463389D02*
X5634581Y-15453865D01*
X5634581Y-15453865D02*
X5625057Y-15434817D01*
X5625057Y-15434817D02*
X5625057Y-15263389D01*
X5882200Y-15463389D02*
X5882200Y-15263389D01*
X5882200Y-15263389D02*
X5948867Y-15406246D01*
X5948867Y-15406246D02*
X6015533Y-15263389D01*
X6015533Y-15263389D02*
X6015533Y-15463389D01*
X6196486Y-15463389D02*
X6196486Y-15358627D01*
X6196486Y-15358627D02*
X6186962Y-15339579D01*
X6186962Y-15339579D02*
X6167914Y-15330055D01*
X6167914Y-15330055D02*
X6129819Y-15330055D01*
X6129819Y-15330055D02*
X6110771Y-15339579D01*
X6196486Y-15453865D02*
X6177438Y-15463389D01*
X6177438Y-15463389D02*
X6129819Y-15463389D01*
X6129819Y-15463389D02*
X6110771Y-15453865D01*
X6110771Y-15453865D02*
X6101248Y-15434817D01*
X6101248Y-15434817D02*
X6101248Y-15415770D01*
X6101248Y-15415770D02*
X6110771Y-15396722D01*
X6110771Y-15396722D02*
X6129819Y-15387198D01*
X6129819Y-15387198D02*
X6177438Y-15387198D01*
X6177438Y-15387198D02*
X6196486Y-15377674D01*
X6291724Y-15330055D02*
X6291724Y-15530055D01*
X6291724Y-15339579D02*
X6310771Y-15330055D01*
X6310771Y-15330055D02*
X6348867Y-15330055D01*
X6348867Y-15330055D02*
X6367914Y-15339579D01*
X6367914Y-15339579D02*
X6377438Y-15349103D01*
X6377438Y-15349103D02*
X6386962Y-15368151D01*
X6386962Y-15368151D02*
X6386962Y-15425293D01*
X6386962Y-15425293D02*
X6377438Y-15444341D01*
X6377438Y-15444341D02*
X6367914Y-15453865D01*
X6367914Y-15453865D02*
X6348867Y-15463389D01*
X6348867Y-15463389D02*
X6310771Y-15463389D01*
X6310771Y-15463389D02*
X6291724Y-15453865D01*
X6472676Y-15444341D02*
X6482200Y-15453865D01*
X6482200Y-15453865D02*
X6472676Y-15463389D01*
X6472676Y-15463389D02*
X6463152Y-15453865D01*
X6463152Y-15453865D02*
X6472676Y-15444341D01*
X6472676Y-15444341D02*
X6472676Y-15463389D01*
X6472676Y-15339579D02*
X6482200Y-15349103D01*
X6482200Y-15349103D02*
X6472676Y-15358627D01*
X6472676Y-15358627D02*
X6463152Y-15349103D01*
X6463152Y-15349103D02*
X6472676Y-15339579D01*
X6472676Y-15339579D02*
X6472676Y-15358627D01*
X4640471Y-15691905D02*
X4840471Y-15891905D01*
X4840471Y-15691905D02*
X4640471Y-15891905D01*
X5082200Y-15683389D02*
X5206010Y-15683389D01*
X5206010Y-15683389D02*
X5139343Y-15759579D01*
X5139343Y-15759579D02*
X5167914Y-15759579D01*
X5167914Y-15759579D02*
X5186962Y-15769103D01*
X5186962Y-15769103D02*
X5196486Y-15778627D01*
X5196486Y-15778627D02*
X5206010Y-15797674D01*
X5206010Y-15797674D02*
X5206010Y-15845293D01*
X5206010Y-15845293D02*
X5196486Y-15864341D01*
X5196486Y-15864341D02*
X5186962Y-15873865D01*
X5186962Y-15873865D02*
X5167914Y-15883389D01*
X5167914Y-15883389D02*
X5110772Y-15883389D01*
X5110772Y-15883389D02*
X5091724Y-15873865D01*
X5091724Y-15873865D02*
X5082200Y-15864341D01*
X5291724Y-15864341D02*
X5301248Y-15873865D01*
X5301248Y-15873865D02*
X5291724Y-15883389D01*
X5291724Y-15883389D02*
X5282200Y-15873865D01*
X5282200Y-15873865D02*
X5291724Y-15864341D01*
X5291724Y-15864341D02*
X5291724Y-15883389D01*
X5377438Y-15702436D02*
X5386962Y-15692913D01*
X5386962Y-15692913D02*
X5406010Y-15683389D01*
X5406010Y-15683389D02*
X5453629Y-15683389D01*
X5453629Y-15683389D02*
X5472676Y-15692913D01*
X5472676Y-15692913D02*
X5482200Y-15702436D01*
X5482200Y-15702436D02*
X5491724Y-15721484D01*
X5491724Y-15721484D02*
X5491724Y-15740532D01*
X5491724Y-15740532D02*
X5482200Y-15769103D01*
X5482200Y-15769103D02*
X5367914Y-15883389D01*
X5367914Y-15883389D02*
X5491724Y-15883389D01*
X5615533Y-15683389D02*
X5634581Y-15683389D01*
X5634581Y-15683389D02*
X5653629Y-15692913D01*
X5653629Y-15692913D02*
X5663152Y-15702436D01*
X5663152Y-15702436D02*
X5672676Y-15721484D01*
X5672676Y-15721484D02*
X5682200Y-15759579D01*
X5682200Y-15759579D02*
X5682200Y-15807198D01*
X5682200Y-15807198D02*
X5672676Y-15845293D01*
X5672676Y-15845293D02*
X5663152Y-15864341D01*
X5663152Y-15864341D02*
X5653629Y-15873865D01*
X5653629Y-15873865D02*
X5634581Y-15883389D01*
X5634581Y-15883389D02*
X5615533Y-15883389D01*
X5615533Y-15883389D02*
X5596486Y-15873865D01*
X5596486Y-15873865D02*
X5586962Y-15864341D01*
X5586962Y-15864341D02*
X5577438Y-15845293D01*
X5577438Y-15845293D02*
X5567914Y-15807198D01*
X5567914Y-15807198D02*
X5567914Y-15759579D01*
X5567914Y-15759579D02*
X5577438Y-15721484D01*
X5577438Y-15721484D02*
X5586962Y-15702436D01*
X5586962Y-15702436D02*
X5596486Y-15692913D01*
X5596486Y-15692913D02*
X5615533Y-15683389D01*
X5806010Y-15683389D02*
X5825057Y-15683389D01*
X5825057Y-15683389D02*
X5844105Y-15692913D01*
X5844105Y-15692913D02*
X5853629Y-15702436D01*
X5853629Y-15702436D02*
X5863152Y-15721484D01*
X5863152Y-15721484D02*
X5872676Y-15759579D01*
X5872676Y-15759579D02*
X5872676Y-15807198D01*
X5872676Y-15807198D02*
X5863152Y-15845293D01*
X5863152Y-15845293D02*
X5853629Y-15864341D01*
X5853629Y-15864341D02*
X5844105Y-15873865D01*
X5844105Y-15873865D02*
X5825057Y-15883389D01*
X5825057Y-15883389D02*
X5806010Y-15883389D01*
X5806010Y-15883389D02*
X5786962Y-15873865D01*
X5786962Y-15873865D02*
X5777438Y-15864341D01*
X5777438Y-15864341D02*
X5767914Y-15845293D01*
X5767914Y-15845293D02*
X5758391Y-15807198D01*
X5758391Y-15807198D02*
X5758391Y-15759579D01*
X5758391Y-15759579D02*
X5767914Y-15721484D01*
X5767914Y-15721484D02*
X5777438Y-15702436D01*
X5777438Y-15702436D02*
X5786962Y-15692913D01*
X5786962Y-15692913D02*
X5806010Y-15683389D01*
X5958391Y-15883389D02*
X5958391Y-15750055D01*
X5958391Y-15769103D02*
X5967914Y-15759579D01*
X5967914Y-15759579D02*
X5986962Y-15750055D01*
X5986962Y-15750055D02*
X6015533Y-15750055D01*
X6015533Y-15750055D02*
X6034581Y-15759579D01*
X6034581Y-15759579D02*
X6044105Y-15778627D01*
X6044105Y-15778627D02*
X6044105Y-15883389D01*
X6044105Y-15778627D02*
X6053629Y-15759579D01*
X6053629Y-15759579D02*
X6072676Y-15750055D01*
X6072676Y-15750055D02*
X6101248Y-15750055D01*
X6101248Y-15750055D02*
X6120295Y-15759579D01*
X6120295Y-15759579D02*
X6129819Y-15778627D01*
X6129819Y-15778627D02*
X6129819Y-15883389D01*
X6225057Y-15883389D02*
X6225057Y-15750055D01*
X6225057Y-15769103D02*
X6234581Y-15759579D01*
X6234581Y-15759579D02*
X6253629Y-15750055D01*
X6253629Y-15750055D02*
X6282200Y-15750055D01*
X6282200Y-15750055D02*
X6301248Y-15759579D01*
X6301248Y-15759579D02*
X6310772Y-15778627D01*
X6310772Y-15778627D02*
X6310772Y-15883389D01*
X6310772Y-15778627D02*
X6320295Y-15759579D01*
X6320295Y-15759579D02*
X6339343Y-15750055D01*
X6339343Y-15750055D02*
X6367914Y-15750055D01*
X6367914Y-15750055D02*
X6386962Y-15759579D01*
X6386962Y-15759579D02*
X6396486Y-15778627D01*
X6396486Y-15778627D02*
X6396486Y-15883389D01*
X6786962Y-15673865D02*
X6615534Y-15931008D01*
X7044105Y-15683389D02*
X7063153Y-15683389D01*
X7063153Y-15683389D02*
X7082200Y-15692913D01*
X7082200Y-15692913D02*
X7091724Y-15702436D01*
X7091724Y-15702436D02*
X7101248Y-15721484D01*
X7101248Y-15721484D02*
X7110772Y-15759579D01*
X7110772Y-15759579D02*
X7110772Y-15807198D01*
X7110772Y-15807198D02*
X7101248Y-15845293D01*
X7101248Y-15845293D02*
X7091724Y-15864341D01*
X7091724Y-15864341D02*
X7082200Y-15873865D01*
X7082200Y-15873865D02*
X7063153Y-15883389D01*
X7063153Y-15883389D02*
X7044105Y-15883389D01*
X7044105Y-15883389D02*
X7025057Y-15873865D01*
X7025057Y-15873865D02*
X7015534Y-15864341D01*
X7015534Y-15864341D02*
X7006010Y-15845293D01*
X7006010Y-15845293D02*
X6996486Y-15807198D01*
X6996486Y-15807198D02*
X6996486Y-15759579D01*
X6996486Y-15759579D02*
X7006010Y-15721484D01*
X7006010Y-15721484D02*
X7015534Y-15702436D01*
X7015534Y-15702436D02*
X7025057Y-15692913D01*
X7025057Y-15692913D02*
X7044105Y-15683389D01*
X7196486Y-15864341D02*
X7206010Y-15873865D01*
X7206010Y-15873865D02*
X7196486Y-15883389D01*
X7196486Y-15883389D02*
X7186962Y-15873865D01*
X7186962Y-15873865D02*
X7196486Y-15864341D01*
X7196486Y-15864341D02*
X7196486Y-15883389D01*
X7396486Y-15883389D02*
X7282200Y-15883389D01*
X7339343Y-15883389D02*
X7339343Y-15683389D01*
X7339343Y-15683389D02*
X7320295Y-15711960D01*
X7320295Y-15711960D02*
X7301248Y-15731008D01*
X7301248Y-15731008D02*
X7282200Y-15740532D01*
X7472676Y-15702436D02*
X7482200Y-15692913D01*
X7482200Y-15692913D02*
X7501248Y-15683389D01*
X7501248Y-15683389D02*
X7548867Y-15683389D01*
X7548867Y-15683389D02*
X7567915Y-15692913D01*
X7567915Y-15692913D02*
X7577438Y-15702436D01*
X7577438Y-15702436D02*
X7586962Y-15721484D01*
X7586962Y-15721484D02*
X7586962Y-15740532D01*
X7586962Y-15740532D02*
X7577438Y-15769103D01*
X7577438Y-15769103D02*
X7463153Y-15883389D01*
X7463153Y-15883389D02*
X7586962Y-15883389D01*
X7758391Y-15683389D02*
X7720295Y-15683389D01*
X7720295Y-15683389D02*
X7701248Y-15692913D01*
X7701248Y-15692913D02*
X7691724Y-15702436D01*
X7691724Y-15702436D02*
X7672676Y-15731008D01*
X7672676Y-15731008D02*
X7663153Y-15769103D01*
X7663153Y-15769103D02*
X7663153Y-15845293D01*
X7663153Y-15845293D02*
X7672676Y-15864341D01*
X7672676Y-15864341D02*
X7682200Y-15873865D01*
X7682200Y-15873865D02*
X7701248Y-15883389D01*
X7701248Y-15883389D02*
X7739343Y-15883389D01*
X7739343Y-15883389D02*
X7758391Y-15873865D01*
X7758391Y-15873865D02*
X7767915Y-15864341D01*
X7767915Y-15864341D02*
X7777438Y-15845293D01*
X7777438Y-15845293D02*
X7777438Y-15797674D01*
X7777438Y-15797674D02*
X7767915Y-15778627D01*
X7767915Y-15778627D02*
X7758391Y-15769103D01*
X7758391Y-15769103D02*
X7739343Y-15759579D01*
X7739343Y-15759579D02*
X7701248Y-15759579D01*
X7701248Y-15759579D02*
X7682200Y-15769103D01*
X7682200Y-15769103D02*
X7672676Y-15778627D01*
X7672676Y-15778627D02*
X7663153Y-15797674D01*
X7901248Y-15683389D02*
X7920296Y-15683389D01*
X7920296Y-15683389D02*
X7939343Y-15692913D01*
X7939343Y-15692913D02*
X7948867Y-15702436D01*
X7948867Y-15702436D02*
X7958391Y-15721484D01*
X7958391Y-15721484D02*
X7967915Y-15759579D01*
X7967915Y-15759579D02*
X7967915Y-15807198D01*
X7967915Y-15807198D02*
X7958391Y-15845293D01*
X7958391Y-15845293D02*
X7948867Y-15864341D01*
X7948867Y-15864341D02*
X7939343Y-15873865D01*
X7939343Y-15873865D02*
X7920296Y-15883389D01*
X7920296Y-15883389D02*
X7901248Y-15883389D01*
X7901248Y-15883389D02*
X7882200Y-15873865D01*
X7882200Y-15873865D02*
X7872676Y-15864341D01*
X7872676Y-15864341D02*
X7863153Y-15845293D01*
X7863153Y-15845293D02*
X7853629Y-15807198D01*
X7853629Y-15807198D02*
X7853629Y-15759579D01*
X7853629Y-15759579D02*
X7863153Y-15721484D01*
X7863153Y-15721484D02*
X7872676Y-15702436D01*
X7872676Y-15702436D02*
X7882200Y-15692913D01*
X7882200Y-15692913D02*
X7901248Y-15683389D01*
X8044105Y-15683389D02*
X8044105Y-15721484D01*
X8120296Y-15683389D02*
X8120296Y-15721484D01*
X8415534Y-15959579D02*
X8406010Y-15950055D01*
X8406010Y-15950055D02*
X8386962Y-15921484D01*
X8386962Y-15921484D02*
X8377438Y-15902436D01*
X8377438Y-15902436D02*
X8367915Y-15873865D01*
X8367915Y-15873865D02*
X8358391Y-15826246D01*
X8358391Y-15826246D02*
X8358391Y-15788151D01*
X8358391Y-15788151D02*
X8367915Y-15740532D01*
X8367915Y-15740532D02*
X8377438Y-15711960D01*
X8377438Y-15711960D02*
X8386962Y-15692913D01*
X8386962Y-15692913D02*
X8406010Y-15664341D01*
X8406010Y-15664341D02*
X8415534Y-15654817D01*
X8577439Y-15683389D02*
X8539343Y-15683389D01*
X8539343Y-15683389D02*
X8520296Y-15692913D01*
X8520296Y-15692913D02*
X8510772Y-15702436D01*
X8510772Y-15702436D02*
X8491724Y-15731008D01*
X8491724Y-15731008D02*
X8482200Y-15769103D01*
X8482200Y-15769103D02*
X8482200Y-15845293D01*
X8482200Y-15845293D02*
X8491724Y-15864341D01*
X8491724Y-15864341D02*
X8501248Y-15873865D01*
X8501248Y-15873865D02*
X8520296Y-15883389D01*
X8520296Y-15883389D02*
X8558391Y-15883389D01*
X8558391Y-15883389D02*
X8577439Y-15873865D01*
X8577439Y-15873865D02*
X8586962Y-15864341D01*
X8586962Y-15864341D02*
X8596486Y-15845293D01*
X8596486Y-15845293D02*
X8596486Y-15797674D01*
X8596486Y-15797674D02*
X8586962Y-15778627D01*
X8586962Y-15778627D02*
X8577439Y-15769103D01*
X8577439Y-15769103D02*
X8558391Y-15759579D01*
X8558391Y-15759579D02*
X8520296Y-15759579D01*
X8520296Y-15759579D02*
X8501248Y-15769103D01*
X8501248Y-15769103D02*
X8491724Y-15778627D01*
X8491724Y-15778627D02*
X8482200Y-15797674D01*
X8834581Y-15883389D02*
X8834581Y-15683389D01*
X8920296Y-15883389D02*
X8920296Y-15778627D01*
X8920296Y-15778627D02*
X8910772Y-15759579D01*
X8910772Y-15759579D02*
X8891724Y-15750055D01*
X8891724Y-15750055D02*
X8863153Y-15750055D01*
X8863153Y-15750055D02*
X8844105Y-15759579D01*
X8844105Y-15759579D02*
X8834581Y-15769103D01*
X9044105Y-15883389D02*
X9025058Y-15873865D01*
X9025058Y-15873865D02*
X9015534Y-15864341D01*
X9015534Y-15864341D02*
X9006010Y-15845293D01*
X9006010Y-15845293D02*
X9006010Y-15788151D01*
X9006010Y-15788151D02*
X9015534Y-15769103D01*
X9015534Y-15769103D02*
X9025058Y-15759579D01*
X9025058Y-15759579D02*
X9044105Y-15750055D01*
X9044105Y-15750055D02*
X9072677Y-15750055D01*
X9072677Y-15750055D02*
X9091724Y-15759579D01*
X9091724Y-15759579D02*
X9101248Y-15769103D01*
X9101248Y-15769103D02*
X9110772Y-15788151D01*
X9110772Y-15788151D02*
X9110772Y-15845293D01*
X9110772Y-15845293D02*
X9101248Y-15864341D01*
X9101248Y-15864341D02*
X9091724Y-15873865D01*
X9091724Y-15873865D02*
X9072677Y-15883389D01*
X9072677Y-15883389D02*
X9044105Y-15883389D01*
X9225058Y-15883389D02*
X9206010Y-15873865D01*
X9206010Y-15873865D02*
X9196486Y-15854817D01*
X9196486Y-15854817D02*
X9196486Y-15683389D01*
X9377439Y-15873865D02*
X9358391Y-15883389D01*
X9358391Y-15883389D02*
X9320296Y-15883389D01*
X9320296Y-15883389D02*
X9301248Y-15873865D01*
X9301248Y-15873865D02*
X9291724Y-15854817D01*
X9291724Y-15854817D02*
X9291724Y-15778627D01*
X9291724Y-15778627D02*
X9301248Y-15759579D01*
X9301248Y-15759579D02*
X9320296Y-15750055D01*
X9320296Y-15750055D02*
X9358391Y-15750055D01*
X9358391Y-15750055D02*
X9377439Y-15759579D01*
X9377439Y-15759579D02*
X9386962Y-15778627D01*
X9386962Y-15778627D02*
X9386962Y-15797674D01*
X9386962Y-15797674D02*
X9291724Y-15816722D01*
X9463153Y-15873865D02*
X9482201Y-15883389D01*
X9482201Y-15883389D02*
X9520296Y-15883389D01*
X9520296Y-15883389D02*
X9539343Y-15873865D01*
X9539343Y-15873865D02*
X9548867Y-15854817D01*
X9548867Y-15854817D02*
X9548867Y-15845293D01*
X9548867Y-15845293D02*
X9539343Y-15826246D01*
X9539343Y-15826246D02*
X9520296Y-15816722D01*
X9520296Y-15816722D02*
X9491724Y-15816722D01*
X9491724Y-15816722D02*
X9472677Y-15807198D01*
X9472677Y-15807198D02*
X9463153Y-15788151D01*
X9463153Y-15788151D02*
X9463153Y-15778627D01*
X9463153Y-15778627D02*
X9472677Y-15759579D01*
X9472677Y-15759579D02*
X9491724Y-15750055D01*
X9491724Y-15750055D02*
X9520296Y-15750055D01*
X9520296Y-15750055D02*
X9539343Y-15759579D01*
X9615534Y-15959579D02*
X9625058Y-15950055D01*
X9625058Y-15950055D02*
X9644105Y-15921484D01*
X9644105Y-15921484D02*
X9653629Y-15902436D01*
X9653629Y-15902436D02*
X9663153Y-15873865D01*
X9663153Y-15873865D02*
X9672677Y-15826246D01*
X9672677Y-15826246D02*
X9672677Y-15788151D01*
X9672677Y-15788151D02*
X9663153Y-15740532D01*
X9663153Y-15740532D02*
X9653629Y-15711960D01*
X9653629Y-15711960D02*
X9644105Y-15692913D01*
X9644105Y-15692913D02*
X9625058Y-15664341D01*
X9625058Y-15664341D02*
X9615534Y-15654817D01*
X9977439Y-15959579D02*
X9967915Y-15950055D01*
X9967915Y-15950055D02*
X9948867Y-15921484D01*
X9948867Y-15921484D02*
X9939343Y-15902436D01*
X9939343Y-15902436D02*
X9929820Y-15873865D01*
X9929820Y-15873865D02*
X9920296Y-15826246D01*
X9920296Y-15826246D02*
X9920296Y-15788151D01*
X9920296Y-15788151D02*
X9929820Y-15740532D01*
X9929820Y-15740532D02*
X9939343Y-15711960D01*
X9939343Y-15711960D02*
X9948867Y-15692913D01*
X9948867Y-15692913D02*
X9967915Y-15664341D01*
X9967915Y-15664341D02*
X9977439Y-15654817D01*
X10053629Y-15750055D02*
X10053629Y-15883389D01*
X10053629Y-15769103D02*
X10063153Y-15759579D01*
X10063153Y-15759579D02*
X10082201Y-15750055D01*
X10082201Y-15750055D02*
X10110772Y-15750055D01*
X10110772Y-15750055D02*
X10129820Y-15759579D01*
X10129820Y-15759579D02*
X10139343Y-15778627D01*
X10139343Y-15778627D02*
X10139343Y-15883389D01*
X10263153Y-15883389D02*
X10244105Y-15873865D01*
X10244105Y-15873865D02*
X10234582Y-15864341D01*
X10234582Y-15864341D02*
X10225058Y-15845293D01*
X10225058Y-15845293D02*
X10225058Y-15788151D01*
X10225058Y-15788151D02*
X10234582Y-15769103D01*
X10234582Y-15769103D02*
X10244105Y-15759579D01*
X10244105Y-15759579D02*
X10263153Y-15750055D01*
X10263153Y-15750055D02*
X10291724Y-15750055D01*
X10291724Y-15750055D02*
X10310772Y-15759579D01*
X10310772Y-15759579D02*
X10320296Y-15769103D01*
X10320296Y-15769103D02*
X10329820Y-15788151D01*
X10329820Y-15788151D02*
X10329820Y-15845293D01*
X10329820Y-15845293D02*
X10320296Y-15864341D01*
X10320296Y-15864341D02*
X10310772Y-15873865D01*
X10310772Y-15873865D02*
X10291724Y-15883389D01*
X10291724Y-15883389D02*
X10263153Y-15883389D01*
X10386963Y-15750055D02*
X10463153Y-15750055D01*
X10415534Y-15683389D02*
X10415534Y-15854817D01*
X10415534Y-15854817D02*
X10425058Y-15873865D01*
X10425058Y-15873865D02*
X10444105Y-15883389D01*
X10444105Y-15883389D02*
X10463153Y-15883389D01*
X10682201Y-15750055D02*
X10682201Y-15950055D01*
X10682201Y-15759579D02*
X10701248Y-15750055D01*
X10701248Y-15750055D02*
X10739344Y-15750055D01*
X10739344Y-15750055D02*
X10758391Y-15759579D01*
X10758391Y-15759579D02*
X10767915Y-15769103D01*
X10767915Y-15769103D02*
X10777439Y-15788151D01*
X10777439Y-15788151D02*
X10777439Y-15845293D01*
X10777439Y-15845293D02*
X10767915Y-15864341D01*
X10767915Y-15864341D02*
X10758391Y-15873865D01*
X10758391Y-15873865D02*
X10739344Y-15883389D01*
X10739344Y-15883389D02*
X10701248Y-15883389D01*
X10701248Y-15883389D02*
X10682201Y-15873865D01*
X10891724Y-15883389D02*
X10872677Y-15873865D01*
X10872677Y-15873865D02*
X10863153Y-15854817D01*
X10863153Y-15854817D02*
X10863153Y-15683389D01*
X11053629Y-15883389D02*
X11053629Y-15778627D01*
X11053629Y-15778627D02*
X11044105Y-15759579D01*
X11044105Y-15759579D02*
X11025058Y-15750055D01*
X11025058Y-15750055D02*
X10986963Y-15750055D01*
X10986963Y-15750055D02*
X10967915Y-15759579D01*
X11053629Y-15873865D02*
X11034582Y-15883389D01*
X11034582Y-15883389D02*
X10986963Y-15883389D01*
X10986963Y-15883389D02*
X10967915Y-15873865D01*
X10967915Y-15873865D02*
X10958391Y-15854817D01*
X10958391Y-15854817D02*
X10958391Y-15835770D01*
X10958391Y-15835770D02*
X10967915Y-15816722D01*
X10967915Y-15816722D02*
X10986963Y-15807198D01*
X10986963Y-15807198D02*
X11034582Y-15807198D01*
X11034582Y-15807198D02*
X11053629Y-15797674D01*
X11120296Y-15750055D02*
X11196486Y-15750055D01*
X11148867Y-15683389D02*
X11148867Y-15854817D01*
X11148867Y-15854817D02*
X11158391Y-15873865D01*
X11158391Y-15873865D02*
X11177439Y-15883389D01*
X11177439Y-15883389D02*
X11196486Y-15883389D01*
X11339343Y-15873865D02*
X11320296Y-15883389D01*
X11320296Y-15883389D02*
X11282201Y-15883389D01*
X11282201Y-15883389D02*
X11263153Y-15873865D01*
X11263153Y-15873865D02*
X11253629Y-15854817D01*
X11253629Y-15854817D02*
X11253629Y-15778627D01*
X11253629Y-15778627D02*
X11263153Y-15759579D01*
X11263153Y-15759579D02*
X11282201Y-15750055D01*
X11282201Y-15750055D02*
X11320296Y-15750055D01*
X11320296Y-15750055D02*
X11339343Y-15759579D01*
X11339343Y-15759579D02*
X11348867Y-15778627D01*
X11348867Y-15778627D02*
X11348867Y-15797674D01*
X11348867Y-15797674D02*
X11253629Y-15816722D01*
X11520296Y-15883389D02*
X11520296Y-15683389D01*
X11520296Y-15873865D02*
X11501248Y-15883389D01*
X11501248Y-15883389D02*
X11463153Y-15883389D01*
X11463153Y-15883389D02*
X11444105Y-15873865D01*
X11444105Y-15873865D02*
X11434582Y-15864341D01*
X11434582Y-15864341D02*
X11425058Y-15845293D01*
X11425058Y-15845293D02*
X11425058Y-15788151D01*
X11425058Y-15788151D02*
X11434582Y-15769103D01*
X11434582Y-15769103D02*
X11444105Y-15759579D01*
X11444105Y-15759579D02*
X11463153Y-15750055D01*
X11463153Y-15750055D02*
X11501248Y-15750055D01*
X11501248Y-15750055D02*
X11520296Y-15759579D01*
X11596486Y-15959579D02*
X11606010Y-15950055D01*
X11606010Y-15950055D02*
X11625058Y-15921484D01*
X11625058Y-15921484D02*
X11634582Y-15902436D01*
X11634582Y-15902436D02*
X11644105Y-15873865D01*
X11644105Y-15873865D02*
X11653629Y-15826246D01*
X11653629Y-15826246D02*
X11653629Y-15788151D01*
X11653629Y-15788151D02*
X11644105Y-15740532D01*
X11644105Y-15740532D02*
X11634582Y-15711960D01*
X11634582Y-15711960D02*
X11625058Y-15692913D01*
X11625058Y-15692913D02*
X11606010Y-15664341D01*
X11606010Y-15664341D02*
X11596486Y-15654817D01*
M02*
