G04 #@! TF.GenerationSoftware,KiCad,Pcbnew,8.0.8*
G04 #@! TF.CreationDate,2025-02-15T15:01:55+01:00*
G04 #@! TF.ProjectId,tesi,74657369-2e6b-4696-9361-645f70636258,rev?*
G04 #@! TF.SameCoordinates,Original*
G04 #@! TF.FileFunction,Soldermask,Top*
G04 #@! TF.FilePolarity,Negative*
%FSLAX46Y46*%
G04 Gerber Fmt 4.6, Leading zero omitted, Abs format (unit mm)*
G04 Created by KiCad (PCBNEW 8.0.8) date 2025-02-15 15:01:55*
%MOMM*%
%LPD*%
G01*
G04 APERTURE LIST*
G04 Aperture macros list*
%AMRoundRect*
0 Rectangle with rounded corners*
0 $1 Rounding radius*
0 $2 $3 $4 $5 $6 $7 $8 $9 X,Y pos of 4 corners*
0 Add a 4 corners polygon primitive as box body*
4,1,4,$2,$3,$4,$5,$6,$7,$8,$9,$2,$3,0*
0 Add four circle primitives for the rounded corners*
1,1,$1+$1,$2,$3*
1,1,$1+$1,$4,$5*
1,1,$1+$1,$6,$7*
1,1,$1+$1,$8,$9*
0 Add four rect primitives between the rounded corners*
20,1,$1+$1,$2,$3,$4,$5,0*
20,1,$1+$1,$4,$5,$6,$7,0*
20,1,$1+$1,$6,$7,$8,$9,0*
20,1,$1+$1,$8,$9,$2,$3,0*%
G04 Aperture macros list end*
%ADD10C,1.600000*%
%ADD11O,1.600000X1.600000*%
%ADD12RoundRect,0.250000X-1.050000X-0.550000X1.050000X-0.550000X1.050000X0.550000X-1.050000X0.550000X0*%
%ADD13O,2.600000X1.600000*%
%ADD14C,8.000000*%
%ADD15C,3.200000*%
%ADD16R,1.700000X1.700000*%
%ADD17O,1.700000X1.700000*%
%ADD18R,1.200000X1.200000*%
%ADD19C,1.200000*%
%ADD20R,1.800000X1.800000*%
%ADD21C,1.800000*%
%ADD22C,2.000000*%
%ADD23O,3.500000X2.200000*%
%ADD24R,2.500000X1.500000*%
%ADD25O,2.500000X1.500000*%
%ADD26O,4.000000X4.000000*%
G04 APERTURE END LIST*
D10*
X65640000Y-110800485D03*
X60560000Y-110800485D03*
X63100000Y-110800485D03*
X70750000Y-95800485D03*
X68210000Y-95800485D03*
X73260000Y-110800485D03*
X63130000Y-95800485D03*
X65670000Y-95800485D03*
X68180000Y-110800485D03*
X70720000Y-110800485D03*
X125025505Y-41851626D03*
D11*
X114865505Y-41851626D03*
D12*
X89503759Y-41240485D03*
D13*
X89503759Y-43780485D03*
X89503759Y-46320485D03*
X89503759Y-48860485D03*
X89503759Y-51400485D03*
X89503759Y-53940485D03*
X89503759Y-56480485D03*
X89503759Y-59020485D03*
X89503759Y-61560485D03*
X89503759Y-64100485D03*
X89503759Y-66640485D03*
X89503759Y-69180485D03*
X89503759Y-71720485D03*
X89503759Y-74260485D03*
X89503759Y-76800485D03*
X89503759Y-79340485D03*
X109223759Y-79340485D03*
X109223759Y-76800485D03*
X109223759Y-74260485D03*
X109223759Y-71720485D03*
X109223759Y-69180485D03*
X109223759Y-66640485D03*
X109223759Y-64100485D03*
X109223759Y-61560485D03*
X109223759Y-59020485D03*
X109223759Y-56480485D03*
X109223759Y-53940485D03*
X109223759Y-51400485D03*
D14*
X61461335Y-122498532D03*
D10*
X132900000Y-91431721D03*
D11*
X122740000Y-91431721D03*
X94363759Y-94550485D03*
X96903759Y-94550485D03*
X99443759Y-94550485D03*
X101983759Y-94550485D03*
X104523759Y-94550485D03*
X107063759Y-94550485D03*
X86723759Y-112300485D03*
X89263759Y-112300485D03*
X91803759Y-112300485D03*
X94343759Y-112300485D03*
X96883759Y-112300485D03*
X99423759Y-112300485D03*
X101963759Y-112300485D03*
X104503759Y-112300485D03*
X107043759Y-112300485D03*
X109583759Y-112300485D03*
X112123759Y-112300485D03*
X114663759Y-112300485D03*
D10*
X78160191Y-82800000D03*
X75620191Y-82800000D03*
D14*
X106318435Y-122574832D03*
D10*
X132900000Y-94931721D03*
D11*
X122740000Y-94931721D03*
D15*
X115700000Y-68642387D03*
D14*
X128747035Y-122574832D03*
D10*
X125025505Y-38639304D03*
D11*
X114865505Y-38639304D03*
D14*
X72675635Y-122574832D03*
X117532735Y-122574832D03*
D16*
X74525000Y-60884145D03*
D17*
X77065000Y-60884145D03*
X79605000Y-60884145D03*
D18*
X77050000Y-37954801D03*
D19*
X77050000Y-39954801D03*
D10*
X63850000Y-87090021D03*
X61310000Y-87090021D03*
X58770000Y-87090021D03*
D16*
X137780000Y-91431721D03*
D17*
X140320000Y-91431721D03*
X142860000Y-91431721D03*
X145400000Y-91431721D03*
D16*
X74498431Y-64541586D03*
D17*
X77038431Y-64541586D03*
X79578431Y-64541586D03*
D20*
X130700000Y-38792434D03*
D21*
X130700000Y-40951434D03*
X130700000Y-43110434D03*
X130700000Y-45269434D03*
D22*
X73800000Y-46900000D03*
X80300000Y-46900000D03*
X73800000Y-51400000D03*
X80300000Y-51400000D03*
D15*
X146639735Y-37198932D03*
X54639735Y-37198932D03*
D16*
X86750000Y-89475000D03*
D17*
X89290000Y-89475000D03*
D23*
X139900000Y-38000000D03*
X139900000Y-46200000D03*
D24*
X139900000Y-40100000D03*
D25*
X139900000Y-42100000D03*
X139900000Y-44100000D03*
D15*
X146605778Y-68600000D03*
X146639735Y-129198932D03*
D11*
X127740000Y-110727696D03*
X130280000Y-110727696D03*
X132820000Y-110727696D03*
X135360000Y-110727696D03*
X137900000Y-110727696D03*
X140440000Y-110727696D03*
D15*
X54639735Y-129198932D03*
D10*
X71773101Y-89500000D03*
D11*
X81933101Y-89500000D03*
D14*
X83889935Y-122574832D03*
D10*
X125025505Y-45091349D03*
D11*
X114865505Y-45091349D03*
D14*
X95104235Y-122574832D03*
D26*
X56495479Y-53400000D03*
X65995479Y-53400000D03*
D20*
X58745479Y-60900000D03*
D21*
X61245479Y-60900000D03*
X63745479Y-60900000D03*
D14*
X139961335Y-122464432D03*
M02*
