G04 #@! TF.GenerationSoftware,KiCad,Pcbnew,8.0.8*
G04 #@! TF.CreationDate,2025-02-12T12:00:37+01:00*
G04 #@! TF.ProjectId,tesi,74657369-2e6b-4696-9361-645f70636258,rev?*
G04 #@! TF.SameCoordinates,Original*
G04 #@! TF.FileFunction,Copper,L1,Top*
G04 #@! TF.FilePolarity,Positive*
%FSLAX46Y46*%
G04 Gerber Fmt 4.6, Leading zero omitted, Abs format (unit mm)*
G04 Created by KiCad (PCBNEW 8.0.8) date 2025-02-12 12:00:37*
%MOMM*%
%LPD*%
G01*
G04 APERTURE LIST*
G04 Aperture macros list*
%AMRoundRect*
0 Rectangle with rounded corners*
0 $1 Rounding radius*
0 $2 $3 $4 $5 $6 $7 $8 $9 X,Y pos of 4 corners*
0 Add a 4 corners polygon primitive as box body*
4,1,4,$2,$3,$4,$5,$6,$7,$8,$9,$2,$3,0*
0 Add four circle primitives for the rounded corners*
1,1,$1+$1,$2,$3*
1,1,$1+$1,$4,$5*
1,1,$1+$1,$6,$7*
1,1,$1+$1,$8,$9*
0 Add four rect primitives between the rounded corners*
20,1,$1+$1,$2,$3,$4,$5,0*
20,1,$1+$1,$4,$5,$6,$7,0*
20,1,$1+$1,$6,$7,$8,$9,0*
20,1,$1+$1,$8,$9,$2,$3,0*%
G04 Aperture macros list end*
G04 #@! TA.AperFunction,ComponentPad*
%ADD10C,1.600000*%
G04 #@! TD*
G04 #@! TA.AperFunction,ComponentPad*
%ADD11O,1.600000X1.600000*%
G04 #@! TD*
G04 #@! TA.AperFunction,ComponentPad*
%ADD12RoundRect,0.250000X-1.050000X-0.550000X1.050000X-0.550000X1.050000X0.550000X-1.050000X0.550000X0*%
G04 #@! TD*
G04 #@! TA.AperFunction,ComponentPad*
%ADD13O,2.600000X1.600000*%
G04 #@! TD*
G04 #@! TA.AperFunction,SMDPad,CuDef*
%ADD14C,8.000000*%
G04 #@! TD*
G04 #@! TA.AperFunction,ComponentPad*
%ADD15O,3.500000X2.200000*%
G04 #@! TD*
G04 #@! TA.AperFunction,ComponentPad*
%ADD16R,2.500000X1.500000*%
G04 #@! TD*
G04 #@! TA.AperFunction,ComponentPad*
%ADD17O,2.500000X1.500000*%
G04 #@! TD*
G04 #@! TA.AperFunction,ComponentPad*
%ADD18R,1.700000X1.700000*%
G04 #@! TD*
G04 #@! TA.AperFunction,ComponentPad*
%ADD19O,1.700000X1.700000*%
G04 #@! TD*
G04 #@! TA.AperFunction,ComponentPad*
%ADD20C,1.524000*%
G04 #@! TD*
G04 #@! TA.AperFunction,ComponentPad*
%ADD21R,1.800000X1.800000*%
G04 #@! TD*
G04 #@! TA.AperFunction,ComponentPad*
%ADD22C,1.800000*%
G04 #@! TD*
G04 #@! TA.AperFunction,ComponentPad*
%ADD23C,2.000000*%
G04 #@! TD*
G04 #@! TA.AperFunction,ComponentPad*
%ADD24O,4.000000X4.000000*%
G04 #@! TD*
G04 #@! TA.AperFunction,Conductor*
%ADD25C,0.500000*%
G04 #@! TD*
G04 APERTURE END LIST*
D10*
X122283759Y-41140485D03*
D11*
X114663759Y-41140485D03*
D12*
X89503759Y-41240485D03*
D13*
X89503759Y-43780485D03*
X89503759Y-46320485D03*
X89503759Y-48860485D03*
X89503759Y-51400485D03*
X89503759Y-53940485D03*
X89503759Y-56480485D03*
X89503759Y-59020485D03*
X89503759Y-61560485D03*
X89503759Y-64100485D03*
X89503759Y-66640485D03*
X89503759Y-69180485D03*
X89503759Y-71720485D03*
X89503759Y-74260485D03*
X89503759Y-76800485D03*
X89503759Y-79340485D03*
X109223759Y-79340485D03*
X109223759Y-76800485D03*
X109223759Y-74260485D03*
X109223759Y-71720485D03*
X109223759Y-69180485D03*
X109223759Y-66640485D03*
X109223759Y-64100485D03*
X109223759Y-61560485D03*
X109223759Y-59020485D03*
X109223759Y-56480485D03*
X109223759Y-53940485D03*
X109223759Y-51400485D03*
D14*
X61461335Y-122498532D03*
D11*
X66365459Y-112289108D03*
X61285459Y-112289108D03*
X63825459Y-112289108D03*
X66365459Y-94509108D03*
X63825459Y-94509108D03*
X73985459Y-112289108D03*
X68905459Y-94509108D03*
X71445459Y-94509108D03*
X71445459Y-112289108D03*
X68905459Y-112289108D03*
D10*
X129856055Y-102119858D03*
D11*
X122236055Y-102119858D03*
X94363759Y-94550485D03*
X96903759Y-94550485D03*
X99443759Y-94550485D03*
X101983759Y-94550485D03*
X104523759Y-94550485D03*
X107063759Y-94550485D03*
X86723759Y-112300485D03*
X89263759Y-112300485D03*
X91803759Y-112300485D03*
X94343759Y-112300485D03*
X96883759Y-112300485D03*
X99423759Y-112300485D03*
X101963759Y-112300485D03*
X104503759Y-112300485D03*
X107043759Y-112300485D03*
X109583759Y-112300485D03*
X112123759Y-112300485D03*
X114663759Y-112300485D03*
D10*
X79098096Y-61630485D03*
X76558096Y-61630485D03*
D14*
X106318435Y-122574832D03*
D11*
X137473759Y-97140485D03*
X137473759Y-99680485D03*
X137473759Y-102220485D03*
X137473759Y-104760485D03*
X137473759Y-107300485D03*
X137473759Y-109840485D03*
D10*
X129866055Y-97019858D03*
D11*
X122246055Y-97019858D03*
D14*
X128747035Y-122574832D03*
D10*
X122283759Y-35990485D03*
D11*
X114663759Y-35990485D03*
D14*
X72675635Y-122574832D03*
D15*
X137903759Y-37070485D03*
X137903759Y-45270485D03*
D16*
X137903759Y-39170485D03*
D17*
X137903759Y-41170485D03*
X137903759Y-43170485D03*
D14*
X117532735Y-122574832D03*
D18*
X75253096Y-74199063D03*
D19*
X77793096Y-74199063D03*
X80333096Y-74199063D03*
D20*
X63803759Y-84440485D03*
X61263759Y-84440485D03*
X58723759Y-84440485D03*
D18*
X75253096Y-84349063D03*
D19*
X77793096Y-84349063D03*
X80333096Y-84349063D03*
X82873096Y-84349063D03*
D18*
X75253096Y-79274063D03*
D19*
X77793096Y-79274063D03*
X80333096Y-79274063D03*
D21*
X127403759Y-38005485D03*
D22*
X127403759Y-40164485D03*
X127403759Y-42323485D03*
X127403759Y-44482485D03*
D23*
X74623759Y-46570485D03*
X81123759Y-46570485D03*
X74623759Y-51070485D03*
X81123759Y-51070485D03*
D18*
X122238321Y-107214523D03*
D19*
X124778321Y-107214523D03*
X127318321Y-107214523D03*
X129858321Y-107214523D03*
D10*
X73968096Y-66690485D03*
D11*
X81588096Y-66690485D03*
D14*
X83889935Y-122574832D03*
D10*
X122283759Y-46290485D03*
D11*
X114663759Y-46290485D03*
D14*
X95104235Y-122574832D03*
D24*
X56523759Y-48990485D03*
X66023759Y-48990485D03*
D21*
X58773759Y-56490485D03*
D22*
X61273759Y-56490485D03*
X63773759Y-56490485D03*
D14*
X139961335Y-122464432D03*
D25*
X101703132Y-102119858D02*
X122236055Y-102119858D01*
X99443759Y-94550485D02*
X99443759Y-99860485D01*
X99443759Y-99860485D02*
X101703132Y-102119858D01*
X101983759Y-94550485D02*
X101983759Y-96200485D01*
X102803132Y-97019858D02*
X122246055Y-97019858D01*
X101983759Y-96200485D02*
X102803132Y-97019858D01*
X69569382Y-114390485D02*
X61461335Y-122498532D01*
X89685921Y-114390485D02*
X69569382Y-114390485D01*
X91803759Y-112272647D02*
X89685921Y-114390485D01*
X94343759Y-112272647D02*
X90125921Y-116490485D01*
X90125921Y-116490485D02*
X78759982Y-116490485D01*
X78759982Y-116490485D02*
X72675635Y-122574832D01*
X96883759Y-112272647D02*
X86581574Y-122574832D01*
X86581574Y-122574832D02*
X83889935Y-122574832D01*
X99423759Y-118255308D02*
X95104235Y-122574832D01*
X99423759Y-112272647D02*
X99423759Y-118255308D01*
X101963759Y-112272647D02*
X101963759Y-118220156D01*
X101963759Y-118220156D02*
X106318435Y-122574832D01*
X114805944Y-122574832D02*
X117532735Y-122574832D01*
X104503759Y-112272647D02*
X114805944Y-122574832D01*
X107043759Y-112272647D02*
X111461597Y-116690485D01*
X111461597Y-116690485D02*
X122862688Y-116690485D01*
X122862688Y-116690485D02*
X128747035Y-122574832D01*
X111701597Y-114390485D02*
X131887388Y-114390485D01*
X109583759Y-112272647D02*
X111701597Y-114390485D01*
X131887388Y-114390485D02*
X139961335Y-122464432D01*
G04 #@! TA.AperFunction,Conductor*
G36*
X146664363Y-33624581D02*
G01*
X146998262Y-33640987D01*
X147010368Y-33642179D01*
X147338042Y-33690787D01*
X147349941Y-33693154D01*
X147671295Y-33773650D01*
X147682908Y-33777174D01*
X147994807Y-33888774D01*
X148006021Y-33893419D01*
X148305488Y-34035057D01*
X148316213Y-34040790D01*
X148600294Y-34211062D01*
X148600328Y-34211082D01*
X148610443Y-34217840D01*
X148876506Y-34415165D01*
X148885905Y-34422878D01*
X149131352Y-34645338D01*
X149139942Y-34653928D01*
X149168120Y-34685017D01*
X149362400Y-34899369D01*
X149370120Y-34908776D01*
X149567436Y-35174824D01*
X149574197Y-35184941D01*
X149744499Y-35469065D01*
X149750235Y-35479797D01*
X149887168Y-35769312D01*
X149891859Y-35779229D01*
X149896516Y-35790472D01*
X150008114Y-36102359D01*
X150011646Y-36114003D01*
X150092132Y-36435303D01*
X150094507Y-36447238D01*
X150143116Y-36774902D01*
X150144309Y-36787011D01*
X150160686Y-37120237D01*
X150160835Y-37126324D01*
X150160835Y-129120878D01*
X150160685Y-129126966D01*
X150144272Y-129460839D01*
X150143079Y-129472949D01*
X150094468Y-129800603D01*
X150092094Y-129812537D01*
X150011603Y-130133842D01*
X150008071Y-130145487D01*
X149896469Y-130457375D01*
X149891812Y-130468617D01*
X149750188Y-130768043D01*
X149744452Y-130778774D01*
X149574152Y-131062897D01*
X149567391Y-131073014D01*
X149370076Y-131339060D01*
X149362357Y-131348466D01*
X149139908Y-131593901D01*
X149131303Y-131602506D01*
X148885868Y-131824955D01*
X148876462Y-131832674D01*
X148610416Y-132029989D01*
X148600299Y-132036750D01*
X148316176Y-132207051D01*
X148305445Y-132212787D01*
X148006019Y-132354411D01*
X147994777Y-132359068D01*
X147682890Y-132470670D01*
X147671245Y-132474202D01*
X147349939Y-132554693D01*
X147338005Y-132557067D01*
X147010351Y-132605679D01*
X146998241Y-132606872D01*
X146664430Y-132623282D01*
X146658342Y-132623432D01*
X54734833Y-132623432D01*
X54734817Y-132623431D01*
X54664379Y-132623431D01*
X54658296Y-132623282D01*
X54324403Y-132606882D01*
X54312292Y-132605689D01*
X53984639Y-132557088D01*
X53972704Y-132554714D01*
X53651395Y-132474233D01*
X53639750Y-132470701D01*
X53327868Y-132359109D01*
X53316625Y-132354452D01*
X53017182Y-132212827D01*
X53006455Y-132207092D01*
X52722346Y-132036804D01*
X52712228Y-132030043D01*
X52446171Y-131832720D01*
X52436764Y-131825001D01*
X52191326Y-131602548D01*
X52182722Y-131593943D01*
X51960280Y-131348514D01*
X51952560Y-131339107D01*
X51952525Y-131339060D01*
X51755244Y-131073053D01*
X51748484Y-131062937D01*
X51683781Y-130954984D01*
X51578188Y-130778808D01*
X51572456Y-130768084D01*
X51559584Y-130740868D01*
X51430836Y-130468647D01*
X51426180Y-130457405D01*
X51314591Y-130145523D01*
X51311059Y-130133878D01*
X51230579Y-129812568D01*
X51228205Y-129800633D01*
X51227374Y-129795032D01*
X51179606Y-129472975D01*
X51178414Y-129460869D01*
X51165109Y-129189943D01*
X51161983Y-129126292D01*
X51161835Y-129120230D01*
X51161836Y-129077643D01*
X52789235Y-129077643D01*
X52789235Y-129320220D01*
X52820896Y-129560717D01*
X52883682Y-129795036D01*
X52976508Y-130019137D01*
X52976511Y-130019144D01*
X53097799Y-130229221D01*
X53097801Y-130229224D01*
X53097802Y-130229225D01*
X53245468Y-130421668D01*
X53245474Y-130421675D01*
X53416991Y-130593192D01*
X53416997Y-130593197D01*
X53609446Y-130740868D01*
X53819523Y-130862156D01*
X54043635Y-130954986D01*
X54277946Y-131017770D01*
X54458321Y-131041516D01*
X54518446Y-131049432D01*
X54518447Y-131049432D01*
X54761024Y-131049432D01*
X54809123Y-131043099D01*
X55001524Y-131017770D01*
X55235835Y-130954986D01*
X55459947Y-130862156D01*
X55670024Y-130740868D01*
X55862473Y-130593197D01*
X56034000Y-130421670D01*
X56181671Y-130229221D01*
X56302959Y-130019144D01*
X56395789Y-129795032D01*
X56458573Y-129560721D01*
X56490235Y-129320220D01*
X56490235Y-129077644D01*
X56490235Y-129077643D01*
X144789235Y-129077643D01*
X144789235Y-129320220D01*
X144820896Y-129560717D01*
X144883682Y-129795036D01*
X144976508Y-130019137D01*
X144976511Y-130019144D01*
X145097799Y-130229221D01*
X145097801Y-130229224D01*
X145097802Y-130229225D01*
X145245468Y-130421668D01*
X145245474Y-130421675D01*
X145416991Y-130593192D01*
X145416997Y-130593197D01*
X145609446Y-130740868D01*
X145819523Y-130862156D01*
X146043635Y-130954986D01*
X146277946Y-131017770D01*
X146458321Y-131041516D01*
X146518446Y-131049432D01*
X146518447Y-131049432D01*
X146761024Y-131049432D01*
X146809123Y-131043099D01*
X147001524Y-131017770D01*
X147235835Y-130954986D01*
X147459947Y-130862156D01*
X147670024Y-130740868D01*
X147862473Y-130593197D01*
X148034000Y-130421670D01*
X148181671Y-130229221D01*
X148302959Y-130019144D01*
X148395789Y-129795032D01*
X148458573Y-129560721D01*
X148490235Y-129320220D01*
X148490235Y-129077644D01*
X148458573Y-128837143D01*
X148395789Y-128602832D01*
X148302959Y-128378720D01*
X148181671Y-128168643D01*
X148034000Y-127976194D01*
X148033995Y-127976188D01*
X147862478Y-127804671D01*
X147862471Y-127804665D01*
X147670028Y-127656999D01*
X147670027Y-127656998D01*
X147670024Y-127656996D01*
X147459947Y-127535708D01*
X147459940Y-127535705D01*
X147235839Y-127442879D01*
X147001520Y-127380093D01*
X146761024Y-127348432D01*
X146761023Y-127348432D01*
X146518447Y-127348432D01*
X146518446Y-127348432D01*
X146277949Y-127380093D01*
X146043630Y-127442879D01*
X145819529Y-127535705D01*
X145819520Y-127535709D01*
X145609441Y-127656999D01*
X145416998Y-127804665D01*
X145416991Y-127804671D01*
X145245474Y-127976188D01*
X145245468Y-127976195D01*
X145097802Y-128168638D01*
X144976512Y-128378717D01*
X144976508Y-128378726D01*
X144883682Y-128602827D01*
X144820896Y-128837146D01*
X144789235Y-129077643D01*
X56490235Y-129077643D01*
X56458573Y-128837143D01*
X56395789Y-128602832D01*
X56302959Y-128378720D01*
X56181671Y-128168643D01*
X56034000Y-127976194D01*
X56033995Y-127976188D01*
X55862478Y-127804671D01*
X55862471Y-127804665D01*
X55670028Y-127656999D01*
X55670027Y-127656998D01*
X55670024Y-127656996D01*
X55459947Y-127535708D01*
X55459940Y-127535705D01*
X55235839Y-127442879D01*
X55001520Y-127380093D01*
X54761024Y-127348432D01*
X54761023Y-127348432D01*
X54518447Y-127348432D01*
X54518446Y-127348432D01*
X54277949Y-127380093D01*
X54043630Y-127442879D01*
X53819529Y-127535705D01*
X53819520Y-127535709D01*
X53609441Y-127656999D01*
X53416998Y-127804665D01*
X53416991Y-127804671D01*
X53245474Y-127976188D01*
X53245468Y-127976195D01*
X53097802Y-128168638D01*
X52976512Y-128378717D01*
X52976508Y-128378726D01*
X52883682Y-128602827D01*
X52820896Y-128837146D01*
X52789235Y-129077643D01*
X51161836Y-129077643D01*
X51161836Y-129058048D01*
X51161835Y-129058044D01*
X51161835Y-122498532D01*
X56956028Y-122498532D01*
X56975247Y-122914229D01*
X56975247Y-122914234D01*
X56975248Y-122914239D01*
X57032738Y-123326377D01*
X57032740Y-123326385D01*
X57128014Y-123731465D01*
X57260264Y-124126046D01*
X57428345Y-124506709D01*
X57428355Y-124506730D01*
X57630841Y-124870263D01*
X57630844Y-124870267D01*
X57630846Y-124870271D01*
X57866022Y-125213586D01*
X57866024Y-125213588D01*
X57866031Y-125213598D01*
X58103547Y-125499626D01*
X58131873Y-125533738D01*
X58426129Y-125827994D01*
X58426140Y-125828003D01*
X58746268Y-126093835D01*
X58746274Y-126093839D01*
X58746281Y-126093845D01*
X59089596Y-126329021D01*
X59089602Y-126329024D01*
X59089603Y-126329025D01*
X59391925Y-126497417D01*
X59453147Y-126531517D01*
X59625935Y-126607811D01*
X59833820Y-126699602D01*
X59833823Y-126699603D01*
X59833830Y-126699606D01*
X60228399Y-126831852D01*
X60633487Y-126927128D01*
X61045638Y-126984620D01*
X61461335Y-127003839D01*
X61877032Y-126984620D01*
X62289183Y-126927128D01*
X62694271Y-126831852D01*
X63088840Y-126699606D01*
X63469523Y-126531517D01*
X63833074Y-126329021D01*
X64176389Y-126093845D01*
X64496541Y-125827994D01*
X64790797Y-125533738D01*
X65056648Y-125213586D01*
X65291824Y-124870271D01*
X65494320Y-124506720D01*
X65662409Y-124126037D01*
X65794655Y-123731468D01*
X65889931Y-123326380D01*
X65947423Y-122914229D01*
X65966642Y-122498532D01*
X65947423Y-122082835D01*
X65889931Y-121670684D01*
X65794655Y-121265596D01*
X65662409Y-120871027D01*
X65647352Y-120836927D01*
X65494324Y-120490354D01*
X65494320Y-120490344D01*
X65475326Y-120456244D01*
X65291828Y-120126800D01*
X65291826Y-120126798D01*
X65291824Y-120126793D01*
X65291820Y-120126787D01*
X65291815Y-120126779D01*
X65188465Y-119975908D01*
X65166818Y-119909477D01*
X65184523Y-119841887D01*
X65203079Y-119818154D01*
X69843931Y-115177304D01*
X69905254Y-115143819D01*
X69931612Y-115140985D01*
X89759841Y-115140985D01*
X89857383Y-115121581D01*
X89904834Y-115112143D01*
X90041416Y-115055569D01*
X90090650Y-115022671D01*
X90164337Y-114973437D01*
X91512812Y-113624959D01*
X91574133Y-113591476D01*
X91611293Y-113589114D01*
X91672487Y-113594468D01*
X91737555Y-113619921D01*
X91778533Y-113676513D01*
X91782410Y-113746275D01*
X91749359Y-113805677D01*
X89851372Y-115703666D01*
X89790049Y-115737151D01*
X89763691Y-115739985D01*
X78686062Y-115739985D01*
X78541074Y-115768825D01*
X78541068Y-115768827D01*
X78404490Y-115825399D01*
X78404478Y-115825406D01*
X78355251Y-115858298D01*
X78281570Y-115907529D01*
X78281562Y-115907535D01*
X75356015Y-118833082D01*
X75294692Y-118866567D01*
X75225000Y-118861583D01*
X75198260Y-118847702D01*
X75047374Y-118744343D01*
X75047370Y-118744341D01*
X75047366Y-118744338D01*
X74683833Y-118541852D01*
X74683812Y-118541842D01*
X74303149Y-118373761D01*
X73908568Y-118241511D01*
X73503488Y-118146237D01*
X73503480Y-118146235D01*
X73091342Y-118088745D01*
X73091337Y-118088744D01*
X73091332Y-118088744D01*
X72675635Y-118069525D01*
X72259938Y-118088744D01*
X72259932Y-118088744D01*
X72259927Y-118088745D01*
X71847789Y-118146235D01*
X71847781Y-118146237D01*
X71442701Y-118241511D01*
X71048120Y-118373761D01*
X70667457Y-118541842D01*
X70667436Y-118541852D01*
X70303903Y-118744338D01*
X70303897Y-118744342D01*
X69960578Y-118979521D01*
X69960568Y-118979528D01*
X69640440Y-119245360D01*
X69640420Y-119245378D01*
X69346181Y-119539617D01*
X69346163Y-119539637D01*
X69080331Y-119859765D01*
X69080324Y-119859775D01*
X68845145Y-120203094D01*
X68845141Y-120203100D01*
X68642655Y-120566633D01*
X68642645Y-120566654D01*
X68474564Y-120947317D01*
X68342314Y-121341898D01*
X68247040Y-121746978D01*
X68247038Y-121746986D01*
X68189548Y-122159124D01*
X68189548Y-122159126D01*
X68189547Y-122159135D01*
X68170328Y-122574832D01*
X68189547Y-122990529D01*
X68189547Y-122990534D01*
X68189548Y-122990539D01*
X68247038Y-123402677D01*
X68247040Y-123402685D01*
X68342314Y-123807765D01*
X68474564Y-124202346D01*
X68642645Y-124583009D01*
X68642655Y-124583030D01*
X68845141Y-124946563D01*
X68845144Y-124946567D01*
X68845146Y-124946571D01*
X69080322Y-125289886D01*
X69080324Y-125289888D01*
X69080331Y-125289898D01*
X69282804Y-125533726D01*
X69346173Y-125610038D01*
X69640429Y-125904294D01*
X69640440Y-125904303D01*
X69960568Y-126170135D01*
X69960574Y-126170139D01*
X69960581Y-126170145D01*
X70303896Y-126405321D01*
X70303902Y-126405324D01*
X70303903Y-126405325D01*
X70469247Y-126497421D01*
X70667447Y-126607817D01*
X70857788Y-126691861D01*
X71048120Y-126775902D01*
X71048123Y-126775903D01*
X71048130Y-126775906D01*
X71442699Y-126908152D01*
X71847787Y-127003428D01*
X72259938Y-127060920D01*
X72675635Y-127080139D01*
X73091332Y-127060920D01*
X73503483Y-127003428D01*
X73908571Y-126908152D01*
X74303140Y-126775906D01*
X74683823Y-126607817D01*
X75047374Y-126405321D01*
X75390689Y-126170145D01*
X75710841Y-125904294D01*
X76005097Y-125610038D01*
X76270948Y-125289886D01*
X76506124Y-124946571D01*
X76708620Y-124583020D01*
X76876709Y-124202337D01*
X77008955Y-123807768D01*
X77104231Y-123402680D01*
X77161723Y-122990529D01*
X77180942Y-122574832D01*
X77161723Y-122159135D01*
X77104231Y-121746984D01*
X77008955Y-121341896D01*
X76876709Y-120947327D01*
X76827962Y-120836927D01*
X76708624Y-120566654D01*
X76708620Y-120566644D01*
X76534835Y-120254640D01*
X76506128Y-120203100D01*
X76506126Y-120203098D01*
X76506124Y-120203093D01*
X76506117Y-120203083D01*
X76506115Y-120203079D01*
X76402765Y-120052208D01*
X76381118Y-119985777D01*
X76398823Y-119918187D01*
X76417379Y-119894454D01*
X79034531Y-117277304D01*
X79095854Y-117243819D01*
X79122212Y-117240985D01*
X90199841Y-117240985D01*
X90297383Y-117221581D01*
X90344834Y-117212143D01*
X90481416Y-117155569D01*
X90530650Y-117122671D01*
X90604337Y-117073437D01*
X94052813Y-113624959D01*
X94114134Y-113591476D01*
X94151293Y-113589114D01*
X94212487Y-113594468D01*
X94277556Y-113619922D01*
X94318533Y-113676513D01*
X94322410Y-113746275D01*
X94289359Y-113805677D01*
X87895743Y-120199293D01*
X87834420Y-120232778D01*
X87764728Y-120227794D01*
X87708795Y-120185922D01*
X87705762Y-120181689D01*
X87617065Y-120052208D01*
X87485248Y-119859778D01*
X87485242Y-119859771D01*
X87485238Y-119859765D01*
X87219406Y-119539637D01*
X87219397Y-119539626D01*
X86925141Y-119245370D01*
X86833266Y-119169078D01*
X86605001Y-118979528D01*
X86604991Y-118979521D01*
X86604989Y-118979519D01*
X86261674Y-118744343D01*
X86261670Y-118744341D01*
X86261666Y-118744338D01*
X85898133Y-118541852D01*
X85898112Y-118541842D01*
X85517449Y-118373761D01*
X85122868Y-118241511D01*
X84717788Y-118146237D01*
X84717780Y-118146235D01*
X84305642Y-118088745D01*
X84305637Y-118088744D01*
X84305632Y-118088744D01*
X83889935Y-118069525D01*
X83474238Y-118088744D01*
X83474232Y-118088744D01*
X83474227Y-118088745D01*
X83062089Y-118146235D01*
X83062081Y-118146237D01*
X82657001Y-118241511D01*
X82262420Y-118373761D01*
X81881757Y-118541842D01*
X81881736Y-118541852D01*
X81518203Y-118744338D01*
X81518197Y-118744342D01*
X81174878Y-118979521D01*
X81174868Y-118979528D01*
X80854740Y-119245360D01*
X80854720Y-119245378D01*
X80560481Y-119539617D01*
X80560463Y-119539637D01*
X80294631Y-119859765D01*
X80294624Y-119859775D01*
X80059445Y-120203094D01*
X80059441Y-120203100D01*
X79856955Y-120566633D01*
X79856945Y-120566654D01*
X79688864Y-120947317D01*
X79556614Y-121341898D01*
X79461340Y-121746978D01*
X79461338Y-121746986D01*
X79403848Y-122159124D01*
X79403848Y-122159126D01*
X79403847Y-122159135D01*
X79384628Y-122574832D01*
X79403847Y-122990529D01*
X79403847Y-122990534D01*
X79403848Y-122990539D01*
X79461338Y-123402677D01*
X79461340Y-123402685D01*
X79556614Y-123807765D01*
X79688864Y-124202346D01*
X79856945Y-124583009D01*
X79856955Y-124583030D01*
X80059441Y-124946563D01*
X80059444Y-124946567D01*
X80059446Y-124946571D01*
X80294622Y-125289886D01*
X80294624Y-125289888D01*
X80294631Y-125289898D01*
X80497104Y-125533726D01*
X80560473Y-125610038D01*
X80854729Y-125904294D01*
X80854740Y-125904303D01*
X81174868Y-126170135D01*
X81174874Y-126170139D01*
X81174881Y-126170145D01*
X81518196Y-126405321D01*
X81518202Y-126405324D01*
X81518203Y-126405325D01*
X81683547Y-126497421D01*
X81881747Y-126607817D01*
X82072088Y-126691861D01*
X82262420Y-126775902D01*
X82262423Y-126775903D01*
X82262430Y-126775906D01*
X82656999Y-126908152D01*
X83062087Y-127003428D01*
X83474238Y-127060920D01*
X83889935Y-127080139D01*
X84305632Y-127060920D01*
X84717783Y-127003428D01*
X85122871Y-126908152D01*
X85517440Y-126775906D01*
X85898123Y-126607817D01*
X86261674Y-126405321D01*
X86604989Y-126170145D01*
X86925141Y-125904294D01*
X87219397Y-125610038D01*
X87485248Y-125289886D01*
X87720424Y-124946571D01*
X87922920Y-124583020D01*
X88091009Y-124202337D01*
X88223255Y-123807768D01*
X88318531Y-123402680D01*
X88376023Y-122990529D01*
X88395242Y-122574832D01*
X88376023Y-122159135D01*
X88345699Y-121941754D01*
X88355933Y-121872640D01*
X88380826Y-121836946D01*
X96592813Y-113624959D01*
X96654134Y-113591476D01*
X96691293Y-113589114D01*
X96868309Y-113604601D01*
X96883758Y-113605953D01*
X96883759Y-113605953D01*
X96883761Y-113605953D01*
X96942212Y-113600839D01*
X97110451Y-113586120D01*
X97330255Y-113527224D01*
X97536493Y-113431053D01*
X97722898Y-113300532D01*
X97883806Y-113139624D01*
X98014327Y-112953219D01*
X98041377Y-112895209D01*
X98087549Y-112842770D01*
X98154742Y-112823618D01*
X98221624Y-112843833D01*
X98266141Y-112895210D01*
X98293188Y-112953213D01*
X98293191Y-112953219D01*
X98423713Y-113139626D01*
X98584618Y-113300531D01*
X98620380Y-113325571D01*
X98664006Y-113380147D01*
X98673259Y-113427147D01*
X98673259Y-117893078D01*
X98653574Y-117960117D01*
X98636940Y-117980759D01*
X97784616Y-118833082D01*
X97723293Y-118866567D01*
X97653601Y-118861583D01*
X97626858Y-118847701D01*
X97475973Y-118744342D01*
X97475966Y-118744338D01*
X97112433Y-118541852D01*
X97112412Y-118541842D01*
X96731749Y-118373761D01*
X96337168Y-118241511D01*
X95932088Y-118146237D01*
X95932080Y-118146235D01*
X95519942Y-118088745D01*
X95519937Y-118088744D01*
X95519932Y-118088744D01*
X95104235Y-118069525D01*
X94688538Y-118088744D01*
X94688532Y-118088744D01*
X94688527Y-118088745D01*
X94276389Y-118146235D01*
X94276381Y-118146237D01*
X93871301Y-118241511D01*
X93476720Y-118373761D01*
X93096057Y-118541842D01*
X93096036Y-118541852D01*
X92732503Y-118744338D01*
X92732497Y-118744342D01*
X92389178Y-118979521D01*
X92389168Y-118979528D01*
X92069040Y-119245360D01*
X92069020Y-119245378D01*
X91774781Y-119539617D01*
X91774763Y-119539637D01*
X91508931Y-119859765D01*
X91508924Y-119859775D01*
X91273745Y-120203094D01*
X91273741Y-120203100D01*
X91071255Y-120566633D01*
X91071245Y-120566654D01*
X90903164Y-120947317D01*
X90770914Y-121341898D01*
X90675640Y-121746978D01*
X90675638Y-121746986D01*
X90618148Y-122159124D01*
X90618148Y-122159126D01*
X90618147Y-122159135D01*
X90598928Y-122574832D01*
X90618147Y-122990529D01*
X90618147Y-122990534D01*
X90618148Y-122990539D01*
X90675638Y-123402677D01*
X90675640Y-123402685D01*
X90770914Y-123807765D01*
X90903164Y-124202346D01*
X91071245Y-124583009D01*
X91071255Y-124583030D01*
X91273741Y-124946563D01*
X91273744Y-124946567D01*
X91273746Y-124946571D01*
X91508922Y-125289886D01*
X91508924Y-125289888D01*
X91508931Y-125289898D01*
X91711404Y-125533726D01*
X91774773Y-125610038D01*
X92069029Y-125904294D01*
X92069040Y-125904303D01*
X92389168Y-126170135D01*
X92389174Y-126170139D01*
X92389181Y-126170145D01*
X92732496Y-126405321D01*
X92732502Y-126405324D01*
X92732503Y-126405325D01*
X92897847Y-126497421D01*
X93096047Y-126607817D01*
X93286388Y-126691861D01*
X93476720Y-126775902D01*
X93476723Y-126775903D01*
X93476730Y-126775906D01*
X93871299Y-126908152D01*
X94276387Y-127003428D01*
X94688538Y-127060920D01*
X95104235Y-127080139D01*
X95519932Y-127060920D01*
X95932083Y-127003428D01*
X96337171Y-126908152D01*
X96731740Y-126775906D01*
X97112423Y-126607817D01*
X97475974Y-126405321D01*
X97819289Y-126170145D01*
X98139441Y-125904294D01*
X98433697Y-125610038D01*
X98699548Y-125289886D01*
X98934724Y-124946571D01*
X99137220Y-124583020D01*
X99305309Y-124202337D01*
X99437555Y-123807768D01*
X99532831Y-123402680D01*
X99590323Y-122990529D01*
X99609542Y-122574832D01*
X99590323Y-122159135D01*
X99532831Y-121746984D01*
X99437555Y-121341896D01*
X99305309Y-120947327D01*
X99256562Y-120836927D01*
X99137224Y-120566654D01*
X99137220Y-120566644D01*
X98963435Y-120254640D01*
X98934728Y-120203100D01*
X98934727Y-120203099D01*
X98934724Y-120203093D01*
X98831363Y-120052205D01*
X98809718Y-119985775D01*
X98827423Y-119918186D01*
X98845979Y-119894453D01*
X100006710Y-118733724D01*
X100088843Y-118610803D01*
X100145417Y-118474221D01*
X100174259Y-118329226D01*
X100174259Y-118181391D01*
X100174259Y-113427147D01*
X100193944Y-113360108D01*
X100227138Y-113325571D01*
X100262899Y-113300531D01*
X100423804Y-113139626D01*
X100423806Y-113139624D01*
X100554327Y-112953219D01*
X100581377Y-112895209D01*
X100627549Y-112842770D01*
X100694742Y-112823618D01*
X100761624Y-112843833D01*
X100806141Y-112895210D01*
X100833188Y-112953213D01*
X100833191Y-112953219D01*
X100963713Y-113139626D01*
X101124618Y-113300531D01*
X101160380Y-113325571D01*
X101204006Y-113380147D01*
X101213259Y-113427147D01*
X101213259Y-118294074D01*
X101213259Y-118294076D01*
X101213258Y-118294076D01*
X101242099Y-118439063D01*
X101242102Y-118439073D01*
X101298672Y-118575646D01*
X101298673Y-118575647D01*
X101298675Y-118575651D01*
X101322163Y-118610803D01*
X101360405Y-118668038D01*
X101380810Y-118698576D01*
X101380811Y-118698577D01*
X102576685Y-119894450D01*
X102610170Y-119955773D01*
X102605186Y-120025465D01*
X102591304Y-120052207D01*
X102487952Y-120203083D01*
X102487941Y-120203100D01*
X102285455Y-120566633D01*
X102285445Y-120566654D01*
X102117364Y-120947317D01*
X101985114Y-121341898D01*
X101889840Y-121746978D01*
X101889838Y-121746986D01*
X101832348Y-122159124D01*
X101832348Y-122159126D01*
X101832347Y-122159135D01*
X101813128Y-122574832D01*
X101832347Y-122990529D01*
X101832347Y-122990534D01*
X101832348Y-122990539D01*
X101889838Y-123402677D01*
X101889840Y-123402685D01*
X101985114Y-123807765D01*
X102117364Y-124202346D01*
X102285445Y-124583009D01*
X102285455Y-124583030D01*
X102487941Y-124946563D01*
X102487944Y-124946567D01*
X102487946Y-124946571D01*
X102723122Y-125289886D01*
X102723124Y-125289888D01*
X102723131Y-125289898D01*
X102925604Y-125533726D01*
X102988973Y-125610038D01*
X103283229Y-125904294D01*
X103283240Y-125904303D01*
X103603368Y-126170135D01*
X103603374Y-126170139D01*
X103603381Y-126170145D01*
X103946696Y-126405321D01*
X103946702Y-126405324D01*
X103946703Y-126405325D01*
X104112047Y-126497421D01*
X104310247Y-126607817D01*
X104500588Y-126691861D01*
X104690920Y-126775902D01*
X104690923Y-126775903D01*
X104690930Y-126775906D01*
X105085499Y-126908152D01*
X105490587Y-127003428D01*
X105902738Y-127060920D01*
X106318435Y-127080139D01*
X106734132Y-127060920D01*
X107146283Y-127003428D01*
X107551371Y-126908152D01*
X107945940Y-126775906D01*
X108326623Y-126607817D01*
X108690174Y-126405321D01*
X109033489Y-126170145D01*
X109353641Y-125904294D01*
X109647897Y-125610038D01*
X109913748Y-125289886D01*
X110148924Y-124946571D01*
X110351420Y-124583020D01*
X110519509Y-124202337D01*
X110651755Y-123807768D01*
X110747031Y-123402680D01*
X110804523Y-122990529D01*
X110823742Y-122574832D01*
X110804523Y-122159135D01*
X110747031Y-121746984D01*
X110651755Y-121341896D01*
X110519509Y-120947327D01*
X110470762Y-120836927D01*
X110351424Y-120566654D01*
X110351420Y-120566644D01*
X110177635Y-120254640D01*
X110148928Y-120203100D01*
X110148927Y-120203099D01*
X110148924Y-120203093D01*
X109913748Y-119859778D01*
X109913742Y-119859771D01*
X109913738Y-119859765D01*
X109647906Y-119539637D01*
X109647897Y-119539626D01*
X109353641Y-119245370D01*
X109261766Y-119169078D01*
X109033501Y-118979528D01*
X109033491Y-118979521D01*
X109033489Y-118979519D01*
X108690174Y-118744343D01*
X108690170Y-118744341D01*
X108690166Y-118744338D01*
X108326633Y-118541852D01*
X108326612Y-118541842D01*
X107945949Y-118373761D01*
X107551368Y-118241511D01*
X107146288Y-118146237D01*
X107146280Y-118146235D01*
X106734142Y-118088745D01*
X106734137Y-118088744D01*
X106734132Y-118088744D01*
X106318435Y-118069525D01*
X105902738Y-118088744D01*
X105902732Y-118088744D01*
X105902727Y-118088745D01*
X105490589Y-118146235D01*
X105490581Y-118146237D01*
X105085501Y-118241511D01*
X104690920Y-118373761D01*
X104310257Y-118541842D01*
X104310236Y-118541852D01*
X103946703Y-118744338D01*
X103946686Y-118744349D01*
X103795810Y-118847701D01*
X103729379Y-118869347D01*
X103661789Y-118851642D01*
X103638053Y-118833082D01*
X102750578Y-117945607D01*
X102717093Y-117884284D01*
X102714259Y-117857926D01*
X102714259Y-113427147D01*
X102733944Y-113360108D01*
X102767138Y-113325571D01*
X102802899Y-113300531D01*
X102963804Y-113139626D01*
X102963806Y-113139624D01*
X103094327Y-112953219D01*
X103121377Y-112895209D01*
X103167549Y-112842770D01*
X103234742Y-112823618D01*
X103301624Y-112843833D01*
X103346141Y-112895210D01*
X103373188Y-112953213D01*
X103373191Y-112953219D01*
X103503713Y-113139626D01*
X103664617Y-113300530D01*
X103664620Y-113300532D01*
X103851025Y-113431053D01*
X104057263Y-113527224D01*
X104277067Y-113586120D01*
X104432344Y-113599705D01*
X104503757Y-113605953D01*
X104503759Y-113605953D01*
X104503761Y-113605953D01*
X104696218Y-113589115D01*
X104764718Y-113602882D01*
X104794706Y-113624962D01*
X113037535Y-121867791D01*
X113071020Y-121929114D01*
X113072665Y-121972602D01*
X113046648Y-122159124D01*
X113046648Y-122159126D01*
X113046647Y-122159135D01*
X113027428Y-122574832D01*
X113046647Y-122990529D01*
X113046647Y-122990534D01*
X113046648Y-122990539D01*
X113104138Y-123402677D01*
X113104140Y-123402685D01*
X113199414Y-123807765D01*
X113331664Y-124202346D01*
X113499745Y-124583009D01*
X113499755Y-124583030D01*
X113702241Y-124946563D01*
X113702244Y-124946567D01*
X113702246Y-124946571D01*
X113937422Y-125289886D01*
X113937424Y-125289888D01*
X113937431Y-125289898D01*
X114139904Y-125533726D01*
X114203273Y-125610038D01*
X114497529Y-125904294D01*
X114497540Y-125904303D01*
X114817668Y-126170135D01*
X114817674Y-126170139D01*
X114817681Y-126170145D01*
X115160996Y-126405321D01*
X115161002Y-126405324D01*
X115161003Y-126405325D01*
X115326347Y-126497421D01*
X115524547Y-126607817D01*
X115714888Y-126691861D01*
X115905220Y-126775902D01*
X115905223Y-126775903D01*
X115905230Y-126775906D01*
X116299799Y-126908152D01*
X116704887Y-127003428D01*
X117117038Y-127060920D01*
X117532735Y-127080139D01*
X117948432Y-127060920D01*
X118360583Y-127003428D01*
X118765671Y-126908152D01*
X119160240Y-126775906D01*
X119540923Y-126607817D01*
X119904474Y-126405321D01*
X120247789Y-126170145D01*
X120567941Y-125904294D01*
X120862197Y-125610038D01*
X121128048Y-125289886D01*
X121363224Y-124946571D01*
X121565720Y-124583020D01*
X121733809Y-124202337D01*
X121866055Y-123807768D01*
X121961331Y-123402680D01*
X122018823Y-122990529D01*
X122038042Y-122574832D01*
X122018823Y-122159135D01*
X121961331Y-121746984D01*
X121866055Y-121341896D01*
X121733809Y-120947327D01*
X121685062Y-120836927D01*
X121565724Y-120566654D01*
X121565720Y-120566644D01*
X121391935Y-120254640D01*
X121363228Y-120203100D01*
X121363227Y-120203099D01*
X121363224Y-120203093D01*
X121128048Y-119859778D01*
X121128042Y-119859771D01*
X121128038Y-119859765D01*
X120862206Y-119539637D01*
X120862197Y-119539626D01*
X120567941Y-119245370D01*
X120476066Y-119169078D01*
X120247801Y-118979528D01*
X120247791Y-118979521D01*
X120247789Y-118979519D01*
X119904474Y-118744343D01*
X119904470Y-118744341D01*
X119904466Y-118744338D01*
X119540933Y-118541852D01*
X119540912Y-118541842D01*
X119160249Y-118373761D01*
X118765668Y-118241511D01*
X118360588Y-118146237D01*
X118360580Y-118146235D01*
X117948442Y-118088745D01*
X117948437Y-118088744D01*
X117948432Y-118088744D01*
X117532735Y-118069525D01*
X117117038Y-118088744D01*
X117117032Y-118088744D01*
X117117027Y-118088745D01*
X116704889Y-118146235D01*
X116704881Y-118146237D01*
X116299801Y-118241511D01*
X115905220Y-118373761D01*
X115524557Y-118541842D01*
X115524536Y-118541852D01*
X115161003Y-118744338D01*
X115160997Y-118744342D01*
X114817678Y-118979521D01*
X114817668Y-118979528D01*
X114497540Y-119245360D01*
X114497520Y-119245378D01*
X114203281Y-119539617D01*
X114203263Y-119539637D01*
X113937431Y-119859765D01*
X113937424Y-119859775D01*
X113702616Y-120202551D01*
X113648489Y-120246734D01*
X113579068Y-120254640D01*
X113516393Y-120223759D01*
X113512635Y-120220155D01*
X107098157Y-113805677D01*
X107064672Y-113744354D01*
X107069656Y-113674662D01*
X107111528Y-113618729D01*
X107175030Y-113594468D01*
X107236218Y-113589115D01*
X107304718Y-113602882D01*
X107334705Y-113624961D01*
X110878645Y-117168900D01*
X110878646Y-117168901D01*
X110950730Y-117240985D01*
X110983182Y-117273437D01*
X111106095Y-117355565D01*
X111106108Y-117355572D01*
X111242679Y-117412141D01*
X111242684Y-117412143D01*
X111242688Y-117412143D01*
X111242689Y-117412144D01*
X111387676Y-117440985D01*
X111387679Y-117440985D01*
X122500458Y-117440985D01*
X122567497Y-117460670D01*
X122588139Y-117477304D01*
X123809412Y-118698577D01*
X125005285Y-119894449D01*
X125038770Y-119955772D01*
X125033786Y-120025464D01*
X125019904Y-120052206D01*
X124916552Y-120203083D01*
X124916541Y-120203100D01*
X124714055Y-120566633D01*
X124714045Y-120566654D01*
X124545964Y-120947317D01*
X124413714Y-121341898D01*
X124318440Y-121746978D01*
X124318438Y-121746986D01*
X124260948Y-122159124D01*
X124260948Y-122159126D01*
X124260947Y-122159135D01*
X124241728Y-122574832D01*
X124260947Y-122990529D01*
X124260947Y-122990534D01*
X124260948Y-122990539D01*
X124318438Y-123402677D01*
X124318440Y-123402685D01*
X124413714Y-123807765D01*
X124545964Y-124202346D01*
X124714045Y-124583009D01*
X124714055Y-124583030D01*
X124916541Y-124946563D01*
X124916544Y-124946567D01*
X124916546Y-124946571D01*
X125151722Y-125289886D01*
X125151724Y-125289888D01*
X125151731Y-125289898D01*
X125354204Y-125533726D01*
X125417573Y-125610038D01*
X125711829Y-125904294D01*
X125711840Y-125904303D01*
X126031968Y-126170135D01*
X126031974Y-126170139D01*
X126031981Y-126170145D01*
X126375296Y-126405321D01*
X126375302Y-126405324D01*
X126375303Y-126405325D01*
X126540647Y-126497421D01*
X126738847Y-126607817D01*
X126929188Y-126691861D01*
X127119520Y-126775902D01*
X127119523Y-126775903D01*
X127119530Y-126775906D01*
X127514099Y-126908152D01*
X127919187Y-127003428D01*
X128331338Y-127060920D01*
X128747035Y-127080139D01*
X129162732Y-127060920D01*
X129574883Y-127003428D01*
X129979971Y-126908152D01*
X130374540Y-126775906D01*
X130755223Y-126607817D01*
X131118774Y-126405321D01*
X131462089Y-126170145D01*
X131782241Y-125904294D01*
X132076497Y-125610038D01*
X132342348Y-125289886D01*
X132577524Y-124946571D01*
X132780020Y-124583020D01*
X132948109Y-124202337D01*
X133080355Y-123807768D01*
X133175631Y-123402680D01*
X133233123Y-122990529D01*
X133252342Y-122574832D01*
X133233123Y-122159135D01*
X133175631Y-121746984D01*
X133080355Y-121341896D01*
X132948109Y-120947327D01*
X132899362Y-120836927D01*
X132780024Y-120566654D01*
X132780020Y-120566644D01*
X132606235Y-120254640D01*
X132577528Y-120203100D01*
X132577527Y-120203099D01*
X132577524Y-120203093D01*
X132342348Y-119859778D01*
X132342342Y-119859771D01*
X132342338Y-119859765D01*
X132076506Y-119539637D01*
X132076497Y-119539626D01*
X131782241Y-119245370D01*
X131690366Y-119169078D01*
X131462101Y-118979528D01*
X131462091Y-118979521D01*
X131462089Y-118979519D01*
X131118774Y-118744343D01*
X131118770Y-118744341D01*
X131118766Y-118744338D01*
X130755233Y-118541852D01*
X130755212Y-118541842D01*
X130374549Y-118373761D01*
X129979968Y-118241511D01*
X129574888Y-118146237D01*
X129574880Y-118146235D01*
X129162742Y-118088745D01*
X129162737Y-118088744D01*
X129162732Y-118088744D01*
X128747035Y-118069525D01*
X128331338Y-118088744D01*
X128331332Y-118088744D01*
X128331327Y-118088745D01*
X127919189Y-118146235D01*
X127919181Y-118146237D01*
X127514101Y-118241511D01*
X127119520Y-118373761D01*
X126738857Y-118541842D01*
X126738836Y-118541852D01*
X126375303Y-118744338D01*
X126375286Y-118744349D01*
X126224409Y-118847701D01*
X126157977Y-118869347D01*
X126090388Y-118851642D01*
X126066652Y-118833082D01*
X123341109Y-116107537D01*
X123341102Y-116107531D01*
X123267417Y-116058297D01*
X123267417Y-116058298D01*
X123218179Y-116025398D01*
X123081605Y-115968828D01*
X123081595Y-115968825D01*
X122936608Y-115939985D01*
X122936606Y-115939985D01*
X111823826Y-115939985D01*
X111756787Y-115920300D01*
X111736145Y-115903666D01*
X109638157Y-113805677D01*
X109604672Y-113744354D01*
X109609656Y-113674662D01*
X109651528Y-113618729D01*
X109715030Y-113594468D01*
X109776218Y-113589115D01*
X109844718Y-113602882D01*
X109874706Y-113624962D01*
X111223177Y-114973433D01*
X111223181Y-114973436D01*
X111346095Y-115055565D01*
X111346108Y-115055572D01*
X111482679Y-115112141D01*
X111482684Y-115112143D01*
X111482688Y-115112143D01*
X111482689Y-115112144D01*
X111627676Y-115140985D01*
X111627679Y-115140985D01*
X111775514Y-115140985D01*
X131525158Y-115140985D01*
X131592197Y-115160670D01*
X131612839Y-115177304D01*
X136219585Y-119784049D01*
X136253070Y-119845372D01*
X136248086Y-119915064D01*
X136234204Y-119941806D01*
X136130852Y-120092683D01*
X136130841Y-120092700D01*
X135928355Y-120456233D01*
X135928345Y-120456254D01*
X135760264Y-120836917D01*
X135628014Y-121231498D01*
X135532740Y-121636578D01*
X135532738Y-121636586D01*
X135475248Y-122048724D01*
X135475247Y-122048729D01*
X135475247Y-122048735D01*
X135456028Y-122464432D01*
X135475247Y-122880129D01*
X135475247Y-122880134D01*
X135475248Y-122880139D01*
X135532738Y-123292277D01*
X135532740Y-123292285D01*
X135628014Y-123697365D01*
X135760264Y-124091946D01*
X135928345Y-124472609D01*
X135928355Y-124472630D01*
X136130841Y-124836163D01*
X136130844Y-124836167D01*
X136130846Y-124836171D01*
X136366022Y-125179486D01*
X136366024Y-125179488D01*
X136366031Y-125179498D01*
X136631863Y-125499626D01*
X136631873Y-125499638D01*
X136926129Y-125793894D01*
X136926140Y-125793903D01*
X137246268Y-126059735D01*
X137246274Y-126059739D01*
X137246281Y-126059745D01*
X137589596Y-126294921D01*
X137589602Y-126294924D01*
X137589603Y-126294925D01*
X137787802Y-126405321D01*
X137953147Y-126497417D01*
X138030376Y-126531517D01*
X138333820Y-126665502D01*
X138333823Y-126665503D01*
X138333830Y-126665506D01*
X138728399Y-126797752D01*
X139133487Y-126893028D01*
X139545638Y-126950520D01*
X139961335Y-126969739D01*
X140377032Y-126950520D01*
X140789183Y-126893028D01*
X141194271Y-126797752D01*
X141588840Y-126665506D01*
X141969523Y-126497417D01*
X142333074Y-126294921D01*
X142676389Y-126059745D01*
X142996541Y-125793894D01*
X143290797Y-125499638D01*
X143556648Y-125179486D01*
X143791824Y-124836171D01*
X143994320Y-124472620D01*
X144162409Y-124091937D01*
X144294655Y-123697368D01*
X144389931Y-123292280D01*
X144447423Y-122880129D01*
X144466642Y-122464432D01*
X144447423Y-122048735D01*
X144389931Y-121636584D01*
X144294655Y-121231496D01*
X144162409Y-120836927D01*
X143994320Y-120456244D01*
X143853308Y-120203079D01*
X143791828Y-120092700D01*
X143791827Y-120092699D01*
X143791824Y-120092693D01*
X143556648Y-119749378D01*
X143556642Y-119749371D01*
X143556638Y-119749365D01*
X143290806Y-119429237D01*
X143290797Y-119429226D01*
X142996541Y-119134970D01*
X142996529Y-119134960D01*
X142676401Y-118869128D01*
X142676391Y-118869121D01*
X142676389Y-118869119D01*
X142333074Y-118633943D01*
X142333070Y-118633941D01*
X142333066Y-118633938D01*
X141969533Y-118431452D01*
X141969512Y-118431442D01*
X141588849Y-118263361D01*
X141194268Y-118131111D01*
X140789188Y-118035837D01*
X140789180Y-118035835D01*
X140377042Y-117978345D01*
X140377037Y-117978344D01*
X140377032Y-117978344D01*
X139961335Y-117959125D01*
X139545638Y-117978344D01*
X139545632Y-117978344D01*
X139545627Y-117978345D01*
X139133489Y-118035835D01*
X139133481Y-118035837D01*
X138728401Y-118131111D01*
X138333820Y-118263361D01*
X137953157Y-118431442D01*
X137953136Y-118431452D01*
X137589603Y-118633938D01*
X137589586Y-118633949D01*
X137438709Y-118737301D01*
X137372277Y-118758947D01*
X137304688Y-118741242D01*
X137280952Y-118722682D01*
X132365809Y-113807537D01*
X132365802Y-113807531D01*
X132292117Y-113758297D01*
X132292117Y-113758298D01*
X132242879Y-113725398D01*
X132106305Y-113668828D01*
X132106295Y-113668825D01*
X131961308Y-113639985D01*
X131961306Y-113639985D01*
X115411384Y-113639985D01*
X115344345Y-113620300D01*
X115298590Y-113567496D01*
X115288646Y-113498338D01*
X115317671Y-113434782D01*
X115340257Y-113414412D01*
X115502898Y-113300532D01*
X115663806Y-113139624D01*
X115794327Y-112953219D01*
X115890498Y-112746981D01*
X115949394Y-112527177D01*
X115969227Y-112300485D01*
X115968231Y-112289106D01*
X115949394Y-112073798D01*
X115949394Y-112073793D01*
X115890498Y-111853989D01*
X115794327Y-111647751D01*
X115663806Y-111461346D01*
X115663804Y-111461343D01*
X115502900Y-111300439D01*
X115316493Y-111169917D01*
X115316491Y-111169916D01*
X115110256Y-111073746D01*
X115110247Y-111073743D01*
X114890456Y-111014851D01*
X114890452Y-111014850D01*
X114890451Y-111014850D01*
X114890450Y-111014849D01*
X114890445Y-111014849D01*
X114663761Y-110995017D01*
X114663757Y-110995017D01*
X114437072Y-111014849D01*
X114437061Y-111014851D01*
X114217270Y-111073743D01*
X114217261Y-111073746D01*
X114011026Y-111169916D01*
X114011024Y-111169917D01*
X113824617Y-111300439D01*
X113663713Y-111461343D01*
X113533191Y-111647750D01*
X113533190Y-111647752D01*
X113506141Y-111705760D01*
X113459968Y-111758199D01*
X113392775Y-111777351D01*
X113325894Y-111757135D01*
X113281377Y-111705760D01*
X113254327Y-111647752D01*
X113254326Y-111647750D01*
X113246538Y-111636628D01*
X113123806Y-111461346D01*
X113123804Y-111461343D01*
X112962900Y-111300439D01*
X112776493Y-111169917D01*
X112776491Y-111169916D01*
X112570256Y-111073746D01*
X112570247Y-111073743D01*
X112350456Y-111014851D01*
X112350452Y-111014850D01*
X112350451Y-111014850D01*
X112350450Y-111014849D01*
X112350445Y-111014849D01*
X112123761Y-110995017D01*
X112123757Y-110995017D01*
X111897072Y-111014849D01*
X111897061Y-111014851D01*
X111677270Y-111073743D01*
X111677261Y-111073746D01*
X111471026Y-111169916D01*
X111471024Y-111169917D01*
X111284617Y-111300439D01*
X111123713Y-111461343D01*
X110993191Y-111647750D01*
X110993190Y-111647752D01*
X110966141Y-111705760D01*
X110919968Y-111758199D01*
X110852775Y-111777351D01*
X110785894Y-111757135D01*
X110741377Y-111705760D01*
X110714327Y-111647752D01*
X110714326Y-111647750D01*
X110706538Y-111636628D01*
X110583806Y-111461346D01*
X110583804Y-111461343D01*
X110422900Y-111300439D01*
X110236493Y-111169917D01*
X110236491Y-111169916D01*
X110030256Y-111073746D01*
X110030247Y-111073743D01*
X109810456Y-111014851D01*
X109810452Y-111014850D01*
X109810451Y-111014850D01*
X109810450Y-111014849D01*
X109810445Y-111014849D01*
X109583761Y-110995017D01*
X109583757Y-110995017D01*
X109357072Y-111014849D01*
X109357061Y-111014851D01*
X109137270Y-111073743D01*
X109137261Y-111073746D01*
X108931026Y-111169916D01*
X108931024Y-111169917D01*
X108744617Y-111300439D01*
X108583713Y-111461343D01*
X108453191Y-111647750D01*
X108453190Y-111647752D01*
X108426141Y-111705760D01*
X108379968Y-111758199D01*
X108312775Y-111777351D01*
X108245894Y-111757135D01*
X108201377Y-111705760D01*
X108174327Y-111647752D01*
X108174326Y-111647750D01*
X108166538Y-111636628D01*
X108043806Y-111461346D01*
X108043804Y-111461343D01*
X107882900Y-111300439D01*
X107696493Y-111169917D01*
X107696491Y-111169916D01*
X107490256Y-111073746D01*
X107490247Y-111073743D01*
X107270456Y-111014851D01*
X107270452Y-111014850D01*
X107270451Y-111014850D01*
X107270450Y-111014849D01*
X107270445Y-111014849D01*
X107043761Y-110995017D01*
X107043757Y-110995017D01*
X106817072Y-111014849D01*
X106817061Y-111014851D01*
X106597270Y-111073743D01*
X106597261Y-111073746D01*
X106391026Y-111169916D01*
X106391024Y-111169917D01*
X106204617Y-111300439D01*
X106043713Y-111461343D01*
X105913191Y-111647750D01*
X105913190Y-111647752D01*
X105886141Y-111705760D01*
X105839968Y-111758199D01*
X105772775Y-111777351D01*
X105705894Y-111757135D01*
X105661377Y-111705760D01*
X105634327Y-111647752D01*
X105634326Y-111647750D01*
X105626538Y-111636628D01*
X105503806Y-111461346D01*
X105503804Y-111461343D01*
X105342900Y-111300439D01*
X105156493Y-111169917D01*
X105156491Y-111169916D01*
X104950256Y-111073746D01*
X104950247Y-111073743D01*
X104730456Y-111014851D01*
X104730452Y-111014850D01*
X104730451Y-111014850D01*
X104730450Y-111014849D01*
X104730445Y-111014849D01*
X104503761Y-110995017D01*
X104503757Y-110995017D01*
X104277072Y-111014849D01*
X104277061Y-111014851D01*
X104057270Y-111073743D01*
X104057261Y-111073746D01*
X103851026Y-111169916D01*
X103851024Y-111169917D01*
X103664617Y-111300439D01*
X103503713Y-111461343D01*
X103373191Y-111647750D01*
X103373190Y-111647752D01*
X103346141Y-111705760D01*
X103299968Y-111758199D01*
X103232775Y-111777351D01*
X103165894Y-111757135D01*
X103121377Y-111705760D01*
X103094327Y-111647752D01*
X103094326Y-111647750D01*
X103086538Y-111636628D01*
X102963806Y-111461346D01*
X102963804Y-111461343D01*
X102802900Y-111300439D01*
X102616493Y-111169917D01*
X102616491Y-111169916D01*
X102410256Y-111073746D01*
X102410247Y-111073743D01*
X102190456Y-111014851D01*
X102190452Y-111014850D01*
X102190451Y-111014850D01*
X102190450Y-111014849D01*
X102190445Y-111014849D01*
X101963761Y-110995017D01*
X101963757Y-110995017D01*
X101737072Y-111014849D01*
X101737061Y-111014851D01*
X101517270Y-111073743D01*
X101517261Y-111073746D01*
X101311026Y-111169916D01*
X101311024Y-111169917D01*
X101124617Y-111300439D01*
X100963713Y-111461343D01*
X100833191Y-111647750D01*
X100833190Y-111647752D01*
X100806141Y-111705760D01*
X100759968Y-111758199D01*
X100692775Y-111777351D01*
X100625894Y-111757135D01*
X100581377Y-111705760D01*
X100554327Y-111647752D01*
X100554326Y-111647750D01*
X100546538Y-111636628D01*
X100423806Y-111461346D01*
X100423804Y-111461343D01*
X100262900Y-111300439D01*
X100076493Y-111169917D01*
X100076491Y-111169916D01*
X99870256Y-111073746D01*
X99870247Y-111073743D01*
X99650456Y-111014851D01*
X99650452Y-111014850D01*
X99650451Y-111014850D01*
X99650450Y-111014849D01*
X99650445Y-111014849D01*
X99423761Y-110995017D01*
X99423757Y-110995017D01*
X99197072Y-111014849D01*
X99197061Y-111014851D01*
X98977270Y-111073743D01*
X98977261Y-111073746D01*
X98771026Y-111169916D01*
X98771024Y-111169917D01*
X98584617Y-111300439D01*
X98423713Y-111461343D01*
X98293191Y-111647750D01*
X98293190Y-111647752D01*
X98266141Y-111705760D01*
X98219968Y-111758199D01*
X98152775Y-111777351D01*
X98085894Y-111757135D01*
X98041377Y-111705760D01*
X98014327Y-111647752D01*
X98014326Y-111647750D01*
X98006538Y-111636628D01*
X97883806Y-111461346D01*
X97883804Y-111461343D01*
X97722900Y-111300439D01*
X97536493Y-111169917D01*
X97536491Y-111169916D01*
X97330256Y-111073746D01*
X97330247Y-111073743D01*
X97110456Y-111014851D01*
X97110452Y-111014850D01*
X97110451Y-111014850D01*
X97110450Y-111014849D01*
X97110445Y-111014849D01*
X96883761Y-110995017D01*
X96883757Y-110995017D01*
X96657072Y-111014849D01*
X96657061Y-111014851D01*
X96437270Y-111073743D01*
X96437261Y-111073746D01*
X96231026Y-111169916D01*
X96231024Y-111169917D01*
X96044617Y-111300439D01*
X95883713Y-111461343D01*
X95753191Y-111647750D01*
X95753190Y-111647752D01*
X95726141Y-111705760D01*
X95679968Y-111758199D01*
X95612775Y-111777351D01*
X95545894Y-111757135D01*
X95501377Y-111705760D01*
X95474327Y-111647752D01*
X95474326Y-111647750D01*
X95466538Y-111636628D01*
X95343806Y-111461346D01*
X95343804Y-111461343D01*
X95182900Y-111300439D01*
X94996493Y-111169917D01*
X94996491Y-111169916D01*
X94790256Y-111073746D01*
X94790247Y-111073743D01*
X94570456Y-111014851D01*
X94570452Y-111014850D01*
X94570451Y-111014850D01*
X94570450Y-111014849D01*
X94570445Y-111014849D01*
X94343761Y-110995017D01*
X94343757Y-110995017D01*
X94117072Y-111014849D01*
X94117061Y-111014851D01*
X93897270Y-111073743D01*
X93897261Y-111073746D01*
X93691026Y-111169916D01*
X93691024Y-111169917D01*
X93504617Y-111300439D01*
X93343713Y-111461343D01*
X93213191Y-111647750D01*
X93213190Y-111647752D01*
X93186141Y-111705760D01*
X93139968Y-111758199D01*
X93072775Y-111777351D01*
X93005894Y-111757135D01*
X92961377Y-111705760D01*
X92934327Y-111647752D01*
X92934326Y-111647750D01*
X92926538Y-111636628D01*
X92803806Y-111461346D01*
X92803804Y-111461343D01*
X92642900Y-111300439D01*
X92456493Y-111169917D01*
X92456491Y-111169916D01*
X92250256Y-111073746D01*
X92250247Y-111073743D01*
X92030456Y-111014851D01*
X92030452Y-111014850D01*
X92030451Y-111014850D01*
X92030450Y-111014849D01*
X92030445Y-111014849D01*
X91803761Y-110995017D01*
X91803757Y-110995017D01*
X91577072Y-111014849D01*
X91577061Y-111014851D01*
X91357270Y-111073743D01*
X91357261Y-111073746D01*
X91151026Y-111169916D01*
X91151024Y-111169917D01*
X90964617Y-111300439D01*
X90803713Y-111461343D01*
X90673191Y-111647750D01*
X90673190Y-111647752D01*
X90646141Y-111705760D01*
X90599968Y-111758199D01*
X90532775Y-111777351D01*
X90465894Y-111757135D01*
X90421377Y-111705760D01*
X90394327Y-111647752D01*
X90394326Y-111647750D01*
X90386538Y-111636628D01*
X90263806Y-111461346D01*
X90263804Y-111461343D01*
X90102900Y-111300439D01*
X89916493Y-111169917D01*
X89916491Y-111169916D01*
X89710256Y-111073746D01*
X89710247Y-111073743D01*
X89490456Y-111014851D01*
X89490452Y-111014850D01*
X89490451Y-111014850D01*
X89490450Y-111014849D01*
X89490445Y-111014849D01*
X89263761Y-110995017D01*
X89263757Y-110995017D01*
X89037072Y-111014849D01*
X89037061Y-111014851D01*
X88817270Y-111073743D01*
X88817261Y-111073746D01*
X88611026Y-111169916D01*
X88611024Y-111169917D01*
X88424617Y-111300439D01*
X88263713Y-111461343D01*
X88133191Y-111647750D01*
X88133190Y-111647752D01*
X88106141Y-111705760D01*
X88059968Y-111758199D01*
X87992775Y-111777351D01*
X87925894Y-111757135D01*
X87881377Y-111705760D01*
X87854327Y-111647752D01*
X87854326Y-111647750D01*
X87846538Y-111636628D01*
X87723806Y-111461346D01*
X87723804Y-111461343D01*
X87562900Y-111300439D01*
X87376493Y-111169917D01*
X87376491Y-111169916D01*
X87170256Y-111073746D01*
X87170247Y-111073743D01*
X86950456Y-111014851D01*
X86950452Y-111014850D01*
X86950451Y-111014850D01*
X86950450Y-111014849D01*
X86950445Y-111014849D01*
X86723761Y-110995017D01*
X86723757Y-110995017D01*
X86497072Y-111014849D01*
X86497061Y-111014851D01*
X86277270Y-111073743D01*
X86277261Y-111073746D01*
X86071026Y-111169916D01*
X86071024Y-111169917D01*
X85884617Y-111300439D01*
X85723713Y-111461343D01*
X85593191Y-111647750D01*
X85593190Y-111647752D01*
X85497020Y-111853987D01*
X85497017Y-111853996D01*
X85438125Y-112073787D01*
X85438123Y-112073798D01*
X85418291Y-112300483D01*
X85418291Y-112300486D01*
X85438123Y-112527171D01*
X85438125Y-112527182D01*
X85497017Y-112746973D01*
X85497020Y-112746982D01*
X85593190Y-112953217D01*
X85593191Y-112953219D01*
X85723713Y-113139626D01*
X85884617Y-113300530D01*
X85884620Y-113300532D01*
X86047258Y-113414411D01*
X86090882Y-113468986D01*
X86098076Y-113538484D01*
X86066554Y-113600839D01*
X86006324Y-113636254D01*
X85976134Y-113639985D01*
X74716836Y-113639985D01*
X74649797Y-113620300D01*
X74604042Y-113567496D01*
X74594098Y-113498338D01*
X74623123Y-113434782D01*
X74645710Y-113414412D01*
X74824598Y-113289155D01*
X74985506Y-113128247D01*
X75116027Y-112941842D01*
X75212198Y-112735604D01*
X75271094Y-112515800D01*
X75290927Y-112289108D01*
X75271094Y-112062416D01*
X75215248Y-111853996D01*
X75212200Y-111842619D01*
X75212197Y-111842610D01*
X75203138Y-111823183D01*
X75116027Y-111636374D01*
X74985506Y-111449969D01*
X74985504Y-111449966D01*
X74824600Y-111289062D01*
X74638193Y-111158540D01*
X74638191Y-111158539D01*
X74431956Y-111062369D01*
X74431947Y-111062366D01*
X74212156Y-111003474D01*
X74212152Y-111003473D01*
X74212151Y-111003473D01*
X74212150Y-111003472D01*
X74212145Y-111003472D01*
X73985461Y-110983640D01*
X73985457Y-110983640D01*
X73758772Y-111003472D01*
X73758761Y-111003474D01*
X73538970Y-111062366D01*
X73538961Y-111062369D01*
X73332726Y-111158539D01*
X73332724Y-111158540D01*
X73146317Y-111289062D01*
X72985413Y-111449966D01*
X72854891Y-111636373D01*
X72854890Y-111636375D01*
X72827841Y-111694383D01*
X72781668Y-111746822D01*
X72714475Y-111765974D01*
X72647594Y-111745758D01*
X72603077Y-111694383D01*
X72576027Y-111636374D01*
X72445506Y-111449969D01*
X72445504Y-111449966D01*
X72284600Y-111289062D01*
X72098193Y-111158540D01*
X72098191Y-111158539D01*
X71891956Y-111062369D01*
X71891947Y-111062366D01*
X71672156Y-111003474D01*
X71672152Y-111003473D01*
X71672151Y-111003473D01*
X71672150Y-111003472D01*
X71672145Y-111003472D01*
X71445461Y-110983640D01*
X71445457Y-110983640D01*
X71218772Y-111003472D01*
X71218761Y-111003474D01*
X70998970Y-111062366D01*
X70998961Y-111062369D01*
X70792726Y-111158539D01*
X70792724Y-111158540D01*
X70606317Y-111289062D01*
X70445413Y-111449966D01*
X70314891Y-111636373D01*
X70314890Y-111636375D01*
X70287841Y-111694383D01*
X70241668Y-111746822D01*
X70174475Y-111765974D01*
X70107594Y-111745758D01*
X70063077Y-111694383D01*
X70036027Y-111636374D01*
X69905506Y-111449969D01*
X69905504Y-111449966D01*
X69744600Y-111289062D01*
X69558193Y-111158540D01*
X69558191Y-111158539D01*
X69351956Y-111062369D01*
X69351947Y-111062366D01*
X69132156Y-111003474D01*
X69132152Y-111003473D01*
X69132151Y-111003473D01*
X69132150Y-111003472D01*
X69132145Y-111003472D01*
X68905461Y-110983640D01*
X68905457Y-110983640D01*
X68678772Y-111003472D01*
X68678761Y-111003474D01*
X68458970Y-111062366D01*
X68458961Y-111062369D01*
X68252726Y-111158539D01*
X68252724Y-111158540D01*
X68066317Y-111289062D01*
X67905413Y-111449966D01*
X67774891Y-111636373D01*
X67774890Y-111636375D01*
X67747841Y-111694383D01*
X67701668Y-111746822D01*
X67634475Y-111765974D01*
X67567594Y-111745758D01*
X67523077Y-111694383D01*
X67496027Y-111636374D01*
X67365506Y-111449969D01*
X67365504Y-111449966D01*
X67204600Y-111289062D01*
X67018193Y-111158540D01*
X67018191Y-111158539D01*
X66811956Y-111062369D01*
X66811947Y-111062366D01*
X66592156Y-111003474D01*
X66592152Y-111003473D01*
X66592151Y-111003473D01*
X66592150Y-111003472D01*
X66592145Y-111003472D01*
X66365461Y-110983640D01*
X66365457Y-110983640D01*
X66138772Y-111003472D01*
X66138761Y-111003474D01*
X65918970Y-111062366D01*
X65918961Y-111062369D01*
X65712726Y-111158539D01*
X65712724Y-111158540D01*
X65526317Y-111289062D01*
X65365413Y-111449966D01*
X65234891Y-111636373D01*
X65234890Y-111636375D01*
X65207841Y-111694383D01*
X65161668Y-111746822D01*
X65094475Y-111765974D01*
X65027594Y-111745758D01*
X64983077Y-111694383D01*
X64956027Y-111636374D01*
X64825506Y-111449969D01*
X64825504Y-111449966D01*
X64664600Y-111289062D01*
X64478193Y-111158540D01*
X64478191Y-111158539D01*
X64271956Y-111062369D01*
X64271947Y-111062366D01*
X64052156Y-111003474D01*
X64052152Y-111003473D01*
X64052151Y-111003473D01*
X64052150Y-111003472D01*
X64052145Y-111003472D01*
X63825461Y-110983640D01*
X63825457Y-110983640D01*
X63598772Y-111003472D01*
X63598761Y-111003474D01*
X63378970Y-111062366D01*
X63378961Y-111062369D01*
X63172726Y-111158539D01*
X63172724Y-111158540D01*
X62986317Y-111289062D01*
X62825413Y-111449966D01*
X62694892Y-111636372D01*
X62694891Y-111636374D01*
X62694774Y-111636626D01*
X62667565Y-111694975D01*
X62621392Y-111747414D01*
X62554198Y-111766565D01*
X62487317Y-111746349D01*
X62442801Y-111694973D01*
X62415594Y-111636628D01*
X62415593Y-111636626D01*
X62285116Y-111450287D01*
X62124279Y-111289450D01*
X61937941Y-111158973D01*
X61731787Y-111062842D01*
X61535459Y-111010235D01*
X61535459Y-111856096D01*
X61478452Y-111823183D01*
X61351285Y-111789108D01*
X61219633Y-111789108D01*
X61092466Y-111823183D01*
X61035459Y-111856096D01*
X61035459Y-111010235D01*
X60839130Y-111062842D01*
X60632976Y-111158973D01*
X60446638Y-111289450D01*
X60285801Y-111450287D01*
X60155324Y-111636625D01*
X60059193Y-111842781D01*
X60059189Y-111842790D01*
X60006586Y-112039107D01*
X60006587Y-112039108D01*
X60852447Y-112039108D01*
X60819534Y-112096115D01*
X60785459Y-112223282D01*
X60785459Y-112354934D01*
X60819534Y-112482101D01*
X60852447Y-112539108D01*
X60006587Y-112539108D01*
X60059189Y-112735425D01*
X60059193Y-112735434D01*
X60155324Y-112941590D01*
X60285801Y-113127928D01*
X60446638Y-113288765D01*
X60632976Y-113419242D01*
X60839132Y-113515373D01*
X60839141Y-113515377D01*
X61035458Y-113567980D01*
X61035459Y-113567979D01*
X61035459Y-112722120D01*
X61092466Y-112755033D01*
X61219633Y-112789108D01*
X61351285Y-112789108D01*
X61478452Y-112755033D01*
X61535459Y-112722120D01*
X61535459Y-113567980D01*
X61731776Y-113515377D01*
X61731785Y-113515373D01*
X61937941Y-113419242D01*
X62124279Y-113288765D01*
X62285116Y-113127928D01*
X62415591Y-112941592D01*
X62442800Y-112883242D01*
X62488972Y-112830803D01*
X62556166Y-112811650D01*
X62623047Y-112831865D01*
X62667565Y-112883241D01*
X62694890Y-112941840D01*
X62694891Y-112941842D01*
X62825413Y-113128249D01*
X62986317Y-113289153D01*
X62986320Y-113289155D01*
X63172725Y-113419676D01*
X63378963Y-113515847D01*
X63598767Y-113574743D01*
X63760689Y-113588909D01*
X63825457Y-113594576D01*
X63825459Y-113594576D01*
X63825461Y-113594576D01*
X63887890Y-113589114D01*
X64052151Y-113574743D01*
X64271955Y-113515847D01*
X64478193Y-113419676D01*
X64664598Y-113289155D01*
X64825506Y-113128247D01*
X64956027Y-112941842D01*
X64983077Y-112883832D01*
X65029249Y-112831393D01*
X65096442Y-112812241D01*
X65163324Y-112832456D01*
X65207841Y-112883833D01*
X65234888Y-112941836D01*
X65234891Y-112941842D01*
X65365413Y-113128249D01*
X65526317Y-113289153D01*
X65526320Y-113289155D01*
X65712725Y-113419676D01*
X65918963Y-113515847D01*
X66138767Y-113574743D01*
X66300689Y-113588909D01*
X66365457Y-113594576D01*
X66365459Y-113594576D01*
X66365461Y-113594576D01*
X66427890Y-113589114D01*
X66592151Y-113574743D01*
X66811955Y-113515847D01*
X67018193Y-113419676D01*
X67204598Y-113289155D01*
X67365506Y-113128247D01*
X67496027Y-112941842D01*
X67523077Y-112883832D01*
X67569249Y-112831393D01*
X67636442Y-112812241D01*
X67703324Y-112832456D01*
X67747841Y-112883833D01*
X67774888Y-112941836D01*
X67774891Y-112941842D01*
X67905413Y-113128249D01*
X68066317Y-113289153D01*
X68066320Y-113289155D01*
X68252725Y-113419676D01*
X68458963Y-113515847D01*
X68678767Y-113574743D01*
X68840689Y-113588909D01*
X68905457Y-113594576D01*
X68905459Y-113594576D01*
X68905460Y-113594576D01*
X68967878Y-113589115D01*
X69004190Y-113585938D01*
X69072690Y-113599705D01*
X69122873Y-113648320D01*
X69138807Y-113716348D01*
X69115432Y-113782192D01*
X69093663Y-113805319D01*
X69090963Y-113807534D01*
X64141715Y-118756782D01*
X64080392Y-118790267D01*
X64010700Y-118785283D01*
X63983960Y-118771402D01*
X63833074Y-118668043D01*
X63833070Y-118668041D01*
X63833066Y-118668038D01*
X63469533Y-118465552D01*
X63469512Y-118465542D01*
X63088849Y-118297461D01*
X62694268Y-118165211D01*
X62289188Y-118069937D01*
X62289180Y-118069935D01*
X61877042Y-118012445D01*
X61877037Y-118012444D01*
X61877032Y-118012444D01*
X61461335Y-117993225D01*
X61045638Y-118012444D01*
X61045632Y-118012444D01*
X61045627Y-118012445D01*
X60633489Y-118069935D01*
X60633481Y-118069937D01*
X60228401Y-118165211D01*
X59833820Y-118297461D01*
X59453157Y-118465542D01*
X59453136Y-118465552D01*
X59089603Y-118668038D01*
X59089597Y-118668042D01*
X58746278Y-118903221D01*
X58746268Y-118903228D01*
X58426140Y-119169060D01*
X58426120Y-119169078D01*
X58131881Y-119463317D01*
X58131863Y-119463337D01*
X57866031Y-119783465D01*
X57866024Y-119783475D01*
X57630845Y-120126794D01*
X57630841Y-120126800D01*
X57428355Y-120490333D01*
X57428345Y-120490354D01*
X57260264Y-120871017D01*
X57128014Y-121265598D01*
X57032740Y-121670678D01*
X57032738Y-121670686D01*
X56975248Y-122082824D01*
X56975247Y-122082829D01*
X56975247Y-122082835D01*
X56956028Y-122498532D01*
X51161835Y-122498532D01*
X51161835Y-106316658D01*
X120887821Y-106316658D01*
X120887821Y-108112393D01*
X120887822Y-108112399D01*
X120894229Y-108172006D01*
X120944523Y-108306851D01*
X120944527Y-108306858D01*
X121030773Y-108422067D01*
X121030776Y-108422070D01*
X121145985Y-108508316D01*
X121145992Y-108508320D01*
X121280838Y-108558614D01*
X121280837Y-108558614D01*
X121287765Y-108559358D01*
X121340448Y-108565023D01*
X123136193Y-108565022D01*
X123195804Y-108558614D01*
X123330652Y-108508319D01*
X123445867Y-108422069D01*
X123532117Y-108306854D01*
X123581131Y-108175439D01*
X123623002Y-108119507D01*
X123688466Y-108095089D01*
X123756739Y-108109940D01*
X123784994Y-108131092D01*
X123906920Y-108253018D01*
X124003705Y-108320788D01*
X124100486Y-108388555D01*
X124100488Y-108388556D01*
X124100491Y-108388558D01*
X124314658Y-108488426D01*
X124542913Y-108549586D01*
X124719355Y-108565023D01*
X124778320Y-108570182D01*
X124778321Y-108570182D01*
X124778322Y-108570182D01*
X124837287Y-108565023D01*
X125013729Y-108549586D01*
X125241984Y-108488426D01*
X125456151Y-108388558D01*
X125649722Y-108253018D01*
X125816816Y-108085924D01*
X125946746Y-107900365D01*
X126001323Y-107856740D01*
X126070821Y-107849546D01*
X126133176Y-107881069D01*
X126149896Y-107900365D01*
X126279821Y-108085918D01*
X126279826Y-108085924D01*
X126446920Y-108253018D01*
X126543705Y-108320788D01*
X126640486Y-108388555D01*
X126640488Y-108388556D01*
X126640491Y-108388558D01*
X126854658Y-108488426D01*
X127082913Y-108549586D01*
X127259355Y-108565023D01*
X127318320Y-108570182D01*
X127318321Y-108570182D01*
X127318322Y-108570182D01*
X127377287Y-108565023D01*
X127553729Y-108549586D01*
X127781984Y-108488426D01*
X127996151Y-108388558D01*
X128189722Y-108253018D01*
X128356816Y-108085924D01*
X128486746Y-107900365D01*
X128541323Y-107856740D01*
X128610821Y-107849546D01*
X128673176Y-107881069D01*
X128689896Y-107900365D01*
X128819821Y-108085918D01*
X128819826Y-108085924D01*
X128986920Y-108253018D01*
X129083705Y-108320788D01*
X129180486Y-108388555D01*
X129180488Y-108388556D01*
X129180491Y-108388558D01*
X129394658Y-108488426D01*
X129622913Y-108549586D01*
X129799355Y-108565023D01*
X129858320Y-108570182D01*
X129858321Y-108570182D01*
X129858322Y-108570182D01*
X129917287Y-108565023D01*
X130093729Y-108549586D01*
X130321984Y-108488426D01*
X130536151Y-108388558D01*
X130729722Y-108253018D01*
X130896816Y-108085924D01*
X131032356Y-107892353D01*
X131132224Y-107678186D01*
X131193384Y-107449931D01*
X131213980Y-107214523D01*
X131193384Y-106979115D01*
X131132224Y-106750860D01*
X131032356Y-106536694D01*
X131026746Y-106528681D01*
X130896815Y-106343120D01*
X130729723Y-106176029D01*
X130729716Y-106176024D01*
X130720994Y-106169917D01*
X130652839Y-106122194D01*
X130536155Y-106040490D01*
X130536151Y-106040488D01*
X130516810Y-106031469D01*
X130321984Y-105940620D01*
X130321980Y-105940619D01*
X130321976Y-105940617D01*
X130093734Y-105879461D01*
X130093724Y-105879459D01*
X129858322Y-105858864D01*
X129858320Y-105858864D01*
X129622917Y-105879459D01*
X129622907Y-105879461D01*
X129394665Y-105940617D01*
X129394656Y-105940621D01*
X129180492Y-106040487D01*
X129180490Y-106040488D01*
X128986918Y-106176028D01*
X128819826Y-106343120D01*
X128689896Y-106528681D01*
X128635319Y-106572306D01*
X128565821Y-106579500D01*
X128503466Y-106547977D01*
X128486746Y-106528681D01*
X128356815Y-106343120D01*
X128189723Y-106176029D01*
X128189716Y-106176024D01*
X128180994Y-106169917D01*
X128112839Y-106122194D01*
X127996155Y-106040490D01*
X127996151Y-106040488D01*
X127976810Y-106031469D01*
X127781984Y-105940620D01*
X127781980Y-105940619D01*
X127781976Y-105940617D01*
X127553734Y-105879461D01*
X127553724Y-105879459D01*
X127318322Y-105858864D01*
X127318320Y-105858864D01*
X127082917Y-105879459D01*
X127082907Y-105879461D01*
X126854665Y-105940617D01*
X126854656Y-105940621D01*
X126640492Y-106040487D01*
X126640490Y-106040488D01*
X126446918Y-106176028D01*
X126279826Y-106343120D01*
X126149896Y-106528681D01*
X126095319Y-106572306D01*
X126025821Y-106579500D01*
X125963466Y-106547977D01*
X125946746Y-106528681D01*
X125816815Y-106343120D01*
X125649723Y-106176029D01*
X125649716Y-106176024D01*
X125640994Y-106169917D01*
X125572839Y-106122194D01*
X125456155Y-106040490D01*
X125456151Y-106040488D01*
X125436810Y-106031469D01*
X125241984Y-105940620D01*
X125241980Y-105940619D01*
X125241976Y-105940617D01*
X125013734Y-105879461D01*
X125013724Y-105879459D01*
X124778322Y-105858864D01*
X124778320Y-105858864D01*
X124542917Y-105879459D01*
X124542907Y-105879461D01*
X124314665Y-105940617D01*
X124314656Y-105940621D01*
X124100492Y-106040487D01*
X124100490Y-106040488D01*
X123906921Y-106176026D01*
X123784994Y-106297953D01*
X123723671Y-106331437D01*
X123653979Y-106326453D01*
X123598046Y-106284581D01*
X123581131Y-106253604D01*
X123532118Y-106122194D01*
X123532114Y-106122187D01*
X123445868Y-106006978D01*
X123445865Y-106006975D01*
X123330656Y-105920729D01*
X123330649Y-105920725D01*
X123195803Y-105870431D01*
X123195804Y-105870431D01*
X123136204Y-105864024D01*
X123136202Y-105864023D01*
X123136194Y-105864023D01*
X123136185Y-105864023D01*
X121340450Y-105864023D01*
X121340444Y-105864024D01*
X121280837Y-105870431D01*
X121145992Y-105920725D01*
X121145985Y-105920729D01*
X121030776Y-106006975D01*
X121030773Y-106006978D01*
X120944527Y-106122187D01*
X120944523Y-106122194D01*
X120894229Y-106257040D01*
X120887822Y-106316639D01*
X120887821Y-106316658D01*
X51161835Y-106316658D01*
X51161835Y-94509106D01*
X62519991Y-94509106D01*
X62519991Y-94509109D01*
X62539823Y-94735794D01*
X62539825Y-94735805D01*
X62598717Y-94955596D01*
X62598720Y-94955605D01*
X62694890Y-95161840D01*
X62694891Y-95161842D01*
X62825413Y-95348249D01*
X62986317Y-95509153D01*
X62986320Y-95509155D01*
X63172725Y-95639676D01*
X63378963Y-95735847D01*
X63598767Y-95794743D01*
X63760689Y-95808909D01*
X63825457Y-95814576D01*
X63825459Y-95814576D01*
X63825461Y-95814576D01*
X63882132Y-95809617D01*
X64052151Y-95794743D01*
X64271955Y-95735847D01*
X64478193Y-95639676D01*
X64664598Y-95509155D01*
X64825506Y-95348247D01*
X64956027Y-95161842D01*
X64983077Y-95103832D01*
X65029249Y-95051393D01*
X65096442Y-95032241D01*
X65163324Y-95052456D01*
X65207841Y-95103833D01*
X65234888Y-95161836D01*
X65234891Y-95161842D01*
X65365413Y-95348249D01*
X65526317Y-95509153D01*
X65526320Y-95509155D01*
X65712725Y-95639676D01*
X65918963Y-95735847D01*
X66138767Y-95794743D01*
X66300689Y-95808909D01*
X66365457Y-95814576D01*
X66365459Y-95814576D01*
X66365461Y-95814576D01*
X66422132Y-95809617D01*
X66592151Y-95794743D01*
X66811955Y-95735847D01*
X67018193Y-95639676D01*
X67204598Y-95509155D01*
X67365506Y-95348247D01*
X67496027Y-95161842D01*
X67523077Y-95103832D01*
X67569249Y-95051393D01*
X67636442Y-95032241D01*
X67703324Y-95052456D01*
X67747841Y-95103833D01*
X67774888Y-95161836D01*
X67774891Y-95161842D01*
X67905413Y-95348249D01*
X68066317Y-95509153D01*
X68066320Y-95509155D01*
X68252725Y-95639676D01*
X68458963Y-95735847D01*
X68678767Y-95794743D01*
X68840689Y-95808909D01*
X68905457Y-95814576D01*
X68905459Y-95814576D01*
X68905461Y-95814576D01*
X68962132Y-95809617D01*
X69132151Y-95794743D01*
X69351955Y-95735847D01*
X69558193Y-95639676D01*
X69744598Y-95509155D01*
X69905506Y-95348247D01*
X70036027Y-95161842D01*
X70063077Y-95103832D01*
X70109249Y-95051393D01*
X70176442Y-95032241D01*
X70243324Y-95052456D01*
X70287841Y-95103833D01*
X70314888Y-95161836D01*
X70314891Y-95161842D01*
X70445413Y-95348249D01*
X70606317Y-95509153D01*
X70606320Y-95509155D01*
X70792725Y-95639676D01*
X70998963Y-95735847D01*
X71218767Y-95794743D01*
X71380689Y-95808909D01*
X71445457Y-95814576D01*
X71445459Y-95814576D01*
X71445461Y-95814576D01*
X71502132Y-95809617D01*
X71672151Y-95794743D01*
X71891955Y-95735847D01*
X72098193Y-95639676D01*
X72284598Y-95509155D01*
X72445506Y-95348247D01*
X72576027Y-95161842D01*
X72672198Y-94955604D01*
X72731094Y-94735800D01*
X72747307Y-94550483D01*
X93058291Y-94550483D01*
X93058291Y-94550486D01*
X93078123Y-94777171D01*
X93078125Y-94777182D01*
X93137017Y-94996973D01*
X93137020Y-94996982D01*
X93233190Y-95203217D01*
X93233191Y-95203219D01*
X93363713Y-95389626D01*
X93524617Y-95550530D01*
X93524620Y-95550532D01*
X93711025Y-95681053D01*
X93917263Y-95777224D01*
X94137067Y-95836120D01*
X94298989Y-95850286D01*
X94363757Y-95855953D01*
X94363759Y-95855953D01*
X94363761Y-95855953D01*
X94420432Y-95850994D01*
X94590451Y-95836120D01*
X94810255Y-95777224D01*
X95016493Y-95681053D01*
X95202898Y-95550532D01*
X95363806Y-95389624D01*
X95494327Y-95203219D01*
X95521377Y-95145209D01*
X95567549Y-95092770D01*
X95634742Y-95073618D01*
X95701624Y-95093833D01*
X95746140Y-95145209D01*
X95760276Y-95175523D01*
X95773188Y-95203213D01*
X95773191Y-95203219D01*
X95903713Y-95389626D01*
X96064617Y-95550530D01*
X96064620Y-95550532D01*
X96251025Y-95681053D01*
X96457263Y-95777224D01*
X96677067Y-95836120D01*
X96838989Y-95850286D01*
X96903757Y-95855953D01*
X96903759Y-95855953D01*
X96903761Y-95855953D01*
X96960432Y-95850994D01*
X97130451Y-95836120D01*
X97350255Y-95777224D01*
X97556493Y-95681053D01*
X97742898Y-95550532D01*
X97903806Y-95389624D01*
X98034327Y-95203219D01*
X98061377Y-95145209D01*
X98107549Y-95092770D01*
X98174742Y-95073618D01*
X98241624Y-95093833D01*
X98286140Y-95145209D01*
X98300276Y-95175523D01*
X98313188Y-95203213D01*
X98313191Y-95203219D01*
X98443713Y-95389626D01*
X98604618Y-95550531D01*
X98640380Y-95575571D01*
X98684006Y-95630147D01*
X98693259Y-95677147D01*
X98693259Y-99934403D01*
X98693259Y-99934405D01*
X98693258Y-99934405D01*
X98722099Y-100079392D01*
X98722102Y-100079402D01*
X98778673Y-100215977D01*
X98811571Y-100265212D01*
X98811572Y-100265215D01*
X98860805Y-100338899D01*
X98860811Y-100338906D01*
X101224716Y-102702810D01*
X101224718Y-102702812D01*
X101254190Y-102722503D01*
X101298402Y-102752044D01*
X101347637Y-102784942D01*
X101347638Y-102784942D01*
X101347639Y-102784943D01*
X101347641Y-102784944D01*
X101484214Y-102841514D01*
X101484219Y-102841516D01*
X101484223Y-102841516D01*
X101484224Y-102841517D01*
X101629211Y-102870358D01*
X101629214Y-102870358D01*
X101629215Y-102870358D01*
X101777049Y-102870358D01*
X121109392Y-102870358D01*
X121176431Y-102890043D01*
X121210967Y-102923235D01*
X121236009Y-102958999D01*
X121396913Y-103119903D01*
X121396916Y-103119905D01*
X121583321Y-103250426D01*
X121789559Y-103346597D01*
X121789564Y-103346598D01*
X121789566Y-103346599D01*
X121842470Y-103360774D01*
X122009363Y-103405493D01*
X122171285Y-103419659D01*
X122236053Y-103425326D01*
X122236055Y-103425326D01*
X122236057Y-103425326D01*
X122292728Y-103420367D01*
X122462747Y-103405493D01*
X122682551Y-103346597D01*
X122888789Y-103250426D01*
X123075194Y-103119905D01*
X123236102Y-102958997D01*
X123366623Y-102772592D01*
X123462794Y-102566354D01*
X123521690Y-102346550D01*
X123541523Y-102119858D01*
X123541523Y-102119855D01*
X128551089Y-102119855D01*
X128551089Y-102119860D01*
X128570913Y-102346457D01*
X128570915Y-102346468D01*
X128629785Y-102566175D01*
X128629790Y-102566189D01*
X128725918Y-102772336D01*
X128777029Y-102845330D01*
X129456055Y-102166304D01*
X129456055Y-102172519D01*
X129483314Y-102274252D01*
X129535975Y-102365464D01*
X129610449Y-102439938D01*
X129701661Y-102492599D01*
X129803394Y-102519858D01*
X129809608Y-102519858D01*
X129130581Y-103198883D01*
X129203568Y-103249990D01*
X129203576Y-103249994D01*
X129409723Y-103346122D01*
X129409737Y-103346127D01*
X129629444Y-103404997D01*
X129629455Y-103404999D01*
X129856053Y-103424824D01*
X129856057Y-103424824D01*
X130082654Y-103404999D01*
X130082665Y-103404997D01*
X130302372Y-103346127D01*
X130302386Y-103346122D01*
X130508533Y-103249994D01*
X130581526Y-103198882D01*
X129902502Y-102519858D01*
X129908716Y-102519858D01*
X130010449Y-102492599D01*
X130101661Y-102439938D01*
X130176135Y-102365464D01*
X130228796Y-102274252D01*
X130256055Y-102172519D01*
X130256055Y-102166305D01*
X130935079Y-102845329D01*
X130986191Y-102772336D01*
X131082319Y-102566189D01*
X131082324Y-102566175D01*
X131141194Y-102346468D01*
X131141196Y-102346457D01*
X131161021Y-102119860D01*
X131161021Y-102119855D01*
X131141196Y-101893258D01*
X131141194Y-101893247D01*
X131082324Y-101673540D01*
X131082319Y-101673526D01*
X130986191Y-101467379D01*
X130986187Y-101467371D01*
X130935080Y-101394384D01*
X130256055Y-102073409D01*
X130256055Y-102067197D01*
X130228796Y-101965464D01*
X130176135Y-101874252D01*
X130101661Y-101799778D01*
X130010449Y-101747117D01*
X129908716Y-101719858D01*
X129902500Y-101719858D01*
X130581527Y-101040832D01*
X130508533Y-100989721D01*
X130302386Y-100893593D01*
X130302372Y-100893588D01*
X130082665Y-100834718D01*
X130082654Y-100834716D01*
X129856057Y-100814892D01*
X129856053Y-100814892D01*
X129629455Y-100834716D01*
X129629444Y-100834718D01*
X129409737Y-100893588D01*
X129409728Y-100893592D01*
X129203571Y-100989724D01*
X129203567Y-100989726D01*
X129130581Y-101040831D01*
X129130581Y-101040832D01*
X129809608Y-101719858D01*
X129803394Y-101719858D01*
X129701661Y-101747117D01*
X129610449Y-101799778D01*
X129535975Y-101874252D01*
X129483314Y-101965464D01*
X129456055Y-102067197D01*
X129456055Y-102073410D01*
X128777029Y-101394384D01*
X128777028Y-101394384D01*
X128725923Y-101467370D01*
X128725921Y-101467374D01*
X128629789Y-101673531D01*
X128629785Y-101673540D01*
X128570915Y-101893247D01*
X128570913Y-101893258D01*
X128551089Y-102119855D01*
X123541523Y-102119855D01*
X123521690Y-101893166D01*
X123462794Y-101673362D01*
X123366623Y-101467124D01*
X123236102Y-101280719D01*
X123236100Y-101280716D01*
X123075196Y-101119812D01*
X122888789Y-100989290D01*
X122888787Y-100989289D01*
X122682552Y-100893119D01*
X122682543Y-100893116D01*
X122462752Y-100834224D01*
X122462748Y-100834223D01*
X122462747Y-100834223D01*
X122462746Y-100834222D01*
X122462741Y-100834222D01*
X122236057Y-100814390D01*
X122236053Y-100814390D01*
X122009368Y-100834222D01*
X122009357Y-100834224D01*
X121789566Y-100893116D01*
X121789557Y-100893119D01*
X121583322Y-100989289D01*
X121583320Y-100989290D01*
X121396913Y-101119812D01*
X121236009Y-101280716D01*
X121210967Y-101316481D01*
X121156390Y-101360106D01*
X121109392Y-101369358D01*
X102065362Y-101369358D01*
X101998323Y-101349673D01*
X101977681Y-101333039D01*
X100325125Y-99680483D01*
X136168291Y-99680483D01*
X136168291Y-99680486D01*
X136188123Y-99907171D01*
X136188125Y-99907182D01*
X136247017Y-100126973D01*
X136247020Y-100126982D01*
X136343190Y-100333217D01*
X136343191Y-100333219D01*
X136473713Y-100519626D01*
X136634617Y-100680530D01*
X136634620Y-100680532D01*
X136821025Y-100811053D01*
X136879034Y-100838103D01*
X136931473Y-100884276D01*
X136950625Y-100951469D01*
X136930409Y-101018350D01*
X136879034Y-101062867D01*
X136821026Y-101089916D01*
X136821024Y-101089917D01*
X136634617Y-101220439D01*
X136473713Y-101381343D01*
X136343191Y-101567750D01*
X136343190Y-101567752D01*
X136247020Y-101773987D01*
X136247017Y-101773996D01*
X136188125Y-101993787D01*
X136188123Y-101993798D01*
X136168291Y-102220483D01*
X136168291Y-102220486D01*
X136188123Y-102447171D01*
X136188125Y-102447182D01*
X136247017Y-102666973D01*
X136247020Y-102666982D01*
X136343190Y-102873217D01*
X136343191Y-102873219D01*
X136473713Y-103059626D01*
X136634617Y-103220530D01*
X136634620Y-103220532D01*
X136821025Y-103351053D01*
X136879034Y-103378103D01*
X136931473Y-103424276D01*
X136950625Y-103491469D01*
X136930409Y-103558350D01*
X136879034Y-103602867D01*
X136821026Y-103629916D01*
X136821024Y-103629917D01*
X136634617Y-103760439D01*
X136473713Y-103921343D01*
X136343191Y-104107750D01*
X136343190Y-104107752D01*
X136247020Y-104313987D01*
X136247017Y-104313996D01*
X136188125Y-104533787D01*
X136188123Y-104533798D01*
X136168291Y-104760483D01*
X136168291Y-104760486D01*
X136188123Y-104987171D01*
X136188125Y-104987182D01*
X136247017Y-105206973D01*
X136247020Y-105206982D01*
X136343190Y-105413217D01*
X136343191Y-105413219D01*
X136473713Y-105599626D01*
X136634617Y-105760530D01*
X136634620Y-105760532D01*
X136821025Y-105891053D01*
X136879034Y-105918103D01*
X136931473Y-105964276D01*
X136950625Y-106031469D01*
X136930409Y-106098350D01*
X136879034Y-106142867D01*
X136821026Y-106169916D01*
X136821024Y-106169917D01*
X136634617Y-106300439D01*
X136473713Y-106461343D01*
X136343191Y-106647750D01*
X136343190Y-106647752D01*
X136247020Y-106853987D01*
X136247017Y-106853996D01*
X136188125Y-107073787D01*
X136188123Y-107073798D01*
X136168291Y-107300483D01*
X136168291Y-107300486D01*
X136188123Y-107527171D01*
X136188125Y-107527182D01*
X136247017Y-107746973D01*
X136247020Y-107746982D01*
X136343190Y-107953217D01*
X136343191Y-107953219D01*
X136473713Y-108139626D01*
X136634617Y-108300530D01*
X136681452Y-108333324D01*
X136821025Y-108431053D01*
X136879034Y-108458103D01*
X136931473Y-108504276D01*
X136950625Y-108571469D01*
X136930409Y-108638350D01*
X136879034Y-108682867D01*
X136821026Y-108709916D01*
X136821024Y-108709917D01*
X136634617Y-108840439D01*
X136473713Y-109001343D01*
X136343191Y-109187750D01*
X136343190Y-109187752D01*
X136247020Y-109393987D01*
X136247017Y-109393996D01*
X136188125Y-109613787D01*
X136188123Y-109613798D01*
X136168291Y-109840483D01*
X136168291Y-109840486D01*
X136188123Y-110067171D01*
X136188125Y-110067182D01*
X136247017Y-110286973D01*
X136247020Y-110286982D01*
X136343190Y-110493217D01*
X136343191Y-110493219D01*
X136473713Y-110679626D01*
X136634617Y-110840530D01*
X136634620Y-110840532D01*
X136821025Y-110971053D01*
X137027263Y-111067224D01*
X137027268Y-111067225D01*
X137027270Y-111067226D01*
X137080174Y-111081401D01*
X137247067Y-111126120D01*
X137408989Y-111140286D01*
X137473757Y-111145953D01*
X137473759Y-111145953D01*
X137473761Y-111145953D01*
X137530432Y-111140994D01*
X137700451Y-111126120D01*
X137920255Y-111067224D01*
X138126493Y-110971053D01*
X138312898Y-110840532D01*
X138473806Y-110679624D01*
X138604327Y-110493219D01*
X138700498Y-110286981D01*
X138759394Y-110067177D01*
X138779227Y-109840485D01*
X138759394Y-109613793D01*
X138700498Y-109393989D01*
X138604327Y-109187751D01*
X138473806Y-109001346D01*
X138473804Y-109001343D01*
X138312900Y-108840439D01*
X138126493Y-108709917D01*
X138126487Y-108709914D01*
X138068484Y-108682867D01*
X138016044Y-108636695D01*
X137996892Y-108569502D01*
X138017107Y-108502620D01*
X138068484Y-108458103D01*
X138126493Y-108431053D01*
X138312898Y-108300532D01*
X138473806Y-108139624D01*
X138604327Y-107953219D01*
X138700498Y-107746981D01*
X138759394Y-107527177D01*
X138779227Y-107300485D01*
X138759394Y-107073793D01*
X138700498Y-106853989D01*
X138604327Y-106647751D01*
X138473806Y-106461346D01*
X138473804Y-106461343D01*
X138312900Y-106300439D01*
X138126493Y-106169917D01*
X138126487Y-106169914D01*
X138068484Y-106142867D01*
X138016044Y-106096695D01*
X137996892Y-106029502D01*
X138017107Y-105962620D01*
X138068484Y-105918103D01*
X138126493Y-105891053D01*
X138312898Y-105760532D01*
X138473806Y-105599624D01*
X138604327Y-105413219D01*
X138700498Y-105206981D01*
X138759394Y-104987177D01*
X138779227Y-104760485D01*
X138759394Y-104533793D01*
X138700498Y-104313989D01*
X138604327Y-104107751D01*
X138473806Y-103921346D01*
X138473804Y-103921343D01*
X138312900Y-103760439D01*
X138126493Y-103629917D01*
X138126487Y-103629914D01*
X138068484Y-103602867D01*
X138016044Y-103556695D01*
X137996892Y-103489502D01*
X138017107Y-103422620D01*
X138068484Y-103378103D01*
X138126493Y-103351053D01*
X138312898Y-103220532D01*
X138473806Y-103059624D01*
X138604327Y-102873219D01*
X138700498Y-102666981D01*
X138759394Y-102447177D01*
X138779227Y-102220485D01*
X138759394Y-101993793D01*
X138700498Y-101773989D01*
X138604327Y-101567751D01*
X138473806Y-101381346D01*
X138473804Y-101381343D01*
X138312900Y-101220439D01*
X138126493Y-101089917D01*
X138126487Y-101089914D01*
X138068484Y-101062867D01*
X138016044Y-101016695D01*
X137996892Y-100949502D01*
X138017107Y-100882620D01*
X138068484Y-100838103D01*
X138126493Y-100811053D01*
X138312898Y-100680532D01*
X138473806Y-100519624D01*
X138604327Y-100333219D01*
X138700498Y-100126981D01*
X138759394Y-99907177D01*
X138779227Y-99680485D01*
X138759394Y-99453793D01*
X138700498Y-99233989D01*
X138604327Y-99027751D01*
X138473806Y-98841346D01*
X138473804Y-98841343D01*
X138312900Y-98680439D01*
X138126493Y-98549917D01*
X138126491Y-98549916D01*
X138115034Y-98544573D01*
X138067891Y-98522590D01*
X138015453Y-98476419D01*
X137996301Y-98409225D01*
X138016517Y-98342344D01*
X138067893Y-98297826D01*
X138126243Y-98270617D01*
X138312579Y-98140142D01*
X138473416Y-97979305D01*
X138603893Y-97792967D01*
X138700024Y-97586811D01*
X138700028Y-97586802D01*
X138752631Y-97390485D01*
X137906771Y-97390485D01*
X137939684Y-97333478D01*
X137973759Y-97206311D01*
X137973759Y-97074659D01*
X137939684Y-96947492D01*
X137906771Y-96890485D01*
X138752631Y-96890485D01*
X138752631Y-96890484D01*
X138700028Y-96694167D01*
X138700024Y-96694158D01*
X138603893Y-96488002D01*
X138473416Y-96301664D01*
X138312579Y-96140827D01*
X138126241Y-96010350D01*
X137920087Y-95914219D01*
X137723759Y-95861612D01*
X137723759Y-96707473D01*
X137666752Y-96674560D01*
X137539585Y-96640485D01*
X137407933Y-96640485D01*
X137280766Y-96674560D01*
X137223759Y-96707473D01*
X137223759Y-95861612D01*
X137027430Y-95914219D01*
X136821276Y-96010350D01*
X136634938Y-96140827D01*
X136474101Y-96301664D01*
X136343624Y-96488002D01*
X136247493Y-96694158D01*
X136247489Y-96694167D01*
X136194886Y-96890484D01*
X136194887Y-96890485D01*
X137040747Y-96890485D01*
X137007834Y-96947492D01*
X136973759Y-97074659D01*
X136973759Y-97206311D01*
X137007834Y-97333478D01*
X137040747Y-97390485D01*
X136194887Y-97390485D01*
X136247489Y-97586802D01*
X136247493Y-97586811D01*
X136343624Y-97792967D01*
X136474101Y-97979305D01*
X136634938Y-98140142D01*
X136821277Y-98270619D01*
X136821279Y-98270620D01*
X136879624Y-98297827D01*
X136932064Y-98343999D01*
X136951216Y-98411192D01*
X136931001Y-98478074D01*
X136879626Y-98522590D01*
X136821027Y-98549916D01*
X136821023Y-98549918D01*
X136634617Y-98680439D01*
X136473713Y-98841343D01*
X136343191Y-99027750D01*
X136343190Y-99027752D01*
X136247020Y-99233987D01*
X136247017Y-99233996D01*
X136188125Y-99453787D01*
X136188123Y-99453798D01*
X136168291Y-99680483D01*
X100325125Y-99680483D01*
X100230578Y-99585936D01*
X100197093Y-99524613D01*
X100194259Y-99498255D01*
X100194259Y-95677147D01*
X100213944Y-95610108D01*
X100247138Y-95575571D01*
X100282899Y-95550531D01*
X100443804Y-95389626D01*
X100443806Y-95389624D01*
X100574327Y-95203219D01*
X100601377Y-95145209D01*
X100647549Y-95092770D01*
X100714742Y-95073618D01*
X100781624Y-95093833D01*
X100826140Y-95145209D01*
X100840276Y-95175523D01*
X100853188Y-95203213D01*
X100853191Y-95203219D01*
X100983713Y-95389626D01*
X101144618Y-95550531D01*
X101180380Y-95575571D01*
X101224006Y-95630147D01*
X101233259Y-95677147D01*
X101233259Y-96274403D01*
X101233259Y-96274405D01*
X101233258Y-96274405D01*
X101262099Y-96419392D01*
X101262102Y-96419402D01*
X101318672Y-96555975D01*
X101318673Y-96555976D01*
X101318675Y-96555980D01*
X101343618Y-96593309D01*
X101343619Y-96593311D01*
X101400810Y-96678905D01*
X101400811Y-96678906D01*
X102324712Y-97602806D01*
X102324716Y-97602809D01*
X102447630Y-97684938D01*
X102447643Y-97684945D01*
X102584214Y-97741514D01*
X102584219Y-97741516D01*
X102584223Y-97741516D01*
X102584224Y-97741517D01*
X102729211Y-97770358D01*
X102729214Y-97770358D01*
X102877049Y-97770358D01*
X121119392Y-97770358D01*
X121186431Y-97790043D01*
X121220967Y-97823235D01*
X121246009Y-97858999D01*
X121406913Y-98019903D01*
X121406916Y-98019905D01*
X121593321Y-98150426D01*
X121799559Y-98246597D01*
X122019363Y-98305493D01*
X122181285Y-98319659D01*
X122246053Y-98325326D01*
X122246055Y-98325326D01*
X122246057Y-98325326D01*
X122302728Y-98320367D01*
X122472747Y-98305493D01*
X122692551Y-98246597D01*
X122898789Y-98150426D01*
X123085194Y-98019905D01*
X123246102Y-97858997D01*
X123376623Y-97672592D01*
X123472794Y-97466354D01*
X123531690Y-97246550D01*
X123551523Y-97019858D01*
X123551523Y-97019855D01*
X128561089Y-97019855D01*
X128561089Y-97019860D01*
X128580913Y-97246457D01*
X128580915Y-97246468D01*
X128639785Y-97466175D01*
X128639790Y-97466189D01*
X128735918Y-97672336D01*
X128787029Y-97745330D01*
X129466055Y-97066304D01*
X129466055Y-97072519D01*
X129493314Y-97174252D01*
X129545975Y-97265464D01*
X129620449Y-97339938D01*
X129711661Y-97392599D01*
X129813394Y-97419858D01*
X129819608Y-97419858D01*
X129140581Y-98098883D01*
X129213568Y-98149990D01*
X129213576Y-98149994D01*
X129419723Y-98246122D01*
X129419737Y-98246127D01*
X129639444Y-98304997D01*
X129639455Y-98304999D01*
X129866053Y-98324824D01*
X129866057Y-98324824D01*
X130092654Y-98304999D01*
X130092665Y-98304997D01*
X130312372Y-98246127D01*
X130312386Y-98246122D01*
X130518533Y-98149994D01*
X130591526Y-98098882D01*
X129912502Y-97419858D01*
X129918716Y-97419858D01*
X130020449Y-97392599D01*
X130111661Y-97339938D01*
X130186135Y-97265464D01*
X130238796Y-97174252D01*
X130266055Y-97072519D01*
X130266055Y-97066305D01*
X130945079Y-97745329D01*
X130996191Y-97672336D01*
X131092319Y-97466189D01*
X131092324Y-97466175D01*
X131151194Y-97246468D01*
X131151196Y-97246457D01*
X131171021Y-97019860D01*
X131171021Y-97019855D01*
X131151196Y-96793258D01*
X131151194Y-96793247D01*
X131092324Y-96573540D01*
X131092319Y-96573526D01*
X130996191Y-96367379D01*
X130996187Y-96367371D01*
X130945080Y-96294384D01*
X130266055Y-96973409D01*
X130266055Y-96967197D01*
X130238796Y-96865464D01*
X130186135Y-96774252D01*
X130111661Y-96699778D01*
X130020449Y-96647117D01*
X129918716Y-96619858D01*
X129912500Y-96619858D01*
X130591527Y-95940832D01*
X130518533Y-95889721D01*
X130312386Y-95793593D01*
X130312372Y-95793588D01*
X130092665Y-95734718D01*
X130092654Y-95734716D01*
X129866057Y-95714892D01*
X129866053Y-95714892D01*
X129639455Y-95734716D01*
X129639444Y-95734718D01*
X129419737Y-95793588D01*
X129419728Y-95793592D01*
X129213571Y-95889724D01*
X129213567Y-95889726D01*
X129140581Y-95940831D01*
X129140581Y-95940832D01*
X129819608Y-96619858D01*
X129813394Y-96619858D01*
X129711661Y-96647117D01*
X129620449Y-96699778D01*
X129545975Y-96774252D01*
X129493314Y-96865464D01*
X129466055Y-96967197D01*
X129466055Y-96973410D01*
X128787029Y-96294384D01*
X128787028Y-96294384D01*
X128735923Y-96367370D01*
X128735921Y-96367374D01*
X128639789Y-96573531D01*
X128639785Y-96573540D01*
X128580915Y-96793247D01*
X128580913Y-96793258D01*
X128561089Y-97019855D01*
X123551523Y-97019855D01*
X123531690Y-96793166D01*
X123472794Y-96573362D01*
X123376623Y-96367124D01*
X123246102Y-96180719D01*
X123246100Y-96180716D01*
X123085196Y-96019812D01*
X122898789Y-95889290D01*
X122898787Y-95889289D01*
X122692552Y-95793119D01*
X122692543Y-95793116D01*
X122472752Y-95734224D01*
X122472748Y-95734223D01*
X122472747Y-95734223D01*
X122472746Y-95734222D01*
X122472741Y-95734222D01*
X122246057Y-95714390D01*
X122246053Y-95714390D01*
X122019368Y-95734222D01*
X122019357Y-95734224D01*
X121799566Y-95793116D01*
X121799557Y-95793119D01*
X121593322Y-95889289D01*
X121593320Y-95889290D01*
X121406913Y-96019812D01*
X121246009Y-96180716D01*
X121220967Y-96216481D01*
X121166390Y-96260106D01*
X121119392Y-96269358D01*
X103165361Y-96269358D01*
X103098322Y-96249673D01*
X103077680Y-96233039D01*
X102770578Y-95925936D01*
X102737093Y-95864613D01*
X102734259Y-95838255D01*
X102734259Y-95677147D01*
X102753944Y-95610108D01*
X102787138Y-95575571D01*
X102822899Y-95550531D01*
X102983804Y-95389626D01*
X102983806Y-95389624D01*
X103114327Y-95203219D01*
X103141377Y-95145209D01*
X103187549Y-95092770D01*
X103254742Y-95073618D01*
X103321624Y-95093833D01*
X103366140Y-95145209D01*
X103380276Y-95175523D01*
X103393188Y-95203213D01*
X103393191Y-95203219D01*
X103523713Y-95389626D01*
X103684617Y-95550530D01*
X103684620Y-95550532D01*
X103871025Y-95681053D01*
X104077263Y-95777224D01*
X104297067Y-95836120D01*
X104458989Y-95850286D01*
X104523757Y-95855953D01*
X104523759Y-95855953D01*
X104523761Y-95855953D01*
X104580432Y-95850994D01*
X104750451Y-95836120D01*
X104970255Y-95777224D01*
X105176493Y-95681053D01*
X105362898Y-95550532D01*
X105523806Y-95389624D01*
X105654327Y-95203219D01*
X105681654Y-95144614D01*
X105727823Y-95092180D01*
X105795016Y-95073027D01*
X105861898Y-95093242D01*
X105906416Y-95144618D01*
X105933624Y-95202967D01*
X106064101Y-95389305D01*
X106224938Y-95550142D01*
X106411276Y-95680619D01*
X106617432Y-95776750D01*
X106617441Y-95776754D01*
X106813758Y-95829357D01*
X106813759Y-95829356D01*
X106813759Y-94983497D01*
X106870766Y-95016410D01*
X106997933Y-95050485D01*
X107129585Y-95050485D01*
X107256752Y-95016410D01*
X107313759Y-94983497D01*
X107313759Y-95829357D01*
X107510076Y-95776754D01*
X107510085Y-95776750D01*
X107716241Y-95680619D01*
X107902579Y-95550142D01*
X108063416Y-95389305D01*
X108193893Y-95202967D01*
X108290024Y-94996811D01*
X108290028Y-94996802D01*
X108342631Y-94800485D01*
X107496771Y-94800485D01*
X107529684Y-94743478D01*
X107563759Y-94616311D01*
X107563759Y-94484659D01*
X107529684Y-94357492D01*
X107496771Y-94300485D01*
X108342631Y-94300485D01*
X108342631Y-94300484D01*
X108290028Y-94104167D01*
X108290024Y-94104158D01*
X108193893Y-93898002D01*
X108063416Y-93711664D01*
X107902579Y-93550827D01*
X107716241Y-93420350D01*
X107510087Y-93324219D01*
X107313759Y-93271612D01*
X107313759Y-94117473D01*
X107256752Y-94084560D01*
X107129585Y-94050485D01*
X106997933Y-94050485D01*
X106870766Y-94084560D01*
X106813759Y-94117473D01*
X106813759Y-93271612D01*
X106617430Y-93324219D01*
X106411276Y-93420350D01*
X106224938Y-93550827D01*
X106064101Y-93711664D01*
X105933626Y-93898000D01*
X105906416Y-93956352D01*
X105860243Y-94008791D01*
X105793049Y-94027942D01*
X105726168Y-94007726D01*
X105681652Y-93956350D01*
X105662082Y-93914383D01*
X105654327Y-93897751D01*
X105523806Y-93711346D01*
X105523804Y-93711343D01*
X105362900Y-93550439D01*
X105176493Y-93419917D01*
X105176491Y-93419916D01*
X104970256Y-93323746D01*
X104970247Y-93323743D01*
X104750456Y-93264851D01*
X104750452Y-93264850D01*
X104750451Y-93264850D01*
X104750450Y-93264849D01*
X104750445Y-93264849D01*
X104523761Y-93245017D01*
X104523757Y-93245017D01*
X104297072Y-93264849D01*
X104297061Y-93264851D01*
X104077270Y-93323743D01*
X104077261Y-93323746D01*
X103871026Y-93419916D01*
X103871024Y-93419917D01*
X103684617Y-93550439D01*
X103523713Y-93711343D01*
X103393191Y-93897750D01*
X103393190Y-93897752D01*
X103366141Y-93955760D01*
X103319968Y-94008199D01*
X103252775Y-94027351D01*
X103185894Y-94007135D01*
X103141377Y-93955760D01*
X103114327Y-93897751D01*
X102983806Y-93711346D01*
X102983804Y-93711343D01*
X102822900Y-93550439D01*
X102636493Y-93419917D01*
X102636491Y-93419916D01*
X102430256Y-93323746D01*
X102430247Y-93323743D01*
X102210456Y-93264851D01*
X102210452Y-93264850D01*
X102210451Y-93264850D01*
X102210450Y-93264849D01*
X102210445Y-93264849D01*
X101983761Y-93245017D01*
X101983757Y-93245017D01*
X101757072Y-93264849D01*
X101757061Y-93264851D01*
X101537270Y-93323743D01*
X101537261Y-93323746D01*
X101331026Y-93419916D01*
X101331024Y-93419917D01*
X101144617Y-93550439D01*
X100983713Y-93711343D01*
X100853191Y-93897750D01*
X100853190Y-93897752D01*
X100826141Y-93955760D01*
X100779968Y-94008199D01*
X100712775Y-94027351D01*
X100645894Y-94007135D01*
X100601377Y-93955760D01*
X100574327Y-93897751D01*
X100443806Y-93711346D01*
X100443804Y-93711343D01*
X100282900Y-93550439D01*
X100096493Y-93419917D01*
X100096491Y-93419916D01*
X99890256Y-93323746D01*
X99890247Y-93323743D01*
X99670456Y-93264851D01*
X99670452Y-93264850D01*
X99670451Y-93264850D01*
X99670450Y-93264849D01*
X99670445Y-93264849D01*
X99443761Y-93245017D01*
X99443757Y-93245017D01*
X99217072Y-93264849D01*
X99217061Y-93264851D01*
X98997270Y-93323743D01*
X98997261Y-93323746D01*
X98791026Y-93419916D01*
X98791024Y-93419917D01*
X98604617Y-93550439D01*
X98443713Y-93711343D01*
X98313191Y-93897750D01*
X98313190Y-93897752D01*
X98286141Y-93955760D01*
X98239968Y-94008199D01*
X98172775Y-94027351D01*
X98105894Y-94007135D01*
X98061377Y-93955760D01*
X98034327Y-93897751D01*
X97903806Y-93711346D01*
X97903804Y-93711343D01*
X97742900Y-93550439D01*
X97556493Y-93419917D01*
X97556491Y-93419916D01*
X97350256Y-93323746D01*
X97350247Y-93323743D01*
X97130456Y-93264851D01*
X97130452Y-93264850D01*
X97130451Y-93264850D01*
X97130450Y-93264849D01*
X97130445Y-93264849D01*
X96903761Y-93245017D01*
X96903757Y-93245017D01*
X96677072Y-93264849D01*
X96677061Y-93264851D01*
X96457270Y-93323743D01*
X96457261Y-93323746D01*
X96251026Y-93419916D01*
X96251024Y-93419917D01*
X96064617Y-93550439D01*
X95903713Y-93711343D01*
X95773191Y-93897750D01*
X95773190Y-93897752D01*
X95746141Y-93955760D01*
X95699968Y-94008199D01*
X95632775Y-94027351D01*
X95565894Y-94007135D01*
X95521377Y-93955760D01*
X95494327Y-93897751D01*
X95363806Y-93711346D01*
X95363804Y-93711343D01*
X95202900Y-93550439D01*
X95016493Y-93419917D01*
X95016491Y-93419916D01*
X94810256Y-93323746D01*
X94810247Y-93323743D01*
X94590456Y-93264851D01*
X94590452Y-93264850D01*
X94590451Y-93264850D01*
X94590450Y-93264849D01*
X94590445Y-93264849D01*
X94363761Y-93245017D01*
X94363757Y-93245017D01*
X94137072Y-93264849D01*
X94137061Y-93264851D01*
X93917270Y-93323743D01*
X93917261Y-93323746D01*
X93711026Y-93419916D01*
X93711024Y-93419917D01*
X93524617Y-93550439D01*
X93363713Y-93711343D01*
X93233191Y-93897750D01*
X93233190Y-93897752D01*
X93137020Y-94103987D01*
X93137017Y-94103996D01*
X93078125Y-94323787D01*
X93078123Y-94323798D01*
X93058291Y-94550483D01*
X72747307Y-94550483D01*
X72750927Y-94509108D01*
X72731094Y-94282416D01*
X72672198Y-94062612D01*
X72576027Y-93856374D01*
X72445506Y-93669969D01*
X72445504Y-93669966D01*
X72284600Y-93509062D01*
X72098193Y-93378540D01*
X72098191Y-93378539D01*
X71891956Y-93282369D01*
X71891947Y-93282366D01*
X71672156Y-93223474D01*
X71672152Y-93223473D01*
X71672151Y-93223473D01*
X71672150Y-93223472D01*
X71672145Y-93223472D01*
X71445461Y-93203640D01*
X71445457Y-93203640D01*
X71218772Y-93223472D01*
X71218761Y-93223474D01*
X70998970Y-93282366D01*
X70998961Y-93282369D01*
X70792726Y-93378539D01*
X70792724Y-93378540D01*
X70606317Y-93509062D01*
X70445413Y-93669966D01*
X70314891Y-93856373D01*
X70314890Y-93856375D01*
X70287841Y-93914383D01*
X70241668Y-93966822D01*
X70174475Y-93985974D01*
X70107594Y-93965758D01*
X70063077Y-93914383D01*
X70036027Y-93856374D01*
X69905506Y-93669969D01*
X69905504Y-93669966D01*
X69744600Y-93509062D01*
X69558193Y-93378540D01*
X69558191Y-93378539D01*
X69351956Y-93282369D01*
X69351947Y-93282366D01*
X69132156Y-93223474D01*
X69132152Y-93223473D01*
X69132151Y-93223473D01*
X69132150Y-93223472D01*
X69132145Y-93223472D01*
X68905461Y-93203640D01*
X68905457Y-93203640D01*
X68678772Y-93223472D01*
X68678761Y-93223474D01*
X68458970Y-93282366D01*
X68458961Y-93282369D01*
X68252726Y-93378539D01*
X68252724Y-93378540D01*
X68066317Y-93509062D01*
X67905413Y-93669966D01*
X67774891Y-93856373D01*
X67774890Y-93856375D01*
X67747841Y-93914383D01*
X67701668Y-93966822D01*
X67634475Y-93985974D01*
X67567594Y-93965758D01*
X67523077Y-93914383D01*
X67496027Y-93856374D01*
X67365506Y-93669969D01*
X67365504Y-93669966D01*
X67204600Y-93509062D01*
X67018193Y-93378540D01*
X67018191Y-93378539D01*
X66811956Y-93282369D01*
X66811947Y-93282366D01*
X66592156Y-93223474D01*
X66592152Y-93223473D01*
X66592151Y-93223473D01*
X66592150Y-93223472D01*
X66592145Y-93223472D01*
X66365461Y-93203640D01*
X66365457Y-93203640D01*
X66138772Y-93223472D01*
X66138761Y-93223474D01*
X65918970Y-93282366D01*
X65918961Y-93282369D01*
X65712726Y-93378539D01*
X65712724Y-93378540D01*
X65526317Y-93509062D01*
X65365413Y-93669966D01*
X65234891Y-93856373D01*
X65234890Y-93856375D01*
X65207841Y-93914383D01*
X65161668Y-93966822D01*
X65094475Y-93985974D01*
X65027594Y-93965758D01*
X64983077Y-93914383D01*
X64956027Y-93856374D01*
X64825506Y-93669969D01*
X64825504Y-93669966D01*
X64664600Y-93509062D01*
X64478193Y-93378540D01*
X64478191Y-93378539D01*
X64271956Y-93282369D01*
X64271947Y-93282366D01*
X64052156Y-93223474D01*
X64052152Y-93223473D01*
X64052151Y-93223473D01*
X64052150Y-93223472D01*
X64052145Y-93223472D01*
X63825461Y-93203640D01*
X63825457Y-93203640D01*
X63598772Y-93223472D01*
X63598761Y-93223474D01*
X63378970Y-93282366D01*
X63378961Y-93282369D01*
X63172726Y-93378539D01*
X63172724Y-93378540D01*
X62986317Y-93509062D01*
X62825413Y-93669966D01*
X62694891Y-93856373D01*
X62694890Y-93856375D01*
X62598720Y-94062610D01*
X62598717Y-94062619D01*
X62539825Y-94282410D01*
X62539823Y-94282421D01*
X62519991Y-94509106D01*
X51161835Y-94509106D01*
X51161835Y-84440482D01*
X57456436Y-84440482D01*
X57456436Y-84440487D01*
X57475688Y-84660547D01*
X57475689Y-84660555D01*
X57532863Y-84873930D01*
X57532864Y-84873932D01*
X57532865Y-84873935D01*
X57607926Y-85034905D01*
X57626225Y-85074147D01*
X57626227Y-85074151D01*
X57752929Y-85255100D01*
X57752934Y-85255106D01*
X57909137Y-85411309D01*
X57909143Y-85411314D01*
X58090092Y-85538016D01*
X58090094Y-85538017D01*
X58090097Y-85538019D01*
X58290309Y-85631379D01*
X58503691Y-85688555D01*
X58660882Y-85702307D01*
X58723757Y-85707808D01*
X58723759Y-85707808D01*
X58723761Y-85707808D01*
X58778776Y-85702994D01*
X58943827Y-85688555D01*
X59157209Y-85631379D01*
X59357421Y-85538019D01*
X59538379Y-85411311D01*
X59694585Y-85255105D01*
X59821293Y-85074147D01*
X59881377Y-84945296D01*
X59927549Y-84892856D01*
X59994742Y-84873704D01*
X60061624Y-84893920D01*
X60106141Y-84945296D01*
X60166223Y-85074143D01*
X60166227Y-85074151D01*
X60292929Y-85255100D01*
X60292934Y-85255106D01*
X60449137Y-85411309D01*
X60449143Y-85411314D01*
X60630092Y-85538016D01*
X60630094Y-85538017D01*
X60630097Y-85538019D01*
X60830309Y-85631379D01*
X61043691Y-85688555D01*
X61200882Y-85702307D01*
X61263757Y-85707808D01*
X61263759Y-85707808D01*
X61263761Y-85707808D01*
X61318776Y-85702994D01*
X61483827Y-85688555D01*
X61697209Y-85631379D01*
X61897421Y-85538019D01*
X62078379Y-85411311D01*
X62234585Y-85255105D01*
X62361293Y-85074147D01*
X62421653Y-84944703D01*
X62467825Y-84892264D01*
X62535018Y-84873112D01*
X62601900Y-84893328D01*
X62646417Y-84944704D01*
X62706657Y-85073890D01*
X62706660Y-85073896D01*
X62752017Y-85138672D01*
X62752017Y-85138673D01*
X63422759Y-84467931D01*
X63422759Y-84490645D01*
X63448723Y-84587546D01*
X63498883Y-84674425D01*
X63569819Y-84745361D01*
X63656698Y-84795521D01*
X63753599Y-84821485D01*
X63776312Y-84821485D01*
X63105569Y-85492225D01*
X63170349Y-85537584D01*
X63170351Y-85537585D01*
X63370474Y-85630904D01*
X63370488Y-85630909D01*
X63583772Y-85688058D01*
X63583782Y-85688060D01*
X63803758Y-85707306D01*
X63803760Y-85707306D01*
X64023735Y-85688060D01*
X64023745Y-85688058D01*
X64237029Y-85630909D01*
X64237043Y-85630904D01*
X64437166Y-85537585D01*
X64437176Y-85537579D01*
X64501947Y-85492226D01*
X63831207Y-84821485D01*
X63853919Y-84821485D01*
X63950820Y-84795521D01*
X64037699Y-84745361D01*
X64108635Y-84674425D01*
X64158795Y-84587546D01*
X64184759Y-84490645D01*
X64184759Y-84467932D01*
X64855500Y-85138673D01*
X64900853Y-85073902D01*
X64900859Y-85073892D01*
X64994178Y-84873769D01*
X64994183Y-84873755D01*
X65051332Y-84660471D01*
X65051334Y-84660461D01*
X65070580Y-84440485D01*
X65070580Y-84440484D01*
X65051334Y-84220508D01*
X65051332Y-84220498D01*
X64994183Y-84007214D01*
X64994179Y-84007205D01*
X64900855Y-83807071D01*
X64855500Y-83742296D01*
X64855499Y-83742295D01*
X64184759Y-84413036D01*
X64184759Y-84390325D01*
X64158795Y-84293424D01*
X64108635Y-84206545D01*
X64037699Y-84135609D01*
X63950820Y-84085449D01*
X63853919Y-84059485D01*
X63831206Y-84059485D01*
X64439492Y-83451198D01*
X73902596Y-83451198D01*
X73902596Y-85246933D01*
X73902597Y-85246939D01*
X73909004Y-85306546D01*
X73959298Y-85441391D01*
X73959302Y-85441398D01*
X74045548Y-85556607D01*
X74045551Y-85556610D01*
X74160760Y-85642856D01*
X74160767Y-85642860D01*
X74295613Y-85693154D01*
X74295612Y-85693154D01*
X74302540Y-85693898D01*
X74355223Y-85699563D01*
X76150968Y-85699562D01*
X76210579Y-85693154D01*
X76345427Y-85642859D01*
X76460642Y-85556609D01*
X76546892Y-85441394D01*
X76596098Y-85309464D01*
X76637968Y-85253531D01*
X76703433Y-85229113D01*
X76771706Y-85243964D01*
X76799961Y-85265116D01*
X76922013Y-85387168D01*
X77115517Y-85522663D01*
X77329603Y-85622492D01*
X77329612Y-85622496D01*
X77543096Y-85679697D01*
X77543096Y-84782075D01*
X77600103Y-84814988D01*
X77727270Y-84849063D01*
X77858922Y-84849063D01*
X77986089Y-84814988D01*
X78043096Y-84782075D01*
X78043096Y-85679696D01*
X78256579Y-85622496D01*
X78256588Y-85622492D01*
X78470674Y-85522663D01*
X78664178Y-85387168D01*
X78831201Y-85220145D01*
X78961215Y-85034468D01*
X79015792Y-84990844D01*
X79085291Y-84983651D01*
X79147645Y-85015173D01*
X79164365Y-85034468D01*
X79294601Y-85220464D01*
X79461695Y-85387558D01*
X79558480Y-85455328D01*
X79655261Y-85523095D01*
X79655263Y-85523096D01*
X79655266Y-85523098D01*
X79869433Y-85622966D01*
X79869439Y-85622967D01*
X79869440Y-85622968D01*
X79900831Y-85631379D01*
X80097688Y-85684126D01*
X80274130Y-85699563D01*
X80333095Y-85704722D01*
X80333096Y-85704722D01*
X80333097Y-85704722D01*
X80392062Y-85699563D01*
X80568504Y-85684126D01*
X80796759Y-85622966D01*
X81010926Y-85523098D01*
X81204497Y-85387558D01*
X81371591Y-85220464D01*
X81501521Y-85034905D01*
X81556098Y-84991280D01*
X81625596Y-84984086D01*
X81687951Y-85015609D01*
X81704671Y-85034905D01*
X81834596Y-85220458D01*
X81834601Y-85220464D01*
X82001695Y-85387558D01*
X82098480Y-85455328D01*
X82195261Y-85523095D01*
X82195263Y-85523096D01*
X82195266Y-85523098D01*
X82409433Y-85622966D01*
X82409439Y-85622967D01*
X82409440Y-85622968D01*
X82440831Y-85631379D01*
X82637688Y-85684126D01*
X82814130Y-85699563D01*
X82873095Y-85704722D01*
X82873096Y-85704722D01*
X82873097Y-85704722D01*
X82932062Y-85699563D01*
X83108504Y-85684126D01*
X83336759Y-85622966D01*
X83550926Y-85523098D01*
X83744497Y-85387558D01*
X83911591Y-85220464D01*
X84047131Y-85026893D01*
X84146999Y-84812726D01*
X84208159Y-84584471D01*
X84228755Y-84349063D01*
X84208159Y-84113655D01*
X84146999Y-83885400D01*
X84047131Y-83671234D01*
X84041827Y-83663658D01*
X83911590Y-83477660D01*
X83744498Y-83310569D01*
X83744491Y-83310564D01*
X83550930Y-83175030D01*
X83550926Y-83175028D01*
X83546924Y-83173162D01*
X83336759Y-83075160D01*
X83336755Y-83075159D01*
X83336751Y-83075157D01*
X83108509Y-83014001D01*
X83108499Y-83013999D01*
X82873097Y-82993404D01*
X82873095Y-82993404D01*
X82637692Y-83013999D01*
X82637682Y-83014001D01*
X82409440Y-83075157D01*
X82409431Y-83075161D01*
X82195267Y-83175027D01*
X82195265Y-83175028D01*
X82001693Y-83310568D01*
X81834601Y-83477660D01*
X81704671Y-83663221D01*
X81650094Y-83706846D01*
X81580596Y-83714040D01*
X81518241Y-83682517D01*
X81501521Y-83663221D01*
X81371590Y-83477660D01*
X81204498Y-83310569D01*
X81204491Y-83310564D01*
X81010930Y-83175030D01*
X81010926Y-83175028D01*
X81006924Y-83173162D01*
X80796759Y-83075160D01*
X80796755Y-83075159D01*
X80796751Y-83075157D01*
X80568509Y-83014001D01*
X80568499Y-83013999D01*
X80333097Y-82993404D01*
X80333095Y-82993404D01*
X80097692Y-83013999D01*
X80097682Y-83014001D01*
X79869440Y-83075157D01*
X79869431Y-83075161D01*
X79655267Y-83175027D01*
X79655265Y-83175028D01*
X79461693Y-83310568D01*
X79294604Y-83477657D01*
X79164365Y-83663658D01*
X79109788Y-83707282D01*
X79040289Y-83714475D01*
X78977935Y-83682953D01*
X78961215Y-83663657D01*
X78831209Y-83477989D01*
X78831204Y-83477983D01*
X78664178Y-83310957D01*
X78470674Y-83175462D01*
X78256588Y-83075633D01*
X78256582Y-83075630D01*
X78043096Y-83018427D01*
X78043096Y-83916051D01*
X77986089Y-83883138D01*
X77858922Y-83849063D01*
X77727270Y-83849063D01*
X77600103Y-83883138D01*
X77543096Y-83916051D01*
X77543096Y-83018427D01*
X77543095Y-83018427D01*
X77329609Y-83075630D01*
X77329603Y-83075633D01*
X77115518Y-83175462D01*
X77115516Y-83175463D01*
X76922022Y-83310949D01*
X76799961Y-83433010D01*
X76738638Y-83466494D01*
X76668946Y-83461510D01*
X76613013Y-83419638D01*
X76596098Y-83388661D01*
X76579049Y-83342951D01*
X76546892Y-83256732D01*
X76546891Y-83256731D01*
X76546889Y-83256727D01*
X76460643Y-83141518D01*
X76460640Y-83141515D01*
X76345431Y-83055269D01*
X76345424Y-83055265D01*
X76210578Y-83004971D01*
X76210579Y-83004971D01*
X76150979Y-82998564D01*
X76150977Y-82998563D01*
X76150969Y-82998563D01*
X76150960Y-82998563D01*
X74355225Y-82998563D01*
X74355219Y-82998564D01*
X74295612Y-83004971D01*
X74160767Y-83055265D01*
X74160760Y-83055269D01*
X74045551Y-83141515D01*
X74045548Y-83141518D01*
X73959302Y-83256727D01*
X73959298Y-83256734D01*
X73909004Y-83391580D01*
X73902597Y-83451179D01*
X73902596Y-83451198D01*
X64439492Y-83451198D01*
X64501947Y-83388743D01*
X64437170Y-83343386D01*
X64437164Y-83343383D01*
X64237043Y-83250065D01*
X64237029Y-83250060D01*
X64023745Y-83192911D01*
X64023735Y-83192909D01*
X63803760Y-83173664D01*
X63803758Y-83173664D01*
X63583782Y-83192909D01*
X63583772Y-83192911D01*
X63370488Y-83250060D01*
X63370479Y-83250064D01*
X63170349Y-83343386D01*
X63105570Y-83388743D01*
X63776313Y-84059485D01*
X63753599Y-84059485D01*
X63656698Y-84085449D01*
X63569819Y-84135609D01*
X63498883Y-84206545D01*
X63448723Y-84293424D01*
X63422759Y-84390325D01*
X63422759Y-84413038D01*
X62752017Y-83742296D01*
X62706660Y-83807075D01*
X62646417Y-83936266D01*
X62600244Y-83988705D01*
X62533051Y-84007857D01*
X62466170Y-83987641D01*
X62421653Y-83936266D01*
X62396879Y-83883138D01*
X62361293Y-83806824D01*
X62234585Y-83625865D01*
X62078379Y-83469659D01*
X62078375Y-83469656D01*
X62078374Y-83469655D01*
X61897425Y-83342953D01*
X61897421Y-83342951D01*
X61827975Y-83310568D01*
X61697209Y-83249591D01*
X61697206Y-83249590D01*
X61697204Y-83249589D01*
X61483829Y-83192415D01*
X61483821Y-83192414D01*
X61263761Y-83173162D01*
X61263757Y-83173162D01*
X61043696Y-83192414D01*
X61043688Y-83192415D01*
X60830313Y-83249589D01*
X60830307Y-83249592D01*
X60630099Y-83342950D01*
X60630097Y-83342951D01*
X60449136Y-83469660D01*
X60292934Y-83625862D01*
X60166225Y-83806823D01*
X60166224Y-83806825D01*
X60106141Y-83935674D01*
X60059968Y-83988113D01*
X59992775Y-84007265D01*
X59925894Y-83987049D01*
X59881377Y-83935674D01*
X59821293Y-83806825D01*
X59821292Y-83806823D01*
X59694586Y-83625866D01*
X59694582Y-83625862D01*
X59538379Y-83469659D01*
X59538375Y-83469656D01*
X59538374Y-83469655D01*
X59357425Y-83342953D01*
X59357421Y-83342951D01*
X59287975Y-83310568D01*
X59157209Y-83249591D01*
X59157206Y-83249590D01*
X59157204Y-83249589D01*
X58943829Y-83192415D01*
X58943821Y-83192414D01*
X58723761Y-83173162D01*
X58723757Y-83173162D01*
X58503696Y-83192414D01*
X58503688Y-83192415D01*
X58290313Y-83249589D01*
X58290307Y-83249592D01*
X58090099Y-83342950D01*
X58090097Y-83342951D01*
X57909136Y-83469660D01*
X57752934Y-83625862D01*
X57626225Y-83806823D01*
X57626224Y-83806825D01*
X57532866Y-84007033D01*
X57532863Y-84007039D01*
X57475689Y-84220414D01*
X57475688Y-84220422D01*
X57456436Y-84440482D01*
X51161835Y-84440482D01*
X51161835Y-78376198D01*
X73902596Y-78376198D01*
X73902596Y-80171933D01*
X73902597Y-80171939D01*
X73909004Y-80231546D01*
X73959298Y-80366391D01*
X73959302Y-80366398D01*
X74045548Y-80481607D01*
X74045551Y-80481610D01*
X74160760Y-80567856D01*
X74160767Y-80567860D01*
X74295613Y-80618154D01*
X74295612Y-80618154D01*
X74302540Y-80618898D01*
X74355223Y-80624563D01*
X76150968Y-80624562D01*
X76210579Y-80618154D01*
X76345427Y-80567859D01*
X76460642Y-80481609D01*
X76546892Y-80366394D01*
X76596098Y-80234464D01*
X76637968Y-80178531D01*
X76703433Y-80154113D01*
X76771706Y-80168964D01*
X76799961Y-80190116D01*
X76922013Y-80312168D01*
X77115517Y-80447663D01*
X77329603Y-80547492D01*
X77329612Y-80547496D01*
X77543096Y-80604697D01*
X77543096Y-79707075D01*
X77600103Y-79739988D01*
X77727270Y-79774063D01*
X77858922Y-79774063D01*
X77986089Y-79739988D01*
X78043096Y-79707075D01*
X78043096Y-80604696D01*
X78256579Y-80547496D01*
X78256588Y-80547492D01*
X78470674Y-80447663D01*
X78664178Y-80312168D01*
X78831201Y-80145145D01*
X78961215Y-79959468D01*
X79015792Y-79915844D01*
X79085291Y-79908651D01*
X79147645Y-79940173D01*
X79164365Y-79959468D01*
X79294601Y-80145464D01*
X79461695Y-80312558D01*
X79558480Y-80380328D01*
X79655261Y-80448095D01*
X79655263Y-80448096D01*
X79655266Y-80448098D01*
X79869433Y-80547966D01*
X80097688Y-80609126D01*
X80274130Y-80624563D01*
X80333095Y-80629722D01*
X80333096Y-80629722D01*
X80333097Y-80629722D01*
X80392062Y-80624563D01*
X80568504Y-80609126D01*
X80796759Y-80547966D01*
X81010926Y-80448098D01*
X81204497Y-80312558D01*
X81371591Y-80145464D01*
X81507131Y-79951893D01*
X81606999Y-79737726D01*
X81668159Y-79509471D01*
X81688755Y-79274063D01*
X81668159Y-79038655D01*
X81606999Y-78810400D01*
X81507131Y-78596234D01*
X81501827Y-78588658D01*
X81371590Y-78402660D01*
X81204498Y-78235569D01*
X81204491Y-78235564D01*
X81193971Y-78228198D01*
X81127614Y-78181734D01*
X81010930Y-78100030D01*
X81010926Y-78100028D01*
X80944305Y-78068962D01*
X80796759Y-78000160D01*
X80796755Y-78000159D01*
X80796751Y-78000157D01*
X80568509Y-77939001D01*
X80568499Y-77938999D01*
X80333097Y-77918404D01*
X80333095Y-77918404D01*
X80097692Y-77938999D01*
X80097682Y-77939001D01*
X79869440Y-78000157D01*
X79869431Y-78000161D01*
X79655267Y-78100027D01*
X79655265Y-78100028D01*
X79461693Y-78235568D01*
X79294604Y-78402657D01*
X79164365Y-78588658D01*
X79109788Y-78632282D01*
X79040289Y-78639475D01*
X78977935Y-78607953D01*
X78961215Y-78588657D01*
X78831209Y-78402989D01*
X78831204Y-78402983D01*
X78664178Y-78235957D01*
X78470674Y-78100462D01*
X78256588Y-78000633D01*
X78256582Y-78000630D01*
X78043096Y-77943427D01*
X78043096Y-78841051D01*
X77986089Y-78808138D01*
X77858922Y-78774063D01*
X77727270Y-78774063D01*
X77600103Y-78808138D01*
X77543096Y-78841051D01*
X77543096Y-77943427D01*
X77543095Y-77943427D01*
X77329609Y-78000630D01*
X77329603Y-78000633D01*
X77115518Y-78100462D01*
X77115516Y-78100463D01*
X76922022Y-78235949D01*
X76799961Y-78358010D01*
X76738638Y-78391494D01*
X76668946Y-78386510D01*
X76613013Y-78344638D01*
X76596098Y-78313661D01*
X76546893Y-78181734D01*
X76546889Y-78181727D01*
X76460643Y-78066518D01*
X76460640Y-78066515D01*
X76345431Y-77980269D01*
X76345424Y-77980265D01*
X76210578Y-77929971D01*
X76210579Y-77929971D01*
X76150979Y-77923564D01*
X76150977Y-77923563D01*
X76150969Y-77923563D01*
X76150960Y-77923563D01*
X74355225Y-77923563D01*
X74355219Y-77923564D01*
X74295612Y-77929971D01*
X74160767Y-77980265D01*
X74160760Y-77980269D01*
X74045551Y-78066515D01*
X74045548Y-78066518D01*
X73959302Y-78181727D01*
X73959298Y-78181734D01*
X73909004Y-78316580D01*
X73902597Y-78376179D01*
X73902596Y-78376198D01*
X51161835Y-78376198D01*
X51161835Y-73301198D01*
X73902596Y-73301198D01*
X73902596Y-75096933D01*
X73902597Y-75096939D01*
X73909004Y-75156546D01*
X73959298Y-75291391D01*
X73959302Y-75291398D01*
X74045548Y-75406607D01*
X74045551Y-75406610D01*
X74160760Y-75492856D01*
X74160767Y-75492860D01*
X74295613Y-75543154D01*
X74295612Y-75543154D01*
X74302540Y-75543898D01*
X74355223Y-75549563D01*
X76150968Y-75549562D01*
X76210579Y-75543154D01*
X76345427Y-75492859D01*
X76460642Y-75406609D01*
X76546892Y-75291394D01*
X76596098Y-75159464D01*
X76637968Y-75103531D01*
X76703433Y-75079113D01*
X76771706Y-75093964D01*
X76799961Y-75115116D01*
X76922013Y-75237168D01*
X77115517Y-75372663D01*
X77329603Y-75472492D01*
X77329612Y-75472496D01*
X77543096Y-75529697D01*
X77543096Y-74632075D01*
X77600103Y-74664988D01*
X77727270Y-74699063D01*
X77858922Y-74699063D01*
X77986089Y-74664988D01*
X78043096Y-74632075D01*
X78043096Y-75529696D01*
X78256579Y-75472496D01*
X78256588Y-75472492D01*
X78470674Y-75372663D01*
X78664178Y-75237168D01*
X78831201Y-75070145D01*
X78961215Y-74884468D01*
X79015792Y-74840844D01*
X79085291Y-74833651D01*
X79147645Y-74865173D01*
X79164365Y-74884468D01*
X79294601Y-75070464D01*
X79461695Y-75237558D01*
X79558480Y-75305328D01*
X79655261Y-75373095D01*
X79655263Y-75373096D01*
X79655266Y-75373098D01*
X79869433Y-75472966D01*
X80097688Y-75534126D01*
X80274130Y-75549563D01*
X80333095Y-75554722D01*
X80333096Y-75554722D01*
X80333097Y-75554722D01*
X80392062Y-75549563D01*
X80568504Y-75534126D01*
X80796759Y-75472966D01*
X81010926Y-75373098D01*
X81204497Y-75237558D01*
X81371591Y-75070464D01*
X81507131Y-74876893D01*
X81606999Y-74662726D01*
X81668159Y-74434471D01*
X81688755Y-74199063D01*
X81668159Y-73963655D01*
X81606999Y-73735400D01*
X81507131Y-73521234D01*
X81501827Y-73513658D01*
X81371590Y-73327660D01*
X81204498Y-73160569D01*
X81204491Y-73160564D01*
X81010930Y-73025030D01*
X81010926Y-73025028D01*
X80948238Y-72995796D01*
X80796759Y-72925160D01*
X80796755Y-72925159D01*
X80796751Y-72925157D01*
X80568509Y-72864001D01*
X80568499Y-72863999D01*
X80333097Y-72843404D01*
X80333095Y-72843404D01*
X80097692Y-72863999D01*
X80097682Y-72864001D01*
X79869440Y-72925157D01*
X79869431Y-72925161D01*
X79655267Y-73025027D01*
X79655265Y-73025028D01*
X79461693Y-73160568D01*
X79294604Y-73327657D01*
X79164365Y-73513658D01*
X79109788Y-73557282D01*
X79040289Y-73564475D01*
X78977935Y-73532953D01*
X78961215Y-73513657D01*
X78831209Y-73327989D01*
X78831204Y-73327983D01*
X78664178Y-73160957D01*
X78470674Y-73025462D01*
X78256588Y-72925633D01*
X78256582Y-72925630D01*
X78043096Y-72868427D01*
X78043096Y-73766051D01*
X77986089Y-73733138D01*
X77858922Y-73699063D01*
X77727270Y-73699063D01*
X77600103Y-73733138D01*
X77543096Y-73766051D01*
X77543096Y-72868427D01*
X77543095Y-72868427D01*
X77329609Y-72925630D01*
X77329603Y-72925633D01*
X77115518Y-73025462D01*
X77115516Y-73025463D01*
X76922022Y-73160949D01*
X76799961Y-73283010D01*
X76738638Y-73316494D01*
X76668946Y-73311510D01*
X76613013Y-73269638D01*
X76596098Y-73238661D01*
X76546893Y-73106734D01*
X76546889Y-73106727D01*
X76460643Y-72991518D01*
X76460640Y-72991515D01*
X76345431Y-72905269D01*
X76345424Y-72905265D01*
X76210578Y-72854971D01*
X76210579Y-72854971D01*
X76150979Y-72848564D01*
X76150977Y-72848563D01*
X76150969Y-72848563D01*
X76150960Y-72848563D01*
X74355225Y-72848563D01*
X74355219Y-72848564D01*
X74295612Y-72854971D01*
X74160767Y-72905265D01*
X74160760Y-72905269D01*
X74045551Y-72991515D01*
X74045548Y-72991518D01*
X73959302Y-73106727D01*
X73959298Y-73106734D01*
X73909004Y-73241580D01*
X73902597Y-73301179D01*
X73902596Y-73301198D01*
X51161835Y-73301198D01*
X51161835Y-66690483D01*
X72662628Y-66690483D01*
X72662628Y-66690486D01*
X72682460Y-66917171D01*
X72682462Y-66917182D01*
X72741354Y-67136973D01*
X72741357Y-67136982D01*
X72837527Y-67343217D01*
X72837528Y-67343219D01*
X72968050Y-67529626D01*
X73128954Y-67690530D01*
X73128957Y-67690532D01*
X73315362Y-67821053D01*
X73521600Y-67917224D01*
X73741404Y-67976120D01*
X73903326Y-67990286D01*
X73968094Y-67995953D01*
X73968096Y-67995953D01*
X73968098Y-67995953D01*
X74024769Y-67990994D01*
X74194788Y-67976120D01*
X74414592Y-67917224D01*
X74620830Y-67821053D01*
X74807235Y-67690532D01*
X74968143Y-67529624D01*
X75098664Y-67343219D01*
X75194835Y-67136981D01*
X75253731Y-66917177D01*
X75273564Y-66690485D01*
X75273564Y-66690483D01*
X80282628Y-66690483D01*
X80282628Y-66690486D01*
X80302460Y-66917171D01*
X80302462Y-66917182D01*
X80361354Y-67136973D01*
X80361357Y-67136982D01*
X80457527Y-67343217D01*
X80457528Y-67343219D01*
X80588050Y-67529626D01*
X80748954Y-67690530D01*
X80748957Y-67690532D01*
X80935362Y-67821053D01*
X81141600Y-67917224D01*
X81361404Y-67976120D01*
X81523326Y-67990286D01*
X81588094Y-67995953D01*
X81588096Y-67995953D01*
X81588098Y-67995953D01*
X81644769Y-67990994D01*
X81814788Y-67976120D01*
X82034592Y-67917224D01*
X82240830Y-67821053D01*
X82427235Y-67690532D01*
X82588143Y-67529624D01*
X82718664Y-67343219D01*
X82814835Y-67136981D01*
X82873731Y-66917177D01*
X82893564Y-66690485D01*
X82873731Y-66463793D01*
X82814835Y-66243989D01*
X82718664Y-66037751D01*
X82588143Y-65851346D01*
X82588141Y-65851343D01*
X82427237Y-65690439D01*
X82240830Y-65559917D01*
X82240828Y-65559916D01*
X82034593Y-65463746D01*
X82034584Y-65463743D01*
X81814793Y-65404851D01*
X81814789Y-65404850D01*
X81814788Y-65404850D01*
X81814787Y-65404849D01*
X81814782Y-65404849D01*
X81588098Y-65385017D01*
X81588094Y-65385017D01*
X81361409Y-65404849D01*
X81361398Y-65404851D01*
X81141607Y-65463743D01*
X81141598Y-65463746D01*
X80935363Y-65559916D01*
X80935361Y-65559917D01*
X80748954Y-65690439D01*
X80588050Y-65851343D01*
X80457528Y-66037750D01*
X80457527Y-66037752D01*
X80361357Y-66243987D01*
X80361354Y-66243996D01*
X80302462Y-66463787D01*
X80302460Y-66463798D01*
X80282628Y-66690483D01*
X75273564Y-66690483D01*
X75253731Y-66463793D01*
X75194835Y-66243989D01*
X75098664Y-66037751D01*
X74968143Y-65851346D01*
X74968141Y-65851343D01*
X74807237Y-65690439D01*
X74620830Y-65559917D01*
X74620828Y-65559916D01*
X74414593Y-65463746D01*
X74414584Y-65463743D01*
X74194793Y-65404851D01*
X74194789Y-65404850D01*
X74194788Y-65404850D01*
X74194787Y-65404849D01*
X74194782Y-65404849D01*
X73968098Y-65385017D01*
X73968094Y-65385017D01*
X73741409Y-65404849D01*
X73741398Y-65404851D01*
X73521607Y-65463743D01*
X73521598Y-65463746D01*
X73315363Y-65559916D01*
X73315361Y-65559917D01*
X73128954Y-65690439D01*
X72968050Y-65851343D01*
X72837528Y-66037750D01*
X72837527Y-66037752D01*
X72741357Y-66243987D01*
X72741354Y-66243996D01*
X72682462Y-66463787D01*
X72682460Y-66463798D01*
X72662628Y-66690483D01*
X51161835Y-66690483D01*
X51161835Y-61630482D01*
X75253130Y-61630482D01*
X75253130Y-61630487D01*
X75272954Y-61857084D01*
X75272956Y-61857095D01*
X75331826Y-62076802D01*
X75331831Y-62076816D01*
X75427959Y-62282963D01*
X75479070Y-62355957D01*
X76158096Y-61676931D01*
X76158096Y-61683146D01*
X76185355Y-61784879D01*
X76238016Y-61876091D01*
X76312490Y-61950565D01*
X76403702Y-62003226D01*
X76505435Y-62030485D01*
X76511649Y-62030485D01*
X75832622Y-62709510D01*
X75905609Y-62760617D01*
X75905617Y-62760621D01*
X76111764Y-62856749D01*
X76111778Y-62856754D01*
X76331485Y-62915624D01*
X76331496Y-62915626D01*
X76558094Y-62935451D01*
X76558098Y-62935451D01*
X76784695Y-62915626D01*
X76784706Y-62915624D01*
X77004413Y-62856754D01*
X77004427Y-62856749D01*
X77210574Y-62760621D01*
X77283567Y-62709509D01*
X76604543Y-62030485D01*
X76610757Y-62030485D01*
X76712490Y-62003226D01*
X76803702Y-61950565D01*
X76878176Y-61876091D01*
X76930837Y-61784879D01*
X76958096Y-61683146D01*
X76958096Y-61676932D01*
X77637120Y-62355956D01*
X77688229Y-62282967D01*
X77715437Y-62224620D01*
X77761609Y-62172181D01*
X77828803Y-62153028D01*
X77895684Y-62173243D01*
X77940201Y-62224617D01*
X77967528Y-62283219D01*
X77967529Y-62283220D01*
X78098050Y-62469626D01*
X78258954Y-62630530D01*
X78258957Y-62630532D01*
X78445362Y-62761053D01*
X78651600Y-62857224D01*
X78871404Y-62916120D01*
X79033326Y-62930286D01*
X79098094Y-62935953D01*
X79098096Y-62935953D01*
X79098098Y-62935953D01*
X79154769Y-62930994D01*
X79324788Y-62916120D01*
X79544592Y-62857224D01*
X79750830Y-62761053D01*
X79937235Y-62630532D01*
X80098143Y-62469624D01*
X80228664Y-62283219D01*
X80324835Y-62076981D01*
X80383731Y-61857177D01*
X80403564Y-61630485D01*
X80383731Y-61403793D01*
X80324835Y-61183989D01*
X80228664Y-60977751D01*
X80098143Y-60791346D01*
X80098141Y-60791343D01*
X79937237Y-60630439D01*
X79750830Y-60499917D01*
X79750828Y-60499916D01*
X79544593Y-60403746D01*
X79544584Y-60403743D01*
X79324793Y-60344851D01*
X79324789Y-60344850D01*
X79324788Y-60344850D01*
X79324787Y-60344849D01*
X79324782Y-60344849D01*
X79098098Y-60325017D01*
X79098094Y-60325017D01*
X78871409Y-60344849D01*
X78871398Y-60344851D01*
X78651607Y-60403743D01*
X78651598Y-60403746D01*
X78445363Y-60499916D01*
X78445361Y-60499917D01*
X78258954Y-60630439D01*
X78098050Y-60791343D01*
X77967528Y-60977750D01*
X77967524Y-60977757D01*
X77940201Y-61036351D01*
X77894028Y-61088790D01*
X77826834Y-61107941D01*
X77759954Y-61087724D01*
X77715438Y-61036349D01*
X77688232Y-60978006D01*
X77688228Y-60977998D01*
X77637121Y-60905011D01*
X76958096Y-61584036D01*
X76958096Y-61577824D01*
X76930837Y-61476091D01*
X76878176Y-61384879D01*
X76803702Y-61310405D01*
X76712490Y-61257744D01*
X76610757Y-61230485D01*
X76604541Y-61230485D01*
X77283568Y-60551459D01*
X77210574Y-60500348D01*
X77004427Y-60404220D01*
X77004413Y-60404215D01*
X76784706Y-60345345D01*
X76784695Y-60345343D01*
X76558098Y-60325519D01*
X76558094Y-60325519D01*
X76331496Y-60345343D01*
X76331485Y-60345345D01*
X76111778Y-60404215D01*
X76111769Y-60404219D01*
X75905612Y-60500351D01*
X75905608Y-60500353D01*
X75832622Y-60551458D01*
X75832622Y-60551459D01*
X76511649Y-61230485D01*
X76505435Y-61230485D01*
X76403702Y-61257744D01*
X76312490Y-61310405D01*
X76238016Y-61384879D01*
X76185355Y-61476091D01*
X76158096Y-61577824D01*
X76158096Y-61584037D01*
X75479070Y-60905011D01*
X75479069Y-60905011D01*
X75427964Y-60977997D01*
X75427962Y-60978001D01*
X75331830Y-61184158D01*
X75331826Y-61184167D01*
X75272956Y-61403874D01*
X75272954Y-61403885D01*
X75253130Y-61630482D01*
X51161835Y-61630482D01*
X51161835Y-55542620D01*
X57373259Y-55542620D01*
X57373259Y-57438355D01*
X57373260Y-57438361D01*
X57379667Y-57497968D01*
X57429961Y-57632813D01*
X57429965Y-57632820D01*
X57516211Y-57748029D01*
X57516214Y-57748032D01*
X57631423Y-57834278D01*
X57631430Y-57834282D01*
X57766276Y-57884576D01*
X57766275Y-57884576D01*
X57773203Y-57885320D01*
X57825886Y-57890985D01*
X59721631Y-57890984D01*
X59781242Y-57884576D01*
X59916090Y-57834281D01*
X60031305Y-57748031D01*
X60117555Y-57632816D01*
X60135851Y-57583759D01*
X60177720Y-57527827D01*
X60243184Y-57503409D01*
X60311458Y-57518260D01*
X60328195Y-57529240D01*
X60505124Y-57666949D01*
X60505130Y-57666953D01*
X60505133Y-57666955D01*
X60659483Y-57750485D01*
X60708411Y-57776964D01*
X60709256Y-57777421D01*
X60819492Y-57815265D01*
X60928774Y-57852782D01*
X60928776Y-57852782D01*
X60928778Y-57852783D01*
X61157710Y-57890985D01*
X61157711Y-57890985D01*
X61389807Y-57890985D01*
X61389808Y-57890985D01*
X61618740Y-57852783D01*
X61838262Y-57777421D01*
X62042385Y-57666955D01*
X62042929Y-57666532D01*
X62137696Y-57592772D01*
X62225543Y-57524398D01*
X62382738Y-57353638D01*
X62420248Y-57296223D01*
X62473394Y-57250867D01*
X62542625Y-57241443D01*
X62605961Y-57270944D01*
X62620673Y-57287922D01*
X62622570Y-57288119D01*
X63290796Y-56619893D01*
X63307834Y-56683478D01*
X63373660Y-56797492D01*
X63466752Y-56890584D01*
X63580766Y-56956410D01*
X63644349Y-56973447D01*
X62974960Y-57642836D01*
X63005408Y-57666535D01*
X63209456Y-57776961D01*
X63209465Y-57776964D01*
X63428898Y-57852296D01*
X63657752Y-57890485D01*
X63889766Y-57890485D01*
X64118619Y-57852296D01*
X64338052Y-57776964D01*
X64338060Y-57776961D01*
X64542114Y-57666532D01*
X64572556Y-57642836D01*
X64572557Y-57642835D01*
X63903169Y-56973447D01*
X63966752Y-56956410D01*
X64080766Y-56890584D01*
X64173858Y-56797492D01*
X64239684Y-56683478D01*
X64256721Y-56619894D01*
X64924945Y-57288119D01*
X65009243Y-57159091D01*
X65102441Y-56946620D01*
X65159397Y-56721703D01*
X65178557Y-56490490D01*
X65178557Y-56490479D01*
X65159397Y-56259266D01*
X65102441Y-56034349D01*
X65009242Y-55821875D01*
X64924945Y-55692849D01*
X64256721Y-56361074D01*
X64239684Y-56297492D01*
X64173858Y-56183478D01*
X64080766Y-56090386D01*
X63966752Y-56024560D01*
X63903168Y-56007522D01*
X64572556Y-55338132D01*
X64572556Y-55338130D01*
X64542119Y-55314440D01*
X64542113Y-55314436D01*
X64338061Y-55204008D01*
X64338052Y-55204005D01*
X64118619Y-55128673D01*
X63889766Y-55090485D01*
X63657752Y-55090485D01*
X63428898Y-55128673D01*
X63209465Y-55204005D01*
X63209456Y-55204008D01*
X63005409Y-55314434D01*
X62974959Y-55338132D01*
X63644350Y-56007522D01*
X63580766Y-56024560D01*
X63466752Y-56090386D01*
X63373660Y-56183478D01*
X63307834Y-56297492D01*
X63290796Y-56361075D01*
X62622570Y-55692849D01*
X62617789Y-55693345D01*
X62574719Y-55730102D01*
X62505488Y-55739526D01*
X62442152Y-55710024D01*
X62420248Y-55684745D01*
X62382742Y-55627337D01*
X62382739Y-55627334D01*
X62382738Y-55627332D01*
X62225543Y-55456572D01*
X62225538Y-55456568D01*
X62225536Y-55456566D01*
X62042393Y-55314020D01*
X62042387Y-55314016D01*
X61838263Y-55203549D01*
X61838254Y-55203546D01*
X61618743Y-55128187D01*
X61428209Y-55096393D01*
X61389808Y-55089985D01*
X61157710Y-55089985D01*
X61119309Y-55096393D01*
X60928774Y-55128187D01*
X60709263Y-55203546D01*
X60709254Y-55203549D01*
X60505131Y-55314016D01*
X60328195Y-55451730D01*
X60263201Y-55477372D01*
X60194661Y-55463805D01*
X60144336Y-55415337D01*
X60135851Y-55397208D01*
X60117557Y-55348158D01*
X60117552Y-55348149D01*
X60031306Y-55232940D01*
X60031303Y-55232937D01*
X59916094Y-55146691D01*
X59916087Y-55146687D01*
X59781241Y-55096393D01*
X59781242Y-55096393D01*
X59721642Y-55089986D01*
X59721640Y-55089985D01*
X59721632Y-55089985D01*
X59721623Y-55089985D01*
X57825888Y-55089985D01*
X57825882Y-55089986D01*
X57766275Y-55096393D01*
X57631430Y-55146687D01*
X57631423Y-55146691D01*
X57516214Y-55232937D01*
X57516211Y-55232940D01*
X57429965Y-55348149D01*
X57429961Y-55348156D01*
X57379667Y-55483002D01*
X57373260Y-55542601D01*
X57373259Y-55542620D01*
X51161835Y-55542620D01*
X51161835Y-48990479D01*
X54018315Y-48990479D01*
X54018315Y-48990490D01*
X54038069Y-49304489D01*
X54038070Y-49304496D01*
X54038071Y-49304500D01*
X54096522Y-49610914D01*
X54097029Y-49613568D01*
X54194256Y-49912801D01*
X54194258Y-49912806D01*
X54328220Y-50197488D01*
X54328223Y-50197494D01*
X54496810Y-50463146D01*
X54496813Y-50463150D01*
X54697365Y-50705575D01*
X54697367Y-50705577D01*
X54926727Y-50920961D01*
X54926737Y-50920969D01*
X55181263Y-51105893D01*
X55181268Y-51105895D01*
X55181275Y-51105901D01*
X55456993Y-51257479D01*
X55456998Y-51257481D01*
X55457000Y-51257482D01*
X55457001Y-51257483D01*
X55749530Y-51373303D01*
X55749533Y-51373304D01*
X56054282Y-51451550D01*
X56054286Y-51451551D01*
X56119769Y-51459823D01*
X56366429Y-51490984D01*
X56366438Y-51490984D01*
X56366441Y-51490985D01*
X56366443Y-51490985D01*
X56681075Y-51490985D01*
X56681077Y-51490985D01*
X56681080Y-51490984D01*
X56681088Y-51490984D01*
X56867352Y-51467453D01*
X56993232Y-51451551D01*
X57297984Y-51373304D01*
X57436886Y-51318309D01*
X57590516Y-51257483D01*
X57590517Y-51257482D01*
X57590515Y-51257482D01*
X57590525Y-51257479D01*
X57866243Y-51105901D01*
X58120789Y-50920963D01*
X58350149Y-50705579D01*
X58550706Y-50463148D01*
X58719296Y-50197492D01*
X58853262Y-49912800D01*
X58950490Y-49613564D01*
X59009447Y-49304500D01*
X59009448Y-49304489D01*
X59029203Y-48990490D01*
X59029203Y-48990479D01*
X63518315Y-48990479D01*
X63518315Y-48990490D01*
X63538069Y-49304489D01*
X63538070Y-49304496D01*
X63538071Y-49304500D01*
X63596522Y-49610914D01*
X63597029Y-49613568D01*
X63694256Y-49912801D01*
X63694258Y-49912806D01*
X63828220Y-50197488D01*
X63828223Y-50197494D01*
X63996810Y-50463146D01*
X63996813Y-50463150D01*
X64197365Y-50705575D01*
X64197367Y-50705577D01*
X64426727Y-50920961D01*
X64426737Y-50920969D01*
X64681263Y-51105893D01*
X64681268Y-51105895D01*
X64681275Y-51105901D01*
X64956993Y-51257479D01*
X64956998Y-51257481D01*
X64957000Y-51257482D01*
X64957001Y-51257483D01*
X65249530Y-51373303D01*
X65249533Y-51373304D01*
X65554282Y-51451550D01*
X65554286Y-51451551D01*
X65619769Y-51459823D01*
X65866429Y-51490984D01*
X65866438Y-51490984D01*
X65866441Y-51490985D01*
X65866443Y-51490985D01*
X66181075Y-51490985D01*
X66181077Y-51490985D01*
X66181080Y-51490984D01*
X66181088Y-51490984D01*
X66367352Y-51467453D01*
X66493232Y-51451551D01*
X66797984Y-51373304D01*
X66936886Y-51318309D01*
X67090516Y-51257483D01*
X67090517Y-51257482D01*
X67090515Y-51257482D01*
X67090525Y-51257479D01*
X67366243Y-51105901D01*
X67414997Y-51070479D01*
X73118116Y-51070479D01*
X73118116Y-51070490D01*
X73138649Y-51318297D01*
X73138651Y-51318309D01*
X73199695Y-51559366D01*
X73299585Y-51787091D01*
X73435592Y-51995267D01*
X73435595Y-51995270D01*
X73604015Y-52178223D01*
X73800250Y-52330959D01*
X74018949Y-52449313D01*
X74254145Y-52530056D01*
X74499424Y-52570985D01*
X74748094Y-52570985D01*
X74993373Y-52530056D01*
X75228569Y-52449313D01*
X75447268Y-52330959D01*
X75643503Y-52178223D01*
X75811923Y-51995270D01*
X75947932Y-51787092D01*
X76047822Y-51559366D01*
X76108867Y-51318306D01*
X76113907Y-51257482D01*
X76129402Y-51070490D01*
X76129402Y-51070479D01*
X79618116Y-51070479D01*
X79618116Y-51070490D01*
X79638649Y-51318297D01*
X79638651Y-51318309D01*
X79699695Y-51559366D01*
X79799585Y-51787091D01*
X79935592Y-51995267D01*
X79935595Y-51995270D01*
X80104015Y-52178223D01*
X80300250Y-52330959D01*
X80518949Y-52449313D01*
X80754145Y-52530056D01*
X80999424Y-52570985D01*
X81248094Y-52570985D01*
X81493373Y-52530056D01*
X81728569Y-52449313D01*
X81947268Y-52330959D01*
X82143503Y-52178223D01*
X82311923Y-51995270D01*
X82447932Y-51787092D01*
X82547822Y-51559366D01*
X82608867Y-51318306D01*
X82613907Y-51257482D01*
X82629402Y-51070490D01*
X82629402Y-51070479D01*
X82608868Y-50822672D01*
X82608866Y-50822660D01*
X82547822Y-50581603D01*
X82447932Y-50353878D01*
X82311925Y-50145702D01*
X82238282Y-50065705D01*
X82143503Y-49962747D01*
X81947268Y-49810011D01*
X81947266Y-49810010D01*
X81947265Y-49810009D01*
X81728570Y-49691657D01*
X81728561Y-49691654D01*
X81493375Y-49610914D01*
X81248094Y-49569985D01*
X80999424Y-49569985D01*
X80754142Y-49610914D01*
X80518956Y-49691654D01*
X80518947Y-49691657D01*
X80300252Y-49810009D01*
X80104016Y-49962746D01*
X79935592Y-50145702D01*
X79799585Y-50353878D01*
X79699695Y-50581603D01*
X79638651Y-50822660D01*
X79638649Y-50822672D01*
X79618116Y-51070479D01*
X76129402Y-51070479D01*
X76108868Y-50822672D01*
X76108866Y-50822660D01*
X76047822Y-50581603D01*
X75947932Y-50353878D01*
X75811925Y-50145702D01*
X75738282Y-50065705D01*
X75643503Y-49962747D01*
X75447268Y-49810011D01*
X75447266Y-49810010D01*
X75447265Y-49810009D01*
X75228570Y-49691657D01*
X75228561Y-49691654D01*
X74993375Y-49610914D01*
X74748094Y-49569985D01*
X74499424Y-49569985D01*
X74254142Y-49610914D01*
X74018956Y-49691654D01*
X74018947Y-49691657D01*
X73800252Y-49810009D01*
X73604016Y-49962746D01*
X73435592Y-50145702D01*
X73299585Y-50353878D01*
X73199695Y-50581603D01*
X73138651Y-50822660D01*
X73138649Y-50822672D01*
X73118116Y-51070479D01*
X67414997Y-51070479D01*
X67620789Y-50920963D01*
X67850149Y-50705579D01*
X68050706Y-50463148D01*
X68219296Y-50197492D01*
X68353262Y-49912800D01*
X68450490Y-49613564D01*
X68509447Y-49304500D01*
X68509448Y-49304489D01*
X68529203Y-48990490D01*
X68529203Y-48990479D01*
X68509448Y-48676480D01*
X68509447Y-48676473D01*
X68509447Y-48676470D01*
X68450490Y-48367406D01*
X68353262Y-48068170D01*
X68335326Y-48030055D01*
X68219297Y-47783481D01*
X68219296Y-47783478D01*
X68136490Y-47652996D01*
X68050707Y-47517823D01*
X68050704Y-47517819D01*
X67850152Y-47275394D01*
X67850150Y-47275392D01*
X67620790Y-47060008D01*
X67620780Y-47060000D01*
X67366254Y-46875076D01*
X67366247Y-46875071D01*
X67366243Y-46875069D01*
X67090525Y-46723491D01*
X67090522Y-46723489D01*
X67090517Y-46723487D01*
X67090516Y-46723486D01*
X66797987Y-46607666D01*
X66797984Y-46607665D01*
X66653154Y-46570479D01*
X73118116Y-46570479D01*
X73118116Y-46570490D01*
X73138649Y-46818297D01*
X73138651Y-46818309D01*
X73199695Y-47059366D01*
X73299585Y-47287091D01*
X73435592Y-47495267D01*
X73456356Y-47517823D01*
X73604015Y-47678223D01*
X73800250Y-47830959D01*
X74018949Y-47949313D01*
X74254145Y-48030056D01*
X74499424Y-48070985D01*
X74748094Y-48070985D01*
X74993373Y-48030056D01*
X75228569Y-47949313D01*
X75447268Y-47830959D01*
X75643503Y-47678223D01*
X75811923Y-47495270D01*
X75947932Y-47287092D01*
X76047822Y-47059366D01*
X76108867Y-46818306D01*
X76108868Y-46818297D01*
X76129402Y-46570490D01*
X76129402Y-46570479D01*
X79618116Y-46570479D01*
X79618116Y-46570490D01*
X79638649Y-46818297D01*
X79638651Y-46818309D01*
X79699695Y-47059366D01*
X79799585Y-47287091D01*
X79935592Y-47495267D01*
X79956356Y-47517823D01*
X80104015Y-47678223D01*
X80300250Y-47830959D01*
X80518949Y-47949313D01*
X80754145Y-48030056D01*
X80999424Y-48070985D01*
X81248094Y-48070985D01*
X81493373Y-48030056D01*
X81728569Y-47949313D01*
X81947268Y-47830959D01*
X82143503Y-47678223D01*
X82311923Y-47495270D01*
X82447932Y-47287092D01*
X82547822Y-47059366D01*
X82608867Y-46818306D01*
X82608868Y-46818297D01*
X82629402Y-46570490D01*
X82629402Y-46570479D01*
X82608868Y-46322672D01*
X82608866Y-46322660D01*
X82547822Y-46081603D01*
X82447932Y-45853878D01*
X82311925Y-45645702D01*
X82290316Y-45622229D01*
X82143503Y-45462747D01*
X81947268Y-45310011D01*
X81947266Y-45310010D01*
X81947265Y-45310009D01*
X81728570Y-45191657D01*
X81728561Y-45191654D01*
X81493375Y-45110914D01*
X81248094Y-45069985D01*
X80999424Y-45069985D01*
X80754142Y-45110914D01*
X80518956Y-45191654D01*
X80518947Y-45191657D01*
X80300252Y-45310009D01*
X80104016Y-45462746D01*
X79935592Y-45645702D01*
X79799585Y-45853878D01*
X79699695Y-46081603D01*
X79638651Y-46322660D01*
X79638649Y-46322672D01*
X79618116Y-46570479D01*
X76129402Y-46570479D01*
X76108868Y-46322672D01*
X76108866Y-46322660D01*
X76047822Y-46081603D01*
X75947932Y-45853878D01*
X75811925Y-45645702D01*
X75790316Y-45622229D01*
X75643503Y-45462747D01*
X75447268Y-45310011D01*
X75447266Y-45310010D01*
X75447265Y-45310009D01*
X75228570Y-45191657D01*
X75228561Y-45191654D01*
X74993375Y-45110914D01*
X74748094Y-45069985D01*
X74499424Y-45069985D01*
X74254142Y-45110914D01*
X74018956Y-45191654D01*
X74018947Y-45191657D01*
X73800252Y-45310009D01*
X73604016Y-45462746D01*
X73435592Y-45645702D01*
X73299585Y-45853878D01*
X73199695Y-46081603D01*
X73138651Y-46322660D01*
X73138649Y-46322672D01*
X73118116Y-46570479D01*
X66653154Y-46570479D01*
X66493235Y-46529419D01*
X66493222Y-46529417D01*
X66181088Y-46489985D01*
X66181077Y-46489985D01*
X65866441Y-46489985D01*
X65866429Y-46489985D01*
X65554295Y-46529417D01*
X65554282Y-46529419D01*
X65249533Y-46607665D01*
X65249530Y-46607666D01*
X64957001Y-46723486D01*
X64957000Y-46723487D01*
X64681275Y-46875069D01*
X64681263Y-46875076D01*
X64426737Y-47060000D01*
X64426727Y-47060008D01*
X64197367Y-47275392D01*
X64197365Y-47275394D01*
X63996813Y-47517819D01*
X63996810Y-47517823D01*
X63828223Y-47783475D01*
X63828220Y-47783481D01*
X63694258Y-48068163D01*
X63694256Y-48068168D01*
X63597029Y-48367401D01*
X63538070Y-48676473D01*
X63538069Y-48676480D01*
X63518315Y-48990479D01*
X59029203Y-48990479D01*
X59009448Y-48676480D01*
X59009447Y-48676473D01*
X59009447Y-48676470D01*
X58950490Y-48367406D01*
X58853262Y-48068170D01*
X58835326Y-48030055D01*
X58719297Y-47783481D01*
X58719296Y-47783478D01*
X58636490Y-47652996D01*
X58550707Y-47517823D01*
X58550704Y-47517819D01*
X58350152Y-47275394D01*
X58350150Y-47275392D01*
X58120790Y-47060008D01*
X58120780Y-47060000D01*
X57866254Y-46875076D01*
X57866247Y-46875071D01*
X57866243Y-46875069D01*
X57590525Y-46723491D01*
X57590522Y-46723489D01*
X57590517Y-46723487D01*
X57590516Y-46723486D01*
X57297987Y-46607666D01*
X57297984Y-46607665D01*
X56993235Y-46529419D01*
X56993222Y-46529417D01*
X56681088Y-46489985D01*
X56681077Y-46489985D01*
X56366441Y-46489985D01*
X56366429Y-46489985D01*
X56054295Y-46529417D01*
X56054282Y-46529419D01*
X55749533Y-46607665D01*
X55749530Y-46607666D01*
X55457001Y-46723486D01*
X55457000Y-46723487D01*
X55181275Y-46875069D01*
X55181263Y-46875076D01*
X54926737Y-47060000D01*
X54926727Y-47060008D01*
X54697367Y-47275392D01*
X54697365Y-47275394D01*
X54496813Y-47517819D01*
X54496810Y-47517823D01*
X54328223Y-47783475D01*
X54328220Y-47783481D01*
X54194258Y-48068163D01*
X54194256Y-48068168D01*
X54097029Y-48367401D01*
X54038070Y-48676473D01*
X54038069Y-48676480D01*
X54018315Y-48990479D01*
X51161835Y-48990479D01*
X51161835Y-40640468D01*
X87703259Y-40640468D01*
X87703259Y-41840486D01*
X87703260Y-41840503D01*
X87713759Y-41943281D01*
X87713760Y-41943284D01*
X87768944Y-42109816D01*
X87768946Y-42109821D01*
X87787889Y-42140532D01*
X87861047Y-42259141D01*
X87985103Y-42383197D01*
X88134425Y-42475299D01*
X88216913Y-42502633D01*
X88274358Y-42542404D01*
X88301181Y-42606920D01*
X88288866Y-42675696D01*
X88250795Y-42720655D01*
X88156872Y-42788895D01*
X88156863Y-42788902D01*
X88012176Y-42933589D01*
X88012176Y-42933590D01*
X87891899Y-43099135D01*
X87799003Y-43281455D01*
X87735768Y-43476071D01*
X87727150Y-43530485D01*
X88770747Y-43530485D01*
X88737834Y-43587492D01*
X88703759Y-43714659D01*
X88703759Y-43846311D01*
X88737834Y-43973478D01*
X88770747Y-44030485D01*
X87727150Y-44030485D01*
X87735768Y-44084898D01*
X87799003Y-44279514D01*
X87891899Y-44461834D01*
X88012176Y-44627379D01*
X88012176Y-44627380D01*
X88156863Y-44772067D01*
X88322411Y-44892346D01*
X88415387Y-44939719D01*
X88466184Y-44987693D01*
X88482979Y-45055514D01*
X88460442Y-45121649D01*
X88415389Y-45160688D01*
X88322147Y-45208198D01*
X88156545Y-45328513D01*
X88011787Y-45473271D01*
X87891474Y-45638871D01*
X87798540Y-45821261D01*
X87735281Y-46015950D01*
X87703259Y-46218133D01*
X87703259Y-46422836D01*
X87735281Y-46625019D01*
X87798540Y-46819708D01*
X87891474Y-47002098D01*
X88011787Y-47167698D01*
X88156545Y-47312456D01*
X88306018Y-47421052D01*
X88322149Y-47432772D01*
X88413599Y-47479368D01*
X88414839Y-47480000D01*
X88465635Y-47527975D01*
X88482430Y-47595796D01*
X88459893Y-47661931D01*
X88414839Y-47700970D01*
X88322145Y-47748200D01*
X88156545Y-47868513D01*
X88011787Y-48013271D01*
X87891474Y-48178871D01*
X87798540Y-48361261D01*
X87735281Y-48555950D01*
X87703259Y-48758133D01*
X87703259Y-48962836D01*
X87735281Y-49165019D01*
X87798540Y-49359708D01*
X87891474Y-49542098D01*
X88011787Y-49707698D01*
X88156545Y-49852456D01*
X88308349Y-49962746D01*
X88322149Y-49972772D01*
X88413599Y-50019368D01*
X88414839Y-50020000D01*
X88465635Y-50067975D01*
X88482430Y-50135796D01*
X88459893Y-50201931D01*
X88414839Y-50240970D01*
X88322145Y-50288200D01*
X88156545Y-50408513D01*
X88011787Y-50553271D01*
X87891474Y-50718871D01*
X87798540Y-50901261D01*
X87735281Y-51095950D01*
X87703259Y-51298133D01*
X87703259Y-51502836D01*
X87735281Y-51705019D01*
X87798540Y-51899708D01*
X87891474Y-52082098D01*
X88011787Y-52247698D01*
X88156545Y-52392456D01*
X88311508Y-52505041D01*
X88322149Y-52512772D01*
X88413599Y-52559368D01*
X88414839Y-52560000D01*
X88465635Y-52607975D01*
X88482430Y-52675796D01*
X88459893Y-52741931D01*
X88414839Y-52780970D01*
X88322145Y-52828200D01*
X88156545Y-52948513D01*
X88011787Y-53093271D01*
X87891474Y-53258871D01*
X87798540Y-53441261D01*
X87735281Y-53635950D01*
X87703259Y-53838133D01*
X87703259Y-54042836D01*
X87735281Y-54245019D01*
X87798540Y-54439708D01*
X87891474Y-54622098D01*
X88011787Y-54787698D01*
X88156545Y-54932456D01*
X88311508Y-55045041D01*
X88322149Y-55052772D01*
X88396165Y-55090485D01*
X88414839Y-55100000D01*
X88465635Y-55147975D01*
X88482430Y-55215796D01*
X88459893Y-55281931D01*
X88414839Y-55320970D01*
X88322145Y-55368200D01*
X88156545Y-55488513D01*
X88011787Y-55633271D01*
X87891474Y-55798871D01*
X87798540Y-55981261D01*
X87735281Y-56175950D01*
X87703259Y-56378133D01*
X87703259Y-56582836D01*
X87735281Y-56785019D01*
X87798540Y-56979708D01*
X87862450Y-57105138D01*
X87890065Y-57159334D01*
X87891474Y-57162098D01*
X88011787Y-57327698D01*
X88156545Y-57472456D01*
X88309748Y-57583762D01*
X88322149Y-57592772D01*
X88400734Y-57632813D01*
X88414839Y-57640000D01*
X88465635Y-57687975D01*
X88482430Y-57755796D01*
X88459893Y-57821931D01*
X88414839Y-57860970D01*
X88322145Y-57908200D01*
X88156545Y-58028513D01*
X88011787Y-58173271D01*
X87891474Y-58338871D01*
X87798540Y-58521261D01*
X87735281Y-58715950D01*
X87703259Y-58918133D01*
X87703259Y-59122836D01*
X87735281Y-59325019D01*
X87798540Y-59519708D01*
X87891474Y-59702098D01*
X88011787Y-59867698D01*
X88156545Y-60012456D01*
X88311508Y-60125041D01*
X88322149Y-60132772D01*
X88413599Y-60179368D01*
X88414839Y-60180000D01*
X88465635Y-60227975D01*
X88482430Y-60295796D01*
X88459893Y-60361931D01*
X88414839Y-60400970D01*
X88322145Y-60448200D01*
X88156545Y-60568513D01*
X88011787Y-60713271D01*
X87891474Y-60878871D01*
X87798540Y-61061261D01*
X87735281Y-61255950D01*
X87703259Y-61458133D01*
X87703259Y-61662836D01*
X87735281Y-61865019D01*
X87798540Y-62059708D01*
X87891474Y-62242098D01*
X88011787Y-62407698D01*
X88156545Y-62552456D01*
X88264007Y-62630530D01*
X88322149Y-62672772D01*
X88413599Y-62719368D01*
X88414839Y-62720000D01*
X88465635Y-62767975D01*
X88482430Y-62835796D01*
X88459893Y-62901931D01*
X88414839Y-62940970D01*
X88322145Y-62988200D01*
X88156545Y-63108513D01*
X88011787Y-63253271D01*
X87891474Y-63418871D01*
X87798540Y-63601261D01*
X87735281Y-63795950D01*
X87703259Y-63998133D01*
X87703259Y-64202836D01*
X87735281Y-64405019D01*
X87798540Y-64599708D01*
X87891474Y-64782098D01*
X88011787Y-64947698D01*
X88156545Y-65092456D01*
X88311508Y-65205041D01*
X88322149Y-65212772D01*
X88413599Y-65259368D01*
X88414839Y-65260000D01*
X88465635Y-65307975D01*
X88482430Y-65375796D01*
X88459893Y-65441931D01*
X88414839Y-65480970D01*
X88322145Y-65528200D01*
X88156545Y-65648513D01*
X88011787Y-65793271D01*
X87891474Y-65958871D01*
X87798540Y-66141261D01*
X87735281Y-66335950D01*
X87703259Y-66538133D01*
X87703259Y-66742836D01*
X87735281Y-66945019D01*
X87798540Y-67139708D01*
X87891474Y-67322098D01*
X88011787Y-67487698D01*
X88156545Y-67632456D01*
X88311508Y-67745041D01*
X88322149Y-67752772D01*
X88389072Y-67786871D01*
X88414839Y-67800000D01*
X88465635Y-67847975D01*
X88482430Y-67915796D01*
X88459893Y-67981931D01*
X88414839Y-68020970D01*
X88322145Y-68068200D01*
X88156545Y-68188513D01*
X88011787Y-68333271D01*
X87891474Y-68498871D01*
X87798540Y-68681261D01*
X87735281Y-68875950D01*
X87703259Y-69078133D01*
X87703259Y-69282836D01*
X87735281Y-69485019D01*
X87798540Y-69679708D01*
X87891474Y-69862098D01*
X88011787Y-70027698D01*
X88156545Y-70172456D01*
X88255296Y-70244201D01*
X88322149Y-70292772D01*
X88413599Y-70339368D01*
X88414839Y-70340000D01*
X88465635Y-70387975D01*
X88482430Y-70455796D01*
X88459893Y-70521931D01*
X88414839Y-70560970D01*
X88322145Y-70608200D01*
X88156545Y-70728513D01*
X88011787Y-70873271D01*
X87891474Y-71038871D01*
X87798540Y-71221261D01*
X87735281Y-71415950D01*
X87703259Y-71618133D01*
X87703259Y-71822836D01*
X87735281Y-72025019D01*
X87798540Y-72219708D01*
X87891474Y-72402098D01*
X88011787Y-72567698D01*
X88156545Y-72712456D01*
X88311508Y-72825041D01*
X88322149Y-72832772D01*
X88392126Y-72868427D01*
X88414839Y-72880000D01*
X88465635Y-72927975D01*
X88482430Y-72995796D01*
X88459893Y-73061931D01*
X88414839Y-73100970D01*
X88322145Y-73148200D01*
X88156545Y-73268513D01*
X88011787Y-73413271D01*
X87891474Y-73578871D01*
X87798540Y-73761261D01*
X87735281Y-73955950D01*
X87703259Y-74158133D01*
X87703259Y-74362836D01*
X87735281Y-74565019D01*
X87798540Y-74759708D01*
X87891474Y-74942098D01*
X88011787Y-75107698D01*
X88156545Y-75252456D01*
X88311508Y-75365041D01*
X88322149Y-75372772D01*
X88388554Y-75406607D01*
X88414839Y-75420000D01*
X88465635Y-75467975D01*
X88482430Y-75535796D01*
X88459893Y-75601931D01*
X88414839Y-75640970D01*
X88322145Y-75688200D01*
X88156545Y-75808513D01*
X88011787Y-75953271D01*
X87891474Y-76118871D01*
X87798540Y-76301261D01*
X87735281Y-76495950D01*
X87703259Y-76698133D01*
X87703259Y-76902836D01*
X87735281Y-77105019D01*
X87798540Y-77299708D01*
X87891474Y-77482098D01*
X88011787Y-77647698D01*
X88156545Y-77792456D01*
X88311508Y-77905041D01*
X88322149Y-77912772D01*
X88382313Y-77943427D01*
X88414839Y-77960000D01*
X88465635Y-78007975D01*
X88482430Y-78075796D01*
X88459893Y-78141931D01*
X88414839Y-78180970D01*
X88322145Y-78228200D01*
X88156545Y-78348513D01*
X88011787Y-78493271D01*
X87891474Y-78658871D01*
X87798540Y-78841261D01*
X87735281Y-79035950D01*
X87703259Y-79238133D01*
X87703259Y-79442836D01*
X87735281Y-79645019D01*
X87798540Y-79839708D01*
X87891474Y-80022098D01*
X88011787Y-80187698D01*
X88156545Y-80332456D01*
X88311508Y-80445041D01*
X88322149Y-80452772D01*
X88438366Y-80511988D01*
X88504535Y-80545703D01*
X88504537Y-80545703D01*
X88504540Y-80545705D01*
X88572714Y-80567856D01*
X88699224Y-80608962D01*
X88757260Y-80618154D01*
X88901407Y-80640985D01*
X88901408Y-80640985D01*
X90106110Y-80640985D01*
X90106111Y-80640985D01*
X90308293Y-80608962D01*
X90502978Y-80545705D01*
X90685369Y-80452772D01*
X90804259Y-80366394D01*
X90850972Y-80332456D01*
X90850974Y-80332453D01*
X90850978Y-80332451D01*
X90995725Y-80187704D01*
X90995727Y-80187700D01*
X90995730Y-80187698D01*
X91048491Y-80115075D01*
X91116046Y-80022095D01*
X91208979Y-79839704D01*
X91272236Y-79645019D01*
X91304259Y-79442837D01*
X91304259Y-79238133D01*
X91272236Y-79035951D01*
X91208979Y-78841266D01*
X91208977Y-78841263D01*
X91208977Y-78841261D01*
X91174737Y-78774063D01*
X91116046Y-78658875D01*
X91096725Y-78632282D01*
X90995730Y-78493271D01*
X90850972Y-78348513D01*
X90685373Y-78228200D01*
X90678765Y-78224833D01*
X90592676Y-78180968D01*
X90541882Y-78132996D01*
X90525087Y-78065175D01*
X90547624Y-77999040D01*
X90592676Y-77960001D01*
X90685369Y-77912772D01*
X90706529Y-77897398D01*
X90850972Y-77792456D01*
X90850974Y-77792453D01*
X90850978Y-77792451D01*
X90995725Y-77647704D01*
X90995727Y-77647700D01*
X90995730Y-77647698D01*
X91048491Y-77575075D01*
X91116046Y-77482095D01*
X91208979Y-77299704D01*
X91272236Y-77105019D01*
X91304259Y-76902837D01*
X91304259Y-76698133D01*
X91272236Y-76495951D01*
X91208979Y-76301266D01*
X91208977Y-76301263D01*
X91208977Y-76301261D01*
X91175262Y-76235092D01*
X91116046Y-76118875D01*
X91108315Y-76108234D01*
X90995730Y-75953271D01*
X90850972Y-75808513D01*
X90685373Y-75688200D01*
X90678765Y-75684833D01*
X90592676Y-75640968D01*
X90541882Y-75592996D01*
X90525087Y-75525175D01*
X90547624Y-75459040D01*
X90592676Y-75420001D01*
X90685369Y-75372772D01*
X90797372Y-75291398D01*
X90850972Y-75252456D01*
X90850974Y-75252453D01*
X90850978Y-75252451D01*
X90995725Y-75107704D01*
X90995727Y-75107700D01*
X90995730Y-75107698D01*
X91048491Y-75035075D01*
X91116046Y-74942095D01*
X91208979Y-74759704D01*
X91272236Y-74565019D01*
X91304259Y-74362837D01*
X91304259Y-74158133D01*
X91272236Y-73955951D01*
X91208979Y-73761266D01*
X91208977Y-73761263D01*
X91208977Y-73761261D01*
X91175262Y-73695092D01*
X91116046Y-73578875D01*
X91074168Y-73521234D01*
X90995730Y-73413271D01*
X90850972Y-73268513D01*
X90685373Y-73148200D01*
X90603991Y-73106734D01*
X90592676Y-73100968D01*
X90541882Y-73052996D01*
X90525087Y-72985175D01*
X90547624Y-72919040D01*
X90592676Y-72880001D01*
X90685369Y-72832772D01*
X90706529Y-72817398D01*
X90850972Y-72712456D01*
X90850974Y-72712453D01*
X90850978Y-72712451D01*
X90995725Y-72567704D01*
X90995727Y-72567700D01*
X90995730Y-72567698D01*
X91048491Y-72495075D01*
X91116046Y-72402095D01*
X91208979Y-72219704D01*
X91272236Y-72025019D01*
X91304259Y-71822837D01*
X91304259Y-71618133D01*
X91272236Y-71415951D01*
X91268401Y-71404149D01*
X91224467Y-71268934D01*
X91208979Y-71221266D01*
X91208977Y-71221263D01*
X91208977Y-71221261D01*
X91171466Y-71147642D01*
X91116046Y-71038875D01*
X91108315Y-71028234D01*
X90995730Y-70873271D01*
X90850972Y-70728513D01*
X90685373Y-70608200D01*
X90678765Y-70604833D01*
X90592676Y-70560968D01*
X90541882Y-70512996D01*
X90525087Y-70445175D01*
X90547624Y-70379040D01*
X90592676Y-70340001D01*
X90685369Y-70292772D01*
X90752222Y-70244201D01*
X90850972Y-70172456D01*
X90850974Y-70172453D01*
X90850978Y-70172451D01*
X90995725Y-70027704D01*
X90995727Y-70027700D01*
X90995730Y-70027698D01*
X91048491Y-69955075D01*
X91116046Y-69862095D01*
X91208979Y-69679704D01*
X91272236Y-69485019D01*
X91304259Y-69282837D01*
X91304259Y-69078133D01*
X91272236Y-68875951D01*
X91256620Y-68827891D01*
X91208977Y-68681261D01*
X91155048Y-68575421D01*
X91116046Y-68498875D01*
X91062630Y-68425353D01*
X90995730Y-68333271D01*
X90850972Y-68188513D01*
X90685373Y-68068200D01*
X90676686Y-68063774D01*
X90592676Y-68020968D01*
X90541882Y-67972996D01*
X90525087Y-67905175D01*
X90547624Y-67839040D01*
X90592676Y-67800001D01*
X90685369Y-67752772D01*
X90771036Y-67690532D01*
X90850972Y-67632456D01*
X90850974Y-67632453D01*
X90850978Y-67632451D01*
X90995725Y-67487704D01*
X90995727Y-67487700D01*
X90995730Y-67487698D01*
X91048491Y-67415075D01*
X91116046Y-67322095D01*
X91208979Y-67139704D01*
X91272236Y-66945019D01*
X91304259Y-66742837D01*
X91304259Y-66538133D01*
X91272236Y-66335951D01*
X91208979Y-66141266D01*
X91208977Y-66141263D01*
X91208977Y-66141261D01*
X91156235Y-66037750D01*
X91116046Y-65958875D01*
X91108315Y-65948234D01*
X90995730Y-65793271D01*
X90850972Y-65648513D01*
X90685373Y-65528200D01*
X90678765Y-65524833D01*
X90592676Y-65480968D01*
X90541882Y-65432996D01*
X90525087Y-65365175D01*
X90547624Y-65299040D01*
X90592676Y-65260001D01*
X90685369Y-65212772D01*
X90706529Y-65197398D01*
X90850972Y-65092456D01*
X90850974Y-65092453D01*
X90850978Y-65092451D01*
X90995725Y-64947704D01*
X90995727Y-64947700D01*
X90995730Y-64947698D01*
X91048491Y-64875075D01*
X91116046Y-64782095D01*
X91208979Y-64599704D01*
X91272236Y-64405019D01*
X91304259Y-64202837D01*
X91304259Y-63998133D01*
X91272236Y-63795951D01*
X91208979Y-63601266D01*
X91208977Y-63601263D01*
X91208977Y-63601261D01*
X91175262Y-63535092D01*
X91116046Y-63418875D01*
X91108315Y-63408234D01*
X90995730Y-63253271D01*
X90850972Y-63108513D01*
X90685373Y-62988200D01*
X90678765Y-62984833D01*
X90592676Y-62940968D01*
X90541882Y-62892996D01*
X90525087Y-62825175D01*
X90547624Y-62759040D01*
X90592676Y-62720001D01*
X90685369Y-62672772D01*
X90743511Y-62630530D01*
X90850972Y-62552456D01*
X90850974Y-62552453D01*
X90850978Y-62552451D01*
X90995725Y-62407704D01*
X90995727Y-62407700D01*
X90995730Y-62407698D01*
X91086167Y-62283220D01*
X91116046Y-62242095D01*
X91208979Y-62059704D01*
X91272236Y-61865019D01*
X91304259Y-61662837D01*
X91304259Y-61458133D01*
X91272236Y-61255951D01*
X91248853Y-61183987D01*
X91242886Y-61165622D01*
X91208979Y-61061266D01*
X91208977Y-61061263D01*
X91208977Y-61061261D01*
X91166425Y-60977750D01*
X91116046Y-60878875D01*
X91108315Y-60868234D01*
X90995730Y-60713271D01*
X90850972Y-60568513D01*
X90685373Y-60448200D01*
X90599055Y-60404219D01*
X90592676Y-60400968D01*
X90541882Y-60352996D01*
X90525087Y-60285175D01*
X90547624Y-60219040D01*
X90592676Y-60180001D01*
X90685369Y-60132772D01*
X90706529Y-60117398D01*
X90850972Y-60012456D01*
X90850974Y-60012453D01*
X90850978Y-60012451D01*
X90995725Y-59867704D01*
X90995727Y-59867700D01*
X90995730Y-59867698D01*
X91048491Y-59795075D01*
X91116046Y-59702095D01*
X91208979Y-59519704D01*
X91272236Y-59325019D01*
X91304259Y-59122837D01*
X91304259Y-58918133D01*
X91272236Y-58715951D01*
X91208979Y-58521266D01*
X91208977Y-58521263D01*
X91208977Y-58521261D01*
X91175262Y-58455092D01*
X91116046Y-58338875D01*
X91108315Y-58328234D01*
X90995730Y-58173271D01*
X90850972Y-58028513D01*
X90685373Y-57908200D01*
X90678765Y-57904833D01*
X90592676Y-57860968D01*
X90541882Y-57812996D01*
X90525087Y-57745175D01*
X90547624Y-57679040D01*
X90592676Y-57640001D01*
X90685369Y-57592772D01*
X90815857Y-57497968D01*
X90850972Y-57472456D01*
X90850974Y-57472453D01*
X90850978Y-57472451D01*
X90995725Y-57327704D01*
X90995727Y-57327700D01*
X90995730Y-57327698D01*
X91058397Y-57241443D01*
X91116046Y-57162095D01*
X91208979Y-56979704D01*
X91272236Y-56785019D01*
X91304259Y-56582837D01*
X91304259Y-56378133D01*
X91272236Y-56175951D01*
X91208979Y-55981266D01*
X91208977Y-55981263D01*
X91208977Y-55981261D01*
X91175262Y-55915092D01*
X91116046Y-55798875D01*
X91066080Y-55730102D01*
X90995730Y-55633271D01*
X90850972Y-55488513D01*
X90685373Y-55368200D01*
X90646030Y-55348154D01*
X90592676Y-55320968D01*
X90541882Y-55272996D01*
X90525087Y-55205175D01*
X90547624Y-55139040D01*
X90592676Y-55100001D01*
X90685369Y-55052772D01*
X90706529Y-55037398D01*
X90850972Y-54932456D01*
X90850974Y-54932453D01*
X90850978Y-54932451D01*
X90995725Y-54787704D01*
X90995727Y-54787700D01*
X90995730Y-54787698D01*
X91048491Y-54715075D01*
X91116046Y-54622095D01*
X91208979Y-54439704D01*
X91272236Y-54245019D01*
X91304259Y-54042837D01*
X91304259Y-53838133D01*
X91272236Y-53635951D01*
X91208979Y-53441266D01*
X91208977Y-53441263D01*
X91208977Y-53441261D01*
X91175262Y-53375092D01*
X91116046Y-53258875D01*
X91108315Y-53248234D01*
X90995730Y-53093271D01*
X90850972Y-52948513D01*
X90685373Y-52828200D01*
X90678765Y-52824833D01*
X90592676Y-52780968D01*
X90541882Y-52732996D01*
X90525087Y-52665175D01*
X90547624Y-52599040D01*
X90592676Y-52560001D01*
X90685369Y-52512772D01*
X90772715Y-52449312D01*
X90850972Y-52392456D01*
X90850974Y-52392453D01*
X90850978Y-52392451D01*
X90995725Y-52247704D01*
X90995727Y-52247700D01*
X90995730Y-52247698D01*
X91048491Y-52175075D01*
X91116046Y-52082095D01*
X91208979Y-51899704D01*
X91272236Y-51705019D01*
X91304259Y-51502837D01*
X91304259Y-51298133D01*
X107423259Y-51298133D01*
X107423259Y-51502836D01*
X107455281Y-51705019D01*
X107518540Y-51899708D01*
X107611474Y-52082098D01*
X107731787Y-52247698D01*
X107876545Y-52392456D01*
X108031508Y-52505041D01*
X108042149Y-52512772D01*
X108133599Y-52559368D01*
X108134839Y-52560000D01*
X108185635Y-52607975D01*
X108202430Y-52675796D01*
X108179893Y-52741931D01*
X108134839Y-52780970D01*
X108042145Y-52828200D01*
X107876545Y-52948513D01*
X107731787Y-53093271D01*
X107611474Y-53258871D01*
X107518540Y-53441261D01*
X107455281Y-53635950D01*
X107423259Y-53838133D01*
X107423259Y-54042836D01*
X107455281Y-54245019D01*
X107518540Y-54439708D01*
X107611474Y-54622098D01*
X107731787Y-54787698D01*
X107876545Y-54932456D01*
X108031508Y-55045041D01*
X108042149Y-55052772D01*
X108116165Y-55090485D01*
X108134839Y-55100000D01*
X108185635Y-55147975D01*
X108202430Y-55215796D01*
X108179893Y-55281931D01*
X108134839Y-55320970D01*
X108042145Y-55368200D01*
X107876545Y-55488513D01*
X107731787Y-55633271D01*
X107611474Y-55798871D01*
X107518540Y-55981261D01*
X107455281Y-56175950D01*
X107423259Y-56378133D01*
X107423259Y-56582836D01*
X107455281Y-56785019D01*
X107518540Y-56979708D01*
X107582450Y-57105138D01*
X107610065Y-57159334D01*
X107611474Y-57162098D01*
X107731787Y-57327698D01*
X107876545Y-57472456D01*
X108029748Y-57583762D01*
X108042149Y-57592772D01*
X108120734Y-57632813D01*
X108134839Y-57640000D01*
X108185635Y-57687975D01*
X108202430Y-57755796D01*
X108179893Y-57821931D01*
X108134839Y-57860970D01*
X108042145Y-57908200D01*
X107876545Y-58028513D01*
X107731787Y-58173271D01*
X107611474Y-58338871D01*
X107518540Y-58521261D01*
X107455281Y-58715950D01*
X107423259Y-58918133D01*
X107423259Y-59122836D01*
X107455281Y-59325019D01*
X107518540Y-59519708D01*
X107611474Y-59702098D01*
X107731787Y-59867698D01*
X107876545Y-60012456D01*
X108031508Y-60125041D01*
X108042149Y-60132772D01*
X108133599Y-60179368D01*
X108134839Y-60180000D01*
X108185635Y-60227975D01*
X108202430Y-60295796D01*
X108179893Y-60361931D01*
X108134839Y-60400970D01*
X108042145Y-60448200D01*
X107876545Y-60568513D01*
X107731787Y-60713271D01*
X107611474Y-60878871D01*
X107518540Y-61061261D01*
X107455281Y-61255950D01*
X107423259Y-61458133D01*
X107423259Y-61662836D01*
X107455281Y-61865019D01*
X107518540Y-62059708D01*
X107611474Y-62242098D01*
X107731787Y-62407698D01*
X107876545Y-62552456D01*
X107984007Y-62630530D01*
X108042149Y-62672772D01*
X108133599Y-62719368D01*
X108134839Y-62720000D01*
X108185635Y-62767975D01*
X108202430Y-62835796D01*
X108179893Y-62901931D01*
X108134839Y-62940970D01*
X108042145Y-62988200D01*
X107876545Y-63108513D01*
X107731787Y-63253271D01*
X107611474Y-63418871D01*
X107518540Y-63601261D01*
X107455281Y-63795950D01*
X107423259Y-63998133D01*
X107423259Y-64202836D01*
X107455281Y-64405019D01*
X107518540Y-64599708D01*
X107611474Y-64782098D01*
X107731787Y-64947698D01*
X107876545Y-65092456D01*
X108031508Y-65205041D01*
X108042149Y-65212772D01*
X108133599Y-65259368D01*
X108134839Y-65260000D01*
X108185635Y-65307975D01*
X108202430Y-65375796D01*
X108179893Y-65441931D01*
X108134839Y-65480970D01*
X108042145Y-65528200D01*
X107876545Y-65648513D01*
X107731787Y-65793271D01*
X107611474Y-65958871D01*
X107518540Y-66141261D01*
X107455281Y-66335950D01*
X107423259Y-66538133D01*
X107423259Y-66742836D01*
X107455281Y-66945019D01*
X107518540Y-67139708D01*
X107611474Y-67322098D01*
X107731787Y-67487698D01*
X107876545Y-67632456D01*
X108031508Y-67745041D01*
X108042149Y-67752772D01*
X108109072Y-67786871D01*
X108134839Y-67800000D01*
X108185635Y-67847975D01*
X108202430Y-67915796D01*
X108179893Y-67981931D01*
X108134839Y-68020970D01*
X108042145Y-68068200D01*
X107876545Y-68188513D01*
X107731787Y-68333271D01*
X107611474Y-68498871D01*
X107518540Y-68681261D01*
X107455281Y-68875950D01*
X107423259Y-69078133D01*
X107423259Y-69282836D01*
X107455281Y-69485019D01*
X107518540Y-69679708D01*
X107611474Y-69862098D01*
X107731787Y-70027698D01*
X107876545Y-70172456D01*
X107975296Y-70244201D01*
X108042149Y-70292772D01*
X108133599Y-70339368D01*
X108134839Y-70340000D01*
X108185635Y-70387975D01*
X108202430Y-70455796D01*
X108179893Y-70521931D01*
X108134839Y-70560970D01*
X108042145Y-70608200D01*
X107876545Y-70728513D01*
X107731787Y-70873271D01*
X107611474Y-71038871D01*
X107518540Y-71221261D01*
X107455281Y-71415950D01*
X107423259Y-71618133D01*
X107423259Y-71822836D01*
X107455281Y-72025019D01*
X107518540Y-72219708D01*
X107611474Y-72402098D01*
X107731787Y-72567698D01*
X107876545Y-72712456D01*
X108031508Y-72825041D01*
X108042149Y-72832772D01*
X108112126Y-72868427D01*
X108134839Y-72880000D01*
X108185635Y-72927975D01*
X108202430Y-72995796D01*
X108179893Y-73061931D01*
X108134839Y-73100970D01*
X108042145Y-73148200D01*
X107876545Y-73268513D01*
X107731787Y-73413271D01*
X107611474Y-73578871D01*
X107518540Y-73761261D01*
X107455281Y-73955950D01*
X107423259Y-74158133D01*
X107423259Y-74362836D01*
X107455281Y-74565019D01*
X107518540Y-74759708D01*
X107611474Y-74942098D01*
X107731787Y-75107698D01*
X107876545Y-75252456D01*
X108031508Y-75365041D01*
X108042149Y-75372772D01*
X108108554Y-75406607D01*
X108134839Y-75420000D01*
X108185635Y-75467975D01*
X108202430Y-75535796D01*
X108179893Y-75601931D01*
X108134839Y-75640970D01*
X108042145Y-75688200D01*
X107876545Y-75808513D01*
X107731787Y-75953271D01*
X107611474Y-76118871D01*
X107518540Y-76301261D01*
X107455281Y-76495950D01*
X107423259Y-76698133D01*
X107423259Y-76902836D01*
X107455281Y-77105019D01*
X107518540Y-77299708D01*
X107611474Y-77482098D01*
X107731787Y-77647698D01*
X107876545Y-77792456D01*
X108031508Y-77905041D01*
X108042149Y-77912772D01*
X108102313Y-77943427D01*
X108134839Y-77960000D01*
X108185635Y-78007975D01*
X108202430Y-78075796D01*
X108179893Y-78141931D01*
X108134839Y-78180970D01*
X108042145Y-78228200D01*
X107876545Y-78348513D01*
X107731787Y-78493271D01*
X107611474Y-78658871D01*
X107518540Y-78841261D01*
X107455281Y-79035950D01*
X107423259Y-79238133D01*
X107423259Y-79442836D01*
X107455281Y-79645019D01*
X107518540Y-79839708D01*
X107611474Y-80022098D01*
X107731787Y-80187698D01*
X107876545Y-80332456D01*
X108031508Y-80445041D01*
X108042149Y-80452772D01*
X108158366Y-80511988D01*
X108224535Y-80545703D01*
X108224537Y-80545703D01*
X108224540Y-80545705D01*
X108292714Y-80567856D01*
X108419224Y-80608962D01*
X108477260Y-80618154D01*
X108621407Y-80640985D01*
X108621408Y-80640985D01*
X109826110Y-80640985D01*
X109826111Y-80640985D01*
X110028293Y-80608962D01*
X110222978Y-80545705D01*
X110405369Y-80452772D01*
X110524259Y-80366394D01*
X110570972Y-80332456D01*
X110570974Y-80332453D01*
X110570978Y-80332451D01*
X110715725Y-80187704D01*
X110715727Y-80187700D01*
X110715730Y-80187698D01*
X110768491Y-80115075D01*
X110836046Y-80022095D01*
X110928979Y-79839704D01*
X110992236Y-79645019D01*
X111024259Y-79442837D01*
X111024259Y-79238133D01*
X110992236Y-79035951D01*
X110928979Y-78841266D01*
X110928977Y-78841263D01*
X110928977Y-78841261D01*
X110894737Y-78774063D01*
X110836046Y-78658875D01*
X110816725Y-78632282D01*
X110715730Y-78493271D01*
X110570972Y-78348513D01*
X110405373Y-78228200D01*
X110398765Y-78224833D01*
X110312676Y-78180968D01*
X110261882Y-78132996D01*
X110245087Y-78065175D01*
X110267624Y-77999040D01*
X110312676Y-77960001D01*
X110405369Y-77912772D01*
X110426529Y-77897398D01*
X110570972Y-77792456D01*
X110570974Y-77792453D01*
X110570978Y-77792451D01*
X110715725Y-77647704D01*
X110715727Y-77647700D01*
X110715730Y-77647698D01*
X110768491Y-77575075D01*
X110836046Y-77482095D01*
X110928979Y-77299704D01*
X110992236Y-77105019D01*
X111024259Y-76902837D01*
X111024259Y-76698133D01*
X110992236Y-76495951D01*
X110928979Y-76301266D01*
X110928977Y-76301263D01*
X110928977Y-76301261D01*
X110895262Y-76235092D01*
X110836046Y-76118875D01*
X110828315Y-76108234D01*
X110715730Y-75953271D01*
X110570972Y-75808513D01*
X110405373Y-75688200D01*
X110398765Y-75684833D01*
X110312676Y-75640968D01*
X110261882Y-75592996D01*
X110245087Y-75525175D01*
X110267624Y-75459040D01*
X110312676Y-75420001D01*
X110405369Y-75372772D01*
X110517372Y-75291398D01*
X110570972Y-75252456D01*
X110570974Y-75252453D01*
X110570978Y-75252451D01*
X110715725Y-75107704D01*
X110715727Y-75107700D01*
X110715730Y-75107698D01*
X110768491Y-75035075D01*
X110836046Y-74942095D01*
X110928979Y-74759704D01*
X110992236Y-74565019D01*
X111024259Y-74362837D01*
X111024259Y-74158133D01*
X110992236Y-73955951D01*
X110928979Y-73761266D01*
X110928977Y-73761263D01*
X110928977Y-73761261D01*
X110895262Y-73695092D01*
X110836046Y-73578875D01*
X110794168Y-73521234D01*
X110715730Y-73413271D01*
X110570972Y-73268513D01*
X110405373Y-73148200D01*
X110323991Y-73106734D01*
X110312676Y-73100968D01*
X110261882Y-73052996D01*
X110245087Y-72985175D01*
X110267624Y-72919040D01*
X110312676Y-72880001D01*
X110405369Y-72832772D01*
X110426529Y-72817398D01*
X110570972Y-72712456D01*
X110570974Y-72712453D01*
X110570978Y-72712451D01*
X110715725Y-72567704D01*
X110715727Y-72567700D01*
X110715730Y-72567698D01*
X110768491Y-72495075D01*
X110836046Y-72402095D01*
X110928979Y-72219704D01*
X110992236Y-72025019D01*
X111024259Y-71822837D01*
X111024259Y-71618133D01*
X110992236Y-71415951D01*
X110988401Y-71404149D01*
X110944467Y-71268934D01*
X110928979Y-71221266D01*
X110928977Y-71221263D01*
X110928977Y-71221261D01*
X110891466Y-71147642D01*
X110836046Y-71038875D01*
X110828315Y-71028234D01*
X110715730Y-70873271D01*
X110570972Y-70728513D01*
X110405373Y-70608200D01*
X110398765Y-70604833D01*
X110312676Y-70560968D01*
X110261882Y-70512996D01*
X110245087Y-70445175D01*
X110267624Y-70379040D01*
X110312676Y-70340001D01*
X110405369Y-70292772D01*
X110472222Y-70244201D01*
X110570972Y-70172456D01*
X110570974Y-70172453D01*
X110570978Y-70172451D01*
X110715725Y-70027704D01*
X110715727Y-70027700D01*
X110715730Y-70027698D01*
X110768491Y-69955075D01*
X110836046Y-69862095D01*
X110928979Y-69679704D01*
X110978658Y-69526808D01*
X114259302Y-69526808D01*
X114259302Y-69769385D01*
X114290963Y-70009882D01*
X114353749Y-70244201D01*
X114438564Y-70448962D01*
X114446578Y-70468309D01*
X114567866Y-70678386D01*
X114567868Y-70678389D01*
X114567869Y-70678390D01*
X114715535Y-70870833D01*
X114715541Y-70870840D01*
X114887058Y-71042357D01*
X114887064Y-71042362D01*
X115079513Y-71190033D01*
X115289590Y-71311321D01*
X115513702Y-71404151D01*
X115748013Y-71466935D01*
X115928388Y-71490681D01*
X115988513Y-71498597D01*
X115988514Y-71498597D01*
X116231091Y-71498597D01*
X116279190Y-71492264D01*
X116471591Y-71466935D01*
X116705902Y-71404151D01*
X116930014Y-71311321D01*
X117140091Y-71190033D01*
X117332540Y-71042362D01*
X117504067Y-70870835D01*
X117651738Y-70678386D01*
X117773026Y-70468309D01*
X117865856Y-70244197D01*
X117928640Y-70009886D01*
X117960302Y-69769385D01*
X117960302Y-69526809D01*
X117954722Y-69484421D01*
X144755278Y-69484421D01*
X144755278Y-69726998D01*
X144786939Y-69967495D01*
X144849725Y-70201814D01*
X144926836Y-70387975D01*
X144942554Y-70425922D01*
X145063842Y-70635999D01*
X145063844Y-70636002D01*
X145063845Y-70636003D01*
X145211511Y-70828446D01*
X145211517Y-70828453D01*
X145383034Y-70999970D01*
X145383041Y-70999976D01*
X145438273Y-71042357D01*
X145575489Y-71147646D01*
X145785566Y-71268934D01*
X146009678Y-71361764D01*
X146243989Y-71424548D01*
X146424364Y-71448294D01*
X146484489Y-71456210D01*
X146484490Y-71456210D01*
X146727067Y-71456210D01*
X146775166Y-71449877D01*
X146967567Y-71424548D01*
X147201878Y-71361764D01*
X147425990Y-71268934D01*
X147636067Y-71147646D01*
X147828516Y-70999975D01*
X148000043Y-70828448D01*
X148147714Y-70635999D01*
X148269002Y-70425922D01*
X148361832Y-70201810D01*
X148424616Y-69967499D01*
X148456278Y-69726998D01*
X148456278Y-69484422D01*
X148424616Y-69243921D01*
X148361832Y-69009610D01*
X148269002Y-68785498D01*
X148147714Y-68575421D01*
X148086796Y-68496031D01*
X148000044Y-68382973D01*
X148000038Y-68382966D01*
X147828521Y-68211449D01*
X147828514Y-68211443D01*
X147636071Y-68063777D01*
X147636070Y-68063776D01*
X147636067Y-68063774D01*
X147425990Y-67942486D01*
X147365007Y-67917226D01*
X147201882Y-67849657D01*
X146967563Y-67786871D01*
X146727067Y-67755210D01*
X146727066Y-67755210D01*
X146484490Y-67755210D01*
X146484489Y-67755210D01*
X146243992Y-67786871D01*
X146009673Y-67849657D01*
X145785572Y-67942483D01*
X145785563Y-67942487D01*
X145575484Y-68063777D01*
X145383041Y-68211443D01*
X145383034Y-68211449D01*
X145211517Y-68382966D01*
X145211511Y-68382973D01*
X145063845Y-68575416D01*
X144942555Y-68785495D01*
X144942551Y-68785504D01*
X144849725Y-69009605D01*
X144786939Y-69243924D01*
X144755278Y-69484421D01*
X117954722Y-69484421D01*
X117928640Y-69286308D01*
X117865856Y-69051997D01*
X117773026Y-68827885D01*
X117651738Y-68617808D01*
X117504067Y-68425359D01*
X117504062Y-68425353D01*
X117332545Y-68253836D01*
X117332538Y-68253830D01*
X117140095Y-68106164D01*
X117140094Y-68106163D01*
X117140091Y-68106161D01*
X116930014Y-67984873D01*
X116930007Y-67984870D01*
X116705906Y-67892044D01*
X116471587Y-67829258D01*
X116231091Y-67797597D01*
X116231090Y-67797597D01*
X115988514Y-67797597D01*
X115988513Y-67797597D01*
X115748016Y-67829258D01*
X115513697Y-67892044D01*
X115289596Y-67984870D01*
X115289587Y-67984874D01*
X115079508Y-68106164D01*
X114887065Y-68253830D01*
X114887058Y-68253836D01*
X114715541Y-68425353D01*
X114715535Y-68425360D01*
X114567869Y-68617803D01*
X114446579Y-68827882D01*
X114446575Y-68827891D01*
X114353749Y-69051992D01*
X114290963Y-69286311D01*
X114259302Y-69526808D01*
X110978658Y-69526808D01*
X110992236Y-69485019D01*
X111024259Y-69282837D01*
X111024259Y-69078133D01*
X110992236Y-68875951D01*
X110976620Y-68827891D01*
X110928977Y-68681261D01*
X110875048Y-68575421D01*
X110836046Y-68498875D01*
X110782630Y-68425353D01*
X110715730Y-68333271D01*
X110570972Y-68188513D01*
X110405373Y-68068200D01*
X110396686Y-68063774D01*
X110312676Y-68020968D01*
X110261882Y-67972996D01*
X110245087Y-67905175D01*
X110267624Y-67839040D01*
X110312676Y-67800001D01*
X110405369Y-67752772D01*
X110491036Y-67690532D01*
X110570972Y-67632456D01*
X110570974Y-67632453D01*
X110570978Y-67632451D01*
X110715725Y-67487704D01*
X110715727Y-67487700D01*
X110715730Y-67487698D01*
X110768491Y-67415075D01*
X110836046Y-67322095D01*
X110928979Y-67139704D01*
X110992236Y-66945019D01*
X111024259Y-66742837D01*
X111024259Y-66538133D01*
X110992236Y-66335951D01*
X110928979Y-66141266D01*
X110928977Y-66141263D01*
X110928977Y-66141261D01*
X110876235Y-66037750D01*
X110836046Y-65958875D01*
X110828315Y-65948234D01*
X110715730Y-65793271D01*
X110570972Y-65648513D01*
X110405373Y-65528200D01*
X110398765Y-65524833D01*
X110312676Y-65480968D01*
X110261882Y-65432996D01*
X110245087Y-65365175D01*
X110267624Y-65299040D01*
X110312676Y-65260001D01*
X110405369Y-65212772D01*
X110426529Y-65197398D01*
X110570972Y-65092456D01*
X110570974Y-65092453D01*
X110570978Y-65092451D01*
X110715725Y-64947704D01*
X110715727Y-64947700D01*
X110715730Y-64947698D01*
X110768491Y-64875075D01*
X110836046Y-64782095D01*
X110928979Y-64599704D01*
X110992236Y-64405019D01*
X111024259Y-64202837D01*
X111024259Y-63998133D01*
X110992236Y-63795951D01*
X110928979Y-63601266D01*
X110928977Y-63601263D01*
X110928977Y-63601261D01*
X110895262Y-63535092D01*
X110836046Y-63418875D01*
X110828315Y-63408234D01*
X110715730Y-63253271D01*
X110570972Y-63108513D01*
X110405373Y-62988200D01*
X110398765Y-62984833D01*
X110312676Y-62940968D01*
X110261882Y-62892996D01*
X110245087Y-62825175D01*
X110267624Y-62759040D01*
X110312676Y-62720001D01*
X110405369Y-62672772D01*
X110463511Y-62630530D01*
X110570972Y-62552456D01*
X110570974Y-62552453D01*
X110570978Y-62552451D01*
X110715725Y-62407704D01*
X110715727Y-62407700D01*
X110715730Y-62407698D01*
X110806167Y-62283220D01*
X110836046Y-62242095D01*
X110928979Y-62059704D01*
X110992236Y-61865019D01*
X111024259Y-61662837D01*
X111024259Y-61458133D01*
X110992236Y-61255951D01*
X110968853Y-61183987D01*
X110962886Y-61165622D01*
X110928979Y-61061266D01*
X110928977Y-61061263D01*
X110928977Y-61061261D01*
X110886425Y-60977750D01*
X110836046Y-60878875D01*
X110828315Y-60868234D01*
X110715730Y-60713271D01*
X110570972Y-60568513D01*
X110405373Y-60448200D01*
X110319055Y-60404219D01*
X110312676Y-60400968D01*
X110261882Y-60352996D01*
X110245087Y-60285175D01*
X110267624Y-60219040D01*
X110312676Y-60180001D01*
X110405369Y-60132772D01*
X110426529Y-60117398D01*
X110570972Y-60012456D01*
X110570974Y-60012453D01*
X110570978Y-60012451D01*
X110715725Y-59867704D01*
X110715727Y-59867700D01*
X110715730Y-59867698D01*
X110768491Y-59795075D01*
X110836046Y-59702095D01*
X110928979Y-59519704D01*
X110992236Y-59325019D01*
X111024259Y-59122837D01*
X111024259Y-58918133D01*
X110992236Y-58715951D01*
X110928979Y-58521266D01*
X110928977Y-58521263D01*
X110928977Y-58521261D01*
X110895262Y-58455092D01*
X110836046Y-58338875D01*
X110828315Y-58328234D01*
X110715730Y-58173271D01*
X110570972Y-58028513D01*
X110405373Y-57908200D01*
X110398765Y-57904833D01*
X110312676Y-57860968D01*
X110261882Y-57812996D01*
X110245087Y-57745175D01*
X110267624Y-57679040D01*
X110312676Y-57640001D01*
X110405369Y-57592772D01*
X110535857Y-57497968D01*
X110570972Y-57472456D01*
X110570974Y-57472453D01*
X110570978Y-57472451D01*
X110715725Y-57327704D01*
X110715727Y-57327700D01*
X110715730Y-57327698D01*
X110778397Y-57241443D01*
X110836046Y-57162095D01*
X110928979Y-56979704D01*
X110992236Y-56785019D01*
X111024259Y-56582837D01*
X111024259Y-56378133D01*
X110992236Y-56175951D01*
X110928979Y-55981266D01*
X110928977Y-55981263D01*
X110928977Y-55981261D01*
X110895262Y-55915092D01*
X110836046Y-55798875D01*
X110786080Y-55730102D01*
X110715730Y-55633271D01*
X110570972Y-55488513D01*
X110405373Y-55368200D01*
X110366030Y-55348154D01*
X110312676Y-55320968D01*
X110261882Y-55272996D01*
X110245087Y-55205175D01*
X110267624Y-55139040D01*
X110312676Y-55100001D01*
X110405369Y-55052772D01*
X110426529Y-55037398D01*
X110570972Y-54932456D01*
X110570974Y-54932453D01*
X110570978Y-54932451D01*
X110715725Y-54787704D01*
X110715727Y-54787700D01*
X110715730Y-54787698D01*
X110768491Y-54715075D01*
X110836046Y-54622095D01*
X110928979Y-54439704D01*
X110992236Y-54245019D01*
X111024259Y-54042837D01*
X111024259Y-53838133D01*
X110992236Y-53635951D01*
X110928979Y-53441266D01*
X110928977Y-53441263D01*
X110928977Y-53441261D01*
X110895262Y-53375092D01*
X110836046Y-53258875D01*
X110828315Y-53248234D01*
X110715730Y-53093271D01*
X110570972Y-52948513D01*
X110405373Y-52828200D01*
X110398765Y-52824833D01*
X110312676Y-52780968D01*
X110261882Y-52732996D01*
X110245087Y-52665175D01*
X110267624Y-52599040D01*
X110312676Y-52560001D01*
X110405369Y-52512772D01*
X110492715Y-52449312D01*
X110570972Y-52392456D01*
X110570974Y-52392453D01*
X110570978Y-52392451D01*
X110715725Y-52247704D01*
X110715727Y-52247700D01*
X110715730Y-52247698D01*
X110768491Y-52175075D01*
X110836046Y-52082095D01*
X110928979Y-51899704D01*
X110992236Y-51705019D01*
X111024259Y-51502837D01*
X111024259Y-51298133D01*
X110992236Y-51095951D01*
X110928979Y-50901266D01*
X110928977Y-50901263D01*
X110928977Y-50901261D01*
X110888927Y-50822660D01*
X110836046Y-50718875D01*
X110826383Y-50705575D01*
X110715730Y-50553271D01*
X110570972Y-50408513D01*
X110405372Y-50288200D01*
X110405371Y-50288199D01*
X110405369Y-50288198D01*
X110348412Y-50259176D01*
X110222982Y-50195266D01*
X110028293Y-50132007D01*
X109853754Y-50104363D01*
X109826111Y-50099985D01*
X108621407Y-50099985D01*
X108597088Y-50103836D01*
X108419224Y-50132007D01*
X108224535Y-50195266D01*
X108042145Y-50288200D01*
X107876545Y-50408513D01*
X107731787Y-50553271D01*
X107611474Y-50718871D01*
X107518540Y-50901261D01*
X107455281Y-51095950D01*
X107423259Y-51298133D01*
X91304259Y-51298133D01*
X91272236Y-51095951D01*
X91208979Y-50901266D01*
X91208977Y-50901263D01*
X91208977Y-50901261D01*
X91168927Y-50822660D01*
X91116046Y-50718875D01*
X91106383Y-50705575D01*
X90995730Y-50553271D01*
X90850972Y-50408513D01*
X90685373Y-50288200D01*
X90678765Y-50284833D01*
X90592676Y-50240968D01*
X90541882Y-50192996D01*
X90525087Y-50125175D01*
X90547624Y-50059040D01*
X90592676Y-50020001D01*
X90685369Y-49972772D01*
X90767914Y-49912800D01*
X90850972Y-49852456D01*
X90850974Y-49852453D01*
X90850978Y-49852451D01*
X90995725Y-49707704D01*
X90995727Y-49707700D01*
X90995730Y-49707698D01*
X91066046Y-49610914D01*
X91116046Y-49542095D01*
X91208979Y-49359704D01*
X91272236Y-49165019D01*
X91304259Y-48962837D01*
X91304259Y-48758133D01*
X91272236Y-48555951D01*
X91208979Y-48361266D01*
X91208977Y-48361263D01*
X91208977Y-48361261D01*
X91175262Y-48295092D01*
X91116046Y-48178875D01*
X91108315Y-48168234D01*
X90995730Y-48013271D01*
X90850972Y-47868513D01*
X90685373Y-47748200D01*
X90678765Y-47744833D01*
X90592676Y-47700968D01*
X90541882Y-47652996D01*
X90525087Y-47585175D01*
X90547624Y-47519040D01*
X90592676Y-47480001D01*
X90685369Y-47432772D01*
X90706529Y-47417398D01*
X90850972Y-47312456D01*
X90850974Y-47312453D01*
X90850978Y-47312451D01*
X90995725Y-47167704D01*
X90995727Y-47167700D01*
X90995730Y-47167698D01*
X91073976Y-47060000D01*
X91116046Y-47002095D01*
X91208979Y-46819704D01*
X91272236Y-46625019D01*
X91304259Y-46422837D01*
X91304259Y-46290483D01*
X113358291Y-46290483D01*
X113358291Y-46290486D01*
X113378123Y-46517171D01*
X113378125Y-46517182D01*
X113437017Y-46736973D01*
X113437020Y-46736982D01*
X113533190Y-46943217D01*
X113533191Y-46943219D01*
X113663713Y-47129626D01*
X113824617Y-47290530D01*
X113824620Y-47290532D01*
X114011025Y-47421053D01*
X114217263Y-47517224D01*
X114217268Y-47517225D01*
X114217270Y-47517226D01*
X114257386Y-47527975D01*
X114437067Y-47576120D01*
X114583852Y-47588962D01*
X114663757Y-47595953D01*
X114663759Y-47595953D01*
X114663761Y-47595953D01*
X114743666Y-47588962D01*
X114890451Y-47576120D01*
X115110255Y-47517224D01*
X115316493Y-47421053D01*
X115502898Y-47290532D01*
X115663806Y-47129624D01*
X115794327Y-46943219D01*
X115890498Y-46736981D01*
X115949394Y-46517177D01*
X115969227Y-46290485D01*
X115969227Y-46290483D01*
X120978291Y-46290483D01*
X120978291Y-46290486D01*
X120998123Y-46517171D01*
X120998125Y-46517182D01*
X121057017Y-46736973D01*
X121057020Y-46736982D01*
X121153190Y-46943217D01*
X121153191Y-46943219D01*
X121283713Y-47129626D01*
X121444617Y-47290530D01*
X121444620Y-47290532D01*
X121631025Y-47421053D01*
X121837263Y-47517224D01*
X121837268Y-47517225D01*
X121837270Y-47517226D01*
X121877386Y-47527975D01*
X122057067Y-47576120D01*
X122203852Y-47588962D01*
X122283757Y-47595953D01*
X122283759Y-47595953D01*
X122283761Y-47595953D01*
X122363666Y-47588962D01*
X122510451Y-47576120D01*
X122730255Y-47517224D01*
X122936493Y-47421053D01*
X123122898Y-47290532D01*
X123283806Y-47129624D01*
X123414327Y-46943219D01*
X123510498Y-46736981D01*
X123569394Y-46517177D01*
X123589227Y-46290485D01*
X123569394Y-46063793D01*
X123510711Y-45844783D01*
X123510500Y-45843996D01*
X123510497Y-45843987D01*
X123475726Y-45769421D01*
X123414327Y-45637751D01*
X123283806Y-45451346D01*
X123283804Y-45451343D01*
X123122900Y-45290439D01*
X122936493Y-45159917D01*
X122936491Y-45159916D01*
X122730256Y-45063746D01*
X122730247Y-45063743D01*
X122510456Y-45004851D01*
X122510452Y-45004850D01*
X122510451Y-45004850D01*
X122510450Y-45004849D01*
X122510445Y-45004849D01*
X122283761Y-44985017D01*
X122283757Y-44985017D01*
X122057072Y-45004849D01*
X122057061Y-45004851D01*
X121837270Y-45063743D01*
X121837261Y-45063746D01*
X121631026Y-45159916D01*
X121631024Y-45159917D01*
X121444617Y-45290439D01*
X121283713Y-45451343D01*
X121153191Y-45637750D01*
X121153190Y-45637752D01*
X121057020Y-45843987D01*
X121057017Y-45843996D01*
X120998125Y-46063787D01*
X120998123Y-46063798D01*
X120978291Y-46290483D01*
X115969227Y-46290483D01*
X115949394Y-46063793D01*
X115890711Y-45844783D01*
X115890500Y-45843996D01*
X115890497Y-45843987D01*
X115855726Y-45769421D01*
X115794327Y-45637751D01*
X115663806Y-45451346D01*
X115663804Y-45451343D01*
X115502900Y-45290439D01*
X115316493Y-45159917D01*
X115316491Y-45159916D01*
X115110256Y-45063746D01*
X115110247Y-45063743D01*
X114890456Y-45004851D01*
X114890452Y-45004850D01*
X114890451Y-45004850D01*
X114890450Y-45004849D01*
X114890445Y-45004849D01*
X114663761Y-44985017D01*
X114663757Y-44985017D01*
X114437072Y-45004849D01*
X114437061Y-45004851D01*
X114217270Y-45063743D01*
X114217261Y-45063746D01*
X114011026Y-45159916D01*
X114011024Y-45159917D01*
X113824617Y-45290439D01*
X113663713Y-45451343D01*
X113533191Y-45637750D01*
X113533190Y-45637752D01*
X113437020Y-45843987D01*
X113437017Y-45843996D01*
X113378125Y-46063787D01*
X113378123Y-46063798D01*
X113358291Y-46290483D01*
X91304259Y-46290483D01*
X91304259Y-46218133D01*
X91272236Y-46015950D01*
X91242886Y-45925622D01*
X91208979Y-45821266D01*
X91208977Y-45821263D01*
X91208977Y-45821261D01*
X91175262Y-45755092D01*
X91116046Y-45638875D01*
X91108315Y-45628234D01*
X90995730Y-45473271D01*
X90850972Y-45328513D01*
X90685370Y-45208198D01*
X90592128Y-45160688D01*
X90541333Y-45112714D01*
X90524538Y-45044892D01*
X90547076Y-44978758D01*
X90592130Y-44939719D01*
X90685106Y-44892346D01*
X90850653Y-44772067D01*
X90850654Y-44772067D01*
X90995341Y-44627380D01*
X90995341Y-44627379D01*
X91115618Y-44461834D01*
X91208514Y-44279514D01*
X91271749Y-44084898D01*
X91280368Y-44030485D01*
X89636771Y-44030485D01*
X89669684Y-43973478D01*
X89703759Y-43846311D01*
X89703759Y-43714659D01*
X89669684Y-43587492D01*
X89636771Y-43530485D01*
X91280368Y-43530485D01*
X91271749Y-43476071D01*
X91208514Y-43281455D01*
X91115618Y-43099135D01*
X90995341Y-42933590D01*
X90995341Y-42933589D01*
X90850654Y-42788902D01*
X90850645Y-42788895D01*
X90756723Y-42720655D01*
X90714057Y-42665325D01*
X90708079Y-42595712D01*
X90740685Y-42533917D01*
X90790604Y-42502633D01*
X90873093Y-42475299D01*
X91022415Y-42383197D01*
X91146471Y-42259141D01*
X91238573Y-42109819D01*
X91293758Y-41943282D01*
X91304259Y-41840494D01*
X91304258Y-41140483D01*
X113358291Y-41140483D01*
X113358291Y-41140486D01*
X113378123Y-41367171D01*
X113378125Y-41367182D01*
X113437017Y-41586973D01*
X113437020Y-41586982D01*
X113533190Y-41793217D01*
X113533191Y-41793219D01*
X113663713Y-41979626D01*
X113824617Y-42140530D01*
X113824620Y-42140532D01*
X114011025Y-42271053D01*
X114217263Y-42367224D01*
X114437067Y-42426120D01*
X114598989Y-42440286D01*
X114663757Y-42445953D01*
X114663759Y-42445953D01*
X114663761Y-42445953D01*
X114720432Y-42440994D01*
X114890451Y-42426120D01*
X115110255Y-42367224D01*
X115316493Y-42271053D01*
X115502898Y-42140532D01*
X115663806Y-41979624D01*
X115794327Y-41793219D01*
X115890498Y-41586981D01*
X115949394Y-41367177D01*
X115967519Y-41160003D01*
X115969227Y-41140486D01*
X115969227Y-41140483D01*
X120978291Y-41140483D01*
X120978291Y-41140486D01*
X120998123Y-41367171D01*
X120998125Y-41367182D01*
X121057017Y-41586973D01*
X121057020Y-41586982D01*
X121153190Y-41793217D01*
X121153191Y-41793219D01*
X121283713Y-41979626D01*
X121444617Y-42140530D01*
X121444620Y-42140532D01*
X121631025Y-42271053D01*
X121837263Y-42367224D01*
X122057067Y-42426120D01*
X122218989Y-42440286D01*
X122283757Y-42445953D01*
X122283759Y-42445953D01*
X122283761Y-42445953D01*
X122340432Y-42440994D01*
X122510451Y-42426120D01*
X122730255Y-42367224D01*
X122936493Y-42271053D01*
X123122898Y-42140532D01*
X123283806Y-41979624D01*
X123414327Y-41793219D01*
X123510498Y-41586981D01*
X123569394Y-41367177D01*
X123587519Y-41160003D01*
X123589227Y-41140486D01*
X123589227Y-41140483D01*
X123569394Y-40913798D01*
X123569394Y-40913793D01*
X123510498Y-40693989D01*
X123414327Y-40487751D01*
X123314380Y-40345011D01*
X123283804Y-40301343D01*
X123146939Y-40164478D01*
X125998459Y-40164478D01*
X125998459Y-40164491D01*
X126017623Y-40395782D01*
X126017625Y-40395793D01*
X126074601Y-40620785D01*
X126167834Y-40833333D01*
X126294776Y-41027632D01*
X126294780Y-41027638D01*
X126335675Y-41072062D01*
X126416629Y-41160003D01*
X126447551Y-41222658D01*
X126439690Y-41292084D01*
X126416629Y-41327967D01*
X126294778Y-41460334D01*
X126167834Y-41654636D01*
X126074601Y-41867184D01*
X126017625Y-42092176D01*
X126017623Y-42092187D01*
X125998459Y-42323478D01*
X125998459Y-42323491D01*
X126017623Y-42554782D01*
X126017625Y-42554793D01*
X126074601Y-42779785D01*
X126167834Y-42992333D01*
X126167835Y-42992334D01*
X126294780Y-43186638D01*
X126345737Y-43241993D01*
X126416629Y-43319003D01*
X126447551Y-43381658D01*
X126439690Y-43451084D01*
X126416629Y-43486967D01*
X126294778Y-43619334D01*
X126167834Y-43813636D01*
X126074601Y-44026184D01*
X126017625Y-44251176D01*
X126017623Y-44251187D01*
X125998459Y-44482478D01*
X125998459Y-44482491D01*
X126017623Y-44713782D01*
X126017625Y-44713793D01*
X126074601Y-44938785D01*
X126167834Y-45151333D01*
X126294775Y-45345632D01*
X126294778Y-45345636D01*
X126294780Y-45345638D01*
X126451975Y-45516398D01*
X126451978Y-45516400D01*
X126451981Y-45516403D01*
X126635124Y-45658949D01*
X126635130Y-45658953D01*
X126635133Y-45658955D01*
X126839256Y-45769421D01*
X126953246Y-45808553D01*
X127058774Y-45844782D01*
X127058776Y-45844782D01*
X127058778Y-45844783D01*
X127287710Y-45882985D01*
X127287711Y-45882985D01*
X127519807Y-45882985D01*
X127519808Y-45882985D01*
X127748740Y-45844783D01*
X127751033Y-45843996D01*
X127757198Y-45841879D01*
X127968262Y-45769421D01*
X128172385Y-45658955D01*
X128355543Y-45516398D01*
X128512738Y-45345638D01*
X128639683Y-45151334D01*
X128732916Y-44938785D01*
X128789893Y-44713790D01*
X128794673Y-44656106D01*
X128809059Y-44482491D01*
X128809059Y-44482478D01*
X128789894Y-44251187D01*
X128789892Y-44251176D01*
X128732916Y-44026184D01*
X128639683Y-43813636D01*
X128512742Y-43619337D01*
X128512739Y-43619334D01*
X128512738Y-43619332D01*
X128390887Y-43486965D01*
X128359966Y-43424313D01*
X128367826Y-43354887D01*
X128390886Y-43319005D01*
X128512738Y-43186638D01*
X128639683Y-42992334D01*
X128732916Y-42779785D01*
X128789893Y-42554790D01*
X128789894Y-42554782D01*
X128809059Y-42323491D01*
X128809059Y-42323478D01*
X128789894Y-42092187D01*
X128789892Y-42092176D01*
X128732916Y-41867184D01*
X128639683Y-41654636D01*
X128512742Y-41460337D01*
X128512739Y-41460334D01*
X128512738Y-41460332D01*
X128390887Y-41327965D01*
X128359966Y-41265313D01*
X128367826Y-41195887D01*
X128390886Y-41160005D01*
X128512738Y-41027638D01*
X128639683Y-40833334D01*
X128732916Y-40620785D01*
X128789893Y-40395790D01*
X128791717Y-40373779D01*
X128809059Y-40164491D01*
X128809059Y-40164478D01*
X128789894Y-39933187D01*
X128789892Y-39933176D01*
X128732916Y-39708184D01*
X128639682Y-39495634D01*
X128608077Y-39447259D01*
X128587889Y-39380369D01*
X128607068Y-39313184D01*
X128637576Y-39280169D01*
X128660949Y-39262672D01*
X128747109Y-39147578D01*
X128747113Y-39147571D01*
X128797355Y-39012864D01*
X128797357Y-39012857D01*
X128803758Y-38953329D01*
X128803759Y-38953312D01*
X128803759Y-38255485D01*
X127779037Y-38255485D01*
X127823092Y-38179179D01*
X127853759Y-38064729D01*
X127853759Y-37946241D01*
X127823092Y-37831791D01*
X127779037Y-37755485D01*
X128803759Y-37755485D01*
X128803759Y-37057657D01*
X128803758Y-37057640D01*
X128797357Y-36998112D01*
X128797355Y-36998105D01*
X128777370Y-36944523D01*
X135653259Y-36944523D01*
X135653259Y-37196446D01*
X135692669Y-37445270D01*
X135770519Y-37684868D01*
X135884891Y-37909333D01*
X136032960Y-38113134D01*
X136032964Y-38113139D01*
X136124820Y-38204995D01*
X136158305Y-38266318D01*
X136160428Y-38305931D01*
X136153260Y-38372601D01*
X136153259Y-38372620D01*
X136153259Y-39968355D01*
X136153260Y-39968361D01*
X136159667Y-40027968D01*
X136209961Y-40162813D01*
X136209965Y-40162820D01*
X136296210Y-40278028D01*
X136296211Y-40278029D01*
X136296213Y-40278031D01*
X136334536Y-40306719D01*
X136376406Y-40362652D01*
X136381390Y-40432344D01*
X136360543Y-40478870D01*
X136334234Y-40515080D01*
X136244876Y-40690455D01*
X136184049Y-40877658D01*
X136153259Y-41072062D01*
X136153259Y-41268907D01*
X136184049Y-41463311D01*
X136244876Y-41650514D01*
X136317587Y-41793217D01*
X136334235Y-41825890D01*
X136449931Y-41985131D01*
X136449933Y-41985133D01*
X136547604Y-42082804D01*
X136581089Y-42144127D01*
X136576105Y-42213819D01*
X136547604Y-42258166D01*
X136449933Y-42355836D01*
X136449933Y-42355837D01*
X136449931Y-42355839D01*
X136441658Y-42367226D01*
X136334235Y-42515079D01*
X136244876Y-42690455D01*
X136184049Y-42877658D01*
X136153259Y-43072062D01*
X136153259Y-43268907D01*
X136184049Y-43463311D01*
X136244876Y-43650514D01*
X136336111Y-43829572D01*
X136349007Y-43898242D01*
X136322730Y-43962982D01*
X136298512Y-43986184D01*
X136211109Y-44049687D01*
X136211100Y-44049694D01*
X136032964Y-44227830D01*
X136032960Y-44227835D01*
X135884891Y-44431636D01*
X135770519Y-44656101D01*
X135692669Y-44895699D01*
X135653259Y-45144523D01*
X135653259Y-45396446D01*
X135692669Y-45645270D01*
X135770519Y-45884868D01*
X135837310Y-46015951D01*
X135870761Y-46081603D01*
X135884891Y-46109333D01*
X136032960Y-46313134D01*
X136032964Y-46313139D01*
X136211104Y-46491279D01*
X136211109Y-46491283D01*
X136320114Y-46570479D01*
X136414914Y-46639355D01*
X136557943Y-46712232D01*
X136639375Y-46753724D01*
X136639377Y-46753724D01*
X136639380Y-46753726D01*
X136878974Y-46831575D01*
X137127797Y-46870985D01*
X137127798Y-46870985D01*
X138679720Y-46870985D01*
X138679721Y-46870985D01*
X138928544Y-46831575D01*
X139168138Y-46753726D01*
X139392604Y-46639355D01*
X139596415Y-46491278D01*
X139774552Y-46313141D01*
X139922629Y-46109330D01*
X140037000Y-45884864D01*
X140114849Y-45645270D01*
X140154259Y-45396447D01*
X140154259Y-45144523D01*
X140114849Y-44895700D01*
X140037000Y-44656106D01*
X140036998Y-44656103D01*
X140036998Y-44656101D01*
X139995506Y-44574669D01*
X139922629Y-44431640D01*
X139812809Y-44280485D01*
X139774557Y-44227835D01*
X139774553Y-44227830D01*
X139596417Y-44049694D01*
X139596415Y-44049692D01*
X139509004Y-43986184D01*
X139466340Y-43930855D01*
X139460361Y-43861241D01*
X139471406Y-43829572D01*
X139473279Y-43825894D01*
X139473283Y-43825890D01*
X139562643Y-43650510D01*
X139623468Y-43463311D01*
X139633023Y-43402985D01*
X139654259Y-43268907D01*
X139654259Y-43072062D01*
X139623468Y-42877658D01*
X139562641Y-42690455D01*
X139514367Y-42595712D01*
X139473283Y-42515080D01*
X139357587Y-42355839D01*
X139259914Y-42258166D01*
X139226429Y-42196843D01*
X139231413Y-42127151D01*
X139259914Y-42082804D01*
X139357587Y-41985131D01*
X139473283Y-41825890D01*
X139562643Y-41650510D01*
X139623468Y-41463311D01*
X139623940Y-41460332D01*
X139654259Y-41268907D01*
X139654259Y-41072062D01*
X139623468Y-40877658D01*
X139563792Y-40693996D01*
X139562643Y-40690460D01*
X139562641Y-40690457D01*
X139562641Y-40690455D01*
X139513705Y-40594415D01*
X139473283Y-40515080D01*
X139473281Y-40515077D01*
X139473280Y-40515075D01*
X139446976Y-40478871D01*
X139423495Y-40413065D01*
X139439320Y-40345011D01*
X139472978Y-40306722D01*
X139511305Y-40278031D01*
X139597555Y-40162816D01*
X139647850Y-40027968D01*
X139654259Y-39968358D01*
X139654258Y-38372613D01*
X139647850Y-38313002D01*
X139647848Y-38312999D01*
X139647089Y-38305930D01*
X139659495Y-38237170D01*
X139682697Y-38204995D01*
X139774552Y-38113141D01*
X139922629Y-37909330D01*
X140037000Y-37684864D01*
X140114849Y-37445270D01*
X140154259Y-37196447D01*
X140154259Y-37077643D01*
X144789235Y-37077643D01*
X144789235Y-37320220D01*
X144820896Y-37560717D01*
X144883682Y-37795036D01*
X144976508Y-38019137D01*
X144976511Y-38019144D01*
X145097799Y-38229221D01*
X145097801Y-38229224D01*
X145097802Y-38229225D01*
X145245468Y-38421668D01*
X145245474Y-38421675D01*
X145416991Y-38593192D01*
X145416997Y-38593197D01*
X145609446Y-38740868D01*
X145819523Y-38862156D01*
X146015004Y-38943127D01*
X146039634Y-38953329D01*
X146043635Y-38954986D01*
X146277946Y-39017770D01*
X146458321Y-39041516D01*
X146518446Y-39049432D01*
X146518447Y-39049432D01*
X146761024Y-39049432D01*
X146809123Y-39043099D01*
X147001524Y-39017770D01*
X147235835Y-38954986D01*
X147459947Y-38862156D01*
X147670024Y-38740868D01*
X147862473Y-38593197D01*
X148034000Y-38421670D01*
X148181671Y-38229221D01*
X148302959Y-38019144D01*
X148395789Y-37795032D01*
X148458573Y-37560721D01*
X148490235Y-37320220D01*
X148490235Y-37077644D01*
X148487601Y-37057640D01*
X148478766Y-36990530D01*
X148458573Y-36837143D01*
X148395789Y-36602832D01*
X148302959Y-36378720D01*
X148181671Y-36168643D01*
X148120753Y-36089253D01*
X148034001Y-35976195D01*
X148033995Y-35976188D01*
X147862478Y-35804671D01*
X147862471Y-35804665D01*
X147670028Y-35656999D01*
X147670027Y-35656998D01*
X147670024Y-35656996D01*
X147459947Y-35535708D01*
X147396422Y-35509395D01*
X147235839Y-35442879D01*
X147001520Y-35380093D01*
X146761024Y-35348432D01*
X146761023Y-35348432D01*
X146518447Y-35348432D01*
X146518446Y-35348432D01*
X146277949Y-35380093D01*
X146043630Y-35442879D01*
X145819529Y-35535705D01*
X145819520Y-35535709D01*
X145609441Y-35656999D01*
X145416998Y-35804665D01*
X145416991Y-35804671D01*
X145245474Y-35976188D01*
X145245468Y-35976195D01*
X145097802Y-36168638D01*
X144976512Y-36378717D01*
X144976508Y-36378726D01*
X144883682Y-36602827D01*
X144820896Y-36837146D01*
X144789235Y-37077643D01*
X140154259Y-37077643D01*
X140154259Y-36944523D01*
X140114849Y-36695700D01*
X140037000Y-36456106D01*
X140036998Y-36456103D01*
X140036998Y-36456101D01*
X139995506Y-36374669D01*
X139922629Y-36231640D01*
X139876859Y-36168643D01*
X139774557Y-36027835D01*
X139774553Y-36027830D01*
X139596413Y-35849690D01*
X139596408Y-35849686D01*
X139392607Y-35701617D01*
X139392606Y-35701616D01*
X139392604Y-35701615D01*
X139305034Y-35656996D01*
X139168142Y-35587245D01*
X138928544Y-35509395D01*
X138679721Y-35469985D01*
X137127797Y-35469985D01*
X137065948Y-35479781D01*
X136878973Y-35509395D01*
X136639375Y-35587245D01*
X136414910Y-35701617D01*
X136211109Y-35849686D01*
X136211104Y-35849690D01*
X136032964Y-36027830D01*
X136032960Y-36027835D01*
X135884891Y-36231636D01*
X135770519Y-36456101D01*
X135692669Y-36695699D01*
X135653259Y-36944523D01*
X128777370Y-36944523D01*
X128747113Y-36863398D01*
X128747109Y-36863391D01*
X128660949Y-36748297D01*
X128660946Y-36748294D01*
X128545852Y-36662134D01*
X128545845Y-36662130D01*
X128411138Y-36611888D01*
X128411131Y-36611886D01*
X128351603Y-36605485D01*
X127653759Y-36605485D01*
X127653759Y-37630207D01*
X127577453Y-37586152D01*
X127463003Y-37555485D01*
X127344515Y-37555485D01*
X127230065Y-37586152D01*
X127153759Y-37630207D01*
X127153759Y-36605485D01*
X126455914Y-36605485D01*
X126396386Y-36611886D01*
X126396379Y-36611888D01*
X126261672Y-36662130D01*
X126261665Y-36662134D01*
X126146571Y-36748294D01*
X126146568Y-36748297D01*
X126060408Y-36863391D01*
X126060404Y-36863398D01*
X126010162Y-36998105D01*
X126010160Y-36998112D01*
X126003759Y-37057640D01*
X126003759Y-37755485D01*
X127028481Y-37755485D01*
X126984426Y-37831791D01*
X126953759Y-37946241D01*
X126953759Y-38064729D01*
X126984426Y-38179179D01*
X127028481Y-38255485D01*
X126003759Y-38255485D01*
X126003759Y-38953329D01*
X126010160Y-39012857D01*
X126010162Y-39012864D01*
X126060404Y-39147571D01*
X126060408Y-39147578D01*
X126146568Y-39262672D01*
X126146569Y-39262673D01*
X126169942Y-39280170D01*
X126211814Y-39336103D01*
X126216798Y-39405795D01*
X126199441Y-39447258D01*
X126167834Y-39495636D01*
X126074601Y-39708184D01*
X126017625Y-39933176D01*
X126017623Y-39933187D01*
X125998459Y-40164478D01*
X123146939Y-40164478D01*
X123122900Y-40140439D01*
X122936493Y-40009917D01*
X122936491Y-40009916D01*
X122730256Y-39913746D01*
X122730247Y-39913743D01*
X122510456Y-39854851D01*
X122510452Y-39854850D01*
X122510451Y-39854850D01*
X122510450Y-39854849D01*
X122510445Y-39854849D01*
X122283761Y-39835017D01*
X122283757Y-39835017D01*
X122057072Y-39854849D01*
X122057061Y-39854851D01*
X121837270Y-39913743D01*
X121837261Y-39913746D01*
X121631026Y-40009916D01*
X121631024Y-40009917D01*
X121444617Y-40140439D01*
X121283713Y-40301343D01*
X121153191Y-40487750D01*
X121153190Y-40487752D01*
X121057020Y-40693987D01*
X121057017Y-40693996D01*
X120998125Y-40913787D01*
X120998123Y-40913798D01*
X120978291Y-41140483D01*
X115969227Y-41140483D01*
X115949394Y-40913798D01*
X115949394Y-40913793D01*
X115890498Y-40693989D01*
X115794327Y-40487751D01*
X115694380Y-40345011D01*
X115663804Y-40301343D01*
X115502900Y-40140439D01*
X115316493Y-40009917D01*
X115316491Y-40009916D01*
X115110256Y-39913746D01*
X115110247Y-39913743D01*
X114890456Y-39854851D01*
X114890452Y-39854850D01*
X114890451Y-39854850D01*
X114890450Y-39854849D01*
X114890445Y-39854849D01*
X114663761Y-39835017D01*
X114663757Y-39835017D01*
X114437072Y-39854849D01*
X114437061Y-39854851D01*
X114217270Y-39913743D01*
X114217261Y-39913746D01*
X114011026Y-40009916D01*
X114011024Y-40009917D01*
X113824617Y-40140439D01*
X113663713Y-40301343D01*
X113533191Y-40487750D01*
X113533190Y-40487752D01*
X113437020Y-40693987D01*
X113437017Y-40693996D01*
X113378125Y-40913787D01*
X113378123Y-40913798D01*
X113358291Y-41140483D01*
X91304258Y-41140483D01*
X91304258Y-40640477D01*
X91302246Y-40620785D01*
X91293758Y-40537688D01*
X91293757Y-40537685D01*
X91274268Y-40478871D01*
X91238573Y-40371151D01*
X91146471Y-40221829D01*
X91022415Y-40097773D01*
X90929647Y-40040554D01*
X90873095Y-40005672D01*
X90873090Y-40005670D01*
X90871621Y-40005183D01*
X90706556Y-39950486D01*
X90706554Y-39950485D01*
X90603769Y-39939985D01*
X88403757Y-39939985D01*
X88403740Y-39939986D01*
X88300962Y-39950485D01*
X88300959Y-39950486D01*
X88134427Y-40005670D01*
X88134422Y-40005672D01*
X87985101Y-40097774D01*
X87861048Y-40221827D01*
X87768946Y-40371148D01*
X87768945Y-40371151D01*
X87713760Y-40537688D01*
X87713760Y-40537689D01*
X87713759Y-40537689D01*
X87703259Y-40640468D01*
X51161835Y-40640468D01*
X51161835Y-37189823D01*
X51161836Y-37189820D01*
X51161835Y-37126976D01*
X51161984Y-37120893D01*
X51164108Y-37077643D01*
X52789235Y-37077643D01*
X52789235Y-37320220D01*
X52820896Y-37560717D01*
X52883682Y-37795036D01*
X52976508Y-38019137D01*
X52976511Y-38019144D01*
X53097799Y-38229221D01*
X53097801Y-38229224D01*
X53097802Y-38229225D01*
X53245468Y-38421668D01*
X53245474Y-38421675D01*
X53416991Y-38593192D01*
X53416997Y-38593197D01*
X53609446Y-38740868D01*
X53819523Y-38862156D01*
X54015004Y-38943127D01*
X54039634Y-38953329D01*
X54043635Y-38954986D01*
X54277946Y-39017770D01*
X54458321Y-39041516D01*
X54518446Y-39049432D01*
X54518447Y-39049432D01*
X54761024Y-39049432D01*
X54809123Y-39043099D01*
X55001524Y-39017770D01*
X55235835Y-38954986D01*
X55459947Y-38862156D01*
X55670024Y-38740868D01*
X55862473Y-38593197D01*
X56034000Y-38421670D01*
X56181671Y-38229221D01*
X56302959Y-38019144D01*
X56395789Y-37795032D01*
X56458573Y-37560721D01*
X56490235Y-37320220D01*
X56490235Y-37077644D01*
X56487601Y-37057640D01*
X56478766Y-36990530D01*
X56458573Y-36837143D01*
X56395789Y-36602832D01*
X56302959Y-36378720D01*
X56181671Y-36168643D01*
X56120753Y-36089253D01*
X56044965Y-35990483D01*
X113358291Y-35990483D01*
X113358291Y-35990486D01*
X113378123Y-36217171D01*
X113378125Y-36217182D01*
X113437017Y-36436973D01*
X113437020Y-36436982D01*
X113533190Y-36643217D01*
X113533191Y-36643219D01*
X113663713Y-36829626D01*
X113824617Y-36990530D01*
X113824620Y-36990532D01*
X114011025Y-37121053D01*
X114217263Y-37217224D01*
X114437067Y-37276120D01*
X114598989Y-37290286D01*
X114663757Y-37295953D01*
X114663759Y-37295953D01*
X114663761Y-37295953D01*
X114720432Y-37290994D01*
X114890451Y-37276120D01*
X115110255Y-37217224D01*
X115316493Y-37121053D01*
X115502898Y-36990532D01*
X115663806Y-36829624D01*
X115794327Y-36643219D01*
X115890498Y-36436981D01*
X115949394Y-36217177D01*
X115969227Y-35990485D01*
X115969227Y-35990483D01*
X120978291Y-35990483D01*
X120978291Y-35990486D01*
X120998123Y-36217171D01*
X120998125Y-36217182D01*
X121057017Y-36436973D01*
X121057020Y-36436982D01*
X121153190Y-36643217D01*
X121153191Y-36643219D01*
X121283713Y-36829626D01*
X121444617Y-36990530D01*
X121444620Y-36990532D01*
X121631025Y-37121053D01*
X121837263Y-37217224D01*
X122057067Y-37276120D01*
X122218989Y-37290286D01*
X122283757Y-37295953D01*
X122283759Y-37295953D01*
X122283761Y-37295953D01*
X122340432Y-37290994D01*
X122510451Y-37276120D01*
X122730255Y-37217224D01*
X122936493Y-37121053D01*
X123122898Y-36990532D01*
X123283806Y-36829624D01*
X123414327Y-36643219D01*
X123510498Y-36436981D01*
X123569394Y-36217177D01*
X123589227Y-35990485D01*
X123569394Y-35763793D01*
X123510498Y-35543989D01*
X123414327Y-35337751D01*
X123283806Y-35151346D01*
X123283804Y-35151343D01*
X123122900Y-34990439D01*
X122936493Y-34859917D01*
X122936491Y-34859916D01*
X122730256Y-34763746D01*
X122730247Y-34763743D01*
X122510456Y-34704851D01*
X122510452Y-34704850D01*
X122510451Y-34704850D01*
X122510450Y-34704849D01*
X122510445Y-34704849D01*
X122283761Y-34685017D01*
X122283757Y-34685017D01*
X122057072Y-34704849D01*
X122057061Y-34704851D01*
X121837270Y-34763743D01*
X121837261Y-34763746D01*
X121631026Y-34859916D01*
X121631024Y-34859917D01*
X121444617Y-34990439D01*
X121283713Y-35151343D01*
X121153191Y-35337750D01*
X121153190Y-35337752D01*
X121057020Y-35543987D01*
X121057017Y-35543996D01*
X120998125Y-35763787D01*
X120998123Y-35763798D01*
X120978291Y-35990483D01*
X115969227Y-35990483D01*
X115949394Y-35763793D01*
X115890498Y-35543989D01*
X115794327Y-35337751D01*
X115663806Y-35151346D01*
X115663804Y-35151343D01*
X115502900Y-34990439D01*
X115316493Y-34859917D01*
X115316491Y-34859916D01*
X115110256Y-34763746D01*
X115110247Y-34763743D01*
X114890456Y-34704851D01*
X114890452Y-34704850D01*
X114890451Y-34704850D01*
X114890450Y-34704849D01*
X114890445Y-34704849D01*
X114663761Y-34685017D01*
X114663757Y-34685017D01*
X114437072Y-34704849D01*
X114437061Y-34704851D01*
X114217270Y-34763743D01*
X114217261Y-34763746D01*
X114011026Y-34859916D01*
X114011024Y-34859917D01*
X113824617Y-34990439D01*
X113663713Y-35151343D01*
X113533191Y-35337750D01*
X113533190Y-35337752D01*
X113437020Y-35543987D01*
X113437017Y-35543996D01*
X113378125Y-35763787D01*
X113378123Y-35763798D01*
X113358291Y-35990483D01*
X56044965Y-35990483D01*
X56034001Y-35976195D01*
X56033995Y-35976188D01*
X55862478Y-35804671D01*
X55862471Y-35804665D01*
X55670028Y-35656999D01*
X55670027Y-35656998D01*
X55670024Y-35656996D01*
X55459947Y-35535708D01*
X55396422Y-35509395D01*
X55235839Y-35442879D01*
X55001520Y-35380093D01*
X54761024Y-35348432D01*
X54761023Y-35348432D01*
X54518447Y-35348432D01*
X54518446Y-35348432D01*
X54277949Y-35380093D01*
X54043630Y-35442879D01*
X53819529Y-35535705D01*
X53819520Y-35535709D01*
X53609441Y-35656999D01*
X53416998Y-35804665D01*
X53416991Y-35804671D01*
X53245474Y-35976188D01*
X53245468Y-35976195D01*
X53097802Y-36168638D01*
X52976512Y-36378717D01*
X52976508Y-36378726D01*
X52883682Y-36602827D01*
X52820896Y-36837146D01*
X52789235Y-37077643D01*
X51164108Y-37077643D01*
X51171486Y-36927439D01*
X51178384Y-36786993D01*
X51179577Y-36774888D01*
X51228179Y-36447227D01*
X51230552Y-36435299D01*
X51311039Y-36113970D01*
X51314560Y-36102359D01*
X51426163Y-35790448D01*
X51430817Y-35779214D01*
X51435501Y-35769312D01*
X51572441Y-35479773D01*
X51578168Y-35469057D01*
X51748474Y-35184917D01*
X51755214Y-35174829D01*
X51952557Y-34908742D01*
X51960260Y-34899357D01*
X52182730Y-34653899D01*
X52191300Y-34645329D01*
X52436759Y-34422859D01*
X52446144Y-34415156D01*
X52712232Y-34217812D01*
X52722320Y-34211072D01*
X53006459Y-34040767D01*
X53017175Y-34035040D01*
X53316624Y-33893412D01*
X53327850Y-33888762D01*
X53639768Y-33777157D01*
X53651373Y-33773638D01*
X53972703Y-33693151D01*
X53984629Y-33690779D01*
X54312295Y-33642176D01*
X54324395Y-33640984D01*
X54658363Y-33624580D01*
X54664437Y-33624432D01*
X54727223Y-33624433D01*
X54727227Y-33624432D01*
X146595439Y-33624432D01*
X146658278Y-33624432D01*
X146664363Y-33624581D01*
G37*
G04 #@! TD.AperFunction*
M02*
