M48
; DRILL file {KiCad 8.0.8} date 2025-02-10T20:43:28+0100
; FORMAT={-:-/ absolute / metric / decimal}
; #@! TF.CreationDate,2025-02-10T20:43:28+01:00
; #@! TF.GenerationSoftware,Kicad,Pcbnew,8.0.8
; #@! TF.FileFunction,Plated,1,4,PTH
FMAT,2
METRIC
; #@! TA.AperFunction,Plated,PTH,ComponentDrill
T1C0.762
; #@! TA.AperFunction,Plated,PTH,ComponentDrill
T2C0.800
; #@! TA.AperFunction,Plated,PTH,ComponentDrill
T3C0.900
; #@! TA.AperFunction,Plated,PTH,ComponentDrill
T4C1.000
; #@! TA.AperFunction,Plated,PTH,ComponentDrill
T5C1.100
; #@! TA.AperFunction,Plated,PTH,ComponentDrill
T6C1.500
; #@! TA.AperFunction,Plated,PTH,ComponentDrill
T7C2.000
%
G90
G05
T1
X56.379Y-103.25
X58.919Y-103.25
X61.459Y-103.25
T2
X72.506Y-91.405
X73.824Y-96.085
X73.824Y-103.705
X75.046Y-85.495
X77.586Y-85.495
X78.724Y-96.015
X78.724Y-103.635
X80.126Y-91.405
X121.424Y-54.83
X121.424Y-58.83
X121.484Y-62.83
X129.044Y-54.83
X129.044Y-58.83
X129.104Y-62.83
T3
X74.324Y-60.0
X76.324Y-60.0
X78.324Y-60.0
X135.292Y-55.682
X135.292Y-57.841
X135.292Y-60.0
X135.292Y-62.159
T4
X56.474Y-77.778
X58.974Y-77.778
X59.144Y-128.83
X61.474Y-77.778
X61.684Y-111.05
X61.684Y-128.83
X64.224Y-111.05
X64.224Y-128.83
X66.764Y-111.05
X66.764Y-128.83
X69.304Y-111.05
X69.304Y-128.83
X71.844Y-128.83
X83.884Y-128.819
X86.424Y-128.819
X88.082Y-60.13
X88.082Y-62.67
X88.082Y-65.21
X88.082Y-67.751
X88.082Y-70.29
X88.082Y-72.831
X88.082Y-75.37
X88.082Y-77.91
X88.082Y-80.45
X88.082Y-82.99
X88.082Y-85.53
X88.082Y-88.07
X88.082Y-90.611
X88.082Y-93.15
X88.082Y-95.691
X88.082Y-98.23
X88.964Y-128.819
X91.477Y-113.555
X91.504Y-128.819
X94.017Y-113.555
X94.044Y-128.819
X96.557Y-113.555
X96.584Y-128.819
X99.097Y-113.555
X99.124Y-128.819
X101.637Y-113.555
X101.664Y-128.819
X104.177Y-113.555
X104.204Y-128.819
X106.717Y-113.555
X106.744Y-128.819
X108.402Y-70.29
X108.402Y-72.831
X108.402Y-75.37
X108.402Y-77.91
X108.402Y-80.45
X108.402Y-82.99
X108.402Y-85.53
X108.402Y-88.07
X108.402Y-90.611
X108.402Y-93.15
X108.402Y-95.691
X108.402Y-98.23
X109.284Y-128.819
X111.824Y-128.819
X114.364Y-128.819
X125.719Y-127.56
X128.259Y-127.56
X130.799Y-127.56
X133.339Y-127.56
X135.879Y-127.56
X138.419Y-127.56
T5
X73.124Y-70.673
X73.124Y-75.173
X79.624Y-70.673
X79.624Y-75.173
T6
X72.224Y-60.0
X80.424Y-60.0
T7
X54.224Y-70.278
X63.724Y-70.278
M30
