G04 #@! TF.GenerationSoftware,KiCad,Pcbnew,8.0.8*
G04 #@! TF.CreationDate,2025-02-12T12:00:37+01:00*
G04 #@! TF.ProjectId,tesi,74657369-2e6b-4696-9361-645f70636258,rev?*
G04 #@! TF.SameCoordinates,Original*
G04 #@! TF.FileFunction,Copper,L2,Bot*
G04 #@! TF.FilePolarity,Positive*
%FSLAX46Y46*%
G04 Gerber Fmt 4.6, Leading zero omitted, Abs format (unit mm)*
G04 Created by KiCad (PCBNEW 8.0.8) date 2025-02-12 12:00:37*
%MOMM*%
%LPD*%
G01*
G04 APERTURE LIST*
G04 Aperture macros list*
%AMRoundRect*
0 Rectangle with rounded corners*
0 $1 Rounding radius*
0 $2 $3 $4 $5 $6 $7 $8 $9 X,Y pos of 4 corners*
0 Add a 4 corners polygon primitive as box body*
4,1,4,$2,$3,$4,$5,$6,$7,$8,$9,$2,$3,0*
0 Add four circle primitives for the rounded corners*
1,1,$1+$1,$2,$3*
1,1,$1+$1,$4,$5*
1,1,$1+$1,$6,$7*
1,1,$1+$1,$8,$9*
0 Add four rect primitives between the rounded corners*
20,1,$1+$1,$2,$3,$4,$5,0*
20,1,$1+$1,$4,$5,$6,$7,0*
20,1,$1+$1,$6,$7,$8,$9,0*
20,1,$1+$1,$8,$9,$2,$3,0*%
G04 Aperture macros list end*
G04 #@! TA.AperFunction,ComponentPad*
%ADD10C,1.600000*%
G04 #@! TD*
G04 #@! TA.AperFunction,ComponentPad*
%ADD11O,1.600000X1.600000*%
G04 #@! TD*
G04 #@! TA.AperFunction,ComponentPad*
%ADD12RoundRect,0.250000X-1.050000X-0.550000X1.050000X-0.550000X1.050000X0.550000X-1.050000X0.550000X0*%
G04 #@! TD*
G04 #@! TA.AperFunction,ComponentPad*
%ADD13O,2.600000X1.600000*%
G04 #@! TD*
G04 #@! TA.AperFunction,ComponentPad*
%ADD14O,3.500000X2.200000*%
G04 #@! TD*
G04 #@! TA.AperFunction,ComponentPad*
%ADD15R,2.500000X1.500000*%
G04 #@! TD*
G04 #@! TA.AperFunction,ComponentPad*
%ADD16O,2.500000X1.500000*%
G04 #@! TD*
G04 #@! TA.AperFunction,ComponentPad*
%ADD17R,1.700000X1.700000*%
G04 #@! TD*
G04 #@! TA.AperFunction,ComponentPad*
%ADD18O,1.700000X1.700000*%
G04 #@! TD*
G04 #@! TA.AperFunction,ComponentPad*
%ADD19C,1.524000*%
G04 #@! TD*
G04 #@! TA.AperFunction,ComponentPad*
%ADD20R,1.800000X1.800000*%
G04 #@! TD*
G04 #@! TA.AperFunction,ComponentPad*
%ADD21C,1.800000*%
G04 #@! TD*
G04 #@! TA.AperFunction,ComponentPad*
%ADD22C,2.000000*%
G04 #@! TD*
G04 #@! TA.AperFunction,ComponentPad*
%ADD23O,4.000000X4.000000*%
G04 #@! TD*
G04 #@! TA.AperFunction,Conductor*
%ADD24C,0.500000*%
G04 #@! TD*
G04 APERTURE END LIST*
D10*
X122283759Y-41140485D03*
D11*
X114663759Y-41140485D03*
D12*
X89503759Y-41240485D03*
D13*
X89503759Y-43780485D03*
X89503759Y-46320485D03*
X89503759Y-48860485D03*
X89503759Y-51400485D03*
X89503759Y-53940485D03*
X89503759Y-56480485D03*
X89503759Y-59020485D03*
X89503759Y-61560485D03*
X89503759Y-64100485D03*
X89503759Y-66640485D03*
X89503759Y-69180485D03*
X89503759Y-71720485D03*
X89503759Y-74260485D03*
X89503759Y-76800485D03*
X89503759Y-79340485D03*
X109223759Y-79340485D03*
X109223759Y-76800485D03*
X109223759Y-74260485D03*
X109223759Y-71720485D03*
X109223759Y-69180485D03*
X109223759Y-66640485D03*
X109223759Y-64100485D03*
X109223759Y-61560485D03*
X109223759Y-59020485D03*
X109223759Y-56480485D03*
X109223759Y-53940485D03*
X109223759Y-51400485D03*
D11*
X66365459Y-112289108D03*
X61285459Y-112289108D03*
X63825459Y-112289108D03*
X66365459Y-94509108D03*
X63825459Y-94509108D03*
X73985459Y-112289108D03*
X68905459Y-94509108D03*
X71445459Y-94509108D03*
X71445459Y-112289108D03*
X68905459Y-112289108D03*
D10*
X129856055Y-102119858D03*
D11*
X122236055Y-102119858D03*
X94363759Y-94550485D03*
X96903759Y-94550485D03*
X99443759Y-94550485D03*
X101983759Y-94550485D03*
X104523759Y-94550485D03*
X107063759Y-94550485D03*
X86723759Y-112300485D03*
X89263759Y-112300485D03*
X91803759Y-112300485D03*
X94343759Y-112300485D03*
X96883759Y-112300485D03*
X99423759Y-112300485D03*
X101963759Y-112300485D03*
X104503759Y-112300485D03*
X107043759Y-112300485D03*
X109583759Y-112300485D03*
X112123759Y-112300485D03*
X114663759Y-112300485D03*
D10*
X79098096Y-61630485D03*
X76558096Y-61630485D03*
D11*
X137473759Y-97140485D03*
X137473759Y-99680485D03*
X137473759Y-102220485D03*
X137473759Y-104760485D03*
X137473759Y-107300485D03*
X137473759Y-109840485D03*
D10*
X129866055Y-97019858D03*
D11*
X122246055Y-97019858D03*
D10*
X122283759Y-35990485D03*
D11*
X114663759Y-35990485D03*
D14*
X137903759Y-37070485D03*
X137903759Y-45270485D03*
D15*
X137903759Y-39170485D03*
D16*
X137903759Y-41170485D03*
X137903759Y-43170485D03*
D17*
X75253096Y-74199063D03*
D18*
X77793096Y-74199063D03*
X80333096Y-74199063D03*
D19*
X63803759Y-84440485D03*
X61263759Y-84440485D03*
X58723759Y-84440485D03*
D17*
X75253096Y-84349063D03*
D18*
X77793096Y-84349063D03*
X80333096Y-84349063D03*
X82873096Y-84349063D03*
D17*
X75253096Y-79274063D03*
D18*
X77793096Y-79274063D03*
X80333096Y-79274063D03*
D20*
X127403759Y-38005485D03*
D21*
X127403759Y-40164485D03*
X127403759Y-42323485D03*
X127403759Y-44482485D03*
D22*
X74623759Y-46570485D03*
X81123759Y-46570485D03*
X74623759Y-51070485D03*
X81123759Y-51070485D03*
D17*
X122238321Y-107214523D03*
D18*
X124778321Y-107214523D03*
X127318321Y-107214523D03*
X129858321Y-107214523D03*
D10*
X73968096Y-66690485D03*
D11*
X81588096Y-66690485D03*
D10*
X122283759Y-46290485D03*
D11*
X114663759Y-46290485D03*
D23*
X56523759Y-48990485D03*
X66023759Y-48990485D03*
D20*
X58773759Y-56490485D03*
D21*
X61273759Y-56490485D03*
X63773759Y-56490485D03*
D24*
X73933759Y-56330485D02*
X89053759Y-56330485D01*
X58723759Y-84440485D02*
X58723759Y-71540485D01*
X58723759Y-71540485D02*
X73933759Y-56330485D01*
X89053759Y-56330485D02*
X89203759Y-56480485D01*
X104683759Y-66640485D02*
X104443759Y-66880485D01*
X101973759Y-48900485D02*
X109733759Y-41140485D01*
X101973759Y-64410485D02*
X101973759Y-48900485D01*
X109523759Y-66640485D02*
X104683759Y-66640485D01*
X109733759Y-41140485D02*
X114663759Y-41140485D01*
X104443759Y-66880485D02*
X101973759Y-64410485D01*
X99463759Y-48820485D02*
X99463759Y-65820485D01*
X102823759Y-69180485D02*
X109523759Y-69180485D01*
X112293759Y-35990485D02*
X99463759Y-48820485D01*
X99463759Y-65820485D02*
X102823759Y-69180485D01*
X114663759Y-35990485D02*
X112293759Y-35990485D01*
X104433759Y-48950485D02*
X107093759Y-46290485D01*
X109523759Y-64100485D02*
X106873759Y-64100485D01*
X106873759Y-64100485D02*
X104433759Y-61660485D01*
X104433759Y-61660485D02*
X104433759Y-48950485D01*
X107093759Y-46290485D02*
X114663759Y-46290485D01*
X135593759Y-43170485D02*
X137903759Y-43170485D01*
X109523759Y-53940485D02*
X124823759Y-53940485D01*
X124823759Y-53940485D02*
X135593759Y-43170485D01*
X125447759Y-40164485D02*
X122283759Y-37000485D01*
X122283759Y-37000485D02*
X122283759Y-35990485D01*
X127403759Y-40164485D02*
X125447759Y-40164485D01*
X122283759Y-46290485D02*
X125595759Y-46290485D01*
X125595759Y-46290485D02*
X127403759Y-44482485D01*
X122236055Y-102119858D02*
X119643132Y-102119858D01*
X112223759Y-79340485D02*
X109523759Y-79340485D01*
X117173759Y-84290485D02*
X112223759Y-79340485D01*
X93673759Y-102290485D02*
X75973759Y-102290485D01*
X99443759Y-96520485D02*
X93673759Y-102290485D01*
X119643132Y-102119858D02*
X117173759Y-99650485D01*
X96883759Y-91990485D02*
X99443759Y-94550485D01*
X75973759Y-102290485D02*
X68905459Y-109358785D01*
X99443759Y-94550485D02*
X99443759Y-96520485D01*
X68905459Y-109358785D02*
X68905459Y-112289108D01*
X122236055Y-102119858D02*
X124876682Y-104760485D01*
X80339170Y-85905896D02*
X86423759Y-91990485D01*
X124876682Y-104760485D02*
X137473759Y-104760485D01*
X117173759Y-99650485D02*
X117173759Y-84290485D01*
X80339170Y-84349063D02*
X80339170Y-85905896D01*
X86423759Y-91990485D02*
X96883759Y-91990485D01*
X137473759Y-102220485D02*
X136503759Y-102220485D01*
X94573759Y-104590485D02*
X76573759Y-104590485D01*
X122246055Y-97019858D02*
X122246055Y-84262781D01*
X101983759Y-97180485D02*
X94573759Y-104590485D01*
X82879170Y-84349063D02*
X94282337Y-84349063D01*
X101983759Y-92050485D02*
X101983759Y-94550485D01*
X101983759Y-94550485D02*
X101983759Y-97180485D01*
X122246055Y-97019858D02*
X124716682Y-99490485D01*
X71445459Y-109718785D02*
X71445459Y-112289108D01*
X114783759Y-76800485D02*
X109523759Y-76800485D01*
X134743759Y-99490485D02*
X137473759Y-102220485D01*
X124716682Y-99490485D02*
X134743759Y-99490485D01*
X94282337Y-84349063D02*
X101983759Y-92050485D01*
X122246055Y-84262781D02*
X114783759Y-76800485D01*
X76573759Y-104590485D02*
X71445459Y-109718785D01*
X127403759Y-42323485D02*
X123466759Y-42323485D01*
X123466759Y-42323485D02*
X122283759Y-41140485D01*
X61273759Y-56490485D02*
X63823759Y-53940485D01*
X63823759Y-53940485D02*
X89203759Y-53940485D01*
X81588096Y-64120485D02*
X79098096Y-61630485D01*
X89203759Y-59020485D02*
X89173759Y-58990485D01*
X81738096Y-58990485D02*
X79098096Y-61630485D01*
X81588096Y-66690485D02*
X81588096Y-64120485D01*
X89173759Y-58990485D02*
X81738096Y-58990485D01*
X86723759Y-112300485D02*
X86723759Y-109940485D01*
X86723759Y-109940485D02*
X89449721Y-107214523D01*
X89449721Y-107214523D02*
X122238321Y-107214523D01*
X89263759Y-109800485D02*
X89263759Y-112300485D01*
X124778321Y-108135923D02*
X124027943Y-108886301D01*
X124778321Y-107214523D02*
X124778321Y-108135923D01*
X124027943Y-108909843D02*
X90177943Y-108909843D01*
X90177943Y-108886301D02*
X89263759Y-109800485D01*
X112123759Y-112300485D02*
X113903759Y-110520485D01*
X127318321Y-107214523D02*
X127318321Y-109305923D01*
X126019081Y-110605163D02*
X113903759Y-110605163D01*
X127318321Y-109305923D02*
X126019081Y-110605163D01*
X114663759Y-112300485D02*
X127473759Y-112300485D01*
X129858321Y-109915923D02*
X129858321Y-107214523D01*
X127473759Y-112300485D02*
X129858321Y-109915923D01*
X81123759Y-51070485D02*
X88873759Y-51070485D01*
X81123759Y-51070485D02*
X74623759Y-51070485D01*
X88873759Y-51070485D02*
X89203759Y-51400485D01*
X80333096Y-74199063D02*
X82035181Y-74199063D01*
X82035181Y-74199063D02*
X84393759Y-71840485D01*
X84393759Y-71840485D02*
X84393759Y-64010485D01*
X86843759Y-61560485D02*
X89203759Y-61560485D01*
X84393759Y-64010485D02*
X86843759Y-61560485D01*
X86223759Y-65410485D02*
X87533759Y-64100485D01*
X86223759Y-75064474D02*
X86223759Y-73840485D01*
X86223759Y-73840485D02*
X86223759Y-65410485D01*
X87533759Y-64100485D02*
X89203759Y-64100485D01*
X80339170Y-79274063D02*
X82014170Y-79274063D01*
X82014170Y-79274063D02*
X86223759Y-75064474D01*
G04 #@! TA.AperFunction,Conductor*
G36*
X146664363Y-33624581D02*
G01*
X146998262Y-33640987D01*
X147010368Y-33642179D01*
X147338042Y-33690787D01*
X147349941Y-33693154D01*
X147671295Y-33773650D01*
X147682908Y-33777174D01*
X147994807Y-33888774D01*
X148006021Y-33893419D01*
X148305488Y-34035057D01*
X148316213Y-34040790D01*
X148600294Y-34211062D01*
X148600328Y-34211082D01*
X148610443Y-34217840D01*
X148876506Y-34415165D01*
X148885905Y-34422878D01*
X149131352Y-34645338D01*
X149139942Y-34653928D01*
X149168120Y-34685017D01*
X149362400Y-34899369D01*
X149370120Y-34908776D01*
X149567436Y-35174824D01*
X149574197Y-35184941D01*
X149744499Y-35469065D01*
X149750235Y-35479797D01*
X149887168Y-35769312D01*
X149891859Y-35779229D01*
X149896516Y-35790472D01*
X150008114Y-36102359D01*
X150011646Y-36114003D01*
X150092132Y-36435303D01*
X150094507Y-36447238D01*
X150143116Y-36774902D01*
X150144309Y-36787011D01*
X150160686Y-37120237D01*
X150160835Y-37126324D01*
X150160835Y-129120878D01*
X150160685Y-129126966D01*
X150144272Y-129460839D01*
X150143079Y-129472949D01*
X150094468Y-129800603D01*
X150092094Y-129812537D01*
X150011603Y-130133842D01*
X150008071Y-130145487D01*
X149896469Y-130457375D01*
X149891812Y-130468617D01*
X149750188Y-130768043D01*
X149744452Y-130778774D01*
X149574152Y-131062897D01*
X149567391Y-131073014D01*
X149370076Y-131339060D01*
X149362357Y-131348466D01*
X149139908Y-131593901D01*
X149131303Y-131602506D01*
X148885868Y-131824955D01*
X148876462Y-131832674D01*
X148610416Y-132029989D01*
X148600299Y-132036750D01*
X148316176Y-132207051D01*
X148305445Y-132212787D01*
X148006019Y-132354411D01*
X147994777Y-132359068D01*
X147682890Y-132470670D01*
X147671245Y-132474202D01*
X147349939Y-132554693D01*
X147338005Y-132557067D01*
X147010351Y-132605679D01*
X146998241Y-132606872D01*
X146664430Y-132623282D01*
X146658342Y-132623432D01*
X54734833Y-132623432D01*
X54734817Y-132623431D01*
X54664379Y-132623431D01*
X54658296Y-132623282D01*
X54324403Y-132606882D01*
X54312292Y-132605689D01*
X53984639Y-132557088D01*
X53972704Y-132554714D01*
X53651395Y-132474233D01*
X53639750Y-132470701D01*
X53327868Y-132359109D01*
X53316625Y-132354452D01*
X53017182Y-132212827D01*
X53006455Y-132207092D01*
X52722346Y-132036804D01*
X52712228Y-132030043D01*
X52446171Y-131832720D01*
X52436764Y-131825001D01*
X52191326Y-131602548D01*
X52182722Y-131593943D01*
X51960280Y-131348514D01*
X51952560Y-131339107D01*
X51952525Y-131339060D01*
X51755244Y-131073053D01*
X51748484Y-131062937D01*
X51683781Y-130954984D01*
X51578188Y-130778808D01*
X51572456Y-130768084D01*
X51559584Y-130740868D01*
X51430836Y-130468647D01*
X51426180Y-130457405D01*
X51314591Y-130145523D01*
X51311059Y-130133878D01*
X51230579Y-129812568D01*
X51228205Y-129800633D01*
X51227374Y-129795032D01*
X51179606Y-129472975D01*
X51178414Y-129460869D01*
X51165109Y-129189943D01*
X51161983Y-129126292D01*
X51161835Y-129120230D01*
X51161836Y-129077643D01*
X52789235Y-129077643D01*
X52789235Y-129320220D01*
X52820896Y-129560717D01*
X52883682Y-129795036D01*
X52976508Y-130019137D01*
X52976511Y-130019144D01*
X53097799Y-130229221D01*
X53097801Y-130229224D01*
X53097802Y-130229225D01*
X53245468Y-130421668D01*
X53245474Y-130421675D01*
X53416991Y-130593192D01*
X53416997Y-130593197D01*
X53609446Y-130740868D01*
X53819523Y-130862156D01*
X54043635Y-130954986D01*
X54277946Y-131017770D01*
X54458321Y-131041516D01*
X54518446Y-131049432D01*
X54518447Y-131049432D01*
X54761024Y-131049432D01*
X54809123Y-131043099D01*
X55001524Y-131017770D01*
X55235835Y-130954986D01*
X55459947Y-130862156D01*
X55670024Y-130740868D01*
X55862473Y-130593197D01*
X56034000Y-130421670D01*
X56181671Y-130229221D01*
X56302959Y-130019144D01*
X56395789Y-129795032D01*
X56458573Y-129560721D01*
X56490235Y-129320220D01*
X56490235Y-129077644D01*
X56490235Y-129077643D01*
X144789235Y-129077643D01*
X144789235Y-129320220D01*
X144820896Y-129560717D01*
X144883682Y-129795036D01*
X144976508Y-130019137D01*
X144976511Y-130019144D01*
X145097799Y-130229221D01*
X145097801Y-130229224D01*
X145097802Y-130229225D01*
X145245468Y-130421668D01*
X145245474Y-130421675D01*
X145416991Y-130593192D01*
X145416997Y-130593197D01*
X145609446Y-130740868D01*
X145819523Y-130862156D01*
X146043635Y-130954986D01*
X146277946Y-131017770D01*
X146458321Y-131041516D01*
X146518446Y-131049432D01*
X146518447Y-131049432D01*
X146761024Y-131049432D01*
X146809123Y-131043099D01*
X147001524Y-131017770D01*
X147235835Y-130954986D01*
X147459947Y-130862156D01*
X147670024Y-130740868D01*
X147862473Y-130593197D01*
X148034000Y-130421670D01*
X148181671Y-130229221D01*
X148302959Y-130019144D01*
X148395789Y-129795032D01*
X148458573Y-129560721D01*
X148490235Y-129320220D01*
X148490235Y-129077644D01*
X148458573Y-128837143D01*
X148395789Y-128602832D01*
X148302959Y-128378720D01*
X148181671Y-128168643D01*
X148034000Y-127976194D01*
X148033995Y-127976188D01*
X147862478Y-127804671D01*
X147862471Y-127804665D01*
X147670028Y-127656999D01*
X147670027Y-127656998D01*
X147670024Y-127656996D01*
X147459947Y-127535708D01*
X147459940Y-127535705D01*
X147235839Y-127442879D01*
X147001520Y-127380093D01*
X146761024Y-127348432D01*
X146761023Y-127348432D01*
X146518447Y-127348432D01*
X146518446Y-127348432D01*
X146277949Y-127380093D01*
X146043630Y-127442879D01*
X145819529Y-127535705D01*
X145819520Y-127535709D01*
X145609441Y-127656999D01*
X145416998Y-127804665D01*
X145416991Y-127804671D01*
X145245474Y-127976188D01*
X145245468Y-127976195D01*
X145097802Y-128168638D01*
X144976512Y-128378717D01*
X144976508Y-128378726D01*
X144883682Y-128602827D01*
X144820896Y-128837146D01*
X144789235Y-129077643D01*
X56490235Y-129077643D01*
X56458573Y-128837143D01*
X56395789Y-128602832D01*
X56302959Y-128378720D01*
X56181671Y-128168643D01*
X56034000Y-127976194D01*
X56033995Y-127976188D01*
X55862478Y-127804671D01*
X55862471Y-127804665D01*
X55670028Y-127656999D01*
X55670027Y-127656998D01*
X55670024Y-127656996D01*
X55459947Y-127535708D01*
X55459940Y-127535705D01*
X55235839Y-127442879D01*
X55001520Y-127380093D01*
X54761024Y-127348432D01*
X54761023Y-127348432D01*
X54518447Y-127348432D01*
X54518446Y-127348432D01*
X54277949Y-127380093D01*
X54043630Y-127442879D01*
X53819529Y-127535705D01*
X53819520Y-127535709D01*
X53609441Y-127656999D01*
X53416998Y-127804665D01*
X53416991Y-127804671D01*
X53245474Y-127976188D01*
X53245468Y-127976195D01*
X53097802Y-128168638D01*
X52976512Y-128378717D01*
X52976508Y-128378726D01*
X52883682Y-128602827D01*
X52820896Y-128837146D01*
X52789235Y-129077643D01*
X51161836Y-129077643D01*
X51161836Y-129058048D01*
X51161835Y-129058044D01*
X51161835Y-112289106D01*
X59979991Y-112289106D01*
X59979991Y-112289109D01*
X59999823Y-112515794D01*
X59999825Y-112515805D01*
X60058717Y-112735596D01*
X60058720Y-112735605D01*
X60154890Y-112941840D01*
X60154891Y-112941842D01*
X60285413Y-113128249D01*
X60446317Y-113289153D01*
X60446320Y-113289155D01*
X60632725Y-113419676D01*
X60838963Y-113515847D01*
X61058767Y-113574743D01*
X61220689Y-113588909D01*
X61285457Y-113594576D01*
X61285459Y-113594576D01*
X61285461Y-113594576D01*
X61342132Y-113589617D01*
X61512151Y-113574743D01*
X61731955Y-113515847D01*
X61938193Y-113419676D01*
X62124598Y-113289155D01*
X62285506Y-113128247D01*
X62416027Y-112941842D01*
X62443077Y-112883832D01*
X62489249Y-112831393D01*
X62556442Y-112812241D01*
X62623324Y-112832456D01*
X62667841Y-112883833D01*
X62694888Y-112941836D01*
X62694891Y-112941842D01*
X62825413Y-113128249D01*
X62986317Y-113289153D01*
X62986320Y-113289155D01*
X63172725Y-113419676D01*
X63378963Y-113515847D01*
X63598767Y-113574743D01*
X63760689Y-113588909D01*
X63825457Y-113594576D01*
X63825459Y-113594576D01*
X63825461Y-113594576D01*
X63882132Y-113589617D01*
X64052151Y-113574743D01*
X64271955Y-113515847D01*
X64478193Y-113419676D01*
X64664598Y-113289155D01*
X64825506Y-113128247D01*
X64956027Y-112941842D01*
X64983354Y-112883237D01*
X65029523Y-112830803D01*
X65096716Y-112811650D01*
X65163598Y-112831865D01*
X65208116Y-112883241D01*
X65235324Y-112941590D01*
X65365801Y-113127928D01*
X65526638Y-113288765D01*
X65712976Y-113419242D01*
X65919132Y-113515373D01*
X65919141Y-113515377D01*
X66115458Y-113567980D01*
X66115459Y-113567979D01*
X66115459Y-112722120D01*
X66172466Y-112755033D01*
X66299633Y-112789108D01*
X66431285Y-112789108D01*
X66558452Y-112755033D01*
X66615459Y-112722120D01*
X66615459Y-113567980D01*
X66811776Y-113515377D01*
X66811785Y-113515373D01*
X67017941Y-113419242D01*
X67204279Y-113288765D01*
X67365116Y-113127928D01*
X67495591Y-112941592D01*
X67522800Y-112883242D01*
X67568972Y-112830803D01*
X67636166Y-112811650D01*
X67703047Y-112831865D01*
X67747565Y-112883241D01*
X67774890Y-112941840D01*
X67774891Y-112941842D01*
X67905413Y-113128249D01*
X68066317Y-113289153D01*
X68066320Y-113289155D01*
X68252725Y-113419676D01*
X68458963Y-113515847D01*
X68678767Y-113574743D01*
X68840689Y-113588909D01*
X68905457Y-113594576D01*
X68905459Y-113594576D01*
X68905461Y-113594576D01*
X68962132Y-113589617D01*
X69132151Y-113574743D01*
X69351955Y-113515847D01*
X69558193Y-113419676D01*
X69744598Y-113289155D01*
X69905506Y-113128247D01*
X70036027Y-112941842D01*
X70063077Y-112883832D01*
X70109249Y-112831393D01*
X70176442Y-112812241D01*
X70243324Y-112832456D01*
X70287841Y-112883833D01*
X70314888Y-112941836D01*
X70314891Y-112941842D01*
X70445413Y-113128249D01*
X70606317Y-113289153D01*
X70606320Y-113289155D01*
X70792725Y-113419676D01*
X70998963Y-113515847D01*
X71218767Y-113574743D01*
X71380689Y-113588909D01*
X71445457Y-113594576D01*
X71445459Y-113594576D01*
X71445461Y-113594576D01*
X71502132Y-113589617D01*
X71672151Y-113574743D01*
X71891955Y-113515847D01*
X72098193Y-113419676D01*
X72284598Y-113289155D01*
X72445506Y-113128247D01*
X72576027Y-112941842D01*
X72603077Y-112883832D01*
X72649249Y-112831393D01*
X72716442Y-112812241D01*
X72783324Y-112832456D01*
X72827841Y-112883833D01*
X72854888Y-112941836D01*
X72854891Y-112941842D01*
X72985413Y-113128249D01*
X73146317Y-113289153D01*
X73146320Y-113289155D01*
X73332725Y-113419676D01*
X73538963Y-113515847D01*
X73758767Y-113574743D01*
X73920689Y-113588909D01*
X73985457Y-113594576D01*
X73985459Y-113594576D01*
X73985461Y-113594576D01*
X74042132Y-113589617D01*
X74212151Y-113574743D01*
X74431955Y-113515847D01*
X74638193Y-113419676D01*
X74824598Y-113289155D01*
X74985506Y-113128247D01*
X75116027Y-112941842D01*
X75212198Y-112735604D01*
X75271094Y-112515800D01*
X75289932Y-112300483D01*
X85418291Y-112300483D01*
X85418291Y-112300486D01*
X85438123Y-112527171D01*
X85438125Y-112527182D01*
X85497017Y-112746973D01*
X85497020Y-112746982D01*
X85593190Y-112953217D01*
X85593191Y-112953219D01*
X85723713Y-113139626D01*
X85884617Y-113300530D01*
X85884620Y-113300532D01*
X86071025Y-113431053D01*
X86277263Y-113527224D01*
X86497067Y-113586120D01*
X86658989Y-113600286D01*
X86723757Y-113605953D01*
X86723759Y-113605953D01*
X86723761Y-113605953D01*
X86780432Y-113600994D01*
X86950451Y-113586120D01*
X87170255Y-113527224D01*
X87376493Y-113431053D01*
X87562898Y-113300532D01*
X87723806Y-113139624D01*
X87854327Y-112953219D01*
X87881377Y-112895209D01*
X87927549Y-112842770D01*
X87994742Y-112823618D01*
X88061624Y-112843833D01*
X88106141Y-112895210D01*
X88133188Y-112953213D01*
X88133191Y-112953219D01*
X88263713Y-113139626D01*
X88424617Y-113300530D01*
X88424620Y-113300532D01*
X88611025Y-113431053D01*
X88817263Y-113527224D01*
X89037067Y-113586120D01*
X89198989Y-113600286D01*
X89263757Y-113605953D01*
X89263759Y-113605953D01*
X89263761Y-113605953D01*
X89320432Y-113600994D01*
X89490451Y-113586120D01*
X89710255Y-113527224D01*
X89916493Y-113431053D01*
X90102898Y-113300532D01*
X90263806Y-113139624D01*
X90394327Y-112953219D01*
X90421377Y-112895209D01*
X90467549Y-112842770D01*
X90534742Y-112823618D01*
X90601624Y-112843833D01*
X90646141Y-112895210D01*
X90673188Y-112953213D01*
X90673191Y-112953219D01*
X90803713Y-113139626D01*
X90964617Y-113300530D01*
X90964620Y-113300532D01*
X91151025Y-113431053D01*
X91357263Y-113527224D01*
X91577067Y-113586120D01*
X91738989Y-113600286D01*
X91803757Y-113605953D01*
X91803759Y-113605953D01*
X91803761Y-113605953D01*
X91860432Y-113600994D01*
X92030451Y-113586120D01*
X92250255Y-113527224D01*
X92456493Y-113431053D01*
X92642898Y-113300532D01*
X92803806Y-113139624D01*
X92934327Y-112953219D01*
X92961377Y-112895209D01*
X93007549Y-112842770D01*
X93074742Y-112823618D01*
X93141624Y-112843833D01*
X93186141Y-112895210D01*
X93213188Y-112953213D01*
X93213191Y-112953219D01*
X93343713Y-113139626D01*
X93504617Y-113300530D01*
X93504620Y-113300532D01*
X93691025Y-113431053D01*
X93897263Y-113527224D01*
X94117067Y-113586120D01*
X94278989Y-113600286D01*
X94343757Y-113605953D01*
X94343759Y-113605953D01*
X94343761Y-113605953D01*
X94400432Y-113600994D01*
X94570451Y-113586120D01*
X94790255Y-113527224D01*
X94996493Y-113431053D01*
X95182898Y-113300532D01*
X95343806Y-113139624D01*
X95474327Y-112953219D01*
X95501377Y-112895209D01*
X95547549Y-112842770D01*
X95614742Y-112823618D01*
X95681624Y-112843833D01*
X95726141Y-112895210D01*
X95753188Y-112953213D01*
X95753191Y-112953219D01*
X95883713Y-113139626D01*
X96044617Y-113300530D01*
X96044620Y-113300532D01*
X96231025Y-113431053D01*
X96437263Y-113527224D01*
X96657067Y-113586120D01*
X96818989Y-113600286D01*
X96883757Y-113605953D01*
X96883759Y-113605953D01*
X96883761Y-113605953D01*
X96940432Y-113600994D01*
X97110451Y-113586120D01*
X97330255Y-113527224D01*
X97536493Y-113431053D01*
X97722898Y-113300532D01*
X97883806Y-113139624D01*
X98014327Y-112953219D01*
X98041377Y-112895209D01*
X98087549Y-112842770D01*
X98154742Y-112823618D01*
X98221624Y-112843833D01*
X98266141Y-112895210D01*
X98293188Y-112953213D01*
X98293191Y-112953219D01*
X98423713Y-113139626D01*
X98584617Y-113300530D01*
X98584620Y-113300532D01*
X98771025Y-113431053D01*
X98977263Y-113527224D01*
X99197067Y-113586120D01*
X99358989Y-113600286D01*
X99423757Y-113605953D01*
X99423759Y-113605953D01*
X99423761Y-113605953D01*
X99480432Y-113600994D01*
X99650451Y-113586120D01*
X99870255Y-113527224D01*
X100076493Y-113431053D01*
X100262898Y-113300532D01*
X100423806Y-113139624D01*
X100554327Y-112953219D01*
X100581377Y-112895209D01*
X100627549Y-112842770D01*
X100694742Y-112823618D01*
X100761624Y-112843833D01*
X100806141Y-112895210D01*
X100833188Y-112953213D01*
X100833191Y-112953219D01*
X100963713Y-113139626D01*
X101124617Y-113300530D01*
X101124620Y-113300532D01*
X101311025Y-113431053D01*
X101517263Y-113527224D01*
X101737067Y-113586120D01*
X101898989Y-113600286D01*
X101963757Y-113605953D01*
X101963759Y-113605953D01*
X101963761Y-113605953D01*
X102020432Y-113600994D01*
X102190451Y-113586120D01*
X102410255Y-113527224D01*
X102616493Y-113431053D01*
X102802898Y-113300532D01*
X102963806Y-113139624D01*
X103094327Y-112953219D01*
X103121377Y-112895209D01*
X103167549Y-112842770D01*
X103234742Y-112823618D01*
X103301624Y-112843833D01*
X103346141Y-112895210D01*
X103373188Y-112953213D01*
X103373191Y-112953219D01*
X103503713Y-113139626D01*
X103664617Y-113300530D01*
X103664620Y-113300532D01*
X103851025Y-113431053D01*
X104057263Y-113527224D01*
X104277067Y-113586120D01*
X104438989Y-113600286D01*
X104503757Y-113605953D01*
X104503759Y-113605953D01*
X104503761Y-113605953D01*
X104560432Y-113600994D01*
X104730451Y-113586120D01*
X104950255Y-113527224D01*
X105156493Y-113431053D01*
X105342898Y-113300532D01*
X105503806Y-113139624D01*
X105634327Y-112953219D01*
X105661377Y-112895209D01*
X105707549Y-112842770D01*
X105774742Y-112823618D01*
X105841624Y-112843833D01*
X105886141Y-112895210D01*
X105913188Y-112953213D01*
X105913191Y-112953219D01*
X106043713Y-113139626D01*
X106204617Y-113300530D01*
X106204620Y-113300532D01*
X106391025Y-113431053D01*
X106597263Y-113527224D01*
X106817067Y-113586120D01*
X106978989Y-113600286D01*
X107043757Y-113605953D01*
X107043759Y-113605953D01*
X107043761Y-113605953D01*
X107100432Y-113600994D01*
X107270451Y-113586120D01*
X107490255Y-113527224D01*
X107696493Y-113431053D01*
X107882898Y-113300532D01*
X108043806Y-113139624D01*
X108174327Y-112953219D01*
X108201377Y-112895209D01*
X108247549Y-112842770D01*
X108314742Y-112823618D01*
X108381624Y-112843833D01*
X108426141Y-112895210D01*
X108453188Y-112953213D01*
X108453191Y-112953219D01*
X108583713Y-113139626D01*
X108744617Y-113300530D01*
X108744620Y-113300532D01*
X108931025Y-113431053D01*
X109137263Y-113527224D01*
X109357067Y-113586120D01*
X109518989Y-113600286D01*
X109583757Y-113605953D01*
X109583759Y-113605953D01*
X109583761Y-113605953D01*
X109640432Y-113600994D01*
X109810451Y-113586120D01*
X110030255Y-113527224D01*
X110236493Y-113431053D01*
X110422898Y-113300532D01*
X110583806Y-113139624D01*
X110714327Y-112953219D01*
X110741377Y-112895209D01*
X110787549Y-112842770D01*
X110854742Y-112823618D01*
X110921624Y-112843833D01*
X110966141Y-112895210D01*
X110993188Y-112953213D01*
X110993191Y-112953219D01*
X111123713Y-113139626D01*
X111284617Y-113300530D01*
X111284620Y-113300532D01*
X111471025Y-113431053D01*
X111677263Y-113527224D01*
X111897067Y-113586120D01*
X112058989Y-113600286D01*
X112123757Y-113605953D01*
X112123759Y-113605953D01*
X112123761Y-113605953D01*
X112180432Y-113600994D01*
X112350451Y-113586120D01*
X112570255Y-113527224D01*
X112776493Y-113431053D01*
X112962898Y-113300532D01*
X113123806Y-113139624D01*
X113254327Y-112953219D01*
X113281377Y-112895209D01*
X113327549Y-112842770D01*
X113394742Y-112823618D01*
X113461624Y-112843833D01*
X113506141Y-112895210D01*
X113533188Y-112953213D01*
X113533191Y-112953219D01*
X113663713Y-113139626D01*
X113824617Y-113300530D01*
X113824620Y-113300532D01*
X114011025Y-113431053D01*
X114217263Y-113527224D01*
X114437067Y-113586120D01*
X114598989Y-113600286D01*
X114663757Y-113605953D01*
X114663759Y-113605953D01*
X114663761Y-113605953D01*
X114720432Y-113600994D01*
X114890451Y-113586120D01*
X115110255Y-113527224D01*
X115316493Y-113431053D01*
X115502898Y-113300532D01*
X115663806Y-113139624D01*
X115688847Y-113103862D01*
X115743424Y-113060237D01*
X115790422Y-113050985D01*
X127547679Y-113050985D01*
X127645221Y-113031581D01*
X127692672Y-113022143D01*
X127829254Y-112965569D01*
X127878488Y-112932671D01*
X127952175Y-112883437D01*
X130441273Y-110394339D01*
X130494686Y-110314399D01*
X130523405Y-110271418D01*
X130579979Y-110134836D01*
X130600902Y-110029652D01*
X130608821Y-109989843D01*
X130608821Y-108402223D01*
X130628506Y-108335184D01*
X130661696Y-108300649D01*
X130729722Y-108253018D01*
X130896816Y-108085924D01*
X131032356Y-107892353D01*
X131132224Y-107678186D01*
X131193384Y-107449931D01*
X131213980Y-107214523D01*
X131193384Y-106979115D01*
X131132224Y-106750860D01*
X131032356Y-106536694D01*
X131026746Y-106528681D01*
X130896815Y-106343120D01*
X130729723Y-106176029D01*
X130729716Y-106176024D01*
X130720994Y-106169917D01*
X130652839Y-106122194D01*
X130536155Y-106040490D01*
X130536151Y-106040488D01*
X130516810Y-106031469D01*
X130321984Y-105940620D01*
X130321980Y-105940619D01*
X130321976Y-105940617D01*
X130093734Y-105879461D01*
X130093724Y-105879459D01*
X129858322Y-105858864D01*
X129858320Y-105858864D01*
X129622917Y-105879459D01*
X129622907Y-105879461D01*
X129394665Y-105940617D01*
X129394656Y-105940621D01*
X129180492Y-106040487D01*
X129180490Y-106040488D01*
X128986918Y-106176028D01*
X128819826Y-106343120D01*
X128689896Y-106528681D01*
X128635319Y-106572306D01*
X128565821Y-106579500D01*
X128503466Y-106547977D01*
X128486746Y-106528681D01*
X128356815Y-106343120D01*
X128189723Y-106176029D01*
X128189716Y-106176024D01*
X128180994Y-106169917D01*
X128112839Y-106122194D01*
X127996155Y-106040490D01*
X127996151Y-106040488D01*
X127976810Y-106031469D01*
X127781984Y-105940620D01*
X127781980Y-105940619D01*
X127781976Y-105940617D01*
X127553734Y-105879461D01*
X127553724Y-105879459D01*
X127318322Y-105858864D01*
X127318320Y-105858864D01*
X127082917Y-105879459D01*
X127082907Y-105879461D01*
X126854665Y-105940617D01*
X126854656Y-105940621D01*
X126640492Y-106040487D01*
X126640490Y-106040488D01*
X126446918Y-106176028D01*
X126279826Y-106343120D01*
X126149896Y-106528681D01*
X126095319Y-106572306D01*
X126025821Y-106579500D01*
X125963466Y-106547977D01*
X125946746Y-106528681D01*
X125816815Y-106343120D01*
X125649723Y-106176029D01*
X125649716Y-106176024D01*
X125640994Y-106169917D01*
X125572839Y-106122194D01*
X125456155Y-106040490D01*
X125456151Y-106040488D01*
X125436810Y-106031469D01*
X125241984Y-105940620D01*
X125241980Y-105940619D01*
X125241976Y-105940617D01*
X125013734Y-105879461D01*
X125013724Y-105879459D01*
X124778322Y-105858864D01*
X124778320Y-105858864D01*
X124542917Y-105879459D01*
X124542907Y-105879461D01*
X124314665Y-105940617D01*
X124314656Y-105940621D01*
X124100492Y-106040487D01*
X124100490Y-106040488D01*
X123906921Y-106176026D01*
X123784994Y-106297953D01*
X123723671Y-106331437D01*
X123653979Y-106326453D01*
X123598046Y-106284581D01*
X123581131Y-106253604D01*
X123532118Y-106122194D01*
X123532114Y-106122187D01*
X123445868Y-106006978D01*
X123445865Y-106006975D01*
X123330656Y-105920729D01*
X123330649Y-105920725D01*
X123195803Y-105870431D01*
X123195804Y-105870431D01*
X123136204Y-105864024D01*
X123136202Y-105864023D01*
X123136194Y-105864023D01*
X123136185Y-105864023D01*
X121340450Y-105864023D01*
X121340444Y-105864024D01*
X121280837Y-105870431D01*
X121145992Y-105920725D01*
X121145985Y-105920729D01*
X121030776Y-106006975D01*
X121030773Y-106006978D01*
X120944527Y-106122187D01*
X120944523Y-106122194D01*
X120894229Y-106257040D01*
X120887822Y-106316639D01*
X120887821Y-106316658D01*
X120887821Y-106340023D01*
X120868136Y-106407062D01*
X120815332Y-106452817D01*
X120763821Y-106464023D01*
X89375801Y-106464023D01*
X89230813Y-106492863D01*
X89230803Y-106492866D01*
X89094232Y-106549435D01*
X89094219Y-106549442D01*
X88971305Y-106631571D01*
X88971301Y-106631574D01*
X86140809Y-109462065D01*
X86140803Y-109462073D01*
X86091571Y-109535753D01*
X86091572Y-109535754D01*
X86058680Y-109584981D01*
X86058673Y-109584993D01*
X86002101Y-109721571D01*
X86002099Y-109721577D01*
X85973259Y-109866564D01*
X85973259Y-111173821D01*
X85953574Y-111240860D01*
X85920384Y-111275395D01*
X85884622Y-111300436D01*
X85723710Y-111461347D01*
X85593191Y-111647750D01*
X85593190Y-111647752D01*
X85497020Y-111853987D01*
X85497017Y-111853996D01*
X85438125Y-112073787D01*
X85438123Y-112073798D01*
X85418291Y-112300483D01*
X75289932Y-112300483D01*
X75290927Y-112289108D01*
X75271094Y-112062416D01*
X75215248Y-111853996D01*
X75212200Y-111842619D01*
X75212197Y-111842610D01*
X75203138Y-111823183D01*
X75116027Y-111636374D01*
X74985506Y-111449969D01*
X74985504Y-111449966D01*
X74824600Y-111289062D01*
X74638193Y-111158540D01*
X74638191Y-111158539D01*
X74431956Y-111062369D01*
X74431947Y-111062366D01*
X74212156Y-111003474D01*
X74212152Y-111003473D01*
X74212151Y-111003473D01*
X74212150Y-111003472D01*
X74212145Y-111003472D01*
X73985461Y-110983640D01*
X73985457Y-110983640D01*
X73758772Y-111003472D01*
X73758761Y-111003474D01*
X73538970Y-111062366D01*
X73538961Y-111062369D01*
X73332726Y-111158539D01*
X73332724Y-111158540D01*
X73146317Y-111289062D01*
X72985413Y-111449966D01*
X72854891Y-111636373D01*
X72854890Y-111636375D01*
X72827841Y-111694383D01*
X72781668Y-111746822D01*
X72714475Y-111765974D01*
X72647594Y-111745758D01*
X72603077Y-111694383D01*
X72576027Y-111636374D01*
X72490107Y-111513666D01*
X72445507Y-111449970D01*
X72403875Y-111408338D01*
X72284598Y-111289061D01*
X72265081Y-111275395D01*
X72248834Y-111264018D01*
X72205210Y-111209440D01*
X72195959Y-111162444D01*
X72195959Y-110081014D01*
X72215644Y-110013975D01*
X72232278Y-109993333D01*
X76848307Y-105377304D01*
X76909630Y-105343819D01*
X76935988Y-105340985D01*
X94647679Y-105340985D01*
X94745221Y-105321581D01*
X94792672Y-105312143D01*
X94929254Y-105255569D01*
X94978488Y-105222671D01*
X95052175Y-105173437D01*
X102566710Y-97658901D01*
X102648843Y-97535980D01*
X102705417Y-97399398D01*
X102711826Y-97367177D01*
X102734259Y-97254403D01*
X102734259Y-95677147D01*
X102753944Y-95610108D01*
X102787138Y-95575571D01*
X102822899Y-95550531D01*
X102983804Y-95389626D01*
X102983806Y-95389624D01*
X103114327Y-95203219D01*
X103141377Y-95145209D01*
X103187549Y-95092770D01*
X103254742Y-95073618D01*
X103321624Y-95093833D01*
X103366140Y-95145209D01*
X103380276Y-95175523D01*
X103393188Y-95203213D01*
X103393191Y-95203219D01*
X103523713Y-95389626D01*
X103684617Y-95550530D01*
X103684620Y-95550532D01*
X103871025Y-95681053D01*
X104077263Y-95777224D01*
X104297067Y-95836120D01*
X104458989Y-95850286D01*
X104523757Y-95855953D01*
X104523759Y-95855953D01*
X104523761Y-95855953D01*
X104580432Y-95850994D01*
X104750451Y-95836120D01*
X104970255Y-95777224D01*
X105176493Y-95681053D01*
X105362898Y-95550532D01*
X105523806Y-95389624D01*
X105654327Y-95203219D01*
X105681377Y-95145209D01*
X105727549Y-95092770D01*
X105794742Y-95073618D01*
X105861624Y-95093833D01*
X105906140Y-95145209D01*
X105920276Y-95175523D01*
X105933188Y-95203213D01*
X105933191Y-95203219D01*
X106063713Y-95389626D01*
X106224617Y-95550530D01*
X106224620Y-95550532D01*
X106411025Y-95681053D01*
X106617263Y-95777224D01*
X106837067Y-95836120D01*
X106998989Y-95850286D01*
X107063757Y-95855953D01*
X107063759Y-95855953D01*
X107063761Y-95855953D01*
X107120432Y-95850994D01*
X107290451Y-95836120D01*
X107510255Y-95777224D01*
X107716493Y-95681053D01*
X107902898Y-95550532D01*
X108063806Y-95389624D01*
X108194327Y-95203219D01*
X108290498Y-94996981D01*
X108349394Y-94777177D01*
X108369227Y-94550485D01*
X108349394Y-94323793D01*
X108290498Y-94103989D01*
X108194327Y-93897751D01*
X108063806Y-93711346D01*
X108063804Y-93711343D01*
X107902900Y-93550439D01*
X107716493Y-93419917D01*
X107716491Y-93419916D01*
X107510256Y-93323746D01*
X107510247Y-93323743D01*
X107290456Y-93264851D01*
X107290452Y-93264850D01*
X107290451Y-93264850D01*
X107290450Y-93264849D01*
X107290445Y-93264849D01*
X107063761Y-93245017D01*
X107063757Y-93245017D01*
X106837072Y-93264849D01*
X106837061Y-93264851D01*
X106617270Y-93323743D01*
X106617261Y-93323746D01*
X106411026Y-93419916D01*
X106411024Y-93419917D01*
X106224617Y-93550439D01*
X106063713Y-93711343D01*
X105933191Y-93897750D01*
X105933190Y-93897752D01*
X105906141Y-93955760D01*
X105859968Y-94008199D01*
X105792775Y-94027351D01*
X105725894Y-94007135D01*
X105681377Y-93955760D01*
X105654327Y-93897751D01*
X105523806Y-93711346D01*
X105523804Y-93711343D01*
X105362900Y-93550439D01*
X105176493Y-93419917D01*
X105176491Y-93419916D01*
X104970256Y-93323746D01*
X104970247Y-93323743D01*
X104750456Y-93264851D01*
X104750452Y-93264850D01*
X104750451Y-93264850D01*
X104750450Y-93264849D01*
X104750445Y-93264849D01*
X104523761Y-93245017D01*
X104523757Y-93245017D01*
X104297072Y-93264849D01*
X104297061Y-93264851D01*
X104077270Y-93323743D01*
X104077261Y-93323746D01*
X103871026Y-93419916D01*
X103871024Y-93419917D01*
X103684617Y-93550439D01*
X103523713Y-93711343D01*
X103393191Y-93897750D01*
X103393190Y-93897752D01*
X103366141Y-93955760D01*
X103319968Y-94008199D01*
X103252775Y-94027351D01*
X103185894Y-94007135D01*
X103141377Y-93955760D01*
X103114327Y-93897751D01*
X102983806Y-93711346D01*
X102822898Y-93550438D01*
X102818132Y-93547100D01*
X102787134Y-93525395D01*
X102743510Y-93470817D01*
X102734259Y-93423821D01*
X102734259Y-91976564D01*
X102705418Y-91831577D01*
X102705417Y-91831576D01*
X102705417Y-91831572D01*
X102705415Y-91831567D01*
X102648846Y-91694996D01*
X102648839Y-91694983D01*
X102566711Y-91572070D01*
X102566710Y-91572069D01*
X102462175Y-91467534D01*
X94760753Y-83766111D01*
X94760752Y-83766110D01*
X94760750Y-83766108D01*
X94711516Y-83733213D01*
X94678692Y-83711281D01*
X94637832Y-83683979D01*
X94637831Y-83683978D01*
X94637829Y-83683977D01*
X94637827Y-83683976D01*
X94501254Y-83627406D01*
X94501244Y-83627403D01*
X94356257Y-83598563D01*
X94356255Y-83598563D01*
X84060797Y-83598563D01*
X83993758Y-83578878D01*
X83959222Y-83545686D01*
X83911590Y-83477660D01*
X83744498Y-83310569D01*
X83744491Y-83310564D01*
X83550930Y-83175030D01*
X83550926Y-83175028D01*
X83479823Y-83141872D01*
X83336759Y-83075160D01*
X83336755Y-83075159D01*
X83336751Y-83075157D01*
X83108509Y-83014001D01*
X83108499Y-83013999D01*
X82873097Y-82993404D01*
X82873095Y-82993404D01*
X82637692Y-83013999D01*
X82637682Y-83014001D01*
X82409440Y-83075157D01*
X82409431Y-83075161D01*
X82195267Y-83175027D01*
X82195265Y-83175028D01*
X82001693Y-83310568D01*
X81834601Y-83477660D01*
X81704671Y-83663221D01*
X81650094Y-83706846D01*
X81580596Y-83714040D01*
X81518241Y-83682517D01*
X81501521Y-83663221D01*
X81371590Y-83477660D01*
X81204498Y-83310569D01*
X81204491Y-83310564D01*
X81010930Y-83175030D01*
X81010926Y-83175028D01*
X80939823Y-83141872D01*
X80796759Y-83075160D01*
X80796755Y-83075159D01*
X80796751Y-83075157D01*
X80568509Y-83014001D01*
X80568499Y-83013999D01*
X80333097Y-82993404D01*
X80333095Y-82993404D01*
X80097692Y-83013999D01*
X80097682Y-83014001D01*
X79869440Y-83075157D01*
X79869431Y-83075161D01*
X79655267Y-83175027D01*
X79655265Y-83175028D01*
X79461693Y-83310568D01*
X79294601Y-83477660D01*
X79164671Y-83663221D01*
X79110094Y-83706846D01*
X79040596Y-83714040D01*
X78978241Y-83682517D01*
X78961521Y-83663221D01*
X78831590Y-83477660D01*
X78664498Y-83310569D01*
X78664491Y-83310564D01*
X78470930Y-83175030D01*
X78470926Y-83175028D01*
X78399823Y-83141872D01*
X78256759Y-83075160D01*
X78256755Y-83075159D01*
X78256751Y-83075157D01*
X78028509Y-83014001D01*
X78028499Y-83013999D01*
X77793097Y-82993404D01*
X77793095Y-82993404D01*
X77557692Y-83013999D01*
X77557682Y-83014001D01*
X77329440Y-83075157D01*
X77329431Y-83075161D01*
X77115267Y-83175027D01*
X77115265Y-83175028D01*
X76921696Y-83310566D01*
X76799380Y-83432882D01*
X76738057Y-83466366D01*
X76668365Y-83461382D01*
X76612432Y-83419510D01*
X76595517Y-83388533D01*
X76546450Y-83256976D01*
X76546446Y-83256969D01*
X76460286Y-83141875D01*
X76460283Y-83141872D01*
X76345189Y-83055712D01*
X76345182Y-83055708D01*
X76210475Y-83005466D01*
X76210468Y-83005464D01*
X76150940Y-82999063D01*
X75503096Y-82999063D01*
X75503096Y-83916051D01*
X75446089Y-83883138D01*
X75318922Y-83849063D01*
X75187270Y-83849063D01*
X75060103Y-83883138D01*
X75003096Y-83916051D01*
X75003096Y-82999063D01*
X74355251Y-82999063D01*
X74295723Y-83005464D01*
X74295716Y-83005466D01*
X74161009Y-83055708D01*
X74161002Y-83055712D01*
X74045908Y-83141872D01*
X74045905Y-83141875D01*
X73959745Y-83256969D01*
X73959741Y-83256976D01*
X73909499Y-83391683D01*
X73909497Y-83391690D01*
X73903096Y-83451218D01*
X73903096Y-84099063D01*
X74820084Y-84099063D01*
X74787171Y-84156070D01*
X74753096Y-84283237D01*
X74753096Y-84414889D01*
X74787171Y-84542056D01*
X74820084Y-84599063D01*
X73903096Y-84599063D01*
X73903096Y-85246907D01*
X73909497Y-85306435D01*
X73909499Y-85306442D01*
X73959741Y-85441149D01*
X73959745Y-85441156D01*
X74045905Y-85556250D01*
X74045908Y-85556253D01*
X74161002Y-85642413D01*
X74161009Y-85642417D01*
X74295716Y-85692659D01*
X74295723Y-85692661D01*
X74355251Y-85699062D01*
X74355268Y-85699063D01*
X75003096Y-85699063D01*
X75003096Y-84782075D01*
X75060103Y-84814988D01*
X75187270Y-84849063D01*
X75318922Y-84849063D01*
X75446089Y-84814988D01*
X75503096Y-84782075D01*
X75503096Y-85699063D01*
X76150924Y-85699063D01*
X76150940Y-85699062D01*
X76210468Y-85692661D01*
X76210475Y-85692659D01*
X76345182Y-85642417D01*
X76345189Y-85642413D01*
X76460283Y-85556253D01*
X76460286Y-85556250D01*
X76546446Y-85441156D01*
X76546450Y-85441149D01*
X76595518Y-85309592D01*
X76637389Y-85253658D01*
X76702853Y-85229241D01*
X76771126Y-85244093D01*
X76799381Y-85265244D01*
X76921695Y-85387558D01*
X76995790Y-85439440D01*
X77115261Y-85523095D01*
X77115263Y-85523096D01*
X77115266Y-85523098D01*
X77329433Y-85622966D01*
X77329439Y-85622967D01*
X77329440Y-85622968D01*
X77360831Y-85631379D01*
X77557688Y-85684126D01*
X77728415Y-85699063D01*
X77793095Y-85704722D01*
X77793096Y-85704722D01*
X77793097Y-85704722D01*
X77857777Y-85699063D01*
X78028504Y-85684126D01*
X78256759Y-85622966D01*
X78470926Y-85523098D01*
X78664497Y-85387558D01*
X78831591Y-85220464D01*
X78961521Y-85034905D01*
X79016098Y-84991280D01*
X79085596Y-84984086D01*
X79147951Y-85015609D01*
X79164671Y-85034905D01*
X79294597Y-85220459D01*
X79294602Y-85220465D01*
X79461691Y-85387555D01*
X79461694Y-85387557D01*
X79461695Y-85387558D01*
X79535793Y-85439441D01*
X79579418Y-85494017D01*
X79588670Y-85541016D01*
X79588670Y-85979814D01*
X79588670Y-85979816D01*
X79588669Y-85979816D01*
X79617510Y-86124803D01*
X79617513Y-86124813D01*
X79674084Y-86261388D01*
X79706982Y-86310623D01*
X79706983Y-86310626D01*
X79756216Y-86384310D01*
X79756222Y-86384317D01*
X85840808Y-92468901D01*
X85945343Y-92573436D01*
X85945344Y-92573437D01*
X86068257Y-92655565D01*
X86068270Y-92655572D01*
X86204841Y-92712141D01*
X86204846Y-92712143D01*
X86204850Y-92712143D01*
X86204851Y-92712144D01*
X86349838Y-92740985D01*
X86349841Y-92740985D01*
X96521529Y-92740985D01*
X96588568Y-92760670D01*
X96609210Y-92777304D01*
X96874959Y-93043053D01*
X96908444Y-93104376D01*
X96903460Y-93174068D01*
X96861588Y-93230001D01*
X96798086Y-93254262D01*
X96677071Y-93264849D01*
X96677061Y-93264851D01*
X96457270Y-93323743D01*
X96457261Y-93323746D01*
X96251026Y-93419916D01*
X96251024Y-93419917D01*
X96064617Y-93550439D01*
X95903713Y-93711343D01*
X95773192Y-93897749D01*
X95773191Y-93897751D01*
X95773074Y-93898003D01*
X95745865Y-93956352D01*
X95699692Y-94008791D01*
X95632498Y-94027942D01*
X95565617Y-94007726D01*
X95521101Y-93956350D01*
X95493894Y-93898005D01*
X95493893Y-93898003D01*
X95363416Y-93711664D01*
X95202579Y-93550827D01*
X95016241Y-93420350D01*
X94810087Y-93324219D01*
X94613759Y-93271612D01*
X94613759Y-94117473D01*
X94556752Y-94084560D01*
X94429585Y-94050485D01*
X94297933Y-94050485D01*
X94170766Y-94084560D01*
X94113759Y-94117473D01*
X94113759Y-93271612D01*
X93917430Y-93324219D01*
X93711276Y-93420350D01*
X93524938Y-93550827D01*
X93364101Y-93711664D01*
X93233624Y-93898002D01*
X93137493Y-94104158D01*
X93137489Y-94104167D01*
X93084886Y-94300484D01*
X93084887Y-94300485D01*
X93930747Y-94300485D01*
X93897834Y-94357492D01*
X93863759Y-94484659D01*
X93863759Y-94616311D01*
X93897834Y-94743478D01*
X93930747Y-94800485D01*
X93084887Y-94800485D01*
X93137489Y-94996802D01*
X93137493Y-94996811D01*
X93233624Y-95202967D01*
X93364101Y-95389305D01*
X93524938Y-95550142D01*
X93711276Y-95680619D01*
X93917432Y-95776750D01*
X93917441Y-95776754D01*
X94113758Y-95829357D01*
X94113759Y-95829356D01*
X94113759Y-94983497D01*
X94170766Y-95016410D01*
X94297933Y-95050485D01*
X94429585Y-95050485D01*
X94556752Y-95016410D01*
X94613759Y-94983497D01*
X94613759Y-95829357D01*
X94810076Y-95776754D01*
X94810085Y-95776750D01*
X95016241Y-95680619D01*
X95202579Y-95550142D01*
X95363416Y-95389305D01*
X95493891Y-95202969D01*
X95521100Y-95144619D01*
X95567272Y-95092180D01*
X95634466Y-95073027D01*
X95701347Y-95093242D01*
X95745864Y-95144617D01*
X95767847Y-95191760D01*
X95773190Y-95203217D01*
X95773191Y-95203219D01*
X95903713Y-95389626D01*
X96064617Y-95550530D01*
X96064620Y-95550532D01*
X96251025Y-95681053D01*
X96457263Y-95777224D01*
X96677067Y-95836120D01*
X96838989Y-95850286D01*
X96903757Y-95855953D01*
X96903759Y-95855953D01*
X96903761Y-95855953D01*
X96960432Y-95850994D01*
X97130451Y-95836120D01*
X97350255Y-95777224D01*
X97556493Y-95681053D01*
X97742898Y-95550532D01*
X97903806Y-95389624D01*
X98034327Y-95203219D01*
X98061377Y-95145209D01*
X98107549Y-95092770D01*
X98174742Y-95073618D01*
X98241624Y-95093833D01*
X98286140Y-95145209D01*
X98300276Y-95175523D01*
X98313188Y-95203213D01*
X98313191Y-95203219D01*
X98443713Y-95389626D01*
X98604618Y-95550531D01*
X98640380Y-95575571D01*
X98684006Y-95630147D01*
X98693259Y-95677147D01*
X98693259Y-96158255D01*
X98673574Y-96225294D01*
X98656940Y-96245936D01*
X93399210Y-101503666D01*
X93337887Y-101537151D01*
X93311529Y-101539985D01*
X75899835Y-101539985D01*
X75871001Y-101545719D01*
X75871002Y-101545720D01*
X75754852Y-101568824D01*
X75754842Y-101568827D01*
X75674840Y-101601964D01*
X75674841Y-101601965D01*
X75618268Y-101625399D01*
X75618251Y-101625408D01*
X75600104Y-101637534D01*
X75495344Y-101707531D01*
X75495337Y-101707537D01*
X68322511Y-108880363D01*
X68322505Y-108880370D01*
X68275695Y-108950427D01*
X68275696Y-108950428D01*
X68240373Y-109003293D01*
X68183802Y-109139867D01*
X68183799Y-109139877D01*
X68154959Y-109284864D01*
X68154959Y-111162444D01*
X68135274Y-111229483D01*
X68102084Y-111264018D01*
X68066322Y-111289059D01*
X67905410Y-111449970D01*
X67774892Y-111636372D01*
X67774891Y-111636374D01*
X67774774Y-111636626D01*
X67747565Y-111694975D01*
X67701392Y-111747414D01*
X67634198Y-111766565D01*
X67567317Y-111746349D01*
X67522801Y-111694973D01*
X67495594Y-111636628D01*
X67495593Y-111636626D01*
X67365116Y-111450287D01*
X67204279Y-111289450D01*
X67017941Y-111158973D01*
X66811787Y-111062842D01*
X66615459Y-111010235D01*
X66615459Y-111856096D01*
X66558452Y-111823183D01*
X66431285Y-111789108D01*
X66299633Y-111789108D01*
X66172466Y-111823183D01*
X66115459Y-111856096D01*
X66115459Y-111010235D01*
X65919130Y-111062842D01*
X65712976Y-111158973D01*
X65526638Y-111289450D01*
X65365801Y-111450287D01*
X65235326Y-111636623D01*
X65208116Y-111694975D01*
X65161943Y-111747414D01*
X65094749Y-111766565D01*
X65027868Y-111746349D01*
X64983352Y-111694973D01*
X64961332Y-111647752D01*
X64956027Y-111636374D01*
X64825506Y-111449969D01*
X64825504Y-111449966D01*
X64664600Y-111289062D01*
X64478193Y-111158540D01*
X64478191Y-111158539D01*
X64271956Y-111062369D01*
X64271947Y-111062366D01*
X64052156Y-111003474D01*
X64052152Y-111003473D01*
X64052151Y-111003473D01*
X64052150Y-111003472D01*
X64052145Y-111003472D01*
X63825461Y-110983640D01*
X63825457Y-110983640D01*
X63598772Y-111003472D01*
X63598761Y-111003474D01*
X63378970Y-111062366D01*
X63378961Y-111062369D01*
X63172726Y-111158539D01*
X63172724Y-111158540D01*
X62986317Y-111289062D01*
X62825413Y-111449966D01*
X62694891Y-111636373D01*
X62694890Y-111636375D01*
X62667841Y-111694383D01*
X62621668Y-111746822D01*
X62554475Y-111765974D01*
X62487594Y-111745758D01*
X62443077Y-111694383D01*
X62416027Y-111636374D01*
X62285506Y-111449969D01*
X62285504Y-111449966D01*
X62124600Y-111289062D01*
X61938193Y-111158540D01*
X61938191Y-111158539D01*
X61731956Y-111062369D01*
X61731947Y-111062366D01*
X61512156Y-111003474D01*
X61512152Y-111003473D01*
X61512151Y-111003473D01*
X61512150Y-111003472D01*
X61512145Y-111003472D01*
X61285461Y-110983640D01*
X61285457Y-110983640D01*
X61058772Y-111003472D01*
X61058761Y-111003474D01*
X60838970Y-111062366D01*
X60838961Y-111062369D01*
X60632726Y-111158539D01*
X60632724Y-111158540D01*
X60446317Y-111289062D01*
X60285413Y-111449966D01*
X60154891Y-111636373D01*
X60154890Y-111636375D01*
X60058720Y-111842610D01*
X60058717Y-111842619D01*
X59999825Y-112062410D01*
X59999823Y-112062421D01*
X59979991Y-112289106D01*
X51161835Y-112289106D01*
X51161835Y-94509106D01*
X62519991Y-94509106D01*
X62519991Y-94509109D01*
X62539823Y-94735794D01*
X62539825Y-94735805D01*
X62598717Y-94955596D01*
X62598720Y-94955605D01*
X62694890Y-95161840D01*
X62694891Y-95161842D01*
X62825413Y-95348249D01*
X62986317Y-95509153D01*
X62986320Y-95509155D01*
X63172725Y-95639676D01*
X63378963Y-95735847D01*
X63598767Y-95794743D01*
X63760689Y-95808909D01*
X63825457Y-95814576D01*
X63825459Y-95814576D01*
X63825461Y-95814576D01*
X63882132Y-95809617D01*
X64052151Y-95794743D01*
X64271955Y-95735847D01*
X64478193Y-95639676D01*
X64664598Y-95509155D01*
X64825506Y-95348247D01*
X64956027Y-95161842D01*
X64983077Y-95103832D01*
X65029249Y-95051393D01*
X65096442Y-95032241D01*
X65163324Y-95052456D01*
X65207841Y-95103833D01*
X65234888Y-95161836D01*
X65234891Y-95161842D01*
X65365413Y-95348249D01*
X65526317Y-95509153D01*
X65526320Y-95509155D01*
X65712725Y-95639676D01*
X65918963Y-95735847D01*
X66138767Y-95794743D01*
X66300689Y-95808909D01*
X66365457Y-95814576D01*
X66365459Y-95814576D01*
X66365461Y-95814576D01*
X66422132Y-95809617D01*
X66592151Y-95794743D01*
X66811955Y-95735847D01*
X67018193Y-95639676D01*
X67204598Y-95509155D01*
X67365506Y-95348247D01*
X67496027Y-95161842D01*
X67523077Y-95103832D01*
X67569249Y-95051393D01*
X67636442Y-95032241D01*
X67703324Y-95052456D01*
X67747841Y-95103833D01*
X67774888Y-95161836D01*
X67774891Y-95161842D01*
X67905413Y-95348249D01*
X68066317Y-95509153D01*
X68066320Y-95509155D01*
X68252725Y-95639676D01*
X68458963Y-95735847D01*
X68678767Y-95794743D01*
X68840689Y-95808909D01*
X68905457Y-95814576D01*
X68905459Y-95814576D01*
X68905461Y-95814576D01*
X68962132Y-95809617D01*
X69132151Y-95794743D01*
X69351955Y-95735847D01*
X69558193Y-95639676D01*
X69744598Y-95509155D01*
X69905506Y-95348247D01*
X70036027Y-95161842D01*
X70063077Y-95103832D01*
X70109249Y-95051393D01*
X70176442Y-95032241D01*
X70243324Y-95052456D01*
X70287841Y-95103833D01*
X70314888Y-95161836D01*
X70314891Y-95161842D01*
X70445413Y-95348249D01*
X70606317Y-95509153D01*
X70606320Y-95509155D01*
X70792725Y-95639676D01*
X70998963Y-95735847D01*
X71218767Y-95794743D01*
X71380689Y-95808909D01*
X71445457Y-95814576D01*
X71445459Y-95814576D01*
X71445461Y-95814576D01*
X71502132Y-95809617D01*
X71672151Y-95794743D01*
X71891955Y-95735847D01*
X72098193Y-95639676D01*
X72284598Y-95509155D01*
X72445506Y-95348247D01*
X72576027Y-95161842D01*
X72672198Y-94955604D01*
X72731094Y-94735800D01*
X72750927Y-94509108D01*
X72731094Y-94282416D01*
X72672198Y-94062612D01*
X72576027Y-93856374D01*
X72445506Y-93669969D01*
X72445504Y-93669966D01*
X72284600Y-93509062D01*
X72098193Y-93378540D01*
X72098191Y-93378539D01*
X71891956Y-93282369D01*
X71891947Y-93282366D01*
X71672156Y-93223474D01*
X71672152Y-93223473D01*
X71672151Y-93223473D01*
X71672150Y-93223472D01*
X71672145Y-93223472D01*
X71445461Y-93203640D01*
X71445457Y-93203640D01*
X71218772Y-93223472D01*
X71218761Y-93223474D01*
X70998970Y-93282366D01*
X70998961Y-93282369D01*
X70792726Y-93378539D01*
X70792724Y-93378540D01*
X70606317Y-93509062D01*
X70445413Y-93669966D01*
X70314891Y-93856373D01*
X70314890Y-93856375D01*
X70287841Y-93914383D01*
X70241668Y-93966822D01*
X70174475Y-93985974D01*
X70107594Y-93965758D01*
X70063077Y-93914383D01*
X70055439Y-93898003D01*
X70036027Y-93856374D01*
X69905506Y-93669969D01*
X69905504Y-93669966D01*
X69744600Y-93509062D01*
X69558193Y-93378540D01*
X69558191Y-93378539D01*
X69351956Y-93282369D01*
X69351947Y-93282366D01*
X69132156Y-93223474D01*
X69132152Y-93223473D01*
X69132151Y-93223473D01*
X69132150Y-93223472D01*
X69132145Y-93223472D01*
X68905461Y-93203640D01*
X68905457Y-93203640D01*
X68678772Y-93223472D01*
X68678761Y-93223474D01*
X68458970Y-93282366D01*
X68458961Y-93282369D01*
X68252726Y-93378539D01*
X68252724Y-93378540D01*
X68066317Y-93509062D01*
X67905413Y-93669966D01*
X67774891Y-93856373D01*
X67774890Y-93856375D01*
X67747841Y-93914383D01*
X67701668Y-93966822D01*
X67634475Y-93985974D01*
X67567594Y-93965758D01*
X67523077Y-93914383D01*
X67515439Y-93898003D01*
X67496027Y-93856374D01*
X67365506Y-93669969D01*
X67365504Y-93669966D01*
X67204600Y-93509062D01*
X67018193Y-93378540D01*
X67018191Y-93378539D01*
X66811956Y-93282369D01*
X66811947Y-93282366D01*
X66592156Y-93223474D01*
X66592152Y-93223473D01*
X66592151Y-93223473D01*
X66592150Y-93223472D01*
X66592145Y-93223472D01*
X66365461Y-93203640D01*
X66365457Y-93203640D01*
X66138772Y-93223472D01*
X66138761Y-93223474D01*
X65918970Y-93282366D01*
X65918961Y-93282369D01*
X65712726Y-93378539D01*
X65712724Y-93378540D01*
X65526317Y-93509062D01*
X65365413Y-93669966D01*
X65234891Y-93856373D01*
X65234890Y-93856375D01*
X65207841Y-93914383D01*
X65161668Y-93966822D01*
X65094475Y-93985974D01*
X65027594Y-93965758D01*
X64983077Y-93914383D01*
X64975439Y-93898003D01*
X64956027Y-93856374D01*
X64825506Y-93669969D01*
X64825504Y-93669966D01*
X64664600Y-93509062D01*
X64478193Y-93378540D01*
X64478191Y-93378539D01*
X64271956Y-93282369D01*
X64271947Y-93282366D01*
X64052156Y-93223474D01*
X64052152Y-93223473D01*
X64052151Y-93223473D01*
X64052150Y-93223472D01*
X64052145Y-93223472D01*
X63825461Y-93203640D01*
X63825457Y-93203640D01*
X63598772Y-93223472D01*
X63598761Y-93223474D01*
X63378970Y-93282366D01*
X63378961Y-93282369D01*
X63172726Y-93378539D01*
X63172724Y-93378540D01*
X62986317Y-93509062D01*
X62825413Y-93669966D01*
X62694891Y-93856373D01*
X62694890Y-93856375D01*
X62598720Y-94062610D01*
X62598717Y-94062619D01*
X62539825Y-94282410D01*
X62539823Y-94282421D01*
X62519991Y-94509106D01*
X51161835Y-94509106D01*
X51161835Y-55542640D01*
X57373759Y-55542640D01*
X57373759Y-56240485D01*
X58340747Y-56240485D01*
X58307834Y-56297492D01*
X58273759Y-56424659D01*
X58273759Y-56556311D01*
X58307834Y-56683478D01*
X58340747Y-56740485D01*
X57373759Y-56740485D01*
X57373759Y-57438329D01*
X57380160Y-57497857D01*
X57380162Y-57497864D01*
X57430404Y-57632571D01*
X57430408Y-57632578D01*
X57516568Y-57747672D01*
X57516571Y-57747675D01*
X57631665Y-57833835D01*
X57631672Y-57833839D01*
X57766379Y-57884081D01*
X57766386Y-57884083D01*
X57825914Y-57890484D01*
X57825931Y-57890485D01*
X58523759Y-57890485D01*
X58523759Y-56923497D01*
X58580766Y-56956410D01*
X58707933Y-56990485D01*
X58839585Y-56990485D01*
X58966752Y-56956410D01*
X59023759Y-56923497D01*
X59023759Y-57890485D01*
X59721587Y-57890485D01*
X59721603Y-57890484D01*
X59781131Y-57884083D01*
X59781138Y-57884081D01*
X59915845Y-57833839D01*
X59915852Y-57833835D01*
X60030946Y-57747675D01*
X60030949Y-57747672D01*
X60117109Y-57632578D01*
X60117112Y-57632573D01*
X60135437Y-57583440D01*
X60177308Y-57527505D01*
X60242772Y-57503087D01*
X60311045Y-57517938D01*
X60327782Y-57528918D01*
X60505124Y-57666949D01*
X60505130Y-57666953D01*
X60505133Y-57666955D01*
X60709256Y-57777421D01*
X60819492Y-57815265D01*
X60928774Y-57852782D01*
X60928776Y-57852782D01*
X60928778Y-57852783D01*
X61157710Y-57890985D01*
X61157711Y-57890985D01*
X61389807Y-57890985D01*
X61389808Y-57890985D01*
X61618740Y-57852783D01*
X61838262Y-57777421D01*
X62042385Y-57666955D01*
X62225543Y-57524398D01*
X62382738Y-57353638D01*
X62399682Y-57327704D01*
X62419950Y-57296681D01*
X62473096Y-57251324D01*
X62542328Y-57241900D01*
X62605663Y-57271402D01*
X62627568Y-57296681D01*
X62664775Y-57353632D01*
X62664778Y-57353636D01*
X62664780Y-57353638D01*
X62821975Y-57524398D01*
X62821978Y-57524400D01*
X62821981Y-57524403D01*
X63005124Y-57666949D01*
X63005130Y-57666953D01*
X63005133Y-57666955D01*
X63209256Y-57777421D01*
X63319492Y-57815265D01*
X63428774Y-57852782D01*
X63428776Y-57852782D01*
X63428778Y-57852783D01*
X63657710Y-57890985D01*
X63657711Y-57890985D01*
X63889807Y-57890985D01*
X63889808Y-57890985D01*
X64118740Y-57852783D01*
X64338262Y-57777421D01*
X64542385Y-57666955D01*
X64725543Y-57524398D01*
X64882738Y-57353638D01*
X65009683Y-57159334D01*
X65102916Y-56946785D01*
X65159893Y-56721790D01*
X65179059Y-56490485D01*
X65179059Y-56490478D01*
X65159894Y-56259187D01*
X65159892Y-56259176D01*
X65102916Y-56034184D01*
X65009683Y-55821636D01*
X64882742Y-55627337D01*
X64882739Y-55627334D01*
X64882738Y-55627332D01*
X64725543Y-55456572D01*
X64725538Y-55456568D01*
X64725536Y-55456566D01*
X64542393Y-55314020D01*
X64542387Y-55314016D01*
X64338263Y-55203549D01*
X64338254Y-55203546D01*
X64118743Y-55128187D01*
X63995285Y-55107586D01*
X63932400Y-55077135D01*
X63895960Y-55017521D01*
X63897536Y-54947669D01*
X63928012Y-54897598D01*
X64098307Y-54727304D01*
X64159630Y-54693819D01*
X64185988Y-54690985D01*
X87878341Y-54690985D01*
X87945380Y-54710670D01*
X87978659Y-54742100D01*
X88011787Y-54787697D01*
X88011791Y-54787702D01*
X88156545Y-54932456D01*
X88311508Y-55045041D01*
X88322149Y-55052772D01*
X88408731Y-55096888D01*
X88414839Y-55100000D01*
X88465635Y-55147975D01*
X88482430Y-55215796D01*
X88459893Y-55281931D01*
X88414839Y-55320970D01*
X88322145Y-55368200D01*
X88156545Y-55488513D01*
X88156541Y-55488517D01*
X88101393Y-55543666D01*
X88040070Y-55577151D01*
X88013712Y-55579985D01*
X73859839Y-55579985D01*
X73714851Y-55608825D01*
X73714841Y-55608828D01*
X73578270Y-55665397D01*
X73578257Y-55665404D01*
X73455343Y-55747533D01*
X73455339Y-55747536D01*
X58140809Y-71062065D01*
X58140803Y-71062073D01*
X58091571Y-71135753D01*
X58091572Y-71135754D01*
X58058680Y-71184981D01*
X58058673Y-71184993D01*
X58002101Y-71321571D01*
X58002099Y-71321577D01*
X57973259Y-71466564D01*
X57973259Y-83360211D01*
X57953574Y-83427250D01*
X57920384Y-83461784D01*
X57909148Y-83469651D01*
X57909141Y-83469657D01*
X57752931Y-83625866D01*
X57626225Y-83806823D01*
X57626224Y-83806825D01*
X57532866Y-84007033D01*
X57532863Y-84007039D01*
X57475689Y-84220414D01*
X57475688Y-84220422D01*
X57456436Y-84440482D01*
X57456436Y-84440487D01*
X57475688Y-84660547D01*
X57475689Y-84660555D01*
X57532863Y-84873930D01*
X57532864Y-84873932D01*
X57532865Y-84873935D01*
X57604190Y-85026893D01*
X57626225Y-85074147D01*
X57626227Y-85074151D01*
X57752929Y-85255100D01*
X57752934Y-85255106D01*
X57909137Y-85411309D01*
X57909143Y-85411314D01*
X58090092Y-85538016D01*
X58090094Y-85538017D01*
X58090097Y-85538019D01*
X58290309Y-85631379D01*
X58503691Y-85688555D01*
X58660882Y-85702307D01*
X58723757Y-85707808D01*
X58723759Y-85707808D01*
X58723761Y-85707808D01*
X58778776Y-85702994D01*
X58943827Y-85688555D01*
X59157209Y-85631379D01*
X59357421Y-85538019D01*
X59538379Y-85411311D01*
X59694585Y-85255105D01*
X59821293Y-85074147D01*
X59881653Y-84944703D01*
X59927825Y-84892264D01*
X59995018Y-84873112D01*
X60061900Y-84893328D01*
X60106417Y-84944704D01*
X60166657Y-85073890D01*
X60166660Y-85073896D01*
X60212017Y-85138672D01*
X60212017Y-85138673D01*
X60882759Y-84467931D01*
X60882759Y-84490645D01*
X60908723Y-84587546D01*
X60958883Y-84674425D01*
X61029819Y-84745361D01*
X61116698Y-84795521D01*
X61213599Y-84821485D01*
X61236312Y-84821485D01*
X60565569Y-85492225D01*
X60630349Y-85537584D01*
X60630351Y-85537585D01*
X60830474Y-85630904D01*
X60830488Y-85630909D01*
X61043772Y-85688058D01*
X61043782Y-85688060D01*
X61263758Y-85707306D01*
X61263760Y-85707306D01*
X61483735Y-85688060D01*
X61483745Y-85688058D01*
X61697029Y-85630909D01*
X61697043Y-85630904D01*
X61897166Y-85537585D01*
X61897176Y-85537579D01*
X61961947Y-85492226D01*
X61291207Y-84821485D01*
X61313919Y-84821485D01*
X61410820Y-84795521D01*
X61497699Y-84745361D01*
X61568635Y-84674425D01*
X61618795Y-84587546D01*
X61644759Y-84490645D01*
X61644759Y-84467932D01*
X62315500Y-85138673D01*
X62360853Y-85073902D01*
X62360854Y-85073901D01*
X62421099Y-84944704D01*
X62467271Y-84892265D01*
X62534465Y-84873112D01*
X62601346Y-84893327D01*
X62645864Y-84944703D01*
X62706225Y-85074147D01*
X62706227Y-85074151D01*
X62832929Y-85255100D01*
X62832934Y-85255106D01*
X62989137Y-85411309D01*
X62989143Y-85411314D01*
X63170092Y-85538016D01*
X63170094Y-85538017D01*
X63170097Y-85538019D01*
X63370309Y-85631379D01*
X63583691Y-85688555D01*
X63740882Y-85702307D01*
X63803757Y-85707808D01*
X63803759Y-85707808D01*
X63803761Y-85707808D01*
X63858776Y-85702994D01*
X64023827Y-85688555D01*
X64237209Y-85631379D01*
X64437421Y-85538019D01*
X64618379Y-85411311D01*
X64774585Y-85255105D01*
X64901293Y-85074147D01*
X64994653Y-84873935D01*
X65051829Y-84660553D01*
X65071082Y-84440485D01*
X65051829Y-84220417D01*
X64994653Y-84007035D01*
X64901293Y-83806824D01*
X64815275Y-83683977D01*
X64774586Y-83625866D01*
X64727598Y-83578878D01*
X64618379Y-83469659D01*
X64618375Y-83469656D01*
X64618374Y-83469655D01*
X64437425Y-83342953D01*
X64437421Y-83342951D01*
X64367975Y-83310568D01*
X64237209Y-83249591D01*
X64237206Y-83249590D01*
X64237204Y-83249589D01*
X64023829Y-83192415D01*
X64023821Y-83192414D01*
X63803761Y-83173162D01*
X63803757Y-83173162D01*
X63583696Y-83192414D01*
X63583688Y-83192415D01*
X63370313Y-83249589D01*
X63370307Y-83249592D01*
X63170099Y-83342950D01*
X63170097Y-83342951D01*
X62989136Y-83469660D01*
X62832934Y-83625862D01*
X62706226Y-83806822D01*
X62645864Y-83936267D01*
X62599691Y-83988706D01*
X62532497Y-84007857D01*
X62465616Y-83987641D01*
X62421100Y-83936265D01*
X62360857Y-83807074D01*
X62360856Y-83807072D01*
X62315500Y-83742296D01*
X62315499Y-83742295D01*
X61644759Y-84413036D01*
X61644759Y-84390325D01*
X61618795Y-84293424D01*
X61568635Y-84206545D01*
X61497699Y-84135609D01*
X61410820Y-84085449D01*
X61313919Y-84059485D01*
X61291206Y-84059485D01*
X61961947Y-83388743D01*
X61897170Y-83343386D01*
X61897164Y-83343383D01*
X61697043Y-83250065D01*
X61697029Y-83250060D01*
X61483745Y-83192911D01*
X61483735Y-83192909D01*
X61263760Y-83173664D01*
X61263758Y-83173664D01*
X61043782Y-83192909D01*
X61043772Y-83192911D01*
X60830488Y-83250060D01*
X60830479Y-83250064D01*
X60630349Y-83343386D01*
X60565570Y-83388743D01*
X61236313Y-84059485D01*
X61213599Y-84059485D01*
X61116698Y-84085449D01*
X61029819Y-84135609D01*
X60958883Y-84206545D01*
X60908723Y-84293424D01*
X60882759Y-84390325D01*
X60882759Y-84413038D01*
X60212017Y-83742296D01*
X60166660Y-83807075D01*
X60106417Y-83936266D01*
X60060244Y-83988705D01*
X59993051Y-84007857D01*
X59926170Y-83987641D01*
X59881653Y-83936266D01*
X59856879Y-83883138D01*
X59821293Y-83806824D01*
X59735275Y-83683977D01*
X59694586Y-83625866D01*
X59647598Y-83578878D01*
X59538379Y-83469659D01*
X59538375Y-83469656D01*
X59538369Y-83469651D01*
X59527134Y-83461784D01*
X59483510Y-83407207D01*
X59474259Y-83360211D01*
X59474259Y-71902714D01*
X59493944Y-71835675D01*
X59510578Y-71815033D01*
X64635129Y-66690482D01*
X72663130Y-66690482D01*
X72663130Y-66690487D01*
X72682954Y-66917084D01*
X72682956Y-66917095D01*
X72741826Y-67136802D01*
X72741831Y-67136816D01*
X72837959Y-67342963D01*
X72889070Y-67415957D01*
X73568096Y-66736931D01*
X73568096Y-66743146D01*
X73595355Y-66844879D01*
X73648016Y-66936091D01*
X73722490Y-67010565D01*
X73813702Y-67063226D01*
X73915435Y-67090485D01*
X73921649Y-67090485D01*
X73242622Y-67769510D01*
X73315609Y-67820617D01*
X73315617Y-67820621D01*
X73521764Y-67916749D01*
X73521778Y-67916754D01*
X73741485Y-67975624D01*
X73741496Y-67975626D01*
X73968094Y-67995451D01*
X73968098Y-67995451D01*
X74194695Y-67975626D01*
X74194706Y-67975624D01*
X74414413Y-67916754D01*
X74414427Y-67916749D01*
X74620574Y-67820621D01*
X74693567Y-67769509D01*
X74014543Y-67090485D01*
X74020757Y-67090485D01*
X74122490Y-67063226D01*
X74213702Y-67010565D01*
X74288176Y-66936091D01*
X74340837Y-66844879D01*
X74368096Y-66743146D01*
X74368096Y-66736932D01*
X75047120Y-67415956D01*
X75098232Y-67342963D01*
X75194360Y-67136816D01*
X75194365Y-67136802D01*
X75253235Y-66917095D01*
X75253237Y-66917084D01*
X75273062Y-66690487D01*
X75273062Y-66690482D01*
X75253237Y-66463885D01*
X75253235Y-66463874D01*
X75194365Y-66244167D01*
X75194360Y-66244153D01*
X75098232Y-66038006D01*
X75098228Y-66037998D01*
X75047121Y-65965011D01*
X74368096Y-66644036D01*
X74368096Y-66637824D01*
X74340837Y-66536091D01*
X74288176Y-66444879D01*
X74213702Y-66370405D01*
X74122490Y-66317744D01*
X74020757Y-66290485D01*
X74014541Y-66290485D01*
X74693568Y-65611459D01*
X74620574Y-65560348D01*
X74414427Y-65464220D01*
X74414413Y-65464215D01*
X74194706Y-65405345D01*
X74194695Y-65405343D01*
X73968098Y-65385519D01*
X73968094Y-65385519D01*
X73741496Y-65405343D01*
X73741485Y-65405345D01*
X73521778Y-65464215D01*
X73521769Y-65464219D01*
X73315612Y-65560351D01*
X73315608Y-65560353D01*
X73242622Y-65611458D01*
X73242622Y-65611459D01*
X73921649Y-66290485D01*
X73915435Y-66290485D01*
X73813702Y-66317744D01*
X73722490Y-66370405D01*
X73648016Y-66444879D01*
X73595355Y-66536091D01*
X73568096Y-66637824D01*
X73568096Y-66644037D01*
X72889070Y-65965011D01*
X72889069Y-65965011D01*
X72837964Y-66037997D01*
X72837962Y-66038001D01*
X72741830Y-66244158D01*
X72741826Y-66244167D01*
X72682956Y-66463874D01*
X72682954Y-66463885D01*
X72663130Y-66690482D01*
X64635129Y-66690482D01*
X74208307Y-57117304D01*
X74269630Y-57083819D01*
X74295988Y-57080985D01*
X87774157Y-57080985D01*
X87841196Y-57100670D01*
X87884642Y-57148690D01*
X87891474Y-57162099D01*
X88011787Y-57327698D01*
X88156545Y-57472456D01*
X88309304Y-57583440D01*
X88322149Y-57592772D01*
X88400259Y-57632571D01*
X88414839Y-57640000D01*
X88465635Y-57687975D01*
X88482430Y-57755796D01*
X88459893Y-57821931D01*
X88414839Y-57860970D01*
X88322145Y-57908200D01*
X88156545Y-58028513D01*
X88011791Y-58173267D01*
X88011787Y-58173272D01*
X88000455Y-58188870D01*
X87945125Y-58231536D01*
X87900137Y-58239985D01*
X81664176Y-58239985D01*
X81519188Y-58268825D01*
X81519178Y-58268828D01*
X81382605Y-58325398D01*
X81382600Y-58325401D01*
X81362435Y-58338874D01*
X81362436Y-58338875D01*
X81259675Y-58407536D01*
X79363444Y-60303767D01*
X79302121Y-60337252D01*
X79264957Y-60339614D01*
X79098099Y-60325017D01*
X79098094Y-60325017D01*
X78871409Y-60344849D01*
X78871398Y-60344851D01*
X78651607Y-60403743D01*
X78651598Y-60403746D01*
X78445363Y-60499916D01*
X78445361Y-60499917D01*
X78258954Y-60630439D01*
X78098050Y-60791343D01*
X77967528Y-60977750D01*
X77967527Y-60977752D01*
X77940478Y-61035760D01*
X77894305Y-61088199D01*
X77827112Y-61107351D01*
X77760231Y-61087135D01*
X77715714Y-61035760D01*
X77688664Y-60977752D01*
X77688663Y-60977750D01*
X77631004Y-60895404D01*
X77558143Y-60791346D01*
X77558141Y-60791343D01*
X77397237Y-60630439D01*
X77210830Y-60499917D01*
X77210828Y-60499916D01*
X77004593Y-60403746D01*
X77004584Y-60403743D01*
X76784793Y-60344851D01*
X76784789Y-60344850D01*
X76784788Y-60344850D01*
X76784787Y-60344849D01*
X76784782Y-60344849D01*
X76558098Y-60325017D01*
X76558094Y-60325017D01*
X76331409Y-60344849D01*
X76331398Y-60344851D01*
X76111607Y-60403743D01*
X76111598Y-60403746D01*
X75905363Y-60499916D01*
X75905361Y-60499917D01*
X75718954Y-60630439D01*
X75558050Y-60791343D01*
X75427528Y-60977750D01*
X75427527Y-60977752D01*
X75331357Y-61183987D01*
X75331354Y-61183996D01*
X75272462Y-61403787D01*
X75272460Y-61403798D01*
X75252628Y-61630483D01*
X75252628Y-61630486D01*
X75272460Y-61857171D01*
X75272462Y-61857182D01*
X75331354Y-62076973D01*
X75331357Y-62076982D01*
X75427527Y-62283217D01*
X75427528Y-62283219D01*
X75558050Y-62469626D01*
X75718954Y-62630530D01*
X75718957Y-62630532D01*
X75905362Y-62761053D01*
X76111600Y-62857224D01*
X76331404Y-62916120D01*
X76493326Y-62930286D01*
X76558094Y-62935953D01*
X76558096Y-62935953D01*
X76558098Y-62935953D01*
X76614769Y-62930994D01*
X76784788Y-62916120D01*
X77004592Y-62857224D01*
X77210830Y-62761053D01*
X77397235Y-62630532D01*
X77558143Y-62469624D01*
X77688664Y-62283219D01*
X77715714Y-62225209D01*
X77761886Y-62172770D01*
X77829079Y-62153618D01*
X77895961Y-62173833D01*
X77940477Y-62225209D01*
X77948353Y-62242098D01*
X77967525Y-62283213D01*
X77967528Y-62283219D01*
X78098050Y-62469626D01*
X78258954Y-62630530D01*
X78258957Y-62630532D01*
X78445362Y-62761053D01*
X78651600Y-62857224D01*
X78871404Y-62916120D01*
X79033326Y-62930286D01*
X79098094Y-62935953D01*
X79098096Y-62935953D01*
X79098097Y-62935953D01*
X79118158Y-62934197D01*
X79264957Y-62921354D01*
X79333455Y-62935120D01*
X79363444Y-62957201D01*
X80801277Y-64395034D01*
X80834762Y-64456357D01*
X80837596Y-64482715D01*
X80837596Y-65563821D01*
X80817911Y-65630860D01*
X80784721Y-65665395D01*
X80748959Y-65690436D01*
X80588047Y-65851347D01*
X80457528Y-66037750D01*
X80457527Y-66037752D01*
X80361357Y-66243987D01*
X80361354Y-66243996D01*
X80302462Y-66463787D01*
X80302460Y-66463798D01*
X80282628Y-66690483D01*
X80282628Y-66690486D01*
X80302460Y-66917171D01*
X80302462Y-66917182D01*
X80361354Y-67136973D01*
X80361357Y-67136982D01*
X80457527Y-67343217D01*
X80457528Y-67343219D01*
X80588050Y-67529626D01*
X80748954Y-67690530D01*
X80748957Y-67690532D01*
X80935362Y-67821053D01*
X81141600Y-67917224D01*
X81361404Y-67976120D01*
X81523326Y-67990286D01*
X81588094Y-67995953D01*
X81588096Y-67995953D01*
X81588098Y-67995953D01*
X81644769Y-67990994D01*
X81814788Y-67976120D01*
X82034592Y-67917224D01*
X82240830Y-67821053D01*
X82427235Y-67690532D01*
X82588143Y-67529624D01*
X82718664Y-67343219D01*
X82814835Y-67136981D01*
X82873731Y-66917177D01*
X82893564Y-66690485D01*
X82873731Y-66463793D01*
X82814835Y-66243989D01*
X82718664Y-66037751D01*
X82588143Y-65851346D01*
X82427235Y-65690438D01*
X82419517Y-65685034D01*
X82391471Y-65665395D01*
X82347847Y-65610817D01*
X82338596Y-65563821D01*
X82338596Y-64046564D01*
X82309755Y-63901577D01*
X82309754Y-63901576D01*
X82309754Y-63901572D01*
X82253180Y-63764990D01*
X82202290Y-63688827D01*
X82202290Y-63688826D01*
X82171046Y-63642066D01*
X82171043Y-63642063D01*
X80424812Y-61895833D01*
X80391327Y-61834510D01*
X80388965Y-61797348D01*
X80403564Y-61630485D01*
X80388965Y-61463622D01*
X80402731Y-61395124D01*
X80424809Y-61365138D01*
X82012645Y-59777304D01*
X82073968Y-59743819D01*
X82100326Y-59740985D01*
X87856546Y-59740985D01*
X87923585Y-59760670D01*
X87956865Y-59792101D01*
X88011789Y-59867700D01*
X88156545Y-60012456D01*
X88311508Y-60125041D01*
X88322149Y-60132772D01*
X88413599Y-60179368D01*
X88414839Y-60180000D01*
X88465635Y-60227975D01*
X88482430Y-60295796D01*
X88459893Y-60361931D01*
X88414839Y-60400970D01*
X88322145Y-60448200D01*
X88156545Y-60568513D01*
X88011791Y-60713267D01*
X88011787Y-60713272D01*
X87978659Y-60758870D01*
X87923330Y-60801536D01*
X87878341Y-60809985D01*
X86769839Y-60809985D01*
X86624851Y-60838825D01*
X86624841Y-60838828D01*
X86488270Y-60895397D01*
X86488257Y-60895404D01*
X86365343Y-60977533D01*
X86365339Y-60977536D01*
X83810811Y-63532063D01*
X83810805Y-63532070D01*
X83764571Y-63601265D01*
X83764572Y-63601266D01*
X83728672Y-63654993D01*
X83672102Y-63791567D01*
X83672099Y-63791577D01*
X83643259Y-63936564D01*
X83643259Y-71478255D01*
X83623574Y-71545294D01*
X83606940Y-71565936D01*
X81760632Y-73412244D01*
X81699309Y-73445729D01*
X81672951Y-73448563D01*
X81520797Y-73448563D01*
X81453758Y-73428878D01*
X81419222Y-73395686D01*
X81371590Y-73327660D01*
X81204498Y-73160569D01*
X81204491Y-73160564D01*
X81010930Y-73025030D01*
X81010926Y-73025028D01*
X80948238Y-72995796D01*
X80796759Y-72925160D01*
X80796755Y-72925159D01*
X80796751Y-72925157D01*
X80568509Y-72864001D01*
X80568499Y-72863999D01*
X80333097Y-72843404D01*
X80333095Y-72843404D01*
X80097692Y-72863999D01*
X80097682Y-72864001D01*
X79869440Y-72925157D01*
X79869431Y-72925161D01*
X79655267Y-73025027D01*
X79655265Y-73025028D01*
X79461693Y-73160568D01*
X79294601Y-73327660D01*
X79164671Y-73513221D01*
X79110094Y-73556846D01*
X79040596Y-73564040D01*
X78978241Y-73532517D01*
X78961521Y-73513221D01*
X78831590Y-73327660D01*
X78664498Y-73160569D01*
X78664491Y-73160564D01*
X78470930Y-73025030D01*
X78470926Y-73025028D01*
X78408238Y-72995796D01*
X78256759Y-72925160D01*
X78256755Y-72925159D01*
X78256751Y-72925157D01*
X78028509Y-72864001D01*
X78028499Y-72863999D01*
X77793097Y-72843404D01*
X77793095Y-72843404D01*
X77557692Y-72863999D01*
X77557682Y-72864001D01*
X77329440Y-72925157D01*
X77329431Y-72925161D01*
X77115267Y-73025027D01*
X77115265Y-73025028D01*
X76921696Y-73160566D01*
X76799380Y-73282882D01*
X76738057Y-73316366D01*
X76668365Y-73311382D01*
X76612432Y-73269510D01*
X76595517Y-73238533D01*
X76546450Y-73106976D01*
X76546446Y-73106969D01*
X76460286Y-72991875D01*
X76460283Y-72991872D01*
X76345189Y-72905712D01*
X76345182Y-72905708D01*
X76210475Y-72855466D01*
X76210468Y-72855464D01*
X76150940Y-72849063D01*
X75503096Y-72849063D01*
X75503096Y-73766051D01*
X75446089Y-73733138D01*
X75318922Y-73699063D01*
X75187270Y-73699063D01*
X75060103Y-73733138D01*
X75003096Y-73766051D01*
X75003096Y-72849063D01*
X74355251Y-72849063D01*
X74295723Y-72855464D01*
X74295716Y-72855466D01*
X74161009Y-72905708D01*
X74161002Y-72905712D01*
X74045908Y-72991872D01*
X74045905Y-72991875D01*
X73959745Y-73106969D01*
X73959741Y-73106976D01*
X73909499Y-73241683D01*
X73909497Y-73241690D01*
X73903096Y-73301218D01*
X73903096Y-73949063D01*
X74820084Y-73949063D01*
X74787171Y-74006070D01*
X74753096Y-74133237D01*
X74753096Y-74264889D01*
X74787171Y-74392056D01*
X74820084Y-74449063D01*
X73903096Y-74449063D01*
X73903096Y-75096907D01*
X73909497Y-75156435D01*
X73909499Y-75156442D01*
X73959741Y-75291149D01*
X73959745Y-75291156D01*
X74045905Y-75406250D01*
X74045908Y-75406253D01*
X74161002Y-75492413D01*
X74161009Y-75492417D01*
X74295716Y-75542659D01*
X74295723Y-75542661D01*
X74355251Y-75549062D01*
X74355268Y-75549063D01*
X75003096Y-75549063D01*
X75003096Y-74632075D01*
X75060103Y-74664988D01*
X75187270Y-74699063D01*
X75318922Y-74699063D01*
X75446089Y-74664988D01*
X75503096Y-74632075D01*
X75503096Y-75549063D01*
X76150924Y-75549063D01*
X76150940Y-75549062D01*
X76210468Y-75542661D01*
X76210475Y-75542659D01*
X76345182Y-75492417D01*
X76345189Y-75492413D01*
X76460283Y-75406253D01*
X76460286Y-75406250D01*
X76546446Y-75291156D01*
X76546450Y-75291149D01*
X76595518Y-75159592D01*
X76637389Y-75103658D01*
X76702853Y-75079241D01*
X76771126Y-75094093D01*
X76799381Y-75115244D01*
X76921695Y-75237558D01*
X76942972Y-75252456D01*
X77115261Y-75373095D01*
X77115263Y-75373096D01*
X77115266Y-75373098D01*
X77329433Y-75472966D01*
X77557688Y-75534126D01*
X77728415Y-75549063D01*
X77793095Y-75554722D01*
X77793096Y-75554722D01*
X77793097Y-75554722D01*
X77857777Y-75549063D01*
X78028504Y-75534126D01*
X78256759Y-75472966D01*
X78470926Y-75373098D01*
X78664497Y-75237558D01*
X78831591Y-75070464D01*
X78961521Y-74884905D01*
X79016098Y-74841280D01*
X79085596Y-74834086D01*
X79147951Y-74865609D01*
X79164671Y-74884905D01*
X79294601Y-75070464D01*
X79461695Y-75237558D01*
X79482972Y-75252456D01*
X79655261Y-75373095D01*
X79655263Y-75373096D01*
X79655266Y-75373098D01*
X79869433Y-75472966D01*
X80097688Y-75534126D01*
X80268415Y-75549063D01*
X80333095Y-75554722D01*
X80333096Y-75554722D01*
X80333097Y-75554722D01*
X80397777Y-75549063D01*
X80568504Y-75534126D01*
X80796759Y-75472966D01*
X81010926Y-75373098D01*
X81204497Y-75237558D01*
X81371591Y-75070464D01*
X81419223Y-75002439D01*
X81473800Y-74958814D01*
X81520797Y-74949563D01*
X82109101Y-74949563D01*
X82206643Y-74930159D01*
X82254094Y-74920721D01*
X82390676Y-74864147D01*
X82439910Y-74831249D01*
X82513597Y-74782015D01*
X84976711Y-72318901D01*
X85042991Y-72219704D01*
X85058843Y-72195980D01*
X85115417Y-72059398D01*
X85144259Y-71914403D01*
X85144259Y-64372714D01*
X85163944Y-64305675D01*
X85180578Y-64285033D01*
X87118307Y-62347304D01*
X87179630Y-62313819D01*
X87205988Y-62310985D01*
X87878341Y-62310985D01*
X87945380Y-62330670D01*
X87978659Y-62362100D01*
X88011787Y-62407697D01*
X88011791Y-62407702D01*
X88156545Y-62552456D01*
X88264007Y-62630530D01*
X88322149Y-62672772D01*
X88413599Y-62719368D01*
X88414839Y-62720000D01*
X88465635Y-62767975D01*
X88482430Y-62835796D01*
X88459893Y-62901931D01*
X88414839Y-62940970D01*
X88322145Y-62988200D01*
X88156545Y-63108513D01*
X88011791Y-63253267D01*
X88011787Y-63253272D01*
X87978659Y-63298870D01*
X87923330Y-63341536D01*
X87878341Y-63349985D01*
X87459839Y-63349985D01*
X87314851Y-63378825D01*
X87314841Y-63378828D01*
X87178270Y-63435397D01*
X87178263Y-63435401D01*
X87158355Y-63448703D01*
X87148332Y-63455401D01*
X87055338Y-63517536D01*
X87055337Y-63517537D01*
X85640809Y-64932066D01*
X85640803Y-64932074D01*
X85604025Y-64987116D01*
X85604026Y-64987117D01*
X85558672Y-65054993D01*
X85502102Y-65191567D01*
X85502099Y-65191577D01*
X85473259Y-65336564D01*
X85473259Y-74702244D01*
X85453574Y-74769283D01*
X85436940Y-74789925D01*
X81739621Y-78487244D01*
X81678298Y-78520729D01*
X81651940Y-78523563D01*
X81520797Y-78523563D01*
X81453758Y-78503878D01*
X81419222Y-78470686D01*
X81371590Y-78402660D01*
X81204498Y-78235569D01*
X81204491Y-78235564D01*
X81193971Y-78228198D01*
X81061250Y-78135265D01*
X81010930Y-78100030D01*
X81010926Y-78100028D01*
X80939823Y-78066872D01*
X80796759Y-78000160D01*
X80796755Y-78000159D01*
X80796751Y-78000157D01*
X80568509Y-77939001D01*
X80568499Y-77938999D01*
X80333097Y-77918404D01*
X80333095Y-77918404D01*
X80097692Y-77938999D01*
X80097682Y-77939001D01*
X79869440Y-78000157D01*
X79869431Y-78000161D01*
X79655267Y-78100027D01*
X79655265Y-78100028D01*
X79461693Y-78235568D01*
X79294601Y-78402660D01*
X79164671Y-78588221D01*
X79110094Y-78631846D01*
X79040596Y-78639040D01*
X78978241Y-78607517D01*
X78961521Y-78588221D01*
X78831590Y-78402660D01*
X78664498Y-78235569D01*
X78664491Y-78235564D01*
X78653971Y-78228198D01*
X78521250Y-78135265D01*
X78470930Y-78100030D01*
X78470926Y-78100028D01*
X78399823Y-78066872D01*
X78256759Y-78000160D01*
X78256755Y-78000159D01*
X78256751Y-78000157D01*
X78028509Y-77939001D01*
X78028499Y-77938999D01*
X77793097Y-77918404D01*
X77793095Y-77918404D01*
X77557692Y-77938999D01*
X77557682Y-77939001D01*
X77329440Y-78000157D01*
X77329431Y-78000161D01*
X77115267Y-78100027D01*
X77115265Y-78100028D01*
X76921696Y-78235566D01*
X76799380Y-78357882D01*
X76738057Y-78391366D01*
X76668365Y-78386382D01*
X76612432Y-78344510D01*
X76595517Y-78313533D01*
X76546450Y-78181976D01*
X76546446Y-78181969D01*
X76460286Y-78066875D01*
X76460283Y-78066872D01*
X76345189Y-77980712D01*
X76345182Y-77980708D01*
X76210475Y-77930466D01*
X76210468Y-77930464D01*
X76150940Y-77924063D01*
X75503096Y-77924063D01*
X75503096Y-78841051D01*
X75446089Y-78808138D01*
X75318922Y-78774063D01*
X75187270Y-78774063D01*
X75060103Y-78808138D01*
X75003096Y-78841051D01*
X75003096Y-77924063D01*
X74355251Y-77924063D01*
X74295723Y-77930464D01*
X74295716Y-77930466D01*
X74161009Y-77980708D01*
X74161002Y-77980712D01*
X74045908Y-78066872D01*
X74045905Y-78066875D01*
X73959745Y-78181969D01*
X73959741Y-78181976D01*
X73909499Y-78316683D01*
X73909497Y-78316690D01*
X73903096Y-78376218D01*
X73903096Y-79024063D01*
X74820084Y-79024063D01*
X74787171Y-79081070D01*
X74753096Y-79208237D01*
X74753096Y-79339889D01*
X74787171Y-79467056D01*
X74820084Y-79524063D01*
X73903096Y-79524063D01*
X73903096Y-80171907D01*
X73909497Y-80231435D01*
X73909499Y-80231442D01*
X73959741Y-80366149D01*
X73959745Y-80366156D01*
X74045905Y-80481250D01*
X74045908Y-80481253D01*
X74161002Y-80567413D01*
X74161009Y-80567417D01*
X74295716Y-80617659D01*
X74295723Y-80617661D01*
X74355251Y-80624062D01*
X74355268Y-80624063D01*
X75003096Y-80624063D01*
X75003096Y-79707075D01*
X75060103Y-79739988D01*
X75187270Y-79774063D01*
X75318922Y-79774063D01*
X75446089Y-79739988D01*
X75503096Y-79707075D01*
X75503096Y-80624063D01*
X76150924Y-80624063D01*
X76150940Y-80624062D01*
X76210468Y-80617661D01*
X76210475Y-80617659D01*
X76345182Y-80567417D01*
X76345189Y-80567413D01*
X76460283Y-80481253D01*
X76460286Y-80481250D01*
X76546446Y-80366156D01*
X76546450Y-80366149D01*
X76595518Y-80234592D01*
X76637389Y-80178658D01*
X76702853Y-80154241D01*
X76771126Y-80169093D01*
X76799381Y-80190244D01*
X76921695Y-80312558D01*
X76998231Y-80366149D01*
X77115261Y-80448095D01*
X77115263Y-80448096D01*
X77115266Y-80448098D01*
X77329433Y-80547966D01*
X77557688Y-80609126D01*
X77728415Y-80624063D01*
X77793095Y-80629722D01*
X77793096Y-80629722D01*
X77793097Y-80629722D01*
X77857777Y-80624063D01*
X78028504Y-80609126D01*
X78256759Y-80547966D01*
X78470926Y-80448098D01*
X78664497Y-80312558D01*
X78831591Y-80145464D01*
X78961521Y-79959905D01*
X79016098Y-79916280D01*
X79085596Y-79909086D01*
X79147951Y-79940609D01*
X79164671Y-79959905D01*
X79294601Y-80145464D01*
X79461695Y-80312558D01*
X79538231Y-80366149D01*
X79655261Y-80448095D01*
X79655263Y-80448096D01*
X79655266Y-80448098D01*
X79869433Y-80547966D01*
X80097688Y-80609126D01*
X80268415Y-80624063D01*
X80333095Y-80629722D01*
X80333096Y-80629722D01*
X80333097Y-80629722D01*
X80397777Y-80624063D01*
X80568504Y-80609126D01*
X80796759Y-80547966D01*
X81010926Y-80448098D01*
X81204497Y-80312558D01*
X81371591Y-80145464D01*
X81419223Y-80077439D01*
X81473800Y-80033814D01*
X81520797Y-80024563D01*
X82088090Y-80024563D01*
X82185632Y-80005159D01*
X82233083Y-79995721D01*
X82369665Y-79939147D01*
X82418899Y-79906249D01*
X82492586Y-79857015D01*
X86806711Y-75542890D01*
X86816017Y-75528962D01*
X86858282Y-75465707D01*
X86858284Y-75465704D01*
X86888838Y-75419977D01*
X86888839Y-75419974D01*
X86888843Y-75419969D01*
X86945417Y-75283387D01*
X86974259Y-75138392D01*
X86974259Y-73766567D01*
X86974259Y-65772715D01*
X86993944Y-65705676D01*
X87010578Y-65685034D01*
X87396572Y-65299040D01*
X87798088Y-64897523D01*
X87859409Y-64864040D01*
X87929100Y-64869024D01*
X87985034Y-64910896D01*
X87986085Y-64912321D01*
X88011787Y-64947698D01*
X88156545Y-65092456D01*
X88292969Y-65191572D01*
X88322149Y-65212772D01*
X88413599Y-65259368D01*
X88414839Y-65260000D01*
X88465635Y-65307975D01*
X88482430Y-65375796D01*
X88459893Y-65441931D01*
X88414839Y-65480970D01*
X88322145Y-65528200D01*
X88156545Y-65648513D01*
X88011787Y-65793271D01*
X87891474Y-65958871D01*
X87798540Y-66141261D01*
X87735281Y-66335950D01*
X87703259Y-66538133D01*
X87703259Y-66742836D01*
X87735281Y-66945019D01*
X87798540Y-67139708D01*
X87891474Y-67322098D01*
X88011787Y-67487698D01*
X88156545Y-67632456D01*
X88311508Y-67745041D01*
X88322149Y-67752772D01*
X88389072Y-67786871D01*
X88414839Y-67800000D01*
X88465635Y-67847975D01*
X88482430Y-67915796D01*
X88459893Y-67981931D01*
X88414839Y-68020970D01*
X88322145Y-68068200D01*
X88156545Y-68188513D01*
X88011787Y-68333271D01*
X87891474Y-68498871D01*
X87798540Y-68681261D01*
X87735281Y-68875950D01*
X87703259Y-69078133D01*
X87703259Y-69282836D01*
X87735281Y-69485019D01*
X87798540Y-69679708D01*
X87891474Y-69862098D01*
X88011787Y-70027698D01*
X88156545Y-70172456D01*
X88255296Y-70244201D01*
X88322149Y-70292772D01*
X88413599Y-70339368D01*
X88414839Y-70340000D01*
X88465635Y-70387975D01*
X88482430Y-70455796D01*
X88459893Y-70521931D01*
X88414839Y-70560970D01*
X88322145Y-70608200D01*
X88156545Y-70728513D01*
X88011787Y-70873271D01*
X87891474Y-71038871D01*
X87798540Y-71221261D01*
X87735281Y-71415950D01*
X87703259Y-71618133D01*
X87703259Y-71822836D01*
X87735281Y-72025019D01*
X87798540Y-72219708D01*
X87891474Y-72402098D01*
X88011787Y-72567698D01*
X88156545Y-72712456D01*
X88311508Y-72825041D01*
X88322149Y-72832772D01*
X88413599Y-72879368D01*
X88414839Y-72880000D01*
X88465635Y-72927975D01*
X88482430Y-72995796D01*
X88459893Y-73061931D01*
X88414839Y-73100970D01*
X88322145Y-73148200D01*
X88156545Y-73268513D01*
X88011787Y-73413271D01*
X87891474Y-73578871D01*
X87798540Y-73761261D01*
X87735281Y-73955950D01*
X87703259Y-74158133D01*
X87703259Y-74362836D01*
X87735281Y-74565019D01*
X87798540Y-74759708D01*
X87840104Y-74841280D01*
X87880581Y-74920721D01*
X87891474Y-74942098D01*
X88011787Y-75107698D01*
X88156545Y-75252456D01*
X88311508Y-75365041D01*
X88322149Y-75372772D01*
X88413599Y-75419368D01*
X88414839Y-75420000D01*
X88465635Y-75467975D01*
X88482430Y-75535796D01*
X88459893Y-75601931D01*
X88414839Y-75640970D01*
X88322145Y-75688200D01*
X88156545Y-75808513D01*
X88011787Y-75953271D01*
X87891474Y-76118871D01*
X87798540Y-76301261D01*
X87735281Y-76495950D01*
X87703259Y-76698133D01*
X87703259Y-76902836D01*
X87735281Y-77105019D01*
X87798540Y-77299708D01*
X87891474Y-77482098D01*
X88011787Y-77647698D01*
X88156545Y-77792456D01*
X88311508Y-77905041D01*
X88322149Y-77912772D01*
X88413599Y-77959368D01*
X88414839Y-77960000D01*
X88465635Y-78007975D01*
X88482430Y-78075796D01*
X88459893Y-78141931D01*
X88414839Y-78180970D01*
X88322145Y-78228200D01*
X88156545Y-78348513D01*
X88011787Y-78493271D01*
X87891474Y-78658871D01*
X87798540Y-78841261D01*
X87735281Y-79035950D01*
X87703259Y-79238133D01*
X87703259Y-79442836D01*
X87735281Y-79645019D01*
X87798540Y-79839708D01*
X87837556Y-79916280D01*
X87878034Y-79995722D01*
X87891474Y-80022098D01*
X88011787Y-80187698D01*
X88156545Y-80332456D01*
X88311508Y-80445041D01*
X88322149Y-80452772D01*
X88438366Y-80511988D01*
X88504535Y-80545703D01*
X88504537Y-80545703D01*
X88504540Y-80545705D01*
X88571363Y-80567417D01*
X88699224Y-80608962D01*
X88754147Y-80617661D01*
X88901407Y-80640985D01*
X88901408Y-80640985D01*
X90106110Y-80640985D01*
X90106111Y-80640985D01*
X90308293Y-80608962D01*
X90502978Y-80545705D01*
X90685369Y-80452772D01*
X90804587Y-80366156D01*
X90850972Y-80332456D01*
X90850974Y-80332453D01*
X90850978Y-80332451D01*
X90995725Y-80187704D01*
X90995727Y-80187700D01*
X90995730Y-80187698D01*
X91065995Y-80090985D01*
X91116046Y-80022095D01*
X91208979Y-79839704D01*
X91272236Y-79645019D01*
X91304259Y-79442837D01*
X91304259Y-79238133D01*
X91272236Y-79035951D01*
X91268373Y-79024063D01*
X91208977Y-78841261D01*
X91166315Y-78757533D01*
X91116046Y-78658875D01*
X91101635Y-78639040D01*
X90995730Y-78493271D01*
X90850972Y-78348513D01*
X90685373Y-78228200D01*
X90678765Y-78224833D01*
X90592676Y-78180968D01*
X90541882Y-78132996D01*
X90525087Y-78065175D01*
X90547624Y-77999040D01*
X90592676Y-77960001D01*
X90685369Y-77912772D01*
X90706529Y-77897398D01*
X90850972Y-77792456D01*
X90850974Y-77792453D01*
X90850978Y-77792451D01*
X90995725Y-77647704D01*
X90995727Y-77647700D01*
X90995730Y-77647698D01*
X91065995Y-77550985D01*
X91116046Y-77482095D01*
X91208979Y-77299704D01*
X91272236Y-77105019D01*
X91304259Y-76902837D01*
X91304259Y-76698133D01*
X91272236Y-76495951D01*
X91208979Y-76301266D01*
X91208977Y-76301263D01*
X91208977Y-76301261D01*
X91166313Y-76217530D01*
X91116046Y-76118875D01*
X91108315Y-76108234D01*
X90995730Y-75953271D01*
X90850972Y-75808513D01*
X90685373Y-75688200D01*
X90678765Y-75684833D01*
X90592676Y-75640968D01*
X90541882Y-75592996D01*
X90525087Y-75525175D01*
X90547624Y-75459040D01*
X90592676Y-75420001D01*
X90685369Y-75372772D01*
X90797705Y-75291156D01*
X90850972Y-75252456D01*
X90850974Y-75252453D01*
X90850978Y-75252451D01*
X90995725Y-75107704D01*
X90995727Y-75107700D01*
X90995730Y-75107698D01*
X91072204Y-75002439D01*
X91116046Y-74942095D01*
X91208979Y-74759704D01*
X91272236Y-74565019D01*
X91304259Y-74362837D01*
X91304259Y-74158133D01*
X91272236Y-73955951D01*
X91208979Y-73761266D01*
X91208977Y-73761263D01*
X91208977Y-73761261D01*
X91175262Y-73695092D01*
X91116046Y-73578875D01*
X91100041Y-73556846D01*
X90995730Y-73413271D01*
X90850972Y-73268513D01*
X90685373Y-73148200D01*
X90604466Y-73106976D01*
X90592676Y-73100968D01*
X90541882Y-73052996D01*
X90525087Y-72985175D01*
X90547624Y-72919040D01*
X90592676Y-72880001D01*
X90685369Y-72832772D01*
X90706529Y-72817398D01*
X90850972Y-72712456D01*
X90850974Y-72712453D01*
X90850978Y-72712451D01*
X90995725Y-72567704D01*
X90995727Y-72567700D01*
X90995730Y-72567698D01*
X91048491Y-72495075D01*
X91116046Y-72402095D01*
X91208979Y-72219704D01*
X91272236Y-72025019D01*
X91304259Y-71822837D01*
X91304259Y-71618133D01*
X91280253Y-71466567D01*
X91272236Y-71415950D01*
X91224467Y-71268934D01*
X91208979Y-71221266D01*
X91208977Y-71221263D01*
X91208977Y-71221261D01*
X91165408Y-71135753D01*
X91116046Y-71038875D01*
X91108315Y-71028234D01*
X90995730Y-70873271D01*
X90850972Y-70728513D01*
X90685373Y-70608200D01*
X90678765Y-70604833D01*
X90592676Y-70560968D01*
X90541882Y-70512996D01*
X90525087Y-70445175D01*
X90547624Y-70379040D01*
X90592676Y-70340001D01*
X90685369Y-70292772D01*
X90752222Y-70244201D01*
X90850972Y-70172456D01*
X90850974Y-70172453D01*
X90850978Y-70172451D01*
X90995725Y-70027704D01*
X90995727Y-70027700D01*
X90995730Y-70027698D01*
X91070164Y-69925246D01*
X91116046Y-69862095D01*
X91208979Y-69679704D01*
X91272236Y-69485019D01*
X91304259Y-69282837D01*
X91304259Y-69078133D01*
X91272236Y-68875951D01*
X91256620Y-68827891D01*
X91208977Y-68681261D01*
X91155048Y-68575421D01*
X91116046Y-68498875D01*
X91062630Y-68425353D01*
X90995730Y-68333271D01*
X90850972Y-68188513D01*
X90685373Y-68068200D01*
X90676686Y-68063774D01*
X90592676Y-68020968D01*
X90541882Y-67972996D01*
X90525087Y-67905175D01*
X90547624Y-67839040D01*
X90592676Y-67800001D01*
X90685369Y-67752772D01*
X90771036Y-67690532D01*
X90850972Y-67632456D01*
X90850974Y-67632453D01*
X90850978Y-67632451D01*
X90995725Y-67487704D01*
X90995727Y-67487700D01*
X90995730Y-67487698D01*
X91089307Y-67358898D01*
X91116046Y-67322095D01*
X91208979Y-67139704D01*
X91272236Y-66945019D01*
X91304259Y-66742837D01*
X91304259Y-66538133D01*
X91272236Y-66335951D01*
X91260199Y-66298906D01*
X91208977Y-66141261D01*
X91175262Y-66075092D01*
X91116046Y-65958875D01*
X91077472Y-65905782D01*
X91069206Y-65894405D01*
X98713258Y-65894405D01*
X98742099Y-66039392D01*
X98742102Y-66039402D01*
X98798673Y-66175977D01*
X98831571Y-66225212D01*
X98831572Y-66225215D01*
X98880805Y-66298899D01*
X98880811Y-66298906D01*
X102240808Y-69658901D01*
X102345343Y-69763436D01*
X102345346Y-69763438D01*
X102345347Y-69763439D01*
X102468262Y-69845568D01*
X102468265Y-69845570D01*
X102524838Y-69869003D01*
X102524839Y-69869003D01*
X102604847Y-69902144D01*
X102721000Y-69925248D01*
X102740227Y-69929072D01*
X102749840Y-69930985D01*
X102749841Y-69930985D01*
X102749842Y-69930985D01*
X102897677Y-69930985D01*
X107598341Y-69930985D01*
X107665380Y-69950670D01*
X107698659Y-69982100D01*
X107731787Y-70027697D01*
X107731791Y-70027702D01*
X107876545Y-70172456D01*
X107975296Y-70244201D01*
X108042149Y-70292772D01*
X108133599Y-70339368D01*
X108134839Y-70340000D01*
X108185635Y-70387975D01*
X108202430Y-70455796D01*
X108179893Y-70521931D01*
X108134839Y-70560970D01*
X108042145Y-70608200D01*
X107876545Y-70728513D01*
X107731787Y-70873271D01*
X107611474Y-71038871D01*
X107518540Y-71221261D01*
X107455281Y-71415950D01*
X107423259Y-71618133D01*
X107423259Y-71822836D01*
X107455281Y-72025019D01*
X107518540Y-72219708D01*
X107611474Y-72402098D01*
X107731787Y-72567698D01*
X107876545Y-72712456D01*
X108031508Y-72825041D01*
X108042149Y-72832772D01*
X108133599Y-72879368D01*
X108134839Y-72880000D01*
X108185635Y-72927975D01*
X108202430Y-72995796D01*
X108179893Y-73061931D01*
X108134839Y-73100970D01*
X108042145Y-73148200D01*
X107876545Y-73268513D01*
X107731787Y-73413271D01*
X107611474Y-73578871D01*
X107518540Y-73761261D01*
X107455281Y-73955950D01*
X107423259Y-74158133D01*
X107423259Y-74362836D01*
X107455281Y-74565019D01*
X107518540Y-74759708D01*
X107560104Y-74841280D01*
X107600581Y-74920721D01*
X107611474Y-74942098D01*
X107731787Y-75107698D01*
X107876545Y-75252456D01*
X108031508Y-75365041D01*
X108042149Y-75372772D01*
X108133599Y-75419368D01*
X108134839Y-75420000D01*
X108185635Y-75467975D01*
X108202430Y-75535796D01*
X108179893Y-75601931D01*
X108134839Y-75640970D01*
X108042145Y-75688200D01*
X107876545Y-75808513D01*
X107731787Y-75953271D01*
X107611474Y-76118871D01*
X107518540Y-76301261D01*
X107455281Y-76495950D01*
X107423259Y-76698133D01*
X107423259Y-76902836D01*
X107455281Y-77105019D01*
X107518540Y-77299708D01*
X107611474Y-77482098D01*
X107731787Y-77647698D01*
X107876545Y-77792456D01*
X108031508Y-77905041D01*
X108042149Y-77912772D01*
X108133599Y-77959368D01*
X108134839Y-77960000D01*
X108185635Y-78007975D01*
X108202430Y-78075796D01*
X108179893Y-78141931D01*
X108134839Y-78180970D01*
X108042145Y-78228200D01*
X107876545Y-78348513D01*
X107731787Y-78493271D01*
X107611474Y-78658871D01*
X107518540Y-78841261D01*
X107455281Y-79035950D01*
X107423259Y-79238133D01*
X107423259Y-79442836D01*
X107455281Y-79645019D01*
X107518540Y-79839708D01*
X107557556Y-79916280D01*
X107598034Y-79995722D01*
X107611474Y-80022098D01*
X107731787Y-80187698D01*
X107876545Y-80332456D01*
X108031508Y-80445041D01*
X108042149Y-80452772D01*
X108158366Y-80511988D01*
X108224535Y-80545703D01*
X108224537Y-80545703D01*
X108224540Y-80545705D01*
X108291363Y-80567417D01*
X108419224Y-80608962D01*
X108474147Y-80617661D01*
X108621407Y-80640985D01*
X108621408Y-80640985D01*
X109826110Y-80640985D01*
X109826111Y-80640985D01*
X110028293Y-80608962D01*
X110222978Y-80545705D01*
X110405369Y-80452772D01*
X110524587Y-80366156D01*
X110570972Y-80332456D01*
X110570974Y-80332453D01*
X110570978Y-80332451D01*
X110715725Y-80187704D01*
X110729247Y-80169093D01*
X110748859Y-80142100D01*
X110804188Y-80099434D01*
X110849177Y-80090985D01*
X111861529Y-80090985D01*
X111928568Y-80110670D01*
X111949210Y-80127304D01*
X116386940Y-84565033D01*
X116420425Y-84626356D01*
X116423259Y-84652714D01*
X116423259Y-99724403D01*
X116423259Y-99724405D01*
X116423258Y-99724405D01*
X116452099Y-99869392D01*
X116452102Y-99869402D01*
X116508673Y-100005977D01*
X116541571Y-100055212D01*
X116541572Y-100055215D01*
X116590805Y-100128899D01*
X116590811Y-100128906D01*
X119164716Y-102702810D01*
X119164718Y-102702812D01*
X119194190Y-102722503D01*
X119238402Y-102752044D01*
X119287637Y-102784942D01*
X119287638Y-102784942D01*
X119287639Y-102784943D01*
X119287641Y-102784944D01*
X119424214Y-102841514D01*
X119424219Y-102841516D01*
X119424223Y-102841516D01*
X119424224Y-102841517D01*
X119569211Y-102870358D01*
X119569214Y-102870358D01*
X119569215Y-102870358D01*
X119717050Y-102870358D01*
X121109392Y-102870358D01*
X121176431Y-102890043D01*
X121210967Y-102923235D01*
X121236009Y-102958999D01*
X121396913Y-103119903D01*
X121396916Y-103119905D01*
X121583321Y-103250426D01*
X121789559Y-103346597D01*
X121789564Y-103346598D01*
X121789566Y-103346599D01*
X121842470Y-103360774D01*
X122009363Y-103405493D01*
X122171285Y-103419659D01*
X122236053Y-103425326D01*
X122236055Y-103425326D01*
X122236056Y-103425326D01*
X122256117Y-103423570D01*
X122402916Y-103410727D01*
X122471414Y-103424493D01*
X122501403Y-103446574D01*
X124293731Y-105238901D01*
X124398266Y-105343436D01*
X124398269Y-105343438D01*
X124398270Y-105343439D01*
X124521185Y-105425568D01*
X124521188Y-105425570D01*
X124577761Y-105449003D01*
X124577762Y-105449003D01*
X124657770Y-105482144D01*
X124773923Y-105505248D01*
X124793150Y-105509072D01*
X124802763Y-105510985D01*
X124802764Y-105510985D01*
X124802765Y-105510985D01*
X124950600Y-105510985D01*
X136347096Y-105510985D01*
X136414135Y-105530670D01*
X136448671Y-105563862D01*
X136473713Y-105599626D01*
X136634617Y-105760530D01*
X136634620Y-105760532D01*
X136821025Y-105891053D01*
X136879034Y-105918103D01*
X136931473Y-105964276D01*
X136950625Y-106031469D01*
X136930409Y-106098350D01*
X136879034Y-106142867D01*
X136821026Y-106169916D01*
X136821024Y-106169917D01*
X136634617Y-106300439D01*
X136473713Y-106461343D01*
X136343191Y-106647750D01*
X136343190Y-106647752D01*
X136247020Y-106853987D01*
X136247017Y-106853996D01*
X136188125Y-107073787D01*
X136188123Y-107073798D01*
X136168291Y-107300483D01*
X136168291Y-107300486D01*
X136188123Y-107527171D01*
X136188125Y-107527182D01*
X136247017Y-107746973D01*
X136247020Y-107746982D01*
X136343190Y-107953217D01*
X136343191Y-107953219D01*
X136473713Y-108139626D01*
X136634617Y-108300530D01*
X136681452Y-108333324D01*
X136821025Y-108431053D01*
X136879034Y-108458103D01*
X136931473Y-108504276D01*
X136950625Y-108571469D01*
X136930409Y-108638350D01*
X136879034Y-108682867D01*
X136821026Y-108709916D01*
X136821024Y-108709917D01*
X136634617Y-108840439D01*
X136473713Y-109001343D01*
X136343191Y-109187750D01*
X136343190Y-109187752D01*
X136247020Y-109393987D01*
X136247017Y-109393996D01*
X136188125Y-109613787D01*
X136188123Y-109613798D01*
X136168291Y-109840483D01*
X136168291Y-109840486D01*
X136188123Y-110067171D01*
X136188125Y-110067182D01*
X136247017Y-110286973D01*
X136247020Y-110286982D01*
X136343190Y-110493217D01*
X136343191Y-110493219D01*
X136473713Y-110679626D01*
X136634617Y-110840530D01*
X136634620Y-110840532D01*
X136821025Y-110971053D01*
X137027263Y-111067224D01*
X137027268Y-111067225D01*
X137027270Y-111067226D01*
X137080174Y-111081401D01*
X137247067Y-111126120D01*
X137408989Y-111140286D01*
X137473757Y-111145953D01*
X137473759Y-111145953D01*
X137473761Y-111145953D01*
X137530432Y-111140994D01*
X137700451Y-111126120D01*
X137920255Y-111067224D01*
X138126493Y-110971053D01*
X138312898Y-110840532D01*
X138473806Y-110679624D01*
X138604327Y-110493219D01*
X138700498Y-110286981D01*
X138759394Y-110067177D01*
X138779227Y-109840485D01*
X138759394Y-109613793D01*
X138700498Y-109393989D01*
X138604327Y-109187751D01*
X138473806Y-109001346D01*
X138473804Y-109001343D01*
X138312900Y-108840439D01*
X138126493Y-108709917D01*
X138126487Y-108709914D01*
X138068484Y-108682867D01*
X138016044Y-108636695D01*
X137996892Y-108569502D01*
X138017107Y-108502620D01*
X138068484Y-108458103D01*
X138126493Y-108431053D01*
X138312898Y-108300532D01*
X138473806Y-108139624D01*
X138604327Y-107953219D01*
X138700498Y-107746981D01*
X138759394Y-107527177D01*
X138779227Y-107300485D01*
X138759394Y-107073793D01*
X138700498Y-106853989D01*
X138604327Y-106647751D01*
X138495874Y-106492863D01*
X138473804Y-106461343D01*
X138312900Y-106300439D01*
X138126493Y-106169917D01*
X138126487Y-106169914D01*
X138068484Y-106142867D01*
X138016044Y-106096695D01*
X137996892Y-106029502D01*
X138017107Y-105962620D01*
X138068484Y-105918103D01*
X138126493Y-105891053D01*
X138312898Y-105760532D01*
X138473806Y-105599624D01*
X138604327Y-105413219D01*
X138700498Y-105206981D01*
X138759394Y-104987177D01*
X138779227Y-104760485D01*
X138759394Y-104533793D01*
X138700498Y-104313989D01*
X138604327Y-104107751D01*
X138498847Y-103957108D01*
X138473804Y-103921343D01*
X138312900Y-103760439D01*
X138126493Y-103629917D01*
X138126487Y-103629914D01*
X138068484Y-103602867D01*
X138016044Y-103556695D01*
X137996892Y-103489502D01*
X138017107Y-103422620D01*
X138068484Y-103378103D01*
X138126493Y-103351053D01*
X138312898Y-103220532D01*
X138473806Y-103059624D01*
X138604327Y-102873219D01*
X138700498Y-102666981D01*
X138759394Y-102447177D01*
X138779227Y-102220485D01*
X138759394Y-101993793D01*
X138700498Y-101773989D01*
X138604327Y-101567751D01*
X138473806Y-101381346D01*
X138473804Y-101381343D01*
X138312900Y-101220439D01*
X138126493Y-101089917D01*
X138126491Y-101089916D01*
X138115034Y-101084573D01*
X138067891Y-101062590D01*
X138015453Y-101016419D01*
X137996301Y-100949225D01*
X138016517Y-100882344D01*
X138067893Y-100837826D01*
X138126243Y-100810617D01*
X138312579Y-100680142D01*
X138473416Y-100519305D01*
X138603893Y-100332967D01*
X138700024Y-100126811D01*
X138700028Y-100126802D01*
X138752631Y-99930485D01*
X137906771Y-99930485D01*
X137939684Y-99873478D01*
X137973759Y-99746311D01*
X137973759Y-99614659D01*
X137939684Y-99487492D01*
X137906771Y-99430485D01*
X138752631Y-99430485D01*
X138752631Y-99430484D01*
X138700028Y-99234167D01*
X138700024Y-99234158D01*
X138603893Y-99028002D01*
X138473416Y-98841664D01*
X138312579Y-98680827D01*
X138126241Y-98550350D01*
X138067892Y-98523142D01*
X138015453Y-98476969D01*
X137996301Y-98409776D01*
X138016517Y-98342895D01*
X138067888Y-98298380D01*
X138126493Y-98271053D01*
X138312898Y-98140532D01*
X138473806Y-97979624D01*
X138604327Y-97793219D01*
X138700498Y-97586981D01*
X138759394Y-97367177D01*
X138779227Y-97140485D01*
X138759394Y-96913793D01*
X138700498Y-96693989D01*
X138604327Y-96487751D01*
X138473806Y-96301346D01*
X138473804Y-96301343D01*
X138312900Y-96140439D01*
X138126493Y-96009917D01*
X138126491Y-96009916D01*
X137920256Y-95913746D01*
X137920247Y-95913743D01*
X137700456Y-95854851D01*
X137700452Y-95854850D01*
X137700451Y-95854850D01*
X137700450Y-95854849D01*
X137700445Y-95854849D01*
X137473761Y-95835017D01*
X137473757Y-95835017D01*
X137247072Y-95854849D01*
X137247061Y-95854851D01*
X137027270Y-95913743D01*
X137027261Y-95913746D01*
X136821026Y-96009916D01*
X136821024Y-96009917D01*
X136634617Y-96140439D01*
X136473713Y-96301343D01*
X136343191Y-96487750D01*
X136343190Y-96487752D01*
X136247020Y-96693987D01*
X136247017Y-96693996D01*
X136188125Y-96913787D01*
X136188123Y-96913798D01*
X136168291Y-97140483D01*
X136168291Y-97140486D01*
X136188123Y-97367171D01*
X136188124Y-97367176D01*
X136247017Y-97586973D01*
X136247020Y-97586982D01*
X136343190Y-97793217D01*
X136343191Y-97793219D01*
X136473713Y-97979626D01*
X136634617Y-98140530D01*
X136634620Y-98140532D01*
X136821025Y-98271053D01*
X136879624Y-98298378D01*
X136932064Y-98344550D01*
X136951216Y-98411743D01*
X136931001Y-98478624D01*
X136879626Y-98523142D01*
X136821274Y-98550352D01*
X136634938Y-98680827D01*
X136474101Y-98841664D01*
X136343624Y-99028002D01*
X136247493Y-99234158D01*
X136247489Y-99234167D01*
X136194886Y-99430484D01*
X136194887Y-99430485D01*
X137040747Y-99430485D01*
X137007834Y-99487492D01*
X136973759Y-99614659D01*
X136973759Y-99746311D01*
X137007834Y-99873478D01*
X137040747Y-99930485D01*
X136296489Y-99930485D01*
X136229450Y-99910800D01*
X136208808Y-99894166D01*
X135222180Y-98907537D01*
X135222173Y-98907531D01*
X135148488Y-98858297D01*
X135148488Y-98858298D01*
X135099250Y-98825398D01*
X134962676Y-98768828D01*
X134962666Y-98768825D01*
X134817679Y-98739985D01*
X134817677Y-98739985D01*
X125078911Y-98739985D01*
X125011872Y-98720300D01*
X124991230Y-98703666D01*
X123572771Y-97285206D01*
X123539286Y-97223883D01*
X123536924Y-97186721D01*
X123551523Y-97019858D01*
X123551523Y-97019856D01*
X128560587Y-97019856D01*
X128560587Y-97019859D01*
X128580419Y-97246544D01*
X128580421Y-97246555D01*
X128639313Y-97466346D01*
X128639316Y-97466355D01*
X128735486Y-97672590D01*
X128735487Y-97672592D01*
X128866009Y-97858999D01*
X129026913Y-98019903D01*
X129026916Y-98019905D01*
X129213321Y-98150426D01*
X129419559Y-98246597D01*
X129639363Y-98305493D01*
X129801285Y-98319659D01*
X129866053Y-98325326D01*
X129866055Y-98325326D01*
X129866057Y-98325326D01*
X129922728Y-98320367D01*
X130092747Y-98305493D01*
X130312551Y-98246597D01*
X130518789Y-98150426D01*
X130705194Y-98019905D01*
X130866102Y-97858997D01*
X130996623Y-97672592D01*
X131092794Y-97466354D01*
X131151690Y-97246550D01*
X131171523Y-97019858D01*
X131169689Y-96998901D01*
X131162244Y-96913798D01*
X131151690Y-96793166D01*
X131106971Y-96626273D01*
X131092796Y-96573369D01*
X131092793Y-96573360D01*
X131052873Y-96487752D01*
X130996623Y-96367124D01*
X130866102Y-96180719D01*
X130866100Y-96180716D01*
X130705196Y-96019812D01*
X130518789Y-95889290D01*
X130518787Y-95889289D01*
X130312552Y-95793119D01*
X130312543Y-95793116D01*
X130092752Y-95734224D01*
X130092748Y-95734223D01*
X130092747Y-95734223D01*
X130092746Y-95734222D01*
X130092741Y-95734222D01*
X129866057Y-95714390D01*
X129866053Y-95714390D01*
X129639368Y-95734222D01*
X129639357Y-95734224D01*
X129419566Y-95793116D01*
X129419557Y-95793119D01*
X129213322Y-95889289D01*
X129213320Y-95889290D01*
X129026913Y-96019812D01*
X128866009Y-96180716D01*
X128735487Y-96367123D01*
X128735486Y-96367125D01*
X128639316Y-96573360D01*
X128639313Y-96573369D01*
X128580421Y-96793160D01*
X128580419Y-96793171D01*
X128560587Y-97019856D01*
X123551523Y-97019856D01*
X123549689Y-96998901D01*
X123542244Y-96913798D01*
X123531690Y-96793166D01*
X123486971Y-96626273D01*
X123472796Y-96573369D01*
X123472793Y-96573360D01*
X123432873Y-96487752D01*
X123376623Y-96367124D01*
X123291767Y-96245936D01*
X123246103Y-96180720D01*
X123205821Y-96140438D01*
X123085194Y-96019811D01*
X123071063Y-96009916D01*
X123049430Y-95994768D01*
X123005806Y-95940190D01*
X122996555Y-95893194D01*
X122996555Y-84188860D01*
X122967714Y-84043873D01*
X122967713Y-84043872D01*
X122967713Y-84043868D01*
X122967711Y-84043863D01*
X122911142Y-83907292D01*
X122911135Y-83907279D01*
X122829007Y-83784366D01*
X122786936Y-83742295D01*
X122724471Y-83679830D01*
X115262175Y-76217533D01*
X115262174Y-76217532D01*
X115262172Y-76217530D01*
X115212938Y-76184635D01*
X115180114Y-76162703D01*
X115139254Y-76135401D01*
X115139253Y-76135400D01*
X115139251Y-76135399D01*
X115139249Y-76135398D01*
X115002676Y-76078828D01*
X115002666Y-76078825D01*
X114857679Y-76049985D01*
X114857677Y-76049985D01*
X110849177Y-76049985D01*
X110782138Y-76030300D01*
X110748859Y-75998870D01*
X110715730Y-75953272D01*
X110715726Y-75953267D01*
X110570972Y-75808513D01*
X110405373Y-75688200D01*
X110398765Y-75684833D01*
X110312676Y-75640968D01*
X110261882Y-75592996D01*
X110245087Y-75525175D01*
X110267624Y-75459040D01*
X110312676Y-75420001D01*
X110405369Y-75372772D01*
X110517705Y-75291156D01*
X110570972Y-75252456D01*
X110570974Y-75252453D01*
X110570978Y-75252451D01*
X110715725Y-75107704D01*
X110715727Y-75107700D01*
X110715730Y-75107698D01*
X110792204Y-75002439D01*
X110836046Y-74942095D01*
X110928979Y-74759704D01*
X110992236Y-74565019D01*
X111024259Y-74362837D01*
X111024259Y-74158133D01*
X110992236Y-73955951D01*
X110928979Y-73761266D01*
X110928977Y-73761263D01*
X110928977Y-73761261D01*
X110895262Y-73695092D01*
X110836046Y-73578875D01*
X110820041Y-73556846D01*
X110715730Y-73413271D01*
X110570972Y-73268513D01*
X110405373Y-73148200D01*
X110324466Y-73106976D01*
X110312676Y-73100968D01*
X110261882Y-73052996D01*
X110245087Y-72985175D01*
X110267624Y-72919040D01*
X110312676Y-72880001D01*
X110405369Y-72832772D01*
X110426529Y-72817398D01*
X110570972Y-72712456D01*
X110570974Y-72712453D01*
X110570978Y-72712451D01*
X110715725Y-72567704D01*
X110715727Y-72567700D01*
X110715730Y-72567698D01*
X110768491Y-72495075D01*
X110836046Y-72402095D01*
X110928979Y-72219704D01*
X110992236Y-72025019D01*
X111024259Y-71822837D01*
X111024259Y-71618133D01*
X111000253Y-71466567D01*
X110992236Y-71415950D01*
X110944467Y-71268934D01*
X110928979Y-71221266D01*
X110928977Y-71221263D01*
X110928977Y-71221261D01*
X110885408Y-71135753D01*
X110836046Y-71038875D01*
X110828315Y-71028234D01*
X110715730Y-70873271D01*
X110570972Y-70728513D01*
X110405373Y-70608200D01*
X110398765Y-70604833D01*
X110312676Y-70560968D01*
X110261882Y-70512996D01*
X110245087Y-70445175D01*
X110267624Y-70379040D01*
X110312676Y-70340001D01*
X110405369Y-70292772D01*
X110472222Y-70244201D01*
X110570972Y-70172456D01*
X110570974Y-70172453D01*
X110570978Y-70172451D01*
X110715725Y-70027704D01*
X110715727Y-70027700D01*
X110715730Y-70027698D01*
X110790164Y-69925246D01*
X110836046Y-69862095D01*
X110928979Y-69679704D01*
X110978658Y-69526808D01*
X114259302Y-69526808D01*
X114259302Y-69769385D01*
X114285383Y-69967499D01*
X114290964Y-70009886D01*
X114295737Y-70027698D01*
X114353749Y-70244201D01*
X114438564Y-70448962D01*
X114446578Y-70468309D01*
X114567866Y-70678386D01*
X114567868Y-70678389D01*
X114567869Y-70678390D01*
X114715535Y-70870833D01*
X114715541Y-70870840D01*
X114887058Y-71042357D01*
X114887065Y-71042363D01*
X114912752Y-71062073D01*
X115079513Y-71190033D01*
X115289590Y-71311321D01*
X115513702Y-71404151D01*
X115748013Y-71466935D01*
X115928388Y-71490681D01*
X115988513Y-71498597D01*
X115988514Y-71498597D01*
X116231091Y-71498597D01*
X116279190Y-71492264D01*
X116471591Y-71466935D01*
X116705902Y-71404151D01*
X116930014Y-71311321D01*
X117140091Y-71190033D01*
X117332540Y-71042362D01*
X117504067Y-70870835D01*
X117651738Y-70678386D01*
X117773026Y-70468309D01*
X117865856Y-70244197D01*
X117928640Y-70009886D01*
X117960302Y-69769385D01*
X117960302Y-69526809D01*
X117954722Y-69484421D01*
X144755278Y-69484421D01*
X144755278Y-69726998D01*
X144781377Y-69925248D01*
X144786940Y-69967499D01*
X144803072Y-70027704D01*
X144849725Y-70201814D01*
X144926836Y-70387975D01*
X144942554Y-70425922D01*
X145063842Y-70635999D01*
X145063844Y-70636002D01*
X145063845Y-70636003D01*
X145211511Y-70828446D01*
X145211517Y-70828453D01*
X145383034Y-70999970D01*
X145383041Y-70999976D01*
X145438273Y-71042357D01*
X145575489Y-71147646D01*
X145785566Y-71268934D01*
X146009678Y-71361764D01*
X146243989Y-71424548D01*
X146424364Y-71448294D01*
X146484489Y-71456210D01*
X146484490Y-71456210D01*
X146727067Y-71456210D01*
X146775166Y-71449877D01*
X146967567Y-71424548D01*
X147201878Y-71361764D01*
X147425990Y-71268934D01*
X147636067Y-71147646D01*
X147828516Y-70999975D01*
X148000043Y-70828448D01*
X148147714Y-70635999D01*
X148269002Y-70425922D01*
X148361832Y-70201810D01*
X148424616Y-69967499D01*
X148456278Y-69726998D01*
X148456278Y-69484422D01*
X148424616Y-69243921D01*
X148361832Y-69009610D01*
X148269002Y-68785498D01*
X148147714Y-68575421D01*
X148036117Y-68429985D01*
X148000044Y-68382973D01*
X148000038Y-68382966D01*
X147828521Y-68211449D01*
X147828514Y-68211443D01*
X147636071Y-68063777D01*
X147636070Y-68063776D01*
X147636067Y-68063774D01*
X147425990Y-67942486D01*
X147365007Y-67917226D01*
X147201882Y-67849657D01*
X146967563Y-67786871D01*
X146727067Y-67755210D01*
X146727066Y-67755210D01*
X146484490Y-67755210D01*
X146484489Y-67755210D01*
X146243992Y-67786871D01*
X146009673Y-67849657D01*
X145785572Y-67942483D01*
X145785563Y-67942487D01*
X145575484Y-68063777D01*
X145383041Y-68211443D01*
X145383034Y-68211449D01*
X145211517Y-68382966D01*
X145211511Y-68382973D01*
X145063845Y-68575416D01*
X144942555Y-68785495D01*
X144942551Y-68785504D01*
X144849725Y-69009605D01*
X144786939Y-69243924D01*
X144755278Y-69484421D01*
X117954722Y-69484421D01*
X117928640Y-69286308D01*
X117865856Y-69051997D01*
X117773026Y-68827885D01*
X117651738Y-68617808D01*
X117504067Y-68425359D01*
X117504062Y-68425353D01*
X117332545Y-68253836D01*
X117332538Y-68253830D01*
X117140095Y-68106164D01*
X117140094Y-68106163D01*
X117140091Y-68106161D01*
X116930014Y-67984873D01*
X116930007Y-67984870D01*
X116705906Y-67892044D01*
X116471587Y-67829258D01*
X116231091Y-67797597D01*
X116231090Y-67797597D01*
X115988514Y-67797597D01*
X115988513Y-67797597D01*
X115748016Y-67829258D01*
X115513697Y-67892044D01*
X115289596Y-67984870D01*
X115289587Y-67984874D01*
X115079508Y-68106164D01*
X114887065Y-68253830D01*
X114887058Y-68253836D01*
X114715541Y-68425353D01*
X114715535Y-68425360D01*
X114567869Y-68617803D01*
X114446579Y-68827882D01*
X114446575Y-68827891D01*
X114353749Y-69051992D01*
X114290963Y-69286311D01*
X114259302Y-69526808D01*
X110978658Y-69526808D01*
X110992236Y-69485019D01*
X111024259Y-69282837D01*
X111024259Y-69078133D01*
X110992236Y-68875951D01*
X110976620Y-68827891D01*
X110928977Y-68681261D01*
X110875048Y-68575421D01*
X110836046Y-68498875D01*
X110782630Y-68425353D01*
X110715730Y-68333271D01*
X110570972Y-68188513D01*
X110405373Y-68068200D01*
X110396686Y-68063774D01*
X110312676Y-68020968D01*
X110261882Y-67972996D01*
X110245087Y-67905175D01*
X110267624Y-67839040D01*
X110312676Y-67800001D01*
X110405369Y-67752772D01*
X110491036Y-67690532D01*
X110570972Y-67632456D01*
X110570974Y-67632453D01*
X110570978Y-67632451D01*
X110715725Y-67487704D01*
X110715727Y-67487700D01*
X110715730Y-67487698D01*
X110809307Y-67358898D01*
X110836046Y-67322095D01*
X110928979Y-67139704D01*
X110992236Y-66945019D01*
X111024259Y-66742837D01*
X111024259Y-66538133D01*
X110992236Y-66335951D01*
X110980199Y-66298906D01*
X110928977Y-66141261D01*
X110895262Y-66075092D01*
X110836046Y-65958875D01*
X110797472Y-65905782D01*
X110715730Y-65793271D01*
X110570972Y-65648513D01*
X110405373Y-65528200D01*
X110398765Y-65524833D01*
X110312676Y-65480968D01*
X110261882Y-65432996D01*
X110245087Y-65365175D01*
X110267624Y-65299040D01*
X110312676Y-65260001D01*
X110405369Y-65212772D01*
X110434555Y-65191567D01*
X110570972Y-65092456D01*
X110570974Y-65092453D01*
X110570978Y-65092451D01*
X110715725Y-64947704D01*
X110715727Y-64947700D01*
X110715730Y-64947698D01*
X110785995Y-64850985D01*
X110836046Y-64782095D01*
X110928979Y-64599704D01*
X110992236Y-64405019D01*
X111024259Y-64202837D01*
X111024259Y-63998133D01*
X110992236Y-63795951D01*
X110928979Y-63601266D01*
X110928977Y-63601263D01*
X110928977Y-63601261D01*
X110886315Y-63517533D01*
X110836046Y-63418875D01*
X110828315Y-63408234D01*
X110715730Y-63253271D01*
X110570972Y-63108513D01*
X110405373Y-62988200D01*
X110398765Y-62984833D01*
X110312676Y-62940968D01*
X110261882Y-62892996D01*
X110245087Y-62825175D01*
X110267624Y-62759040D01*
X110312676Y-62720001D01*
X110405369Y-62672772D01*
X110463511Y-62630530D01*
X110570972Y-62552456D01*
X110570974Y-62552453D01*
X110570978Y-62552451D01*
X110715725Y-62407704D01*
X110715727Y-62407700D01*
X110715730Y-62407698D01*
X110785995Y-62310985D01*
X110836046Y-62242095D01*
X110928979Y-62059704D01*
X110992236Y-61865019D01*
X111024259Y-61662837D01*
X111024259Y-61458133D01*
X111009529Y-61365135D01*
X110992236Y-61255950D01*
X110928977Y-61061261D01*
X110886315Y-60977533D01*
X110836046Y-60878875D01*
X110828315Y-60868234D01*
X110715730Y-60713271D01*
X110570972Y-60568513D01*
X110405373Y-60448200D01*
X110398765Y-60444833D01*
X110312676Y-60400968D01*
X110261882Y-60352996D01*
X110245087Y-60285175D01*
X110267624Y-60219040D01*
X110312676Y-60180001D01*
X110405369Y-60132772D01*
X110426529Y-60117398D01*
X110570972Y-60012456D01*
X110570974Y-60012453D01*
X110570978Y-60012451D01*
X110715725Y-59867704D01*
X110715727Y-59867700D01*
X110715730Y-59867698D01*
X110807791Y-59740985D01*
X110836046Y-59702095D01*
X110928979Y-59519704D01*
X110992236Y-59325019D01*
X111024259Y-59122837D01*
X111024259Y-58918133D01*
X110992236Y-58715951D01*
X110928979Y-58521266D01*
X110928977Y-58521263D01*
X110928977Y-58521261D01*
X110895262Y-58455092D01*
X110836046Y-58338875D01*
X110826254Y-58325398D01*
X110715730Y-58173271D01*
X110570972Y-58028513D01*
X110405373Y-57908200D01*
X110398765Y-57904833D01*
X110312676Y-57860968D01*
X110261882Y-57812996D01*
X110245087Y-57745175D01*
X110267624Y-57679040D01*
X110312676Y-57640001D01*
X110405369Y-57592772D01*
X110426529Y-57577398D01*
X110570972Y-57472456D01*
X110570974Y-57472453D01*
X110570978Y-57472451D01*
X110715725Y-57327704D01*
X110715727Y-57327700D01*
X110715730Y-57327698D01*
X110778065Y-57241900D01*
X110836046Y-57162095D01*
X110928979Y-56979704D01*
X110992236Y-56785019D01*
X111024259Y-56582837D01*
X111024259Y-56378133D01*
X110992236Y-56175951D01*
X110928979Y-55981266D01*
X110928977Y-55981263D01*
X110928977Y-55981261D01*
X110847643Y-55821636D01*
X110836046Y-55798875D01*
X110828315Y-55788234D01*
X110715730Y-55633271D01*
X110570972Y-55488513D01*
X110405373Y-55368200D01*
X110366509Y-55348398D01*
X110312676Y-55320968D01*
X110261882Y-55272996D01*
X110245087Y-55205175D01*
X110267624Y-55139040D01*
X110312676Y-55100001D01*
X110405369Y-55052772D01*
X110453888Y-55017521D01*
X110570972Y-54932456D01*
X110570974Y-54932453D01*
X110570978Y-54932451D01*
X110715725Y-54787704D01*
X110718409Y-54784009D01*
X110748859Y-54742100D01*
X110804188Y-54699434D01*
X110849177Y-54690985D01*
X124897679Y-54690985D01*
X124995221Y-54671581D01*
X125042672Y-54662143D01*
X125179254Y-54605569D01*
X125228488Y-54572671D01*
X125302175Y-54523437D01*
X135868308Y-43957304D01*
X135929631Y-43923819D01*
X135955989Y-43920985D01*
X136040448Y-43920985D01*
X136107487Y-43940670D01*
X136153242Y-43993474D01*
X136163186Y-44062632D01*
X136134161Y-44126188D01*
X136128129Y-44132666D01*
X136032964Y-44227830D01*
X136032960Y-44227835D01*
X135884891Y-44431636D01*
X135770519Y-44656101D01*
X135692669Y-44895699D01*
X135679469Y-44979040D01*
X135653259Y-45144523D01*
X135653259Y-45396447D01*
X135675993Y-45539985D01*
X135692669Y-45645270D01*
X135770519Y-45884868D01*
X135884891Y-46109333D01*
X136032960Y-46313134D01*
X136032964Y-46313139D01*
X136211104Y-46491279D01*
X136211109Y-46491283D01*
X136320129Y-46570490D01*
X136414914Y-46639355D01*
X136557943Y-46712232D01*
X136639375Y-46753724D01*
X136639377Y-46753724D01*
X136639380Y-46753726D01*
X136878974Y-46831575D01*
X137127797Y-46870985D01*
X137127798Y-46870985D01*
X138679720Y-46870985D01*
X138679721Y-46870985D01*
X138928544Y-46831575D01*
X139168138Y-46753726D01*
X139392604Y-46639355D01*
X139596415Y-46491278D01*
X139774552Y-46313141D01*
X139922629Y-46109330D01*
X140037000Y-45884864D01*
X140114849Y-45645270D01*
X140154259Y-45396447D01*
X140154259Y-45144523D01*
X140114849Y-44895700D01*
X140037000Y-44656106D01*
X140036998Y-44656103D01*
X140036998Y-44656101D01*
X139995506Y-44574669D01*
X139922629Y-44431640D01*
X139903711Y-44405602D01*
X139774557Y-44227835D01*
X139774553Y-44227830D01*
X139596417Y-44049694D01*
X139596415Y-44049692D01*
X139509004Y-43986184D01*
X139466340Y-43930855D01*
X139460361Y-43861241D01*
X139471406Y-43829572D01*
X139473279Y-43825894D01*
X139473283Y-43825890D01*
X139562643Y-43650510D01*
X139623468Y-43463311D01*
X139633023Y-43402985D01*
X139654259Y-43268907D01*
X139654259Y-43072062D01*
X139623468Y-42877658D01*
X139572392Y-42720464D01*
X139562643Y-42690460D01*
X139562641Y-42690457D01*
X139562641Y-42690455D01*
X139510197Y-42587528D01*
X139473283Y-42515080D01*
X139357587Y-42355839D01*
X139259560Y-42257812D01*
X139226075Y-42196489D01*
X139231059Y-42126797D01*
X139259560Y-42082450D01*
X139357202Y-41984807D01*
X139357203Y-41984806D01*
X139472854Y-41825628D01*
X139562177Y-41650322D01*
X139622977Y-41463201D01*
X139629743Y-41420485D01*
X138219445Y-41420485D01*
X138223839Y-41416091D01*
X138276500Y-41324879D01*
X138303759Y-41223146D01*
X138303759Y-41117824D01*
X138276500Y-41016091D01*
X138223839Y-40924879D01*
X138219445Y-40920485D01*
X139629743Y-40920485D01*
X139622977Y-40877768D01*
X139562177Y-40690647D01*
X139472854Y-40515341D01*
X139446575Y-40479171D01*
X139423095Y-40413364D01*
X139438920Y-40345310D01*
X139472579Y-40307021D01*
X139511305Y-40278031D01*
X139597555Y-40162816D01*
X139647850Y-40027968D01*
X139654259Y-39968358D01*
X139654258Y-38372613D01*
X139647850Y-38313002D01*
X139647848Y-38312999D01*
X139647089Y-38305930D01*
X139659495Y-38237170D01*
X139682697Y-38204995D01*
X139774552Y-38113141D01*
X139922629Y-37909330D01*
X140037000Y-37684864D01*
X140114849Y-37445270D01*
X140154259Y-37196447D01*
X140154259Y-37077643D01*
X144789235Y-37077643D01*
X144789235Y-37320220D01*
X144820896Y-37560717D01*
X144883682Y-37795036D01*
X144931026Y-37909333D01*
X144976511Y-38019144D01*
X145097799Y-38229221D01*
X145097801Y-38229224D01*
X145097802Y-38229225D01*
X145245468Y-38421668D01*
X145245474Y-38421675D01*
X145416991Y-38593192D01*
X145416997Y-38593197D01*
X145609446Y-38740868D01*
X145819523Y-38862156D01*
X146043635Y-38954986D01*
X146277946Y-39017770D01*
X146458321Y-39041516D01*
X146518446Y-39049432D01*
X146518447Y-39049432D01*
X146761024Y-39049432D01*
X146809123Y-39043099D01*
X147001524Y-39017770D01*
X147235835Y-38954986D01*
X147459947Y-38862156D01*
X147670024Y-38740868D01*
X147862473Y-38593197D01*
X148034000Y-38421670D01*
X148181671Y-38229221D01*
X148302959Y-38019144D01*
X148395789Y-37795032D01*
X148458573Y-37560721D01*
X148490235Y-37320220D01*
X148490235Y-37077644D01*
X148458573Y-36837143D01*
X148395789Y-36602832D01*
X148302959Y-36378720D01*
X148181671Y-36168643D01*
X148120753Y-36089253D01*
X148034001Y-35976195D01*
X148033995Y-35976188D01*
X147862478Y-35804671D01*
X147862471Y-35804665D01*
X147670028Y-35656999D01*
X147670027Y-35656998D01*
X147670024Y-35656996D01*
X147459947Y-35535708D01*
X147396422Y-35509395D01*
X147235839Y-35442879D01*
X147001520Y-35380093D01*
X146761024Y-35348432D01*
X146761023Y-35348432D01*
X146518447Y-35348432D01*
X146518446Y-35348432D01*
X146277949Y-35380093D01*
X146043630Y-35442879D01*
X145819529Y-35535705D01*
X145819520Y-35535709D01*
X145609441Y-35656999D01*
X145416998Y-35804665D01*
X145416991Y-35804671D01*
X145245474Y-35976188D01*
X145245468Y-35976195D01*
X145097802Y-36168638D01*
X144976512Y-36378717D01*
X144976508Y-36378726D01*
X144883682Y-36602827D01*
X144820896Y-36837146D01*
X144789235Y-37077643D01*
X140154259Y-37077643D01*
X140154259Y-36944523D01*
X140114849Y-36695700D01*
X140037000Y-36456106D01*
X140036998Y-36456103D01*
X140036998Y-36456101D01*
X139995506Y-36374669D01*
X139922629Y-36231640D01*
X139876859Y-36168643D01*
X139774557Y-36027835D01*
X139774553Y-36027830D01*
X139596413Y-35849690D01*
X139596408Y-35849686D01*
X139392607Y-35701617D01*
X139392606Y-35701616D01*
X139392604Y-35701615D01*
X139305034Y-35656996D01*
X139168142Y-35587245D01*
X138928544Y-35509395D01*
X138679721Y-35469985D01*
X137127797Y-35469985D01*
X137065948Y-35479781D01*
X136878973Y-35509395D01*
X136639375Y-35587245D01*
X136414910Y-35701617D01*
X136211109Y-35849686D01*
X136211104Y-35849690D01*
X136032964Y-36027830D01*
X136032960Y-36027835D01*
X135884891Y-36231636D01*
X135770519Y-36456101D01*
X135692669Y-36695699D01*
X135653259Y-36944523D01*
X135653259Y-37196446D01*
X135692669Y-37445270D01*
X135770519Y-37684868D01*
X135884891Y-37909333D01*
X136032960Y-38113134D01*
X136032964Y-38113139D01*
X136124820Y-38204995D01*
X136158305Y-38266318D01*
X136160428Y-38305931D01*
X136153260Y-38372601D01*
X136153259Y-38372620D01*
X136153259Y-39968355D01*
X136153260Y-39968361D01*
X136159667Y-40027968D01*
X136209961Y-40162813D01*
X136209965Y-40162820D01*
X136296211Y-40278029D01*
X136296212Y-40278029D01*
X136296213Y-40278031D01*
X136327354Y-40301343D01*
X136334936Y-40307019D01*
X136376806Y-40362953D01*
X136381790Y-40432645D01*
X136360943Y-40479169D01*
X136334669Y-40515333D01*
X136334664Y-40515340D01*
X136245340Y-40690647D01*
X136184540Y-40877768D01*
X136177775Y-40920485D01*
X137588073Y-40920485D01*
X137583679Y-40924879D01*
X137531018Y-41016091D01*
X137503759Y-41117824D01*
X137503759Y-41223146D01*
X137531018Y-41324879D01*
X137583679Y-41416091D01*
X137588073Y-41420485D01*
X136177775Y-41420485D01*
X136184540Y-41463201D01*
X136245340Y-41650322D01*
X136334663Y-41825628D01*
X136450314Y-41984806D01*
X136547957Y-42082449D01*
X136581442Y-42143772D01*
X136576458Y-42213464D01*
X136547958Y-42257810D01*
X136449934Y-42355835D01*
X136449930Y-42355839D01*
X136440462Y-42368872D01*
X136385131Y-42411537D01*
X136340145Y-42419985D01*
X135519839Y-42419985D01*
X135374851Y-42448825D01*
X135374841Y-42448828D01*
X135238268Y-42505398D01*
X135200725Y-42530484D01*
X135200724Y-42530484D01*
X135115348Y-42587528D01*
X135115343Y-42587532D01*
X124549210Y-53153666D01*
X124487887Y-53187151D01*
X124461529Y-53189985D01*
X110849177Y-53189985D01*
X110782138Y-53170300D01*
X110748859Y-53138870D01*
X110715730Y-53093272D01*
X110715726Y-53093267D01*
X110570972Y-52948513D01*
X110405373Y-52828200D01*
X110398765Y-52824833D01*
X110312676Y-52780968D01*
X110261882Y-52732996D01*
X110245087Y-52665175D01*
X110267624Y-52599040D01*
X110312676Y-52560001D01*
X110405369Y-52512772D01*
X110492715Y-52449312D01*
X110570972Y-52392456D01*
X110570974Y-52392453D01*
X110570978Y-52392451D01*
X110715725Y-52247704D01*
X110715727Y-52247700D01*
X110715730Y-52247698D01*
X110768491Y-52175075D01*
X110836046Y-52082095D01*
X110928979Y-51899704D01*
X110992236Y-51705019D01*
X111024259Y-51502837D01*
X111024259Y-51298133D01*
X110992236Y-51095951D01*
X110928979Y-50901266D01*
X110928977Y-50901263D01*
X110928977Y-50901261D01*
X110888927Y-50822660D01*
X110836046Y-50718875D01*
X110826383Y-50705575D01*
X110715730Y-50553271D01*
X110570972Y-50408513D01*
X110405372Y-50288200D01*
X110405371Y-50288199D01*
X110405369Y-50288198D01*
X110312126Y-50240688D01*
X110222982Y-50195266D01*
X110028293Y-50132007D01*
X109853754Y-50104363D01*
X109826111Y-50099985D01*
X108621407Y-50099985D01*
X108597088Y-50103836D01*
X108419224Y-50132007D01*
X108224535Y-50195266D01*
X108042145Y-50288200D01*
X107876545Y-50408513D01*
X107731787Y-50553271D01*
X107611474Y-50718871D01*
X107518540Y-50901261D01*
X107455281Y-51095950D01*
X107423259Y-51298133D01*
X107423259Y-51502836D01*
X107455281Y-51705019D01*
X107518540Y-51899708D01*
X107611474Y-52082098D01*
X107731787Y-52247698D01*
X107876545Y-52392456D01*
X108031508Y-52505041D01*
X108042149Y-52512772D01*
X108133599Y-52559368D01*
X108134839Y-52560000D01*
X108185635Y-52607975D01*
X108202430Y-52675796D01*
X108179893Y-52741931D01*
X108134839Y-52780970D01*
X108042145Y-52828200D01*
X107876545Y-52948513D01*
X107731787Y-53093271D01*
X107611474Y-53258871D01*
X107518540Y-53441261D01*
X107455281Y-53635950D01*
X107423259Y-53838133D01*
X107423259Y-54042836D01*
X107455281Y-54245019D01*
X107518540Y-54439708D01*
X107611474Y-54622098D01*
X107731787Y-54787698D01*
X107876545Y-54932456D01*
X108031508Y-55045041D01*
X108042149Y-55052772D01*
X108128731Y-55096888D01*
X108134839Y-55100000D01*
X108185635Y-55147975D01*
X108202430Y-55215796D01*
X108179893Y-55281931D01*
X108134839Y-55320970D01*
X108042145Y-55368200D01*
X107876545Y-55488513D01*
X107731787Y-55633271D01*
X107611474Y-55798871D01*
X107518540Y-55981261D01*
X107455281Y-56175950D01*
X107423259Y-56378133D01*
X107423259Y-56582836D01*
X107455281Y-56785019D01*
X107518540Y-56979708D01*
X107570144Y-57080985D01*
X107610065Y-57159334D01*
X107611474Y-57162098D01*
X107731787Y-57327698D01*
X107876545Y-57472456D01*
X108029304Y-57583440D01*
X108042149Y-57592772D01*
X108120259Y-57632571D01*
X108134839Y-57640000D01*
X108185635Y-57687975D01*
X108202430Y-57755796D01*
X108179893Y-57821931D01*
X108134839Y-57860970D01*
X108042145Y-57908200D01*
X107876545Y-58028513D01*
X107731787Y-58173271D01*
X107611474Y-58338871D01*
X107518540Y-58521261D01*
X107455281Y-58715950D01*
X107423259Y-58918133D01*
X107423259Y-59122836D01*
X107455281Y-59325019D01*
X107518540Y-59519708D01*
X107611474Y-59702098D01*
X107731787Y-59867698D01*
X107876545Y-60012456D01*
X108031508Y-60125041D01*
X108042149Y-60132772D01*
X108133599Y-60179368D01*
X108134839Y-60180000D01*
X108185635Y-60227975D01*
X108202430Y-60295796D01*
X108179893Y-60361931D01*
X108134839Y-60400970D01*
X108042145Y-60448200D01*
X107876545Y-60568513D01*
X107731787Y-60713271D01*
X107611474Y-60878871D01*
X107518540Y-61061261D01*
X107455281Y-61255950D01*
X107423259Y-61458133D01*
X107423259Y-61662836D01*
X107455281Y-61865019D01*
X107518540Y-62059708D01*
X107611474Y-62242098D01*
X107731787Y-62407698D01*
X107876545Y-62552456D01*
X107984007Y-62630530D01*
X108042149Y-62672772D01*
X108133599Y-62719368D01*
X108134839Y-62720000D01*
X108185635Y-62767975D01*
X108202430Y-62835796D01*
X108179893Y-62901931D01*
X108134839Y-62940970D01*
X108042145Y-62988200D01*
X107876545Y-63108513D01*
X107731791Y-63253267D01*
X107731787Y-63253272D01*
X107698659Y-63298870D01*
X107643330Y-63341536D01*
X107598341Y-63349985D01*
X107235988Y-63349985D01*
X107168949Y-63330300D01*
X107148307Y-63313666D01*
X105220578Y-61385936D01*
X105187093Y-61324613D01*
X105184259Y-61298255D01*
X105184259Y-49312715D01*
X105203944Y-49245676D01*
X105220578Y-49225034D01*
X107368308Y-47077304D01*
X107429631Y-47043819D01*
X107455989Y-47040985D01*
X113537096Y-47040985D01*
X113604135Y-47060670D01*
X113638671Y-47093862D01*
X113663713Y-47129626D01*
X113824617Y-47290530D01*
X113824620Y-47290532D01*
X114011025Y-47421053D01*
X114217263Y-47517224D01*
X114217268Y-47517225D01*
X114217270Y-47517226D01*
X114258431Y-47528255D01*
X114437067Y-47576120D01*
X114583852Y-47588962D01*
X114663757Y-47595953D01*
X114663759Y-47595953D01*
X114663761Y-47595953D01*
X114743666Y-47588962D01*
X114890451Y-47576120D01*
X115110255Y-47517224D01*
X115316493Y-47421053D01*
X115502898Y-47290532D01*
X115663806Y-47129624D01*
X115794327Y-46943219D01*
X115890498Y-46736981D01*
X115949394Y-46517177D01*
X115969227Y-46290485D01*
X115949394Y-46063793D01*
X115890711Y-45844783D01*
X115890500Y-45843996D01*
X115890497Y-45843987D01*
X115855726Y-45769421D01*
X115794327Y-45637751D01*
X115663806Y-45451346D01*
X115663804Y-45451343D01*
X115502900Y-45290439D01*
X115316493Y-45159917D01*
X115316491Y-45159916D01*
X115110256Y-45063746D01*
X115110247Y-45063743D01*
X114890456Y-45004851D01*
X114890452Y-45004850D01*
X114890451Y-45004850D01*
X114890450Y-45004849D01*
X114890445Y-45004849D01*
X114663761Y-44985017D01*
X114663757Y-44985017D01*
X114437072Y-45004849D01*
X114437061Y-45004851D01*
X114217270Y-45063743D01*
X114217261Y-45063746D01*
X114011026Y-45159916D01*
X114011024Y-45159917D01*
X113824617Y-45290439D01*
X113663713Y-45451343D01*
X113638671Y-45487108D01*
X113584094Y-45530733D01*
X113537096Y-45539985D01*
X107019839Y-45539985D01*
X106874851Y-45568825D01*
X106874841Y-45568828D01*
X106738268Y-45625398D01*
X106738263Y-45625401D01*
X106718098Y-45638874D01*
X106718099Y-45638875D01*
X106615338Y-45707536D01*
X106615337Y-45707537D01*
X103850809Y-48472067D01*
X103850802Y-48472074D01*
X103802085Y-48544988D01*
X103802084Y-48544990D01*
X103794680Y-48556071D01*
X103768675Y-48594989D01*
X103768671Y-48594996D01*
X103712102Y-48731567D01*
X103712099Y-48731577D01*
X103683259Y-48876564D01*
X103683259Y-48876567D01*
X103683259Y-61734403D01*
X103683259Y-61734405D01*
X103683258Y-61734405D01*
X103712099Y-61879392D01*
X103712102Y-61879402D01*
X103768671Y-62015973D01*
X103768679Y-62015987D01*
X103796103Y-62057029D01*
X103796104Y-62057032D01*
X103850805Y-62138899D01*
X103850811Y-62138906D01*
X106290808Y-64578901D01*
X106395343Y-64683436D01*
X106395344Y-64683437D01*
X106518257Y-64765565D01*
X106518270Y-64765572D01*
X106654841Y-64822141D01*
X106654846Y-64822143D01*
X106654850Y-64822143D01*
X106654851Y-64822144D01*
X106799838Y-64850985D01*
X106799841Y-64850985D01*
X106799842Y-64850985D01*
X106947676Y-64850985D01*
X107598341Y-64850985D01*
X107665380Y-64870670D01*
X107698659Y-64902100D01*
X107731787Y-64947697D01*
X107731791Y-64947702D01*
X107876545Y-65092456D01*
X108012969Y-65191572D01*
X108042149Y-65212772D01*
X108133599Y-65259368D01*
X108134839Y-65260000D01*
X108185635Y-65307975D01*
X108202430Y-65375796D01*
X108179893Y-65441931D01*
X108134839Y-65480970D01*
X108042145Y-65528200D01*
X107876545Y-65648513D01*
X107731791Y-65793267D01*
X107731787Y-65793272D01*
X107698659Y-65838870D01*
X107643330Y-65881536D01*
X107598341Y-65889985D01*
X104609841Y-65889985D01*
X104595426Y-65892852D01*
X104525834Y-65886623D01*
X104483556Y-65858915D01*
X102760578Y-64135936D01*
X102727093Y-64074613D01*
X102724259Y-64048255D01*
X102724259Y-49262714D01*
X102743944Y-49195675D01*
X102760578Y-49175033D01*
X110008307Y-41927304D01*
X110069630Y-41893819D01*
X110095988Y-41890985D01*
X113537096Y-41890985D01*
X113604135Y-41910670D01*
X113638671Y-41943862D01*
X113663713Y-41979626D01*
X113824617Y-42140530D01*
X113824620Y-42140532D01*
X114011025Y-42271053D01*
X114217263Y-42367224D01*
X114437067Y-42426120D01*
X114598989Y-42440286D01*
X114663757Y-42445953D01*
X114663759Y-42445953D01*
X114663761Y-42445953D01*
X114720432Y-42440994D01*
X114890451Y-42426120D01*
X115110255Y-42367224D01*
X115316493Y-42271053D01*
X115502898Y-42140532D01*
X115663806Y-41979624D01*
X115794327Y-41793219D01*
X115890498Y-41586981D01*
X115949394Y-41367177D01*
X115967519Y-41160003D01*
X115969227Y-41140486D01*
X115969227Y-41140483D01*
X115954413Y-40971163D01*
X115949394Y-40913793D01*
X115890498Y-40693989D01*
X115794327Y-40487751D01*
X115663806Y-40301346D01*
X115663804Y-40301343D01*
X115502900Y-40140439D01*
X115316493Y-40009917D01*
X115316491Y-40009916D01*
X115110256Y-39913746D01*
X115110247Y-39913743D01*
X114890456Y-39854851D01*
X114890452Y-39854850D01*
X114890451Y-39854850D01*
X114890450Y-39854849D01*
X114890445Y-39854849D01*
X114663761Y-39835017D01*
X114663757Y-39835017D01*
X114437072Y-39854849D01*
X114437061Y-39854851D01*
X114217270Y-39913743D01*
X114217261Y-39913746D01*
X114011026Y-40009916D01*
X114011024Y-40009917D01*
X113824617Y-40140439D01*
X113663713Y-40301343D01*
X113638671Y-40337108D01*
X113584094Y-40380733D01*
X113537096Y-40389985D01*
X109659839Y-40389985D01*
X109514851Y-40418825D01*
X109514841Y-40418828D01*
X109378270Y-40475397D01*
X109378257Y-40475404D01*
X109255343Y-40557533D01*
X109255339Y-40557536D01*
X101390804Y-48422071D01*
X101366926Y-48457809D01*
X101357399Y-48472069D01*
X101357396Y-48472074D01*
X101308676Y-48544988D01*
X101308673Y-48544991D01*
X101252102Y-48681567D01*
X101252099Y-48681577D01*
X101223259Y-48826564D01*
X101223259Y-48826567D01*
X101223259Y-64484403D01*
X101223259Y-64484405D01*
X101223258Y-64484405D01*
X101252099Y-64629392D01*
X101252102Y-64629402D01*
X101308672Y-64765975D01*
X101308675Y-64765980D01*
X101319440Y-64782090D01*
X101319441Y-64782095D01*
X101319443Y-64782095D01*
X101390810Y-64888905D01*
X101390811Y-64888906D01*
X103856466Y-67354559D01*
X103856476Y-67354570D01*
X103860806Y-67358900D01*
X103860807Y-67358901D01*
X103965343Y-67463437D01*
X104039029Y-67512671D01*
X104088264Y-67545569D01*
X104224846Y-67602143D01*
X104253680Y-67607877D01*
X104253687Y-67607881D01*
X104253688Y-67607879D01*
X104369840Y-67630985D01*
X104369842Y-67630985D01*
X104517678Y-67630985D01*
X104615220Y-67611581D01*
X104662671Y-67602143D01*
X104799253Y-67545569D01*
X104922175Y-67463437D01*
X104958307Y-67427305D01*
X105019629Y-67393819D01*
X105045989Y-67390985D01*
X107598341Y-67390985D01*
X107665380Y-67410670D01*
X107698659Y-67442100D01*
X107731787Y-67487697D01*
X107731791Y-67487702D01*
X107876545Y-67632456D01*
X108031508Y-67745041D01*
X108042149Y-67752772D01*
X108109072Y-67786871D01*
X108134839Y-67800000D01*
X108185635Y-67847975D01*
X108202430Y-67915796D01*
X108179893Y-67981931D01*
X108134839Y-68020970D01*
X108042145Y-68068200D01*
X107876545Y-68188513D01*
X107731791Y-68333267D01*
X107731787Y-68333272D01*
X107698659Y-68378870D01*
X107643330Y-68421536D01*
X107598341Y-68429985D01*
X103185988Y-68429985D01*
X103118949Y-68410300D01*
X103098307Y-68393666D01*
X100250578Y-65545936D01*
X100217093Y-65484613D01*
X100214259Y-65458255D01*
X100214259Y-49182715D01*
X100233944Y-49115676D01*
X100250578Y-49095034D01*
X112568308Y-36777304D01*
X112629631Y-36743819D01*
X112655989Y-36740985D01*
X113537096Y-36740985D01*
X113604135Y-36760670D01*
X113638671Y-36793862D01*
X113663713Y-36829626D01*
X113824617Y-36990530D01*
X113824620Y-36990532D01*
X114011025Y-37121053D01*
X114217263Y-37217224D01*
X114217268Y-37217225D01*
X114217270Y-37217226D01*
X114225391Y-37219402D01*
X114437067Y-37276120D01*
X114598989Y-37290286D01*
X114663757Y-37295953D01*
X114663759Y-37295953D01*
X114663761Y-37295953D01*
X114720432Y-37290994D01*
X114890451Y-37276120D01*
X115110255Y-37217224D01*
X115316493Y-37121053D01*
X115502898Y-36990532D01*
X115663806Y-36829624D01*
X115794327Y-36643219D01*
X115890498Y-36436981D01*
X115949394Y-36217177D01*
X115969227Y-35990485D01*
X115969227Y-35990483D01*
X120978291Y-35990483D01*
X120978291Y-35990486D01*
X120998123Y-36217171D01*
X120998125Y-36217182D01*
X121057017Y-36436973D01*
X121057020Y-36436982D01*
X121153190Y-36643217D01*
X121153191Y-36643219D01*
X121283713Y-36829626D01*
X121444618Y-36990531D01*
X121487437Y-37020513D01*
X121531062Y-37075090D01*
X121537931Y-37097895D01*
X121562100Y-37219393D01*
X121562102Y-37219402D01*
X121618672Y-37355975D01*
X121618673Y-37355977D01*
X121618674Y-37355979D01*
X121618675Y-37355980D01*
X121647806Y-37399577D01*
X121678336Y-37445270D01*
X121700807Y-37478901D01*
X124969345Y-40747439D01*
X125003838Y-40770485D01*
X125025548Y-40784991D01*
X125092264Y-40829569D01*
X125092266Y-40829569D01*
X125092268Y-40829571D01*
X125101353Y-40833334D01*
X125101358Y-40833335D01*
X125228847Y-40886144D01*
X125345000Y-40909248D01*
X125364227Y-40913072D01*
X125373840Y-40914985D01*
X125373841Y-40914985D01*
X125373842Y-40914985D01*
X125521677Y-40914985D01*
X126154074Y-40914985D01*
X126221113Y-40934670D01*
X126257882Y-40971163D01*
X126294776Y-41027634D01*
X126416629Y-41160003D01*
X126447551Y-41222658D01*
X126439690Y-41292084D01*
X126416629Y-41327967D01*
X126294776Y-41460335D01*
X126257882Y-41516807D01*
X126204736Y-41562163D01*
X126154074Y-41572985D01*
X123828988Y-41572985D01*
X123761949Y-41553300D01*
X123741312Y-41536670D01*
X123610473Y-41405831D01*
X123576990Y-41344510D01*
X123574628Y-41307348D01*
X123589227Y-41140485D01*
X123587244Y-41117824D01*
X123574413Y-40971163D01*
X123569394Y-40913793D01*
X123510498Y-40693989D01*
X123414327Y-40487751D01*
X123283806Y-40301346D01*
X123283804Y-40301343D01*
X123122900Y-40140439D01*
X122936493Y-40009917D01*
X122936491Y-40009916D01*
X122730256Y-39913746D01*
X122730247Y-39913743D01*
X122510456Y-39854851D01*
X122510452Y-39854850D01*
X122510451Y-39854850D01*
X122510450Y-39854849D01*
X122510445Y-39854849D01*
X122283761Y-39835017D01*
X122283757Y-39835017D01*
X122057072Y-39854849D01*
X122057061Y-39854851D01*
X121837270Y-39913743D01*
X121837261Y-39913746D01*
X121631026Y-40009916D01*
X121631024Y-40009917D01*
X121444617Y-40140439D01*
X121283713Y-40301343D01*
X121153191Y-40487750D01*
X121153190Y-40487752D01*
X121057020Y-40693987D01*
X121057017Y-40693996D01*
X120998125Y-40913787D01*
X120998123Y-40913798D01*
X120978291Y-41140483D01*
X120978291Y-41140486D01*
X120998123Y-41367171D01*
X120998125Y-41367182D01*
X121057017Y-41586973D01*
X121057020Y-41586982D01*
X121153190Y-41793217D01*
X121153191Y-41793219D01*
X121283713Y-41979626D01*
X121444617Y-42140530D01*
X121444620Y-42140532D01*
X121631025Y-42271053D01*
X121837263Y-42367224D01*
X122057067Y-42426120D01*
X122218989Y-42440286D01*
X122283757Y-42445953D01*
X122283759Y-42445953D01*
X122283760Y-42445953D01*
X122303821Y-42444197D01*
X122450620Y-42431354D01*
X122519118Y-42445120D01*
X122549107Y-42467201D01*
X122772362Y-42690455D01*
X122988344Y-42906437D01*
X123022698Y-42929391D01*
X123022700Y-42929393D01*
X123022701Y-42929393D01*
X123111264Y-42988569D01*
X123111266Y-42988569D01*
X123111268Y-42988571D01*
X123120353Y-42992334D01*
X123120358Y-42992335D01*
X123247847Y-43045144D01*
X123364000Y-43068248D01*
X123383174Y-43072062D01*
X123392840Y-43073985D01*
X123392841Y-43073985D01*
X123392842Y-43073985D01*
X123540677Y-43073985D01*
X126154074Y-43073985D01*
X126221113Y-43093670D01*
X126257882Y-43130163D01*
X126294776Y-43186634D01*
X126416629Y-43319003D01*
X126447551Y-43381658D01*
X126439690Y-43451084D01*
X126416629Y-43486967D01*
X126294778Y-43619334D01*
X126167834Y-43813636D01*
X126074601Y-44026184D01*
X126017625Y-44251176D01*
X126017623Y-44251187D01*
X125998459Y-44482478D01*
X125998459Y-44482491D01*
X126017624Y-44713788D01*
X126019214Y-44720066D01*
X126016588Y-44789886D01*
X125986689Y-44838186D01*
X125321210Y-45503666D01*
X125259887Y-45537151D01*
X125233529Y-45539985D01*
X123410422Y-45539985D01*
X123343383Y-45520300D01*
X123308847Y-45487108D01*
X123283804Y-45451343D01*
X123122900Y-45290439D01*
X122936493Y-45159917D01*
X122936491Y-45159916D01*
X122730256Y-45063746D01*
X122730247Y-45063743D01*
X122510456Y-45004851D01*
X122510452Y-45004850D01*
X122510451Y-45004850D01*
X122510450Y-45004849D01*
X122510445Y-45004849D01*
X122283761Y-44985017D01*
X122283757Y-44985017D01*
X122057072Y-45004849D01*
X122057061Y-45004851D01*
X121837270Y-45063743D01*
X121837261Y-45063746D01*
X121631026Y-45159916D01*
X121631024Y-45159917D01*
X121444617Y-45290439D01*
X121283713Y-45451343D01*
X121153191Y-45637750D01*
X121153190Y-45637752D01*
X121057020Y-45843987D01*
X121057017Y-45843996D01*
X120998125Y-46063787D01*
X120998123Y-46063798D01*
X120978291Y-46290483D01*
X120978291Y-46290486D01*
X120998123Y-46517171D01*
X120998125Y-46517182D01*
X121057017Y-46736973D01*
X121057020Y-46736982D01*
X121153190Y-46943217D01*
X121153191Y-46943219D01*
X121283713Y-47129626D01*
X121444617Y-47290530D01*
X121444620Y-47290532D01*
X121631025Y-47421053D01*
X121837263Y-47517224D01*
X121837268Y-47517225D01*
X121837270Y-47517226D01*
X121878431Y-47528255D01*
X122057067Y-47576120D01*
X122203852Y-47588962D01*
X122283757Y-47595953D01*
X122283759Y-47595953D01*
X122283761Y-47595953D01*
X122363666Y-47588962D01*
X122510451Y-47576120D01*
X122730255Y-47517224D01*
X122936493Y-47421053D01*
X123122898Y-47290532D01*
X123283806Y-47129624D01*
X123308847Y-47093862D01*
X123363424Y-47050237D01*
X123410422Y-47040985D01*
X125669679Y-47040985D01*
X125767221Y-47021581D01*
X125814672Y-47012143D01*
X125951254Y-46955569D01*
X126000488Y-46922671D01*
X126074175Y-46873437D01*
X127051396Y-45896213D01*
X127112717Y-45862730D01*
X127159480Y-45861587D01*
X127287710Y-45882985D01*
X127287711Y-45882985D01*
X127519807Y-45882985D01*
X127519808Y-45882985D01*
X127748740Y-45844783D01*
X127751033Y-45843996D01*
X127757198Y-45841879D01*
X127968262Y-45769421D01*
X128172385Y-45658955D01*
X128355543Y-45516398D01*
X128512738Y-45345638D01*
X128639683Y-45151334D01*
X128732916Y-44938785D01*
X128789893Y-44713790D01*
X128794673Y-44656106D01*
X128809059Y-44482491D01*
X128809059Y-44482478D01*
X128789894Y-44251187D01*
X128789892Y-44251176D01*
X128732916Y-44026184D01*
X128639683Y-43813636D01*
X128512742Y-43619337D01*
X128512739Y-43619334D01*
X128512738Y-43619332D01*
X128390887Y-43486965D01*
X128359966Y-43424313D01*
X128367826Y-43354887D01*
X128390886Y-43319005D01*
X128512738Y-43186638D01*
X128639683Y-42992334D01*
X128732916Y-42779785D01*
X128789893Y-42554790D01*
X128789894Y-42554782D01*
X128809059Y-42323491D01*
X128809059Y-42323478D01*
X128789894Y-42092187D01*
X128789892Y-42092176D01*
X128732916Y-41867184D01*
X128639683Y-41654636D01*
X128512742Y-41460337D01*
X128512739Y-41460334D01*
X128512738Y-41460332D01*
X128390887Y-41327965D01*
X128359966Y-41265313D01*
X128367826Y-41195887D01*
X128390886Y-41160005D01*
X128512738Y-41027638D01*
X128639683Y-40833334D01*
X128732916Y-40620785D01*
X128789893Y-40395790D01*
X128791141Y-40380733D01*
X128809059Y-40164491D01*
X128809059Y-40164478D01*
X128789894Y-39933187D01*
X128789892Y-39933176D01*
X128732916Y-39708184D01*
X128639684Y-39495639D01*
X128639683Y-39495636D01*
X128608349Y-39447676D01*
X128588163Y-39380788D01*
X128607343Y-39313603D01*
X128637845Y-39280592D01*
X128661305Y-39263031D01*
X128747555Y-39147816D01*
X128797850Y-39012968D01*
X128804259Y-38953358D01*
X128804258Y-37057613D01*
X128797850Y-36998002D01*
X128747555Y-36863154D01*
X128747554Y-36863153D01*
X128747552Y-36863149D01*
X128661306Y-36747940D01*
X128661303Y-36747937D01*
X128546094Y-36661691D01*
X128546087Y-36661687D01*
X128411241Y-36611393D01*
X128411242Y-36611393D01*
X128351642Y-36604986D01*
X128351640Y-36604985D01*
X128351632Y-36604985D01*
X128351623Y-36604985D01*
X126455888Y-36604985D01*
X126455882Y-36604986D01*
X126396275Y-36611393D01*
X126261430Y-36661687D01*
X126261423Y-36661691D01*
X126146214Y-36747937D01*
X126146211Y-36747940D01*
X126059965Y-36863149D01*
X126059961Y-36863156D01*
X126009667Y-36998002D01*
X126003798Y-37052597D01*
X126003260Y-37057608D01*
X126003259Y-37057620D01*
X126003259Y-38953355D01*
X126003260Y-38953361D01*
X126009667Y-39012968D01*
X126059961Y-39147813D01*
X126059965Y-39147820D01*
X126110761Y-39215674D01*
X126135179Y-39281138D01*
X126120328Y-39349411D01*
X126070923Y-39398817D01*
X126011495Y-39413985D01*
X125809989Y-39413985D01*
X125742950Y-39394300D01*
X125722308Y-39377666D01*
X123312266Y-36967624D01*
X123278781Y-36906301D01*
X123283765Y-36836609D01*
X123298369Y-36808825D01*
X123414327Y-36643219D01*
X123510498Y-36436981D01*
X123569394Y-36217177D01*
X123589227Y-35990485D01*
X123569394Y-35763793D01*
X123510498Y-35543989D01*
X123414327Y-35337751D01*
X123283806Y-35151346D01*
X123283804Y-35151343D01*
X123122900Y-34990439D01*
X122936493Y-34859917D01*
X122936491Y-34859916D01*
X122730256Y-34763746D01*
X122730247Y-34763743D01*
X122510456Y-34704851D01*
X122510452Y-34704850D01*
X122510451Y-34704850D01*
X122510450Y-34704849D01*
X122510445Y-34704849D01*
X122283761Y-34685017D01*
X122283757Y-34685017D01*
X122057072Y-34704849D01*
X122057061Y-34704851D01*
X121837270Y-34763743D01*
X121837261Y-34763746D01*
X121631026Y-34859916D01*
X121631024Y-34859917D01*
X121444617Y-34990439D01*
X121283713Y-35151343D01*
X121153191Y-35337750D01*
X121153190Y-35337752D01*
X121057020Y-35543987D01*
X121057017Y-35543996D01*
X120998125Y-35763787D01*
X120998123Y-35763798D01*
X120978291Y-35990483D01*
X115969227Y-35990483D01*
X115949394Y-35763793D01*
X115890498Y-35543989D01*
X115794327Y-35337751D01*
X115663806Y-35151346D01*
X115663804Y-35151343D01*
X115502900Y-34990439D01*
X115316493Y-34859917D01*
X115316491Y-34859916D01*
X115110256Y-34763746D01*
X115110247Y-34763743D01*
X114890456Y-34704851D01*
X114890452Y-34704850D01*
X114890451Y-34704850D01*
X114890450Y-34704849D01*
X114890445Y-34704849D01*
X114663761Y-34685017D01*
X114663757Y-34685017D01*
X114437072Y-34704849D01*
X114437061Y-34704851D01*
X114217270Y-34763743D01*
X114217261Y-34763746D01*
X114011026Y-34859916D01*
X114011024Y-34859917D01*
X113824617Y-34990439D01*
X113663713Y-35151343D01*
X113638671Y-35187108D01*
X113584094Y-35230733D01*
X113537096Y-35239985D01*
X112219839Y-35239985D01*
X112074851Y-35268825D01*
X112074841Y-35268828D01*
X111938268Y-35325398D01*
X111903796Y-35348432D01*
X111815341Y-35407534D01*
X98880808Y-48342067D01*
X98880807Y-48342069D01*
X98832416Y-48414493D01*
X98827354Y-48422069D01*
X98798675Y-48464989D01*
X98798671Y-48464996D01*
X98742102Y-48601567D01*
X98742099Y-48601577D01*
X98713259Y-48746564D01*
X98713259Y-48746567D01*
X98713259Y-65894403D01*
X98713259Y-65894405D01*
X98713258Y-65894405D01*
X91069206Y-65894405D01*
X90995730Y-65793271D01*
X90850972Y-65648513D01*
X90685373Y-65528200D01*
X90678765Y-65524833D01*
X90592676Y-65480968D01*
X90541882Y-65432996D01*
X90525087Y-65365175D01*
X90547624Y-65299040D01*
X90592676Y-65260001D01*
X90685369Y-65212772D01*
X90714555Y-65191567D01*
X90850972Y-65092456D01*
X90850974Y-65092453D01*
X90850978Y-65092451D01*
X90995725Y-64947704D01*
X90995727Y-64947700D01*
X90995730Y-64947698D01*
X91065995Y-64850985D01*
X91116046Y-64782095D01*
X91208979Y-64599704D01*
X91272236Y-64405019D01*
X91304259Y-64202837D01*
X91304259Y-63998133D01*
X91272236Y-63795951D01*
X91208979Y-63601266D01*
X91208977Y-63601263D01*
X91208977Y-63601261D01*
X91166315Y-63517533D01*
X91116046Y-63418875D01*
X91108315Y-63408234D01*
X90995730Y-63253271D01*
X90850972Y-63108513D01*
X90685373Y-62988200D01*
X90678765Y-62984833D01*
X90592676Y-62940968D01*
X90541882Y-62892996D01*
X90525087Y-62825175D01*
X90547624Y-62759040D01*
X90592676Y-62720001D01*
X90685369Y-62672772D01*
X90743511Y-62630530D01*
X90850972Y-62552456D01*
X90850974Y-62552453D01*
X90850978Y-62552451D01*
X90995725Y-62407704D01*
X90995727Y-62407700D01*
X90995730Y-62407698D01*
X91065995Y-62310985D01*
X91116046Y-62242095D01*
X91208979Y-62059704D01*
X91272236Y-61865019D01*
X91304259Y-61662837D01*
X91304259Y-61458133D01*
X91289529Y-61365135D01*
X91272236Y-61255950D01*
X91208977Y-61061261D01*
X91166315Y-60977533D01*
X91116046Y-60878875D01*
X91108315Y-60868234D01*
X90995730Y-60713271D01*
X90850972Y-60568513D01*
X90685373Y-60448200D01*
X90678765Y-60444833D01*
X90592676Y-60400968D01*
X90541882Y-60352996D01*
X90525087Y-60285175D01*
X90547624Y-60219040D01*
X90592676Y-60180001D01*
X90685369Y-60132772D01*
X90706529Y-60117398D01*
X90850972Y-60012456D01*
X90850974Y-60012453D01*
X90850978Y-60012451D01*
X90995725Y-59867704D01*
X90995727Y-59867700D01*
X90995730Y-59867698D01*
X91087791Y-59740985D01*
X91116046Y-59702095D01*
X91208979Y-59519704D01*
X91272236Y-59325019D01*
X91304259Y-59122837D01*
X91304259Y-58918133D01*
X91272236Y-58715951D01*
X91208979Y-58521266D01*
X91208977Y-58521263D01*
X91208977Y-58521261D01*
X91175262Y-58455092D01*
X91116046Y-58338875D01*
X91106254Y-58325398D01*
X90995730Y-58173271D01*
X90850972Y-58028513D01*
X90685373Y-57908200D01*
X90678765Y-57904833D01*
X90592676Y-57860968D01*
X90541882Y-57812996D01*
X90525087Y-57745175D01*
X90547624Y-57679040D01*
X90592676Y-57640001D01*
X90685369Y-57592772D01*
X90706529Y-57577398D01*
X90850972Y-57472456D01*
X90850974Y-57472453D01*
X90850978Y-57472451D01*
X90995725Y-57327704D01*
X90995727Y-57327700D01*
X90995730Y-57327698D01*
X91058065Y-57241900D01*
X91116046Y-57162095D01*
X91208979Y-56979704D01*
X91272236Y-56785019D01*
X91304259Y-56582837D01*
X91304259Y-56378133D01*
X91272236Y-56175951D01*
X91208979Y-55981266D01*
X91208977Y-55981263D01*
X91208977Y-55981261D01*
X91127643Y-55821636D01*
X91116046Y-55798875D01*
X91108315Y-55788234D01*
X90995730Y-55633271D01*
X90850972Y-55488513D01*
X90685373Y-55368200D01*
X90646509Y-55348398D01*
X90592676Y-55320968D01*
X90541882Y-55272996D01*
X90525087Y-55205175D01*
X90547624Y-55139040D01*
X90592676Y-55100001D01*
X90685369Y-55052772D01*
X90733888Y-55017521D01*
X90850972Y-54932456D01*
X90850974Y-54932453D01*
X90850978Y-54932451D01*
X90995725Y-54787704D01*
X90995727Y-54787700D01*
X90995730Y-54787698D01*
X91065995Y-54690985D01*
X91116046Y-54622095D01*
X91208979Y-54439704D01*
X91272236Y-54245019D01*
X91304259Y-54042837D01*
X91304259Y-53838133D01*
X91272236Y-53635951D01*
X91208979Y-53441266D01*
X91208977Y-53441263D01*
X91208977Y-53441261D01*
X91166315Y-53357533D01*
X91116046Y-53258875D01*
X91086949Y-53218826D01*
X90995730Y-53093271D01*
X90850972Y-52948513D01*
X90685373Y-52828200D01*
X90678765Y-52824833D01*
X90592676Y-52780968D01*
X90541882Y-52732996D01*
X90525087Y-52665175D01*
X90547624Y-52599040D01*
X90592676Y-52560001D01*
X90685369Y-52512772D01*
X90772715Y-52449312D01*
X90850972Y-52392456D01*
X90850974Y-52392453D01*
X90850978Y-52392451D01*
X90995725Y-52247704D01*
X90995727Y-52247700D01*
X90995730Y-52247698D01*
X91048491Y-52175075D01*
X91116046Y-52082095D01*
X91208979Y-51899704D01*
X91272236Y-51705019D01*
X91304259Y-51502837D01*
X91304259Y-51298133D01*
X91272236Y-51095951D01*
X91208979Y-50901266D01*
X91208977Y-50901263D01*
X91208977Y-50901261D01*
X91168927Y-50822660D01*
X91116046Y-50718875D01*
X91106383Y-50705575D01*
X90995730Y-50553271D01*
X90850972Y-50408513D01*
X90685370Y-50288198D01*
X90592128Y-50240688D01*
X90541333Y-50192714D01*
X90524538Y-50124892D01*
X90547076Y-50058758D01*
X90592130Y-50019719D01*
X90685106Y-49972346D01*
X90850653Y-49852067D01*
X90850654Y-49852067D01*
X90995341Y-49707380D01*
X90995341Y-49707379D01*
X91115618Y-49541834D01*
X91208514Y-49359514D01*
X91271749Y-49164898D01*
X91280368Y-49110485D01*
X89636771Y-49110485D01*
X89669684Y-49053478D01*
X89703759Y-48926311D01*
X89703759Y-48794659D01*
X89669684Y-48667492D01*
X89636771Y-48610485D01*
X91280368Y-48610485D01*
X91271749Y-48556071D01*
X91208514Y-48361455D01*
X91115618Y-48179135D01*
X90995341Y-48013590D01*
X90995341Y-48013589D01*
X90850654Y-47868902D01*
X90685108Y-47748625D01*
X90592129Y-47701250D01*
X90541333Y-47653275D01*
X90524538Y-47585454D01*
X90547075Y-47519320D01*
X90592129Y-47480280D01*
X90685369Y-47432772D01*
X90706529Y-47417398D01*
X90850972Y-47312456D01*
X90850974Y-47312453D01*
X90850978Y-47312451D01*
X90995725Y-47167704D01*
X90995727Y-47167700D01*
X90995730Y-47167698D01*
X91073976Y-47060000D01*
X91116046Y-47002095D01*
X91208979Y-46819704D01*
X91272236Y-46625019D01*
X91304259Y-46422837D01*
X91304259Y-46218133D01*
X91290359Y-46130375D01*
X91272236Y-46015950D01*
X91233331Y-45896215D01*
X91208979Y-45821266D01*
X91208977Y-45821263D01*
X91208977Y-45821261D01*
X91151031Y-45707537D01*
X91116046Y-45638875D01*
X91106254Y-45625398D01*
X90995730Y-45473271D01*
X90850972Y-45328513D01*
X90685373Y-45208200D01*
X90653804Y-45192115D01*
X90592676Y-45160968D01*
X90541882Y-45112996D01*
X90525087Y-45045175D01*
X90547624Y-44979040D01*
X90592676Y-44940001D01*
X90685369Y-44892772D01*
X90829073Y-44788366D01*
X90850972Y-44772456D01*
X90850974Y-44772453D01*
X90850978Y-44772451D01*
X90995725Y-44627704D01*
X90995727Y-44627700D01*
X90995730Y-44627698D01*
X91048491Y-44555075D01*
X91116046Y-44462095D01*
X91208979Y-44279704D01*
X91272236Y-44085019D01*
X91304259Y-43882837D01*
X91304259Y-43678133D01*
X91299884Y-43650510D01*
X91272236Y-43475950D01*
X91208977Y-43281261D01*
X91175262Y-43215092D01*
X91116046Y-43098875D01*
X91096570Y-43072068D01*
X90995730Y-42933271D01*
X90850978Y-42788519D01*
X90838957Y-42779785D01*
X90757306Y-42720463D01*
X90714641Y-42665134D01*
X90708662Y-42595521D01*
X90741267Y-42533725D01*
X90791185Y-42502440D01*
X90873093Y-42475299D01*
X91022415Y-42383197D01*
X91146471Y-42259141D01*
X91238573Y-42109819D01*
X91293758Y-41943282D01*
X91304259Y-41840494D01*
X91304258Y-40640477D01*
X91302246Y-40620785D01*
X91293758Y-40537688D01*
X91293757Y-40537685D01*
X91286353Y-40515341D01*
X91238573Y-40371151D01*
X91146471Y-40221829D01*
X91022415Y-40097773D01*
X90929647Y-40040554D01*
X90873095Y-40005672D01*
X90873090Y-40005670D01*
X90871621Y-40005183D01*
X90706556Y-39950486D01*
X90706554Y-39950485D01*
X90603769Y-39939985D01*
X88403757Y-39939985D01*
X88403740Y-39939986D01*
X88300962Y-39950485D01*
X88300959Y-39950486D01*
X88134427Y-40005670D01*
X88134422Y-40005672D01*
X87985101Y-40097774D01*
X87861048Y-40221827D01*
X87768946Y-40371148D01*
X87768944Y-40371153D01*
X87748568Y-40432645D01*
X87713760Y-40537688D01*
X87713760Y-40537689D01*
X87713759Y-40537689D01*
X87703259Y-40640468D01*
X87703259Y-41840486D01*
X87703260Y-41840503D01*
X87713759Y-41943281D01*
X87713760Y-41943284D01*
X87768944Y-42109816D01*
X87768946Y-42109821D01*
X87787889Y-42140532D01*
X87861047Y-42259141D01*
X87985103Y-42383197D01*
X88134425Y-42475299D01*
X88216329Y-42502439D01*
X88273774Y-42542212D01*
X88300597Y-42606728D01*
X88288282Y-42675503D01*
X88250210Y-42720463D01*
X88156546Y-42788513D01*
X88156541Y-42788517D01*
X88011787Y-42933271D01*
X87891474Y-43098871D01*
X87798540Y-43281261D01*
X87735281Y-43475950D01*
X87703259Y-43678133D01*
X87703259Y-43882836D01*
X87735281Y-44085019D01*
X87798540Y-44279708D01*
X87862450Y-44405138D01*
X87875954Y-44431640D01*
X87891474Y-44462098D01*
X88011787Y-44627698D01*
X88156545Y-44772456D01*
X88311508Y-44885041D01*
X88322149Y-44892772D01*
X88412454Y-44938785D01*
X88414839Y-44940000D01*
X88465635Y-44987975D01*
X88482430Y-45055796D01*
X88459893Y-45121931D01*
X88414839Y-45160970D01*
X88322145Y-45208200D01*
X88156545Y-45328513D01*
X88011787Y-45473271D01*
X87891474Y-45638871D01*
X87798540Y-45821261D01*
X87735281Y-46015950D01*
X87703259Y-46218133D01*
X87703259Y-46422836D01*
X87735281Y-46625019D01*
X87798540Y-46819708D01*
X87891474Y-47002098D01*
X88011787Y-47167698D01*
X88156545Y-47312456D01*
X88306018Y-47421052D01*
X88322149Y-47432772D01*
X88394183Y-47469475D01*
X88415388Y-47480280D01*
X88466184Y-47528255D01*
X88482979Y-47596076D01*
X88460441Y-47662211D01*
X88415388Y-47701250D01*
X88322409Y-47748625D01*
X88156864Y-47868902D01*
X88156863Y-47868902D01*
X88012176Y-48013589D01*
X88012176Y-48013590D01*
X87891899Y-48179135D01*
X87799003Y-48361455D01*
X87735768Y-48556071D01*
X87727150Y-48610485D01*
X88770747Y-48610485D01*
X88737834Y-48667492D01*
X88703759Y-48794659D01*
X88703759Y-48926311D01*
X88737834Y-49053478D01*
X88770747Y-49110485D01*
X87727150Y-49110485D01*
X87735768Y-49164898D01*
X87799003Y-49359514D01*
X87891899Y-49541834D01*
X88012176Y-49707379D01*
X88012176Y-49707380D01*
X88156863Y-49852067D01*
X88322411Y-49972346D01*
X88415387Y-50019719D01*
X88466184Y-50067693D01*
X88482979Y-50135514D01*
X88460442Y-50201649D01*
X88415389Y-50240688D01*
X88322150Y-50288196D01*
X88310995Y-50296302D01*
X88245189Y-50319783D01*
X88238108Y-50319985D01*
X82492895Y-50319985D01*
X82425856Y-50300300D01*
X82389086Y-50263807D01*
X82311923Y-50145700D01*
X82143503Y-49962747D01*
X81947268Y-49810011D01*
X81947266Y-49810010D01*
X81947265Y-49810009D01*
X81728570Y-49691657D01*
X81728561Y-49691654D01*
X81493375Y-49610914D01*
X81248094Y-49569985D01*
X80999424Y-49569985D01*
X80754142Y-49610914D01*
X80518956Y-49691654D01*
X80518947Y-49691657D01*
X80300252Y-49810009D01*
X80104016Y-49962746D01*
X79935595Y-50145700D01*
X79858432Y-50263807D01*
X79805285Y-50309163D01*
X79754623Y-50319985D01*
X75992895Y-50319985D01*
X75925856Y-50300300D01*
X75889086Y-50263807D01*
X75811923Y-50145700D01*
X75643503Y-49962747D01*
X75447268Y-49810011D01*
X75447266Y-49810010D01*
X75447265Y-49810009D01*
X75228570Y-49691657D01*
X75228561Y-49691654D01*
X74993375Y-49610914D01*
X74748094Y-49569985D01*
X74499424Y-49569985D01*
X74254142Y-49610914D01*
X74018956Y-49691654D01*
X74018947Y-49691657D01*
X73800252Y-49810009D01*
X73604016Y-49962746D01*
X73435592Y-50145702D01*
X73299585Y-50353878D01*
X73199695Y-50581603D01*
X73138651Y-50822660D01*
X73138649Y-50822672D01*
X73118116Y-51070479D01*
X73118116Y-51070490D01*
X73138649Y-51318297D01*
X73138651Y-51318309D01*
X73199695Y-51559366D01*
X73299585Y-51787091D01*
X73435592Y-51995267D01*
X73435594Y-51995269D01*
X73435595Y-51995270D01*
X73604015Y-52178223D01*
X73800250Y-52330959D01*
X74018949Y-52449313D01*
X74254145Y-52530056D01*
X74499424Y-52570985D01*
X74748094Y-52570985D01*
X74993373Y-52530056D01*
X75228569Y-52449313D01*
X75447268Y-52330959D01*
X75643503Y-52178223D01*
X75811923Y-51995270D01*
X75889086Y-51877162D01*
X75942233Y-51831807D01*
X75992895Y-51820985D01*
X79754623Y-51820985D01*
X79821662Y-51840670D01*
X79858431Y-51877162D01*
X79935595Y-51995270D01*
X80104015Y-52178223D01*
X80300250Y-52330959D01*
X80518949Y-52449313D01*
X80754145Y-52530056D01*
X80999424Y-52570985D01*
X81248094Y-52570985D01*
X81493373Y-52530056D01*
X81728569Y-52449313D01*
X81947268Y-52330959D01*
X82143503Y-52178223D01*
X82311923Y-51995270D01*
X82389086Y-51877162D01*
X82442233Y-51831807D01*
X82492895Y-51820985D01*
X87683078Y-51820985D01*
X87750117Y-51840670D01*
X87795872Y-51893474D01*
X87797639Y-51897533D01*
X87798535Y-51899697D01*
X87891474Y-52082098D01*
X88011787Y-52247698D01*
X88156545Y-52392456D01*
X88311508Y-52505041D01*
X88322149Y-52512772D01*
X88413599Y-52559368D01*
X88414839Y-52560000D01*
X88465635Y-52607975D01*
X88482430Y-52675796D01*
X88459893Y-52741931D01*
X88414839Y-52780970D01*
X88322145Y-52828200D01*
X88156545Y-52948513D01*
X88011791Y-53093267D01*
X88011787Y-53093272D01*
X87978659Y-53138870D01*
X87923330Y-53181536D01*
X87878341Y-53189985D01*
X63749835Y-53189985D01*
X63721001Y-53195719D01*
X63721002Y-53195720D01*
X63604852Y-53218824D01*
X63604842Y-53218827D01*
X63524840Y-53251964D01*
X63524841Y-53251965D01*
X63468265Y-53275400D01*
X63427404Y-53302703D01*
X63345341Y-53357534D01*
X63345338Y-53357537D01*
X61626121Y-55076753D01*
X61564798Y-55110238D01*
X61518031Y-55111381D01*
X61389808Y-55089985D01*
X61157710Y-55089985D01*
X61116355Y-55096886D01*
X60928774Y-55128187D01*
X60709263Y-55203546D01*
X60709254Y-55203549D01*
X60505131Y-55314016D01*
X60327782Y-55452052D01*
X60262788Y-55477694D01*
X60194248Y-55464127D01*
X60143923Y-55415659D01*
X60135438Y-55397530D01*
X60117114Y-55348400D01*
X60117109Y-55348391D01*
X60030949Y-55233297D01*
X60030946Y-55233294D01*
X59915852Y-55147134D01*
X59915845Y-55147130D01*
X59781138Y-55096888D01*
X59781131Y-55096886D01*
X59721603Y-55090485D01*
X59023759Y-55090485D01*
X59023759Y-56057473D01*
X58966752Y-56024560D01*
X58839585Y-55990485D01*
X58707933Y-55990485D01*
X58580766Y-56024560D01*
X58523759Y-56057473D01*
X58523759Y-55090485D01*
X57825914Y-55090485D01*
X57766386Y-55096886D01*
X57766379Y-55096888D01*
X57631672Y-55147130D01*
X57631665Y-55147134D01*
X57516571Y-55233294D01*
X57516568Y-55233297D01*
X57430408Y-55348391D01*
X57430404Y-55348398D01*
X57380162Y-55483105D01*
X57380160Y-55483112D01*
X57373759Y-55542640D01*
X51161835Y-55542640D01*
X51161835Y-48990479D01*
X54018315Y-48990479D01*
X54018315Y-48990490D01*
X54038069Y-49304489D01*
X54038070Y-49304496D01*
X54048565Y-49359514D01*
X54096522Y-49610914D01*
X54097029Y-49613568D01*
X54194256Y-49912801D01*
X54194258Y-49912806D01*
X54328220Y-50197488D01*
X54328223Y-50197494D01*
X54496810Y-50463146D01*
X54496813Y-50463150D01*
X54697365Y-50705575D01*
X54697367Y-50705577D01*
X54926727Y-50920961D01*
X54926737Y-50920969D01*
X55181263Y-51105893D01*
X55181268Y-51105895D01*
X55181275Y-51105901D01*
X55456993Y-51257479D01*
X55456998Y-51257481D01*
X55457000Y-51257482D01*
X55457001Y-51257483D01*
X55749530Y-51373303D01*
X55749533Y-51373304D01*
X56054282Y-51451550D01*
X56054286Y-51451551D01*
X56119769Y-51459823D01*
X56366429Y-51490984D01*
X56366438Y-51490984D01*
X56366441Y-51490985D01*
X56366443Y-51490985D01*
X56681075Y-51490985D01*
X56681077Y-51490985D01*
X56681080Y-51490984D01*
X56681088Y-51490984D01*
X56867352Y-51467453D01*
X56993232Y-51451551D01*
X57297984Y-51373304D01*
X57436886Y-51318309D01*
X57590516Y-51257483D01*
X57590517Y-51257482D01*
X57590515Y-51257482D01*
X57590525Y-51257479D01*
X57866243Y-51105901D01*
X58120789Y-50920963D01*
X58350149Y-50705579D01*
X58550706Y-50463148D01*
X58719296Y-50197492D01*
X58853262Y-49912800D01*
X58950490Y-49613564D01*
X59009447Y-49304500D01*
X59014447Y-49225034D01*
X59029203Y-48990490D01*
X59029203Y-48990479D01*
X63518315Y-48990479D01*
X63518315Y-48990490D01*
X63538069Y-49304489D01*
X63538070Y-49304496D01*
X63548565Y-49359514D01*
X63596522Y-49610914D01*
X63597029Y-49613568D01*
X63694256Y-49912801D01*
X63694258Y-49912806D01*
X63828220Y-50197488D01*
X63828223Y-50197494D01*
X63996810Y-50463146D01*
X63996813Y-50463150D01*
X64197365Y-50705575D01*
X64197367Y-50705577D01*
X64426727Y-50920961D01*
X64426737Y-50920969D01*
X64681263Y-51105893D01*
X64681268Y-51105895D01*
X64681275Y-51105901D01*
X64956993Y-51257479D01*
X64956998Y-51257481D01*
X64957000Y-51257482D01*
X64957001Y-51257483D01*
X65249530Y-51373303D01*
X65249533Y-51373304D01*
X65554282Y-51451550D01*
X65554286Y-51451551D01*
X65619769Y-51459823D01*
X65866429Y-51490984D01*
X65866438Y-51490984D01*
X65866441Y-51490985D01*
X65866443Y-51490985D01*
X66181075Y-51490985D01*
X66181077Y-51490985D01*
X66181080Y-51490984D01*
X66181088Y-51490984D01*
X66367352Y-51467453D01*
X66493232Y-51451551D01*
X66797984Y-51373304D01*
X66936886Y-51318309D01*
X67090516Y-51257483D01*
X67090517Y-51257482D01*
X67090515Y-51257482D01*
X67090525Y-51257479D01*
X67366243Y-51105901D01*
X67620789Y-50920963D01*
X67850149Y-50705579D01*
X68050706Y-50463148D01*
X68219296Y-50197492D01*
X68353262Y-49912800D01*
X68450490Y-49613564D01*
X68509447Y-49304500D01*
X68514447Y-49225034D01*
X68529203Y-48990490D01*
X68529203Y-48990479D01*
X68509448Y-48676480D01*
X68509447Y-48676473D01*
X68509447Y-48676470D01*
X68450490Y-48367406D01*
X68353262Y-48068170D01*
X68219296Y-47783478D01*
X68116175Y-47620985D01*
X68050707Y-47517823D01*
X68050704Y-47517819D01*
X67850152Y-47275394D01*
X67850150Y-47275392D01*
X67620790Y-47060008D01*
X67620780Y-47060000D01*
X67366254Y-46875076D01*
X67366247Y-46875071D01*
X67366243Y-46875069D01*
X67090525Y-46723491D01*
X67090522Y-46723489D01*
X67090517Y-46723487D01*
X67090516Y-46723486D01*
X66797987Y-46607666D01*
X66797984Y-46607665D01*
X66653154Y-46570479D01*
X73118618Y-46570479D01*
X73118618Y-46570490D01*
X73139144Y-46818214D01*
X73139146Y-46818223D01*
X73200171Y-47059202D01*
X73300026Y-47286852D01*
X73400321Y-47440366D01*
X74099971Y-46740718D01*
X74111241Y-46782777D01*
X74183649Y-46908193D01*
X74286051Y-47010595D01*
X74411467Y-47083003D01*
X74453525Y-47094272D01*
X73753702Y-47794094D01*
X73800527Y-47830540D01*
X73800530Y-47830542D01*
X74019144Y-47948849D01*
X74019155Y-47948854D01*
X74254265Y-48029568D01*
X74499466Y-48070485D01*
X74748052Y-48070485D01*
X74993252Y-48029568D01*
X75228362Y-47948854D01*
X75228373Y-47948849D01*
X75446989Y-47830541D01*
X75446995Y-47830536D01*
X75493814Y-47794095D01*
X75493815Y-47794094D01*
X74793992Y-47094272D01*
X74836051Y-47083003D01*
X74961467Y-47010595D01*
X75063869Y-46908193D01*
X75136277Y-46782777D01*
X75147546Y-46740718D01*
X75847194Y-47440367D01*
X75947492Y-47286849D01*
X76047346Y-47059202D01*
X76108371Y-46818223D01*
X76108373Y-46818214D01*
X76128900Y-46570490D01*
X76128900Y-46570479D01*
X79618618Y-46570479D01*
X79618618Y-46570490D01*
X79639144Y-46818214D01*
X79639146Y-46818223D01*
X79700171Y-47059202D01*
X79800026Y-47286852D01*
X79900321Y-47440366D01*
X80599971Y-46740718D01*
X80611241Y-46782777D01*
X80683649Y-46908193D01*
X80786051Y-47010595D01*
X80911467Y-47083003D01*
X80953525Y-47094272D01*
X80253702Y-47794094D01*
X80300527Y-47830540D01*
X80300530Y-47830542D01*
X80519144Y-47948849D01*
X80519155Y-47948854D01*
X80754265Y-48029568D01*
X80999466Y-48070485D01*
X81248052Y-48070485D01*
X81493252Y-48029568D01*
X81728362Y-47948854D01*
X81728373Y-47948849D01*
X81946989Y-47830541D01*
X81946995Y-47830536D01*
X81993814Y-47794095D01*
X81993815Y-47794094D01*
X81293992Y-47094272D01*
X81336051Y-47083003D01*
X81461467Y-47010595D01*
X81563869Y-46908193D01*
X81636277Y-46782777D01*
X81647546Y-46740719D01*
X82347194Y-47440367D01*
X82447492Y-47286849D01*
X82547346Y-47059202D01*
X82608371Y-46818223D01*
X82608373Y-46818214D01*
X82628900Y-46570490D01*
X82628900Y-46570479D01*
X82608373Y-46322755D01*
X82608371Y-46322746D01*
X82547346Y-46081767D01*
X82447491Y-45854117D01*
X82347194Y-45700601D01*
X81647546Y-46400250D01*
X81636277Y-46358193D01*
X81563869Y-46232777D01*
X81461467Y-46130375D01*
X81336051Y-46057967D01*
X81293992Y-46046697D01*
X81993814Y-45346874D01*
X81993814Y-45346873D01*
X81946995Y-45310432D01*
X81946990Y-45310429D01*
X81728373Y-45192120D01*
X81728362Y-45192115D01*
X81493252Y-45111401D01*
X81248052Y-45070485D01*
X80999466Y-45070485D01*
X80754265Y-45111401D01*
X80519155Y-45192115D01*
X80519144Y-45192120D01*
X80300529Y-45310428D01*
X80253702Y-45346874D01*
X80953525Y-46046697D01*
X80911467Y-46057967D01*
X80786051Y-46130375D01*
X80683649Y-46232777D01*
X80611241Y-46358193D01*
X80599971Y-46400251D01*
X79900322Y-45700602D01*
X79800026Y-45854118D01*
X79800024Y-45854122D01*
X79700171Y-46081767D01*
X79639146Y-46322746D01*
X79639144Y-46322755D01*
X79618618Y-46570479D01*
X76128900Y-46570479D01*
X76108373Y-46322755D01*
X76108371Y-46322746D01*
X76047346Y-46081767D01*
X75947491Y-45854117D01*
X75847194Y-45700601D01*
X75147546Y-46400250D01*
X75136277Y-46358193D01*
X75063869Y-46232777D01*
X74961467Y-46130375D01*
X74836051Y-46057967D01*
X74793992Y-46046697D01*
X75493814Y-45346874D01*
X75493814Y-45346873D01*
X75446995Y-45310432D01*
X75446990Y-45310429D01*
X75228373Y-45192120D01*
X75228362Y-45192115D01*
X74993252Y-45111401D01*
X74748052Y-45070485D01*
X74499466Y-45070485D01*
X74254265Y-45111401D01*
X74019155Y-45192115D01*
X74019144Y-45192120D01*
X73800529Y-45310428D01*
X73753702Y-45346874D01*
X74453525Y-46046697D01*
X74411467Y-46057967D01*
X74286051Y-46130375D01*
X74183649Y-46232777D01*
X74111241Y-46358193D01*
X74099971Y-46400251D01*
X73400322Y-45700602D01*
X73300026Y-45854118D01*
X73300024Y-45854122D01*
X73200171Y-46081767D01*
X73139146Y-46322746D01*
X73139144Y-46322755D01*
X73118618Y-46570479D01*
X66653154Y-46570479D01*
X66493235Y-46529419D01*
X66493222Y-46529417D01*
X66181088Y-46489985D01*
X66181077Y-46489985D01*
X65866441Y-46489985D01*
X65866429Y-46489985D01*
X65554295Y-46529417D01*
X65554282Y-46529419D01*
X65249533Y-46607665D01*
X65249530Y-46607666D01*
X64957001Y-46723486D01*
X64957000Y-46723487D01*
X64681275Y-46875069D01*
X64681263Y-46875076D01*
X64426737Y-47060000D01*
X64426727Y-47060008D01*
X64197367Y-47275392D01*
X64197365Y-47275394D01*
X63996813Y-47517819D01*
X63996810Y-47517823D01*
X63828223Y-47783475D01*
X63828220Y-47783481D01*
X63694258Y-48068163D01*
X63694256Y-48068168D01*
X63597029Y-48367401D01*
X63538070Y-48676473D01*
X63538069Y-48676480D01*
X63518315Y-48990479D01*
X59029203Y-48990479D01*
X59009448Y-48676480D01*
X59009447Y-48676473D01*
X59009447Y-48676470D01*
X58950490Y-48367406D01*
X58853262Y-48068170D01*
X58719296Y-47783478D01*
X58616175Y-47620985D01*
X58550707Y-47517823D01*
X58550704Y-47517819D01*
X58350152Y-47275394D01*
X58350150Y-47275392D01*
X58120790Y-47060008D01*
X58120780Y-47060000D01*
X57866254Y-46875076D01*
X57866247Y-46875071D01*
X57866243Y-46875069D01*
X57590525Y-46723491D01*
X57590522Y-46723489D01*
X57590517Y-46723487D01*
X57590516Y-46723486D01*
X57297987Y-46607666D01*
X57297984Y-46607665D01*
X56993235Y-46529419D01*
X56993222Y-46529417D01*
X56681088Y-46489985D01*
X56681077Y-46489985D01*
X56366441Y-46489985D01*
X56366429Y-46489985D01*
X56054295Y-46529417D01*
X56054282Y-46529419D01*
X55749533Y-46607665D01*
X55749530Y-46607666D01*
X55457001Y-46723486D01*
X55457000Y-46723487D01*
X55181275Y-46875069D01*
X55181263Y-46875076D01*
X54926737Y-47060000D01*
X54926727Y-47060008D01*
X54697367Y-47275392D01*
X54697365Y-47275394D01*
X54496813Y-47517819D01*
X54496810Y-47517823D01*
X54328223Y-47783475D01*
X54328220Y-47783481D01*
X54194258Y-48068163D01*
X54194256Y-48068168D01*
X54097029Y-48367401D01*
X54038070Y-48676473D01*
X54038069Y-48676480D01*
X54018315Y-48990479D01*
X51161835Y-48990479D01*
X51161835Y-37189823D01*
X51161836Y-37189820D01*
X51161835Y-37126976D01*
X51161984Y-37120893D01*
X51164109Y-37077643D01*
X52789235Y-37077643D01*
X52789235Y-37320220D01*
X52820896Y-37560717D01*
X52883682Y-37795036D01*
X52931026Y-37909333D01*
X52976511Y-38019144D01*
X53097799Y-38229221D01*
X53097801Y-38229224D01*
X53097802Y-38229225D01*
X53245468Y-38421668D01*
X53245474Y-38421675D01*
X53416991Y-38593192D01*
X53416997Y-38593197D01*
X53609446Y-38740868D01*
X53819523Y-38862156D01*
X54043635Y-38954986D01*
X54277946Y-39017770D01*
X54458321Y-39041516D01*
X54518446Y-39049432D01*
X54518447Y-39049432D01*
X54761024Y-39049432D01*
X54809123Y-39043099D01*
X55001524Y-39017770D01*
X55235835Y-38954986D01*
X55459947Y-38862156D01*
X55670024Y-38740868D01*
X55862473Y-38593197D01*
X56034000Y-38421670D01*
X56181671Y-38229221D01*
X56302959Y-38019144D01*
X56395789Y-37795032D01*
X56458573Y-37560721D01*
X56490235Y-37320220D01*
X56490235Y-37077644D01*
X56458573Y-36837143D01*
X56395789Y-36602832D01*
X56302959Y-36378720D01*
X56181671Y-36168643D01*
X56120753Y-36089253D01*
X56034001Y-35976195D01*
X56033995Y-35976188D01*
X55862478Y-35804671D01*
X55862471Y-35804665D01*
X55670028Y-35656999D01*
X55670027Y-35656998D01*
X55670024Y-35656996D01*
X55459947Y-35535708D01*
X55396422Y-35509395D01*
X55235839Y-35442879D01*
X55001520Y-35380093D01*
X54761024Y-35348432D01*
X54761023Y-35348432D01*
X54518447Y-35348432D01*
X54518446Y-35348432D01*
X54277949Y-35380093D01*
X54043630Y-35442879D01*
X53819529Y-35535705D01*
X53819520Y-35535709D01*
X53609441Y-35656999D01*
X53416998Y-35804665D01*
X53416991Y-35804671D01*
X53245474Y-35976188D01*
X53245468Y-35976195D01*
X53097802Y-36168638D01*
X52976512Y-36378717D01*
X52976508Y-36378726D01*
X52883682Y-36602827D01*
X52820896Y-36837146D01*
X52789235Y-37077643D01*
X51164109Y-37077643D01*
X51164234Y-37075090D01*
X51178384Y-36786993D01*
X51179577Y-36774888D01*
X51183574Y-36747940D01*
X51228179Y-36447227D01*
X51230552Y-36435299D01*
X51311039Y-36113970D01*
X51314560Y-36102359D01*
X51426163Y-35790448D01*
X51430817Y-35779214D01*
X51435501Y-35769312D01*
X51572441Y-35479773D01*
X51578168Y-35469057D01*
X51748474Y-35184917D01*
X51755214Y-35174829D01*
X51952557Y-34908742D01*
X51960260Y-34899357D01*
X52182730Y-34653899D01*
X52191300Y-34645329D01*
X52436759Y-34422859D01*
X52446144Y-34415156D01*
X52712232Y-34217812D01*
X52722320Y-34211072D01*
X53006459Y-34040767D01*
X53017175Y-34035040D01*
X53316624Y-33893412D01*
X53327850Y-33888762D01*
X53639768Y-33777157D01*
X53651373Y-33773638D01*
X53972703Y-33693151D01*
X53984629Y-33690779D01*
X54312295Y-33642176D01*
X54324395Y-33640984D01*
X54658363Y-33624580D01*
X54664437Y-33624432D01*
X54727223Y-33624433D01*
X54727227Y-33624432D01*
X146595439Y-33624432D01*
X146658278Y-33624432D01*
X146664363Y-33624581D01*
G37*
G04 #@! TD.AperFunction*
M02*
