G04 #@! TF.GenerationSoftware,KiCad,Pcbnew,8.0.8*
G04 #@! TF.CreationDate,2025-02-12T12:00:37+01:00*
G04 #@! TF.ProjectId,tesi,74657369-2e6b-4696-9361-645f70636258,rev?*
G04 #@! TF.SameCoordinates,Original*
G04 #@! TF.FileFunction,Legend,Top*
G04 #@! TF.FilePolarity,Positive*
%FSLAX46Y46*%
G04 Gerber Fmt 4.6, Leading zero omitted, Abs format (unit mm)*
G04 Created by KiCad (PCBNEW 8.0.8) date 2025-02-12 12:00:37*
%MOMM*%
%LPD*%
G01*
G04 APERTURE LIST*
G04 Aperture macros list*
%AMRoundRect*
0 Rectangle with rounded corners*
0 $1 Rounding radius*
0 $2 $3 $4 $5 $6 $7 $8 $9 X,Y pos of 4 corners*
0 Add a 4 corners polygon primitive as box body*
4,1,4,$2,$3,$4,$5,$6,$7,$8,$9,$2,$3,0*
0 Add four circle primitives for the rounded corners*
1,1,$1+$1,$2,$3*
1,1,$1+$1,$4,$5*
1,1,$1+$1,$6,$7*
1,1,$1+$1,$8,$9*
0 Add four rect primitives between the rounded corners*
20,1,$1+$1,$2,$3,$4,$5,0*
20,1,$1+$1,$4,$5,$6,$7,0*
20,1,$1+$1,$6,$7,$8,$9,0*
20,1,$1+$1,$8,$9,$2,$3,0*%
G04 Aperture macros list end*
%ADD10C,0.150000*%
%ADD11C,0.152400*%
%ADD12C,0.100000*%
%ADD13C,0.300000*%
%ADD14C,0.120000*%
%ADD15C,1.600000*%
%ADD16O,1.600000X1.600000*%
%ADD17RoundRect,0.250000X-1.050000X-0.550000X1.050000X-0.550000X1.050000X0.550000X-1.050000X0.550000X0*%
%ADD18O,2.600000X1.600000*%
%ADD19C,8.000000*%
%ADD20C,3.200000*%
%ADD21O,3.500000X2.200000*%
%ADD22R,2.500000X1.500000*%
%ADD23O,2.500000X1.500000*%
%ADD24R,1.700000X1.700000*%
%ADD25O,1.700000X1.700000*%
%ADD26C,1.524000*%
%ADD27R,1.800000X1.800000*%
%ADD28C,1.800000*%
%ADD29C,2.000000*%
%ADD30O,4.000000X4.000000*%
G04 APERTURE END LIST*
D10*
X133465718Y-38756779D02*
X134465718Y-38756779D01*
X134465718Y-38756779D02*
X134465718Y-39137731D01*
X134465718Y-39137731D02*
X134418099Y-39232969D01*
X134418099Y-39232969D02*
X134370480Y-39280588D01*
X134370480Y-39280588D02*
X134275242Y-39328207D01*
X134275242Y-39328207D02*
X134132385Y-39328207D01*
X134132385Y-39328207D02*
X134037147Y-39280588D01*
X134037147Y-39280588D02*
X133989528Y-39232969D01*
X133989528Y-39232969D02*
X133941909Y-39137731D01*
X133941909Y-39137731D02*
X133941909Y-38756779D01*
X134465718Y-39947255D02*
X134465718Y-40137731D01*
X134465718Y-40137731D02*
X134418099Y-40232969D01*
X134418099Y-40232969D02*
X134322861Y-40328207D01*
X134322861Y-40328207D02*
X134132385Y-40375826D01*
X134132385Y-40375826D02*
X133799052Y-40375826D01*
X133799052Y-40375826D02*
X133608576Y-40328207D01*
X133608576Y-40328207D02*
X133513338Y-40232969D01*
X133513338Y-40232969D02*
X133465718Y-40137731D01*
X133465718Y-40137731D02*
X133465718Y-39947255D01*
X133465718Y-39947255D02*
X133513338Y-39852017D01*
X133513338Y-39852017D02*
X133608576Y-39756779D01*
X133608576Y-39756779D02*
X133799052Y-39709160D01*
X133799052Y-39709160D02*
X134132385Y-39709160D01*
X134132385Y-39709160D02*
X134322861Y-39756779D01*
X134322861Y-39756779D02*
X134418099Y-39852017D01*
X134418099Y-39852017D02*
X134465718Y-39947255D01*
X134465718Y-40709160D02*
X133465718Y-40947255D01*
X133465718Y-40947255D02*
X134180004Y-41137731D01*
X134180004Y-41137731D02*
X133465718Y-41328207D01*
X133465718Y-41328207D02*
X134465718Y-41566303D01*
X133989528Y-41947255D02*
X133989528Y-42280588D01*
X133465718Y-42423445D02*
X133465718Y-41947255D01*
X133465718Y-41947255D02*
X134465718Y-41947255D01*
X134465718Y-41947255D02*
X134465718Y-42423445D01*
X133465718Y-43423445D02*
X133941909Y-43090112D01*
X133465718Y-42852017D02*
X134465718Y-42852017D01*
X134465718Y-42852017D02*
X134465718Y-43232969D01*
X134465718Y-43232969D02*
X134418099Y-43328207D01*
X134418099Y-43328207D02*
X134370480Y-43375826D01*
X134370480Y-43375826D02*
X134275242Y-43423445D01*
X134275242Y-43423445D02*
X134132385Y-43423445D01*
X134132385Y-43423445D02*
X134037147Y-43375826D01*
X134037147Y-43375826D02*
X133989528Y-43328207D01*
X133989528Y-43328207D02*
X133941909Y-43232969D01*
X133941909Y-43232969D02*
X133941909Y-42852017D01*
D11*
X81720202Y-39385451D02*
X81689722Y-39385451D01*
X81080122Y-39385451D02*
X81049642Y-39385451D01*
X80440042Y-39385451D02*
X80409562Y-39385451D01*
X79799962Y-39385451D02*
X79769482Y-39385451D01*
X79159882Y-39385451D02*
X79129402Y-39385451D01*
X78519802Y-39385451D02*
X78489322Y-39385451D01*
X77879722Y-39385451D02*
X77849242Y-39385451D01*
X77239642Y-39385451D02*
X77209162Y-39385451D01*
X76599562Y-39385451D02*
X76569082Y-39385451D01*
X75959482Y-39385451D02*
X75929002Y-39385451D01*
X75319402Y-39385451D02*
X75288922Y-39385451D01*
X74679322Y-39385451D02*
X74648842Y-39385451D01*
X74039242Y-39385451D02*
X74008762Y-39385451D01*
X73399162Y-39385451D02*
X73368682Y-39385451D01*
X72759082Y-39385451D02*
X72728602Y-39385451D01*
X72119002Y-39385451D02*
X72088522Y-39385451D01*
X71478922Y-39385451D02*
X71448442Y-39385451D01*
X70838842Y-39385451D02*
X70808362Y-39385451D01*
X70198762Y-39385451D02*
X70168282Y-39385451D01*
X69558682Y-39385451D02*
X69528202Y-39385451D01*
X68918602Y-39385451D02*
X68888122Y-39385451D01*
X68278522Y-39385451D02*
X68248042Y-39385451D01*
X67638442Y-39385451D02*
X67607962Y-39385451D01*
X66998362Y-39385451D02*
X66967882Y-39385451D01*
X66358282Y-39385451D02*
X66327802Y-39385451D01*
X65718202Y-39385451D02*
X65687722Y-39385451D01*
X65078122Y-39385451D02*
X65047642Y-39385451D01*
X64438042Y-39385451D02*
X64407562Y-39385451D01*
X63797962Y-39385451D02*
X63767482Y-39385451D01*
X63157882Y-39385451D02*
X63127402Y-39385451D01*
X62517802Y-39385451D02*
X62487322Y-39385451D01*
X61877722Y-39385451D02*
X61847242Y-39385451D01*
X61237642Y-39385451D02*
X61207162Y-39385451D01*
X60597562Y-39385451D02*
X60567082Y-39385451D01*
X59957482Y-39385451D02*
X59927002Y-39385451D01*
D12*
X77809170Y-77688208D02*
X77809170Y-75688208D01*
X146693759Y-88605710D02*
X146693759Y-72605710D01*
X146693759Y-50605710D02*
X146693759Y-66605710D01*
X75259170Y-77709063D02*
X75259170Y-75709063D01*
X116193759Y-88605710D02*
X146693759Y-88605710D01*
X116193759Y-50605710D02*
X146693759Y-50605710D01*
X77789170Y-82829063D02*
X77789170Y-80829063D01*
X116193759Y-50605710D02*
X116173759Y-66690485D01*
X116193759Y-88605710D02*
X116193759Y-72605710D01*
X75259170Y-82769063D02*
X75259170Y-80769063D01*
D10*
X125556471Y-84003509D02*
X125651709Y-84003509D01*
X125651709Y-84003509D02*
X125746947Y-84051128D01*
X125746947Y-84051128D02*
X125794566Y-84098747D01*
X125794566Y-84098747D02*
X125842185Y-84193985D01*
X125842185Y-84193985D02*
X125889804Y-84384461D01*
X125889804Y-84384461D02*
X125889804Y-84622556D01*
X125889804Y-84622556D02*
X125842185Y-84813032D01*
X125842185Y-84813032D02*
X125794566Y-84908270D01*
X125794566Y-84908270D02*
X125746947Y-84955890D01*
X125746947Y-84955890D02*
X125651709Y-85003509D01*
X125651709Y-85003509D02*
X125556471Y-85003509D01*
X125556471Y-85003509D02*
X125461233Y-84955890D01*
X125461233Y-84955890D02*
X125413614Y-84908270D01*
X125413614Y-84908270D02*
X125365995Y-84813032D01*
X125365995Y-84813032D02*
X125318376Y-84622556D01*
X125318376Y-84622556D02*
X125318376Y-84384461D01*
X125318376Y-84384461D02*
X125365995Y-84193985D01*
X125365995Y-84193985D02*
X125413614Y-84098747D01*
X125413614Y-84098747D02*
X125461233Y-84051128D01*
X125461233Y-84051128D02*
X125556471Y-84003509D01*
X126270757Y-84098747D02*
X126318376Y-84051128D01*
X126318376Y-84051128D02*
X126413614Y-84003509D01*
X126413614Y-84003509D02*
X126651709Y-84003509D01*
X126651709Y-84003509D02*
X126746947Y-84051128D01*
X126746947Y-84051128D02*
X126794566Y-84098747D01*
X126794566Y-84098747D02*
X126842185Y-84193985D01*
X126842185Y-84193985D02*
X126842185Y-84289223D01*
X126842185Y-84289223D02*
X126794566Y-84432080D01*
X126794566Y-84432080D02*
X126223138Y-85003509D01*
X126223138Y-85003509D02*
X126842185Y-85003509D01*
X127985042Y-83955890D02*
X127127900Y-85241604D01*
X128270757Y-84098747D02*
X128318376Y-84051128D01*
X128318376Y-84051128D02*
X128413614Y-84003509D01*
X128413614Y-84003509D02*
X128651709Y-84003509D01*
X128651709Y-84003509D02*
X128746947Y-84051128D01*
X128746947Y-84051128D02*
X128794566Y-84098747D01*
X128794566Y-84098747D02*
X128842185Y-84193985D01*
X128842185Y-84193985D02*
X128842185Y-84289223D01*
X128842185Y-84289223D02*
X128794566Y-84432080D01*
X128794566Y-84432080D02*
X128223138Y-85003509D01*
X128223138Y-85003509D02*
X128842185Y-85003509D01*
X129461233Y-84003509D02*
X129556471Y-84003509D01*
X129556471Y-84003509D02*
X129651709Y-84051128D01*
X129651709Y-84051128D02*
X129699328Y-84098747D01*
X129699328Y-84098747D02*
X129746947Y-84193985D01*
X129746947Y-84193985D02*
X129794566Y-84384461D01*
X129794566Y-84384461D02*
X129794566Y-84622556D01*
X129794566Y-84622556D02*
X129746947Y-84813032D01*
X129746947Y-84813032D02*
X129699328Y-84908270D01*
X129699328Y-84908270D02*
X129651709Y-84955890D01*
X129651709Y-84955890D02*
X129556471Y-85003509D01*
X129556471Y-85003509D02*
X129461233Y-85003509D01*
X129461233Y-85003509D02*
X129365995Y-84955890D01*
X129365995Y-84955890D02*
X129318376Y-84908270D01*
X129318376Y-84908270D02*
X129270757Y-84813032D01*
X129270757Y-84813032D02*
X129223138Y-84622556D01*
X129223138Y-84622556D02*
X129223138Y-84384461D01*
X129223138Y-84384461D02*
X129270757Y-84193985D01*
X129270757Y-84193985D02*
X129318376Y-84098747D01*
X129318376Y-84098747D02*
X129365995Y-84051128D01*
X129365995Y-84051128D02*
X129461233Y-84003509D01*
X130175519Y-84098747D02*
X130223138Y-84051128D01*
X130223138Y-84051128D02*
X130318376Y-84003509D01*
X130318376Y-84003509D02*
X130556471Y-84003509D01*
X130556471Y-84003509D02*
X130651709Y-84051128D01*
X130651709Y-84051128D02*
X130699328Y-84098747D01*
X130699328Y-84098747D02*
X130746947Y-84193985D01*
X130746947Y-84193985D02*
X130746947Y-84289223D01*
X130746947Y-84289223D02*
X130699328Y-84432080D01*
X130699328Y-84432080D02*
X130127900Y-85003509D01*
X130127900Y-85003509D02*
X130746947Y-85003509D01*
X131651709Y-84003509D02*
X131175519Y-84003509D01*
X131175519Y-84003509D02*
X131127900Y-84479699D01*
X131127900Y-84479699D02*
X131175519Y-84432080D01*
X131175519Y-84432080D02*
X131270757Y-84384461D01*
X131270757Y-84384461D02*
X131508852Y-84384461D01*
X131508852Y-84384461D02*
X131604090Y-84432080D01*
X131604090Y-84432080D02*
X131651709Y-84479699D01*
X131651709Y-84479699D02*
X131699328Y-84574937D01*
X131699328Y-84574937D02*
X131699328Y-84813032D01*
X131699328Y-84813032D02*
X131651709Y-84908270D01*
X131651709Y-84908270D02*
X131604090Y-84955890D01*
X131604090Y-84955890D02*
X131508852Y-85003509D01*
X131508852Y-85003509D02*
X131270757Y-85003509D01*
X131270757Y-85003509D02*
X131175519Y-84955890D01*
X131175519Y-84955890D02*
X131127900Y-84908270D01*
X132889805Y-84622556D02*
X133651710Y-84622556D01*
X134794567Y-84336842D02*
X135032662Y-85003509D01*
X135032662Y-85003509D02*
X135270757Y-84336842D01*
X136175519Y-85003509D02*
X135604091Y-85003509D01*
X135889805Y-85003509D02*
X135889805Y-84003509D01*
X135889805Y-84003509D02*
X135794567Y-84146366D01*
X135794567Y-84146366D02*
X135699329Y-84241604D01*
X135699329Y-84241604D02*
X135604091Y-84289223D01*
X136604091Y-84908270D02*
X136651710Y-84955890D01*
X136651710Y-84955890D02*
X136604091Y-85003509D01*
X136604091Y-85003509D02*
X136556472Y-84955890D01*
X136556472Y-84955890D02*
X136604091Y-84908270D01*
X136604091Y-84908270D02*
X136604091Y-85003509D01*
X137270757Y-84003509D02*
X137365995Y-84003509D01*
X137365995Y-84003509D02*
X137461233Y-84051128D01*
X137461233Y-84051128D02*
X137508852Y-84098747D01*
X137508852Y-84098747D02*
X137556471Y-84193985D01*
X137556471Y-84193985D02*
X137604090Y-84384461D01*
X137604090Y-84384461D02*
X137604090Y-84622556D01*
X137604090Y-84622556D02*
X137556471Y-84813032D01*
X137556471Y-84813032D02*
X137508852Y-84908270D01*
X137508852Y-84908270D02*
X137461233Y-84955890D01*
X137461233Y-84955890D02*
X137365995Y-85003509D01*
X137365995Y-85003509D02*
X137270757Y-85003509D01*
X137270757Y-85003509D02*
X137175519Y-84955890D01*
X137175519Y-84955890D02*
X137127900Y-84908270D01*
X137127900Y-84908270D02*
X137080281Y-84813032D01*
X137080281Y-84813032D02*
X137032662Y-84622556D01*
X137032662Y-84622556D02*
X137032662Y-84384461D01*
X137032662Y-84384461D02*
X137080281Y-84193985D01*
X137080281Y-84193985D02*
X137127900Y-84098747D01*
X137127900Y-84098747D02*
X137175519Y-84051128D01*
X137175519Y-84051128D02*
X137270757Y-84003509D01*
X97860538Y-103710304D02*
X97860538Y-102710304D01*
X97860538Y-102710304D02*
X98193871Y-103424589D01*
X98193871Y-103424589D02*
X98527204Y-102710304D01*
X98527204Y-102710304D02*
X98527204Y-103710304D01*
X99003395Y-103710304D02*
X99003395Y-102710304D01*
X99003395Y-102710304D02*
X99384347Y-102710304D01*
X99384347Y-102710304D02*
X99479585Y-102757923D01*
X99479585Y-102757923D02*
X99527204Y-102805542D01*
X99527204Y-102805542D02*
X99574823Y-102900780D01*
X99574823Y-102900780D02*
X99574823Y-103043637D01*
X99574823Y-103043637D02*
X99527204Y-103138875D01*
X99527204Y-103138875D02*
X99479585Y-103186494D01*
X99479585Y-103186494D02*
X99384347Y-103234113D01*
X99384347Y-103234113D02*
X99003395Y-103234113D01*
X100574823Y-103710304D02*
X100241490Y-103234113D01*
X100003395Y-103710304D02*
X100003395Y-102710304D01*
X100003395Y-102710304D02*
X100384347Y-102710304D01*
X100384347Y-102710304D02*
X100479585Y-102757923D01*
X100479585Y-102757923D02*
X100527204Y-102805542D01*
X100527204Y-102805542D02*
X100574823Y-102900780D01*
X100574823Y-102900780D02*
X100574823Y-103043637D01*
X100574823Y-103043637D02*
X100527204Y-103138875D01*
X100527204Y-103138875D02*
X100479585Y-103186494D01*
X100479585Y-103186494D02*
X100384347Y-103234113D01*
X100384347Y-103234113D02*
X100003395Y-103234113D01*
X101527204Y-103710304D02*
X100955776Y-103710304D01*
X101241490Y-103710304D02*
X101241490Y-102710304D01*
X101241490Y-102710304D02*
X101146252Y-102853161D01*
X101146252Y-102853161D02*
X101051014Y-102948399D01*
X101051014Y-102948399D02*
X100955776Y-102996018D01*
X101908157Y-102805542D02*
X101955776Y-102757923D01*
X101955776Y-102757923D02*
X102051014Y-102710304D01*
X102051014Y-102710304D02*
X102289109Y-102710304D01*
X102289109Y-102710304D02*
X102384347Y-102757923D01*
X102384347Y-102757923D02*
X102431966Y-102805542D01*
X102431966Y-102805542D02*
X102479585Y-102900780D01*
X102479585Y-102900780D02*
X102479585Y-102996018D01*
X102479585Y-102996018D02*
X102431966Y-103138875D01*
X102431966Y-103138875D02*
X101860538Y-103710304D01*
X101860538Y-103710304D02*
X102479585Y-103710304D01*
X103431966Y-103710304D02*
X102860538Y-103710304D01*
X103146252Y-103710304D02*
X103146252Y-102710304D01*
X103146252Y-102710304D02*
X103051014Y-102853161D01*
X103051014Y-102853161D02*
X102955776Y-102948399D01*
X102955776Y-102948399D02*
X102860538Y-102996018D01*
X75721731Y-87179651D02*
X75769350Y-87084413D01*
X75769350Y-87084413D02*
X75769350Y-86941556D01*
X75769350Y-86941556D02*
X75721731Y-86798699D01*
X75721731Y-86798699D02*
X75626493Y-86703461D01*
X75626493Y-86703461D02*
X75531255Y-86655842D01*
X75531255Y-86655842D02*
X75340779Y-86608223D01*
X75340779Y-86608223D02*
X75197922Y-86608223D01*
X75197922Y-86608223D02*
X75007446Y-86655842D01*
X75007446Y-86655842D02*
X74912208Y-86703461D01*
X74912208Y-86703461D02*
X74816970Y-86798699D01*
X74816970Y-86798699D02*
X74769350Y-86941556D01*
X74769350Y-86941556D02*
X74769350Y-87036794D01*
X74769350Y-87036794D02*
X74816970Y-87179651D01*
X74816970Y-87179651D02*
X74864589Y-87227270D01*
X74864589Y-87227270D02*
X75197922Y-87227270D01*
X75197922Y-87227270D02*
X75197922Y-87036794D01*
X74769350Y-87655842D02*
X75769350Y-87655842D01*
X75769350Y-87655842D02*
X74769350Y-88227270D01*
X74769350Y-88227270D02*
X75769350Y-88227270D01*
X74769350Y-88703461D02*
X75769350Y-88703461D01*
X75769350Y-88703461D02*
X75769350Y-88941556D01*
X75769350Y-88941556D02*
X75721731Y-89084413D01*
X75721731Y-89084413D02*
X75626493Y-89179651D01*
X75626493Y-89179651D02*
X75531255Y-89227270D01*
X75531255Y-89227270D02*
X75340779Y-89274889D01*
X75340779Y-89274889D02*
X75197922Y-89274889D01*
X75197922Y-89274889D02*
X75007446Y-89227270D01*
X75007446Y-89227270D02*
X74912208Y-89179651D01*
X74912208Y-89179651D02*
X74816970Y-89084413D01*
X74816970Y-89084413D02*
X74769350Y-88941556D01*
X74769350Y-88941556D02*
X74769350Y-88703461D01*
X79916970Y-86608223D02*
X79869350Y-86751080D01*
X79869350Y-86751080D02*
X79869350Y-86989175D01*
X79869350Y-86989175D02*
X79916970Y-87084413D01*
X79916970Y-87084413D02*
X79964589Y-87132032D01*
X79964589Y-87132032D02*
X80059827Y-87179651D01*
X80059827Y-87179651D02*
X80155065Y-87179651D01*
X80155065Y-87179651D02*
X80250303Y-87132032D01*
X80250303Y-87132032D02*
X80297922Y-87084413D01*
X80297922Y-87084413D02*
X80345541Y-86989175D01*
X80345541Y-86989175D02*
X80393160Y-86798699D01*
X80393160Y-86798699D02*
X80440779Y-86703461D01*
X80440779Y-86703461D02*
X80488398Y-86655842D01*
X80488398Y-86655842D02*
X80583636Y-86608223D01*
X80583636Y-86608223D02*
X80678874Y-86608223D01*
X80678874Y-86608223D02*
X80774112Y-86655842D01*
X80774112Y-86655842D02*
X80821731Y-86703461D01*
X80821731Y-86703461D02*
X80869350Y-86798699D01*
X80869350Y-86798699D02*
X80869350Y-87036794D01*
X80869350Y-87036794D02*
X80821731Y-87179651D01*
X79869350Y-87608223D02*
X80869350Y-87608223D01*
X80869350Y-87608223D02*
X80869350Y-87846318D01*
X80869350Y-87846318D02*
X80821731Y-87989175D01*
X80821731Y-87989175D02*
X80726493Y-88084413D01*
X80726493Y-88084413D02*
X80631255Y-88132032D01*
X80631255Y-88132032D02*
X80440779Y-88179651D01*
X80440779Y-88179651D02*
X80297922Y-88179651D01*
X80297922Y-88179651D02*
X80107446Y-88132032D01*
X80107446Y-88132032D02*
X80012208Y-88084413D01*
X80012208Y-88084413D02*
X79916970Y-87989175D01*
X79916970Y-87989175D02*
X79869350Y-87846318D01*
X79869350Y-87846318D02*
X79869350Y-87608223D01*
X80155065Y-88560604D02*
X80155065Y-89036794D01*
X79869350Y-88465366D02*
X80869350Y-88798699D01*
X80869350Y-88798699D02*
X79869350Y-89132032D01*
X82416970Y-86608223D02*
X82369350Y-86751080D01*
X82369350Y-86751080D02*
X82369350Y-86989175D01*
X82369350Y-86989175D02*
X82416970Y-87084413D01*
X82416970Y-87084413D02*
X82464589Y-87132032D01*
X82464589Y-87132032D02*
X82559827Y-87179651D01*
X82559827Y-87179651D02*
X82655065Y-87179651D01*
X82655065Y-87179651D02*
X82750303Y-87132032D01*
X82750303Y-87132032D02*
X82797922Y-87084413D01*
X82797922Y-87084413D02*
X82845541Y-86989175D01*
X82845541Y-86989175D02*
X82893160Y-86798699D01*
X82893160Y-86798699D02*
X82940779Y-86703461D01*
X82940779Y-86703461D02*
X82988398Y-86655842D01*
X82988398Y-86655842D02*
X83083636Y-86608223D01*
X83083636Y-86608223D02*
X83178874Y-86608223D01*
X83178874Y-86608223D02*
X83274112Y-86655842D01*
X83274112Y-86655842D02*
X83321731Y-86703461D01*
X83321731Y-86703461D02*
X83369350Y-86798699D01*
X83369350Y-86798699D02*
X83369350Y-87036794D01*
X83369350Y-87036794D02*
X83321731Y-87179651D01*
X82464589Y-88179651D02*
X82416970Y-88132032D01*
X82416970Y-88132032D02*
X82369350Y-87989175D01*
X82369350Y-87989175D02*
X82369350Y-87893937D01*
X82369350Y-87893937D02*
X82416970Y-87751080D01*
X82416970Y-87751080D02*
X82512208Y-87655842D01*
X82512208Y-87655842D02*
X82607446Y-87608223D01*
X82607446Y-87608223D02*
X82797922Y-87560604D01*
X82797922Y-87560604D02*
X82940779Y-87560604D01*
X82940779Y-87560604D02*
X83131255Y-87608223D01*
X83131255Y-87608223D02*
X83226493Y-87655842D01*
X83226493Y-87655842D02*
X83321731Y-87751080D01*
X83321731Y-87751080D02*
X83369350Y-87893937D01*
X83369350Y-87893937D02*
X83369350Y-87989175D01*
X83369350Y-87989175D02*
X83321731Y-88132032D01*
X83321731Y-88132032D02*
X83274112Y-88179651D01*
X82369350Y-89084413D02*
X82369350Y-88608223D01*
X82369350Y-88608223D02*
X83369350Y-88608223D01*
D12*
X126811698Y-81178129D02*
X126811698Y-81892414D01*
X126811698Y-81892414D02*
X126764079Y-82035271D01*
X126764079Y-82035271D02*
X126668841Y-82130510D01*
X126668841Y-82130510D02*
X126525984Y-82178129D01*
X126525984Y-82178129D02*
X126430746Y-82178129D01*
X127764079Y-82178129D02*
X127287889Y-82178129D01*
X127287889Y-82178129D02*
X127287889Y-81178129D01*
X128668841Y-82082890D02*
X128621222Y-82130510D01*
X128621222Y-82130510D02*
X128478365Y-82178129D01*
X128478365Y-82178129D02*
X128383127Y-82178129D01*
X128383127Y-82178129D02*
X128240270Y-82130510D01*
X128240270Y-82130510D02*
X128145032Y-82035271D01*
X128145032Y-82035271D02*
X128097413Y-81940033D01*
X128097413Y-81940033D02*
X128049794Y-81749557D01*
X128049794Y-81749557D02*
X128049794Y-81606700D01*
X128049794Y-81606700D02*
X128097413Y-81416224D01*
X128097413Y-81416224D02*
X128145032Y-81320986D01*
X128145032Y-81320986D02*
X128240270Y-81225748D01*
X128240270Y-81225748D02*
X128383127Y-81178129D01*
X128383127Y-81178129D02*
X128478365Y-81178129D01*
X128478365Y-81178129D02*
X128621222Y-81225748D01*
X128621222Y-81225748D02*
X128668841Y-81273367D01*
X129383127Y-81178129D02*
X129383127Y-81892414D01*
X129383127Y-81892414D02*
X129335508Y-82035271D01*
X129335508Y-82035271D02*
X129240270Y-82130510D01*
X129240270Y-82130510D02*
X129097413Y-82178129D01*
X129097413Y-82178129D02*
X129002175Y-82178129D01*
X130335508Y-82178129D02*
X129859318Y-82178129D01*
X129859318Y-82178129D02*
X129859318Y-81178129D01*
X131240270Y-82082890D02*
X131192651Y-82130510D01*
X131192651Y-82130510D02*
X131049794Y-82178129D01*
X131049794Y-82178129D02*
X130954556Y-82178129D01*
X130954556Y-82178129D02*
X130811699Y-82130510D01*
X130811699Y-82130510D02*
X130716461Y-82035271D01*
X130716461Y-82035271D02*
X130668842Y-81940033D01*
X130668842Y-81940033D02*
X130621223Y-81749557D01*
X130621223Y-81749557D02*
X130621223Y-81606700D01*
X130621223Y-81606700D02*
X130668842Y-81416224D01*
X130668842Y-81416224D02*
X130716461Y-81320986D01*
X130716461Y-81320986D02*
X130811699Y-81225748D01*
X130811699Y-81225748D02*
X130954556Y-81178129D01*
X130954556Y-81178129D02*
X131049794Y-81178129D01*
X131049794Y-81178129D02*
X131192651Y-81225748D01*
X131192651Y-81225748D02*
X131240270Y-81273367D01*
X131954556Y-81178129D02*
X131954556Y-81892414D01*
X131954556Y-81892414D02*
X131906937Y-82035271D01*
X131906937Y-82035271D02*
X131811699Y-82130510D01*
X131811699Y-82130510D02*
X131668842Y-82178129D01*
X131668842Y-82178129D02*
X131573604Y-82178129D01*
X132906937Y-82178129D02*
X132430747Y-82178129D01*
X132430747Y-82178129D02*
X132430747Y-81178129D01*
X133811699Y-82082890D02*
X133764080Y-82130510D01*
X133764080Y-82130510D02*
X133621223Y-82178129D01*
X133621223Y-82178129D02*
X133525985Y-82178129D01*
X133525985Y-82178129D02*
X133383128Y-82130510D01*
X133383128Y-82130510D02*
X133287890Y-82035271D01*
X133287890Y-82035271D02*
X133240271Y-81940033D01*
X133240271Y-81940033D02*
X133192652Y-81749557D01*
X133192652Y-81749557D02*
X133192652Y-81606700D01*
X133192652Y-81606700D02*
X133240271Y-81416224D01*
X133240271Y-81416224D02*
X133287890Y-81320986D01*
X133287890Y-81320986D02*
X133383128Y-81225748D01*
X133383128Y-81225748D02*
X133525985Y-81178129D01*
X133525985Y-81178129D02*
X133621223Y-81178129D01*
X133621223Y-81178129D02*
X133764080Y-81225748D01*
X133764080Y-81225748D02*
X133811699Y-81273367D01*
X134525985Y-81178129D02*
X134525985Y-81892414D01*
X134525985Y-81892414D02*
X134478366Y-82035271D01*
X134478366Y-82035271D02*
X134383128Y-82130510D01*
X134383128Y-82130510D02*
X134240271Y-82178129D01*
X134240271Y-82178129D02*
X134145033Y-82178129D01*
X135478366Y-82178129D02*
X135002176Y-82178129D01*
X135002176Y-82178129D02*
X135002176Y-81178129D01*
X136383128Y-82082890D02*
X136335509Y-82130510D01*
X136335509Y-82130510D02*
X136192652Y-82178129D01*
X136192652Y-82178129D02*
X136097414Y-82178129D01*
X136097414Y-82178129D02*
X135954557Y-82130510D01*
X135954557Y-82130510D02*
X135859319Y-82035271D01*
X135859319Y-82035271D02*
X135811700Y-81940033D01*
X135811700Y-81940033D02*
X135764081Y-81749557D01*
X135764081Y-81749557D02*
X135764081Y-81606700D01*
X135764081Y-81606700D02*
X135811700Y-81416224D01*
X135811700Y-81416224D02*
X135859319Y-81320986D01*
X135859319Y-81320986D02*
X135954557Y-81225748D01*
X135954557Y-81225748D02*
X136097414Y-81178129D01*
X136097414Y-81178129D02*
X136192652Y-81178129D01*
X136192652Y-81178129D02*
X136335509Y-81225748D01*
X136335509Y-81225748D02*
X136383128Y-81273367D01*
D10*
X122813939Y-109697740D02*
X122813939Y-109792978D01*
X122813939Y-109792978D02*
X122766320Y-109888216D01*
X122766320Y-109888216D02*
X122718701Y-109935835D01*
X122718701Y-109935835D02*
X122623463Y-109983454D01*
X122623463Y-109983454D02*
X122432987Y-110031073D01*
X122432987Y-110031073D02*
X122194892Y-110031073D01*
X122194892Y-110031073D02*
X122004416Y-109983454D01*
X122004416Y-109983454D02*
X121909178Y-109935835D01*
X121909178Y-109935835D02*
X121861559Y-109888216D01*
X121861559Y-109888216D02*
X121813939Y-109792978D01*
X121813939Y-109792978D02*
X121813939Y-109697740D01*
X121813939Y-109697740D02*
X121861559Y-109602502D01*
X121861559Y-109602502D02*
X121909178Y-109554883D01*
X121909178Y-109554883D02*
X122004416Y-109507264D01*
X122004416Y-109507264D02*
X122194892Y-109459645D01*
X122194892Y-109459645D02*
X122432987Y-109459645D01*
X122432987Y-109459645D02*
X122623463Y-109507264D01*
X122623463Y-109507264D02*
X122718701Y-109554883D01*
X122718701Y-109554883D02*
X122766320Y-109602502D01*
X122766320Y-109602502D02*
X122813939Y-109697740D01*
X129449663Y-110031073D02*
X129449663Y-109459645D01*
X129449663Y-109745359D02*
X130449663Y-109745359D01*
X130449663Y-109745359D02*
X130306806Y-109650121D01*
X130306806Y-109650121D02*
X130211568Y-109554883D01*
X130211568Y-109554883D02*
X130163949Y-109459645D01*
X129449663Y-110983454D02*
X129449663Y-110412026D01*
X129449663Y-110697740D02*
X130449663Y-110697740D01*
X130449663Y-110697740D02*
X130306806Y-110602502D01*
X130306806Y-110602502D02*
X130211568Y-110507264D01*
X130211568Y-110507264D02*
X130163949Y-110412026D01*
X124286235Y-110042961D02*
X124286235Y-109471533D01*
X124286235Y-109757247D02*
X125286235Y-109757247D01*
X125286235Y-109757247D02*
X125143378Y-109662009D01*
X125143378Y-109662009D02*
X125048140Y-109566771D01*
X125048140Y-109566771D02*
X125000521Y-109471533D01*
D13*
X128145242Y-55006035D02*
X129459528Y-55006035D01*
X128802385Y-57306035D02*
X128802385Y-55006035D01*
X130226195Y-56101273D02*
X130992861Y-56101273D01*
X131321433Y-57306035D02*
X130226195Y-57306035D01*
X130226195Y-57306035D02*
X130226195Y-55006035D01*
X130226195Y-55006035D02*
X131321433Y-55006035D01*
X132197623Y-57196512D02*
X132526194Y-57306035D01*
X132526194Y-57306035D02*
X133073813Y-57306035D01*
X133073813Y-57306035D02*
X133292861Y-57196512D01*
X133292861Y-57196512D02*
X133402385Y-57086988D01*
X133402385Y-57086988D02*
X133511908Y-56867940D01*
X133511908Y-56867940D02*
X133511908Y-56648892D01*
X133511908Y-56648892D02*
X133402385Y-56429845D01*
X133402385Y-56429845D02*
X133292861Y-56320321D01*
X133292861Y-56320321D02*
X133073813Y-56210797D01*
X133073813Y-56210797D02*
X132635718Y-56101273D01*
X132635718Y-56101273D02*
X132416670Y-55991750D01*
X132416670Y-55991750D02*
X132307147Y-55882226D01*
X132307147Y-55882226D02*
X132197623Y-55663178D01*
X132197623Y-55663178D02*
X132197623Y-55444131D01*
X132197623Y-55444131D02*
X132307147Y-55225083D01*
X132307147Y-55225083D02*
X132416670Y-55115559D01*
X132416670Y-55115559D02*
X132635718Y-55006035D01*
X132635718Y-55006035D02*
X133183337Y-55006035D01*
X133183337Y-55006035D02*
X133511908Y-55115559D01*
X134497623Y-57306035D02*
X134497623Y-55006035D01*
D10*
X98804654Y-50947626D02*
X98804654Y-51423816D01*
X98518939Y-50852388D02*
X99518939Y-51185721D01*
X99518939Y-51185721D02*
X98518939Y-51519054D01*
X98518939Y-52280959D02*
X99518939Y-52280959D01*
X98566559Y-52280959D02*
X98518939Y-52185721D01*
X98518939Y-52185721D02*
X98518939Y-51995245D01*
X98518939Y-51995245D02*
X98566559Y-51900007D01*
X98566559Y-51900007D02*
X98614178Y-51852388D01*
X98614178Y-51852388D02*
X98709416Y-51804769D01*
X98709416Y-51804769D02*
X98995130Y-51804769D01*
X98995130Y-51804769D02*
X99090368Y-51852388D01*
X99090368Y-51852388D02*
X99137987Y-51900007D01*
X99137987Y-51900007D02*
X99185606Y-51995245D01*
X99185606Y-51995245D02*
X99185606Y-52185721D01*
X99185606Y-52185721D02*
X99137987Y-52280959D01*
X98518939Y-53185721D02*
X99042749Y-53185721D01*
X99042749Y-53185721D02*
X99137987Y-53138102D01*
X99137987Y-53138102D02*
X99185606Y-53042864D01*
X99185606Y-53042864D02*
X99185606Y-52852388D01*
X99185606Y-52852388D02*
X99137987Y-52757150D01*
X98566559Y-53185721D02*
X98518939Y-53090483D01*
X98518939Y-53090483D02*
X98518939Y-52852388D01*
X98518939Y-52852388D02*
X98566559Y-52757150D01*
X98566559Y-52757150D02*
X98661797Y-52709531D01*
X98661797Y-52709531D02*
X98757035Y-52709531D01*
X98757035Y-52709531D02*
X98852273Y-52757150D01*
X98852273Y-52757150D02*
X98899892Y-52852388D01*
X98899892Y-52852388D02*
X98899892Y-53090483D01*
X98899892Y-53090483D02*
X98947511Y-53185721D01*
X99185606Y-53519055D02*
X99185606Y-53900007D01*
X98518939Y-53661912D02*
X99376082Y-53661912D01*
X99376082Y-53661912D02*
X99471320Y-53709531D01*
X99471320Y-53709531D02*
X99518939Y-53804769D01*
X99518939Y-53804769D02*
X99518939Y-53900007D01*
X98518939Y-54233341D02*
X99185606Y-54233341D01*
X98995130Y-54233341D02*
X99090368Y-54280960D01*
X99090368Y-54280960D02*
X99137987Y-54328579D01*
X99137987Y-54328579D02*
X99185606Y-54423817D01*
X99185606Y-54423817D02*
X99185606Y-54519055D01*
X99185606Y-55280960D02*
X98518939Y-55280960D01*
X99185606Y-54852389D02*
X98661797Y-54852389D01*
X98661797Y-54852389D02*
X98566559Y-54900008D01*
X98566559Y-54900008D02*
X98518939Y-54995246D01*
X98518939Y-54995246D02*
X98518939Y-55138103D01*
X98518939Y-55138103D02*
X98566559Y-55233341D01*
X98566559Y-55233341D02*
X98614178Y-55280960D01*
X98518939Y-55757151D02*
X99185606Y-55757151D01*
X99518939Y-55757151D02*
X99471320Y-55709532D01*
X99471320Y-55709532D02*
X99423701Y-55757151D01*
X99423701Y-55757151D02*
X99471320Y-55804770D01*
X99471320Y-55804770D02*
X99518939Y-55757151D01*
X99518939Y-55757151D02*
X99423701Y-55757151D01*
X99185606Y-56090484D02*
X99185606Y-56471436D01*
X99518939Y-56233341D02*
X98661797Y-56233341D01*
X98661797Y-56233341D02*
X98566559Y-56280960D01*
X98566559Y-56280960D02*
X98518939Y-56376198D01*
X98518939Y-56376198D02*
X98518939Y-56471436D01*
X99042749Y-57566675D02*
X99042749Y-57900008D01*
X98518939Y-58042865D02*
X98518939Y-57566675D01*
X98518939Y-57566675D02*
X99518939Y-57566675D01*
X99518939Y-57566675D02*
X99518939Y-58042865D01*
X98566559Y-58423818D02*
X98518939Y-58566675D01*
X98518939Y-58566675D02*
X98518939Y-58804770D01*
X98518939Y-58804770D02*
X98566559Y-58900008D01*
X98566559Y-58900008D02*
X98614178Y-58947627D01*
X98614178Y-58947627D02*
X98709416Y-58995246D01*
X98709416Y-58995246D02*
X98804654Y-58995246D01*
X98804654Y-58995246D02*
X98899892Y-58947627D01*
X98899892Y-58947627D02*
X98947511Y-58900008D01*
X98947511Y-58900008D02*
X98995130Y-58804770D01*
X98995130Y-58804770D02*
X99042749Y-58614294D01*
X99042749Y-58614294D02*
X99090368Y-58519056D01*
X99090368Y-58519056D02*
X99137987Y-58471437D01*
X99137987Y-58471437D02*
X99233225Y-58423818D01*
X99233225Y-58423818D02*
X99328463Y-58423818D01*
X99328463Y-58423818D02*
X99423701Y-58471437D01*
X99423701Y-58471437D02*
X99471320Y-58519056D01*
X99471320Y-58519056D02*
X99518939Y-58614294D01*
X99518939Y-58614294D02*
X99518939Y-58852389D01*
X99518939Y-58852389D02*
X99471320Y-58995246D01*
X98518939Y-59423818D02*
X99518939Y-59423818D01*
X99518939Y-59423818D02*
X99518939Y-59804770D01*
X99518939Y-59804770D02*
X99471320Y-59900008D01*
X99471320Y-59900008D02*
X99423701Y-59947627D01*
X99423701Y-59947627D02*
X99328463Y-59995246D01*
X99328463Y-59995246D02*
X99185606Y-59995246D01*
X99185606Y-59995246D02*
X99090368Y-59947627D01*
X99090368Y-59947627D02*
X99042749Y-59900008D01*
X99042749Y-59900008D02*
X98995130Y-59804770D01*
X98995130Y-59804770D02*
X98995130Y-59423818D01*
X99518939Y-60328580D02*
X99518939Y-60947627D01*
X99518939Y-60947627D02*
X99137987Y-60614294D01*
X99137987Y-60614294D02*
X99137987Y-60757151D01*
X99137987Y-60757151D02*
X99090368Y-60852389D01*
X99090368Y-60852389D02*
X99042749Y-60900008D01*
X99042749Y-60900008D02*
X98947511Y-60947627D01*
X98947511Y-60947627D02*
X98709416Y-60947627D01*
X98709416Y-60947627D02*
X98614178Y-60900008D01*
X98614178Y-60900008D02*
X98566559Y-60852389D01*
X98566559Y-60852389D02*
X98518939Y-60757151D01*
X98518939Y-60757151D02*
X98518939Y-60471437D01*
X98518939Y-60471437D02*
X98566559Y-60376199D01*
X98566559Y-60376199D02*
X98614178Y-60328580D01*
X99423701Y-61328580D02*
X99471320Y-61376199D01*
X99471320Y-61376199D02*
X99518939Y-61471437D01*
X99518939Y-61471437D02*
X99518939Y-61709532D01*
X99518939Y-61709532D02*
X99471320Y-61804770D01*
X99471320Y-61804770D02*
X99423701Y-61852389D01*
X99423701Y-61852389D02*
X99328463Y-61900008D01*
X99328463Y-61900008D02*
X99233225Y-61900008D01*
X99233225Y-61900008D02*
X99090368Y-61852389D01*
X99090368Y-61852389D02*
X98518939Y-61280961D01*
X98518939Y-61280961D02*
X98518939Y-61900008D01*
X99042749Y-63423818D02*
X99042749Y-63090485D01*
X98518939Y-63090485D02*
X99518939Y-63090485D01*
X99518939Y-63090485D02*
X99518939Y-63566675D01*
X98566559Y-64328580D02*
X98518939Y-64233342D01*
X98518939Y-64233342D02*
X98518939Y-64042866D01*
X98518939Y-64042866D02*
X98566559Y-63947628D01*
X98566559Y-63947628D02*
X98661797Y-63900009D01*
X98661797Y-63900009D02*
X99042749Y-63900009D01*
X99042749Y-63900009D02*
X99137987Y-63947628D01*
X99137987Y-63947628D02*
X99185606Y-64042866D01*
X99185606Y-64042866D02*
X99185606Y-64233342D01*
X99185606Y-64233342D02*
X99137987Y-64328580D01*
X99137987Y-64328580D02*
X99042749Y-64376199D01*
X99042749Y-64376199D02*
X98947511Y-64376199D01*
X98947511Y-64376199D02*
X98852273Y-63900009D01*
X98518939Y-65233342D02*
X99042749Y-65233342D01*
X99042749Y-65233342D02*
X99137987Y-65185723D01*
X99137987Y-65185723D02*
X99185606Y-65090485D01*
X99185606Y-65090485D02*
X99185606Y-64900009D01*
X99185606Y-64900009D02*
X99137987Y-64804771D01*
X98566559Y-65233342D02*
X98518939Y-65138104D01*
X98518939Y-65138104D02*
X98518939Y-64900009D01*
X98518939Y-64900009D02*
X98566559Y-64804771D01*
X98566559Y-64804771D02*
X98661797Y-64757152D01*
X98661797Y-64757152D02*
X98757035Y-64757152D01*
X98757035Y-64757152D02*
X98852273Y-64804771D01*
X98852273Y-64804771D02*
X98899892Y-64900009D01*
X98899892Y-64900009D02*
X98899892Y-65138104D01*
X98899892Y-65138104D02*
X98947511Y-65233342D01*
X99185606Y-65566676D02*
X99185606Y-65947628D01*
X99518939Y-65709533D02*
X98661797Y-65709533D01*
X98661797Y-65709533D02*
X98566559Y-65757152D01*
X98566559Y-65757152D02*
X98518939Y-65852390D01*
X98518939Y-65852390D02*
X98518939Y-65947628D01*
X98518939Y-66280962D02*
X99518939Y-66280962D01*
X98518939Y-66709533D02*
X99042749Y-66709533D01*
X99042749Y-66709533D02*
X99137987Y-66661914D01*
X99137987Y-66661914D02*
X99185606Y-66566676D01*
X99185606Y-66566676D02*
X99185606Y-66423819D01*
X99185606Y-66423819D02*
X99137987Y-66328581D01*
X99137987Y-66328581D02*
X99090368Y-66280962D01*
X98566559Y-67566676D02*
X98518939Y-67471438D01*
X98518939Y-67471438D02*
X98518939Y-67280962D01*
X98518939Y-67280962D02*
X98566559Y-67185724D01*
X98566559Y-67185724D02*
X98661797Y-67138105D01*
X98661797Y-67138105D02*
X99042749Y-67138105D01*
X99042749Y-67138105D02*
X99137987Y-67185724D01*
X99137987Y-67185724D02*
X99185606Y-67280962D01*
X99185606Y-67280962D02*
X99185606Y-67471438D01*
X99185606Y-67471438D02*
X99137987Y-67566676D01*
X99137987Y-67566676D02*
X99042749Y-67614295D01*
X99042749Y-67614295D02*
X98947511Y-67614295D01*
X98947511Y-67614295D02*
X98852273Y-67138105D01*
X98518939Y-68042867D02*
X99185606Y-68042867D01*
X98995130Y-68042867D02*
X99090368Y-68090486D01*
X99090368Y-68090486D02*
X99137987Y-68138105D01*
X99137987Y-68138105D02*
X99185606Y-68233343D01*
X99185606Y-68233343D02*
X99185606Y-68328581D01*
X78269350Y-86560604D02*
X78269350Y-87179651D01*
X78269350Y-87179651D02*
X77888398Y-86846318D01*
X77888398Y-86846318D02*
X77888398Y-86989175D01*
X77888398Y-86989175D02*
X77840779Y-87084413D01*
X77840779Y-87084413D02*
X77793160Y-87132032D01*
X77793160Y-87132032D02*
X77697922Y-87179651D01*
X77697922Y-87179651D02*
X77459827Y-87179651D01*
X77459827Y-87179651D02*
X77364589Y-87132032D01*
X77364589Y-87132032D02*
X77316970Y-87084413D01*
X77316970Y-87084413D02*
X77269350Y-86989175D01*
X77269350Y-86989175D02*
X77269350Y-86703461D01*
X77269350Y-86703461D02*
X77316970Y-86608223D01*
X77316970Y-86608223D02*
X77364589Y-86560604D01*
X78269350Y-87465366D02*
X77269350Y-87798699D01*
X77269350Y-87798699D02*
X78269350Y-88132032D01*
X82855065Y-78738223D02*
X82855065Y-79214413D01*
X82569350Y-78642985D02*
X83569350Y-78976318D01*
X83569350Y-78976318D02*
X82569350Y-79309651D01*
X83569350Y-79547747D02*
X83569350Y-80214413D01*
X83569350Y-80214413D02*
X82569350Y-79785842D01*
D13*
X60031707Y-37836806D02*
X60031707Y-36336806D01*
X60745993Y-37836806D02*
X60745993Y-36336806D01*
X60745993Y-36336806D02*
X61103136Y-36336806D01*
X61103136Y-36336806D02*
X61317422Y-36408235D01*
X61317422Y-36408235D02*
X61460279Y-36551092D01*
X61460279Y-36551092D02*
X61531708Y-36693949D01*
X61531708Y-36693949D02*
X61603136Y-36979663D01*
X61603136Y-36979663D02*
X61603136Y-37193949D01*
X61603136Y-37193949D02*
X61531708Y-37479663D01*
X61531708Y-37479663D02*
X61460279Y-37622520D01*
X61460279Y-37622520D02*
X61317422Y-37765378D01*
X61317422Y-37765378D02*
X61103136Y-37836806D01*
X61103136Y-37836806D02*
X60745993Y-37836806D01*
X62245993Y-37693949D02*
X62317422Y-37765378D01*
X62317422Y-37765378D02*
X62245993Y-37836806D01*
X62245993Y-37836806D02*
X62174565Y-37765378D01*
X62174565Y-37765378D02*
X62245993Y-37693949D01*
X62245993Y-37693949D02*
X62245993Y-37836806D01*
X62245993Y-36908235D02*
X62317422Y-36979663D01*
X62317422Y-36979663D02*
X62245993Y-37051092D01*
X62245993Y-37051092D02*
X62174565Y-36979663D01*
X62174565Y-36979663D02*
X62245993Y-36908235D01*
X62245993Y-36908235D02*
X62245993Y-37051092D01*
D10*
X82855065Y-73738223D02*
X82855065Y-74214413D01*
X82569350Y-73642985D02*
X83569350Y-73976318D01*
X83569350Y-73976318D02*
X82569350Y-74309651D01*
X83569350Y-75071556D02*
X83569350Y-74881080D01*
X83569350Y-74881080D02*
X83521731Y-74785842D01*
X83521731Y-74785842D02*
X83474112Y-74738223D01*
X83474112Y-74738223D02*
X83331255Y-74642985D01*
X83331255Y-74642985D02*
X83140779Y-74595366D01*
X83140779Y-74595366D02*
X82759827Y-74595366D01*
X82759827Y-74595366D02*
X82664589Y-74642985D01*
X82664589Y-74642985D02*
X82616970Y-74690604D01*
X82616970Y-74690604D02*
X82569350Y-74785842D01*
X82569350Y-74785842D02*
X82569350Y-74976318D01*
X82569350Y-74976318D02*
X82616970Y-75071556D01*
X82616970Y-75071556D02*
X82664589Y-75119175D01*
X82664589Y-75119175D02*
X82759827Y-75166794D01*
X82759827Y-75166794D02*
X82997922Y-75166794D01*
X82997922Y-75166794D02*
X83093160Y-75119175D01*
X83093160Y-75119175D02*
X83140779Y-75071556D01*
X83140779Y-75071556D02*
X83188398Y-74976318D01*
X83188398Y-74976318D02*
X83188398Y-74785842D01*
X83188398Y-74785842D02*
X83140779Y-74690604D01*
X83140779Y-74690604D02*
X83093160Y-74642985D01*
X83093160Y-74642985D02*
X82997922Y-74595366D01*
X126975275Y-110031073D02*
X126975275Y-109459645D01*
X126975275Y-109745359D02*
X127975275Y-109745359D01*
X127975275Y-109745359D02*
X127832418Y-109650121D01*
X127832418Y-109650121D02*
X127737180Y-109554883D01*
X127737180Y-109554883D02*
X127689561Y-109459645D01*
X127975275Y-110650121D02*
X127975275Y-110745359D01*
X127975275Y-110745359D02*
X127927656Y-110840597D01*
X127927656Y-110840597D02*
X127880037Y-110888216D01*
X127880037Y-110888216D02*
X127784799Y-110935835D01*
X127784799Y-110935835D02*
X127594323Y-110983454D01*
X127594323Y-110983454D02*
X127356228Y-110983454D01*
X127356228Y-110983454D02*
X127165752Y-110935835D01*
X127165752Y-110935835D02*
X127070514Y-110888216D01*
X127070514Y-110888216D02*
X127022895Y-110840597D01*
X127022895Y-110840597D02*
X126975275Y-110745359D01*
X126975275Y-110745359D02*
X126975275Y-110650121D01*
X126975275Y-110650121D02*
X127022895Y-110554883D01*
X127022895Y-110554883D02*
X127070514Y-110507264D01*
X127070514Y-110507264D02*
X127165752Y-110459645D01*
X127165752Y-110459645D02*
X127356228Y-110412026D01*
X127356228Y-110412026D02*
X127594323Y-110412026D01*
X127594323Y-110412026D02*
X127784799Y-110459645D01*
X127784799Y-110459645D02*
X127880037Y-110507264D01*
X127880037Y-110507264D02*
X127927656Y-110554883D01*
X127927656Y-110554883D02*
X127975275Y-110650121D01*
X144903939Y-100134407D02*
X143903939Y-100467740D01*
X143903939Y-100467740D02*
X144903939Y-100801073D01*
X143903939Y-101610597D02*
X143903939Y-101134407D01*
X143903939Y-101134407D02*
X144903939Y-101134407D01*
X144903939Y-102420121D02*
X144903939Y-101943931D01*
X144903939Y-101943931D02*
X144427749Y-101896312D01*
X144427749Y-101896312D02*
X144475368Y-101943931D01*
X144475368Y-101943931D02*
X144522987Y-102039169D01*
X144522987Y-102039169D02*
X144522987Y-102277264D01*
X144522987Y-102277264D02*
X144475368Y-102372502D01*
X144475368Y-102372502D02*
X144427749Y-102420121D01*
X144427749Y-102420121D02*
X144332511Y-102467740D01*
X144332511Y-102467740D02*
X144094416Y-102467740D01*
X144094416Y-102467740D02*
X143999178Y-102420121D01*
X143999178Y-102420121D02*
X143951559Y-102372502D01*
X143951559Y-102372502D02*
X143903939Y-102277264D01*
X143903939Y-102277264D02*
X143903939Y-102039169D01*
X143903939Y-102039169D02*
X143951559Y-101943931D01*
X143951559Y-101943931D02*
X143999178Y-101896312D01*
X144903939Y-102801074D02*
X144903939Y-103420121D01*
X144903939Y-103420121D02*
X144522987Y-103086788D01*
X144522987Y-103086788D02*
X144522987Y-103229645D01*
X144522987Y-103229645D02*
X144475368Y-103324883D01*
X144475368Y-103324883D02*
X144427749Y-103372502D01*
X144427749Y-103372502D02*
X144332511Y-103420121D01*
X144332511Y-103420121D02*
X144094416Y-103420121D01*
X144094416Y-103420121D02*
X143999178Y-103372502D01*
X143999178Y-103372502D02*
X143951559Y-103324883D01*
X143951559Y-103324883D02*
X143903939Y-103229645D01*
X143903939Y-103229645D02*
X143903939Y-102943931D01*
X143903939Y-102943931D02*
X143951559Y-102848693D01*
X143951559Y-102848693D02*
X143999178Y-102801074D01*
X143903939Y-104324883D02*
X143903939Y-103848693D01*
X143903939Y-103848693D02*
X144903939Y-103848693D01*
X143903939Y-105182026D02*
X143903939Y-104610598D01*
X143903939Y-104896312D02*
X144903939Y-104896312D01*
X144903939Y-104896312D02*
X144761082Y-104801074D01*
X144761082Y-104801074D02*
X144665844Y-104705836D01*
X144665844Y-104705836D02*
X144618225Y-104610598D01*
X144903939Y-105515360D02*
X143903939Y-106182026D01*
X144903939Y-106182026D02*
X143903939Y-105515360D01*
X118307092Y-41595304D02*
X117973759Y-41119113D01*
X117735664Y-41595304D02*
X117735664Y-40595304D01*
X117735664Y-40595304D02*
X118116616Y-40595304D01*
X118116616Y-40595304D02*
X118211854Y-40642923D01*
X118211854Y-40642923D02*
X118259473Y-40690542D01*
X118259473Y-40690542D02*
X118307092Y-40785780D01*
X118307092Y-40785780D02*
X118307092Y-40928637D01*
X118307092Y-40928637D02*
X118259473Y-41023875D01*
X118259473Y-41023875D02*
X118211854Y-41071494D01*
X118211854Y-41071494D02*
X118116616Y-41119113D01*
X118116616Y-41119113D02*
X117735664Y-41119113D01*
X119164235Y-40928637D02*
X119164235Y-41595304D01*
X118926140Y-40547685D02*
X118688045Y-41261970D01*
X118688045Y-41261970D02*
X119307092Y-41261970D01*
D12*
X105431452Y-59512904D02*
X104860024Y-59512904D01*
X105145738Y-59512904D02*
X105145738Y-58512904D01*
X105145738Y-58512904D02*
X105050500Y-58655761D01*
X105050500Y-58655761D02*
X104955262Y-58750999D01*
X104955262Y-58750999D02*
X104860024Y-58798618D01*
X105764786Y-58512904D02*
X106383833Y-58512904D01*
X106383833Y-58512904D02*
X106050500Y-58893856D01*
X106050500Y-58893856D02*
X106193357Y-58893856D01*
X106193357Y-58893856D02*
X106288595Y-58941475D01*
X106288595Y-58941475D02*
X106336214Y-58989094D01*
X106336214Y-58989094D02*
X106383833Y-59084332D01*
X106383833Y-59084332D02*
X106383833Y-59322427D01*
X106383833Y-59322427D02*
X106336214Y-59417665D01*
X106336214Y-59417665D02*
X106288595Y-59465285D01*
X106288595Y-59465285D02*
X106193357Y-59512904D01*
X106193357Y-59512904D02*
X105907643Y-59512904D01*
X105907643Y-59512904D02*
X105812405Y-59465285D01*
X105812405Y-59465285D02*
X105764786Y-59417665D01*
X91360024Y-67065285D02*
X91502881Y-67112904D01*
X91502881Y-67112904D02*
X91740976Y-67112904D01*
X91740976Y-67112904D02*
X91836214Y-67065285D01*
X91836214Y-67065285D02*
X91883833Y-67017665D01*
X91883833Y-67017665D02*
X91931452Y-66922427D01*
X91931452Y-66922427D02*
X91931452Y-66827189D01*
X91931452Y-66827189D02*
X91883833Y-66731951D01*
X91883833Y-66731951D02*
X91836214Y-66684332D01*
X91836214Y-66684332D02*
X91740976Y-66636713D01*
X91740976Y-66636713D02*
X91550500Y-66589094D01*
X91550500Y-66589094D02*
X91455262Y-66541475D01*
X91455262Y-66541475D02*
X91407643Y-66493856D01*
X91407643Y-66493856D02*
X91360024Y-66398618D01*
X91360024Y-66398618D02*
X91360024Y-66303380D01*
X91360024Y-66303380D02*
X91407643Y-66208142D01*
X91407643Y-66208142D02*
X91455262Y-66160523D01*
X91455262Y-66160523D02*
X91550500Y-66112904D01*
X91550500Y-66112904D02*
X91788595Y-66112904D01*
X91788595Y-66112904D02*
X91931452Y-66160523D01*
X92931452Y-67017665D02*
X92883833Y-67065285D01*
X92883833Y-67065285D02*
X92740976Y-67112904D01*
X92740976Y-67112904D02*
X92645738Y-67112904D01*
X92645738Y-67112904D02*
X92502881Y-67065285D01*
X92502881Y-67065285D02*
X92407643Y-66970046D01*
X92407643Y-66970046D02*
X92360024Y-66874808D01*
X92360024Y-66874808D02*
X92312405Y-66684332D01*
X92312405Y-66684332D02*
X92312405Y-66541475D01*
X92312405Y-66541475D02*
X92360024Y-66350999D01*
X92360024Y-66350999D02*
X92407643Y-66255761D01*
X92407643Y-66255761D02*
X92502881Y-66160523D01*
X92502881Y-66160523D02*
X92645738Y-66112904D01*
X92645738Y-66112904D02*
X92740976Y-66112904D01*
X92740976Y-66112904D02*
X92883833Y-66160523D01*
X92883833Y-66160523D02*
X92931452Y-66208142D01*
X93360024Y-67112904D02*
X93360024Y-66112904D01*
X93931452Y-67112904D02*
X93502881Y-66541475D01*
X93931452Y-66112904D02*
X93360024Y-66684332D01*
X91360024Y-78908142D02*
X91407643Y-78860523D01*
X91407643Y-78860523D02*
X91502881Y-78812904D01*
X91502881Y-78812904D02*
X91740976Y-78812904D01*
X91740976Y-78812904D02*
X91836214Y-78860523D01*
X91836214Y-78860523D02*
X91883833Y-78908142D01*
X91883833Y-78908142D02*
X91931452Y-79003380D01*
X91931452Y-79003380D02*
X91931452Y-79098618D01*
X91931452Y-79098618D02*
X91883833Y-79241475D01*
X91883833Y-79241475D02*
X91312405Y-79812904D01*
X91312405Y-79812904D02*
X91931452Y-79812904D01*
X92883833Y-79812904D02*
X92312405Y-79812904D01*
X92598119Y-79812904D02*
X92598119Y-78812904D01*
X92598119Y-78812904D02*
X92502881Y-78955761D01*
X92502881Y-78955761D02*
X92407643Y-79050999D01*
X92407643Y-79050999D02*
X92312405Y-79098618D01*
X105431452Y-62012904D02*
X104860024Y-62012904D01*
X105145738Y-62012904D02*
X105145738Y-61012904D01*
X105145738Y-61012904D02*
X105050500Y-61155761D01*
X105050500Y-61155761D02*
X104955262Y-61250999D01*
X104955262Y-61250999D02*
X104860024Y-61298618D01*
X105812405Y-61108142D02*
X105860024Y-61060523D01*
X105860024Y-61060523D02*
X105955262Y-61012904D01*
X105955262Y-61012904D02*
X106193357Y-61012904D01*
X106193357Y-61012904D02*
X106288595Y-61060523D01*
X106288595Y-61060523D02*
X106336214Y-61108142D01*
X106336214Y-61108142D02*
X106383833Y-61203380D01*
X106383833Y-61203380D02*
X106383833Y-61298618D01*
X106383833Y-61298618D02*
X106336214Y-61441475D01*
X106336214Y-61441475D02*
X105764786Y-62012904D01*
X105764786Y-62012904D02*
X106383833Y-62012904D01*
X91360024Y-59227189D02*
X91836214Y-59227189D01*
X91264786Y-59512904D02*
X91598119Y-58512904D01*
X91598119Y-58512904D02*
X91931452Y-59512904D01*
X92169548Y-58512904D02*
X92788595Y-58512904D01*
X92788595Y-58512904D02*
X92455262Y-58893856D01*
X92455262Y-58893856D02*
X92598119Y-58893856D01*
X92598119Y-58893856D02*
X92693357Y-58941475D01*
X92693357Y-58941475D02*
X92740976Y-58989094D01*
X92740976Y-58989094D02*
X92788595Y-59084332D01*
X92788595Y-59084332D02*
X92788595Y-59322427D01*
X92788595Y-59322427D02*
X92740976Y-59417665D01*
X92740976Y-59417665D02*
X92693357Y-59465285D01*
X92693357Y-59465285D02*
X92598119Y-59512904D01*
X92598119Y-59512904D02*
X92312405Y-59512904D01*
X92312405Y-59512904D02*
X92217167Y-59465285D01*
X92217167Y-59465285D02*
X92169548Y-59417665D01*
X91412405Y-43212904D02*
X92031452Y-43212904D01*
X92031452Y-43212904D02*
X91698119Y-43593856D01*
X91698119Y-43593856D02*
X91840976Y-43593856D01*
X91840976Y-43593856D02*
X91936214Y-43641475D01*
X91936214Y-43641475D02*
X91983833Y-43689094D01*
X91983833Y-43689094D02*
X92031452Y-43784332D01*
X92031452Y-43784332D02*
X92031452Y-44022427D01*
X92031452Y-44022427D02*
X91983833Y-44117665D01*
X91983833Y-44117665D02*
X91936214Y-44165285D01*
X91936214Y-44165285D02*
X91840976Y-44212904D01*
X91840976Y-44212904D02*
X91555262Y-44212904D01*
X91555262Y-44212904D02*
X91460024Y-44165285D01*
X91460024Y-44165285D02*
X91412405Y-44117665D01*
X92317167Y-43212904D02*
X92650500Y-44212904D01*
X92650500Y-44212904D02*
X92983833Y-43212904D01*
X91264786Y-76212904D02*
X91836214Y-76212904D01*
X91550500Y-77212904D02*
X91550500Y-76212904D01*
X92074310Y-76212904D02*
X92740976Y-77212904D01*
X92740976Y-76212904D02*
X92074310Y-77212904D01*
X91360024Y-56627189D02*
X91836214Y-56627189D01*
X91264786Y-56912904D02*
X91598119Y-55912904D01*
X91598119Y-55912904D02*
X91931452Y-56912904D01*
X92217167Y-56008142D02*
X92264786Y-55960523D01*
X92264786Y-55960523D02*
X92360024Y-55912904D01*
X92360024Y-55912904D02*
X92598119Y-55912904D01*
X92598119Y-55912904D02*
X92693357Y-55960523D01*
X92693357Y-55960523D02*
X92740976Y-56008142D01*
X92740976Y-56008142D02*
X92788595Y-56103380D01*
X92788595Y-56103380D02*
X92788595Y-56198618D01*
X92788595Y-56198618D02*
X92740976Y-56341475D01*
X92740976Y-56341475D02*
X92169548Y-56912904D01*
X92169548Y-56912904D02*
X92788595Y-56912904D01*
X104860024Y-79765285D02*
X105002881Y-79812904D01*
X105002881Y-79812904D02*
X105240976Y-79812904D01*
X105240976Y-79812904D02*
X105336214Y-79765285D01*
X105336214Y-79765285D02*
X105383833Y-79717665D01*
X105383833Y-79717665D02*
X105431452Y-79622427D01*
X105431452Y-79622427D02*
X105431452Y-79527189D01*
X105431452Y-79527189D02*
X105383833Y-79431951D01*
X105383833Y-79431951D02*
X105336214Y-79384332D01*
X105336214Y-79384332D02*
X105240976Y-79336713D01*
X105240976Y-79336713D02*
X105050500Y-79289094D01*
X105050500Y-79289094D02*
X104955262Y-79241475D01*
X104955262Y-79241475D02*
X104907643Y-79193856D01*
X104907643Y-79193856D02*
X104860024Y-79098618D01*
X104860024Y-79098618D02*
X104860024Y-79003380D01*
X104860024Y-79003380D02*
X104907643Y-78908142D01*
X104907643Y-78908142D02*
X104955262Y-78860523D01*
X104955262Y-78860523D02*
X105050500Y-78812904D01*
X105050500Y-78812904D02*
X105288595Y-78812904D01*
X105288595Y-78812904D02*
X105431452Y-78860523D01*
X105860024Y-79812904D02*
X105860024Y-78812904D01*
X105860024Y-78812904D02*
X106098119Y-78812904D01*
X106098119Y-78812904D02*
X106240976Y-78860523D01*
X106240976Y-78860523D02*
X106336214Y-78955761D01*
X106336214Y-78955761D02*
X106383833Y-79050999D01*
X106383833Y-79050999D02*
X106431452Y-79241475D01*
X106431452Y-79241475D02*
X106431452Y-79384332D01*
X106431452Y-79384332D02*
X106383833Y-79574808D01*
X106383833Y-79574808D02*
X106336214Y-79670046D01*
X106336214Y-79670046D02*
X106240976Y-79765285D01*
X106240976Y-79765285D02*
X106098119Y-79812904D01*
X106098119Y-79812904D02*
X105860024Y-79812904D01*
X106812405Y-79527189D02*
X107288595Y-79527189D01*
X106717167Y-79812904D02*
X107050500Y-78812904D01*
X107050500Y-78812904D02*
X107383833Y-79812904D01*
X91360024Y-61727189D02*
X91836214Y-61727189D01*
X91264786Y-62012904D02*
X91598119Y-61012904D01*
X91598119Y-61012904D02*
X91931452Y-62012904D01*
X92693357Y-61346237D02*
X92693357Y-62012904D01*
X92455262Y-60965285D02*
X92217167Y-61679570D01*
X92217167Y-61679570D02*
X92836214Y-61679570D01*
X91360024Y-64327189D02*
X91836214Y-64327189D01*
X91264786Y-64612904D02*
X91598119Y-63612904D01*
X91598119Y-63612904D02*
X91931452Y-64612904D01*
X92740976Y-63612904D02*
X92264786Y-63612904D01*
X92264786Y-63612904D02*
X92217167Y-64089094D01*
X92217167Y-64089094D02*
X92264786Y-64041475D01*
X92264786Y-64041475D02*
X92360024Y-63993856D01*
X92360024Y-63993856D02*
X92598119Y-63993856D01*
X92598119Y-63993856D02*
X92693357Y-64041475D01*
X92693357Y-64041475D02*
X92740976Y-64089094D01*
X92740976Y-64089094D02*
X92788595Y-64184332D01*
X92788595Y-64184332D02*
X92788595Y-64422427D01*
X92788595Y-64422427D02*
X92740976Y-64517665D01*
X92740976Y-64517665D02*
X92693357Y-64565285D01*
X92693357Y-64565285D02*
X92598119Y-64612904D01*
X92598119Y-64612904D02*
X92360024Y-64612904D01*
X92360024Y-64612904D02*
X92264786Y-64565285D01*
X92264786Y-64565285D02*
X92217167Y-64517665D01*
X104907643Y-55912904D02*
X104907643Y-56722427D01*
X104907643Y-56722427D02*
X104955262Y-56817665D01*
X104955262Y-56817665D02*
X105002881Y-56865285D01*
X105002881Y-56865285D02*
X105098119Y-56912904D01*
X105098119Y-56912904D02*
X105288595Y-56912904D01*
X105288595Y-56912904D02*
X105383833Y-56865285D01*
X105383833Y-56865285D02*
X105431452Y-56817665D01*
X105431452Y-56817665D02*
X105479071Y-56722427D01*
X105479071Y-56722427D02*
X105479071Y-55912904D01*
X105907643Y-56865285D02*
X106050500Y-56912904D01*
X106050500Y-56912904D02*
X106288595Y-56912904D01*
X106288595Y-56912904D02*
X106383833Y-56865285D01*
X106383833Y-56865285D02*
X106431452Y-56817665D01*
X106431452Y-56817665D02*
X106479071Y-56722427D01*
X106479071Y-56722427D02*
X106479071Y-56627189D01*
X106479071Y-56627189D02*
X106431452Y-56531951D01*
X106431452Y-56531951D02*
X106383833Y-56484332D01*
X106383833Y-56484332D02*
X106288595Y-56436713D01*
X106288595Y-56436713D02*
X106098119Y-56389094D01*
X106098119Y-56389094D02*
X106002881Y-56341475D01*
X106002881Y-56341475D02*
X105955262Y-56293856D01*
X105955262Y-56293856D02*
X105907643Y-56198618D01*
X105907643Y-56198618D02*
X105907643Y-56103380D01*
X105907643Y-56103380D02*
X105955262Y-56008142D01*
X105955262Y-56008142D02*
X106002881Y-55960523D01*
X106002881Y-55960523D02*
X106098119Y-55912904D01*
X106098119Y-55912904D02*
X106336214Y-55912904D01*
X106336214Y-55912904D02*
X106479071Y-55960523D01*
X107240976Y-56389094D02*
X107383833Y-56436713D01*
X107383833Y-56436713D02*
X107431452Y-56484332D01*
X107431452Y-56484332D02*
X107479071Y-56579570D01*
X107479071Y-56579570D02*
X107479071Y-56722427D01*
X107479071Y-56722427D02*
X107431452Y-56817665D01*
X107431452Y-56817665D02*
X107383833Y-56865285D01*
X107383833Y-56865285D02*
X107288595Y-56912904D01*
X107288595Y-56912904D02*
X106907643Y-56912904D01*
X106907643Y-56912904D02*
X106907643Y-55912904D01*
X106907643Y-55912904D02*
X107240976Y-55912904D01*
X107240976Y-55912904D02*
X107336214Y-55960523D01*
X107336214Y-55960523D02*
X107383833Y-56008142D01*
X107383833Y-56008142D02*
X107431452Y-56103380D01*
X107431452Y-56103380D02*
X107431452Y-56198618D01*
X107431452Y-56198618D02*
X107383833Y-56293856D01*
X107383833Y-56293856D02*
X107336214Y-56341475D01*
X107336214Y-56341475D02*
X107240976Y-56389094D01*
X107240976Y-56389094D02*
X106907643Y-56389094D01*
X105431452Y-74712904D02*
X104860024Y-74712904D01*
X105145738Y-74712904D02*
X105145738Y-73712904D01*
X105145738Y-73712904D02*
X105050500Y-73855761D01*
X105050500Y-73855761D02*
X104955262Y-73950999D01*
X104955262Y-73950999D02*
X104860024Y-73998618D01*
X106288595Y-74046237D02*
X106288595Y-74712904D01*
X106050500Y-73665285D02*
X105812405Y-74379570D01*
X105812405Y-74379570D02*
X106431452Y-74379570D01*
X91360024Y-51627189D02*
X91836214Y-51627189D01*
X91264786Y-51912904D02*
X91598119Y-50912904D01*
X91598119Y-50912904D02*
X91931452Y-51912904D01*
X92455262Y-50912904D02*
X92550500Y-50912904D01*
X92550500Y-50912904D02*
X92645738Y-50960523D01*
X92645738Y-50960523D02*
X92693357Y-51008142D01*
X92693357Y-51008142D02*
X92740976Y-51103380D01*
X92740976Y-51103380D02*
X92788595Y-51293856D01*
X92788595Y-51293856D02*
X92788595Y-51531951D01*
X92788595Y-51531951D02*
X92740976Y-51722427D01*
X92740976Y-51722427D02*
X92693357Y-51817665D01*
X92693357Y-51817665D02*
X92645738Y-51865285D01*
X92645738Y-51865285D02*
X92550500Y-51912904D01*
X92550500Y-51912904D02*
X92455262Y-51912904D01*
X92455262Y-51912904D02*
X92360024Y-51865285D01*
X92360024Y-51865285D02*
X92312405Y-51817665D01*
X92312405Y-51817665D02*
X92264786Y-51722427D01*
X92264786Y-51722427D02*
X92217167Y-51531951D01*
X92217167Y-51531951D02*
X92217167Y-51293856D01*
X92217167Y-51293856D02*
X92264786Y-51103380D01*
X92264786Y-51103380D02*
X92312405Y-51008142D01*
X92312405Y-51008142D02*
X92360024Y-50960523D01*
X92360024Y-50960523D02*
X92455262Y-50912904D01*
X104812405Y-66112904D02*
X105431452Y-66112904D01*
X105431452Y-66112904D02*
X105098119Y-66493856D01*
X105098119Y-66493856D02*
X105240976Y-66493856D01*
X105240976Y-66493856D02*
X105336214Y-66541475D01*
X105336214Y-66541475D02*
X105383833Y-66589094D01*
X105383833Y-66589094D02*
X105431452Y-66684332D01*
X105431452Y-66684332D02*
X105431452Y-66922427D01*
X105431452Y-66922427D02*
X105383833Y-67017665D01*
X105383833Y-67017665D02*
X105336214Y-67065285D01*
X105336214Y-67065285D02*
X105240976Y-67112904D01*
X105240976Y-67112904D02*
X104955262Y-67112904D01*
X104955262Y-67112904D02*
X104860024Y-67065285D01*
X104860024Y-67065285D02*
X104812405Y-67017665D01*
X105764786Y-66112904D02*
X106383833Y-66112904D01*
X106383833Y-66112904D02*
X106050500Y-66493856D01*
X106050500Y-66493856D02*
X106193357Y-66493856D01*
X106193357Y-66493856D02*
X106288595Y-66541475D01*
X106288595Y-66541475D02*
X106336214Y-66589094D01*
X106336214Y-66589094D02*
X106383833Y-66684332D01*
X106383833Y-66684332D02*
X106383833Y-66922427D01*
X106383833Y-66922427D02*
X106336214Y-67017665D01*
X106336214Y-67017665D02*
X106288595Y-67065285D01*
X106288595Y-67065285D02*
X106193357Y-67112904D01*
X106193357Y-67112904D02*
X105907643Y-67112904D01*
X105907643Y-67112904D02*
X105812405Y-67065285D01*
X105812405Y-67065285D02*
X105764786Y-67017665D01*
X104860024Y-77165285D02*
X105002881Y-77212904D01*
X105002881Y-77212904D02*
X105240976Y-77212904D01*
X105240976Y-77212904D02*
X105336214Y-77165285D01*
X105336214Y-77165285D02*
X105383833Y-77117665D01*
X105383833Y-77117665D02*
X105431452Y-77022427D01*
X105431452Y-77022427D02*
X105431452Y-76927189D01*
X105431452Y-76927189D02*
X105383833Y-76831951D01*
X105383833Y-76831951D02*
X105336214Y-76784332D01*
X105336214Y-76784332D02*
X105240976Y-76736713D01*
X105240976Y-76736713D02*
X105050500Y-76689094D01*
X105050500Y-76689094D02*
X104955262Y-76641475D01*
X104955262Y-76641475D02*
X104907643Y-76593856D01*
X104907643Y-76593856D02*
X104860024Y-76498618D01*
X104860024Y-76498618D02*
X104860024Y-76403380D01*
X104860024Y-76403380D02*
X104907643Y-76308142D01*
X104907643Y-76308142D02*
X104955262Y-76260523D01*
X104955262Y-76260523D02*
X105050500Y-76212904D01*
X105050500Y-76212904D02*
X105288595Y-76212904D01*
X105288595Y-76212904D02*
X105431452Y-76260523D01*
X106431452Y-77117665D02*
X106383833Y-77165285D01*
X106383833Y-77165285D02*
X106240976Y-77212904D01*
X106240976Y-77212904D02*
X106145738Y-77212904D01*
X106145738Y-77212904D02*
X106002881Y-77165285D01*
X106002881Y-77165285D02*
X105907643Y-77070046D01*
X105907643Y-77070046D02*
X105860024Y-76974808D01*
X105860024Y-76974808D02*
X105812405Y-76784332D01*
X105812405Y-76784332D02*
X105812405Y-76641475D01*
X105812405Y-76641475D02*
X105860024Y-76450999D01*
X105860024Y-76450999D02*
X105907643Y-76355761D01*
X105907643Y-76355761D02*
X106002881Y-76260523D01*
X106002881Y-76260523D02*
X106145738Y-76212904D01*
X106145738Y-76212904D02*
X106240976Y-76212904D01*
X106240976Y-76212904D02*
X106383833Y-76260523D01*
X106383833Y-76260523D02*
X106431452Y-76308142D01*
X107336214Y-77212904D02*
X106860024Y-77212904D01*
X106860024Y-77212904D02*
X106860024Y-76212904D01*
X104860024Y-63708142D02*
X104907643Y-63660523D01*
X104907643Y-63660523D02*
X105002881Y-63612904D01*
X105002881Y-63612904D02*
X105240976Y-63612904D01*
X105240976Y-63612904D02*
X105336214Y-63660523D01*
X105336214Y-63660523D02*
X105383833Y-63708142D01*
X105383833Y-63708142D02*
X105431452Y-63803380D01*
X105431452Y-63803380D02*
X105431452Y-63898618D01*
X105431452Y-63898618D02*
X105383833Y-64041475D01*
X105383833Y-64041475D02*
X104812405Y-64612904D01*
X104812405Y-64612904D02*
X105431452Y-64612904D01*
X105764786Y-63612904D02*
X106431452Y-63612904D01*
X106431452Y-63612904D02*
X106002881Y-64612904D01*
X104812405Y-71212904D02*
X105431452Y-71212904D01*
X105431452Y-71212904D02*
X105098119Y-71593856D01*
X105098119Y-71593856D02*
X105240976Y-71593856D01*
X105240976Y-71593856D02*
X105336214Y-71641475D01*
X105336214Y-71641475D02*
X105383833Y-71689094D01*
X105383833Y-71689094D02*
X105431452Y-71784332D01*
X105431452Y-71784332D02*
X105431452Y-72022427D01*
X105431452Y-72022427D02*
X105383833Y-72117665D01*
X105383833Y-72117665D02*
X105336214Y-72165285D01*
X105336214Y-72165285D02*
X105240976Y-72212904D01*
X105240976Y-72212904D02*
X104955262Y-72212904D01*
X104955262Y-72212904D02*
X104860024Y-72165285D01*
X104860024Y-72165285D02*
X104812405Y-72117665D01*
X105812405Y-71308142D02*
X105860024Y-71260523D01*
X105860024Y-71260523D02*
X105955262Y-71212904D01*
X105955262Y-71212904D02*
X106193357Y-71212904D01*
X106193357Y-71212904D02*
X106288595Y-71260523D01*
X106288595Y-71260523D02*
X106336214Y-71308142D01*
X106336214Y-71308142D02*
X106383833Y-71403380D01*
X106383833Y-71403380D02*
X106383833Y-71498618D01*
X106383833Y-71498618D02*
X106336214Y-71641475D01*
X106336214Y-71641475D02*
X105764786Y-72212904D01*
X105764786Y-72212904D02*
X106383833Y-72212904D01*
X105240976Y-51389094D02*
X105383833Y-51436713D01*
X105383833Y-51436713D02*
X105431452Y-51484332D01*
X105431452Y-51484332D02*
X105479071Y-51579570D01*
X105479071Y-51579570D02*
X105479071Y-51722427D01*
X105479071Y-51722427D02*
X105431452Y-51817665D01*
X105431452Y-51817665D02*
X105383833Y-51865285D01*
X105383833Y-51865285D02*
X105288595Y-51912904D01*
X105288595Y-51912904D02*
X104907643Y-51912904D01*
X104907643Y-51912904D02*
X104907643Y-50912904D01*
X104907643Y-50912904D02*
X105240976Y-50912904D01*
X105240976Y-50912904D02*
X105336214Y-50960523D01*
X105336214Y-50960523D02*
X105383833Y-51008142D01*
X105383833Y-51008142D02*
X105431452Y-51103380D01*
X105431452Y-51103380D02*
X105431452Y-51198618D01*
X105431452Y-51198618D02*
X105383833Y-51293856D01*
X105383833Y-51293856D02*
X105336214Y-51341475D01*
X105336214Y-51341475D02*
X105240976Y-51389094D01*
X105240976Y-51389094D02*
X104907643Y-51389094D01*
X105860024Y-51627189D02*
X106336214Y-51627189D01*
X105764786Y-51912904D02*
X106098119Y-50912904D01*
X106098119Y-50912904D02*
X106431452Y-51912904D01*
X106621929Y-50912904D02*
X107193357Y-50912904D01*
X106907643Y-51912904D02*
X106907643Y-50912904D01*
X92031452Y-48360523D02*
X91936214Y-48312904D01*
X91936214Y-48312904D02*
X91793357Y-48312904D01*
X91793357Y-48312904D02*
X91650500Y-48360523D01*
X91650500Y-48360523D02*
X91555262Y-48455761D01*
X91555262Y-48455761D02*
X91507643Y-48550999D01*
X91507643Y-48550999D02*
X91460024Y-48741475D01*
X91460024Y-48741475D02*
X91460024Y-48884332D01*
X91460024Y-48884332D02*
X91507643Y-49074808D01*
X91507643Y-49074808D02*
X91555262Y-49170046D01*
X91555262Y-49170046D02*
X91650500Y-49265285D01*
X91650500Y-49265285D02*
X91793357Y-49312904D01*
X91793357Y-49312904D02*
X91888595Y-49312904D01*
X91888595Y-49312904D02*
X92031452Y-49265285D01*
X92031452Y-49265285D02*
X92079071Y-49217665D01*
X92079071Y-49217665D02*
X92079071Y-48884332D01*
X92079071Y-48884332D02*
X91888595Y-48884332D01*
X92507643Y-49312904D02*
X92507643Y-48312904D01*
X92507643Y-48312904D02*
X93079071Y-49312904D01*
X93079071Y-49312904D02*
X93079071Y-48312904D01*
X93555262Y-49312904D02*
X93555262Y-48312904D01*
X93555262Y-48312904D02*
X93793357Y-48312904D01*
X93793357Y-48312904D02*
X93936214Y-48360523D01*
X93936214Y-48360523D02*
X94031452Y-48455761D01*
X94031452Y-48455761D02*
X94079071Y-48550999D01*
X94079071Y-48550999D02*
X94126690Y-48741475D01*
X94126690Y-48741475D02*
X94126690Y-48884332D01*
X94126690Y-48884332D02*
X94079071Y-49074808D01*
X94079071Y-49074808D02*
X94031452Y-49170046D01*
X94031452Y-49170046D02*
X93936214Y-49265285D01*
X93936214Y-49265285D02*
X93793357Y-49312904D01*
X93793357Y-49312904D02*
X93555262Y-49312904D01*
X92079071Y-41712904D02*
X91745738Y-41236713D01*
X91507643Y-41712904D02*
X91507643Y-40712904D01*
X91507643Y-40712904D02*
X91888595Y-40712904D01*
X91888595Y-40712904D02*
X91983833Y-40760523D01*
X91983833Y-40760523D02*
X92031452Y-40808142D01*
X92031452Y-40808142D02*
X92079071Y-40903380D01*
X92079071Y-40903380D02*
X92079071Y-41046237D01*
X92079071Y-41046237D02*
X92031452Y-41141475D01*
X92031452Y-41141475D02*
X91983833Y-41189094D01*
X91983833Y-41189094D02*
X91888595Y-41236713D01*
X91888595Y-41236713D02*
X91507643Y-41236713D01*
X92460024Y-41665285D02*
X92602881Y-41712904D01*
X92602881Y-41712904D02*
X92840976Y-41712904D01*
X92840976Y-41712904D02*
X92936214Y-41665285D01*
X92936214Y-41665285D02*
X92983833Y-41617665D01*
X92983833Y-41617665D02*
X93031452Y-41522427D01*
X93031452Y-41522427D02*
X93031452Y-41427189D01*
X93031452Y-41427189D02*
X92983833Y-41331951D01*
X92983833Y-41331951D02*
X92936214Y-41284332D01*
X92936214Y-41284332D02*
X92840976Y-41236713D01*
X92840976Y-41236713D02*
X92650500Y-41189094D01*
X92650500Y-41189094D02*
X92555262Y-41141475D01*
X92555262Y-41141475D02*
X92507643Y-41093856D01*
X92507643Y-41093856D02*
X92460024Y-40998618D01*
X92460024Y-40998618D02*
X92460024Y-40903380D01*
X92460024Y-40903380D02*
X92507643Y-40808142D01*
X92507643Y-40808142D02*
X92555262Y-40760523D01*
X92555262Y-40760523D02*
X92650500Y-40712904D01*
X92650500Y-40712904D02*
X92888595Y-40712904D01*
X92888595Y-40712904D02*
X93031452Y-40760523D01*
X93317167Y-40712904D02*
X93888595Y-40712904D01*
X93602881Y-41712904D02*
X93602881Y-40712904D01*
X91507643Y-46812904D02*
X91507643Y-45812904D01*
X91507643Y-45812904D02*
X92079071Y-46812904D01*
X92079071Y-46812904D02*
X92079071Y-45812904D01*
X92412405Y-45812904D02*
X92745738Y-46812904D01*
X92745738Y-46812904D02*
X93079071Y-45812904D01*
X91407643Y-72212904D02*
X91407643Y-71212904D01*
X91407643Y-71212904D02*
X91740976Y-71927189D01*
X91740976Y-71927189D02*
X92074309Y-71212904D01*
X92074309Y-71212904D02*
X92074309Y-72212904D01*
X92550500Y-72212904D02*
X92550500Y-71212904D01*
X91360024Y-54127189D02*
X91836214Y-54127189D01*
X91264786Y-54412904D02*
X91598119Y-53412904D01*
X91598119Y-53412904D02*
X91931452Y-54412904D01*
X92788595Y-54412904D02*
X92217167Y-54412904D01*
X92502881Y-54412904D02*
X92502881Y-53412904D01*
X92502881Y-53412904D02*
X92407643Y-53555761D01*
X92407643Y-53555761D02*
X92312405Y-53650999D01*
X92312405Y-53650999D02*
X92217167Y-53698618D01*
X91979071Y-74712904D02*
X91645738Y-74236713D01*
X91407643Y-74712904D02*
X91407643Y-73712904D01*
X91407643Y-73712904D02*
X91788595Y-73712904D01*
X91788595Y-73712904D02*
X91883833Y-73760523D01*
X91883833Y-73760523D02*
X91931452Y-73808142D01*
X91931452Y-73808142D02*
X91979071Y-73903380D01*
X91979071Y-73903380D02*
X91979071Y-74046237D01*
X91979071Y-74046237D02*
X91931452Y-74141475D01*
X91931452Y-74141475D02*
X91883833Y-74189094D01*
X91883833Y-74189094D02*
X91788595Y-74236713D01*
X91788595Y-74236713D02*
X91407643Y-74236713D01*
X92312405Y-73712904D02*
X92979071Y-74712904D01*
X92979071Y-73712904D02*
X92312405Y-74712904D01*
X105431452Y-69612904D02*
X104860024Y-69612904D01*
X105145738Y-69612904D02*
X105145738Y-68612904D01*
X105145738Y-68612904D02*
X105050500Y-68755761D01*
X105050500Y-68755761D02*
X104955262Y-68850999D01*
X104955262Y-68850999D02*
X104860024Y-68898618D01*
X106336214Y-68612904D02*
X105860024Y-68612904D01*
X105860024Y-68612904D02*
X105812405Y-69089094D01*
X105812405Y-69089094D02*
X105860024Y-69041475D01*
X105860024Y-69041475D02*
X105955262Y-68993856D01*
X105955262Y-68993856D02*
X106193357Y-68993856D01*
X106193357Y-68993856D02*
X106288595Y-69041475D01*
X106288595Y-69041475D02*
X106336214Y-69089094D01*
X106336214Y-69089094D02*
X106383833Y-69184332D01*
X106383833Y-69184332D02*
X106383833Y-69422427D01*
X106383833Y-69422427D02*
X106336214Y-69517665D01*
X106336214Y-69517665D02*
X106288595Y-69565285D01*
X106288595Y-69565285D02*
X106193357Y-69612904D01*
X106193357Y-69612904D02*
X105955262Y-69612904D01*
X105955262Y-69612904D02*
X105860024Y-69565285D01*
X105860024Y-69565285D02*
X105812405Y-69517665D01*
X104907643Y-53889094D02*
X105240976Y-53889094D01*
X105383833Y-54412904D02*
X104907643Y-54412904D01*
X104907643Y-54412904D02*
X104907643Y-53412904D01*
X104907643Y-53412904D02*
X105383833Y-53412904D01*
X105812405Y-54412904D02*
X105812405Y-53412904D01*
X105812405Y-53412904D02*
X106383833Y-54412904D01*
X106383833Y-54412904D02*
X106383833Y-53412904D01*
X91407643Y-69612904D02*
X91407643Y-68612904D01*
X91407643Y-68612904D02*
X91740976Y-69327189D01*
X91740976Y-69327189D02*
X92074309Y-68612904D01*
X92074309Y-68612904D02*
X92074309Y-69612904D01*
X92740976Y-68612904D02*
X92931452Y-68612904D01*
X92931452Y-68612904D02*
X93026690Y-68660523D01*
X93026690Y-68660523D02*
X93121928Y-68755761D01*
X93121928Y-68755761D02*
X93169547Y-68946237D01*
X93169547Y-68946237D02*
X93169547Y-69279570D01*
X93169547Y-69279570D02*
X93121928Y-69470046D01*
X93121928Y-69470046D02*
X93026690Y-69565285D01*
X93026690Y-69565285D02*
X92931452Y-69612904D01*
X92931452Y-69612904D02*
X92740976Y-69612904D01*
X92740976Y-69612904D02*
X92645738Y-69565285D01*
X92645738Y-69565285D02*
X92550500Y-69470046D01*
X92550500Y-69470046D02*
X92502881Y-69279570D01*
X92502881Y-69279570D02*
X92502881Y-68946237D01*
X92502881Y-68946237D02*
X92550500Y-68755761D01*
X92550500Y-68755761D02*
X92645738Y-68660523D01*
X92645738Y-68660523D02*
X92740976Y-68612904D01*
X65478724Y-96438003D02*
X65478724Y-95638003D01*
X65478724Y-95638003D02*
X65783486Y-95638003D01*
X65783486Y-95638003D02*
X65859676Y-95676098D01*
X65859676Y-95676098D02*
X65897771Y-95714193D01*
X65897771Y-95714193D02*
X65935867Y-95790384D01*
X65935867Y-95790384D02*
X65935867Y-95904669D01*
X65935867Y-95904669D02*
X65897771Y-95980860D01*
X65897771Y-95980860D02*
X65859676Y-96018955D01*
X65859676Y-96018955D02*
X65783486Y-96057050D01*
X65783486Y-96057050D02*
X65478724Y-96057050D01*
X66240628Y-96399908D02*
X66354914Y-96438003D01*
X66354914Y-96438003D02*
X66545390Y-96438003D01*
X66545390Y-96438003D02*
X66621581Y-96399908D01*
X66621581Y-96399908D02*
X66659676Y-96361812D01*
X66659676Y-96361812D02*
X66697771Y-96285622D01*
X66697771Y-96285622D02*
X66697771Y-96209431D01*
X66697771Y-96209431D02*
X66659676Y-96133241D01*
X66659676Y-96133241D02*
X66621581Y-96095146D01*
X66621581Y-96095146D02*
X66545390Y-96057050D01*
X66545390Y-96057050D02*
X66393009Y-96018955D01*
X66393009Y-96018955D02*
X66316819Y-95980860D01*
X66316819Y-95980860D02*
X66278724Y-95942765D01*
X66278724Y-95942765D02*
X66240628Y-95866574D01*
X66240628Y-95866574D02*
X66240628Y-95790384D01*
X66240628Y-95790384D02*
X66278724Y-95714193D01*
X66278724Y-95714193D02*
X66316819Y-95676098D01*
X66316819Y-95676098D02*
X66393009Y-95638003D01*
X66393009Y-95638003D02*
X66583486Y-95638003D01*
X66583486Y-95638003D02*
X66697771Y-95676098D01*
X67459676Y-96438003D02*
X67002533Y-96438003D01*
X67231105Y-96438003D02*
X67231105Y-95638003D01*
X67231105Y-95638003D02*
X67154914Y-95752288D01*
X67154914Y-95752288D02*
X67078724Y-95828479D01*
X67078724Y-95828479D02*
X67002533Y-95866574D01*
X62811724Y-96438003D02*
X62811724Y-95638003D01*
X62811724Y-95638003D02*
X63116486Y-95638003D01*
X63116486Y-95638003D02*
X63192676Y-95676098D01*
X63192676Y-95676098D02*
X63230771Y-95714193D01*
X63230771Y-95714193D02*
X63268867Y-95790384D01*
X63268867Y-95790384D02*
X63268867Y-95904669D01*
X63268867Y-95904669D02*
X63230771Y-95980860D01*
X63230771Y-95980860D02*
X63192676Y-96018955D01*
X63192676Y-96018955D02*
X63116486Y-96057050D01*
X63116486Y-96057050D02*
X62811724Y-96057050D01*
X63573628Y-96399908D02*
X63687914Y-96438003D01*
X63687914Y-96438003D02*
X63878390Y-96438003D01*
X63878390Y-96438003D02*
X63954581Y-96399908D01*
X63954581Y-96399908D02*
X63992676Y-96361812D01*
X63992676Y-96361812D02*
X64030771Y-96285622D01*
X64030771Y-96285622D02*
X64030771Y-96209431D01*
X64030771Y-96209431D02*
X63992676Y-96133241D01*
X63992676Y-96133241D02*
X63954581Y-96095146D01*
X63954581Y-96095146D02*
X63878390Y-96057050D01*
X63878390Y-96057050D02*
X63726009Y-96018955D01*
X63726009Y-96018955D02*
X63649819Y-95980860D01*
X63649819Y-95980860D02*
X63611724Y-95942765D01*
X63611724Y-95942765D02*
X63573628Y-95866574D01*
X63573628Y-95866574D02*
X63573628Y-95790384D01*
X63573628Y-95790384D02*
X63611724Y-95714193D01*
X63611724Y-95714193D02*
X63649819Y-95676098D01*
X63649819Y-95676098D02*
X63726009Y-95638003D01*
X63726009Y-95638003D02*
X63916486Y-95638003D01*
X63916486Y-95638003D02*
X64030771Y-95676098D01*
X64526010Y-95638003D02*
X64602200Y-95638003D01*
X64602200Y-95638003D02*
X64678391Y-95676098D01*
X64678391Y-95676098D02*
X64716486Y-95714193D01*
X64716486Y-95714193D02*
X64754581Y-95790384D01*
X64754581Y-95790384D02*
X64792676Y-95942765D01*
X64792676Y-95942765D02*
X64792676Y-96133241D01*
X64792676Y-96133241D02*
X64754581Y-96285622D01*
X64754581Y-96285622D02*
X64716486Y-96361812D01*
X64716486Y-96361812D02*
X64678391Y-96399908D01*
X64678391Y-96399908D02*
X64602200Y-96438003D01*
X64602200Y-96438003D02*
X64526010Y-96438003D01*
X64526010Y-96438003D02*
X64449819Y-96399908D01*
X64449819Y-96399908D02*
X64411724Y-96361812D01*
X64411724Y-96361812D02*
X64373629Y-96285622D01*
X64373629Y-96285622D02*
X64335533Y-96133241D01*
X64335533Y-96133241D02*
X64335533Y-95942765D01*
X64335533Y-95942765D02*
X64373629Y-95790384D01*
X64373629Y-95790384D02*
X64411724Y-95714193D01*
X64411724Y-95714193D02*
X64449819Y-95676098D01*
X64449819Y-95676098D02*
X64526010Y-95638003D01*
X67955228Y-110877908D02*
X68069514Y-110916003D01*
X68069514Y-110916003D02*
X68259990Y-110916003D01*
X68259990Y-110916003D02*
X68336181Y-110877908D01*
X68336181Y-110877908D02*
X68374276Y-110839812D01*
X68374276Y-110839812D02*
X68412371Y-110763622D01*
X68412371Y-110763622D02*
X68412371Y-110687431D01*
X68412371Y-110687431D02*
X68374276Y-110611241D01*
X68374276Y-110611241D02*
X68336181Y-110573146D01*
X68336181Y-110573146D02*
X68259990Y-110535050D01*
X68259990Y-110535050D02*
X68107609Y-110496955D01*
X68107609Y-110496955D02*
X68031419Y-110458860D01*
X68031419Y-110458860D02*
X67993324Y-110420765D01*
X67993324Y-110420765D02*
X67955228Y-110344574D01*
X67955228Y-110344574D02*
X67955228Y-110268384D01*
X67955228Y-110268384D02*
X67993324Y-110192193D01*
X67993324Y-110192193D02*
X68031419Y-110154098D01*
X68031419Y-110154098D02*
X68107609Y-110116003D01*
X68107609Y-110116003D02*
X68298086Y-110116003D01*
X68298086Y-110116003D02*
X68412371Y-110154098D01*
X68755229Y-110916003D02*
X68755229Y-110116003D01*
X68755229Y-110116003D02*
X68945705Y-110116003D01*
X68945705Y-110116003D02*
X69059991Y-110154098D01*
X69059991Y-110154098D02*
X69136181Y-110230288D01*
X69136181Y-110230288D02*
X69174276Y-110306479D01*
X69174276Y-110306479D02*
X69212372Y-110458860D01*
X69212372Y-110458860D02*
X69212372Y-110573146D01*
X69212372Y-110573146D02*
X69174276Y-110725527D01*
X69174276Y-110725527D02*
X69136181Y-110801717D01*
X69136181Y-110801717D02*
X69059991Y-110877908D01*
X69059991Y-110877908D02*
X68945705Y-110916003D01*
X68945705Y-110916003D02*
X68755229Y-110916003D01*
X69517133Y-110687431D02*
X69898086Y-110687431D01*
X69440943Y-110916003D02*
X69707610Y-110116003D01*
X69707610Y-110116003D02*
X69974276Y-110916003D01*
X63253533Y-110116003D02*
X63748771Y-110116003D01*
X63748771Y-110116003D02*
X63482105Y-110420765D01*
X63482105Y-110420765D02*
X63596390Y-110420765D01*
X63596390Y-110420765D02*
X63672581Y-110458860D01*
X63672581Y-110458860D02*
X63710676Y-110496955D01*
X63710676Y-110496955D02*
X63748771Y-110573146D01*
X63748771Y-110573146D02*
X63748771Y-110763622D01*
X63748771Y-110763622D02*
X63710676Y-110839812D01*
X63710676Y-110839812D02*
X63672581Y-110877908D01*
X63672581Y-110877908D02*
X63596390Y-110916003D01*
X63596390Y-110916003D02*
X63367819Y-110916003D01*
X63367819Y-110916003D02*
X63291628Y-110877908D01*
X63291628Y-110877908D02*
X63253533Y-110839812D01*
X63977343Y-110116003D02*
X64244010Y-110916003D01*
X64244010Y-110916003D02*
X64510676Y-110116003D01*
X60515438Y-110116003D02*
X60782105Y-110916003D01*
X60782105Y-110916003D02*
X61048771Y-110116003D01*
X61315438Y-110916003D02*
X61315438Y-110116003D01*
X61696390Y-110916003D02*
X61696390Y-110116003D01*
X61696390Y-110116003D02*
X62153533Y-110916003D01*
X62153533Y-110916003D02*
X62153533Y-110116003D01*
X70520628Y-96209431D02*
X70901581Y-96209431D01*
X70444438Y-96438003D02*
X70711105Y-95638003D01*
X70711105Y-95638003D02*
X70977771Y-96438003D01*
X71244438Y-96438003D02*
X71244438Y-95638003D01*
X71244438Y-95638003D02*
X71434914Y-95638003D01*
X71434914Y-95638003D02*
X71549200Y-95676098D01*
X71549200Y-95676098D02*
X71625390Y-95752288D01*
X71625390Y-95752288D02*
X71663485Y-95828479D01*
X71663485Y-95828479D02*
X71701581Y-95980860D01*
X71701581Y-95980860D02*
X71701581Y-96095146D01*
X71701581Y-96095146D02*
X71663485Y-96247527D01*
X71663485Y-96247527D02*
X71625390Y-96323717D01*
X71625390Y-96323717D02*
X71549200Y-96399908D01*
X71549200Y-96399908D02*
X71434914Y-96438003D01*
X71434914Y-96438003D02*
X71244438Y-96438003D01*
X72501581Y-96438003D02*
X72234914Y-96057050D01*
X72044438Y-96438003D02*
X72044438Y-95638003D01*
X72044438Y-95638003D02*
X72349200Y-95638003D01*
X72349200Y-95638003D02*
X72425390Y-95676098D01*
X72425390Y-95676098D02*
X72463485Y-95714193D01*
X72463485Y-95714193D02*
X72501581Y-95790384D01*
X72501581Y-95790384D02*
X72501581Y-95904669D01*
X72501581Y-95904669D02*
X72463485Y-95980860D01*
X72463485Y-95980860D02*
X72425390Y-96018955D01*
X72425390Y-96018955D02*
X72349200Y-96057050D01*
X72349200Y-96057050D02*
X72044438Y-96057050D01*
X68272724Y-96438003D02*
X68272724Y-95638003D01*
X68653676Y-96438003D02*
X68653676Y-95638003D01*
X68653676Y-95638003D02*
X69110819Y-96438003D01*
X69110819Y-96438003D02*
X69110819Y-95638003D01*
X69377485Y-95638003D02*
X69834628Y-95638003D01*
X69606056Y-96438003D02*
X69606056Y-95638003D01*
X65743771Y-110154098D02*
X65667581Y-110116003D01*
X65667581Y-110116003D02*
X65553295Y-110116003D01*
X65553295Y-110116003D02*
X65439009Y-110154098D01*
X65439009Y-110154098D02*
X65362819Y-110230288D01*
X65362819Y-110230288D02*
X65324724Y-110306479D01*
X65324724Y-110306479D02*
X65286628Y-110458860D01*
X65286628Y-110458860D02*
X65286628Y-110573146D01*
X65286628Y-110573146D02*
X65324724Y-110725527D01*
X65324724Y-110725527D02*
X65362819Y-110801717D01*
X65362819Y-110801717D02*
X65439009Y-110877908D01*
X65439009Y-110877908D02*
X65553295Y-110916003D01*
X65553295Y-110916003D02*
X65629486Y-110916003D01*
X65629486Y-110916003D02*
X65743771Y-110877908D01*
X65743771Y-110877908D02*
X65781867Y-110839812D01*
X65781867Y-110839812D02*
X65781867Y-110573146D01*
X65781867Y-110573146D02*
X65629486Y-110573146D01*
X66124724Y-110916003D02*
X66124724Y-110116003D01*
X66124724Y-110116003D02*
X66581867Y-110916003D01*
X66581867Y-110916003D02*
X66581867Y-110116003D01*
X66962819Y-110916003D02*
X66962819Y-110116003D01*
X66962819Y-110116003D02*
X67153295Y-110116003D01*
X67153295Y-110116003D02*
X67267581Y-110154098D01*
X67267581Y-110154098D02*
X67343771Y-110230288D01*
X67343771Y-110230288D02*
X67381866Y-110306479D01*
X67381866Y-110306479D02*
X67419962Y-110458860D01*
X67419962Y-110458860D02*
X67419962Y-110573146D01*
X67419962Y-110573146D02*
X67381866Y-110725527D01*
X67381866Y-110725527D02*
X67343771Y-110801717D01*
X67343771Y-110801717D02*
X67267581Y-110877908D01*
X67267581Y-110877908D02*
X67153295Y-110916003D01*
X67153295Y-110916003D02*
X66962819Y-110916003D01*
X73655867Y-110916003D02*
X73389200Y-110535050D01*
X73198724Y-110916003D02*
X73198724Y-110116003D01*
X73198724Y-110116003D02*
X73503486Y-110116003D01*
X73503486Y-110116003D02*
X73579676Y-110154098D01*
X73579676Y-110154098D02*
X73617771Y-110192193D01*
X73617771Y-110192193D02*
X73655867Y-110268384D01*
X73655867Y-110268384D02*
X73655867Y-110382669D01*
X73655867Y-110382669D02*
X73617771Y-110458860D01*
X73617771Y-110458860D02*
X73579676Y-110496955D01*
X73579676Y-110496955D02*
X73503486Y-110535050D01*
X73503486Y-110535050D02*
X73198724Y-110535050D01*
X73960628Y-110877908D02*
X74074914Y-110916003D01*
X74074914Y-110916003D02*
X74265390Y-110916003D01*
X74265390Y-110916003D02*
X74341581Y-110877908D01*
X74341581Y-110877908D02*
X74379676Y-110839812D01*
X74379676Y-110839812D02*
X74417771Y-110763622D01*
X74417771Y-110763622D02*
X74417771Y-110687431D01*
X74417771Y-110687431D02*
X74379676Y-110611241D01*
X74379676Y-110611241D02*
X74341581Y-110573146D01*
X74341581Y-110573146D02*
X74265390Y-110535050D01*
X74265390Y-110535050D02*
X74113009Y-110496955D01*
X74113009Y-110496955D02*
X74036819Y-110458860D01*
X74036819Y-110458860D02*
X73998724Y-110420765D01*
X73998724Y-110420765D02*
X73960628Y-110344574D01*
X73960628Y-110344574D02*
X73960628Y-110268384D01*
X73960628Y-110268384D02*
X73998724Y-110192193D01*
X73998724Y-110192193D02*
X74036819Y-110154098D01*
X74036819Y-110154098D02*
X74113009Y-110116003D01*
X74113009Y-110116003D02*
X74303486Y-110116003D01*
X74303486Y-110116003D02*
X74417771Y-110154098D01*
X74646343Y-110116003D02*
X75103486Y-110116003D01*
X74874914Y-110916003D02*
X74874914Y-110116003D01*
X70620628Y-110877908D02*
X70734914Y-110916003D01*
X70734914Y-110916003D02*
X70925390Y-110916003D01*
X70925390Y-110916003D02*
X71001581Y-110877908D01*
X71001581Y-110877908D02*
X71039676Y-110839812D01*
X71039676Y-110839812D02*
X71077771Y-110763622D01*
X71077771Y-110763622D02*
X71077771Y-110687431D01*
X71077771Y-110687431D02*
X71039676Y-110611241D01*
X71039676Y-110611241D02*
X71001581Y-110573146D01*
X71001581Y-110573146D02*
X70925390Y-110535050D01*
X70925390Y-110535050D02*
X70773009Y-110496955D01*
X70773009Y-110496955D02*
X70696819Y-110458860D01*
X70696819Y-110458860D02*
X70658724Y-110420765D01*
X70658724Y-110420765D02*
X70620628Y-110344574D01*
X70620628Y-110344574D02*
X70620628Y-110268384D01*
X70620628Y-110268384D02*
X70658724Y-110192193D01*
X70658724Y-110192193D02*
X70696819Y-110154098D01*
X70696819Y-110154098D02*
X70773009Y-110116003D01*
X70773009Y-110116003D02*
X70963486Y-110116003D01*
X70963486Y-110116003D02*
X71077771Y-110154098D01*
X71877772Y-110839812D02*
X71839676Y-110877908D01*
X71839676Y-110877908D02*
X71725391Y-110916003D01*
X71725391Y-110916003D02*
X71649200Y-110916003D01*
X71649200Y-110916003D02*
X71534914Y-110877908D01*
X71534914Y-110877908D02*
X71458724Y-110801717D01*
X71458724Y-110801717D02*
X71420629Y-110725527D01*
X71420629Y-110725527D02*
X71382533Y-110573146D01*
X71382533Y-110573146D02*
X71382533Y-110458860D01*
X71382533Y-110458860D02*
X71420629Y-110306479D01*
X71420629Y-110306479D02*
X71458724Y-110230288D01*
X71458724Y-110230288D02*
X71534914Y-110154098D01*
X71534914Y-110154098D02*
X71649200Y-110116003D01*
X71649200Y-110116003D02*
X71725391Y-110116003D01*
X71725391Y-110116003D02*
X71839676Y-110154098D01*
X71839676Y-110154098D02*
X71877772Y-110192193D01*
X72601581Y-110916003D02*
X72220629Y-110916003D01*
X72220629Y-110916003D02*
X72220629Y-110116003D01*
D10*
X125879388Y-102574677D02*
X125546055Y-102098486D01*
X125307960Y-102574677D02*
X125307960Y-101574677D01*
X125307960Y-101574677D02*
X125688912Y-101574677D01*
X125688912Y-101574677D02*
X125784150Y-101622296D01*
X125784150Y-101622296D02*
X125831769Y-101669915D01*
X125831769Y-101669915D02*
X125879388Y-101765153D01*
X125879388Y-101765153D02*
X125879388Y-101908010D01*
X125879388Y-101908010D02*
X125831769Y-102003248D01*
X125831769Y-102003248D02*
X125784150Y-102050867D01*
X125784150Y-102050867D02*
X125688912Y-102098486D01*
X125688912Y-102098486D02*
X125307960Y-102098486D01*
X126212722Y-101574677D02*
X126879388Y-101574677D01*
X126879388Y-101574677D02*
X126450817Y-102574677D01*
X114166939Y-109861073D02*
X114166939Y-109289645D01*
X114166939Y-109575359D02*
X115166939Y-109575359D01*
X115166939Y-109575359D02*
X115024082Y-109480121D01*
X115024082Y-109480121D02*
X114928844Y-109384883D01*
X114928844Y-109384883D02*
X114881225Y-109289645D01*
X114166939Y-110813454D02*
X114166939Y-110242026D01*
X114166939Y-110527740D02*
X115166939Y-110527740D01*
X115166939Y-110527740D02*
X115024082Y-110432502D01*
X115024082Y-110432502D02*
X114928844Y-110337264D01*
X114928844Y-110337264D02*
X114881225Y-110242026D01*
X99853939Y-110763454D02*
X99853939Y-110287264D01*
X99853939Y-110287264D02*
X99377749Y-110239645D01*
X99377749Y-110239645D02*
X99425368Y-110287264D01*
X99425368Y-110287264D02*
X99472987Y-110382502D01*
X99472987Y-110382502D02*
X99472987Y-110620597D01*
X99472987Y-110620597D02*
X99425368Y-110715835D01*
X99425368Y-110715835D02*
X99377749Y-110763454D01*
X99377749Y-110763454D02*
X99282511Y-110811073D01*
X99282511Y-110811073D02*
X99044416Y-110811073D01*
X99044416Y-110811073D02*
X98949178Y-110763454D01*
X98949178Y-110763454D02*
X98901559Y-110715835D01*
X98901559Y-110715835D02*
X98853939Y-110620597D01*
X98853939Y-110620597D02*
X98853939Y-110382502D01*
X98853939Y-110382502D02*
X98901559Y-110287264D01*
X98901559Y-110287264D02*
X98949178Y-110239645D01*
X94773939Y-110192026D02*
X94773939Y-110811073D01*
X94773939Y-110811073D02*
X94392987Y-110477740D01*
X94392987Y-110477740D02*
X94392987Y-110620597D01*
X94392987Y-110620597D02*
X94345368Y-110715835D01*
X94345368Y-110715835D02*
X94297749Y-110763454D01*
X94297749Y-110763454D02*
X94202511Y-110811073D01*
X94202511Y-110811073D02*
X93964416Y-110811073D01*
X93964416Y-110811073D02*
X93869178Y-110763454D01*
X93869178Y-110763454D02*
X93821559Y-110715835D01*
X93821559Y-110715835D02*
X93773939Y-110620597D01*
X93773939Y-110620597D02*
X93773939Y-110334883D01*
X93773939Y-110334883D02*
X93821559Y-110239645D01*
X93821559Y-110239645D02*
X93869178Y-110192026D01*
X94826320Y-96611073D02*
X94873939Y-96515835D01*
X94873939Y-96515835D02*
X94873939Y-96372978D01*
X94873939Y-96372978D02*
X94826320Y-96230121D01*
X94826320Y-96230121D02*
X94731082Y-96134883D01*
X94731082Y-96134883D02*
X94635844Y-96087264D01*
X94635844Y-96087264D02*
X94445368Y-96039645D01*
X94445368Y-96039645D02*
X94302511Y-96039645D01*
X94302511Y-96039645D02*
X94112035Y-96087264D01*
X94112035Y-96087264D02*
X94016797Y-96134883D01*
X94016797Y-96134883D02*
X93921559Y-96230121D01*
X93921559Y-96230121D02*
X93873939Y-96372978D01*
X93873939Y-96372978D02*
X93873939Y-96468216D01*
X93873939Y-96468216D02*
X93921559Y-96611073D01*
X93921559Y-96611073D02*
X93969178Y-96658692D01*
X93969178Y-96658692D02*
X94302511Y-96658692D01*
X94302511Y-96658692D02*
X94302511Y-96468216D01*
X93873939Y-97087264D02*
X94873939Y-97087264D01*
X94873939Y-97087264D02*
X93873939Y-97658692D01*
X93873939Y-97658692D02*
X94873939Y-97658692D01*
X93873939Y-98134883D02*
X94873939Y-98134883D01*
X94873939Y-98134883D02*
X94873939Y-98372978D01*
X94873939Y-98372978D02*
X94826320Y-98515835D01*
X94826320Y-98515835D02*
X94731082Y-98611073D01*
X94731082Y-98611073D02*
X94635844Y-98658692D01*
X94635844Y-98658692D02*
X94445368Y-98706311D01*
X94445368Y-98706311D02*
X94302511Y-98706311D01*
X94302511Y-98706311D02*
X94112035Y-98658692D01*
X94112035Y-98658692D02*
X94016797Y-98611073D01*
X94016797Y-98611073D02*
X93921559Y-98515835D01*
X93921559Y-98515835D02*
X93873939Y-98372978D01*
X93873939Y-98372978D02*
X93873939Y-98134883D01*
X101621559Y-95933645D02*
X101573939Y-96076502D01*
X101573939Y-96076502D02*
X101573939Y-96314597D01*
X101573939Y-96314597D02*
X101621559Y-96409835D01*
X101621559Y-96409835D02*
X101669178Y-96457454D01*
X101669178Y-96457454D02*
X101764416Y-96505073D01*
X101764416Y-96505073D02*
X101859654Y-96505073D01*
X101859654Y-96505073D02*
X101954892Y-96457454D01*
X101954892Y-96457454D02*
X102002511Y-96409835D01*
X102002511Y-96409835D02*
X102050130Y-96314597D01*
X102050130Y-96314597D02*
X102097749Y-96124121D01*
X102097749Y-96124121D02*
X102145368Y-96028883D01*
X102145368Y-96028883D02*
X102192987Y-95981264D01*
X102192987Y-95981264D02*
X102288225Y-95933645D01*
X102288225Y-95933645D02*
X102383463Y-95933645D01*
X102383463Y-95933645D02*
X102478701Y-95981264D01*
X102478701Y-95981264D02*
X102526320Y-96028883D01*
X102526320Y-96028883D02*
X102573939Y-96124121D01*
X102573939Y-96124121D02*
X102573939Y-96362216D01*
X102573939Y-96362216D02*
X102526320Y-96505073D01*
X101669178Y-97505073D02*
X101621559Y-97457454D01*
X101621559Y-97457454D02*
X101573939Y-97314597D01*
X101573939Y-97314597D02*
X101573939Y-97219359D01*
X101573939Y-97219359D02*
X101621559Y-97076502D01*
X101621559Y-97076502D02*
X101716797Y-96981264D01*
X101716797Y-96981264D02*
X101812035Y-96933645D01*
X101812035Y-96933645D02*
X102002511Y-96886026D01*
X102002511Y-96886026D02*
X102145368Y-96886026D01*
X102145368Y-96886026D02*
X102335844Y-96933645D01*
X102335844Y-96933645D02*
X102431082Y-96981264D01*
X102431082Y-96981264D02*
X102526320Y-97076502D01*
X102526320Y-97076502D02*
X102573939Y-97219359D01*
X102573939Y-97219359D02*
X102573939Y-97314597D01*
X102573939Y-97314597D02*
X102526320Y-97457454D01*
X102526320Y-97457454D02*
X102478701Y-97505073D01*
X101573939Y-98409835D02*
X101573939Y-97933645D01*
X101573939Y-97933645D02*
X102573939Y-97933645D01*
X88693939Y-110811073D02*
X88693939Y-110239645D01*
X88693939Y-110525359D02*
X89693939Y-110525359D01*
X89693939Y-110525359D02*
X89551082Y-110430121D01*
X89551082Y-110430121D02*
X89455844Y-110334883D01*
X89455844Y-110334883D02*
X89408225Y-110239645D01*
X107573939Y-95992026D02*
X107573939Y-96611073D01*
X107573939Y-96611073D02*
X107192987Y-96277740D01*
X107192987Y-96277740D02*
X107192987Y-96420597D01*
X107192987Y-96420597D02*
X107145368Y-96515835D01*
X107145368Y-96515835D02*
X107097749Y-96563454D01*
X107097749Y-96563454D02*
X107002511Y-96611073D01*
X107002511Y-96611073D02*
X106764416Y-96611073D01*
X106764416Y-96611073D02*
X106669178Y-96563454D01*
X106669178Y-96563454D02*
X106621559Y-96515835D01*
X106621559Y-96515835D02*
X106573939Y-96420597D01*
X106573939Y-96420597D02*
X106573939Y-96134883D01*
X106573939Y-96134883D02*
X106621559Y-96039645D01*
X106621559Y-96039645D02*
X106669178Y-95992026D01*
X106669178Y-97039645D02*
X106621559Y-97087264D01*
X106621559Y-97087264D02*
X106573939Y-97039645D01*
X106573939Y-97039645D02*
X106621559Y-96992026D01*
X106621559Y-96992026D02*
X106669178Y-97039645D01*
X106669178Y-97039645D02*
X106573939Y-97039645D01*
X107573939Y-97420597D02*
X107573939Y-98039644D01*
X107573939Y-98039644D02*
X107192987Y-97706311D01*
X107192987Y-97706311D02*
X107192987Y-97849168D01*
X107192987Y-97849168D02*
X107145368Y-97944406D01*
X107145368Y-97944406D02*
X107097749Y-97992025D01*
X107097749Y-97992025D02*
X107002511Y-98039644D01*
X107002511Y-98039644D02*
X106764416Y-98039644D01*
X106764416Y-98039644D02*
X106669178Y-97992025D01*
X106669178Y-97992025D02*
X106621559Y-97944406D01*
X106621559Y-97944406D02*
X106573939Y-97849168D01*
X106573939Y-97849168D02*
X106573939Y-97563454D01*
X106573939Y-97563454D02*
X106621559Y-97468216D01*
X106621559Y-97468216D02*
X106669178Y-97420597D01*
X107573939Y-98325359D02*
X106573939Y-98658692D01*
X106573939Y-98658692D02*
X107573939Y-98992025D01*
X103973939Y-96087264D02*
X104973939Y-96087264D01*
X103973939Y-97134882D02*
X104450130Y-96801549D01*
X103973939Y-96563454D02*
X104973939Y-96563454D01*
X104973939Y-96563454D02*
X104973939Y-96944406D01*
X104973939Y-96944406D02*
X104926320Y-97039644D01*
X104926320Y-97039644D02*
X104878701Y-97087263D01*
X104878701Y-97087263D02*
X104783463Y-97134882D01*
X104783463Y-97134882D02*
X104640606Y-97134882D01*
X104640606Y-97134882D02*
X104545368Y-97087263D01*
X104545368Y-97087263D02*
X104497749Y-97039644D01*
X104497749Y-97039644D02*
X104450130Y-96944406D01*
X104450130Y-96944406D02*
X104450130Y-96563454D01*
X103878701Y-98230120D02*
X103926320Y-98134882D01*
X103926320Y-98134882D02*
X104021559Y-98039644D01*
X104021559Y-98039644D02*
X104164416Y-97896787D01*
X104164416Y-97896787D02*
X104212035Y-97801549D01*
X104212035Y-97801549D02*
X104212035Y-97706311D01*
X103973939Y-97753930D02*
X104021559Y-97658692D01*
X104021559Y-97658692D02*
X104116797Y-97563454D01*
X104116797Y-97563454D02*
X104307273Y-97515835D01*
X104307273Y-97515835D02*
X104640606Y-97515835D01*
X104640606Y-97515835D02*
X104831082Y-97563454D01*
X104831082Y-97563454D02*
X104926320Y-97658692D01*
X104926320Y-97658692D02*
X104973939Y-97753930D01*
X104973939Y-97753930D02*
X104973939Y-97944406D01*
X104973939Y-97944406D02*
X104926320Y-98039644D01*
X104926320Y-98039644D02*
X104831082Y-98134882D01*
X104831082Y-98134882D02*
X104640606Y-98182501D01*
X104640606Y-98182501D02*
X104307273Y-98182501D01*
X104307273Y-98182501D02*
X104116797Y-98134882D01*
X104116797Y-98134882D02*
X104021559Y-98039644D01*
X104021559Y-98039644D02*
X103973939Y-97944406D01*
X103973939Y-97944406D02*
X103973939Y-97753930D01*
X102393939Y-110715835D02*
X102393939Y-110525359D01*
X102393939Y-110525359D02*
X102346320Y-110430121D01*
X102346320Y-110430121D02*
X102298701Y-110382502D01*
X102298701Y-110382502D02*
X102155844Y-110287264D01*
X102155844Y-110287264D02*
X101965368Y-110239645D01*
X101965368Y-110239645D02*
X101584416Y-110239645D01*
X101584416Y-110239645D02*
X101489178Y-110287264D01*
X101489178Y-110287264D02*
X101441559Y-110334883D01*
X101441559Y-110334883D02*
X101393939Y-110430121D01*
X101393939Y-110430121D02*
X101393939Y-110620597D01*
X101393939Y-110620597D02*
X101441559Y-110715835D01*
X101441559Y-110715835D02*
X101489178Y-110763454D01*
X101489178Y-110763454D02*
X101584416Y-110811073D01*
X101584416Y-110811073D02*
X101822511Y-110811073D01*
X101822511Y-110811073D02*
X101917749Y-110763454D01*
X101917749Y-110763454D02*
X101965368Y-110715835D01*
X101965368Y-110715835D02*
X102012987Y-110620597D01*
X102012987Y-110620597D02*
X102012987Y-110430121D01*
X102012987Y-110430121D02*
X101965368Y-110334883D01*
X101965368Y-110334883D02*
X101917749Y-110287264D01*
X101917749Y-110287264D02*
X101822511Y-110239645D01*
X104933939Y-110192026D02*
X104933939Y-110858692D01*
X104933939Y-110858692D02*
X103933939Y-110430121D01*
X87205939Y-110477740D02*
X87205939Y-110572978D01*
X87205939Y-110572978D02*
X87158320Y-110668216D01*
X87158320Y-110668216D02*
X87110701Y-110715835D01*
X87110701Y-110715835D02*
X87015463Y-110763454D01*
X87015463Y-110763454D02*
X86824987Y-110811073D01*
X86824987Y-110811073D02*
X86586892Y-110811073D01*
X86586892Y-110811073D02*
X86396416Y-110763454D01*
X86396416Y-110763454D02*
X86301178Y-110715835D01*
X86301178Y-110715835D02*
X86253559Y-110668216D01*
X86253559Y-110668216D02*
X86205939Y-110572978D01*
X86205939Y-110572978D02*
X86205939Y-110477740D01*
X86205939Y-110477740D02*
X86253559Y-110382502D01*
X86253559Y-110382502D02*
X86301178Y-110334883D01*
X86301178Y-110334883D02*
X86396416Y-110287264D01*
X86396416Y-110287264D02*
X86586892Y-110239645D01*
X86586892Y-110239645D02*
X86824987Y-110239645D01*
X86824987Y-110239645D02*
X87015463Y-110287264D01*
X87015463Y-110287264D02*
X87110701Y-110334883D01*
X87110701Y-110334883D02*
X87158320Y-110382502D01*
X87158320Y-110382502D02*
X87205939Y-110477740D01*
X99121559Y-95939645D02*
X99073939Y-96082502D01*
X99073939Y-96082502D02*
X99073939Y-96320597D01*
X99073939Y-96320597D02*
X99121559Y-96415835D01*
X99121559Y-96415835D02*
X99169178Y-96463454D01*
X99169178Y-96463454D02*
X99264416Y-96511073D01*
X99264416Y-96511073D02*
X99359654Y-96511073D01*
X99359654Y-96511073D02*
X99454892Y-96463454D01*
X99454892Y-96463454D02*
X99502511Y-96415835D01*
X99502511Y-96415835D02*
X99550130Y-96320597D01*
X99550130Y-96320597D02*
X99597749Y-96130121D01*
X99597749Y-96130121D02*
X99645368Y-96034883D01*
X99645368Y-96034883D02*
X99692987Y-95987264D01*
X99692987Y-95987264D02*
X99788225Y-95939645D01*
X99788225Y-95939645D02*
X99883463Y-95939645D01*
X99883463Y-95939645D02*
X99978701Y-95987264D01*
X99978701Y-95987264D02*
X100026320Y-96034883D01*
X100026320Y-96034883D02*
X100073939Y-96130121D01*
X100073939Y-96130121D02*
X100073939Y-96368216D01*
X100073939Y-96368216D02*
X100026320Y-96511073D01*
X99073939Y-96939645D02*
X100073939Y-96939645D01*
X100073939Y-96939645D02*
X100073939Y-97177740D01*
X100073939Y-97177740D02*
X100026320Y-97320597D01*
X100026320Y-97320597D02*
X99931082Y-97415835D01*
X99931082Y-97415835D02*
X99835844Y-97463454D01*
X99835844Y-97463454D02*
X99645368Y-97511073D01*
X99645368Y-97511073D02*
X99502511Y-97511073D01*
X99502511Y-97511073D02*
X99312035Y-97463454D01*
X99312035Y-97463454D02*
X99216797Y-97415835D01*
X99216797Y-97415835D02*
X99121559Y-97320597D01*
X99121559Y-97320597D02*
X99073939Y-97177740D01*
X99073939Y-97177740D02*
X99073939Y-96939645D01*
X99359654Y-97892026D02*
X99359654Y-98368216D01*
X99073939Y-97796788D02*
X100073939Y-98130121D01*
X100073939Y-98130121D02*
X99073939Y-98463454D01*
X109013939Y-110334883D02*
X109013939Y-110525359D01*
X109013939Y-110525359D02*
X109061559Y-110620597D01*
X109061559Y-110620597D02*
X109109178Y-110668216D01*
X109109178Y-110668216D02*
X109252035Y-110763454D01*
X109252035Y-110763454D02*
X109442511Y-110811073D01*
X109442511Y-110811073D02*
X109823463Y-110811073D01*
X109823463Y-110811073D02*
X109918701Y-110763454D01*
X109918701Y-110763454D02*
X109966320Y-110715835D01*
X109966320Y-110715835D02*
X110013939Y-110620597D01*
X110013939Y-110620597D02*
X110013939Y-110430121D01*
X110013939Y-110430121D02*
X109966320Y-110334883D01*
X109966320Y-110334883D02*
X109918701Y-110287264D01*
X109918701Y-110287264D02*
X109823463Y-110239645D01*
X109823463Y-110239645D02*
X109585368Y-110239645D01*
X109585368Y-110239645D02*
X109490130Y-110287264D01*
X109490130Y-110287264D02*
X109442511Y-110334883D01*
X109442511Y-110334883D02*
X109394892Y-110430121D01*
X109394892Y-110430121D02*
X109394892Y-110620597D01*
X109394892Y-110620597D02*
X109442511Y-110715835D01*
X109442511Y-110715835D02*
X109490130Y-110763454D01*
X109490130Y-110763454D02*
X109585368Y-110811073D01*
X96980606Y-110715835D02*
X96313939Y-110715835D01*
X97361559Y-110477740D02*
X96647273Y-110239645D01*
X96647273Y-110239645D02*
X96647273Y-110858692D01*
X96759654Y-96039645D02*
X96759654Y-96515835D01*
X96473939Y-95944407D02*
X97473939Y-96277740D01*
X97473939Y-96277740D02*
X96473939Y-96611073D01*
X96473939Y-96944407D02*
X97473939Y-96944407D01*
X97473939Y-96944407D02*
X97473939Y-97182502D01*
X97473939Y-97182502D02*
X97426320Y-97325359D01*
X97426320Y-97325359D02*
X97331082Y-97420597D01*
X97331082Y-97420597D02*
X97235844Y-97468216D01*
X97235844Y-97468216D02*
X97045368Y-97515835D01*
X97045368Y-97515835D02*
X96902511Y-97515835D01*
X96902511Y-97515835D02*
X96712035Y-97468216D01*
X96712035Y-97468216D02*
X96616797Y-97420597D01*
X96616797Y-97420597D02*
X96521559Y-97325359D01*
X96521559Y-97325359D02*
X96473939Y-97182502D01*
X96473939Y-97182502D02*
X96473939Y-96944407D01*
X96473939Y-97944407D02*
X97473939Y-97944407D01*
X97473939Y-97944407D02*
X97473939Y-98182502D01*
X97473939Y-98182502D02*
X97426320Y-98325359D01*
X97426320Y-98325359D02*
X97331082Y-98420597D01*
X97331082Y-98420597D02*
X97235844Y-98468216D01*
X97235844Y-98468216D02*
X97045368Y-98515835D01*
X97045368Y-98515835D02*
X96902511Y-98515835D01*
X96902511Y-98515835D02*
X96712035Y-98468216D01*
X96712035Y-98468216D02*
X96616797Y-98420597D01*
X96616797Y-98420597D02*
X96521559Y-98325359D01*
X96521559Y-98325359D02*
X96473939Y-98182502D01*
X96473939Y-98182502D02*
X96473939Y-97944407D01*
X111553939Y-109861073D02*
X111553939Y-109289645D01*
X111553939Y-109575359D02*
X112553939Y-109575359D01*
X112553939Y-109575359D02*
X112411082Y-109480121D01*
X112411082Y-109480121D02*
X112315844Y-109384883D01*
X112315844Y-109384883D02*
X112268225Y-109289645D01*
X112553939Y-110480121D02*
X112553939Y-110575359D01*
X112553939Y-110575359D02*
X112506320Y-110670597D01*
X112506320Y-110670597D02*
X112458701Y-110718216D01*
X112458701Y-110718216D02*
X112363463Y-110765835D01*
X112363463Y-110765835D02*
X112172987Y-110813454D01*
X112172987Y-110813454D02*
X111934892Y-110813454D01*
X111934892Y-110813454D02*
X111744416Y-110765835D01*
X111744416Y-110765835D02*
X111649178Y-110718216D01*
X111649178Y-110718216D02*
X111601559Y-110670597D01*
X111601559Y-110670597D02*
X111553939Y-110575359D01*
X111553939Y-110575359D02*
X111553939Y-110480121D01*
X111553939Y-110480121D02*
X111601559Y-110384883D01*
X111601559Y-110384883D02*
X111649178Y-110337264D01*
X111649178Y-110337264D02*
X111744416Y-110289645D01*
X111744416Y-110289645D02*
X111934892Y-110242026D01*
X111934892Y-110242026D02*
X112172987Y-110242026D01*
X112172987Y-110242026D02*
X112363463Y-110289645D01*
X112363463Y-110289645D02*
X112458701Y-110337264D01*
X112458701Y-110337264D02*
X112506320Y-110384883D01*
X112506320Y-110384883D02*
X112553939Y-110480121D01*
X92138701Y-110239645D02*
X92186320Y-110287264D01*
X92186320Y-110287264D02*
X92233939Y-110382502D01*
X92233939Y-110382502D02*
X92233939Y-110620597D01*
X92233939Y-110620597D02*
X92186320Y-110715835D01*
X92186320Y-110715835D02*
X92138701Y-110763454D01*
X92138701Y-110763454D02*
X92043463Y-110811073D01*
X92043463Y-110811073D02*
X91948225Y-110811073D01*
X91948225Y-110811073D02*
X91805368Y-110763454D01*
X91805368Y-110763454D02*
X91233939Y-110192026D01*
X91233939Y-110192026D02*
X91233939Y-110811073D01*
X107045368Y-110430121D02*
X107092987Y-110334883D01*
X107092987Y-110334883D02*
X107140606Y-110287264D01*
X107140606Y-110287264D02*
X107235844Y-110239645D01*
X107235844Y-110239645D02*
X107283463Y-110239645D01*
X107283463Y-110239645D02*
X107378701Y-110287264D01*
X107378701Y-110287264D02*
X107426320Y-110334883D01*
X107426320Y-110334883D02*
X107473939Y-110430121D01*
X107473939Y-110430121D02*
X107473939Y-110620597D01*
X107473939Y-110620597D02*
X107426320Y-110715835D01*
X107426320Y-110715835D02*
X107378701Y-110763454D01*
X107378701Y-110763454D02*
X107283463Y-110811073D01*
X107283463Y-110811073D02*
X107235844Y-110811073D01*
X107235844Y-110811073D02*
X107140606Y-110763454D01*
X107140606Y-110763454D02*
X107092987Y-110715835D01*
X107092987Y-110715835D02*
X107045368Y-110620597D01*
X107045368Y-110620597D02*
X107045368Y-110430121D01*
X107045368Y-110430121D02*
X106997749Y-110334883D01*
X106997749Y-110334883D02*
X106950130Y-110287264D01*
X106950130Y-110287264D02*
X106854892Y-110239645D01*
X106854892Y-110239645D02*
X106664416Y-110239645D01*
X106664416Y-110239645D02*
X106569178Y-110287264D01*
X106569178Y-110287264D02*
X106521559Y-110334883D01*
X106521559Y-110334883D02*
X106473939Y-110430121D01*
X106473939Y-110430121D02*
X106473939Y-110620597D01*
X106473939Y-110620597D02*
X106521559Y-110715835D01*
X106521559Y-110715835D02*
X106569178Y-110763454D01*
X106569178Y-110763454D02*
X106664416Y-110811073D01*
X106664416Y-110811073D02*
X106854892Y-110811073D01*
X106854892Y-110811073D02*
X106950130Y-110763454D01*
X106950130Y-110763454D02*
X106997749Y-110715835D01*
X106997749Y-110715835D02*
X107045368Y-110620597D01*
X138985300Y-109310304D02*
X139651966Y-110310304D01*
X139651966Y-109310304D02*
X138985300Y-110310304D01*
X139985300Y-110262685D02*
X140128157Y-110310304D01*
X140128157Y-110310304D02*
X140366252Y-110310304D01*
X140366252Y-110310304D02*
X140461490Y-110262685D01*
X140461490Y-110262685D02*
X140509109Y-110215065D01*
X140509109Y-110215065D02*
X140556728Y-110119827D01*
X140556728Y-110119827D02*
X140556728Y-110024589D01*
X140556728Y-110024589D02*
X140509109Y-109929351D01*
X140509109Y-109929351D02*
X140461490Y-109881732D01*
X140461490Y-109881732D02*
X140366252Y-109834113D01*
X140366252Y-109834113D02*
X140175776Y-109786494D01*
X140175776Y-109786494D02*
X140080538Y-109738875D01*
X140080538Y-109738875D02*
X140032919Y-109691256D01*
X140032919Y-109691256D02*
X139985300Y-109596018D01*
X139985300Y-109596018D02*
X139985300Y-109500780D01*
X139985300Y-109500780D02*
X140032919Y-109405542D01*
X140032919Y-109405542D02*
X140080538Y-109357923D01*
X140080538Y-109357923D02*
X140175776Y-109310304D01*
X140175776Y-109310304D02*
X140413871Y-109310304D01*
X140413871Y-109310304D02*
X140556728Y-109357923D01*
X140985300Y-110310304D02*
X140985300Y-109310304D01*
X140985300Y-109786494D02*
X141556728Y-109786494D01*
X141556728Y-110310304D02*
X141556728Y-109310304D01*
X142032919Y-109310304D02*
X142032919Y-110119827D01*
X142032919Y-110119827D02*
X142080538Y-110215065D01*
X142080538Y-110215065D02*
X142128157Y-110262685D01*
X142128157Y-110262685D02*
X142223395Y-110310304D01*
X142223395Y-110310304D02*
X142413871Y-110310304D01*
X142413871Y-110310304D02*
X142509109Y-110262685D01*
X142509109Y-110262685D02*
X142556728Y-110215065D01*
X142556728Y-110215065D02*
X142604347Y-110119827D01*
X142604347Y-110119827D02*
X142604347Y-109310304D01*
X142937681Y-109310304D02*
X143509109Y-109310304D01*
X143223395Y-110310304D02*
X143223395Y-109310304D01*
X139032919Y-105202685D02*
X139175776Y-105250304D01*
X139175776Y-105250304D02*
X139413871Y-105250304D01*
X139413871Y-105250304D02*
X139509109Y-105202685D01*
X139509109Y-105202685D02*
X139556728Y-105155065D01*
X139556728Y-105155065D02*
X139604347Y-105059827D01*
X139604347Y-105059827D02*
X139604347Y-104964589D01*
X139604347Y-104964589D02*
X139556728Y-104869351D01*
X139556728Y-104869351D02*
X139509109Y-104821732D01*
X139509109Y-104821732D02*
X139413871Y-104774113D01*
X139413871Y-104774113D02*
X139223395Y-104726494D01*
X139223395Y-104726494D02*
X139128157Y-104678875D01*
X139128157Y-104678875D02*
X139080538Y-104631256D01*
X139080538Y-104631256D02*
X139032919Y-104536018D01*
X139032919Y-104536018D02*
X139032919Y-104440780D01*
X139032919Y-104440780D02*
X139080538Y-104345542D01*
X139080538Y-104345542D02*
X139128157Y-104297923D01*
X139128157Y-104297923D02*
X139223395Y-104250304D01*
X139223395Y-104250304D02*
X139461490Y-104250304D01*
X139461490Y-104250304D02*
X139604347Y-104297923D01*
X140032919Y-105250304D02*
X140032919Y-104250304D01*
X140032919Y-104250304D02*
X140271014Y-104250304D01*
X140271014Y-104250304D02*
X140413871Y-104297923D01*
X140413871Y-104297923D02*
X140509109Y-104393161D01*
X140509109Y-104393161D02*
X140556728Y-104488399D01*
X140556728Y-104488399D02*
X140604347Y-104678875D01*
X140604347Y-104678875D02*
X140604347Y-104821732D01*
X140604347Y-104821732D02*
X140556728Y-105012208D01*
X140556728Y-105012208D02*
X140509109Y-105107446D01*
X140509109Y-105107446D02*
X140413871Y-105202685D01*
X140413871Y-105202685D02*
X140271014Y-105250304D01*
X140271014Y-105250304D02*
X140032919Y-105250304D01*
X140985300Y-104964589D02*
X141461490Y-104964589D01*
X140890062Y-105250304D02*
X141223395Y-104250304D01*
X141223395Y-104250304D02*
X141556728Y-105250304D01*
X138907681Y-96660304D02*
X139241014Y-97660304D01*
X139241014Y-97660304D02*
X139574347Y-96660304D01*
X139907681Y-97660304D02*
X139907681Y-96660304D01*
X140383871Y-97660304D02*
X140383871Y-96660304D01*
X140383871Y-96660304D02*
X140955299Y-97660304D01*
X140955299Y-97660304D02*
X140955299Y-96660304D01*
X139604347Y-99237923D02*
X139509109Y-99190304D01*
X139509109Y-99190304D02*
X139366252Y-99190304D01*
X139366252Y-99190304D02*
X139223395Y-99237923D01*
X139223395Y-99237923D02*
X139128157Y-99333161D01*
X139128157Y-99333161D02*
X139080538Y-99428399D01*
X139080538Y-99428399D02*
X139032919Y-99618875D01*
X139032919Y-99618875D02*
X139032919Y-99761732D01*
X139032919Y-99761732D02*
X139080538Y-99952208D01*
X139080538Y-99952208D02*
X139128157Y-100047446D01*
X139128157Y-100047446D02*
X139223395Y-100142685D01*
X139223395Y-100142685D02*
X139366252Y-100190304D01*
X139366252Y-100190304D02*
X139461490Y-100190304D01*
X139461490Y-100190304D02*
X139604347Y-100142685D01*
X139604347Y-100142685D02*
X139651966Y-100095065D01*
X139651966Y-100095065D02*
X139651966Y-99761732D01*
X139651966Y-99761732D02*
X139461490Y-99761732D01*
X140080538Y-100190304D02*
X140080538Y-99190304D01*
X140080538Y-99190304D02*
X140651966Y-100190304D01*
X140651966Y-100190304D02*
X140651966Y-99190304D01*
X141128157Y-100190304D02*
X141128157Y-99190304D01*
X141128157Y-99190304D02*
X141366252Y-99190304D01*
X141366252Y-99190304D02*
X141509109Y-99237923D01*
X141509109Y-99237923D02*
X141604347Y-99333161D01*
X141604347Y-99333161D02*
X141651966Y-99428399D01*
X141651966Y-99428399D02*
X141699585Y-99618875D01*
X141699585Y-99618875D02*
X141699585Y-99761732D01*
X141699585Y-99761732D02*
X141651966Y-99952208D01*
X141651966Y-99952208D02*
X141604347Y-100047446D01*
X141604347Y-100047446D02*
X141509109Y-100142685D01*
X141509109Y-100142685D02*
X141366252Y-100190304D01*
X141366252Y-100190304D02*
X141128157Y-100190304D01*
X139002919Y-102672685D02*
X139145776Y-102720304D01*
X139145776Y-102720304D02*
X139383871Y-102720304D01*
X139383871Y-102720304D02*
X139479109Y-102672685D01*
X139479109Y-102672685D02*
X139526728Y-102625065D01*
X139526728Y-102625065D02*
X139574347Y-102529827D01*
X139574347Y-102529827D02*
X139574347Y-102434589D01*
X139574347Y-102434589D02*
X139526728Y-102339351D01*
X139526728Y-102339351D02*
X139479109Y-102291732D01*
X139479109Y-102291732D02*
X139383871Y-102244113D01*
X139383871Y-102244113D02*
X139193395Y-102196494D01*
X139193395Y-102196494D02*
X139098157Y-102148875D01*
X139098157Y-102148875D02*
X139050538Y-102101256D01*
X139050538Y-102101256D02*
X139002919Y-102006018D01*
X139002919Y-102006018D02*
X139002919Y-101910780D01*
X139002919Y-101910780D02*
X139050538Y-101815542D01*
X139050538Y-101815542D02*
X139098157Y-101767923D01*
X139098157Y-101767923D02*
X139193395Y-101720304D01*
X139193395Y-101720304D02*
X139431490Y-101720304D01*
X139431490Y-101720304D02*
X139574347Y-101767923D01*
X140574347Y-102625065D02*
X140526728Y-102672685D01*
X140526728Y-102672685D02*
X140383871Y-102720304D01*
X140383871Y-102720304D02*
X140288633Y-102720304D01*
X140288633Y-102720304D02*
X140145776Y-102672685D01*
X140145776Y-102672685D02*
X140050538Y-102577446D01*
X140050538Y-102577446D02*
X140002919Y-102482208D01*
X140002919Y-102482208D02*
X139955300Y-102291732D01*
X139955300Y-102291732D02*
X139955300Y-102148875D01*
X139955300Y-102148875D02*
X140002919Y-101958399D01*
X140002919Y-101958399D02*
X140050538Y-101863161D01*
X140050538Y-101863161D02*
X140145776Y-101767923D01*
X140145776Y-101767923D02*
X140288633Y-101720304D01*
X140288633Y-101720304D02*
X140383871Y-101720304D01*
X140383871Y-101720304D02*
X140526728Y-101767923D01*
X140526728Y-101767923D02*
X140574347Y-101815542D01*
X141479109Y-102720304D02*
X141002919Y-102720304D01*
X141002919Y-102720304D02*
X141002919Y-101720304D01*
X139574347Y-106827923D02*
X139479109Y-106780304D01*
X139479109Y-106780304D02*
X139336252Y-106780304D01*
X139336252Y-106780304D02*
X139193395Y-106827923D01*
X139193395Y-106827923D02*
X139098157Y-106923161D01*
X139098157Y-106923161D02*
X139050538Y-107018399D01*
X139050538Y-107018399D02*
X139002919Y-107208875D01*
X139002919Y-107208875D02*
X139002919Y-107351732D01*
X139002919Y-107351732D02*
X139050538Y-107542208D01*
X139050538Y-107542208D02*
X139098157Y-107637446D01*
X139098157Y-107637446D02*
X139193395Y-107732685D01*
X139193395Y-107732685D02*
X139336252Y-107780304D01*
X139336252Y-107780304D02*
X139431490Y-107780304D01*
X139431490Y-107780304D02*
X139574347Y-107732685D01*
X139574347Y-107732685D02*
X139621966Y-107685065D01*
X139621966Y-107685065D02*
X139621966Y-107351732D01*
X139621966Y-107351732D02*
X139431490Y-107351732D01*
X140050538Y-107780304D02*
X140050538Y-106780304D01*
X140050538Y-106780304D02*
X140431490Y-106780304D01*
X140431490Y-106780304D02*
X140526728Y-106827923D01*
X140526728Y-106827923D02*
X140574347Y-106875542D01*
X140574347Y-106875542D02*
X140621966Y-106970780D01*
X140621966Y-106970780D02*
X140621966Y-107113637D01*
X140621966Y-107113637D02*
X140574347Y-107208875D01*
X140574347Y-107208875D02*
X140526728Y-107256494D01*
X140526728Y-107256494D02*
X140431490Y-107304113D01*
X140431490Y-107304113D02*
X140050538Y-107304113D01*
X141050538Y-107780304D02*
X141050538Y-106780304D01*
X141717204Y-106780304D02*
X141907680Y-106780304D01*
X141907680Y-106780304D02*
X142002918Y-106827923D01*
X142002918Y-106827923D02*
X142098156Y-106923161D01*
X142098156Y-106923161D02*
X142145775Y-107113637D01*
X142145775Y-107113637D02*
X142145775Y-107446970D01*
X142145775Y-107446970D02*
X142098156Y-107637446D01*
X142098156Y-107637446D02*
X142002918Y-107732685D01*
X142002918Y-107732685D02*
X141907680Y-107780304D01*
X141907680Y-107780304D02*
X141717204Y-107780304D01*
X141717204Y-107780304D02*
X141621966Y-107732685D01*
X141621966Y-107732685D02*
X141526728Y-107637446D01*
X141526728Y-107637446D02*
X141479109Y-107446970D01*
X141479109Y-107446970D02*
X141479109Y-107113637D01*
X141479109Y-107113637D02*
X141526728Y-106923161D01*
X141526728Y-106923161D02*
X141621966Y-106827923D01*
X141621966Y-106827923D02*
X141717204Y-106780304D01*
X143098156Y-107780304D02*
X142526728Y-107780304D01*
X142812442Y-107780304D02*
X142812442Y-106780304D01*
X142812442Y-106780304D02*
X142717204Y-106923161D01*
X142717204Y-106923161D02*
X142621966Y-107018399D01*
X142621966Y-107018399D02*
X142526728Y-107066018D01*
X125889388Y-97474677D02*
X125556055Y-96998486D01*
X125317960Y-97474677D02*
X125317960Y-96474677D01*
X125317960Y-96474677D02*
X125698912Y-96474677D01*
X125698912Y-96474677D02*
X125794150Y-96522296D01*
X125794150Y-96522296D02*
X125841769Y-96569915D01*
X125841769Y-96569915D02*
X125889388Y-96665153D01*
X125889388Y-96665153D02*
X125889388Y-96808010D01*
X125889388Y-96808010D02*
X125841769Y-96903248D01*
X125841769Y-96903248D02*
X125794150Y-96950867D01*
X125794150Y-96950867D02*
X125698912Y-96998486D01*
X125698912Y-96998486D02*
X125317960Y-96998486D01*
X126746531Y-96474677D02*
X126556055Y-96474677D01*
X126556055Y-96474677D02*
X126460817Y-96522296D01*
X126460817Y-96522296D02*
X126413198Y-96569915D01*
X126413198Y-96569915D02*
X126317960Y-96712772D01*
X126317960Y-96712772D02*
X126270341Y-96903248D01*
X126270341Y-96903248D02*
X126270341Y-97284200D01*
X126270341Y-97284200D02*
X126317960Y-97379438D01*
X126317960Y-97379438D02*
X126365579Y-97427058D01*
X126365579Y-97427058D02*
X126460817Y-97474677D01*
X126460817Y-97474677D02*
X126651293Y-97474677D01*
X126651293Y-97474677D02*
X126746531Y-97427058D01*
X126746531Y-97427058D02*
X126794150Y-97379438D01*
X126794150Y-97379438D02*
X126841769Y-97284200D01*
X126841769Y-97284200D02*
X126841769Y-97046105D01*
X126841769Y-97046105D02*
X126794150Y-96950867D01*
X126794150Y-96950867D02*
X126746531Y-96903248D01*
X126746531Y-96903248D02*
X126651293Y-96855629D01*
X126651293Y-96855629D02*
X126460817Y-96855629D01*
X126460817Y-96855629D02*
X126365579Y-96903248D01*
X126365579Y-96903248D02*
X126317960Y-96950867D01*
X126317960Y-96950867D02*
X126270341Y-97046105D01*
X118307092Y-36445304D02*
X117973759Y-35969113D01*
X117735664Y-36445304D02*
X117735664Y-35445304D01*
X117735664Y-35445304D02*
X118116616Y-35445304D01*
X118116616Y-35445304D02*
X118211854Y-35492923D01*
X118211854Y-35492923D02*
X118259473Y-35540542D01*
X118259473Y-35540542D02*
X118307092Y-35635780D01*
X118307092Y-35635780D02*
X118307092Y-35778637D01*
X118307092Y-35778637D02*
X118259473Y-35873875D01*
X118259473Y-35873875D02*
X118211854Y-35921494D01*
X118211854Y-35921494D02*
X118116616Y-35969113D01*
X118116616Y-35969113D02*
X117735664Y-35969113D01*
X119211854Y-35445304D02*
X118735664Y-35445304D01*
X118735664Y-35445304D02*
X118688045Y-35921494D01*
X118688045Y-35921494D02*
X118735664Y-35873875D01*
X118735664Y-35873875D02*
X118830902Y-35826256D01*
X118830902Y-35826256D02*
X119068997Y-35826256D01*
X119068997Y-35826256D02*
X119164235Y-35873875D01*
X119164235Y-35873875D02*
X119211854Y-35921494D01*
X119211854Y-35921494D02*
X119259473Y-36016732D01*
X119259473Y-36016732D02*
X119259473Y-36254827D01*
X119259473Y-36254827D02*
X119211854Y-36350065D01*
X119211854Y-36350065D02*
X119164235Y-36397685D01*
X119164235Y-36397685D02*
X119068997Y-36445304D01*
X119068997Y-36445304D02*
X118830902Y-36445304D01*
X118830902Y-36445304D02*
X118735664Y-36397685D01*
X118735664Y-36397685D02*
X118688045Y-36350065D01*
D12*
X63437738Y-82521380D02*
X63704405Y-83321380D01*
X63704405Y-83321380D02*
X63971071Y-82521380D01*
X64694881Y-83245189D02*
X64656785Y-83283285D01*
X64656785Y-83283285D02*
X64542500Y-83321380D01*
X64542500Y-83321380D02*
X64466309Y-83321380D01*
X64466309Y-83321380D02*
X64352023Y-83283285D01*
X64352023Y-83283285D02*
X64275833Y-83207094D01*
X64275833Y-83207094D02*
X64237738Y-83130904D01*
X64237738Y-83130904D02*
X64199642Y-82978523D01*
X64199642Y-82978523D02*
X64199642Y-82864237D01*
X64199642Y-82864237D02*
X64237738Y-82711856D01*
X64237738Y-82711856D02*
X64275833Y-82635665D01*
X64275833Y-82635665D02*
X64352023Y-82559475D01*
X64352023Y-82559475D02*
X64466309Y-82521380D01*
X64466309Y-82521380D02*
X64542500Y-82521380D01*
X64542500Y-82521380D02*
X64656785Y-82559475D01*
X64656785Y-82559475D02*
X64694881Y-82597570D01*
X65494881Y-83245189D02*
X65456785Y-83283285D01*
X65456785Y-83283285D02*
X65342500Y-83321380D01*
X65342500Y-83321380D02*
X65266309Y-83321380D01*
X65266309Y-83321380D02*
X65152023Y-83283285D01*
X65152023Y-83283285D02*
X65075833Y-83207094D01*
X65075833Y-83207094D02*
X65037738Y-83130904D01*
X65037738Y-83130904D02*
X64999642Y-82978523D01*
X64999642Y-82978523D02*
X64999642Y-82864237D01*
X64999642Y-82864237D02*
X65037738Y-82711856D01*
X65037738Y-82711856D02*
X65075833Y-82635665D01*
X65075833Y-82635665D02*
X65152023Y-82559475D01*
X65152023Y-82559475D02*
X65266309Y-82521380D01*
X65266309Y-82521380D02*
X65342500Y-82521380D01*
X65342500Y-82521380D02*
X65456785Y-82559475D01*
X65456785Y-82559475D02*
X65494881Y-82597570D01*
X57354405Y-82521380D02*
X57506786Y-82521380D01*
X57506786Y-82521380D02*
X57582976Y-82559475D01*
X57582976Y-82559475D02*
X57659167Y-82635665D01*
X57659167Y-82635665D02*
X57697262Y-82788046D01*
X57697262Y-82788046D02*
X57697262Y-83054713D01*
X57697262Y-83054713D02*
X57659167Y-83207094D01*
X57659167Y-83207094D02*
X57582976Y-83283285D01*
X57582976Y-83283285D02*
X57506786Y-83321380D01*
X57506786Y-83321380D02*
X57354405Y-83321380D01*
X57354405Y-83321380D02*
X57278214Y-83283285D01*
X57278214Y-83283285D02*
X57202024Y-83207094D01*
X57202024Y-83207094D02*
X57163928Y-83054713D01*
X57163928Y-83054713D02*
X57163928Y-82788046D01*
X57163928Y-82788046D02*
X57202024Y-82635665D01*
X57202024Y-82635665D02*
X57278214Y-82559475D01*
X57278214Y-82559475D02*
X57354405Y-82521380D01*
X58040119Y-82521380D02*
X58040119Y-83168999D01*
X58040119Y-83168999D02*
X58078214Y-83245189D01*
X58078214Y-83245189D02*
X58116309Y-83283285D01*
X58116309Y-83283285D02*
X58192500Y-83321380D01*
X58192500Y-83321380D02*
X58344881Y-83321380D01*
X58344881Y-83321380D02*
X58421071Y-83283285D01*
X58421071Y-83283285D02*
X58459166Y-83245189D01*
X58459166Y-83245189D02*
X58497262Y-83168999D01*
X58497262Y-83168999D02*
X58497262Y-82521380D01*
X58763928Y-82521380D02*
X59221071Y-82521380D01*
X58992499Y-83321380D02*
X58992499Y-82521380D01*
X60669071Y-82559475D02*
X60592881Y-82521380D01*
X60592881Y-82521380D02*
X60478595Y-82521380D01*
X60478595Y-82521380D02*
X60364309Y-82559475D01*
X60364309Y-82559475D02*
X60288119Y-82635665D01*
X60288119Y-82635665D02*
X60250024Y-82711856D01*
X60250024Y-82711856D02*
X60211928Y-82864237D01*
X60211928Y-82864237D02*
X60211928Y-82978523D01*
X60211928Y-82978523D02*
X60250024Y-83130904D01*
X60250024Y-83130904D02*
X60288119Y-83207094D01*
X60288119Y-83207094D02*
X60364309Y-83283285D01*
X60364309Y-83283285D02*
X60478595Y-83321380D01*
X60478595Y-83321380D02*
X60554786Y-83321380D01*
X60554786Y-83321380D02*
X60669071Y-83283285D01*
X60669071Y-83283285D02*
X60707167Y-83245189D01*
X60707167Y-83245189D02*
X60707167Y-82978523D01*
X60707167Y-82978523D02*
X60554786Y-82978523D01*
X61050024Y-83321380D02*
X61050024Y-82521380D01*
X61050024Y-82521380D02*
X61507167Y-83321380D01*
X61507167Y-83321380D02*
X61507167Y-82521380D01*
X61888119Y-83321380D02*
X61888119Y-82521380D01*
X61888119Y-82521380D02*
X62078595Y-82521380D01*
X62078595Y-82521380D02*
X62192881Y-82559475D01*
X62192881Y-82559475D02*
X62269071Y-82635665D01*
X62269071Y-82635665D02*
X62307166Y-82711856D01*
X62307166Y-82711856D02*
X62345262Y-82864237D01*
X62345262Y-82864237D02*
X62345262Y-82978523D01*
X62345262Y-82978523D02*
X62307166Y-83130904D01*
X62307166Y-83130904D02*
X62269071Y-83207094D01*
X62269071Y-83207094D02*
X62192881Y-83283285D01*
X62192881Y-83283285D02*
X62078595Y-83321380D01*
X62078595Y-83321380D02*
X61888119Y-83321380D01*
D10*
X77468997Y-48751494D02*
X77611854Y-48799113D01*
X77611854Y-48799113D02*
X77659473Y-48846732D01*
X77659473Y-48846732D02*
X77707092Y-48941970D01*
X77707092Y-48941970D02*
X77707092Y-49084827D01*
X77707092Y-49084827D02*
X77659473Y-49180065D01*
X77659473Y-49180065D02*
X77611854Y-49227685D01*
X77611854Y-49227685D02*
X77516616Y-49275304D01*
X77516616Y-49275304D02*
X77135664Y-49275304D01*
X77135664Y-49275304D02*
X77135664Y-48275304D01*
X77135664Y-48275304D02*
X77468997Y-48275304D01*
X77468997Y-48275304D02*
X77564235Y-48322923D01*
X77564235Y-48322923D02*
X77611854Y-48370542D01*
X77611854Y-48370542D02*
X77659473Y-48465780D01*
X77659473Y-48465780D02*
X77659473Y-48561018D01*
X77659473Y-48561018D02*
X77611854Y-48656256D01*
X77611854Y-48656256D02*
X77564235Y-48703875D01*
X77564235Y-48703875D02*
X77468997Y-48751494D01*
X77468997Y-48751494D02*
X77135664Y-48751494D01*
X78659473Y-49275304D02*
X78088045Y-49275304D01*
X78373759Y-49275304D02*
X78373759Y-48275304D01*
X78373759Y-48275304D02*
X78278521Y-48418161D01*
X78278521Y-48418161D02*
X78183283Y-48513399D01*
X78183283Y-48513399D02*
X78088045Y-48561018D01*
X77611429Y-67145304D02*
X77278096Y-66669113D01*
X77040001Y-67145304D02*
X77040001Y-66145304D01*
X77040001Y-66145304D02*
X77420953Y-66145304D01*
X77420953Y-66145304D02*
X77516191Y-66192923D01*
X77516191Y-66192923D02*
X77563810Y-66240542D01*
X77563810Y-66240542D02*
X77611429Y-66335780D01*
X77611429Y-66335780D02*
X77611429Y-66478637D01*
X77611429Y-66478637D02*
X77563810Y-66573875D01*
X77563810Y-66573875D02*
X77516191Y-66621494D01*
X77516191Y-66621494D02*
X77420953Y-66669113D01*
X77420953Y-66669113D02*
X77040001Y-66669113D01*
X77992382Y-66240542D02*
X78040001Y-66192923D01*
X78040001Y-66192923D02*
X78135239Y-66145304D01*
X78135239Y-66145304D02*
X78373334Y-66145304D01*
X78373334Y-66145304D02*
X78468572Y-66192923D01*
X78468572Y-66192923D02*
X78516191Y-66240542D01*
X78516191Y-66240542D02*
X78563810Y-66335780D01*
X78563810Y-66335780D02*
X78563810Y-66431018D01*
X78563810Y-66431018D02*
X78516191Y-66573875D01*
X78516191Y-66573875D02*
X77944763Y-67145304D01*
X77944763Y-67145304D02*
X78563810Y-67145304D01*
X118307092Y-46745304D02*
X117973759Y-46269113D01*
X117735664Y-46745304D02*
X117735664Y-45745304D01*
X117735664Y-45745304D02*
X118116616Y-45745304D01*
X118116616Y-45745304D02*
X118211854Y-45792923D01*
X118211854Y-45792923D02*
X118259473Y-45840542D01*
X118259473Y-45840542D02*
X118307092Y-45935780D01*
X118307092Y-45935780D02*
X118307092Y-46078637D01*
X118307092Y-46078637D02*
X118259473Y-46173875D01*
X118259473Y-46173875D02*
X118211854Y-46221494D01*
X118211854Y-46221494D02*
X118116616Y-46269113D01*
X118116616Y-46269113D02*
X117735664Y-46269113D01*
X118640426Y-45745304D02*
X119259473Y-45745304D01*
X119259473Y-45745304D02*
X118926140Y-46126256D01*
X118926140Y-46126256D02*
X119068997Y-46126256D01*
X119068997Y-46126256D02*
X119164235Y-46173875D01*
X119164235Y-46173875D02*
X119211854Y-46221494D01*
X119211854Y-46221494D02*
X119259473Y-46316732D01*
X119259473Y-46316732D02*
X119259473Y-46554827D01*
X119259473Y-46554827D02*
X119211854Y-46650065D01*
X119211854Y-46650065D02*
X119164235Y-46697685D01*
X119164235Y-46697685D02*
X119068997Y-46745304D01*
X119068997Y-46745304D02*
X118783283Y-46745304D01*
X118783283Y-46745304D02*
X118688045Y-46697685D01*
X118688045Y-46697685D02*
X118640426Y-46650065D01*
X60658520Y-49950304D02*
X60325187Y-49474113D01*
X60087092Y-49950304D02*
X60087092Y-48950304D01*
X60087092Y-48950304D02*
X60468044Y-48950304D01*
X60468044Y-48950304D02*
X60563282Y-48997923D01*
X60563282Y-48997923D02*
X60610901Y-49045542D01*
X60610901Y-49045542D02*
X60658520Y-49140780D01*
X60658520Y-49140780D02*
X60658520Y-49283637D01*
X60658520Y-49283637D02*
X60610901Y-49378875D01*
X60610901Y-49378875D02*
X60563282Y-49426494D01*
X60563282Y-49426494D02*
X60468044Y-49474113D01*
X60468044Y-49474113D02*
X60087092Y-49474113D01*
X60944235Y-48950304D02*
X61277568Y-49950304D01*
X61277568Y-49950304D02*
X61610901Y-48950304D01*
X62468044Y-49950304D02*
X61896616Y-49950304D01*
X62182330Y-49950304D02*
X62182330Y-48950304D01*
X62182330Y-48950304D02*
X62087092Y-49093161D01*
X62087092Y-49093161D02*
X61991854Y-49188399D01*
X61991854Y-49188399D02*
X61896616Y-49236018D01*
D14*
X115203759Y-39770485D02*
X115203759Y-40100485D01*
X115203759Y-42510485D02*
X115203759Y-42180485D01*
X121743759Y-39770485D02*
X115203759Y-39770485D01*
X121743759Y-40100485D02*
X121743759Y-39770485D01*
X121743759Y-42180485D02*
X121743759Y-42510485D01*
X121743759Y-42510485D02*
X115203759Y-42510485D01*
X87503759Y-42240485D02*
X87503759Y-40240485D01*
X87823759Y-37430485D02*
X87823759Y-83150485D01*
D12*
X95203759Y-34740485D02*
X95203759Y-38990485D01*
X95203759Y-38990485D02*
X103703759Y-38990485D01*
X103703759Y-38990485D02*
X103703759Y-34740485D01*
D14*
X108253759Y-34780485D02*
X90473759Y-34780485D01*
X108253759Y-85800485D02*
X90473759Y-85800485D01*
X110903759Y-37430485D02*
X110903759Y-83150485D01*
X87823759Y-37430485D02*
G75*
G02*
X90473759Y-34780485I2650000J0D01*
G01*
X90473759Y-85800485D02*
G75*
G02*
X87823759Y-83150485I0J2650000D01*
G01*
X108253759Y-34780485D02*
G75*
G02*
X110903759Y-37430485I0J-2650000D01*
G01*
X110903759Y-83150485D02*
G75*
G02*
X108253759Y-85800485I-2650000J0D01*
G01*
X54173459Y-93109108D02*
X54173459Y-111149108D01*
X54173459Y-108479108D02*
X54173459Y-113686108D01*
X54173459Y-113686108D02*
X81097459Y-113660708D01*
X81097459Y-93112108D02*
X54173459Y-93109108D01*
X81097459Y-113660708D02*
X81097459Y-93112108D01*
X122776055Y-100749858D02*
X122776055Y-101079858D01*
X122776055Y-103489858D02*
X122776055Y-103159858D01*
X129316055Y-100749858D02*
X122776055Y-100749858D01*
X129316055Y-101079858D02*
X129316055Y-100749858D01*
X129316055Y-103159858D02*
X129316055Y-103489858D01*
X129316055Y-103489858D02*
X122776055Y-103489858D01*
D12*
X85663759Y-93350485D02*
X115663759Y-93350485D01*
X115663759Y-113350485D01*
X85663759Y-113350485D01*
X85663759Y-93350485D01*
D14*
X79148096Y-59480485D02*
X76498096Y-59480485D01*
X79148096Y-63780485D02*
X76498096Y-63780485D01*
X76498096Y-63780485D02*
G75*
G02*
X76470069Y-59498340I1350000J2150000D01*
G01*
X79148096Y-59480485D02*
G75*
G02*
X79173572Y-63764873I-1300000J-2150000D01*
G01*
D12*
X136221455Y-93790485D02*
X136221455Y-112790485D01*
X139671455Y-93790485D02*
X136221455Y-93790485D01*
X139770761Y-112790485D02*
X136221455Y-112790485D01*
X143372149Y-112790485D02*
X146921455Y-112790485D01*
X143471455Y-93790485D02*
X146921455Y-93790485D01*
X146921455Y-93790485D02*
X146921455Y-112790485D01*
X139671455Y-93790485D02*
G75*
G02*
X143471455Y-93790485I1900000J0D01*
G01*
X143372149Y-112790485D02*
G75*
G02*
X139770761Y-112790485I-1800694J0D01*
G01*
D14*
X122786055Y-95649858D02*
X122786055Y-95979858D01*
X122786055Y-98389858D02*
X122786055Y-98059858D01*
X129326055Y-95649858D02*
X122786055Y-95649858D01*
X129326055Y-95979858D02*
X129326055Y-95649858D01*
X129326055Y-98059858D02*
X129326055Y-98389858D01*
X129326055Y-98389858D02*
X122786055Y-98389858D01*
X115203759Y-34620485D02*
X115203759Y-34950485D01*
X115203759Y-37360485D02*
X115203759Y-37030485D01*
X121743759Y-34620485D02*
X115203759Y-34620485D01*
X121743759Y-34950485D02*
X121743759Y-34620485D01*
X121743759Y-37030485D02*
X121743759Y-37360485D01*
X121743759Y-37360485D02*
X115203759Y-37360485D01*
X135643759Y-36760485D02*
X135953759Y-36760485D01*
X135643759Y-45580485D02*
X135643759Y-36760485D01*
X135643759Y-45580485D02*
X135953759Y-45580485D01*
X139853759Y-36760485D02*
X140163759Y-36760485D01*
X140163759Y-36760485D02*
X140163759Y-45580485D01*
X140163759Y-45580485D02*
X139853759Y-45580485D01*
X140363759Y-39170485D02*
X140863759Y-39670485D01*
X140863759Y-38670485D02*
X140363759Y-39170485D01*
X140863759Y-39670485D02*
X140863759Y-38670485D01*
X73923096Y-72869063D02*
X75253096Y-72869063D01*
X73923096Y-74199063D02*
X73923096Y-72869063D01*
X76523096Y-72869063D02*
X81663096Y-72869063D01*
X76523096Y-75529063D02*
X76523096Y-72869063D01*
X76523096Y-75529063D02*
X81663096Y-75529063D01*
X81663096Y-75529063D02*
X81663096Y-72869063D01*
X54253359Y-64222085D02*
X68528159Y-64222085D01*
X54253359Y-86116885D02*
X54253359Y-64222085D01*
X68528159Y-64222085D02*
X68528159Y-86116885D01*
X68528159Y-86116885D02*
X54253359Y-86116885D01*
X73923096Y-83019063D02*
X75253096Y-83019063D01*
X73923096Y-84349063D02*
X73923096Y-83019063D01*
X76523096Y-83019063D02*
X84203096Y-83019063D01*
X76523096Y-85679063D02*
X76523096Y-83019063D01*
X76523096Y-85679063D02*
X84203096Y-85679063D01*
X84203096Y-85679063D02*
X84203096Y-83019063D01*
X73923096Y-77944063D02*
X75253096Y-77944063D01*
X73923096Y-79274063D02*
X73923096Y-77944063D01*
X76523096Y-77944063D02*
X81663096Y-77944063D01*
X76523096Y-80604063D02*
X76523096Y-77944063D01*
X76523096Y-80604063D02*
X81663096Y-80604063D01*
X81663096Y-80604063D02*
X81663096Y-77944063D01*
X126323759Y-38683985D02*
X125858759Y-38683985D01*
X128948759Y-38683985D02*
X128483759Y-38683985D01*
X126322932Y-44031800D02*
G75*
G02*
X125858929Y-38683985I1080827J2787815D01*
G01*
X126323330Y-43498464D02*
G75*
G02*
X126323759Y-38989301I1080429J2254479D01*
G01*
X128483759Y-38989301D02*
G75*
G02*
X128484188Y-43498464I-1080000J-2254684D01*
G01*
X128948589Y-38683985D02*
G75*
G02*
X128484586Y-44031800I-1544830J-2560000D01*
G01*
X74373759Y-48070485D02*
X74373759Y-49570485D01*
X75623759Y-52070485D02*
X80123759Y-52070485D01*
X80123759Y-45570485D02*
X75623759Y-45570485D01*
X81373759Y-49570485D02*
X81373759Y-48070485D01*
X120908321Y-105884523D02*
X122238321Y-105884523D01*
X120908321Y-107214523D02*
X120908321Y-105884523D01*
X123508321Y-105884523D02*
X131188321Y-105884523D01*
X123508321Y-108544523D02*
X123508321Y-105884523D01*
X123508321Y-108544523D02*
X131188321Y-108544523D01*
X131188321Y-108544523D02*
X131188321Y-105884523D01*
X74508096Y-65320485D02*
X81048096Y-65320485D01*
X74508096Y-65650485D02*
X74508096Y-65320485D01*
X74508096Y-67730485D02*
X74508096Y-68060485D01*
X74508096Y-68060485D02*
X81048096Y-68060485D01*
X81048096Y-65320485D02*
X81048096Y-65650485D01*
X81048096Y-68060485D02*
X81048096Y-67730485D01*
X115203759Y-44920485D02*
X115203759Y-45250485D01*
X115203759Y-47660485D02*
X115203759Y-47330485D01*
X121743759Y-44920485D02*
X115203759Y-44920485D01*
X121743759Y-45250485D02*
X121743759Y-44920485D01*
X121743759Y-47330485D02*
X121743759Y-47660485D01*
X121743759Y-47660485D02*
X115203759Y-47660485D01*
X55803759Y-44020485D02*
X55803759Y-46740485D01*
X55803759Y-51240485D02*
X55803759Y-55610485D01*
X57623759Y-55610485D02*
X55803759Y-55610485D01*
X66743759Y-44020485D02*
X55803759Y-44020485D01*
X66743759Y-44020485D02*
X66743759Y-46740485D01*
X66743759Y-51240485D02*
X66743759Y-55610485D01*
X66743759Y-55610485D02*
X64923759Y-55610485D01*
%LPC*%
D15*
X122283759Y-41140485D03*
D16*
X114663759Y-41140485D03*
D17*
X89503759Y-41240485D03*
D18*
X89503759Y-43780485D03*
X89503759Y-46320485D03*
X89503759Y-48860485D03*
X89503759Y-51400485D03*
X89503759Y-53940485D03*
X89503759Y-56480485D03*
X89503759Y-59020485D03*
X89503759Y-61560485D03*
X89503759Y-64100485D03*
X89503759Y-66640485D03*
X89503759Y-69180485D03*
X89503759Y-71720485D03*
X89503759Y-74260485D03*
X89503759Y-76800485D03*
X89503759Y-79340485D03*
X109223759Y-79340485D03*
X109223759Y-76800485D03*
X109223759Y-74260485D03*
X109223759Y-71720485D03*
X109223759Y-69180485D03*
X109223759Y-66640485D03*
X109223759Y-64100485D03*
X109223759Y-61560485D03*
X109223759Y-59020485D03*
X109223759Y-56480485D03*
X109223759Y-53940485D03*
X109223759Y-51400485D03*
D19*
X61461335Y-122498532D03*
D16*
X66365459Y-112289108D03*
X61285459Y-112289108D03*
X63825459Y-112289108D03*
X66365459Y-94509108D03*
X63825459Y-94509108D03*
X73985459Y-112289108D03*
X68905459Y-94509108D03*
X71445459Y-94509108D03*
X71445459Y-112289108D03*
X68905459Y-112289108D03*
D15*
X129856055Y-102119858D03*
D16*
X122236055Y-102119858D03*
X94363759Y-94550485D03*
X96903759Y-94550485D03*
X99443759Y-94550485D03*
X101983759Y-94550485D03*
X104523759Y-94550485D03*
X107063759Y-94550485D03*
X86723759Y-112300485D03*
X89263759Y-112300485D03*
X91803759Y-112300485D03*
X94343759Y-112300485D03*
X96883759Y-112300485D03*
X99423759Y-112300485D03*
X101963759Y-112300485D03*
X104503759Y-112300485D03*
X107043759Y-112300485D03*
X109583759Y-112300485D03*
X112123759Y-112300485D03*
X114663759Y-112300485D03*
D15*
X79098096Y-61630485D03*
X76558096Y-61630485D03*
D19*
X106318435Y-122574832D03*
D16*
X137473759Y-97140485D03*
X137473759Y-99680485D03*
X137473759Y-102220485D03*
X137473759Y-104760485D03*
X137473759Y-107300485D03*
X137473759Y-109840485D03*
D15*
X129866055Y-97019858D03*
D16*
X122246055Y-97019858D03*
D20*
X116109802Y-69648097D03*
D19*
X128747035Y-122574832D03*
D15*
X122283759Y-35990485D03*
D16*
X114663759Y-35990485D03*
D19*
X72675635Y-122574832D03*
D21*
X137903759Y-37070485D03*
X137903759Y-45270485D03*
D22*
X137903759Y-39170485D03*
D23*
X137903759Y-41170485D03*
X137903759Y-43170485D03*
D19*
X117532735Y-122574832D03*
D24*
X75253096Y-74199063D03*
D25*
X77793096Y-74199063D03*
X80333096Y-74199063D03*
D26*
X63803759Y-84440485D03*
X61263759Y-84440485D03*
X58723759Y-84440485D03*
D24*
X75253096Y-84349063D03*
D25*
X77793096Y-84349063D03*
X80333096Y-84349063D03*
X82873096Y-84349063D03*
D24*
X75253096Y-79274063D03*
D25*
X77793096Y-79274063D03*
X80333096Y-79274063D03*
D27*
X127403759Y-38005485D03*
D28*
X127403759Y-40164485D03*
X127403759Y-42323485D03*
X127403759Y-44482485D03*
D29*
X74623759Y-46570485D03*
X81123759Y-46570485D03*
X74623759Y-51070485D03*
X81123759Y-51070485D03*
D20*
X146639735Y-37198932D03*
X54639735Y-37198932D03*
D24*
X122238321Y-107214523D03*
D25*
X124778321Y-107214523D03*
X127318321Y-107214523D03*
X129858321Y-107214523D03*
D20*
X146605778Y-69605710D03*
X146639735Y-129198932D03*
X54639735Y-129198932D03*
D15*
X73968096Y-66690485D03*
D16*
X81588096Y-66690485D03*
D19*
X83889935Y-122574832D03*
D15*
X122283759Y-46290485D03*
D16*
X114663759Y-46290485D03*
D19*
X95104235Y-122574832D03*
D30*
X56523759Y-48990485D03*
X66023759Y-48990485D03*
D27*
X58773759Y-56490485D03*
D28*
X61273759Y-56490485D03*
X63773759Y-56490485D03*
D19*
X139961335Y-122464432D03*
%LPD*%
M02*
