G04 #@! TF.GenerationSoftware,KiCad,Pcbnew,8.0.8*
G04 #@! TF.CreationDate,2025-02-15T15:01:55+01:00*
G04 #@! TF.ProjectId,tesi,74657369-2e6b-4696-9361-645f70636258,rev?*
G04 #@! TF.SameCoordinates,Original*
G04 #@! TF.FileFunction,Legend,Top*
G04 #@! TF.FilePolarity,Positive*
%FSLAX46Y46*%
G04 Gerber Fmt 4.6, Leading zero omitted, Abs format (unit mm)*
G04 Created by KiCad (PCBNEW 8.0.8) date 2025-02-15 15:01:55*
%MOMM*%
%LPD*%
G01*
G04 APERTURE LIST*
G04 Aperture macros list*
%AMRoundRect*
0 Rectangle with rounded corners*
0 $1 Rounding radius*
0 $2 $3 $4 $5 $6 $7 $8 $9 X,Y pos of 4 corners*
0 Add a 4 corners polygon primitive as box body*
4,1,4,$2,$3,$4,$5,$6,$7,$8,$9,$2,$3,0*
0 Add four circle primitives for the rounded corners*
1,1,$1+$1,$2,$3*
1,1,$1+$1,$4,$5*
1,1,$1+$1,$6,$7*
1,1,$1+$1,$8,$9*
0 Add four rect primitives between the rounded corners*
20,1,$1+$1,$2,$3,$4,$5,0*
20,1,$1+$1,$4,$5,$6,$7,0*
20,1,$1+$1,$6,$7,$8,$9,0*
20,1,$1+$1,$8,$9,$2,$3,0*%
G04 Aperture macros list end*
%ADD10C,0.152400*%
%ADD11C,0.100000*%
%ADD12C,0.150000*%
%ADD13C,0.300000*%
%ADD14C,0.120000*%
%ADD15C,1.600000*%
%ADD16O,1.600000X1.600000*%
%ADD17RoundRect,0.250000X-1.050000X-0.550000X1.050000X-0.550000X1.050000X0.550000X-1.050000X0.550000X0*%
%ADD18O,2.600000X1.600000*%
%ADD19C,8.000000*%
%ADD20C,3.200000*%
%ADD21R,1.700000X1.700000*%
%ADD22O,1.700000X1.700000*%
%ADD23R,1.200000X1.200000*%
%ADD24C,1.200000*%
%ADD25R,1.800000X1.800000*%
%ADD26C,1.800000*%
%ADD27C,2.000000*%
%ADD28O,3.500000X2.200000*%
%ADD29R,2.500000X1.500000*%
%ADD30O,2.500000X1.500000*%
%ADD31O,4.000000X4.000000*%
G04 APERTURE END LIST*
D10*
X69600000Y-40800000D02*
X69569520Y-40800000D01*
X68959920Y-40800000D02*
X68929440Y-40800000D01*
X68319840Y-40800000D02*
X68289360Y-40800000D01*
X67679760Y-40800000D02*
X67649280Y-40800000D01*
X67039680Y-40800000D02*
X67009200Y-40800000D01*
X66399600Y-40800000D02*
X66369120Y-40800000D01*
X65759520Y-40800000D02*
X65729040Y-40800000D01*
X65119440Y-40800000D02*
X65088960Y-40800000D01*
X64479360Y-40800000D02*
X64448880Y-40800000D01*
X63839280Y-40800000D02*
X63808800Y-40800000D01*
X63199200Y-40800000D02*
X63168720Y-40800000D01*
X62559120Y-40800000D02*
X62528640Y-40800000D01*
X61919040Y-40800000D02*
X61888560Y-40800000D01*
X61278960Y-40800000D02*
X61248480Y-40800000D01*
X60638880Y-40800000D02*
X60608400Y-40800000D01*
X59998800Y-40800000D02*
X59968320Y-40800000D01*
D11*
X146693759Y-87600000D02*
X146693759Y-71600000D01*
X146693759Y-49600000D02*
X146693759Y-65600000D01*
X115620000Y-87600000D02*
X146620000Y-87600000D01*
X115620000Y-49600000D02*
X146620000Y-49600000D01*
X115600000Y-49600000D02*
X115600000Y-65684787D01*
X115600000Y-87600000D02*
X115600000Y-71600000D01*
D12*
X77547348Y-67241541D02*
X77547348Y-67860588D01*
X77547348Y-67860588D02*
X77166396Y-67527255D01*
X77166396Y-67527255D02*
X77166396Y-67670112D01*
X77166396Y-67670112D02*
X77118777Y-67765350D01*
X77118777Y-67765350D02*
X77071158Y-67812969D01*
X77071158Y-67812969D02*
X76975920Y-67860588D01*
X76975920Y-67860588D02*
X76737825Y-67860588D01*
X76737825Y-67860588D02*
X76642587Y-67812969D01*
X76642587Y-67812969D02*
X76594968Y-67765350D01*
X76594968Y-67765350D02*
X76547348Y-67670112D01*
X76547348Y-67670112D02*
X76547348Y-67384398D01*
X76547348Y-67384398D02*
X76594968Y-67289160D01*
X76594968Y-67289160D02*
X76642587Y-67241541D01*
X77547348Y-68146303D02*
X76547348Y-68479636D01*
X76547348Y-68479636D02*
X77547348Y-68812969D01*
X125094747Y-80169819D02*
X125189985Y-80169819D01*
X125189985Y-80169819D02*
X125285223Y-80217438D01*
X125285223Y-80217438D02*
X125332842Y-80265057D01*
X125332842Y-80265057D02*
X125380461Y-80360295D01*
X125380461Y-80360295D02*
X125428080Y-80550771D01*
X125428080Y-80550771D02*
X125428080Y-80788866D01*
X125428080Y-80788866D02*
X125380461Y-80979342D01*
X125380461Y-80979342D02*
X125332842Y-81074580D01*
X125332842Y-81074580D02*
X125285223Y-81122200D01*
X125285223Y-81122200D02*
X125189985Y-81169819D01*
X125189985Y-81169819D02*
X125094747Y-81169819D01*
X125094747Y-81169819D02*
X124999509Y-81122200D01*
X124999509Y-81122200D02*
X124951890Y-81074580D01*
X124951890Y-81074580D02*
X124904271Y-80979342D01*
X124904271Y-80979342D02*
X124856652Y-80788866D01*
X124856652Y-80788866D02*
X124856652Y-80550771D01*
X124856652Y-80550771D02*
X124904271Y-80360295D01*
X124904271Y-80360295D02*
X124951890Y-80265057D01*
X124951890Y-80265057D02*
X124999509Y-80217438D01*
X124999509Y-80217438D02*
X125094747Y-80169819D01*
X125809033Y-80265057D02*
X125856652Y-80217438D01*
X125856652Y-80217438D02*
X125951890Y-80169819D01*
X125951890Y-80169819D02*
X126189985Y-80169819D01*
X126189985Y-80169819D02*
X126285223Y-80217438D01*
X126285223Y-80217438D02*
X126332842Y-80265057D01*
X126332842Y-80265057D02*
X126380461Y-80360295D01*
X126380461Y-80360295D02*
X126380461Y-80455533D01*
X126380461Y-80455533D02*
X126332842Y-80598390D01*
X126332842Y-80598390D02*
X125761414Y-81169819D01*
X125761414Y-81169819D02*
X126380461Y-81169819D01*
X127523318Y-80122200D02*
X126666176Y-81407914D01*
X127809033Y-80265057D02*
X127856652Y-80217438D01*
X127856652Y-80217438D02*
X127951890Y-80169819D01*
X127951890Y-80169819D02*
X128189985Y-80169819D01*
X128189985Y-80169819D02*
X128285223Y-80217438D01*
X128285223Y-80217438D02*
X128332842Y-80265057D01*
X128332842Y-80265057D02*
X128380461Y-80360295D01*
X128380461Y-80360295D02*
X128380461Y-80455533D01*
X128380461Y-80455533D02*
X128332842Y-80598390D01*
X128332842Y-80598390D02*
X127761414Y-81169819D01*
X127761414Y-81169819D02*
X128380461Y-81169819D01*
X128999509Y-80169819D02*
X129094747Y-80169819D01*
X129094747Y-80169819D02*
X129189985Y-80217438D01*
X129189985Y-80217438D02*
X129237604Y-80265057D01*
X129237604Y-80265057D02*
X129285223Y-80360295D01*
X129285223Y-80360295D02*
X129332842Y-80550771D01*
X129332842Y-80550771D02*
X129332842Y-80788866D01*
X129332842Y-80788866D02*
X129285223Y-80979342D01*
X129285223Y-80979342D02*
X129237604Y-81074580D01*
X129237604Y-81074580D02*
X129189985Y-81122200D01*
X129189985Y-81122200D02*
X129094747Y-81169819D01*
X129094747Y-81169819D02*
X128999509Y-81169819D01*
X128999509Y-81169819D02*
X128904271Y-81122200D01*
X128904271Y-81122200D02*
X128856652Y-81074580D01*
X128856652Y-81074580D02*
X128809033Y-80979342D01*
X128809033Y-80979342D02*
X128761414Y-80788866D01*
X128761414Y-80788866D02*
X128761414Y-80550771D01*
X128761414Y-80550771D02*
X128809033Y-80360295D01*
X128809033Y-80360295D02*
X128856652Y-80265057D01*
X128856652Y-80265057D02*
X128904271Y-80217438D01*
X128904271Y-80217438D02*
X128999509Y-80169819D01*
X129713795Y-80265057D02*
X129761414Y-80217438D01*
X129761414Y-80217438D02*
X129856652Y-80169819D01*
X129856652Y-80169819D02*
X130094747Y-80169819D01*
X130094747Y-80169819D02*
X130189985Y-80217438D01*
X130189985Y-80217438D02*
X130237604Y-80265057D01*
X130237604Y-80265057D02*
X130285223Y-80360295D01*
X130285223Y-80360295D02*
X130285223Y-80455533D01*
X130285223Y-80455533D02*
X130237604Y-80598390D01*
X130237604Y-80598390D02*
X129666176Y-81169819D01*
X129666176Y-81169819D02*
X130285223Y-81169819D01*
X131189985Y-80169819D02*
X130713795Y-80169819D01*
X130713795Y-80169819D02*
X130666176Y-80646009D01*
X130666176Y-80646009D02*
X130713795Y-80598390D01*
X130713795Y-80598390D02*
X130809033Y-80550771D01*
X130809033Y-80550771D02*
X131047128Y-80550771D01*
X131047128Y-80550771D02*
X131142366Y-80598390D01*
X131142366Y-80598390D02*
X131189985Y-80646009D01*
X131189985Y-80646009D02*
X131237604Y-80741247D01*
X131237604Y-80741247D02*
X131237604Y-80979342D01*
X131237604Y-80979342D02*
X131189985Y-81074580D01*
X131189985Y-81074580D02*
X131142366Y-81122200D01*
X131142366Y-81122200D02*
X131047128Y-81169819D01*
X131047128Y-81169819D02*
X130809033Y-81169819D01*
X130809033Y-81169819D02*
X130713795Y-81122200D01*
X130713795Y-81122200D02*
X130666176Y-81074580D01*
X132428081Y-80788866D02*
X133189986Y-80788866D01*
X134332843Y-80503152D02*
X134570938Y-81169819D01*
X134570938Y-81169819D02*
X134809033Y-80503152D01*
X135713795Y-81169819D02*
X135142367Y-81169819D01*
X135428081Y-81169819D02*
X135428081Y-80169819D01*
X135428081Y-80169819D02*
X135332843Y-80312676D01*
X135332843Y-80312676D02*
X135237605Y-80407914D01*
X135237605Y-80407914D02*
X135142367Y-80455533D01*
X136142367Y-81074580D02*
X136189986Y-81122200D01*
X136189986Y-81122200D02*
X136142367Y-81169819D01*
X136142367Y-81169819D02*
X136094748Y-81122200D01*
X136094748Y-81122200D02*
X136142367Y-81074580D01*
X136142367Y-81074580D02*
X136142367Y-81169819D01*
X136809033Y-80169819D02*
X136904271Y-80169819D01*
X136904271Y-80169819D02*
X136999509Y-80217438D01*
X136999509Y-80217438D02*
X137047128Y-80265057D01*
X137047128Y-80265057D02*
X137094747Y-80360295D01*
X137094747Y-80360295D02*
X137142366Y-80550771D01*
X137142366Y-80550771D02*
X137142366Y-80788866D01*
X137142366Y-80788866D02*
X137094747Y-80979342D01*
X137094747Y-80979342D02*
X137047128Y-81074580D01*
X137047128Y-81074580D02*
X136999509Y-81122200D01*
X136999509Y-81122200D02*
X136904271Y-81169819D01*
X136904271Y-81169819D02*
X136809033Y-81169819D01*
X136809033Y-81169819D02*
X136713795Y-81122200D01*
X136713795Y-81122200D02*
X136666176Y-81074580D01*
X136666176Y-81074580D02*
X136618557Y-80979342D01*
X136618557Y-80979342D02*
X136570938Y-80788866D01*
X136570938Y-80788866D02*
X136570938Y-80550771D01*
X136570938Y-80550771D02*
X136618557Y-80360295D01*
X136618557Y-80360295D02*
X136666176Y-80265057D01*
X136666176Y-80265057D02*
X136713795Y-80217438D01*
X136713795Y-80217438D02*
X136809033Y-80169819D01*
X74899729Y-67760588D02*
X74947348Y-67665350D01*
X74947348Y-67665350D02*
X74947348Y-67522493D01*
X74947348Y-67522493D02*
X74899729Y-67379636D01*
X74899729Y-67379636D02*
X74804491Y-67284398D01*
X74804491Y-67284398D02*
X74709253Y-67236779D01*
X74709253Y-67236779D02*
X74518777Y-67189160D01*
X74518777Y-67189160D02*
X74375920Y-67189160D01*
X74375920Y-67189160D02*
X74185444Y-67236779D01*
X74185444Y-67236779D02*
X74090206Y-67284398D01*
X74090206Y-67284398D02*
X73994968Y-67379636D01*
X73994968Y-67379636D02*
X73947348Y-67522493D01*
X73947348Y-67522493D02*
X73947348Y-67617731D01*
X73947348Y-67617731D02*
X73994968Y-67760588D01*
X73994968Y-67760588D02*
X74042587Y-67808207D01*
X74042587Y-67808207D02*
X74375920Y-67808207D01*
X74375920Y-67808207D02*
X74375920Y-67617731D01*
X73947348Y-68236779D02*
X74947348Y-68236779D01*
X74947348Y-68236779D02*
X73947348Y-68808207D01*
X73947348Y-68808207D02*
X74947348Y-68808207D01*
X73947348Y-69284398D02*
X74947348Y-69284398D01*
X74947348Y-69284398D02*
X74947348Y-69522493D01*
X74947348Y-69522493D02*
X74899729Y-69665350D01*
X74899729Y-69665350D02*
X74804491Y-69760588D01*
X74804491Y-69760588D02*
X74709253Y-69808207D01*
X74709253Y-69808207D02*
X74518777Y-69855826D01*
X74518777Y-69855826D02*
X74375920Y-69855826D01*
X74375920Y-69855826D02*
X74185444Y-69808207D01*
X74185444Y-69808207D02*
X74090206Y-69760588D01*
X74090206Y-69760588D02*
X73994968Y-69665350D01*
X73994968Y-69665350D02*
X73947348Y-69522493D01*
X73947348Y-69522493D02*
X73947348Y-69284398D01*
X138182561Y-94192309D02*
X138230180Y-94097071D01*
X138230180Y-94097071D02*
X138230180Y-93954214D01*
X138230180Y-93954214D02*
X138182561Y-93811357D01*
X138182561Y-93811357D02*
X138087323Y-93716119D01*
X138087323Y-93716119D02*
X137992085Y-93668500D01*
X137992085Y-93668500D02*
X137801609Y-93620881D01*
X137801609Y-93620881D02*
X137658752Y-93620881D01*
X137658752Y-93620881D02*
X137468276Y-93668500D01*
X137468276Y-93668500D02*
X137373038Y-93716119D01*
X137373038Y-93716119D02*
X137277800Y-93811357D01*
X137277800Y-93811357D02*
X137230180Y-93954214D01*
X137230180Y-93954214D02*
X137230180Y-94049452D01*
X137230180Y-94049452D02*
X137277800Y-94192309D01*
X137277800Y-94192309D02*
X137325419Y-94239928D01*
X137325419Y-94239928D02*
X137658752Y-94239928D01*
X137658752Y-94239928D02*
X137658752Y-94049452D01*
X137230180Y-94668500D02*
X138230180Y-94668500D01*
X138230180Y-94668500D02*
X137230180Y-95239928D01*
X137230180Y-95239928D02*
X138230180Y-95239928D01*
X137230180Y-95716119D02*
X138230180Y-95716119D01*
X138230180Y-95716119D02*
X138230180Y-95954214D01*
X138230180Y-95954214D02*
X138182561Y-96097071D01*
X138182561Y-96097071D02*
X138087323Y-96192309D01*
X138087323Y-96192309D02*
X137992085Y-96239928D01*
X137992085Y-96239928D02*
X137801609Y-96287547D01*
X137801609Y-96287547D02*
X137658752Y-96287547D01*
X137658752Y-96287547D02*
X137468276Y-96239928D01*
X137468276Y-96239928D02*
X137373038Y-96192309D01*
X137373038Y-96192309D02*
X137277800Y-96097071D01*
X137277800Y-96097071D02*
X137230180Y-95954214D01*
X137230180Y-95954214D02*
X137230180Y-95716119D01*
D11*
X119022702Y-83838129D02*
X119022702Y-82838129D01*
X119022702Y-82838129D02*
X119260797Y-82838129D01*
X119260797Y-82838129D02*
X119403654Y-82885748D01*
X119403654Y-82885748D02*
X119498892Y-82980986D01*
X119498892Y-82980986D02*
X119546511Y-83076224D01*
X119546511Y-83076224D02*
X119594130Y-83266700D01*
X119594130Y-83266700D02*
X119594130Y-83409557D01*
X119594130Y-83409557D02*
X119546511Y-83600033D01*
X119546511Y-83600033D02*
X119498892Y-83695271D01*
X119498892Y-83695271D02*
X119403654Y-83790510D01*
X119403654Y-83790510D02*
X119260797Y-83838129D01*
X119260797Y-83838129D02*
X119022702Y-83838129D01*
X120403654Y-83790510D02*
X120308416Y-83838129D01*
X120308416Y-83838129D02*
X120117940Y-83838129D01*
X120117940Y-83838129D02*
X120022702Y-83790510D01*
X120022702Y-83790510D02*
X119975083Y-83695271D01*
X119975083Y-83695271D02*
X119975083Y-83314319D01*
X119975083Y-83314319D02*
X120022702Y-83219081D01*
X120022702Y-83219081D02*
X120117940Y-83171462D01*
X120117940Y-83171462D02*
X120308416Y-83171462D01*
X120308416Y-83171462D02*
X120403654Y-83219081D01*
X120403654Y-83219081D02*
X120451273Y-83314319D01*
X120451273Y-83314319D02*
X120451273Y-83409557D01*
X120451273Y-83409557D02*
X119975083Y-83504795D01*
X120832226Y-83790510D02*
X120927464Y-83838129D01*
X120927464Y-83838129D02*
X121117940Y-83838129D01*
X121117940Y-83838129D02*
X121213178Y-83790510D01*
X121213178Y-83790510D02*
X121260797Y-83695271D01*
X121260797Y-83695271D02*
X121260797Y-83647652D01*
X121260797Y-83647652D02*
X121213178Y-83552414D01*
X121213178Y-83552414D02*
X121117940Y-83504795D01*
X121117940Y-83504795D02*
X120975083Y-83504795D01*
X120975083Y-83504795D02*
X120879845Y-83457176D01*
X120879845Y-83457176D02*
X120832226Y-83361938D01*
X120832226Y-83361938D02*
X120832226Y-83314319D01*
X120832226Y-83314319D02*
X120879845Y-83219081D01*
X120879845Y-83219081D02*
X120975083Y-83171462D01*
X120975083Y-83171462D02*
X121117940Y-83171462D01*
X121117940Y-83171462D02*
X121213178Y-83219081D01*
X121689369Y-83838129D02*
X121689369Y-83171462D01*
X121689369Y-82838129D02*
X121641750Y-82885748D01*
X121641750Y-82885748D02*
X121689369Y-82933367D01*
X121689369Y-82933367D02*
X121736988Y-82885748D01*
X121736988Y-82885748D02*
X121689369Y-82838129D01*
X121689369Y-82838129D02*
X121689369Y-82933367D01*
X122594130Y-83171462D02*
X122594130Y-83980986D01*
X122594130Y-83980986D02*
X122546511Y-84076224D01*
X122546511Y-84076224D02*
X122498892Y-84123843D01*
X122498892Y-84123843D02*
X122403654Y-84171462D01*
X122403654Y-84171462D02*
X122260797Y-84171462D01*
X122260797Y-84171462D02*
X122165559Y-84123843D01*
X122594130Y-83790510D02*
X122498892Y-83838129D01*
X122498892Y-83838129D02*
X122308416Y-83838129D01*
X122308416Y-83838129D02*
X122213178Y-83790510D01*
X122213178Y-83790510D02*
X122165559Y-83742890D01*
X122165559Y-83742890D02*
X122117940Y-83647652D01*
X122117940Y-83647652D02*
X122117940Y-83361938D01*
X122117940Y-83361938D02*
X122165559Y-83266700D01*
X122165559Y-83266700D02*
X122213178Y-83219081D01*
X122213178Y-83219081D02*
X122308416Y-83171462D01*
X122308416Y-83171462D02*
X122498892Y-83171462D01*
X122498892Y-83171462D02*
X122594130Y-83219081D01*
X123070321Y-83171462D02*
X123070321Y-83838129D01*
X123070321Y-83266700D02*
X123117940Y-83219081D01*
X123117940Y-83219081D02*
X123213178Y-83171462D01*
X123213178Y-83171462D02*
X123356035Y-83171462D01*
X123356035Y-83171462D02*
X123451273Y-83219081D01*
X123451273Y-83219081D02*
X123498892Y-83314319D01*
X123498892Y-83314319D02*
X123498892Y-83838129D01*
X124356035Y-83790510D02*
X124260797Y-83838129D01*
X124260797Y-83838129D02*
X124070321Y-83838129D01*
X124070321Y-83838129D02*
X123975083Y-83790510D01*
X123975083Y-83790510D02*
X123927464Y-83695271D01*
X123927464Y-83695271D02*
X123927464Y-83314319D01*
X123927464Y-83314319D02*
X123975083Y-83219081D01*
X123975083Y-83219081D02*
X124070321Y-83171462D01*
X124070321Y-83171462D02*
X124260797Y-83171462D01*
X124260797Y-83171462D02*
X124356035Y-83219081D01*
X124356035Y-83219081D02*
X124403654Y-83314319D01*
X124403654Y-83314319D02*
X124403654Y-83409557D01*
X124403654Y-83409557D02*
X123927464Y-83504795D01*
X125260797Y-83838129D02*
X125260797Y-82838129D01*
X125260797Y-83790510D02*
X125165559Y-83838129D01*
X125165559Y-83838129D02*
X124975083Y-83838129D01*
X124975083Y-83838129D02*
X124879845Y-83790510D01*
X124879845Y-83790510D02*
X124832226Y-83742890D01*
X124832226Y-83742890D02*
X124784607Y-83647652D01*
X124784607Y-83647652D02*
X124784607Y-83361938D01*
X124784607Y-83361938D02*
X124832226Y-83266700D01*
X124832226Y-83266700D02*
X124879845Y-83219081D01*
X124879845Y-83219081D02*
X124975083Y-83171462D01*
X124975083Y-83171462D02*
X125165559Y-83171462D01*
X125165559Y-83171462D02*
X125260797Y-83219081D01*
X126927464Y-83838129D02*
X126927464Y-83314319D01*
X126927464Y-83314319D02*
X126879845Y-83219081D01*
X126879845Y-83219081D02*
X126784607Y-83171462D01*
X126784607Y-83171462D02*
X126594131Y-83171462D01*
X126594131Y-83171462D02*
X126498893Y-83219081D01*
X126927464Y-83790510D02*
X126832226Y-83838129D01*
X126832226Y-83838129D02*
X126594131Y-83838129D01*
X126594131Y-83838129D02*
X126498893Y-83790510D01*
X126498893Y-83790510D02*
X126451274Y-83695271D01*
X126451274Y-83695271D02*
X126451274Y-83600033D01*
X126451274Y-83600033D02*
X126498893Y-83504795D01*
X126498893Y-83504795D02*
X126594131Y-83457176D01*
X126594131Y-83457176D02*
X126832226Y-83457176D01*
X126832226Y-83457176D02*
X126927464Y-83409557D01*
X127260798Y-83171462D02*
X127641750Y-83171462D01*
X127403655Y-82838129D02*
X127403655Y-83695271D01*
X127403655Y-83695271D02*
X127451274Y-83790510D01*
X127451274Y-83790510D02*
X127546512Y-83838129D01*
X127546512Y-83838129D02*
X127641750Y-83838129D01*
X129165560Y-83838129D02*
X129165560Y-82838129D01*
X129165560Y-83790510D02*
X129070322Y-83838129D01*
X129070322Y-83838129D02*
X128879846Y-83838129D01*
X128879846Y-83838129D02*
X128784608Y-83790510D01*
X128784608Y-83790510D02*
X128736989Y-83742890D01*
X128736989Y-83742890D02*
X128689370Y-83647652D01*
X128689370Y-83647652D02*
X128689370Y-83361938D01*
X128689370Y-83361938D02*
X128736989Y-83266700D01*
X128736989Y-83266700D02*
X128784608Y-83219081D01*
X128784608Y-83219081D02*
X128879846Y-83171462D01*
X128879846Y-83171462D02*
X129070322Y-83171462D01*
X129070322Y-83171462D02*
X129165560Y-83219081D01*
X129641751Y-83742890D02*
X129689370Y-83790510D01*
X129689370Y-83790510D02*
X129641751Y-83838129D01*
X129641751Y-83838129D02*
X129594132Y-83790510D01*
X129594132Y-83790510D02*
X129641751Y-83742890D01*
X129641751Y-83742890D02*
X129641751Y-83838129D01*
X130070322Y-83790510D02*
X130165560Y-83838129D01*
X130165560Y-83838129D02*
X130356036Y-83838129D01*
X130356036Y-83838129D02*
X130451274Y-83790510D01*
X130451274Y-83790510D02*
X130498893Y-83695271D01*
X130498893Y-83695271D02*
X130498893Y-83647652D01*
X130498893Y-83647652D02*
X130451274Y-83552414D01*
X130451274Y-83552414D02*
X130356036Y-83504795D01*
X130356036Y-83504795D02*
X130213179Y-83504795D01*
X130213179Y-83504795D02*
X130117941Y-83457176D01*
X130117941Y-83457176D02*
X130070322Y-83361938D01*
X130070322Y-83361938D02*
X130070322Y-83314319D01*
X130070322Y-83314319D02*
X130117941Y-83219081D01*
X130117941Y-83219081D02*
X130213179Y-83171462D01*
X130213179Y-83171462D02*
X130356036Y-83171462D01*
X130356036Y-83171462D02*
X130451274Y-83219081D01*
X131308417Y-83790510D02*
X131213179Y-83838129D01*
X131213179Y-83838129D02*
X131022703Y-83838129D01*
X131022703Y-83838129D02*
X130927465Y-83790510D01*
X130927465Y-83790510D02*
X130879846Y-83695271D01*
X130879846Y-83695271D02*
X130879846Y-83314319D01*
X130879846Y-83314319D02*
X130927465Y-83219081D01*
X130927465Y-83219081D02*
X131022703Y-83171462D01*
X131022703Y-83171462D02*
X131213179Y-83171462D01*
X131213179Y-83171462D02*
X131308417Y-83219081D01*
X131308417Y-83219081D02*
X131356036Y-83314319D01*
X131356036Y-83314319D02*
X131356036Y-83409557D01*
X131356036Y-83409557D02*
X130879846Y-83504795D01*
X132213179Y-83838129D02*
X132213179Y-83314319D01*
X132213179Y-83314319D02*
X132165560Y-83219081D01*
X132165560Y-83219081D02*
X132070322Y-83171462D01*
X132070322Y-83171462D02*
X131879846Y-83171462D01*
X131879846Y-83171462D02*
X131784608Y-83219081D01*
X132213179Y-83790510D02*
X132117941Y-83838129D01*
X132117941Y-83838129D02*
X131879846Y-83838129D01*
X131879846Y-83838129D02*
X131784608Y-83790510D01*
X131784608Y-83790510D02*
X131736989Y-83695271D01*
X131736989Y-83695271D02*
X131736989Y-83600033D01*
X131736989Y-83600033D02*
X131784608Y-83504795D01*
X131784608Y-83504795D02*
X131879846Y-83457176D01*
X131879846Y-83457176D02*
X132117941Y-83457176D01*
X132117941Y-83457176D02*
X132213179Y-83409557D01*
X132689370Y-83838129D02*
X132689370Y-83171462D01*
X132689370Y-83361938D02*
X132736989Y-83266700D01*
X132736989Y-83266700D02*
X132784608Y-83219081D01*
X132784608Y-83219081D02*
X132879846Y-83171462D01*
X132879846Y-83171462D02*
X132975084Y-83171462D01*
X133736989Y-83790510D02*
X133641751Y-83838129D01*
X133641751Y-83838129D02*
X133451275Y-83838129D01*
X133451275Y-83838129D02*
X133356037Y-83790510D01*
X133356037Y-83790510D02*
X133308418Y-83742890D01*
X133308418Y-83742890D02*
X133260799Y-83647652D01*
X133260799Y-83647652D02*
X133260799Y-83361938D01*
X133260799Y-83361938D02*
X133308418Y-83266700D01*
X133308418Y-83266700D02*
X133356037Y-83219081D01*
X133356037Y-83219081D02*
X133451275Y-83171462D01*
X133451275Y-83171462D02*
X133641751Y-83171462D01*
X133641751Y-83171462D02*
X133736989Y-83219081D01*
X134165561Y-83838129D02*
X134165561Y-82838129D01*
X134594132Y-83838129D02*
X134594132Y-83314319D01*
X134594132Y-83314319D02*
X134546513Y-83219081D01*
X134546513Y-83219081D02*
X134451275Y-83171462D01*
X134451275Y-83171462D02*
X134308418Y-83171462D01*
X134308418Y-83171462D02*
X134213180Y-83219081D01*
X134213180Y-83219081D02*
X134165561Y-83266700D01*
X135975085Y-83838129D02*
X135879847Y-83790510D01*
X135879847Y-83790510D02*
X135832228Y-83695271D01*
X135832228Y-83695271D02*
X135832228Y-82838129D01*
X136784609Y-83838129D02*
X136784609Y-83314319D01*
X136784609Y-83314319D02*
X136736990Y-83219081D01*
X136736990Y-83219081D02*
X136641752Y-83171462D01*
X136641752Y-83171462D02*
X136451276Y-83171462D01*
X136451276Y-83171462D02*
X136356038Y-83219081D01*
X136784609Y-83790510D02*
X136689371Y-83838129D01*
X136689371Y-83838129D02*
X136451276Y-83838129D01*
X136451276Y-83838129D02*
X136356038Y-83790510D01*
X136356038Y-83790510D02*
X136308419Y-83695271D01*
X136308419Y-83695271D02*
X136308419Y-83600033D01*
X136308419Y-83600033D02*
X136356038Y-83504795D01*
X136356038Y-83504795D02*
X136451276Y-83457176D01*
X136451276Y-83457176D02*
X136689371Y-83457176D01*
X136689371Y-83457176D02*
X136784609Y-83409557D01*
X137260800Y-83838129D02*
X137260800Y-82838129D01*
X137260800Y-83219081D02*
X137356038Y-83171462D01*
X137356038Y-83171462D02*
X137546514Y-83171462D01*
X137546514Y-83171462D02*
X137641752Y-83219081D01*
X137641752Y-83219081D02*
X137689371Y-83266700D01*
X137689371Y-83266700D02*
X137736990Y-83361938D01*
X137736990Y-83361938D02*
X137736990Y-83647652D01*
X137736990Y-83647652D02*
X137689371Y-83742890D01*
X137689371Y-83742890D02*
X137641752Y-83790510D01*
X137641752Y-83790510D02*
X137546514Y-83838129D01*
X137546514Y-83838129D02*
X137356038Y-83838129D01*
X137356038Y-83838129D02*
X137260800Y-83790510D01*
X139165562Y-83504795D02*
X138784610Y-83504795D01*
X140117944Y-82838129D02*
X140689372Y-82838129D01*
X140403658Y-83838129D02*
X140403658Y-82838129D01*
X141022706Y-82838129D02*
X141022706Y-83647652D01*
X141022706Y-83647652D02*
X141070325Y-83742890D01*
X141070325Y-83742890D02*
X141117944Y-83790510D01*
X141117944Y-83790510D02*
X141213182Y-83838129D01*
X141213182Y-83838129D02*
X141403658Y-83838129D01*
X141403658Y-83838129D02*
X141498896Y-83790510D01*
X141498896Y-83790510D02*
X141546515Y-83742890D01*
X141546515Y-83742890D02*
X141594134Y-83647652D01*
X141594134Y-83647652D02*
X141594134Y-82838129D01*
X142784610Y-82790510D02*
X141927468Y-84076224D01*
X143498896Y-83790510D02*
X143403658Y-83838129D01*
X143403658Y-83838129D02*
X143213182Y-83838129D01*
X143213182Y-83838129D02*
X143117944Y-83790510D01*
X143117944Y-83790510D02*
X143070325Y-83695271D01*
X143070325Y-83695271D02*
X143070325Y-83314319D01*
X143070325Y-83314319D02*
X143117944Y-83219081D01*
X143117944Y-83219081D02*
X143213182Y-83171462D01*
X143213182Y-83171462D02*
X143403658Y-83171462D01*
X143403658Y-83171462D02*
X143498896Y-83219081D01*
X143498896Y-83219081D02*
X143546515Y-83314319D01*
X143546515Y-83314319D02*
X143546515Y-83409557D01*
X143546515Y-83409557D02*
X143070325Y-83504795D01*
D12*
X135525718Y-39676779D02*
X136525718Y-39676779D01*
X136525718Y-39676779D02*
X136525718Y-40057731D01*
X136525718Y-40057731D02*
X136478099Y-40152969D01*
X136478099Y-40152969D02*
X136430480Y-40200588D01*
X136430480Y-40200588D02*
X136335242Y-40248207D01*
X136335242Y-40248207D02*
X136192385Y-40248207D01*
X136192385Y-40248207D02*
X136097147Y-40200588D01*
X136097147Y-40200588D02*
X136049528Y-40152969D01*
X136049528Y-40152969D02*
X136001909Y-40057731D01*
X136001909Y-40057731D02*
X136001909Y-39676779D01*
X136525718Y-40867255D02*
X136525718Y-41057731D01*
X136525718Y-41057731D02*
X136478099Y-41152969D01*
X136478099Y-41152969D02*
X136382861Y-41248207D01*
X136382861Y-41248207D02*
X136192385Y-41295826D01*
X136192385Y-41295826D02*
X135859052Y-41295826D01*
X135859052Y-41295826D02*
X135668576Y-41248207D01*
X135668576Y-41248207D02*
X135573338Y-41152969D01*
X135573338Y-41152969D02*
X135525718Y-41057731D01*
X135525718Y-41057731D02*
X135525718Y-40867255D01*
X135525718Y-40867255D02*
X135573338Y-40772017D01*
X135573338Y-40772017D02*
X135668576Y-40676779D01*
X135668576Y-40676779D02*
X135859052Y-40629160D01*
X135859052Y-40629160D02*
X136192385Y-40629160D01*
X136192385Y-40629160D02*
X136382861Y-40676779D01*
X136382861Y-40676779D02*
X136478099Y-40772017D01*
X136478099Y-40772017D02*
X136525718Y-40867255D01*
X136525718Y-41629160D02*
X135525718Y-41867255D01*
X135525718Y-41867255D02*
X136240004Y-42057731D01*
X136240004Y-42057731D02*
X135525718Y-42248207D01*
X135525718Y-42248207D02*
X136525718Y-42486303D01*
X136049528Y-42867255D02*
X136049528Y-43200588D01*
X135525718Y-43343445D02*
X135525718Y-42867255D01*
X135525718Y-42867255D02*
X136525718Y-42867255D01*
X136525718Y-42867255D02*
X136525718Y-43343445D01*
X135525718Y-44343445D02*
X136001909Y-44010112D01*
X135525718Y-43772017D02*
X136525718Y-43772017D01*
X136525718Y-43772017D02*
X136525718Y-44152969D01*
X136525718Y-44152969D02*
X136478099Y-44248207D01*
X136478099Y-44248207D02*
X136430480Y-44295826D01*
X136430480Y-44295826D02*
X136335242Y-44343445D01*
X136335242Y-44343445D02*
X136192385Y-44343445D01*
X136192385Y-44343445D02*
X136097147Y-44295826D01*
X136097147Y-44295826D02*
X136049528Y-44248207D01*
X136049528Y-44248207D02*
X136001909Y-44152969D01*
X136001909Y-44152969D02*
X136001909Y-43772017D01*
X142377800Y-93620881D02*
X142330180Y-93763738D01*
X142330180Y-93763738D02*
X142330180Y-94001833D01*
X142330180Y-94001833D02*
X142377800Y-94097071D01*
X142377800Y-94097071D02*
X142425419Y-94144690D01*
X142425419Y-94144690D02*
X142520657Y-94192309D01*
X142520657Y-94192309D02*
X142615895Y-94192309D01*
X142615895Y-94192309D02*
X142711133Y-94144690D01*
X142711133Y-94144690D02*
X142758752Y-94097071D01*
X142758752Y-94097071D02*
X142806371Y-94001833D01*
X142806371Y-94001833D02*
X142853990Y-93811357D01*
X142853990Y-93811357D02*
X142901609Y-93716119D01*
X142901609Y-93716119D02*
X142949228Y-93668500D01*
X142949228Y-93668500D02*
X143044466Y-93620881D01*
X143044466Y-93620881D02*
X143139704Y-93620881D01*
X143139704Y-93620881D02*
X143234942Y-93668500D01*
X143234942Y-93668500D02*
X143282561Y-93716119D01*
X143282561Y-93716119D02*
X143330180Y-93811357D01*
X143330180Y-93811357D02*
X143330180Y-94049452D01*
X143330180Y-94049452D02*
X143282561Y-94192309D01*
X142330180Y-94620881D02*
X143330180Y-94620881D01*
X143330180Y-94620881D02*
X143330180Y-94858976D01*
X143330180Y-94858976D02*
X143282561Y-95001833D01*
X143282561Y-95001833D02*
X143187323Y-95097071D01*
X143187323Y-95097071D02*
X143092085Y-95144690D01*
X143092085Y-95144690D02*
X142901609Y-95192309D01*
X142901609Y-95192309D02*
X142758752Y-95192309D01*
X142758752Y-95192309D02*
X142568276Y-95144690D01*
X142568276Y-95144690D02*
X142473038Y-95097071D01*
X142473038Y-95097071D02*
X142377800Y-95001833D01*
X142377800Y-95001833D02*
X142330180Y-94858976D01*
X142330180Y-94858976D02*
X142330180Y-94620881D01*
X142615895Y-95573262D02*
X142615895Y-96049452D01*
X142330180Y-95478024D02*
X143330180Y-95811357D01*
X143330180Y-95811357D02*
X142330180Y-96144690D01*
X144877800Y-93620881D02*
X144830180Y-93763738D01*
X144830180Y-93763738D02*
X144830180Y-94001833D01*
X144830180Y-94001833D02*
X144877800Y-94097071D01*
X144877800Y-94097071D02*
X144925419Y-94144690D01*
X144925419Y-94144690D02*
X145020657Y-94192309D01*
X145020657Y-94192309D02*
X145115895Y-94192309D01*
X145115895Y-94192309D02*
X145211133Y-94144690D01*
X145211133Y-94144690D02*
X145258752Y-94097071D01*
X145258752Y-94097071D02*
X145306371Y-94001833D01*
X145306371Y-94001833D02*
X145353990Y-93811357D01*
X145353990Y-93811357D02*
X145401609Y-93716119D01*
X145401609Y-93716119D02*
X145449228Y-93668500D01*
X145449228Y-93668500D02*
X145544466Y-93620881D01*
X145544466Y-93620881D02*
X145639704Y-93620881D01*
X145639704Y-93620881D02*
X145734942Y-93668500D01*
X145734942Y-93668500D02*
X145782561Y-93716119D01*
X145782561Y-93716119D02*
X145830180Y-93811357D01*
X145830180Y-93811357D02*
X145830180Y-94049452D01*
X145830180Y-94049452D02*
X145782561Y-94192309D01*
X144925419Y-95192309D02*
X144877800Y-95144690D01*
X144877800Y-95144690D02*
X144830180Y-95001833D01*
X144830180Y-95001833D02*
X144830180Y-94906595D01*
X144830180Y-94906595D02*
X144877800Y-94763738D01*
X144877800Y-94763738D02*
X144973038Y-94668500D01*
X144973038Y-94668500D02*
X145068276Y-94620881D01*
X145068276Y-94620881D02*
X145258752Y-94573262D01*
X145258752Y-94573262D02*
X145401609Y-94573262D01*
X145401609Y-94573262D02*
X145592085Y-94620881D01*
X145592085Y-94620881D02*
X145687323Y-94668500D01*
X145687323Y-94668500D02*
X145782561Y-94763738D01*
X145782561Y-94763738D02*
X145830180Y-94906595D01*
X145830180Y-94906595D02*
X145830180Y-95001833D01*
X145830180Y-95001833D02*
X145782561Y-95144690D01*
X145782561Y-95144690D02*
X145734942Y-95192309D01*
X144830180Y-96097071D02*
X144830180Y-95620881D01*
X144830180Y-95620881D02*
X145830180Y-95620881D01*
D11*
X126397249Y-74232419D02*
X126397249Y-74946704D01*
X126397249Y-74946704D02*
X126349630Y-75089561D01*
X126349630Y-75089561D02*
X126254392Y-75184800D01*
X126254392Y-75184800D02*
X126111535Y-75232419D01*
X126111535Y-75232419D02*
X126016297Y-75232419D01*
X127349630Y-75232419D02*
X126873440Y-75232419D01*
X126873440Y-75232419D02*
X126873440Y-74232419D01*
X128254392Y-75137180D02*
X128206773Y-75184800D01*
X128206773Y-75184800D02*
X128063916Y-75232419D01*
X128063916Y-75232419D02*
X127968678Y-75232419D01*
X127968678Y-75232419D02*
X127825821Y-75184800D01*
X127825821Y-75184800D02*
X127730583Y-75089561D01*
X127730583Y-75089561D02*
X127682964Y-74994323D01*
X127682964Y-74994323D02*
X127635345Y-74803847D01*
X127635345Y-74803847D02*
X127635345Y-74660990D01*
X127635345Y-74660990D02*
X127682964Y-74470514D01*
X127682964Y-74470514D02*
X127730583Y-74375276D01*
X127730583Y-74375276D02*
X127825821Y-74280038D01*
X127825821Y-74280038D02*
X127968678Y-74232419D01*
X127968678Y-74232419D02*
X128063916Y-74232419D01*
X128063916Y-74232419D02*
X128206773Y-74280038D01*
X128206773Y-74280038D02*
X128254392Y-74327657D01*
X128968678Y-74232419D02*
X128968678Y-74946704D01*
X128968678Y-74946704D02*
X128921059Y-75089561D01*
X128921059Y-75089561D02*
X128825821Y-75184800D01*
X128825821Y-75184800D02*
X128682964Y-75232419D01*
X128682964Y-75232419D02*
X128587726Y-75232419D01*
X129921059Y-75232419D02*
X129444869Y-75232419D01*
X129444869Y-75232419D02*
X129444869Y-74232419D01*
X130825821Y-75137180D02*
X130778202Y-75184800D01*
X130778202Y-75184800D02*
X130635345Y-75232419D01*
X130635345Y-75232419D02*
X130540107Y-75232419D01*
X130540107Y-75232419D02*
X130397250Y-75184800D01*
X130397250Y-75184800D02*
X130302012Y-75089561D01*
X130302012Y-75089561D02*
X130254393Y-74994323D01*
X130254393Y-74994323D02*
X130206774Y-74803847D01*
X130206774Y-74803847D02*
X130206774Y-74660990D01*
X130206774Y-74660990D02*
X130254393Y-74470514D01*
X130254393Y-74470514D02*
X130302012Y-74375276D01*
X130302012Y-74375276D02*
X130397250Y-74280038D01*
X130397250Y-74280038D02*
X130540107Y-74232419D01*
X130540107Y-74232419D02*
X130635345Y-74232419D01*
X130635345Y-74232419D02*
X130778202Y-74280038D01*
X130778202Y-74280038D02*
X130825821Y-74327657D01*
X131540107Y-74232419D02*
X131540107Y-74946704D01*
X131540107Y-74946704D02*
X131492488Y-75089561D01*
X131492488Y-75089561D02*
X131397250Y-75184800D01*
X131397250Y-75184800D02*
X131254393Y-75232419D01*
X131254393Y-75232419D02*
X131159155Y-75232419D01*
X132492488Y-75232419D02*
X132016298Y-75232419D01*
X132016298Y-75232419D02*
X132016298Y-74232419D01*
X133397250Y-75137180D02*
X133349631Y-75184800D01*
X133349631Y-75184800D02*
X133206774Y-75232419D01*
X133206774Y-75232419D02*
X133111536Y-75232419D01*
X133111536Y-75232419D02*
X132968679Y-75184800D01*
X132968679Y-75184800D02*
X132873441Y-75089561D01*
X132873441Y-75089561D02*
X132825822Y-74994323D01*
X132825822Y-74994323D02*
X132778203Y-74803847D01*
X132778203Y-74803847D02*
X132778203Y-74660990D01*
X132778203Y-74660990D02*
X132825822Y-74470514D01*
X132825822Y-74470514D02*
X132873441Y-74375276D01*
X132873441Y-74375276D02*
X132968679Y-74280038D01*
X132968679Y-74280038D02*
X133111536Y-74232419D01*
X133111536Y-74232419D02*
X133206774Y-74232419D01*
X133206774Y-74232419D02*
X133349631Y-74280038D01*
X133349631Y-74280038D02*
X133397250Y-74327657D01*
X134111536Y-74232419D02*
X134111536Y-74946704D01*
X134111536Y-74946704D02*
X134063917Y-75089561D01*
X134063917Y-75089561D02*
X133968679Y-75184800D01*
X133968679Y-75184800D02*
X133825822Y-75232419D01*
X133825822Y-75232419D02*
X133730584Y-75232419D01*
X135063917Y-75232419D02*
X134587727Y-75232419D01*
X134587727Y-75232419D02*
X134587727Y-74232419D01*
X135968679Y-75137180D02*
X135921060Y-75184800D01*
X135921060Y-75184800D02*
X135778203Y-75232419D01*
X135778203Y-75232419D02*
X135682965Y-75232419D01*
X135682965Y-75232419D02*
X135540108Y-75184800D01*
X135540108Y-75184800D02*
X135444870Y-75089561D01*
X135444870Y-75089561D02*
X135397251Y-74994323D01*
X135397251Y-74994323D02*
X135349632Y-74803847D01*
X135349632Y-74803847D02*
X135349632Y-74660990D01*
X135349632Y-74660990D02*
X135397251Y-74470514D01*
X135397251Y-74470514D02*
X135444870Y-74375276D01*
X135444870Y-74375276D02*
X135540108Y-74280038D01*
X135540108Y-74280038D02*
X135682965Y-74232419D01*
X135682965Y-74232419D02*
X135778203Y-74232419D01*
X135778203Y-74232419D02*
X135921060Y-74280038D01*
X135921060Y-74280038D02*
X135968679Y-74327657D01*
D13*
X127756892Y-54000325D02*
X129071178Y-54000325D01*
X128414035Y-56300325D02*
X128414035Y-54000325D01*
X129837845Y-55095563D02*
X130604511Y-55095563D01*
X130933083Y-56300325D02*
X129837845Y-56300325D01*
X129837845Y-56300325D02*
X129837845Y-54000325D01*
X129837845Y-54000325D02*
X130933083Y-54000325D01*
X131809273Y-56190802D02*
X132137844Y-56300325D01*
X132137844Y-56300325D02*
X132685463Y-56300325D01*
X132685463Y-56300325D02*
X132904511Y-56190802D01*
X132904511Y-56190802D02*
X133014035Y-56081278D01*
X133014035Y-56081278D02*
X133123558Y-55862230D01*
X133123558Y-55862230D02*
X133123558Y-55643182D01*
X133123558Y-55643182D02*
X133014035Y-55424135D01*
X133014035Y-55424135D02*
X132904511Y-55314611D01*
X132904511Y-55314611D02*
X132685463Y-55205087D01*
X132685463Y-55205087D02*
X132247368Y-55095563D01*
X132247368Y-55095563D02*
X132028320Y-54986040D01*
X132028320Y-54986040D02*
X131918797Y-54876516D01*
X131918797Y-54876516D02*
X131809273Y-54657468D01*
X131809273Y-54657468D02*
X131809273Y-54438421D01*
X131809273Y-54438421D02*
X131918797Y-54219373D01*
X131918797Y-54219373D02*
X132028320Y-54109849D01*
X132028320Y-54109849D02*
X132247368Y-54000325D01*
X132247368Y-54000325D02*
X132794987Y-54000325D01*
X132794987Y-54000325D02*
X133123558Y-54109849D01*
X134109273Y-56300325D02*
X134109273Y-54000325D01*
D12*
X99087154Y-51647626D02*
X99087154Y-52123816D01*
X98801439Y-51552388D02*
X99801439Y-51885721D01*
X99801439Y-51885721D02*
X98801439Y-52219054D01*
X98801439Y-52980959D02*
X99801439Y-52980959D01*
X98849059Y-52980959D02*
X98801439Y-52885721D01*
X98801439Y-52885721D02*
X98801439Y-52695245D01*
X98801439Y-52695245D02*
X98849059Y-52600007D01*
X98849059Y-52600007D02*
X98896678Y-52552388D01*
X98896678Y-52552388D02*
X98991916Y-52504769D01*
X98991916Y-52504769D02*
X99277630Y-52504769D01*
X99277630Y-52504769D02*
X99372868Y-52552388D01*
X99372868Y-52552388D02*
X99420487Y-52600007D01*
X99420487Y-52600007D02*
X99468106Y-52695245D01*
X99468106Y-52695245D02*
X99468106Y-52885721D01*
X99468106Y-52885721D02*
X99420487Y-52980959D01*
X98801439Y-53885721D02*
X99325249Y-53885721D01*
X99325249Y-53885721D02*
X99420487Y-53838102D01*
X99420487Y-53838102D02*
X99468106Y-53742864D01*
X99468106Y-53742864D02*
X99468106Y-53552388D01*
X99468106Y-53552388D02*
X99420487Y-53457150D01*
X98849059Y-53885721D02*
X98801439Y-53790483D01*
X98801439Y-53790483D02*
X98801439Y-53552388D01*
X98801439Y-53552388D02*
X98849059Y-53457150D01*
X98849059Y-53457150D02*
X98944297Y-53409531D01*
X98944297Y-53409531D02*
X99039535Y-53409531D01*
X99039535Y-53409531D02*
X99134773Y-53457150D01*
X99134773Y-53457150D02*
X99182392Y-53552388D01*
X99182392Y-53552388D02*
X99182392Y-53790483D01*
X99182392Y-53790483D02*
X99230011Y-53885721D01*
X99468106Y-54219055D02*
X99468106Y-54600007D01*
X98801439Y-54361912D02*
X99658582Y-54361912D01*
X99658582Y-54361912D02*
X99753820Y-54409531D01*
X99753820Y-54409531D02*
X99801439Y-54504769D01*
X99801439Y-54504769D02*
X99801439Y-54600007D01*
X98801439Y-54933341D02*
X99468106Y-54933341D01*
X99277630Y-54933341D02*
X99372868Y-54980960D01*
X99372868Y-54980960D02*
X99420487Y-55028579D01*
X99420487Y-55028579D02*
X99468106Y-55123817D01*
X99468106Y-55123817D02*
X99468106Y-55219055D01*
X99468106Y-55980960D02*
X98801439Y-55980960D01*
X99468106Y-55552389D02*
X98944297Y-55552389D01*
X98944297Y-55552389D02*
X98849059Y-55600008D01*
X98849059Y-55600008D02*
X98801439Y-55695246D01*
X98801439Y-55695246D02*
X98801439Y-55838103D01*
X98801439Y-55838103D02*
X98849059Y-55933341D01*
X98849059Y-55933341D02*
X98896678Y-55980960D01*
X98801439Y-56457151D02*
X99468106Y-56457151D01*
X99801439Y-56457151D02*
X99753820Y-56409532D01*
X99753820Y-56409532D02*
X99706201Y-56457151D01*
X99706201Y-56457151D02*
X99753820Y-56504770D01*
X99753820Y-56504770D02*
X99801439Y-56457151D01*
X99801439Y-56457151D02*
X99706201Y-56457151D01*
X99468106Y-56790484D02*
X99468106Y-57171436D01*
X99801439Y-56933341D02*
X98944297Y-56933341D01*
X98944297Y-56933341D02*
X98849059Y-56980960D01*
X98849059Y-56980960D02*
X98801439Y-57076198D01*
X98801439Y-57076198D02*
X98801439Y-57171436D01*
X99325249Y-58266675D02*
X99325249Y-58600008D01*
X98801439Y-58742865D02*
X98801439Y-58266675D01*
X98801439Y-58266675D02*
X99801439Y-58266675D01*
X99801439Y-58266675D02*
X99801439Y-58742865D01*
X98849059Y-59123818D02*
X98801439Y-59266675D01*
X98801439Y-59266675D02*
X98801439Y-59504770D01*
X98801439Y-59504770D02*
X98849059Y-59600008D01*
X98849059Y-59600008D02*
X98896678Y-59647627D01*
X98896678Y-59647627D02*
X98991916Y-59695246D01*
X98991916Y-59695246D02*
X99087154Y-59695246D01*
X99087154Y-59695246D02*
X99182392Y-59647627D01*
X99182392Y-59647627D02*
X99230011Y-59600008D01*
X99230011Y-59600008D02*
X99277630Y-59504770D01*
X99277630Y-59504770D02*
X99325249Y-59314294D01*
X99325249Y-59314294D02*
X99372868Y-59219056D01*
X99372868Y-59219056D02*
X99420487Y-59171437D01*
X99420487Y-59171437D02*
X99515725Y-59123818D01*
X99515725Y-59123818D02*
X99610963Y-59123818D01*
X99610963Y-59123818D02*
X99706201Y-59171437D01*
X99706201Y-59171437D02*
X99753820Y-59219056D01*
X99753820Y-59219056D02*
X99801439Y-59314294D01*
X99801439Y-59314294D02*
X99801439Y-59552389D01*
X99801439Y-59552389D02*
X99753820Y-59695246D01*
X98801439Y-60123818D02*
X99801439Y-60123818D01*
X99801439Y-60123818D02*
X99801439Y-60504770D01*
X99801439Y-60504770D02*
X99753820Y-60600008D01*
X99753820Y-60600008D02*
X99706201Y-60647627D01*
X99706201Y-60647627D02*
X99610963Y-60695246D01*
X99610963Y-60695246D02*
X99468106Y-60695246D01*
X99468106Y-60695246D02*
X99372868Y-60647627D01*
X99372868Y-60647627D02*
X99325249Y-60600008D01*
X99325249Y-60600008D02*
X99277630Y-60504770D01*
X99277630Y-60504770D02*
X99277630Y-60123818D01*
X99801439Y-61028580D02*
X99801439Y-61647627D01*
X99801439Y-61647627D02*
X99420487Y-61314294D01*
X99420487Y-61314294D02*
X99420487Y-61457151D01*
X99420487Y-61457151D02*
X99372868Y-61552389D01*
X99372868Y-61552389D02*
X99325249Y-61600008D01*
X99325249Y-61600008D02*
X99230011Y-61647627D01*
X99230011Y-61647627D02*
X98991916Y-61647627D01*
X98991916Y-61647627D02*
X98896678Y-61600008D01*
X98896678Y-61600008D02*
X98849059Y-61552389D01*
X98849059Y-61552389D02*
X98801439Y-61457151D01*
X98801439Y-61457151D02*
X98801439Y-61171437D01*
X98801439Y-61171437D02*
X98849059Y-61076199D01*
X98849059Y-61076199D02*
X98896678Y-61028580D01*
X99706201Y-62028580D02*
X99753820Y-62076199D01*
X99753820Y-62076199D02*
X99801439Y-62171437D01*
X99801439Y-62171437D02*
X99801439Y-62409532D01*
X99801439Y-62409532D02*
X99753820Y-62504770D01*
X99753820Y-62504770D02*
X99706201Y-62552389D01*
X99706201Y-62552389D02*
X99610963Y-62600008D01*
X99610963Y-62600008D02*
X99515725Y-62600008D01*
X99515725Y-62600008D02*
X99372868Y-62552389D01*
X99372868Y-62552389D02*
X98801439Y-61980961D01*
X98801439Y-61980961D02*
X98801439Y-62600008D01*
X99325249Y-64123818D02*
X99325249Y-63790485D01*
X98801439Y-63790485D02*
X99801439Y-63790485D01*
X99801439Y-63790485D02*
X99801439Y-64266675D01*
X98849059Y-65028580D02*
X98801439Y-64933342D01*
X98801439Y-64933342D02*
X98801439Y-64742866D01*
X98801439Y-64742866D02*
X98849059Y-64647628D01*
X98849059Y-64647628D02*
X98944297Y-64600009D01*
X98944297Y-64600009D02*
X99325249Y-64600009D01*
X99325249Y-64600009D02*
X99420487Y-64647628D01*
X99420487Y-64647628D02*
X99468106Y-64742866D01*
X99468106Y-64742866D02*
X99468106Y-64933342D01*
X99468106Y-64933342D02*
X99420487Y-65028580D01*
X99420487Y-65028580D02*
X99325249Y-65076199D01*
X99325249Y-65076199D02*
X99230011Y-65076199D01*
X99230011Y-65076199D02*
X99134773Y-64600009D01*
X98801439Y-65933342D02*
X99325249Y-65933342D01*
X99325249Y-65933342D02*
X99420487Y-65885723D01*
X99420487Y-65885723D02*
X99468106Y-65790485D01*
X99468106Y-65790485D02*
X99468106Y-65600009D01*
X99468106Y-65600009D02*
X99420487Y-65504771D01*
X98849059Y-65933342D02*
X98801439Y-65838104D01*
X98801439Y-65838104D02*
X98801439Y-65600009D01*
X98801439Y-65600009D02*
X98849059Y-65504771D01*
X98849059Y-65504771D02*
X98944297Y-65457152D01*
X98944297Y-65457152D02*
X99039535Y-65457152D01*
X99039535Y-65457152D02*
X99134773Y-65504771D01*
X99134773Y-65504771D02*
X99182392Y-65600009D01*
X99182392Y-65600009D02*
X99182392Y-65838104D01*
X99182392Y-65838104D02*
X99230011Y-65933342D01*
X99468106Y-66266676D02*
X99468106Y-66647628D01*
X99801439Y-66409533D02*
X98944297Y-66409533D01*
X98944297Y-66409533D02*
X98849059Y-66457152D01*
X98849059Y-66457152D02*
X98801439Y-66552390D01*
X98801439Y-66552390D02*
X98801439Y-66647628D01*
X98801439Y-66980962D02*
X99801439Y-66980962D01*
X98801439Y-67409533D02*
X99325249Y-67409533D01*
X99325249Y-67409533D02*
X99420487Y-67361914D01*
X99420487Y-67361914D02*
X99468106Y-67266676D01*
X99468106Y-67266676D02*
X99468106Y-67123819D01*
X99468106Y-67123819D02*
X99420487Y-67028581D01*
X99420487Y-67028581D02*
X99372868Y-66980962D01*
X98849059Y-68266676D02*
X98801439Y-68171438D01*
X98801439Y-68171438D02*
X98801439Y-67980962D01*
X98801439Y-67980962D02*
X98849059Y-67885724D01*
X98849059Y-67885724D02*
X98944297Y-67838105D01*
X98944297Y-67838105D02*
X99325249Y-67838105D01*
X99325249Y-67838105D02*
X99420487Y-67885724D01*
X99420487Y-67885724D02*
X99468106Y-67980962D01*
X99468106Y-67980962D02*
X99468106Y-68171438D01*
X99468106Y-68171438D02*
X99420487Y-68266676D01*
X99420487Y-68266676D02*
X99325249Y-68314295D01*
X99325249Y-68314295D02*
X99230011Y-68314295D01*
X99230011Y-68314295D02*
X99134773Y-67838105D01*
X98801439Y-68742867D02*
X99468106Y-68742867D01*
X99277630Y-68742867D02*
X99372868Y-68790486D01*
X99372868Y-68790486D02*
X99420487Y-68838105D01*
X99420487Y-68838105D02*
X99468106Y-68933343D01*
X99468106Y-68933343D02*
X99468106Y-69028581D01*
X140730180Y-93573262D02*
X140730180Y-94192309D01*
X140730180Y-94192309D02*
X140349228Y-93858976D01*
X140349228Y-93858976D02*
X140349228Y-94001833D01*
X140349228Y-94001833D02*
X140301609Y-94097071D01*
X140301609Y-94097071D02*
X140253990Y-94144690D01*
X140253990Y-94144690D02*
X140158752Y-94192309D01*
X140158752Y-94192309D02*
X139920657Y-94192309D01*
X139920657Y-94192309D02*
X139825419Y-94144690D01*
X139825419Y-94144690D02*
X139777800Y-94097071D01*
X139777800Y-94097071D02*
X139730180Y-94001833D01*
X139730180Y-94001833D02*
X139730180Y-93716119D01*
X139730180Y-93716119D02*
X139777800Y-93620881D01*
X139777800Y-93620881D02*
X139825419Y-93573262D01*
X140730180Y-94478024D02*
X139730180Y-94811357D01*
X139730180Y-94811357D02*
X140730180Y-95144690D01*
X82209553Y-63900015D02*
X82209553Y-64376205D01*
X81923838Y-63804777D02*
X82923838Y-64138110D01*
X82923838Y-64138110D02*
X81923838Y-64471443D01*
X82590505Y-65233348D02*
X81923838Y-65233348D01*
X82971458Y-64995253D02*
X82257172Y-64757158D01*
X82257172Y-64757158D02*
X82257172Y-65376205D01*
D13*
X60026912Y-39500828D02*
X60026912Y-38000828D01*
X60741198Y-39500828D02*
X60741198Y-38000828D01*
X60741198Y-38000828D02*
X61098341Y-38000828D01*
X61098341Y-38000828D02*
X61312627Y-38072257D01*
X61312627Y-38072257D02*
X61455484Y-38215114D01*
X61455484Y-38215114D02*
X61526913Y-38357971D01*
X61526913Y-38357971D02*
X61598341Y-38643685D01*
X61598341Y-38643685D02*
X61598341Y-38857971D01*
X61598341Y-38857971D02*
X61526913Y-39143685D01*
X61526913Y-39143685D02*
X61455484Y-39286542D01*
X61455484Y-39286542D02*
X61312627Y-39429400D01*
X61312627Y-39429400D02*
X61098341Y-39500828D01*
X61098341Y-39500828D02*
X60741198Y-39500828D01*
X62241198Y-39357971D02*
X62312627Y-39429400D01*
X62312627Y-39429400D02*
X62241198Y-39500828D01*
X62241198Y-39500828D02*
X62169770Y-39429400D01*
X62169770Y-39429400D02*
X62241198Y-39357971D01*
X62241198Y-39357971D02*
X62241198Y-39500828D01*
X62241198Y-38572257D02*
X62312627Y-38643685D01*
X62312627Y-38643685D02*
X62241198Y-38715114D01*
X62241198Y-38715114D02*
X62169770Y-38643685D01*
X62169770Y-38643685D02*
X62241198Y-38572257D01*
X62241198Y-38572257D02*
X62241198Y-38715114D01*
D12*
X82215895Y-60289160D02*
X82215895Y-60765350D01*
X81930180Y-60193922D02*
X82930180Y-60527255D01*
X82930180Y-60527255D02*
X81930180Y-60860588D01*
X82930180Y-61098684D02*
X82930180Y-61717731D01*
X82930180Y-61717731D02*
X82549228Y-61384398D01*
X82549228Y-61384398D02*
X82549228Y-61527255D01*
X82549228Y-61527255D02*
X82501609Y-61622493D01*
X82501609Y-61622493D02*
X82453990Y-61670112D01*
X82453990Y-61670112D02*
X82358752Y-61717731D01*
X82358752Y-61717731D02*
X82120657Y-61717731D01*
X82120657Y-61717731D02*
X82025419Y-61670112D01*
X82025419Y-61670112D02*
X81977800Y-61622493D01*
X81977800Y-61622493D02*
X81930180Y-61527255D01*
X81930180Y-61527255D02*
X81930180Y-61241541D01*
X81930180Y-61241541D02*
X81977800Y-61146303D01*
X81977800Y-61146303D02*
X82025419Y-61098684D01*
X68432200Y-108961324D02*
X68479819Y-108818467D01*
X68479819Y-108818467D02*
X68479819Y-108580372D01*
X68479819Y-108580372D02*
X68432200Y-108485134D01*
X68432200Y-108485134D02*
X68384580Y-108437515D01*
X68384580Y-108437515D02*
X68289342Y-108389896D01*
X68289342Y-108389896D02*
X68194104Y-108389896D01*
X68194104Y-108389896D02*
X68098866Y-108437515D01*
X68098866Y-108437515D02*
X68051247Y-108485134D01*
X68051247Y-108485134D02*
X68003628Y-108580372D01*
X68003628Y-108580372D02*
X67956009Y-108770848D01*
X67956009Y-108770848D02*
X67908390Y-108866086D01*
X67908390Y-108866086D02*
X67860771Y-108913705D01*
X67860771Y-108913705D02*
X67765533Y-108961324D01*
X67765533Y-108961324D02*
X67670295Y-108961324D01*
X67670295Y-108961324D02*
X67575057Y-108913705D01*
X67575057Y-108913705D02*
X67527438Y-108866086D01*
X67527438Y-108866086D02*
X67479819Y-108770848D01*
X67479819Y-108770848D02*
X67479819Y-108532753D01*
X67479819Y-108532753D02*
X67527438Y-108389896D01*
X68384580Y-107389896D02*
X68432200Y-107437515D01*
X68432200Y-107437515D02*
X68479819Y-107580372D01*
X68479819Y-107580372D02*
X68479819Y-107675610D01*
X68479819Y-107675610D02*
X68432200Y-107818467D01*
X68432200Y-107818467D02*
X68336961Y-107913705D01*
X68336961Y-107913705D02*
X68241723Y-107961324D01*
X68241723Y-107961324D02*
X68051247Y-108008943D01*
X68051247Y-108008943D02*
X67908390Y-108008943D01*
X67908390Y-108008943D02*
X67717914Y-107961324D01*
X67717914Y-107961324D02*
X67622676Y-107913705D01*
X67622676Y-107913705D02*
X67527438Y-107818467D01*
X67527438Y-107818467D02*
X67479819Y-107675610D01*
X67479819Y-107675610D02*
X67479819Y-107580372D01*
X67479819Y-107580372D02*
X67527438Y-107437515D01*
X67527438Y-107437515D02*
X67575057Y-107389896D01*
X68479819Y-106485134D02*
X68479819Y-106961324D01*
X68479819Y-106961324D02*
X67479819Y-106961324D01*
X64630112Y-103246494D02*
X64772969Y-103294113D01*
X64772969Y-103294113D02*
X64820588Y-103341732D01*
X64820588Y-103341732D02*
X64868207Y-103436970D01*
X64868207Y-103436970D02*
X64868207Y-103579827D01*
X64868207Y-103579827D02*
X64820588Y-103675065D01*
X64820588Y-103675065D02*
X64772969Y-103722685D01*
X64772969Y-103722685D02*
X64677731Y-103770304D01*
X64677731Y-103770304D02*
X64296779Y-103770304D01*
X64296779Y-103770304D02*
X64296779Y-102770304D01*
X64296779Y-102770304D02*
X64630112Y-102770304D01*
X64630112Y-102770304D02*
X64725350Y-102817923D01*
X64725350Y-102817923D02*
X64772969Y-102865542D01*
X64772969Y-102865542D02*
X64820588Y-102960780D01*
X64820588Y-102960780D02*
X64820588Y-103056018D01*
X64820588Y-103056018D02*
X64772969Y-103151256D01*
X64772969Y-103151256D02*
X64725350Y-103198875D01*
X64725350Y-103198875D02*
X64630112Y-103246494D01*
X64630112Y-103246494D02*
X64296779Y-103246494D01*
X65296779Y-103770304D02*
X65296779Y-102770304D01*
X65296779Y-102770304D02*
X65868207Y-103770304D01*
X65868207Y-103770304D02*
X65868207Y-102770304D01*
X66534874Y-102770304D02*
X66725350Y-102770304D01*
X66725350Y-102770304D02*
X66820588Y-102817923D01*
X66820588Y-102817923D02*
X66915826Y-102913161D01*
X66915826Y-102913161D02*
X66963445Y-103103637D01*
X66963445Y-103103637D02*
X66963445Y-103436970D01*
X66963445Y-103436970D02*
X66915826Y-103627446D01*
X66915826Y-103627446D02*
X66820588Y-103722685D01*
X66820588Y-103722685D02*
X66725350Y-103770304D01*
X66725350Y-103770304D02*
X66534874Y-103770304D01*
X66534874Y-103770304D02*
X66439636Y-103722685D01*
X66439636Y-103722685D02*
X66344398Y-103627446D01*
X66344398Y-103627446D02*
X66296779Y-103436970D01*
X66296779Y-103436970D02*
X66296779Y-103103637D01*
X66296779Y-103103637D02*
X66344398Y-102913161D01*
X66344398Y-102913161D02*
X66439636Y-102817923D01*
X66439636Y-102817923D02*
X66534874Y-102770304D01*
X67582493Y-102770304D02*
X67677731Y-102770304D01*
X67677731Y-102770304D02*
X67772969Y-102817923D01*
X67772969Y-102817923D02*
X67820588Y-102865542D01*
X67820588Y-102865542D02*
X67868207Y-102960780D01*
X67868207Y-102960780D02*
X67915826Y-103151256D01*
X67915826Y-103151256D02*
X67915826Y-103389351D01*
X67915826Y-103389351D02*
X67868207Y-103579827D01*
X67868207Y-103579827D02*
X67820588Y-103675065D01*
X67820588Y-103675065D02*
X67772969Y-103722685D01*
X67772969Y-103722685D02*
X67677731Y-103770304D01*
X67677731Y-103770304D02*
X67582493Y-103770304D01*
X67582493Y-103770304D02*
X67487255Y-103722685D01*
X67487255Y-103722685D02*
X67439636Y-103675065D01*
X67439636Y-103675065D02*
X67392017Y-103579827D01*
X67392017Y-103579827D02*
X67344398Y-103389351D01*
X67344398Y-103389351D02*
X67344398Y-103151256D01*
X67344398Y-103151256D02*
X67392017Y-102960780D01*
X67392017Y-102960780D02*
X67439636Y-102865542D01*
X67439636Y-102865542D02*
X67487255Y-102817923D01*
X67487255Y-102817923D02*
X67582493Y-102770304D01*
X68820588Y-102770304D02*
X68344398Y-102770304D01*
X68344398Y-102770304D02*
X68296779Y-103246494D01*
X68296779Y-103246494D02*
X68344398Y-103198875D01*
X68344398Y-103198875D02*
X68439636Y-103151256D01*
X68439636Y-103151256D02*
X68677731Y-103151256D01*
X68677731Y-103151256D02*
X68772969Y-103198875D01*
X68772969Y-103198875D02*
X68820588Y-103246494D01*
X68820588Y-103246494D02*
X68868207Y-103341732D01*
X68868207Y-103341732D02*
X68868207Y-103579827D01*
X68868207Y-103579827D02*
X68820588Y-103675065D01*
X68820588Y-103675065D02*
X68772969Y-103722685D01*
X68772969Y-103722685D02*
X68677731Y-103770304D01*
X68677731Y-103770304D02*
X68439636Y-103770304D01*
X68439636Y-103770304D02*
X68344398Y-103722685D01*
X68344398Y-103722685D02*
X68296779Y-103675065D01*
X69772969Y-102770304D02*
X69296779Y-102770304D01*
X69296779Y-102770304D02*
X69249160Y-103246494D01*
X69249160Y-103246494D02*
X69296779Y-103198875D01*
X69296779Y-103198875D02*
X69392017Y-103151256D01*
X69392017Y-103151256D02*
X69630112Y-103151256D01*
X69630112Y-103151256D02*
X69725350Y-103198875D01*
X69725350Y-103198875D02*
X69772969Y-103246494D01*
X69772969Y-103246494D02*
X69820588Y-103341732D01*
X69820588Y-103341732D02*
X69820588Y-103579827D01*
X69820588Y-103579827D02*
X69772969Y-103675065D01*
X69772969Y-103675065D02*
X69725350Y-103722685D01*
X69725350Y-103722685D02*
X69630112Y-103770304D01*
X69630112Y-103770304D02*
X69392017Y-103770304D01*
X69392017Y-103770304D02*
X69296779Y-103722685D01*
X69296779Y-103722685D02*
X69249160Y-103675065D01*
X65077438Y-108489896D02*
X65029819Y-108585134D01*
X65029819Y-108585134D02*
X65029819Y-108727991D01*
X65029819Y-108727991D02*
X65077438Y-108870848D01*
X65077438Y-108870848D02*
X65172676Y-108966086D01*
X65172676Y-108966086D02*
X65267914Y-109013705D01*
X65267914Y-109013705D02*
X65458390Y-109061324D01*
X65458390Y-109061324D02*
X65601247Y-109061324D01*
X65601247Y-109061324D02*
X65791723Y-109013705D01*
X65791723Y-109013705D02*
X65886961Y-108966086D01*
X65886961Y-108966086D02*
X65982200Y-108870848D01*
X65982200Y-108870848D02*
X66029819Y-108727991D01*
X66029819Y-108727991D02*
X66029819Y-108632753D01*
X66029819Y-108632753D02*
X65982200Y-108489896D01*
X65982200Y-108489896D02*
X65934580Y-108442277D01*
X65934580Y-108442277D02*
X65601247Y-108442277D01*
X65601247Y-108442277D02*
X65601247Y-108632753D01*
X66029819Y-108013705D02*
X65029819Y-108013705D01*
X65029819Y-108013705D02*
X66029819Y-107442277D01*
X66029819Y-107442277D02*
X65029819Y-107442277D01*
X66029819Y-106966086D02*
X65029819Y-106966086D01*
X65029819Y-106966086D02*
X65029819Y-106727991D01*
X65029819Y-106727991D02*
X65077438Y-106585134D01*
X65077438Y-106585134D02*
X65172676Y-106489896D01*
X65172676Y-106489896D02*
X65267914Y-106442277D01*
X65267914Y-106442277D02*
X65458390Y-106394658D01*
X65458390Y-106394658D02*
X65601247Y-106394658D01*
X65601247Y-106394658D02*
X65791723Y-106442277D01*
X65791723Y-106442277D02*
X65886961Y-106489896D01*
X65886961Y-106489896D02*
X65982200Y-106585134D01*
X65982200Y-106585134D02*
X66029819Y-106727991D01*
X66029819Y-106727991D02*
X66029819Y-106966086D01*
X68779819Y-99863705D02*
X67779819Y-99863705D01*
X67779819Y-99863705D02*
X67779819Y-99482753D01*
X67779819Y-99482753D02*
X67827438Y-99387515D01*
X67827438Y-99387515D02*
X67875057Y-99339896D01*
X67875057Y-99339896D02*
X67970295Y-99292277D01*
X67970295Y-99292277D02*
X68113152Y-99292277D01*
X68113152Y-99292277D02*
X68208390Y-99339896D01*
X68208390Y-99339896D02*
X68256009Y-99387515D01*
X68256009Y-99387515D02*
X68303628Y-99482753D01*
X68303628Y-99482753D02*
X68303628Y-99863705D01*
X68732200Y-98911324D02*
X68779819Y-98768467D01*
X68779819Y-98768467D02*
X68779819Y-98530372D01*
X68779819Y-98530372D02*
X68732200Y-98435134D01*
X68732200Y-98435134D02*
X68684580Y-98387515D01*
X68684580Y-98387515D02*
X68589342Y-98339896D01*
X68589342Y-98339896D02*
X68494104Y-98339896D01*
X68494104Y-98339896D02*
X68398866Y-98387515D01*
X68398866Y-98387515D02*
X68351247Y-98435134D01*
X68351247Y-98435134D02*
X68303628Y-98530372D01*
X68303628Y-98530372D02*
X68256009Y-98720848D01*
X68256009Y-98720848D02*
X68208390Y-98816086D01*
X68208390Y-98816086D02*
X68160771Y-98863705D01*
X68160771Y-98863705D02*
X68065533Y-98911324D01*
X68065533Y-98911324D02*
X67970295Y-98911324D01*
X67970295Y-98911324D02*
X67875057Y-98863705D01*
X67875057Y-98863705D02*
X67827438Y-98816086D01*
X67827438Y-98816086D02*
X67779819Y-98720848D01*
X67779819Y-98720848D02*
X67779819Y-98482753D01*
X67779819Y-98482753D02*
X67827438Y-98339896D01*
X67779819Y-97720848D02*
X67779819Y-97625610D01*
X67779819Y-97625610D02*
X67827438Y-97530372D01*
X67827438Y-97530372D02*
X67875057Y-97482753D01*
X67875057Y-97482753D02*
X67970295Y-97435134D01*
X67970295Y-97435134D02*
X68160771Y-97387515D01*
X68160771Y-97387515D02*
X68398866Y-97387515D01*
X68398866Y-97387515D02*
X68589342Y-97435134D01*
X68589342Y-97435134D02*
X68684580Y-97482753D01*
X68684580Y-97482753D02*
X68732200Y-97530372D01*
X68732200Y-97530372D02*
X68779819Y-97625610D01*
X68779819Y-97625610D02*
X68779819Y-97720848D01*
X68779819Y-97720848D02*
X68732200Y-97816086D01*
X68732200Y-97816086D02*
X68684580Y-97863705D01*
X68684580Y-97863705D02*
X68589342Y-97911324D01*
X68589342Y-97911324D02*
X68398866Y-97958943D01*
X68398866Y-97958943D02*
X68160771Y-97958943D01*
X68160771Y-97958943D02*
X67970295Y-97911324D01*
X67970295Y-97911324D02*
X67875057Y-97863705D01*
X67875057Y-97863705D02*
X67827438Y-97816086D01*
X67827438Y-97816086D02*
X67779819Y-97720848D01*
X60079819Y-109056562D02*
X61079819Y-108723229D01*
X61079819Y-108723229D02*
X60079819Y-108389896D01*
X61079819Y-108056562D02*
X60079819Y-108056562D01*
X61079819Y-107580372D02*
X60079819Y-107580372D01*
X60079819Y-107580372D02*
X61079819Y-107008944D01*
X61079819Y-107008944D02*
X60079819Y-107008944D01*
X73679819Y-108342277D02*
X73203628Y-108675610D01*
X73679819Y-108913705D02*
X72679819Y-108913705D01*
X72679819Y-108913705D02*
X72679819Y-108532753D01*
X72679819Y-108532753D02*
X72727438Y-108437515D01*
X72727438Y-108437515D02*
X72775057Y-108389896D01*
X72775057Y-108389896D02*
X72870295Y-108342277D01*
X72870295Y-108342277D02*
X73013152Y-108342277D01*
X73013152Y-108342277D02*
X73108390Y-108389896D01*
X73108390Y-108389896D02*
X73156009Y-108437515D01*
X73156009Y-108437515D02*
X73203628Y-108532753D01*
X73203628Y-108532753D02*
X73203628Y-108913705D01*
X73632200Y-107961324D02*
X73679819Y-107818467D01*
X73679819Y-107818467D02*
X73679819Y-107580372D01*
X73679819Y-107580372D02*
X73632200Y-107485134D01*
X73632200Y-107485134D02*
X73584580Y-107437515D01*
X73584580Y-107437515D02*
X73489342Y-107389896D01*
X73489342Y-107389896D02*
X73394104Y-107389896D01*
X73394104Y-107389896D02*
X73298866Y-107437515D01*
X73298866Y-107437515D02*
X73251247Y-107485134D01*
X73251247Y-107485134D02*
X73203628Y-107580372D01*
X73203628Y-107580372D02*
X73156009Y-107770848D01*
X73156009Y-107770848D02*
X73108390Y-107866086D01*
X73108390Y-107866086D02*
X73060771Y-107913705D01*
X73060771Y-107913705D02*
X72965533Y-107961324D01*
X72965533Y-107961324D02*
X72870295Y-107961324D01*
X72870295Y-107961324D02*
X72775057Y-107913705D01*
X72775057Y-107913705D02*
X72727438Y-107866086D01*
X72727438Y-107866086D02*
X72679819Y-107770848D01*
X72679819Y-107770848D02*
X72679819Y-107532753D01*
X72679819Y-107532753D02*
X72727438Y-107389896D01*
X72679819Y-107104181D02*
X72679819Y-106532753D01*
X73679819Y-106818467D02*
X72679819Y-106818467D01*
X71032200Y-108961324D02*
X71079819Y-108818467D01*
X71079819Y-108818467D02*
X71079819Y-108580372D01*
X71079819Y-108580372D02*
X71032200Y-108485134D01*
X71032200Y-108485134D02*
X70984580Y-108437515D01*
X70984580Y-108437515D02*
X70889342Y-108389896D01*
X70889342Y-108389896D02*
X70794104Y-108389896D01*
X70794104Y-108389896D02*
X70698866Y-108437515D01*
X70698866Y-108437515D02*
X70651247Y-108485134D01*
X70651247Y-108485134D02*
X70603628Y-108580372D01*
X70603628Y-108580372D02*
X70556009Y-108770848D01*
X70556009Y-108770848D02*
X70508390Y-108866086D01*
X70508390Y-108866086D02*
X70460771Y-108913705D01*
X70460771Y-108913705D02*
X70365533Y-108961324D01*
X70365533Y-108961324D02*
X70270295Y-108961324D01*
X70270295Y-108961324D02*
X70175057Y-108913705D01*
X70175057Y-108913705D02*
X70127438Y-108866086D01*
X70127438Y-108866086D02*
X70079819Y-108770848D01*
X70079819Y-108770848D02*
X70079819Y-108532753D01*
X70079819Y-108532753D02*
X70127438Y-108389896D01*
X71079819Y-107961324D02*
X70079819Y-107961324D01*
X70079819Y-107961324D02*
X70079819Y-107723229D01*
X70079819Y-107723229D02*
X70127438Y-107580372D01*
X70127438Y-107580372D02*
X70222676Y-107485134D01*
X70222676Y-107485134D02*
X70317914Y-107437515D01*
X70317914Y-107437515D02*
X70508390Y-107389896D01*
X70508390Y-107389896D02*
X70651247Y-107389896D01*
X70651247Y-107389896D02*
X70841723Y-107437515D01*
X70841723Y-107437515D02*
X70936961Y-107485134D01*
X70936961Y-107485134D02*
X71032200Y-107580372D01*
X71032200Y-107580372D02*
X71079819Y-107723229D01*
X71079819Y-107723229D02*
X71079819Y-107961324D01*
X70794104Y-107008943D02*
X70794104Y-106532753D01*
X71079819Y-107104181D02*
X70079819Y-106770848D01*
X70079819Y-106770848D02*
X71079819Y-106437515D01*
X65944104Y-99861324D02*
X65944104Y-99385134D01*
X66229819Y-99956562D02*
X65229819Y-99623229D01*
X65229819Y-99623229D02*
X66229819Y-99289896D01*
X66229819Y-98956562D02*
X65229819Y-98956562D01*
X65229819Y-98956562D02*
X65229819Y-98718467D01*
X65229819Y-98718467D02*
X65277438Y-98575610D01*
X65277438Y-98575610D02*
X65372676Y-98480372D01*
X65372676Y-98480372D02*
X65467914Y-98432753D01*
X65467914Y-98432753D02*
X65658390Y-98385134D01*
X65658390Y-98385134D02*
X65801247Y-98385134D01*
X65801247Y-98385134D02*
X65991723Y-98432753D01*
X65991723Y-98432753D02*
X66086961Y-98480372D01*
X66086961Y-98480372D02*
X66182200Y-98575610D01*
X66182200Y-98575610D02*
X66229819Y-98718467D01*
X66229819Y-98718467D02*
X66229819Y-98956562D01*
X66229819Y-97385134D02*
X65753628Y-97718467D01*
X66229819Y-97956562D02*
X65229819Y-97956562D01*
X65229819Y-97956562D02*
X65229819Y-97575610D01*
X65229819Y-97575610D02*
X65277438Y-97480372D01*
X65277438Y-97480372D02*
X65325057Y-97432753D01*
X65325057Y-97432753D02*
X65420295Y-97385134D01*
X65420295Y-97385134D02*
X65563152Y-97385134D01*
X65563152Y-97385134D02*
X65658390Y-97432753D01*
X65658390Y-97432753D02*
X65706009Y-97480372D01*
X65706009Y-97480372D02*
X65753628Y-97575610D01*
X65753628Y-97575610D02*
X65753628Y-97956562D01*
X63629819Y-99263705D02*
X62629819Y-99263705D01*
X63629819Y-98787515D02*
X62629819Y-98787515D01*
X62629819Y-98787515D02*
X63629819Y-98216087D01*
X63629819Y-98216087D02*
X62629819Y-98216087D01*
X62629819Y-97882753D02*
X62629819Y-97311325D01*
X63629819Y-97597039D02*
X62629819Y-97597039D01*
X62579819Y-109008943D02*
X62579819Y-108389896D01*
X62579819Y-108389896D02*
X62960771Y-108723229D01*
X62960771Y-108723229D02*
X62960771Y-108580372D01*
X62960771Y-108580372D02*
X63008390Y-108485134D01*
X63008390Y-108485134D02*
X63056009Y-108437515D01*
X63056009Y-108437515D02*
X63151247Y-108389896D01*
X63151247Y-108389896D02*
X63389342Y-108389896D01*
X63389342Y-108389896D02*
X63484580Y-108437515D01*
X63484580Y-108437515D02*
X63532200Y-108485134D01*
X63532200Y-108485134D02*
X63579819Y-108580372D01*
X63579819Y-108580372D02*
X63579819Y-108866086D01*
X63579819Y-108866086D02*
X63532200Y-108961324D01*
X63532200Y-108961324D02*
X63484580Y-109008943D01*
X62579819Y-108104181D02*
X63579819Y-107770848D01*
X63579819Y-107770848D02*
X62579819Y-107437515D01*
X71179819Y-99863705D02*
X70179819Y-99863705D01*
X70179819Y-99863705D02*
X70179819Y-99482753D01*
X70179819Y-99482753D02*
X70227438Y-99387515D01*
X70227438Y-99387515D02*
X70275057Y-99339896D01*
X70275057Y-99339896D02*
X70370295Y-99292277D01*
X70370295Y-99292277D02*
X70513152Y-99292277D01*
X70513152Y-99292277D02*
X70608390Y-99339896D01*
X70608390Y-99339896D02*
X70656009Y-99387515D01*
X70656009Y-99387515D02*
X70703628Y-99482753D01*
X70703628Y-99482753D02*
X70703628Y-99863705D01*
X71132200Y-98911324D02*
X71179819Y-98768467D01*
X71179819Y-98768467D02*
X71179819Y-98530372D01*
X71179819Y-98530372D02*
X71132200Y-98435134D01*
X71132200Y-98435134D02*
X71084580Y-98387515D01*
X71084580Y-98387515D02*
X70989342Y-98339896D01*
X70989342Y-98339896D02*
X70894104Y-98339896D01*
X70894104Y-98339896D02*
X70798866Y-98387515D01*
X70798866Y-98387515D02*
X70751247Y-98435134D01*
X70751247Y-98435134D02*
X70703628Y-98530372D01*
X70703628Y-98530372D02*
X70656009Y-98720848D01*
X70656009Y-98720848D02*
X70608390Y-98816086D01*
X70608390Y-98816086D02*
X70560771Y-98863705D01*
X70560771Y-98863705D02*
X70465533Y-98911324D01*
X70465533Y-98911324D02*
X70370295Y-98911324D01*
X70370295Y-98911324D02*
X70275057Y-98863705D01*
X70275057Y-98863705D02*
X70227438Y-98816086D01*
X70227438Y-98816086D02*
X70179819Y-98720848D01*
X70179819Y-98720848D02*
X70179819Y-98482753D01*
X70179819Y-98482753D02*
X70227438Y-98339896D01*
X71179819Y-97387515D02*
X71179819Y-97958943D01*
X71179819Y-97673229D02*
X70179819Y-97673229D01*
X70179819Y-97673229D02*
X70322676Y-97768467D01*
X70322676Y-97768467D02*
X70417914Y-97863705D01*
X70417914Y-97863705D02*
X70465533Y-97958943D01*
X119778838Y-42354819D02*
X119445505Y-41878628D01*
X119207410Y-42354819D02*
X119207410Y-41354819D01*
X119207410Y-41354819D02*
X119588362Y-41354819D01*
X119588362Y-41354819D02*
X119683600Y-41402438D01*
X119683600Y-41402438D02*
X119731219Y-41450057D01*
X119731219Y-41450057D02*
X119778838Y-41545295D01*
X119778838Y-41545295D02*
X119778838Y-41688152D01*
X119778838Y-41688152D02*
X119731219Y-41783390D01*
X119731219Y-41783390D02*
X119683600Y-41831009D01*
X119683600Y-41831009D02*
X119588362Y-41878628D01*
X119588362Y-41878628D02*
X119207410Y-41878628D01*
X120635981Y-41688152D02*
X120635981Y-42354819D01*
X120397886Y-41307200D02*
X120159791Y-42021485D01*
X120159791Y-42021485D02*
X120778838Y-42021485D01*
D11*
X104860024Y-63708142D02*
X104907643Y-63660523D01*
X104907643Y-63660523D02*
X105002881Y-63612904D01*
X105002881Y-63612904D02*
X105240976Y-63612904D01*
X105240976Y-63612904D02*
X105336214Y-63660523D01*
X105336214Y-63660523D02*
X105383833Y-63708142D01*
X105383833Y-63708142D02*
X105431452Y-63803380D01*
X105431452Y-63803380D02*
X105431452Y-63898618D01*
X105431452Y-63898618D02*
X105383833Y-64041475D01*
X105383833Y-64041475D02*
X104812405Y-64612904D01*
X104812405Y-64612904D02*
X105431452Y-64612904D01*
X105764786Y-63612904D02*
X106431452Y-63612904D01*
X106431452Y-63612904D02*
X106002881Y-64612904D01*
X91360024Y-59227189D02*
X91836214Y-59227189D01*
X91264786Y-59512904D02*
X91598119Y-58512904D01*
X91598119Y-58512904D02*
X91931452Y-59512904D01*
X92169548Y-58512904D02*
X92788595Y-58512904D01*
X92788595Y-58512904D02*
X92455262Y-58893856D01*
X92455262Y-58893856D02*
X92598119Y-58893856D01*
X92598119Y-58893856D02*
X92693357Y-58941475D01*
X92693357Y-58941475D02*
X92740976Y-58989094D01*
X92740976Y-58989094D02*
X92788595Y-59084332D01*
X92788595Y-59084332D02*
X92788595Y-59322427D01*
X92788595Y-59322427D02*
X92740976Y-59417665D01*
X92740976Y-59417665D02*
X92693357Y-59465285D01*
X92693357Y-59465285D02*
X92598119Y-59512904D01*
X92598119Y-59512904D02*
X92312405Y-59512904D01*
X92312405Y-59512904D02*
X92217167Y-59465285D01*
X92217167Y-59465285D02*
X92169548Y-59417665D01*
X91507643Y-46812904D02*
X91507643Y-45812904D01*
X91507643Y-45812904D02*
X92079071Y-46812904D01*
X92079071Y-46812904D02*
X92079071Y-45812904D01*
X92412405Y-45812904D02*
X92745738Y-46812904D01*
X92745738Y-46812904D02*
X93079071Y-45812904D01*
X104860024Y-79765285D02*
X105002881Y-79812904D01*
X105002881Y-79812904D02*
X105240976Y-79812904D01*
X105240976Y-79812904D02*
X105336214Y-79765285D01*
X105336214Y-79765285D02*
X105383833Y-79717665D01*
X105383833Y-79717665D02*
X105431452Y-79622427D01*
X105431452Y-79622427D02*
X105431452Y-79527189D01*
X105431452Y-79527189D02*
X105383833Y-79431951D01*
X105383833Y-79431951D02*
X105336214Y-79384332D01*
X105336214Y-79384332D02*
X105240976Y-79336713D01*
X105240976Y-79336713D02*
X105050500Y-79289094D01*
X105050500Y-79289094D02*
X104955262Y-79241475D01*
X104955262Y-79241475D02*
X104907643Y-79193856D01*
X104907643Y-79193856D02*
X104860024Y-79098618D01*
X104860024Y-79098618D02*
X104860024Y-79003380D01*
X104860024Y-79003380D02*
X104907643Y-78908142D01*
X104907643Y-78908142D02*
X104955262Y-78860523D01*
X104955262Y-78860523D02*
X105050500Y-78812904D01*
X105050500Y-78812904D02*
X105288595Y-78812904D01*
X105288595Y-78812904D02*
X105431452Y-78860523D01*
X105860024Y-79812904D02*
X105860024Y-78812904D01*
X105860024Y-78812904D02*
X106098119Y-78812904D01*
X106098119Y-78812904D02*
X106240976Y-78860523D01*
X106240976Y-78860523D02*
X106336214Y-78955761D01*
X106336214Y-78955761D02*
X106383833Y-79050999D01*
X106383833Y-79050999D02*
X106431452Y-79241475D01*
X106431452Y-79241475D02*
X106431452Y-79384332D01*
X106431452Y-79384332D02*
X106383833Y-79574808D01*
X106383833Y-79574808D02*
X106336214Y-79670046D01*
X106336214Y-79670046D02*
X106240976Y-79765285D01*
X106240976Y-79765285D02*
X106098119Y-79812904D01*
X106098119Y-79812904D02*
X105860024Y-79812904D01*
X106812405Y-79527189D02*
X107288595Y-79527189D01*
X106717167Y-79812904D02*
X107050500Y-78812904D01*
X107050500Y-78812904D02*
X107383833Y-79812904D01*
X91360024Y-78908142D02*
X91407643Y-78860523D01*
X91407643Y-78860523D02*
X91502881Y-78812904D01*
X91502881Y-78812904D02*
X91740976Y-78812904D01*
X91740976Y-78812904D02*
X91836214Y-78860523D01*
X91836214Y-78860523D02*
X91883833Y-78908142D01*
X91883833Y-78908142D02*
X91931452Y-79003380D01*
X91931452Y-79003380D02*
X91931452Y-79098618D01*
X91931452Y-79098618D02*
X91883833Y-79241475D01*
X91883833Y-79241475D02*
X91312405Y-79812904D01*
X91312405Y-79812904D02*
X91931452Y-79812904D01*
X92883833Y-79812904D02*
X92312405Y-79812904D01*
X92598119Y-79812904D02*
X92598119Y-78812904D01*
X92598119Y-78812904D02*
X92502881Y-78955761D01*
X92502881Y-78955761D02*
X92407643Y-79050999D01*
X92407643Y-79050999D02*
X92312405Y-79098618D01*
X105431452Y-69612904D02*
X104860024Y-69612904D01*
X105145738Y-69612904D02*
X105145738Y-68612904D01*
X105145738Y-68612904D02*
X105050500Y-68755761D01*
X105050500Y-68755761D02*
X104955262Y-68850999D01*
X104955262Y-68850999D02*
X104860024Y-68898618D01*
X106336214Y-68612904D02*
X105860024Y-68612904D01*
X105860024Y-68612904D02*
X105812405Y-69089094D01*
X105812405Y-69089094D02*
X105860024Y-69041475D01*
X105860024Y-69041475D02*
X105955262Y-68993856D01*
X105955262Y-68993856D02*
X106193357Y-68993856D01*
X106193357Y-68993856D02*
X106288595Y-69041475D01*
X106288595Y-69041475D02*
X106336214Y-69089094D01*
X106336214Y-69089094D02*
X106383833Y-69184332D01*
X106383833Y-69184332D02*
X106383833Y-69422427D01*
X106383833Y-69422427D02*
X106336214Y-69517665D01*
X106336214Y-69517665D02*
X106288595Y-69565285D01*
X106288595Y-69565285D02*
X106193357Y-69612904D01*
X106193357Y-69612904D02*
X105955262Y-69612904D01*
X105955262Y-69612904D02*
X105860024Y-69565285D01*
X105860024Y-69565285D02*
X105812405Y-69517665D01*
X91360024Y-54127189D02*
X91836214Y-54127189D01*
X91264786Y-54412904D02*
X91598119Y-53412904D01*
X91598119Y-53412904D02*
X91931452Y-54412904D01*
X92788595Y-54412904D02*
X92217167Y-54412904D01*
X92502881Y-54412904D02*
X92502881Y-53412904D01*
X92502881Y-53412904D02*
X92407643Y-53555761D01*
X92407643Y-53555761D02*
X92312405Y-53650999D01*
X92312405Y-53650999D02*
X92217167Y-53698618D01*
X91407643Y-72212904D02*
X91407643Y-71212904D01*
X91407643Y-71212904D02*
X91740976Y-71927189D01*
X91740976Y-71927189D02*
X92074309Y-71212904D01*
X92074309Y-71212904D02*
X92074309Y-72212904D01*
X92550500Y-72212904D02*
X92550500Y-71212904D01*
X91979071Y-74712904D02*
X91645738Y-74236713D01*
X91407643Y-74712904D02*
X91407643Y-73712904D01*
X91407643Y-73712904D02*
X91788595Y-73712904D01*
X91788595Y-73712904D02*
X91883833Y-73760523D01*
X91883833Y-73760523D02*
X91931452Y-73808142D01*
X91931452Y-73808142D02*
X91979071Y-73903380D01*
X91979071Y-73903380D02*
X91979071Y-74046237D01*
X91979071Y-74046237D02*
X91931452Y-74141475D01*
X91931452Y-74141475D02*
X91883833Y-74189094D01*
X91883833Y-74189094D02*
X91788595Y-74236713D01*
X91788595Y-74236713D02*
X91407643Y-74236713D01*
X92312405Y-73712904D02*
X92979071Y-74712904D01*
X92979071Y-73712904D02*
X92312405Y-74712904D01*
X91360024Y-51627189D02*
X91836214Y-51627189D01*
X91264786Y-51912904D02*
X91598119Y-50912904D01*
X91598119Y-50912904D02*
X91931452Y-51912904D01*
X92455262Y-50912904D02*
X92550500Y-50912904D01*
X92550500Y-50912904D02*
X92645738Y-50960523D01*
X92645738Y-50960523D02*
X92693357Y-51008142D01*
X92693357Y-51008142D02*
X92740976Y-51103380D01*
X92740976Y-51103380D02*
X92788595Y-51293856D01*
X92788595Y-51293856D02*
X92788595Y-51531951D01*
X92788595Y-51531951D02*
X92740976Y-51722427D01*
X92740976Y-51722427D02*
X92693357Y-51817665D01*
X92693357Y-51817665D02*
X92645738Y-51865285D01*
X92645738Y-51865285D02*
X92550500Y-51912904D01*
X92550500Y-51912904D02*
X92455262Y-51912904D01*
X92455262Y-51912904D02*
X92360024Y-51865285D01*
X92360024Y-51865285D02*
X92312405Y-51817665D01*
X92312405Y-51817665D02*
X92264786Y-51722427D01*
X92264786Y-51722427D02*
X92217167Y-51531951D01*
X92217167Y-51531951D02*
X92217167Y-51293856D01*
X92217167Y-51293856D02*
X92264786Y-51103380D01*
X92264786Y-51103380D02*
X92312405Y-51008142D01*
X92312405Y-51008142D02*
X92360024Y-50960523D01*
X92360024Y-50960523D02*
X92455262Y-50912904D01*
X105240976Y-51389094D02*
X105383833Y-51436713D01*
X105383833Y-51436713D02*
X105431452Y-51484332D01*
X105431452Y-51484332D02*
X105479071Y-51579570D01*
X105479071Y-51579570D02*
X105479071Y-51722427D01*
X105479071Y-51722427D02*
X105431452Y-51817665D01*
X105431452Y-51817665D02*
X105383833Y-51865285D01*
X105383833Y-51865285D02*
X105288595Y-51912904D01*
X105288595Y-51912904D02*
X104907643Y-51912904D01*
X104907643Y-51912904D02*
X104907643Y-50912904D01*
X104907643Y-50912904D02*
X105240976Y-50912904D01*
X105240976Y-50912904D02*
X105336214Y-50960523D01*
X105336214Y-50960523D02*
X105383833Y-51008142D01*
X105383833Y-51008142D02*
X105431452Y-51103380D01*
X105431452Y-51103380D02*
X105431452Y-51198618D01*
X105431452Y-51198618D02*
X105383833Y-51293856D01*
X105383833Y-51293856D02*
X105336214Y-51341475D01*
X105336214Y-51341475D02*
X105240976Y-51389094D01*
X105240976Y-51389094D02*
X104907643Y-51389094D01*
X105860024Y-51627189D02*
X106336214Y-51627189D01*
X105764786Y-51912904D02*
X106098119Y-50912904D01*
X106098119Y-50912904D02*
X106431452Y-51912904D01*
X106621929Y-50912904D02*
X107193357Y-50912904D01*
X106907643Y-51912904D02*
X106907643Y-50912904D01*
X91360024Y-56627189D02*
X91836214Y-56627189D01*
X91264786Y-56912904D02*
X91598119Y-55912904D01*
X91598119Y-55912904D02*
X91931452Y-56912904D01*
X92217167Y-56008142D02*
X92264786Y-55960523D01*
X92264786Y-55960523D02*
X92360024Y-55912904D01*
X92360024Y-55912904D02*
X92598119Y-55912904D01*
X92598119Y-55912904D02*
X92693357Y-55960523D01*
X92693357Y-55960523D02*
X92740976Y-56008142D01*
X92740976Y-56008142D02*
X92788595Y-56103380D01*
X92788595Y-56103380D02*
X92788595Y-56198618D01*
X92788595Y-56198618D02*
X92740976Y-56341475D01*
X92740976Y-56341475D02*
X92169548Y-56912904D01*
X92169548Y-56912904D02*
X92788595Y-56912904D01*
X105431452Y-74712904D02*
X104860024Y-74712904D01*
X105145738Y-74712904D02*
X105145738Y-73712904D01*
X105145738Y-73712904D02*
X105050500Y-73855761D01*
X105050500Y-73855761D02*
X104955262Y-73950999D01*
X104955262Y-73950999D02*
X104860024Y-73998618D01*
X106288595Y-74046237D02*
X106288595Y-74712904D01*
X106050500Y-73665285D02*
X105812405Y-74379570D01*
X105812405Y-74379570D02*
X106431452Y-74379570D01*
X104860024Y-77165285D02*
X105002881Y-77212904D01*
X105002881Y-77212904D02*
X105240976Y-77212904D01*
X105240976Y-77212904D02*
X105336214Y-77165285D01*
X105336214Y-77165285D02*
X105383833Y-77117665D01*
X105383833Y-77117665D02*
X105431452Y-77022427D01*
X105431452Y-77022427D02*
X105431452Y-76927189D01*
X105431452Y-76927189D02*
X105383833Y-76831951D01*
X105383833Y-76831951D02*
X105336214Y-76784332D01*
X105336214Y-76784332D02*
X105240976Y-76736713D01*
X105240976Y-76736713D02*
X105050500Y-76689094D01*
X105050500Y-76689094D02*
X104955262Y-76641475D01*
X104955262Y-76641475D02*
X104907643Y-76593856D01*
X104907643Y-76593856D02*
X104860024Y-76498618D01*
X104860024Y-76498618D02*
X104860024Y-76403380D01*
X104860024Y-76403380D02*
X104907643Y-76308142D01*
X104907643Y-76308142D02*
X104955262Y-76260523D01*
X104955262Y-76260523D02*
X105050500Y-76212904D01*
X105050500Y-76212904D02*
X105288595Y-76212904D01*
X105288595Y-76212904D02*
X105431452Y-76260523D01*
X106431452Y-77117665D02*
X106383833Y-77165285D01*
X106383833Y-77165285D02*
X106240976Y-77212904D01*
X106240976Y-77212904D02*
X106145738Y-77212904D01*
X106145738Y-77212904D02*
X106002881Y-77165285D01*
X106002881Y-77165285D02*
X105907643Y-77070046D01*
X105907643Y-77070046D02*
X105860024Y-76974808D01*
X105860024Y-76974808D02*
X105812405Y-76784332D01*
X105812405Y-76784332D02*
X105812405Y-76641475D01*
X105812405Y-76641475D02*
X105860024Y-76450999D01*
X105860024Y-76450999D02*
X105907643Y-76355761D01*
X105907643Y-76355761D02*
X106002881Y-76260523D01*
X106002881Y-76260523D02*
X106145738Y-76212904D01*
X106145738Y-76212904D02*
X106240976Y-76212904D01*
X106240976Y-76212904D02*
X106383833Y-76260523D01*
X106383833Y-76260523D02*
X106431452Y-76308142D01*
X107336214Y-77212904D02*
X106860024Y-77212904D01*
X106860024Y-77212904D02*
X106860024Y-76212904D01*
X91407643Y-69612904D02*
X91407643Y-68612904D01*
X91407643Y-68612904D02*
X91740976Y-69327189D01*
X91740976Y-69327189D02*
X92074309Y-68612904D01*
X92074309Y-68612904D02*
X92074309Y-69612904D01*
X92740976Y-68612904D02*
X92931452Y-68612904D01*
X92931452Y-68612904D02*
X93026690Y-68660523D01*
X93026690Y-68660523D02*
X93121928Y-68755761D01*
X93121928Y-68755761D02*
X93169547Y-68946237D01*
X93169547Y-68946237D02*
X93169547Y-69279570D01*
X93169547Y-69279570D02*
X93121928Y-69470046D01*
X93121928Y-69470046D02*
X93026690Y-69565285D01*
X93026690Y-69565285D02*
X92931452Y-69612904D01*
X92931452Y-69612904D02*
X92740976Y-69612904D01*
X92740976Y-69612904D02*
X92645738Y-69565285D01*
X92645738Y-69565285D02*
X92550500Y-69470046D01*
X92550500Y-69470046D02*
X92502881Y-69279570D01*
X92502881Y-69279570D02*
X92502881Y-68946237D01*
X92502881Y-68946237D02*
X92550500Y-68755761D01*
X92550500Y-68755761D02*
X92645738Y-68660523D01*
X92645738Y-68660523D02*
X92740976Y-68612904D01*
X91412405Y-43212904D02*
X92031452Y-43212904D01*
X92031452Y-43212904D02*
X91698119Y-43593856D01*
X91698119Y-43593856D02*
X91840976Y-43593856D01*
X91840976Y-43593856D02*
X91936214Y-43641475D01*
X91936214Y-43641475D02*
X91983833Y-43689094D01*
X91983833Y-43689094D02*
X92031452Y-43784332D01*
X92031452Y-43784332D02*
X92031452Y-44022427D01*
X92031452Y-44022427D02*
X91983833Y-44117665D01*
X91983833Y-44117665D02*
X91936214Y-44165285D01*
X91936214Y-44165285D02*
X91840976Y-44212904D01*
X91840976Y-44212904D02*
X91555262Y-44212904D01*
X91555262Y-44212904D02*
X91460024Y-44165285D01*
X91460024Y-44165285D02*
X91412405Y-44117665D01*
X92317167Y-43212904D02*
X92650500Y-44212904D01*
X92650500Y-44212904D02*
X92983833Y-43212904D01*
X91360024Y-64327189D02*
X91836214Y-64327189D01*
X91264786Y-64612904D02*
X91598119Y-63612904D01*
X91598119Y-63612904D02*
X91931452Y-64612904D01*
X92740976Y-63612904D02*
X92264786Y-63612904D01*
X92264786Y-63612904D02*
X92217167Y-64089094D01*
X92217167Y-64089094D02*
X92264786Y-64041475D01*
X92264786Y-64041475D02*
X92360024Y-63993856D01*
X92360024Y-63993856D02*
X92598119Y-63993856D01*
X92598119Y-63993856D02*
X92693357Y-64041475D01*
X92693357Y-64041475D02*
X92740976Y-64089094D01*
X92740976Y-64089094D02*
X92788595Y-64184332D01*
X92788595Y-64184332D02*
X92788595Y-64422427D01*
X92788595Y-64422427D02*
X92740976Y-64517665D01*
X92740976Y-64517665D02*
X92693357Y-64565285D01*
X92693357Y-64565285D02*
X92598119Y-64612904D01*
X92598119Y-64612904D02*
X92360024Y-64612904D01*
X92360024Y-64612904D02*
X92264786Y-64565285D01*
X92264786Y-64565285D02*
X92217167Y-64517665D01*
X91264786Y-76212904D02*
X91836214Y-76212904D01*
X91550500Y-77212904D02*
X91550500Y-76212904D01*
X92074310Y-76212904D02*
X92740976Y-77212904D01*
X92740976Y-76212904D02*
X92074310Y-77212904D01*
X105431452Y-62012904D02*
X104860024Y-62012904D01*
X105145738Y-62012904D02*
X105145738Y-61012904D01*
X105145738Y-61012904D02*
X105050500Y-61155761D01*
X105050500Y-61155761D02*
X104955262Y-61250999D01*
X104955262Y-61250999D02*
X104860024Y-61298618D01*
X105812405Y-61108142D02*
X105860024Y-61060523D01*
X105860024Y-61060523D02*
X105955262Y-61012904D01*
X105955262Y-61012904D02*
X106193357Y-61012904D01*
X106193357Y-61012904D02*
X106288595Y-61060523D01*
X106288595Y-61060523D02*
X106336214Y-61108142D01*
X106336214Y-61108142D02*
X106383833Y-61203380D01*
X106383833Y-61203380D02*
X106383833Y-61298618D01*
X106383833Y-61298618D02*
X106336214Y-61441475D01*
X106336214Y-61441475D02*
X105764786Y-62012904D01*
X105764786Y-62012904D02*
X106383833Y-62012904D01*
X92079071Y-41712904D02*
X91745738Y-41236713D01*
X91507643Y-41712904D02*
X91507643Y-40712904D01*
X91507643Y-40712904D02*
X91888595Y-40712904D01*
X91888595Y-40712904D02*
X91983833Y-40760523D01*
X91983833Y-40760523D02*
X92031452Y-40808142D01*
X92031452Y-40808142D02*
X92079071Y-40903380D01*
X92079071Y-40903380D02*
X92079071Y-41046237D01*
X92079071Y-41046237D02*
X92031452Y-41141475D01*
X92031452Y-41141475D02*
X91983833Y-41189094D01*
X91983833Y-41189094D02*
X91888595Y-41236713D01*
X91888595Y-41236713D02*
X91507643Y-41236713D01*
X92460024Y-41665285D02*
X92602881Y-41712904D01*
X92602881Y-41712904D02*
X92840976Y-41712904D01*
X92840976Y-41712904D02*
X92936214Y-41665285D01*
X92936214Y-41665285D02*
X92983833Y-41617665D01*
X92983833Y-41617665D02*
X93031452Y-41522427D01*
X93031452Y-41522427D02*
X93031452Y-41427189D01*
X93031452Y-41427189D02*
X92983833Y-41331951D01*
X92983833Y-41331951D02*
X92936214Y-41284332D01*
X92936214Y-41284332D02*
X92840976Y-41236713D01*
X92840976Y-41236713D02*
X92650500Y-41189094D01*
X92650500Y-41189094D02*
X92555262Y-41141475D01*
X92555262Y-41141475D02*
X92507643Y-41093856D01*
X92507643Y-41093856D02*
X92460024Y-40998618D01*
X92460024Y-40998618D02*
X92460024Y-40903380D01*
X92460024Y-40903380D02*
X92507643Y-40808142D01*
X92507643Y-40808142D02*
X92555262Y-40760523D01*
X92555262Y-40760523D02*
X92650500Y-40712904D01*
X92650500Y-40712904D02*
X92888595Y-40712904D01*
X92888595Y-40712904D02*
X93031452Y-40760523D01*
X93317167Y-40712904D02*
X93888595Y-40712904D01*
X93602881Y-41712904D02*
X93602881Y-40712904D01*
X104812405Y-66112904D02*
X105431452Y-66112904D01*
X105431452Y-66112904D02*
X105098119Y-66493856D01*
X105098119Y-66493856D02*
X105240976Y-66493856D01*
X105240976Y-66493856D02*
X105336214Y-66541475D01*
X105336214Y-66541475D02*
X105383833Y-66589094D01*
X105383833Y-66589094D02*
X105431452Y-66684332D01*
X105431452Y-66684332D02*
X105431452Y-66922427D01*
X105431452Y-66922427D02*
X105383833Y-67017665D01*
X105383833Y-67017665D02*
X105336214Y-67065285D01*
X105336214Y-67065285D02*
X105240976Y-67112904D01*
X105240976Y-67112904D02*
X104955262Y-67112904D01*
X104955262Y-67112904D02*
X104860024Y-67065285D01*
X104860024Y-67065285D02*
X104812405Y-67017665D01*
X105764786Y-66112904D02*
X106383833Y-66112904D01*
X106383833Y-66112904D02*
X106050500Y-66493856D01*
X106050500Y-66493856D02*
X106193357Y-66493856D01*
X106193357Y-66493856D02*
X106288595Y-66541475D01*
X106288595Y-66541475D02*
X106336214Y-66589094D01*
X106336214Y-66589094D02*
X106383833Y-66684332D01*
X106383833Y-66684332D02*
X106383833Y-66922427D01*
X106383833Y-66922427D02*
X106336214Y-67017665D01*
X106336214Y-67017665D02*
X106288595Y-67065285D01*
X106288595Y-67065285D02*
X106193357Y-67112904D01*
X106193357Y-67112904D02*
X105907643Y-67112904D01*
X105907643Y-67112904D02*
X105812405Y-67065285D01*
X105812405Y-67065285D02*
X105764786Y-67017665D01*
X105431452Y-59512904D02*
X104860024Y-59512904D01*
X105145738Y-59512904D02*
X105145738Y-58512904D01*
X105145738Y-58512904D02*
X105050500Y-58655761D01*
X105050500Y-58655761D02*
X104955262Y-58750999D01*
X104955262Y-58750999D02*
X104860024Y-58798618D01*
X105764786Y-58512904D02*
X106383833Y-58512904D01*
X106383833Y-58512904D02*
X106050500Y-58893856D01*
X106050500Y-58893856D02*
X106193357Y-58893856D01*
X106193357Y-58893856D02*
X106288595Y-58941475D01*
X106288595Y-58941475D02*
X106336214Y-58989094D01*
X106336214Y-58989094D02*
X106383833Y-59084332D01*
X106383833Y-59084332D02*
X106383833Y-59322427D01*
X106383833Y-59322427D02*
X106336214Y-59417665D01*
X106336214Y-59417665D02*
X106288595Y-59465285D01*
X106288595Y-59465285D02*
X106193357Y-59512904D01*
X106193357Y-59512904D02*
X105907643Y-59512904D01*
X105907643Y-59512904D02*
X105812405Y-59465285D01*
X105812405Y-59465285D02*
X105764786Y-59417665D01*
X91360024Y-61727189D02*
X91836214Y-61727189D01*
X91264786Y-62012904D02*
X91598119Y-61012904D01*
X91598119Y-61012904D02*
X91931452Y-62012904D01*
X92693357Y-61346237D02*
X92693357Y-62012904D01*
X92455262Y-60965285D02*
X92217167Y-61679570D01*
X92217167Y-61679570D02*
X92836214Y-61679570D01*
X91360024Y-67065285D02*
X91502881Y-67112904D01*
X91502881Y-67112904D02*
X91740976Y-67112904D01*
X91740976Y-67112904D02*
X91836214Y-67065285D01*
X91836214Y-67065285D02*
X91883833Y-67017665D01*
X91883833Y-67017665D02*
X91931452Y-66922427D01*
X91931452Y-66922427D02*
X91931452Y-66827189D01*
X91931452Y-66827189D02*
X91883833Y-66731951D01*
X91883833Y-66731951D02*
X91836214Y-66684332D01*
X91836214Y-66684332D02*
X91740976Y-66636713D01*
X91740976Y-66636713D02*
X91550500Y-66589094D01*
X91550500Y-66589094D02*
X91455262Y-66541475D01*
X91455262Y-66541475D02*
X91407643Y-66493856D01*
X91407643Y-66493856D02*
X91360024Y-66398618D01*
X91360024Y-66398618D02*
X91360024Y-66303380D01*
X91360024Y-66303380D02*
X91407643Y-66208142D01*
X91407643Y-66208142D02*
X91455262Y-66160523D01*
X91455262Y-66160523D02*
X91550500Y-66112904D01*
X91550500Y-66112904D02*
X91788595Y-66112904D01*
X91788595Y-66112904D02*
X91931452Y-66160523D01*
X92931452Y-67017665D02*
X92883833Y-67065285D01*
X92883833Y-67065285D02*
X92740976Y-67112904D01*
X92740976Y-67112904D02*
X92645738Y-67112904D01*
X92645738Y-67112904D02*
X92502881Y-67065285D01*
X92502881Y-67065285D02*
X92407643Y-66970046D01*
X92407643Y-66970046D02*
X92360024Y-66874808D01*
X92360024Y-66874808D02*
X92312405Y-66684332D01*
X92312405Y-66684332D02*
X92312405Y-66541475D01*
X92312405Y-66541475D02*
X92360024Y-66350999D01*
X92360024Y-66350999D02*
X92407643Y-66255761D01*
X92407643Y-66255761D02*
X92502881Y-66160523D01*
X92502881Y-66160523D02*
X92645738Y-66112904D01*
X92645738Y-66112904D02*
X92740976Y-66112904D01*
X92740976Y-66112904D02*
X92883833Y-66160523D01*
X92883833Y-66160523D02*
X92931452Y-66208142D01*
X93360024Y-67112904D02*
X93360024Y-66112904D01*
X93931452Y-67112904D02*
X93502881Y-66541475D01*
X93931452Y-66112904D02*
X93360024Y-66684332D01*
X98107643Y-36412904D02*
X98107643Y-37222427D01*
X98107643Y-37222427D02*
X98155262Y-37317665D01*
X98155262Y-37317665D02*
X98202881Y-37365285D01*
X98202881Y-37365285D02*
X98298119Y-37412904D01*
X98298119Y-37412904D02*
X98488595Y-37412904D01*
X98488595Y-37412904D02*
X98583833Y-37365285D01*
X98583833Y-37365285D02*
X98631452Y-37317665D01*
X98631452Y-37317665D02*
X98679071Y-37222427D01*
X98679071Y-37222427D02*
X98679071Y-36412904D01*
X99107643Y-37365285D02*
X99250500Y-37412904D01*
X99250500Y-37412904D02*
X99488595Y-37412904D01*
X99488595Y-37412904D02*
X99583833Y-37365285D01*
X99583833Y-37365285D02*
X99631452Y-37317665D01*
X99631452Y-37317665D02*
X99679071Y-37222427D01*
X99679071Y-37222427D02*
X99679071Y-37127189D01*
X99679071Y-37127189D02*
X99631452Y-37031951D01*
X99631452Y-37031951D02*
X99583833Y-36984332D01*
X99583833Y-36984332D02*
X99488595Y-36936713D01*
X99488595Y-36936713D02*
X99298119Y-36889094D01*
X99298119Y-36889094D02*
X99202881Y-36841475D01*
X99202881Y-36841475D02*
X99155262Y-36793856D01*
X99155262Y-36793856D02*
X99107643Y-36698618D01*
X99107643Y-36698618D02*
X99107643Y-36603380D01*
X99107643Y-36603380D02*
X99155262Y-36508142D01*
X99155262Y-36508142D02*
X99202881Y-36460523D01*
X99202881Y-36460523D02*
X99298119Y-36412904D01*
X99298119Y-36412904D02*
X99536214Y-36412904D01*
X99536214Y-36412904D02*
X99679071Y-36460523D01*
X100440976Y-36889094D02*
X100583833Y-36936713D01*
X100583833Y-36936713D02*
X100631452Y-36984332D01*
X100631452Y-36984332D02*
X100679071Y-37079570D01*
X100679071Y-37079570D02*
X100679071Y-37222427D01*
X100679071Y-37222427D02*
X100631452Y-37317665D01*
X100631452Y-37317665D02*
X100583833Y-37365285D01*
X100583833Y-37365285D02*
X100488595Y-37412904D01*
X100488595Y-37412904D02*
X100107643Y-37412904D01*
X100107643Y-37412904D02*
X100107643Y-36412904D01*
X100107643Y-36412904D02*
X100440976Y-36412904D01*
X100440976Y-36412904D02*
X100536214Y-36460523D01*
X100536214Y-36460523D02*
X100583833Y-36508142D01*
X100583833Y-36508142D02*
X100631452Y-36603380D01*
X100631452Y-36603380D02*
X100631452Y-36698618D01*
X100631452Y-36698618D02*
X100583833Y-36793856D01*
X100583833Y-36793856D02*
X100536214Y-36841475D01*
X100536214Y-36841475D02*
X100440976Y-36889094D01*
X100440976Y-36889094D02*
X100107643Y-36889094D01*
X104907643Y-55912904D02*
X104907643Y-56722427D01*
X104907643Y-56722427D02*
X104955262Y-56817665D01*
X104955262Y-56817665D02*
X105002881Y-56865285D01*
X105002881Y-56865285D02*
X105098119Y-56912904D01*
X105098119Y-56912904D02*
X105288595Y-56912904D01*
X105288595Y-56912904D02*
X105383833Y-56865285D01*
X105383833Y-56865285D02*
X105431452Y-56817665D01*
X105431452Y-56817665D02*
X105479071Y-56722427D01*
X105479071Y-56722427D02*
X105479071Y-55912904D01*
X105907643Y-56865285D02*
X106050500Y-56912904D01*
X106050500Y-56912904D02*
X106288595Y-56912904D01*
X106288595Y-56912904D02*
X106383833Y-56865285D01*
X106383833Y-56865285D02*
X106431452Y-56817665D01*
X106431452Y-56817665D02*
X106479071Y-56722427D01*
X106479071Y-56722427D02*
X106479071Y-56627189D01*
X106479071Y-56627189D02*
X106431452Y-56531951D01*
X106431452Y-56531951D02*
X106383833Y-56484332D01*
X106383833Y-56484332D02*
X106288595Y-56436713D01*
X106288595Y-56436713D02*
X106098119Y-56389094D01*
X106098119Y-56389094D02*
X106002881Y-56341475D01*
X106002881Y-56341475D02*
X105955262Y-56293856D01*
X105955262Y-56293856D02*
X105907643Y-56198618D01*
X105907643Y-56198618D02*
X105907643Y-56103380D01*
X105907643Y-56103380D02*
X105955262Y-56008142D01*
X105955262Y-56008142D02*
X106002881Y-55960523D01*
X106002881Y-55960523D02*
X106098119Y-55912904D01*
X106098119Y-55912904D02*
X106336214Y-55912904D01*
X106336214Y-55912904D02*
X106479071Y-55960523D01*
X107240976Y-56389094D02*
X107383833Y-56436713D01*
X107383833Y-56436713D02*
X107431452Y-56484332D01*
X107431452Y-56484332D02*
X107479071Y-56579570D01*
X107479071Y-56579570D02*
X107479071Y-56722427D01*
X107479071Y-56722427D02*
X107431452Y-56817665D01*
X107431452Y-56817665D02*
X107383833Y-56865285D01*
X107383833Y-56865285D02*
X107288595Y-56912904D01*
X107288595Y-56912904D02*
X106907643Y-56912904D01*
X106907643Y-56912904D02*
X106907643Y-55912904D01*
X106907643Y-55912904D02*
X107240976Y-55912904D01*
X107240976Y-55912904D02*
X107336214Y-55960523D01*
X107336214Y-55960523D02*
X107383833Y-56008142D01*
X107383833Y-56008142D02*
X107431452Y-56103380D01*
X107431452Y-56103380D02*
X107431452Y-56198618D01*
X107431452Y-56198618D02*
X107383833Y-56293856D01*
X107383833Y-56293856D02*
X107336214Y-56341475D01*
X107336214Y-56341475D02*
X107240976Y-56389094D01*
X107240976Y-56389094D02*
X106907643Y-56389094D01*
X92031452Y-48360523D02*
X91936214Y-48312904D01*
X91936214Y-48312904D02*
X91793357Y-48312904D01*
X91793357Y-48312904D02*
X91650500Y-48360523D01*
X91650500Y-48360523D02*
X91555262Y-48455761D01*
X91555262Y-48455761D02*
X91507643Y-48550999D01*
X91507643Y-48550999D02*
X91460024Y-48741475D01*
X91460024Y-48741475D02*
X91460024Y-48884332D01*
X91460024Y-48884332D02*
X91507643Y-49074808D01*
X91507643Y-49074808D02*
X91555262Y-49170046D01*
X91555262Y-49170046D02*
X91650500Y-49265285D01*
X91650500Y-49265285D02*
X91793357Y-49312904D01*
X91793357Y-49312904D02*
X91888595Y-49312904D01*
X91888595Y-49312904D02*
X92031452Y-49265285D01*
X92031452Y-49265285D02*
X92079071Y-49217665D01*
X92079071Y-49217665D02*
X92079071Y-48884332D01*
X92079071Y-48884332D02*
X91888595Y-48884332D01*
X92507643Y-49312904D02*
X92507643Y-48312904D01*
X92507643Y-48312904D02*
X93079071Y-49312904D01*
X93079071Y-49312904D02*
X93079071Y-48312904D01*
X93555262Y-49312904D02*
X93555262Y-48312904D01*
X93555262Y-48312904D02*
X93793357Y-48312904D01*
X93793357Y-48312904D02*
X93936214Y-48360523D01*
X93936214Y-48360523D02*
X94031452Y-48455761D01*
X94031452Y-48455761D02*
X94079071Y-48550999D01*
X94079071Y-48550999D02*
X94126690Y-48741475D01*
X94126690Y-48741475D02*
X94126690Y-48884332D01*
X94126690Y-48884332D02*
X94079071Y-49074808D01*
X94079071Y-49074808D02*
X94031452Y-49170046D01*
X94031452Y-49170046D02*
X93936214Y-49265285D01*
X93936214Y-49265285D02*
X93793357Y-49312904D01*
X93793357Y-49312904D02*
X93555262Y-49312904D01*
X104907643Y-53889094D02*
X105240976Y-53889094D01*
X105383833Y-54412904D02*
X104907643Y-54412904D01*
X104907643Y-54412904D02*
X104907643Y-53412904D01*
X104907643Y-53412904D02*
X105383833Y-53412904D01*
X105812405Y-54412904D02*
X105812405Y-53412904D01*
X105812405Y-53412904D02*
X106383833Y-54412904D01*
X106383833Y-54412904D02*
X106383833Y-53412904D01*
X104812405Y-71212904D02*
X105431452Y-71212904D01*
X105431452Y-71212904D02*
X105098119Y-71593856D01*
X105098119Y-71593856D02*
X105240976Y-71593856D01*
X105240976Y-71593856D02*
X105336214Y-71641475D01*
X105336214Y-71641475D02*
X105383833Y-71689094D01*
X105383833Y-71689094D02*
X105431452Y-71784332D01*
X105431452Y-71784332D02*
X105431452Y-72022427D01*
X105431452Y-72022427D02*
X105383833Y-72117665D01*
X105383833Y-72117665D02*
X105336214Y-72165285D01*
X105336214Y-72165285D02*
X105240976Y-72212904D01*
X105240976Y-72212904D02*
X104955262Y-72212904D01*
X104955262Y-72212904D02*
X104860024Y-72165285D01*
X104860024Y-72165285D02*
X104812405Y-72117665D01*
X105812405Y-71308142D02*
X105860024Y-71260523D01*
X105860024Y-71260523D02*
X105955262Y-71212904D01*
X105955262Y-71212904D02*
X106193357Y-71212904D01*
X106193357Y-71212904D02*
X106288595Y-71260523D01*
X106288595Y-71260523D02*
X106336214Y-71308142D01*
X106336214Y-71308142D02*
X106383833Y-71403380D01*
X106383833Y-71403380D02*
X106383833Y-71498618D01*
X106383833Y-71498618D02*
X106336214Y-71641475D01*
X106336214Y-71641475D02*
X105764786Y-72212904D01*
X105764786Y-72212904D02*
X106383833Y-72212904D01*
D12*
X127552092Y-91919981D02*
X127218759Y-91443790D01*
X126980664Y-91919981D02*
X126980664Y-90919981D01*
X126980664Y-90919981D02*
X127361616Y-90919981D01*
X127361616Y-90919981D02*
X127456854Y-90967600D01*
X127456854Y-90967600D02*
X127504473Y-91015219D01*
X127504473Y-91015219D02*
X127552092Y-91110457D01*
X127552092Y-91110457D02*
X127552092Y-91253314D01*
X127552092Y-91253314D02*
X127504473Y-91348552D01*
X127504473Y-91348552D02*
X127456854Y-91396171D01*
X127456854Y-91396171D02*
X127361616Y-91443790D01*
X127361616Y-91443790D02*
X126980664Y-91443790D01*
X128409235Y-90919981D02*
X128218759Y-90919981D01*
X128218759Y-90919981D02*
X128123521Y-90967600D01*
X128123521Y-90967600D02*
X128075902Y-91015219D01*
X128075902Y-91015219D02*
X127980664Y-91158076D01*
X127980664Y-91158076D02*
X127933045Y-91348552D01*
X127933045Y-91348552D02*
X127933045Y-91729504D01*
X127933045Y-91729504D02*
X127980664Y-91824742D01*
X127980664Y-91824742D02*
X128028283Y-91872362D01*
X128028283Y-91872362D02*
X128123521Y-91919981D01*
X128123521Y-91919981D02*
X128313997Y-91919981D01*
X128313997Y-91919981D02*
X128409235Y-91872362D01*
X128409235Y-91872362D02*
X128456854Y-91824742D01*
X128456854Y-91824742D02*
X128504473Y-91729504D01*
X128504473Y-91729504D02*
X128504473Y-91491409D01*
X128504473Y-91491409D02*
X128456854Y-91396171D01*
X128456854Y-91396171D02*
X128409235Y-91348552D01*
X128409235Y-91348552D02*
X128313997Y-91300933D01*
X128313997Y-91300933D02*
X128123521Y-91300933D01*
X128123521Y-91300933D02*
X128028283Y-91348552D01*
X128028283Y-91348552D02*
X127980664Y-91396171D01*
X127980664Y-91396171D02*
X127933045Y-91491409D01*
X102393939Y-110665835D02*
X102393939Y-110475359D01*
X102393939Y-110475359D02*
X102346320Y-110380121D01*
X102346320Y-110380121D02*
X102298701Y-110332502D01*
X102298701Y-110332502D02*
X102155844Y-110237264D01*
X102155844Y-110237264D02*
X101965368Y-110189645D01*
X101965368Y-110189645D02*
X101584416Y-110189645D01*
X101584416Y-110189645D02*
X101489178Y-110237264D01*
X101489178Y-110237264D02*
X101441559Y-110284883D01*
X101441559Y-110284883D02*
X101393939Y-110380121D01*
X101393939Y-110380121D02*
X101393939Y-110570597D01*
X101393939Y-110570597D02*
X101441559Y-110665835D01*
X101441559Y-110665835D02*
X101489178Y-110713454D01*
X101489178Y-110713454D02*
X101584416Y-110761073D01*
X101584416Y-110761073D02*
X101822511Y-110761073D01*
X101822511Y-110761073D02*
X101917749Y-110713454D01*
X101917749Y-110713454D02*
X101965368Y-110665835D01*
X101965368Y-110665835D02*
X102012987Y-110570597D01*
X102012987Y-110570597D02*
X102012987Y-110380121D01*
X102012987Y-110380121D02*
X101965368Y-110284883D01*
X101965368Y-110284883D02*
X101917749Y-110237264D01*
X101917749Y-110237264D02*
X101822511Y-110189645D01*
X92138701Y-110189645D02*
X92186320Y-110237264D01*
X92186320Y-110237264D02*
X92233939Y-110332502D01*
X92233939Y-110332502D02*
X92233939Y-110570597D01*
X92233939Y-110570597D02*
X92186320Y-110665835D01*
X92186320Y-110665835D02*
X92138701Y-110713454D01*
X92138701Y-110713454D02*
X92043463Y-110761073D01*
X92043463Y-110761073D02*
X91948225Y-110761073D01*
X91948225Y-110761073D02*
X91805368Y-110713454D01*
X91805368Y-110713454D02*
X91233939Y-110142026D01*
X91233939Y-110142026D02*
X91233939Y-110761073D01*
X107593939Y-96192026D02*
X107593939Y-96811073D01*
X107593939Y-96811073D02*
X107212987Y-96477740D01*
X107212987Y-96477740D02*
X107212987Y-96620597D01*
X107212987Y-96620597D02*
X107165368Y-96715835D01*
X107165368Y-96715835D02*
X107117749Y-96763454D01*
X107117749Y-96763454D02*
X107022511Y-96811073D01*
X107022511Y-96811073D02*
X106784416Y-96811073D01*
X106784416Y-96811073D02*
X106689178Y-96763454D01*
X106689178Y-96763454D02*
X106641559Y-96715835D01*
X106641559Y-96715835D02*
X106593939Y-96620597D01*
X106593939Y-96620597D02*
X106593939Y-96334883D01*
X106593939Y-96334883D02*
X106641559Y-96239645D01*
X106641559Y-96239645D02*
X106689178Y-96192026D01*
X106689178Y-97239645D02*
X106641559Y-97287264D01*
X106641559Y-97287264D02*
X106593939Y-97239645D01*
X106593939Y-97239645D02*
X106641559Y-97192026D01*
X106641559Y-97192026D02*
X106689178Y-97239645D01*
X106689178Y-97239645D02*
X106593939Y-97239645D01*
X107593939Y-97620597D02*
X107593939Y-98239644D01*
X107593939Y-98239644D02*
X107212987Y-97906311D01*
X107212987Y-97906311D02*
X107212987Y-98049168D01*
X107212987Y-98049168D02*
X107165368Y-98144406D01*
X107165368Y-98144406D02*
X107117749Y-98192025D01*
X107117749Y-98192025D02*
X107022511Y-98239644D01*
X107022511Y-98239644D02*
X106784416Y-98239644D01*
X106784416Y-98239644D02*
X106689178Y-98192025D01*
X106689178Y-98192025D02*
X106641559Y-98144406D01*
X106641559Y-98144406D02*
X106593939Y-98049168D01*
X106593939Y-98049168D02*
X106593939Y-97763454D01*
X106593939Y-97763454D02*
X106641559Y-97668216D01*
X106641559Y-97668216D02*
X106689178Y-97620597D01*
X107593939Y-98525359D02*
X106593939Y-98858692D01*
X106593939Y-98858692D02*
X107593939Y-99192025D01*
X101641559Y-96133645D02*
X101593939Y-96276502D01*
X101593939Y-96276502D02*
X101593939Y-96514597D01*
X101593939Y-96514597D02*
X101641559Y-96609835D01*
X101641559Y-96609835D02*
X101689178Y-96657454D01*
X101689178Y-96657454D02*
X101784416Y-96705073D01*
X101784416Y-96705073D02*
X101879654Y-96705073D01*
X101879654Y-96705073D02*
X101974892Y-96657454D01*
X101974892Y-96657454D02*
X102022511Y-96609835D01*
X102022511Y-96609835D02*
X102070130Y-96514597D01*
X102070130Y-96514597D02*
X102117749Y-96324121D01*
X102117749Y-96324121D02*
X102165368Y-96228883D01*
X102165368Y-96228883D02*
X102212987Y-96181264D01*
X102212987Y-96181264D02*
X102308225Y-96133645D01*
X102308225Y-96133645D02*
X102403463Y-96133645D01*
X102403463Y-96133645D02*
X102498701Y-96181264D01*
X102498701Y-96181264D02*
X102546320Y-96228883D01*
X102546320Y-96228883D02*
X102593939Y-96324121D01*
X102593939Y-96324121D02*
X102593939Y-96562216D01*
X102593939Y-96562216D02*
X102546320Y-96705073D01*
X101689178Y-97705073D02*
X101641559Y-97657454D01*
X101641559Y-97657454D02*
X101593939Y-97514597D01*
X101593939Y-97514597D02*
X101593939Y-97419359D01*
X101593939Y-97419359D02*
X101641559Y-97276502D01*
X101641559Y-97276502D02*
X101736797Y-97181264D01*
X101736797Y-97181264D02*
X101832035Y-97133645D01*
X101832035Y-97133645D02*
X102022511Y-97086026D01*
X102022511Y-97086026D02*
X102165368Y-97086026D01*
X102165368Y-97086026D02*
X102355844Y-97133645D01*
X102355844Y-97133645D02*
X102451082Y-97181264D01*
X102451082Y-97181264D02*
X102546320Y-97276502D01*
X102546320Y-97276502D02*
X102593939Y-97419359D01*
X102593939Y-97419359D02*
X102593939Y-97514597D01*
X102593939Y-97514597D02*
X102546320Y-97657454D01*
X102546320Y-97657454D02*
X102498701Y-97705073D01*
X101593939Y-98609835D02*
X101593939Y-98133645D01*
X101593939Y-98133645D02*
X102593939Y-98133645D01*
X103993939Y-96287264D02*
X104993939Y-96287264D01*
X103993939Y-97334882D02*
X104470130Y-97001549D01*
X103993939Y-96763454D02*
X104993939Y-96763454D01*
X104993939Y-96763454D02*
X104993939Y-97144406D01*
X104993939Y-97144406D02*
X104946320Y-97239644D01*
X104946320Y-97239644D02*
X104898701Y-97287263D01*
X104898701Y-97287263D02*
X104803463Y-97334882D01*
X104803463Y-97334882D02*
X104660606Y-97334882D01*
X104660606Y-97334882D02*
X104565368Y-97287263D01*
X104565368Y-97287263D02*
X104517749Y-97239644D01*
X104517749Y-97239644D02*
X104470130Y-97144406D01*
X104470130Y-97144406D02*
X104470130Y-96763454D01*
X103898701Y-98430120D02*
X103946320Y-98334882D01*
X103946320Y-98334882D02*
X104041559Y-98239644D01*
X104041559Y-98239644D02*
X104184416Y-98096787D01*
X104184416Y-98096787D02*
X104232035Y-98001549D01*
X104232035Y-98001549D02*
X104232035Y-97906311D01*
X103993939Y-97953930D02*
X104041559Y-97858692D01*
X104041559Y-97858692D02*
X104136797Y-97763454D01*
X104136797Y-97763454D02*
X104327273Y-97715835D01*
X104327273Y-97715835D02*
X104660606Y-97715835D01*
X104660606Y-97715835D02*
X104851082Y-97763454D01*
X104851082Y-97763454D02*
X104946320Y-97858692D01*
X104946320Y-97858692D02*
X104993939Y-97953930D01*
X104993939Y-97953930D02*
X104993939Y-98144406D01*
X104993939Y-98144406D02*
X104946320Y-98239644D01*
X104946320Y-98239644D02*
X104851082Y-98334882D01*
X104851082Y-98334882D02*
X104660606Y-98382501D01*
X104660606Y-98382501D02*
X104327273Y-98382501D01*
X104327273Y-98382501D02*
X104136797Y-98334882D01*
X104136797Y-98334882D02*
X104041559Y-98239644D01*
X104041559Y-98239644D02*
X103993939Y-98144406D01*
X103993939Y-98144406D02*
X103993939Y-97953930D01*
X94846320Y-96811073D02*
X94893939Y-96715835D01*
X94893939Y-96715835D02*
X94893939Y-96572978D01*
X94893939Y-96572978D02*
X94846320Y-96430121D01*
X94846320Y-96430121D02*
X94751082Y-96334883D01*
X94751082Y-96334883D02*
X94655844Y-96287264D01*
X94655844Y-96287264D02*
X94465368Y-96239645D01*
X94465368Y-96239645D02*
X94322511Y-96239645D01*
X94322511Y-96239645D02*
X94132035Y-96287264D01*
X94132035Y-96287264D02*
X94036797Y-96334883D01*
X94036797Y-96334883D02*
X93941559Y-96430121D01*
X93941559Y-96430121D02*
X93893939Y-96572978D01*
X93893939Y-96572978D02*
X93893939Y-96668216D01*
X93893939Y-96668216D02*
X93941559Y-96811073D01*
X93941559Y-96811073D02*
X93989178Y-96858692D01*
X93989178Y-96858692D02*
X94322511Y-96858692D01*
X94322511Y-96858692D02*
X94322511Y-96668216D01*
X93893939Y-97287264D02*
X94893939Y-97287264D01*
X94893939Y-97287264D02*
X93893939Y-97858692D01*
X93893939Y-97858692D02*
X94893939Y-97858692D01*
X93893939Y-98334883D02*
X94893939Y-98334883D01*
X94893939Y-98334883D02*
X94893939Y-98572978D01*
X94893939Y-98572978D02*
X94846320Y-98715835D01*
X94846320Y-98715835D02*
X94751082Y-98811073D01*
X94751082Y-98811073D02*
X94655844Y-98858692D01*
X94655844Y-98858692D02*
X94465368Y-98906311D01*
X94465368Y-98906311D02*
X94322511Y-98906311D01*
X94322511Y-98906311D02*
X94132035Y-98858692D01*
X94132035Y-98858692D02*
X94036797Y-98811073D01*
X94036797Y-98811073D02*
X93941559Y-98715835D01*
X93941559Y-98715835D02*
X93893939Y-98572978D01*
X93893939Y-98572978D02*
X93893939Y-98334883D01*
X88693939Y-110761073D02*
X88693939Y-110189645D01*
X88693939Y-110475359D02*
X89693939Y-110475359D01*
X89693939Y-110475359D02*
X89551082Y-110380121D01*
X89551082Y-110380121D02*
X89455844Y-110284883D01*
X89455844Y-110284883D02*
X89408225Y-110189645D01*
X96779654Y-96239645D02*
X96779654Y-96715835D01*
X96493939Y-96144407D02*
X97493939Y-96477740D01*
X97493939Y-96477740D02*
X96493939Y-96811073D01*
X96493939Y-97144407D02*
X97493939Y-97144407D01*
X97493939Y-97144407D02*
X97493939Y-97382502D01*
X97493939Y-97382502D02*
X97446320Y-97525359D01*
X97446320Y-97525359D02*
X97351082Y-97620597D01*
X97351082Y-97620597D02*
X97255844Y-97668216D01*
X97255844Y-97668216D02*
X97065368Y-97715835D01*
X97065368Y-97715835D02*
X96922511Y-97715835D01*
X96922511Y-97715835D02*
X96732035Y-97668216D01*
X96732035Y-97668216D02*
X96636797Y-97620597D01*
X96636797Y-97620597D02*
X96541559Y-97525359D01*
X96541559Y-97525359D02*
X96493939Y-97382502D01*
X96493939Y-97382502D02*
X96493939Y-97144407D01*
X96493939Y-98144407D02*
X97493939Y-98144407D01*
X97493939Y-98144407D02*
X97493939Y-98382502D01*
X97493939Y-98382502D02*
X97446320Y-98525359D01*
X97446320Y-98525359D02*
X97351082Y-98620597D01*
X97351082Y-98620597D02*
X97255844Y-98668216D01*
X97255844Y-98668216D02*
X97065368Y-98715835D01*
X97065368Y-98715835D02*
X96922511Y-98715835D01*
X96922511Y-98715835D02*
X96732035Y-98668216D01*
X96732035Y-98668216D02*
X96636797Y-98620597D01*
X96636797Y-98620597D02*
X96541559Y-98525359D01*
X96541559Y-98525359D02*
X96493939Y-98382502D01*
X96493939Y-98382502D02*
X96493939Y-98144407D01*
X99853939Y-110713454D02*
X99853939Y-110237264D01*
X99853939Y-110237264D02*
X99377749Y-110189645D01*
X99377749Y-110189645D02*
X99425368Y-110237264D01*
X99425368Y-110237264D02*
X99472987Y-110332502D01*
X99472987Y-110332502D02*
X99472987Y-110570597D01*
X99472987Y-110570597D02*
X99425368Y-110665835D01*
X99425368Y-110665835D02*
X99377749Y-110713454D01*
X99377749Y-110713454D02*
X99282511Y-110761073D01*
X99282511Y-110761073D02*
X99044416Y-110761073D01*
X99044416Y-110761073D02*
X98949178Y-110713454D01*
X98949178Y-110713454D02*
X98901559Y-110665835D01*
X98901559Y-110665835D02*
X98853939Y-110570597D01*
X98853939Y-110570597D02*
X98853939Y-110332502D01*
X98853939Y-110332502D02*
X98901559Y-110237264D01*
X98901559Y-110237264D02*
X98949178Y-110189645D01*
X96980606Y-110665835D02*
X96313939Y-110665835D01*
X97361559Y-110427740D02*
X96647273Y-110189645D01*
X96647273Y-110189645D02*
X96647273Y-110808692D01*
X109013939Y-110284883D02*
X109013939Y-110475359D01*
X109013939Y-110475359D02*
X109061559Y-110570597D01*
X109061559Y-110570597D02*
X109109178Y-110618216D01*
X109109178Y-110618216D02*
X109252035Y-110713454D01*
X109252035Y-110713454D02*
X109442511Y-110761073D01*
X109442511Y-110761073D02*
X109823463Y-110761073D01*
X109823463Y-110761073D02*
X109918701Y-110713454D01*
X109918701Y-110713454D02*
X109966320Y-110665835D01*
X109966320Y-110665835D02*
X110013939Y-110570597D01*
X110013939Y-110570597D02*
X110013939Y-110380121D01*
X110013939Y-110380121D02*
X109966320Y-110284883D01*
X109966320Y-110284883D02*
X109918701Y-110237264D01*
X109918701Y-110237264D02*
X109823463Y-110189645D01*
X109823463Y-110189645D02*
X109585368Y-110189645D01*
X109585368Y-110189645D02*
X109490130Y-110237264D01*
X109490130Y-110237264D02*
X109442511Y-110284883D01*
X109442511Y-110284883D02*
X109394892Y-110380121D01*
X109394892Y-110380121D02*
X109394892Y-110570597D01*
X109394892Y-110570597D02*
X109442511Y-110665835D01*
X109442511Y-110665835D02*
X109490130Y-110713454D01*
X109490130Y-110713454D02*
X109585368Y-110761073D01*
X104933939Y-110142026D02*
X104933939Y-110808692D01*
X104933939Y-110808692D02*
X103933939Y-110380121D01*
X99141559Y-96139645D02*
X99093939Y-96282502D01*
X99093939Y-96282502D02*
X99093939Y-96520597D01*
X99093939Y-96520597D02*
X99141559Y-96615835D01*
X99141559Y-96615835D02*
X99189178Y-96663454D01*
X99189178Y-96663454D02*
X99284416Y-96711073D01*
X99284416Y-96711073D02*
X99379654Y-96711073D01*
X99379654Y-96711073D02*
X99474892Y-96663454D01*
X99474892Y-96663454D02*
X99522511Y-96615835D01*
X99522511Y-96615835D02*
X99570130Y-96520597D01*
X99570130Y-96520597D02*
X99617749Y-96330121D01*
X99617749Y-96330121D02*
X99665368Y-96234883D01*
X99665368Y-96234883D02*
X99712987Y-96187264D01*
X99712987Y-96187264D02*
X99808225Y-96139645D01*
X99808225Y-96139645D02*
X99903463Y-96139645D01*
X99903463Y-96139645D02*
X99998701Y-96187264D01*
X99998701Y-96187264D02*
X100046320Y-96234883D01*
X100046320Y-96234883D02*
X100093939Y-96330121D01*
X100093939Y-96330121D02*
X100093939Y-96568216D01*
X100093939Y-96568216D02*
X100046320Y-96711073D01*
X99093939Y-97139645D02*
X100093939Y-97139645D01*
X100093939Y-97139645D02*
X100093939Y-97377740D01*
X100093939Y-97377740D02*
X100046320Y-97520597D01*
X100046320Y-97520597D02*
X99951082Y-97615835D01*
X99951082Y-97615835D02*
X99855844Y-97663454D01*
X99855844Y-97663454D02*
X99665368Y-97711073D01*
X99665368Y-97711073D02*
X99522511Y-97711073D01*
X99522511Y-97711073D02*
X99332035Y-97663454D01*
X99332035Y-97663454D02*
X99236797Y-97615835D01*
X99236797Y-97615835D02*
X99141559Y-97520597D01*
X99141559Y-97520597D02*
X99093939Y-97377740D01*
X99093939Y-97377740D02*
X99093939Y-97139645D01*
X99379654Y-98092026D02*
X99379654Y-98568216D01*
X99093939Y-97996788D02*
X100093939Y-98330121D01*
X100093939Y-98330121D02*
X99093939Y-98663454D01*
X94773939Y-110142026D02*
X94773939Y-110761073D01*
X94773939Y-110761073D02*
X94392987Y-110427740D01*
X94392987Y-110427740D02*
X94392987Y-110570597D01*
X94392987Y-110570597D02*
X94345368Y-110665835D01*
X94345368Y-110665835D02*
X94297749Y-110713454D01*
X94297749Y-110713454D02*
X94202511Y-110761073D01*
X94202511Y-110761073D02*
X93964416Y-110761073D01*
X93964416Y-110761073D02*
X93869178Y-110713454D01*
X93869178Y-110713454D02*
X93821559Y-110665835D01*
X93821559Y-110665835D02*
X93773939Y-110570597D01*
X93773939Y-110570597D02*
X93773939Y-110284883D01*
X93773939Y-110284883D02*
X93821559Y-110189645D01*
X93821559Y-110189645D02*
X93869178Y-110142026D01*
X111553939Y-109811073D02*
X111553939Y-109239645D01*
X111553939Y-109525359D02*
X112553939Y-109525359D01*
X112553939Y-109525359D02*
X112411082Y-109430121D01*
X112411082Y-109430121D02*
X112315844Y-109334883D01*
X112315844Y-109334883D02*
X112268225Y-109239645D01*
X112553939Y-110430121D02*
X112553939Y-110525359D01*
X112553939Y-110525359D02*
X112506320Y-110620597D01*
X112506320Y-110620597D02*
X112458701Y-110668216D01*
X112458701Y-110668216D02*
X112363463Y-110715835D01*
X112363463Y-110715835D02*
X112172987Y-110763454D01*
X112172987Y-110763454D02*
X111934892Y-110763454D01*
X111934892Y-110763454D02*
X111744416Y-110715835D01*
X111744416Y-110715835D02*
X111649178Y-110668216D01*
X111649178Y-110668216D02*
X111601559Y-110620597D01*
X111601559Y-110620597D02*
X111553939Y-110525359D01*
X111553939Y-110525359D02*
X111553939Y-110430121D01*
X111553939Y-110430121D02*
X111601559Y-110334883D01*
X111601559Y-110334883D02*
X111649178Y-110287264D01*
X111649178Y-110287264D02*
X111744416Y-110239645D01*
X111744416Y-110239645D02*
X111934892Y-110192026D01*
X111934892Y-110192026D02*
X112172987Y-110192026D01*
X112172987Y-110192026D02*
X112363463Y-110239645D01*
X112363463Y-110239645D02*
X112458701Y-110287264D01*
X112458701Y-110287264D02*
X112506320Y-110334883D01*
X112506320Y-110334883D02*
X112553939Y-110430121D01*
X87205939Y-110427740D02*
X87205939Y-110522978D01*
X87205939Y-110522978D02*
X87158320Y-110618216D01*
X87158320Y-110618216D02*
X87110701Y-110665835D01*
X87110701Y-110665835D02*
X87015463Y-110713454D01*
X87015463Y-110713454D02*
X86824987Y-110761073D01*
X86824987Y-110761073D02*
X86586892Y-110761073D01*
X86586892Y-110761073D02*
X86396416Y-110713454D01*
X86396416Y-110713454D02*
X86301178Y-110665835D01*
X86301178Y-110665835D02*
X86253559Y-110618216D01*
X86253559Y-110618216D02*
X86205939Y-110522978D01*
X86205939Y-110522978D02*
X86205939Y-110427740D01*
X86205939Y-110427740D02*
X86253559Y-110332502D01*
X86253559Y-110332502D02*
X86301178Y-110284883D01*
X86301178Y-110284883D02*
X86396416Y-110237264D01*
X86396416Y-110237264D02*
X86586892Y-110189645D01*
X86586892Y-110189645D02*
X86824987Y-110189645D01*
X86824987Y-110189645D02*
X87015463Y-110237264D01*
X87015463Y-110237264D02*
X87110701Y-110284883D01*
X87110701Y-110284883D02*
X87158320Y-110332502D01*
X87158320Y-110332502D02*
X87205939Y-110427740D01*
X107045368Y-110380121D02*
X107092987Y-110284883D01*
X107092987Y-110284883D02*
X107140606Y-110237264D01*
X107140606Y-110237264D02*
X107235844Y-110189645D01*
X107235844Y-110189645D02*
X107283463Y-110189645D01*
X107283463Y-110189645D02*
X107378701Y-110237264D01*
X107378701Y-110237264D02*
X107426320Y-110284883D01*
X107426320Y-110284883D02*
X107473939Y-110380121D01*
X107473939Y-110380121D02*
X107473939Y-110570597D01*
X107473939Y-110570597D02*
X107426320Y-110665835D01*
X107426320Y-110665835D02*
X107378701Y-110713454D01*
X107378701Y-110713454D02*
X107283463Y-110761073D01*
X107283463Y-110761073D02*
X107235844Y-110761073D01*
X107235844Y-110761073D02*
X107140606Y-110713454D01*
X107140606Y-110713454D02*
X107092987Y-110665835D01*
X107092987Y-110665835D02*
X107045368Y-110570597D01*
X107045368Y-110570597D02*
X107045368Y-110380121D01*
X107045368Y-110380121D02*
X106997749Y-110284883D01*
X106997749Y-110284883D02*
X106950130Y-110237264D01*
X106950130Y-110237264D02*
X106854892Y-110189645D01*
X106854892Y-110189645D02*
X106664416Y-110189645D01*
X106664416Y-110189645D02*
X106569178Y-110237264D01*
X106569178Y-110237264D02*
X106521559Y-110284883D01*
X106521559Y-110284883D02*
X106473939Y-110380121D01*
X106473939Y-110380121D02*
X106473939Y-110570597D01*
X106473939Y-110570597D02*
X106521559Y-110665835D01*
X106521559Y-110665835D02*
X106569178Y-110713454D01*
X106569178Y-110713454D02*
X106664416Y-110761073D01*
X106664416Y-110761073D02*
X106854892Y-110761073D01*
X106854892Y-110761073D02*
X106950130Y-110713454D01*
X106950130Y-110713454D02*
X106997749Y-110665835D01*
X106997749Y-110665835D02*
X107045368Y-110570597D01*
X114166939Y-109811073D02*
X114166939Y-109239645D01*
X114166939Y-109525359D02*
X115166939Y-109525359D01*
X115166939Y-109525359D02*
X115024082Y-109430121D01*
X115024082Y-109430121D02*
X114928844Y-109334883D01*
X114928844Y-109334883D02*
X114881225Y-109239645D01*
X114166939Y-110763454D02*
X114166939Y-110192026D01*
X114166939Y-110477740D02*
X115166939Y-110477740D01*
X115166939Y-110477740D02*
X115024082Y-110382502D01*
X115024082Y-110382502D02*
X114928844Y-110287264D01*
X114928844Y-110287264D02*
X114881225Y-110192026D01*
X127635852Y-95411540D02*
X127302519Y-94935349D01*
X127064424Y-95411540D02*
X127064424Y-94411540D01*
X127064424Y-94411540D02*
X127445376Y-94411540D01*
X127445376Y-94411540D02*
X127540614Y-94459159D01*
X127540614Y-94459159D02*
X127588233Y-94506778D01*
X127588233Y-94506778D02*
X127635852Y-94602016D01*
X127635852Y-94602016D02*
X127635852Y-94744873D01*
X127635852Y-94744873D02*
X127588233Y-94840111D01*
X127588233Y-94840111D02*
X127540614Y-94887730D01*
X127540614Y-94887730D02*
X127445376Y-94935349D01*
X127445376Y-94935349D02*
X127064424Y-94935349D01*
X127969186Y-94411540D02*
X128635852Y-94411540D01*
X128635852Y-94411540D02*
X128207281Y-95411540D01*
X119778838Y-39154819D02*
X119445505Y-38678628D01*
X119207410Y-39154819D02*
X119207410Y-38154819D01*
X119207410Y-38154819D02*
X119588362Y-38154819D01*
X119588362Y-38154819D02*
X119683600Y-38202438D01*
X119683600Y-38202438D02*
X119731219Y-38250057D01*
X119731219Y-38250057D02*
X119778838Y-38345295D01*
X119778838Y-38345295D02*
X119778838Y-38488152D01*
X119778838Y-38488152D02*
X119731219Y-38583390D01*
X119731219Y-38583390D02*
X119683600Y-38631009D01*
X119683600Y-38631009D02*
X119588362Y-38678628D01*
X119588362Y-38678628D02*
X119207410Y-38678628D01*
X120683600Y-38154819D02*
X120207410Y-38154819D01*
X120207410Y-38154819D02*
X120159791Y-38631009D01*
X120159791Y-38631009D02*
X120207410Y-38583390D01*
X120207410Y-38583390D02*
X120302648Y-38535771D01*
X120302648Y-38535771D02*
X120540743Y-38535771D01*
X120540743Y-38535771D02*
X120635981Y-38583390D01*
X120635981Y-38583390D02*
X120683600Y-38631009D01*
X120683600Y-38631009D02*
X120731219Y-38726247D01*
X120731219Y-38726247D02*
X120731219Y-38964342D01*
X120731219Y-38964342D02*
X120683600Y-39059580D01*
X120683600Y-39059580D02*
X120635981Y-39107200D01*
X120635981Y-39107200D02*
X120540743Y-39154819D01*
X120540743Y-39154819D02*
X120302648Y-39154819D01*
X120302648Y-39154819D02*
X120207410Y-39107200D01*
X120207410Y-39107200D02*
X120159791Y-39059580D01*
X63349819Y-85604913D02*
X64349819Y-85271580D01*
X64349819Y-85271580D02*
X63349819Y-84938247D01*
X64254580Y-84033485D02*
X64302200Y-84081104D01*
X64302200Y-84081104D02*
X64349819Y-84223961D01*
X64349819Y-84223961D02*
X64349819Y-84319199D01*
X64349819Y-84319199D02*
X64302200Y-84462056D01*
X64302200Y-84462056D02*
X64206961Y-84557294D01*
X64206961Y-84557294D02*
X64111723Y-84604913D01*
X64111723Y-84604913D02*
X63921247Y-84652532D01*
X63921247Y-84652532D02*
X63778390Y-84652532D01*
X63778390Y-84652532D02*
X63587914Y-84604913D01*
X63587914Y-84604913D02*
X63492676Y-84557294D01*
X63492676Y-84557294D02*
X63397438Y-84462056D01*
X63397438Y-84462056D02*
X63349819Y-84319199D01*
X63349819Y-84319199D02*
X63349819Y-84223961D01*
X63349819Y-84223961D02*
X63397438Y-84081104D01*
X63397438Y-84081104D02*
X63445057Y-84033485D01*
X64254580Y-83033485D02*
X64302200Y-83081104D01*
X64302200Y-83081104D02*
X64349819Y-83223961D01*
X64349819Y-83223961D02*
X64349819Y-83319199D01*
X64349819Y-83319199D02*
X64302200Y-83462056D01*
X64302200Y-83462056D02*
X64206961Y-83557294D01*
X64206961Y-83557294D02*
X64111723Y-83604913D01*
X64111723Y-83604913D02*
X63921247Y-83652532D01*
X63921247Y-83652532D02*
X63778390Y-83652532D01*
X63778390Y-83652532D02*
X63587914Y-83604913D01*
X63587914Y-83604913D02*
X63492676Y-83557294D01*
X63492676Y-83557294D02*
X63397438Y-83462056D01*
X63397438Y-83462056D02*
X63349819Y-83319199D01*
X63349819Y-83319199D02*
X63349819Y-83223961D01*
X63349819Y-83223961D02*
X63397438Y-83081104D01*
X63397438Y-83081104D02*
X63445057Y-83033485D01*
X60827438Y-84938247D02*
X60779819Y-85033485D01*
X60779819Y-85033485D02*
X60779819Y-85176342D01*
X60779819Y-85176342D02*
X60827438Y-85319199D01*
X60827438Y-85319199D02*
X60922676Y-85414437D01*
X60922676Y-85414437D02*
X61017914Y-85462056D01*
X61017914Y-85462056D02*
X61208390Y-85509675D01*
X61208390Y-85509675D02*
X61351247Y-85509675D01*
X61351247Y-85509675D02*
X61541723Y-85462056D01*
X61541723Y-85462056D02*
X61636961Y-85414437D01*
X61636961Y-85414437D02*
X61732200Y-85319199D01*
X61732200Y-85319199D02*
X61779819Y-85176342D01*
X61779819Y-85176342D02*
X61779819Y-85081104D01*
X61779819Y-85081104D02*
X61732200Y-84938247D01*
X61732200Y-84938247D02*
X61684580Y-84890628D01*
X61684580Y-84890628D02*
X61351247Y-84890628D01*
X61351247Y-84890628D02*
X61351247Y-85081104D01*
X61779819Y-84462056D02*
X60779819Y-84462056D01*
X60779819Y-84462056D02*
X61779819Y-83890628D01*
X61779819Y-83890628D02*
X60779819Y-83890628D01*
X61779819Y-83414437D02*
X60779819Y-83414437D01*
X60779819Y-83414437D02*
X60779819Y-83176342D01*
X60779819Y-83176342D02*
X60827438Y-83033485D01*
X60827438Y-83033485D02*
X60922676Y-82938247D01*
X60922676Y-82938247D02*
X61017914Y-82890628D01*
X61017914Y-82890628D02*
X61208390Y-82843009D01*
X61208390Y-82843009D02*
X61351247Y-82843009D01*
X61351247Y-82843009D02*
X61541723Y-82890628D01*
X61541723Y-82890628D02*
X61636961Y-82938247D01*
X61636961Y-82938247D02*
X61732200Y-83033485D01*
X61732200Y-83033485D02*
X61779819Y-83176342D01*
X61779819Y-83176342D02*
X61779819Y-83414437D01*
X58249819Y-85271580D02*
X58249819Y-85081104D01*
X58249819Y-85081104D02*
X58297438Y-84985866D01*
X58297438Y-84985866D02*
X58392676Y-84890628D01*
X58392676Y-84890628D02*
X58583152Y-84843009D01*
X58583152Y-84843009D02*
X58916485Y-84843009D01*
X58916485Y-84843009D02*
X59106961Y-84890628D01*
X59106961Y-84890628D02*
X59202200Y-84985866D01*
X59202200Y-84985866D02*
X59249819Y-85081104D01*
X59249819Y-85081104D02*
X59249819Y-85271580D01*
X59249819Y-85271580D02*
X59202200Y-85366818D01*
X59202200Y-85366818D02*
X59106961Y-85462056D01*
X59106961Y-85462056D02*
X58916485Y-85509675D01*
X58916485Y-85509675D02*
X58583152Y-85509675D01*
X58583152Y-85509675D02*
X58392676Y-85462056D01*
X58392676Y-85462056D02*
X58297438Y-85366818D01*
X58297438Y-85366818D02*
X58249819Y-85271580D01*
X58249819Y-84414437D02*
X59059342Y-84414437D01*
X59059342Y-84414437D02*
X59154580Y-84366818D01*
X59154580Y-84366818D02*
X59202200Y-84319199D01*
X59202200Y-84319199D02*
X59249819Y-84223961D01*
X59249819Y-84223961D02*
X59249819Y-84033485D01*
X59249819Y-84033485D02*
X59202200Y-83938247D01*
X59202200Y-83938247D02*
X59154580Y-83890628D01*
X59154580Y-83890628D02*
X59059342Y-83843009D01*
X59059342Y-83843009D02*
X58249819Y-83843009D01*
X58249819Y-83509675D02*
X58249819Y-82938247D01*
X59249819Y-83223961D02*
X58249819Y-83223961D01*
X76645238Y-49081009D02*
X76788095Y-49128628D01*
X76788095Y-49128628D02*
X76835714Y-49176247D01*
X76835714Y-49176247D02*
X76883333Y-49271485D01*
X76883333Y-49271485D02*
X76883333Y-49414342D01*
X76883333Y-49414342D02*
X76835714Y-49509580D01*
X76835714Y-49509580D02*
X76788095Y-49557200D01*
X76788095Y-49557200D02*
X76692857Y-49604819D01*
X76692857Y-49604819D02*
X76311905Y-49604819D01*
X76311905Y-49604819D02*
X76311905Y-48604819D01*
X76311905Y-48604819D02*
X76645238Y-48604819D01*
X76645238Y-48604819D02*
X76740476Y-48652438D01*
X76740476Y-48652438D02*
X76788095Y-48700057D01*
X76788095Y-48700057D02*
X76835714Y-48795295D01*
X76835714Y-48795295D02*
X76835714Y-48890533D01*
X76835714Y-48890533D02*
X76788095Y-48985771D01*
X76788095Y-48985771D02*
X76740476Y-49033390D01*
X76740476Y-49033390D02*
X76645238Y-49081009D01*
X76645238Y-49081009D02*
X76311905Y-49081009D01*
X77835714Y-49604819D02*
X77264286Y-49604819D01*
X77550000Y-49604819D02*
X77550000Y-48604819D01*
X77550000Y-48604819D02*
X77454762Y-48747676D01*
X77454762Y-48747676D02*
X77359524Y-48842914D01*
X77359524Y-48842914D02*
X77264286Y-48890533D01*
X135802200Y-109168535D02*
X135849819Y-109025678D01*
X135849819Y-109025678D02*
X135849819Y-108787583D01*
X135849819Y-108787583D02*
X135802200Y-108692345D01*
X135802200Y-108692345D02*
X135754580Y-108644726D01*
X135754580Y-108644726D02*
X135659342Y-108597107D01*
X135659342Y-108597107D02*
X135564104Y-108597107D01*
X135564104Y-108597107D02*
X135468866Y-108644726D01*
X135468866Y-108644726D02*
X135421247Y-108692345D01*
X135421247Y-108692345D02*
X135373628Y-108787583D01*
X135373628Y-108787583D02*
X135326009Y-108978059D01*
X135326009Y-108978059D02*
X135278390Y-109073297D01*
X135278390Y-109073297D02*
X135230771Y-109120916D01*
X135230771Y-109120916D02*
X135135533Y-109168535D01*
X135135533Y-109168535D02*
X135040295Y-109168535D01*
X135040295Y-109168535D02*
X134945057Y-109120916D01*
X134945057Y-109120916D02*
X134897438Y-109073297D01*
X134897438Y-109073297D02*
X134849819Y-108978059D01*
X134849819Y-108978059D02*
X134849819Y-108739964D01*
X134849819Y-108739964D02*
X134897438Y-108597107D01*
X135849819Y-108168535D02*
X134849819Y-108168535D01*
X134849819Y-108168535D02*
X134849819Y-107930440D01*
X134849819Y-107930440D02*
X134897438Y-107787583D01*
X134897438Y-107787583D02*
X134992676Y-107692345D01*
X134992676Y-107692345D02*
X135087914Y-107644726D01*
X135087914Y-107644726D02*
X135278390Y-107597107D01*
X135278390Y-107597107D02*
X135421247Y-107597107D01*
X135421247Y-107597107D02*
X135611723Y-107644726D01*
X135611723Y-107644726D02*
X135706961Y-107692345D01*
X135706961Y-107692345D02*
X135802200Y-107787583D01*
X135802200Y-107787583D02*
X135849819Y-107930440D01*
X135849819Y-107930440D02*
X135849819Y-108168535D01*
X135564104Y-107216154D02*
X135564104Y-106739964D01*
X135849819Y-107311392D02*
X134849819Y-106978059D01*
X134849819Y-106978059D02*
X135849819Y-106644726D01*
X127259819Y-109293773D02*
X128259819Y-108960440D01*
X128259819Y-108960440D02*
X127259819Y-108627107D01*
X128259819Y-108293773D02*
X127259819Y-108293773D01*
X128259819Y-107817583D02*
X127259819Y-107817583D01*
X127259819Y-107817583D02*
X128259819Y-107246155D01*
X128259819Y-107246155D02*
X127259819Y-107246155D01*
X137427438Y-108627107D02*
X137379819Y-108722345D01*
X137379819Y-108722345D02*
X137379819Y-108865202D01*
X137379819Y-108865202D02*
X137427438Y-109008059D01*
X137427438Y-109008059D02*
X137522676Y-109103297D01*
X137522676Y-109103297D02*
X137617914Y-109150916D01*
X137617914Y-109150916D02*
X137808390Y-109198535D01*
X137808390Y-109198535D02*
X137951247Y-109198535D01*
X137951247Y-109198535D02*
X138141723Y-109150916D01*
X138141723Y-109150916D02*
X138236961Y-109103297D01*
X138236961Y-109103297D02*
X138332200Y-109008059D01*
X138332200Y-109008059D02*
X138379819Y-108865202D01*
X138379819Y-108865202D02*
X138379819Y-108769964D01*
X138379819Y-108769964D02*
X138332200Y-108627107D01*
X138332200Y-108627107D02*
X138284580Y-108579488D01*
X138284580Y-108579488D02*
X137951247Y-108579488D01*
X137951247Y-108579488D02*
X137951247Y-108769964D01*
X138379819Y-108150916D02*
X137379819Y-108150916D01*
X137379819Y-108150916D02*
X137379819Y-107769964D01*
X137379819Y-107769964D02*
X137427438Y-107674726D01*
X137427438Y-107674726D02*
X137475057Y-107627107D01*
X137475057Y-107627107D02*
X137570295Y-107579488D01*
X137570295Y-107579488D02*
X137713152Y-107579488D01*
X137713152Y-107579488D02*
X137808390Y-107627107D01*
X137808390Y-107627107D02*
X137856009Y-107674726D01*
X137856009Y-107674726D02*
X137903628Y-107769964D01*
X137903628Y-107769964D02*
X137903628Y-108150916D01*
X138379819Y-107150916D02*
X137379819Y-107150916D01*
X137379819Y-106484250D02*
X137379819Y-106293774D01*
X137379819Y-106293774D02*
X137427438Y-106198536D01*
X137427438Y-106198536D02*
X137522676Y-106103298D01*
X137522676Y-106103298D02*
X137713152Y-106055679D01*
X137713152Y-106055679D02*
X138046485Y-106055679D01*
X138046485Y-106055679D02*
X138236961Y-106103298D01*
X138236961Y-106103298D02*
X138332200Y-106198536D01*
X138332200Y-106198536D02*
X138379819Y-106293774D01*
X138379819Y-106293774D02*
X138379819Y-106484250D01*
X138379819Y-106484250D02*
X138332200Y-106579488D01*
X138332200Y-106579488D02*
X138236961Y-106674726D01*
X138236961Y-106674726D02*
X138046485Y-106722345D01*
X138046485Y-106722345D02*
X137713152Y-106722345D01*
X137713152Y-106722345D02*
X137522676Y-106674726D01*
X137522676Y-106674726D02*
X137427438Y-106579488D01*
X137427438Y-106579488D02*
X137379819Y-106484250D01*
X138379819Y-105103298D02*
X138379819Y-105674726D01*
X138379819Y-105389012D02*
X137379819Y-105389012D01*
X137379819Y-105389012D02*
X137522676Y-105484250D01*
X137522676Y-105484250D02*
X137617914Y-105579488D01*
X137617914Y-105579488D02*
X137665533Y-105674726D01*
X129837438Y-108597107D02*
X129789819Y-108692345D01*
X129789819Y-108692345D02*
X129789819Y-108835202D01*
X129789819Y-108835202D02*
X129837438Y-108978059D01*
X129837438Y-108978059D02*
X129932676Y-109073297D01*
X129932676Y-109073297D02*
X130027914Y-109120916D01*
X130027914Y-109120916D02*
X130218390Y-109168535D01*
X130218390Y-109168535D02*
X130361247Y-109168535D01*
X130361247Y-109168535D02*
X130551723Y-109120916D01*
X130551723Y-109120916D02*
X130646961Y-109073297D01*
X130646961Y-109073297D02*
X130742200Y-108978059D01*
X130742200Y-108978059D02*
X130789819Y-108835202D01*
X130789819Y-108835202D02*
X130789819Y-108739964D01*
X130789819Y-108739964D02*
X130742200Y-108597107D01*
X130742200Y-108597107D02*
X130694580Y-108549488D01*
X130694580Y-108549488D02*
X130361247Y-108549488D01*
X130361247Y-108549488D02*
X130361247Y-108739964D01*
X130789819Y-108120916D02*
X129789819Y-108120916D01*
X129789819Y-108120916D02*
X130789819Y-107549488D01*
X130789819Y-107549488D02*
X129789819Y-107549488D01*
X130789819Y-107073297D02*
X129789819Y-107073297D01*
X129789819Y-107073297D02*
X129789819Y-106835202D01*
X129789819Y-106835202D02*
X129837438Y-106692345D01*
X129837438Y-106692345D02*
X129932676Y-106597107D01*
X129932676Y-106597107D02*
X130027914Y-106549488D01*
X130027914Y-106549488D02*
X130218390Y-106501869D01*
X130218390Y-106501869D02*
X130361247Y-106501869D01*
X130361247Y-106501869D02*
X130551723Y-106549488D01*
X130551723Y-106549488D02*
X130646961Y-106597107D01*
X130646961Y-106597107D02*
X130742200Y-106692345D01*
X130742200Y-106692345D02*
X130789819Y-106835202D01*
X130789819Y-106835202D02*
X130789819Y-107073297D01*
X133272200Y-109198535D02*
X133319819Y-109055678D01*
X133319819Y-109055678D02*
X133319819Y-108817583D01*
X133319819Y-108817583D02*
X133272200Y-108722345D01*
X133272200Y-108722345D02*
X133224580Y-108674726D01*
X133224580Y-108674726D02*
X133129342Y-108627107D01*
X133129342Y-108627107D02*
X133034104Y-108627107D01*
X133034104Y-108627107D02*
X132938866Y-108674726D01*
X132938866Y-108674726D02*
X132891247Y-108722345D01*
X132891247Y-108722345D02*
X132843628Y-108817583D01*
X132843628Y-108817583D02*
X132796009Y-109008059D01*
X132796009Y-109008059D02*
X132748390Y-109103297D01*
X132748390Y-109103297D02*
X132700771Y-109150916D01*
X132700771Y-109150916D02*
X132605533Y-109198535D01*
X132605533Y-109198535D02*
X132510295Y-109198535D01*
X132510295Y-109198535D02*
X132415057Y-109150916D01*
X132415057Y-109150916D02*
X132367438Y-109103297D01*
X132367438Y-109103297D02*
X132319819Y-109008059D01*
X132319819Y-109008059D02*
X132319819Y-108769964D01*
X132319819Y-108769964D02*
X132367438Y-108627107D01*
X133224580Y-107627107D02*
X133272200Y-107674726D01*
X133272200Y-107674726D02*
X133319819Y-107817583D01*
X133319819Y-107817583D02*
X133319819Y-107912821D01*
X133319819Y-107912821D02*
X133272200Y-108055678D01*
X133272200Y-108055678D02*
X133176961Y-108150916D01*
X133176961Y-108150916D02*
X133081723Y-108198535D01*
X133081723Y-108198535D02*
X132891247Y-108246154D01*
X132891247Y-108246154D02*
X132748390Y-108246154D01*
X132748390Y-108246154D02*
X132557914Y-108198535D01*
X132557914Y-108198535D02*
X132462676Y-108150916D01*
X132462676Y-108150916D02*
X132367438Y-108055678D01*
X132367438Y-108055678D02*
X132319819Y-107912821D01*
X132319819Y-107912821D02*
X132319819Y-107817583D01*
X132319819Y-107817583D02*
X132367438Y-107674726D01*
X132367438Y-107674726D02*
X132415057Y-107627107D01*
X133319819Y-106722345D02*
X133319819Y-107198535D01*
X133319819Y-107198535D02*
X132319819Y-107198535D01*
X139909819Y-109216154D02*
X140909819Y-108549488D01*
X139909819Y-108549488D02*
X140909819Y-109216154D01*
X140862200Y-108216154D02*
X140909819Y-108073297D01*
X140909819Y-108073297D02*
X140909819Y-107835202D01*
X140909819Y-107835202D02*
X140862200Y-107739964D01*
X140862200Y-107739964D02*
X140814580Y-107692345D01*
X140814580Y-107692345D02*
X140719342Y-107644726D01*
X140719342Y-107644726D02*
X140624104Y-107644726D01*
X140624104Y-107644726D02*
X140528866Y-107692345D01*
X140528866Y-107692345D02*
X140481247Y-107739964D01*
X140481247Y-107739964D02*
X140433628Y-107835202D01*
X140433628Y-107835202D02*
X140386009Y-108025678D01*
X140386009Y-108025678D02*
X140338390Y-108120916D01*
X140338390Y-108120916D02*
X140290771Y-108168535D01*
X140290771Y-108168535D02*
X140195533Y-108216154D01*
X140195533Y-108216154D02*
X140100295Y-108216154D01*
X140100295Y-108216154D02*
X140005057Y-108168535D01*
X140005057Y-108168535D02*
X139957438Y-108120916D01*
X139957438Y-108120916D02*
X139909819Y-108025678D01*
X139909819Y-108025678D02*
X139909819Y-107787583D01*
X139909819Y-107787583D02*
X139957438Y-107644726D01*
X140909819Y-107216154D02*
X139909819Y-107216154D01*
X140386009Y-107216154D02*
X140386009Y-106644726D01*
X140909819Y-106644726D02*
X139909819Y-106644726D01*
X139909819Y-106168535D02*
X140719342Y-106168535D01*
X140719342Y-106168535D02*
X140814580Y-106120916D01*
X140814580Y-106120916D02*
X140862200Y-106073297D01*
X140862200Y-106073297D02*
X140909819Y-105978059D01*
X140909819Y-105978059D02*
X140909819Y-105787583D01*
X140909819Y-105787583D02*
X140862200Y-105692345D01*
X140862200Y-105692345D02*
X140814580Y-105644726D01*
X140814580Y-105644726D02*
X140719342Y-105597107D01*
X140719342Y-105597107D02*
X139909819Y-105597107D01*
X139909819Y-105263773D02*
X139909819Y-104692345D01*
X140909819Y-104978059D02*
X139909819Y-104978059D01*
X76742675Y-89921378D02*
X76409342Y-89445187D01*
X76171247Y-89921378D02*
X76171247Y-88921378D01*
X76171247Y-88921378D02*
X76552199Y-88921378D01*
X76552199Y-88921378D02*
X76647437Y-88968997D01*
X76647437Y-88968997D02*
X76695056Y-89016616D01*
X76695056Y-89016616D02*
X76742675Y-89111854D01*
X76742675Y-89111854D02*
X76742675Y-89254711D01*
X76742675Y-89254711D02*
X76695056Y-89349949D01*
X76695056Y-89349949D02*
X76647437Y-89397568D01*
X76647437Y-89397568D02*
X76552199Y-89445187D01*
X76552199Y-89445187D02*
X76171247Y-89445187D01*
X77123628Y-89016616D02*
X77171247Y-88968997D01*
X77171247Y-88968997D02*
X77266485Y-88921378D01*
X77266485Y-88921378D02*
X77504580Y-88921378D01*
X77504580Y-88921378D02*
X77599818Y-88968997D01*
X77599818Y-88968997D02*
X77647437Y-89016616D01*
X77647437Y-89016616D02*
X77695056Y-89111854D01*
X77695056Y-89111854D02*
X77695056Y-89207092D01*
X77695056Y-89207092D02*
X77647437Y-89349949D01*
X77647437Y-89349949D02*
X77076009Y-89921378D01*
X77076009Y-89921378D02*
X77695056Y-89921378D01*
X119833333Y-45554819D02*
X119500000Y-45078628D01*
X119261905Y-45554819D02*
X119261905Y-44554819D01*
X119261905Y-44554819D02*
X119642857Y-44554819D01*
X119642857Y-44554819D02*
X119738095Y-44602438D01*
X119738095Y-44602438D02*
X119785714Y-44650057D01*
X119785714Y-44650057D02*
X119833333Y-44745295D01*
X119833333Y-44745295D02*
X119833333Y-44888152D01*
X119833333Y-44888152D02*
X119785714Y-44983390D01*
X119785714Y-44983390D02*
X119738095Y-45031009D01*
X119738095Y-45031009D02*
X119642857Y-45078628D01*
X119642857Y-45078628D02*
X119261905Y-45078628D01*
X120166667Y-44554819D02*
X120785714Y-44554819D01*
X120785714Y-44554819D02*
X120452381Y-44935771D01*
X120452381Y-44935771D02*
X120595238Y-44935771D01*
X120595238Y-44935771D02*
X120690476Y-44983390D01*
X120690476Y-44983390D02*
X120738095Y-45031009D01*
X120738095Y-45031009D02*
X120785714Y-45126247D01*
X120785714Y-45126247D02*
X120785714Y-45364342D01*
X120785714Y-45364342D02*
X120738095Y-45459580D01*
X120738095Y-45459580D02*
X120690476Y-45507200D01*
X120690476Y-45507200D02*
X120595238Y-45554819D01*
X120595238Y-45554819D02*
X120309524Y-45554819D01*
X120309524Y-45554819D02*
X120214286Y-45507200D01*
X120214286Y-45507200D02*
X120166667Y-45459580D01*
X60630240Y-54359819D02*
X60296907Y-53883628D01*
X60058812Y-54359819D02*
X60058812Y-53359819D01*
X60058812Y-53359819D02*
X60439764Y-53359819D01*
X60439764Y-53359819D02*
X60535002Y-53407438D01*
X60535002Y-53407438D02*
X60582621Y-53455057D01*
X60582621Y-53455057D02*
X60630240Y-53550295D01*
X60630240Y-53550295D02*
X60630240Y-53693152D01*
X60630240Y-53693152D02*
X60582621Y-53788390D01*
X60582621Y-53788390D02*
X60535002Y-53836009D01*
X60535002Y-53836009D02*
X60439764Y-53883628D01*
X60439764Y-53883628D02*
X60058812Y-53883628D01*
X60915955Y-53359819D02*
X61249288Y-54359819D01*
X61249288Y-54359819D02*
X61582621Y-53359819D01*
X62439764Y-54359819D02*
X61868336Y-54359819D01*
X62154050Y-54359819D02*
X62154050Y-53359819D01*
X62154050Y-53359819D02*
X62058812Y-53502676D01*
X62058812Y-53502676D02*
X61963574Y-53597914D01*
X61963574Y-53597914D02*
X61868336Y-53645533D01*
D11*
X54410000Y-93350485D02*
X79410000Y-93350485D01*
X54410000Y-113350485D02*
X54410000Y-93350485D01*
X79410000Y-93350485D02*
X79410000Y-113350485D01*
X79410000Y-113350485D02*
X54410000Y-113350485D01*
D14*
X115905505Y-41851626D02*
X116675505Y-41851626D01*
X116675505Y-40481626D02*
X116675505Y-43221626D01*
X116675505Y-43221626D02*
X123215505Y-43221626D01*
X123215505Y-40481626D02*
X116675505Y-40481626D01*
X123215505Y-43221626D02*
X123215505Y-40481626D01*
X123985505Y-41851626D02*
X123215505Y-41851626D01*
X87503759Y-42240485D02*
X87503759Y-40240485D01*
X87823759Y-37430485D02*
X87823759Y-83150485D01*
D11*
X95203759Y-34740485D02*
X95203759Y-38990485D01*
X95203759Y-38990485D02*
X103703759Y-38990485D01*
X103703759Y-38990485D02*
X103703759Y-34740485D01*
D14*
X108253759Y-34780485D02*
X90473759Y-34780485D01*
X108253759Y-85800485D02*
X90473759Y-85800485D01*
X110903759Y-37430485D02*
X110903759Y-83150485D01*
X87823759Y-37430485D02*
G75*
G02*
X90473759Y-34780485I2650000J0D01*
G01*
X90473759Y-85800485D02*
G75*
G02*
X87823759Y-83150485I0J2650000D01*
G01*
X108253759Y-34780485D02*
G75*
G02*
X110903759Y-37430485I0J-2650000D01*
G01*
X110903759Y-83150485D02*
G75*
G02*
X108253759Y-85800485I-2650000J0D01*
G01*
X123780000Y-91431721D02*
X124550000Y-91431721D01*
X124550000Y-90061721D02*
X124550000Y-92801721D01*
X124550000Y-92801721D02*
X131090000Y-92801721D01*
X131090000Y-90061721D02*
X124550000Y-90061721D01*
X131090000Y-92801721D02*
X131090000Y-90061721D01*
X131860000Y-91431721D02*
X131090000Y-91431721D01*
D11*
X85663759Y-93350485D02*
X115663759Y-93350485D01*
X85663759Y-113350485D02*
X85663759Y-93350485D01*
X115663759Y-93350485D02*
X115663759Y-113350485D01*
X115663759Y-113350485D02*
X85663759Y-113350485D01*
D14*
X78210191Y-80650000D02*
X75560191Y-80650000D01*
X78210191Y-84950000D02*
X75560191Y-84950000D01*
X75560191Y-84950000D02*
G75*
G02*
X75532164Y-80667855I1350000J2150000D01*
G01*
X78210191Y-80650000D02*
G75*
G02*
X78235667Y-84934388I-1300000J-2150000D01*
G01*
X123780000Y-94931721D02*
X124550000Y-94931721D01*
X124550000Y-93561721D02*
X124550000Y-96301721D01*
X124550000Y-96301721D02*
X131090000Y-96301721D01*
X131090000Y-93561721D02*
X124550000Y-93561721D01*
X131090000Y-96301721D02*
X131090000Y-93561721D01*
X131860000Y-94931721D02*
X131090000Y-94931721D01*
X115905505Y-38639304D02*
X116675505Y-38639304D01*
X116675505Y-37269304D02*
X116675505Y-40009304D01*
X116675505Y-40009304D02*
X123215505Y-40009304D01*
X123215505Y-37269304D02*
X116675505Y-37269304D01*
X123215505Y-40009304D02*
X123215505Y-37269304D01*
X123985505Y-38639304D02*
X123215505Y-38639304D01*
X73195000Y-59554145D02*
X74525000Y-59554145D01*
X73195000Y-60884145D02*
X73195000Y-59554145D01*
X75795000Y-59554145D02*
X80935000Y-59554145D01*
X75795000Y-62214145D02*
X75795000Y-59554145D01*
X75795000Y-62214145D02*
X80935000Y-62214145D01*
X80935000Y-62214145D02*
X80935000Y-59554145D01*
X76210000Y-39154801D02*
X74979000Y-39154801D01*
X76210000Y-39194801D02*
X74983000Y-39194801D01*
X76210000Y-39234801D02*
X74988000Y-39234801D01*
X76210000Y-39274801D02*
X74994000Y-39274801D01*
X76210000Y-39314801D02*
X75000000Y-39314801D01*
X76210000Y-39354801D02*
X75008000Y-39354801D01*
X76210000Y-39394801D02*
X75016000Y-39394801D01*
X76210000Y-39434801D02*
X75025000Y-39434801D01*
X76210000Y-39474801D02*
X75034000Y-39474801D01*
X76210000Y-39514801D02*
X75045000Y-39514801D01*
X76210000Y-39554801D02*
X75056000Y-39554801D01*
X76210000Y-39594801D02*
X75068000Y-39594801D01*
X76210000Y-39634801D02*
X75082000Y-39634801D01*
X76210000Y-39675801D02*
X75096000Y-39675801D01*
X76210000Y-39715801D02*
X75110000Y-39715801D01*
X76210000Y-39755801D02*
X75126000Y-39755801D01*
X76210000Y-39795801D02*
X75143000Y-39795801D01*
X76210000Y-39835801D02*
X75161000Y-39835801D01*
X76210000Y-39875801D02*
X75180000Y-39875801D01*
X76210000Y-39915801D02*
X75199000Y-39915801D01*
X76210000Y-39955801D02*
X75220000Y-39955801D01*
X76210000Y-39995801D02*
X75242000Y-39995801D01*
X76210000Y-40035801D02*
X75265000Y-40035801D01*
X76210000Y-40075801D02*
X75290000Y-40075801D01*
X76210000Y-40115801D02*
X75315000Y-40115801D01*
X76210000Y-40155801D02*
X75342000Y-40155801D01*
X76210000Y-40195801D02*
X75370000Y-40195801D01*
X76210000Y-40235801D02*
X75400000Y-40235801D01*
X76210000Y-40275801D02*
X75431000Y-40275801D01*
X76210000Y-40315801D02*
X75463000Y-40315801D01*
X76210000Y-40355801D02*
X75498000Y-40355801D01*
X76210000Y-40395801D02*
X75534000Y-40395801D01*
X76210000Y-40435801D02*
X75572000Y-40435801D01*
X76210000Y-40475801D02*
X75612000Y-40475801D01*
X76210000Y-40515801D02*
X75654000Y-40515801D01*
X76210000Y-40555801D02*
X75699000Y-40555801D01*
X76210000Y-40595801D02*
X75746000Y-40595801D01*
X76210000Y-40635801D02*
X75796000Y-40635801D01*
X76210000Y-40675801D02*
X75850000Y-40675801D01*
X76210000Y-40715801D02*
X75908000Y-40715801D01*
X76210000Y-40755801D02*
X75970000Y-40755801D01*
X77420000Y-41035801D02*
X76680000Y-41035801D01*
X77587000Y-40995801D02*
X76513000Y-40995801D01*
X77714000Y-40955801D02*
X76386000Y-40955801D01*
X77818000Y-40915801D02*
X76282000Y-40915801D01*
X77909000Y-40875801D02*
X76191000Y-40875801D01*
X77990000Y-40835801D02*
X76110000Y-40835801D01*
X78063000Y-40795801D02*
X76037000Y-40795801D01*
X78130000Y-40755801D02*
X77890000Y-40755801D01*
X78170000Y-38144801D02*
X78170000Y-38544801D01*
X78192000Y-40715801D02*
X77890000Y-40715801D01*
X78250000Y-40675801D02*
X77890000Y-40675801D01*
X78304000Y-40635801D02*
X77890000Y-40635801D01*
X78354000Y-40595801D02*
X77890000Y-40595801D01*
X78370000Y-38344801D02*
X77970000Y-38344801D01*
X78401000Y-40555801D02*
X77890000Y-40555801D01*
X78446000Y-40515801D02*
X77890000Y-40515801D01*
X78488000Y-40475801D02*
X77890000Y-40475801D01*
X78528000Y-40435801D02*
X77890000Y-40435801D01*
X78566000Y-40395801D02*
X77890000Y-40395801D01*
X78602000Y-40355801D02*
X77890000Y-40355801D01*
X78637000Y-40315801D02*
X77890000Y-40315801D01*
X78669000Y-40275801D02*
X77890000Y-40275801D01*
X78700000Y-40235801D02*
X77890000Y-40235801D01*
X78730000Y-40195801D02*
X77890000Y-40195801D01*
X78758000Y-40155801D02*
X77890000Y-40155801D01*
X78785000Y-40115801D02*
X77890000Y-40115801D01*
X78810000Y-40075801D02*
X77890000Y-40075801D01*
X78835000Y-40035801D02*
X77890000Y-40035801D01*
X78858000Y-39995801D02*
X77890000Y-39995801D01*
X78880000Y-39955801D02*
X77890000Y-39955801D01*
X78901000Y-39915801D02*
X77890000Y-39915801D01*
X78920000Y-39875801D02*
X77890000Y-39875801D01*
X78939000Y-39835801D02*
X77890000Y-39835801D01*
X78957000Y-39795801D02*
X77890000Y-39795801D01*
X78974000Y-39755801D02*
X77890000Y-39755801D01*
X78990000Y-39715801D02*
X77890000Y-39715801D01*
X79004000Y-39675801D02*
X77890000Y-39675801D01*
X79018000Y-39634801D02*
X77890000Y-39634801D01*
X79032000Y-39594801D02*
X77890000Y-39594801D01*
X79044000Y-39554801D02*
X77890000Y-39554801D01*
X79055000Y-39514801D02*
X77890000Y-39514801D01*
X79066000Y-39474801D02*
X77890000Y-39474801D01*
X79075000Y-39434801D02*
X77890000Y-39434801D01*
X79084000Y-39394801D02*
X77890000Y-39394801D01*
X79092000Y-39354801D02*
X77890000Y-39354801D01*
X79100000Y-39314801D02*
X77890000Y-39314801D01*
X79106000Y-39274801D02*
X77890000Y-39274801D01*
X79112000Y-39234801D02*
X77890000Y-39234801D01*
X79117000Y-39194801D02*
X77890000Y-39194801D01*
X79121000Y-39154801D02*
X77890000Y-39154801D01*
X79124000Y-39114801D02*
X74976000Y-39114801D01*
X79127000Y-39074801D02*
X74973000Y-39074801D01*
X79129000Y-39034801D02*
X74971000Y-39034801D01*
X79130000Y-38954801D02*
X74970000Y-38954801D01*
X79130000Y-38994801D02*
X74970000Y-38994801D01*
X79170000Y-38954801D02*
G75*
G02*
X74930000Y-38954801I-2120000J0D01*
G01*
X74930000Y-38954801D02*
G75*
G02*
X79170000Y-38954801I2120000J0D01*
G01*
D11*
X54410000Y-67805710D02*
X68210000Y-67805710D01*
X68210000Y-88605710D01*
X54410000Y-88605710D01*
X54410000Y-67805710D01*
D14*
X136450000Y-90101721D02*
X137780000Y-90101721D01*
X136450000Y-91431721D02*
X136450000Y-90101721D01*
X139050000Y-90101721D02*
X146730000Y-90101721D01*
X139050000Y-92761721D02*
X139050000Y-90101721D01*
X139050000Y-92761721D02*
X146730000Y-92761721D01*
X146730000Y-92761721D02*
X146730000Y-90101721D01*
X73168431Y-63211586D02*
X74498431Y-63211586D01*
X73168431Y-64541586D02*
X73168431Y-63211586D01*
X75768431Y-63211586D02*
X80908431Y-63211586D01*
X75768431Y-65871586D02*
X75768431Y-63211586D01*
X75768431Y-65871586D02*
X80908431Y-65871586D01*
X80908431Y-65871586D02*
X80908431Y-63211586D01*
X129620000Y-39470934D02*
X129155000Y-39470934D01*
X132245000Y-39470934D02*
X131780000Y-39470934D01*
X129619173Y-44818749D02*
G75*
G02*
X129155170Y-39470934I1080827J2787815D01*
G01*
X129619571Y-44285413D02*
G75*
G02*
X129620000Y-39776250I1080429J2254479D01*
G01*
X131780000Y-39776250D02*
G75*
G02*
X131780429Y-44285413I-1080000J-2254684D01*
G01*
X132244830Y-39470934D02*
G75*
G02*
X131780827Y-44818749I-1544830J-2560000D01*
G01*
X73550000Y-48400000D02*
X73550000Y-49900000D01*
X74800000Y-52400000D02*
X79300000Y-52400000D01*
X79300000Y-45900000D02*
X74800000Y-45900000D01*
X80550000Y-49900000D02*
X80550000Y-48400000D01*
X85420000Y-88145000D02*
X86750000Y-88145000D01*
X85420000Y-89475000D02*
X85420000Y-88145000D01*
X88020000Y-88145000D02*
X90620000Y-88145000D01*
X88020000Y-90805000D02*
X88020000Y-88145000D01*
X88020000Y-90805000D02*
X90620000Y-90805000D01*
X90620000Y-90805000D02*
X90620000Y-88145000D01*
X137640000Y-37690000D02*
X137950000Y-37690000D01*
X137640000Y-46510000D02*
X137640000Y-37690000D01*
X137640000Y-46510000D02*
X137950000Y-46510000D01*
X141850000Y-37690000D02*
X142160000Y-37690000D01*
X142160000Y-37690000D02*
X142160000Y-46510000D01*
X142160000Y-46510000D02*
X141850000Y-46510000D01*
X142360000Y-40100000D02*
X142860000Y-40600000D01*
X142860000Y-39600000D02*
X142360000Y-40100000D01*
X142860000Y-40600000D02*
X142860000Y-39600000D01*
D11*
X121620000Y-106553841D02*
X126121768Y-106553841D01*
X146620000Y-106553841D02*
X142118232Y-106553841D01*
X126620000Y-101203841D02*
X141620000Y-101203841D01*
X141620000Y-111903841D01*
X126620000Y-111903841D01*
X126620000Y-101203841D01*
D14*
X72813101Y-89500000D02*
X73583101Y-89500000D01*
X73583101Y-88130000D02*
X73583101Y-90870000D01*
X73583101Y-90870000D02*
X80123101Y-90870000D01*
X80123101Y-88130000D02*
X73583101Y-88130000D01*
X80123101Y-90870000D02*
X80123101Y-88130000D01*
X80893101Y-89500000D02*
X80123101Y-89500000D01*
X115905505Y-45091349D02*
X116675505Y-45091349D01*
X116675505Y-43721349D02*
X116675505Y-46461349D01*
X116675505Y-46461349D02*
X123215505Y-46461349D01*
X123215505Y-43721349D02*
X116675505Y-43721349D01*
X123215505Y-46461349D02*
X123215505Y-43721349D01*
X123985505Y-45091349D02*
X123215505Y-45091349D01*
X55775479Y-48430000D02*
X55775479Y-51150000D01*
X55775479Y-55650000D02*
X55775479Y-60020000D01*
X57595479Y-60020000D02*
X55775479Y-60020000D01*
X66715479Y-48430000D02*
X55775479Y-48430000D01*
X66715479Y-48430000D02*
X66715479Y-51150000D01*
X66715479Y-55650000D02*
X66715479Y-60020000D01*
X66715479Y-60020000D02*
X64895479Y-60020000D01*
%LPC*%
D15*
X65640000Y-110800485D03*
X60560000Y-110800485D03*
X63100000Y-110800485D03*
X70750000Y-95800485D03*
X68210000Y-95800485D03*
X73260000Y-110800485D03*
X63130000Y-95800485D03*
X65670000Y-95800485D03*
X68180000Y-110800485D03*
X70720000Y-110800485D03*
X125025505Y-41851626D03*
D16*
X114865505Y-41851626D03*
D17*
X89503759Y-41240485D03*
D18*
X89503759Y-43780485D03*
X89503759Y-46320485D03*
X89503759Y-48860485D03*
X89503759Y-51400485D03*
X89503759Y-53940485D03*
X89503759Y-56480485D03*
X89503759Y-59020485D03*
X89503759Y-61560485D03*
X89503759Y-64100485D03*
X89503759Y-66640485D03*
X89503759Y-69180485D03*
X89503759Y-71720485D03*
X89503759Y-74260485D03*
X89503759Y-76800485D03*
X89503759Y-79340485D03*
X109223759Y-79340485D03*
X109223759Y-76800485D03*
X109223759Y-74260485D03*
X109223759Y-71720485D03*
X109223759Y-69180485D03*
X109223759Y-66640485D03*
X109223759Y-64100485D03*
X109223759Y-61560485D03*
X109223759Y-59020485D03*
X109223759Y-56480485D03*
X109223759Y-53940485D03*
X109223759Y-51400485D03*
D19*
X61461335Y-122498532D03*
D15*
X132900000Y-91431721D03*
D16*
X122740000Y-91431721D03*
X94363759Y-94550485D03*
X96903759Y-94550485D03*
X99443759Y-94550485D03*
X101983759Y-94550485D03*
X104523759Y-94550485D03*
X107063759Y-94550485D03*
X86723759Y-112300485D03*
X89263759Y-112300485D03*
X91803759Y-112300485D03*
X94343759Y-112300485D03*
X96883759Y-112300485D03*
X99423759Y-112300485D03*
X101963759Y-112300485D03*
X104503759Y-112300485D03*
X107043759Y-112300485D03*
X109583759Y-112300485D03*
X112123759Y-112300485D03*
X114663759Y-112300485D03*
D15*
X78160191Y-82800000D03*
X75620191Y-82800000D03*
D19*
X106318435Y-122574832D03*
D15*
X132900000Y-94931721D03*
D16*
X122740000Y-94931721D03*
D20*
X115700000Y-68642387D03*
D19*
X128747035Y-122574832D03*
D15*
X125025505Y-38639304D03*
D16*
X114865505Y-38639304D03*
D19*
X72675635Y-122574832D03*
X117532735Y-122574832D03*
D21*
X74525000Y-60884145D03*
D22*
X77065000Y-60884145D03*
X79605000Y-60884145D03*
D23*
X77050000Y-37954801D03*
D24*
X77050000Y-39954801D03*
D15*
X63850000Y-87090021D03*
X61310000Y-87090021D03*
X58770000Y-87090021D03*
D21*
X137780000Y-91431721D03*
D22*
X140320000Y-91431721D03*
X142860000Y-91431721D03*
X145400000Y-91431721D03*
D21*
X74498431Y-64541586D03*
D22*
X77038431Y-64541586D03*
X79578431Y-64541586D03*
D25*
X130700000Y-38792434D03*
D26*
X130700000Y-40951434D03*
X130700000Y-43110434D03*
X130700000Y-45269434D03*
D27*
X73800000Y-46900000D03*
X80300000Y-46900000D03*
X73800000Y-51400000D03*
X80300000Y-51400000D03*
D20*
X146639735Y-37198932D03*
X54639735Y-37198932D03*
D21*
X86750000Y-89475000D03*
D22*
X89290000Y-89475000D03*
D28*
X139900000Y-38000000D03*
X139900000Y-46200000D03*
D29*
X139900000Y-40100000D03*
D30*
X139900000Y-42100000D03*
X139900000Y-44100000D03*
D20*
X146605778Y-68600000D03*
X146639735Y-129198932D03*
D16*
X127740000Y-110727696D03*
X130280000Y-110727696D03*
X132820000Y-110727696D03*
X135360000Y-110727696D03*
X137900000Y-110727696D03*
X140440000Y-110727696D03*
D20*
X54639735Y-129198932D03*
D15*
X71773101Y-89500000D03*
D16*
X81933101Y-89500000D03*
D19*
X83889935Y-122574832D03*
D15*
X125025505Y-45091349D03*
D16*
X114865505Y-45091349D03*
D19*
X95104235Y-122574832D03*
D31*
X56495479Y-53400000D03*
X65995479Y-53400000D03*
D25*
X58745479Y-60900000D03*
D26*
X61245479Y-60900000D03*
X63745479Y-60900000D03*
D19*
X139961335Y-122464432D03*
%LPD*%
M02*
