M48
; DRILL file {KiCad 8.0.8} date 2025-02-15T15:02:02+0100
; FORMAT={-:-/ absolute / metric / decimal}
; #@! TF.CreationDate,2025-02-15T15:02:02+01:00
; #@! TF.GenerationSoftware,Kicad,Pcbnew,8.0.8
; #@! TF.FileFunction,Plated,1,2,PTH
FMAT,2
METRIC
; #@! TA.AperFunction,Plated,PTH,ComponentDrill
T1C0.600
; #@! TA.AperFunction,Plated,PTH,ComponentDrill
T2C0.762
; #@! TA.AperFunction,Plated,PTH,ComponentDrill
T3C0.800
; #@! TA.AperFunction,Plated,PTH,ComponentDrill
T4C0.900
; #@! TA.AperFunction,Plated,PTH,ComponentDrill
T5C1.000
; #@! TA.AperFunction,Plated,PTH,ComponentDrill
T6C1.100
; #@! TA.AperFunction,Plated,PTH,ComponentDrill
T7C1.500
; #@! TA.AperFunction,Plated,PTH,ComponentDrill
T8C2.000
%
G90
G05
T1
X77.05Y-37.955
X77.05Y-39.955
T2
X58.77Y-87.09
X61.31Y-87.09
X63.85Y-87.09
T3
X71.773Y-89.5
X75.62Y-82.8
X78.16Y-82.8
X81.933Y-89.5
X114.866Y-38.639
X114.866Y-41.852
X114.866Y-45.091
X122.74Y-91.432
X122.74Y-94.932
X125.026Y-38.639
X125.026Y-41.852
X125.026Y-45.091
X132.9Y-91.432
X132.9Y-94.932
X139.9Y-40.1
X139.9Y-42.1
X139.9Y-44.1
T4
X130.7Y-38.792
X130.7Y-40.951
X130.7Y-43.11
X130.7Y-45.269
T5
X58.745Y-60.9
X60.56Y-110.8
X61.245Y-60.9
X63.1Y-110.8
X63.13Y-95.8
X63.745Y-60.9
X65.64Y-110.8
X65.67Y-95.8
X68.18Y-110.8
X68.21Y-95.8
X70.72Y-110.8
X70.75Y-95.8
X73.26Y-110.8
X74.498Y-64.542
X74.525Y-60.884
X77.038Y-64.542
X77.065Y-60.884
X79.578Y-64.542
X79.605Y-60.884
X86.724Y-112.3
X86.75Y-89.475
X89.204Y-41.24
X89.204Y-43.78
X89.204Y-46.32
X89.204Y-48.86
X89.204Y-51.4
X89.204Y-53.94
X89.204Y-56.48
X89.204Y-59.02
X89.204Y-61.56
X89.204Y-64.1
X89.204Y-66.64
X89.204Y-69.18
X89.204Y-71.72
X89.204Y-74.26
X89.204Y-76.8
X89.204Y-79.34
X89.264Y-112.3
X89.29Y-89.475
X91.804Y-112.3
X94.344Y-112.3
X94.364Y-94.55
X96.884Y-112.3
X96.904Y-94.55
X99.424Y-112.3
X99.444Y-94.55
X101.964Y-112.3
X101.984Y-94.55
X104.504Y-112.3
X104.524Y-94.55
X107.044Y-112.3
X107.064Y-94.55
X109.524Y-51.4
X109.524Y-53.94
X109.524Y-56.48
X109.524Y-59.02
X109.524Y-61.56
X109.524Y-64.1
X109.524Y-66.64
X109.524Y-69.18
X109.524Y-71.72
X109.524Y-74.26
X109.524Y-76.8
X109.524Y-79.34
X109.584Y-112.3
X112.124Y-112.3
X114.664Y-112.3
X127.74Y-110.728
X130.28Y-110.728
X132.82Y-110.728
X135.36Y-110.728
X137.78Y-91.432
X137.9Y-110.728
X140.32Y-91.432
X140.44Y-110.728
X142.86Y-91.432
X145.4Y-91.432
T6
X73.8Y-46.9
X73.8Y-51.4
X80.3Y-46.9
X80.3Y-51.4
T7
X139.9Y-38.0
X139.9Y-46.2
T8
X56.495Y-53.4
X65.995Y-53.4
M30
