%TF.GenerationSoftware,KiCad,Pcbnew,8.0.8*%
%TF.CreationDate,2025-02-17T18:47:35+01:00*%
%TF.ProjectId,tesi,74657369-2e6b-4696-9361-645f70636258,rev?*%
%TF.SameCoordinates,Original*%
%TF.FileFunction,Drillmap*%
%TF.FilePolarity,Positive*%
%FSLAX45Y45*%
G04 Gerber Fmt 4.5, Leading zero omitted, Abs format (unit mm)*
G04 Created by KiCad (PCBNEW 8.0.8) date 2025-02-17 18:47:35*
%MOMM*%
%LPD*%
G01*
G04 APERTURE LIST*
%ADD10C,0.038100*%
%ADD11C,0.200000*%
%ADD12C,0.320000*%
G04 APERTURE END LIST*
D10*
X5066134Y-12912393D02*
X5066134Y-3712393D01*
X5466134Y-3312393D02*
X14666133Y-3312393D01*
X14666133Y-3312393D02*
G75*
G02*
X15066137Y-3712393I-4J-400007D01*
G01*
X14666133Y-13312393D02*
X5466134Y-13312393D01*
X5066134Y-3712393D02*
G75*
G02*
X5466134Y-3312393I399997J3D01*
G01*
X15066133Y-3712393D02*
X15066133Y-12912393D01*
X15066133Y-12912393D02*
G75*
G02*
X14666133Y-13312393I-400014J13D01*
G01*
X5466134Y-13312393D02*
G75*
G02*
X5066137Y-12912393I-4J399993D01*
G01*
D11*
D12*
X5303974Y-3559893D02*
X5623973Y-3879893D01*
X5623973Y-3559893D02*
X5303974Y-3879893D01*
X5303974Y-12759893D02*
X5623973Y-13079893D01*
X5623973Y-12759893D02*
X5303974Y-13079893D01*
X11405758Y-6444239D02*
X11725758Y-6764239D01*
X11725758Y-6444239D02*
X11405758Y-6764239D01*
X14496336Y-6440000D02*
X14816336Y-6760000D01*
X14816336Y-6440000D02*
X14496336Y-6760000D01*
X14503973Y-3559893D02*
X14823973Y-3879893D01*
X14823973Y-3559893D02*
X14503973Y-3879893D01*
X14503973Y-12759893D02*
X14823973Y-13079893D01*
X14823973Y-12759893D02*
X14503973Y-13079893D01*
D11*
X5325005Y-13625782D02*
X5325005Y-13425782D01*
X5325005Y-13425782D02*
X5372624Y-13425782D01*
X5372624Y-13425782D02*
X5401196Y-13435306D01*
X5401196Y-13435306D02*
X5420243Y-13454353D01*
X5420243Y-13454353D02*
X5429767Y-13473401D01*
X5429767Y-13473401D02*
X5439291Y-13511496D01*
X5439291Y-13511496D02*
X5439291Y-13540068D01*
X5439291Y-13540068D02*
X5429767Y-13578163D01*
X5429767Y-13578163D02*
X5420243Y-13597210D01*
X5420243Y-13597210D02*
X5401196Y-13616258D01*
X5401196Y-13616258D02*
X5372624Y-13625782D01*
X5372624Y-13625782D02*
X5325005Y-13625782D01*
X5525005Y-13625782D02*
X5525005Y-13492449D01*
X5525005Y-13530544D02*
X5534529Y-13511496D01*
X5534529Y-13511496D02*
X5544053Y-13501972D01*
X5544053Y-13501972D02*
X5563101Y-13492449D01*
X5563101Y-13492449D02*
X5582148Y-13492449D01*
X5648815Y-13625782D02*
X5648815Y-13492449D01*
X5648815Y-13425782D02*
X5639291Y-13435306D01*
X5639291Y-13435306D02*
X5648815Y-13444830D01*
X5648815Y-13444830D02*
X5658339Y-13435306D01*
X5658339Y-13435306D02*
X5648815Y-13425782D01*
X5648815Y-13425782D02*
X5648815Y-13444830D01*
X5772624Y-13625782D02*
X5753577Y-13616258D01*
X5753577Y-13616258D02*
X5744053Y-13597210D01*
X5744053Y-13597210D02*
X5744053Y-13425782D01*
X5877386Y-13625782D02*
X5858339Y-13616258D01*
X5858339Y-13616258D02*
X5848815Y-13597210D01*
X5848815Y-13597210D02*
X5848815Y-13425782D01*
X6105958Y-13625782D02*
X6105958Y-13425782D01*
X6105958Y-13425782D02*
X6172624Y-13568639D01*
X6172624Y-13568639D02*
X6239291Y-13425782D01*
X6239291Y-13425782D02*
X6239291Y-13625782D01*
X6420243Y-13625782D02*
X6420243Y-13521020D01*
X6420243Y-13521020D02*
X6410720Y-13501972D01*
X6410720Y-13501972D02*
X6391672Y-13492449D01*
X6391672Y-13492449D02*
X6353577Y-13492449D01*
X6353577Y-13492449D02*
X6334529Y-13501972D01*
X6420243Y-13616258D02*
X6401196Y-13625782D01*
X6401196Y-13625782D02*
X6353577Y-13625782D01*
X6353577Y-13625782D02*
X6334529Y-13616258D01*
X6334529Y-13616258D02*
X6325005Y-13597210D01*
X6325005Y-13597210D02*
X6325005Y-13578163D01*
X6325005Y-13578163D02*
X6334529Y-13559115D01*
X6334529Y-13559115D02*
X6353577Y-13549591D01*
X6353577Y-13549591D02*
X6401196Y-13549591D01*
X6401196Y-13549591D02*
X6420243Y-13540068D01*
X6515481Y-13492449D02*
X6515481Y-13692449D01*
X6515481Y-13501972D02*
X6534529Y-13492449D01*
X6534529Y-13492449D02*
X6572624Y-13492449D01*
X6572624Y-13492449D02*
X6591672Y-13501972D01*
X6591672Y-13501972D02*
X6601196Y-13511496D01*
X6601196Y-13511496D02*
X6610720Y-13530544D01*
X6610720Y-13530544D02*
X6610720Y-13587687D01*
X6610720Y-13587687D02*
X6601196Y-13606734D01*
X6601196Y-13606734D02*
X6591672Y-13616258D01*
X6591672Y-13616258D02*
X6572624Y-13625782D01*
X6572624Y-13625782D02*
X6534529Y-13625782D01*
X6534529Y-13625782D02*
X6515481Y-13616258D01*
X6696434Y-13606734D02*
X6705958Y-13616258D01*
X6705958Y-13616258D02*
X6696434Y-13625782D01*
X6696434Y-13625782D02*
X6686910Y-13616258D01*
X6686910Y-13616258D02*
X6696434Y-13606734D01*
X6696434Y-13606734D02*
X6696434Y-13625782D01*
X6696434Y-13501972D02*
X6705958Y-13511496D01*
X6705958Y-13511496D02*
X6696434Y-13521020D01*
X6696434Y-13521020D02*
X6686910Y-13511496D01*
X6686910Y-13511496D02*
X6696434Y-13501972D01*
X6696434Y-13501972D02*
X6696434Y-13521020D01*
X4864229Y-13854298D02*
X5064229Y-14054298D01*
X5064229Y-13854298D02*
X4864229Y-14054298D01*
X5305958Y-13845782D02*
X5429767Y-13845782D01*
X5429767Y-13845782D02*
X5363101Y-13921972D01*
X5363101Y-13921972D02*
X5391672Y-13921972D01*
X5391672Y-13921972D02*
X5410720Y-13931496D01*
X5410720Y-13931496D02*
X5420243Y-13941020D01*
X5420243Y-13941020D02*
X5429767Y-13960068D01*
X5429767Y-13960068D02*
X5429767Y-14007687D01*
X5429767Y-14007687D02*
X5420243Y-14026734D01*
X5420243Y-14026734D02*
X5410720Y-14036258D01*
X5410720Y-14036258D02*
X5391672Y-14045782D01*
X5391672Y-14045782D02*
X5334529Y-14045782D01*
X5334529Y-14045782D02*
X5315482Y-14036258D01*
X5315482Y-14036258D02*
X5305958Y-14026734D01*
X5515482Y-14026734D02*
X5525005Y-14036258D01*
X5525005Y-14036258D02*
X5515482Y-14045782D01*
X5515482Y-14045782D02*
X5505958Y-14036258D01*
X5505958Y-14036258D02*
X5515482Y-14026734D01*
X5515482Y-14026734D02*
X5515482Y-14045782D01*
X5601196Y-13864830D02*
X5610720Y-13855306D01*
X5610720Y-13855306D02*
X5629767Y-13845782D01*
X5629767Y-13845782D02*
X5677386Y-13845782D01*
X5677386Y-13845782D02*
X5696434Y-13855306D01*
X5696434Y-13855306D02*
X5705958Y-13864830D01*
X5705958Y-13864830D02*
X5715481Y-13883877D01*
X5715481Y-13883877D02*
X5715481Y-13902925D01*
X5715481Y-13902925D02*
X5705958Y-13931496D01*
X5705958Y-13931496D02*
X5591672Y-14045782D01*
X5591672Y-14045782D02*
X5715481Y-14045782D01*
X5839291Y-13845782D02*
X5858339Y-13845782D01*
X5858339Y-13845782D02*
X5877386Y-13855306D01*
X5877386Y-13855306D02*
X5886910Y-13864830D01*
X5886910Y-13864830D02*
X5896434Y-13883877D01*
X5896434Y-13883877D02*
X5905958Y-13921972D01*
X5905958Y-13921972D02*
X5905958Y-13969591D01*
X5905958Y-13969591D02*
X5896434Y-14007687D01*
X5896434Y-14007687D02*
X5886910Y-14026734D01*
X5886910Y-14026734D02*
X5877386Y-14036258D01*
X5877386Y-14036258D02*
X5858339Y-14045782D01*
X5858339Y-14045782D02*
X5839291Y-14045782D01*
X5839291Y-14045782D02*
X5820243Y-14036258D01*
X5820243Y-14036258D02*
X5810720Y-14026734D01*
X5810720Y-14026734D02*
X5801196Y-14007687D01*
X5801196Y-14007687D02*
X5791672Y-13969591D01*
X5791672Y-13969591D02*
X5791672Y-13921972D01*
X5791672Y-13921972D02*
X5801196Y-13883877D01*
X5801196Y-13883877D02*
X5810720Y-13864830D01*
X5810720Y-13864830D02*
X5820243Y-13855306D01*
X5820243Y-13855306D02*
X5839291Y-13845782D01*
X6029767Y-13845782D02*
X6048815Y-13845782D01*
X6048815Y-13845782D02*
X6067862Y-13855306D01*
X6067862Y-13855306D02*
X6077386Y-13864830D01*
X6077386Y-13864830D02*
X6086910Y-13883877D01*
X6086910Y-13883877D02*
X6096434Y-13921972D01*
X6096434Y-13921972D02*
X6096434Y-13969591D01*
X6096434Y-13969591D02*
X6086910Y-14007687D01*
X6086910Y-14007687D02*
X6077386Y-14026734D01*
X6077386Y-14026734D02*
X6067862Y-14036258D01*
X6067862Y-14036258D02*
X6048815Y-14045782D01*
X6048815Y-14045782D02*
X6029767Y-14045782D01*
X6029767Y-14045782D02*
X6010720Y-14036258D01*
X6010720Y-14036258D02*
X6001196Y-14026734D01*
X6001196Y-14026734D02*
X5991672Y-14007687D01*
X5991672Y-14007687D02*
X5982148Y-13969591D01*
X5982148Y-13969591D02*
X5982148Y-13921972D01*
X5982148Y-13921972D02*
X5991672Y-13883877D01*
X5991672Y-13883877D02*
X6001196Y-13864830D01*
X6001196Y-13864830D02*
X6010720Y-13855306D01*
X6010720Y-13855306D02*
X6029767Y-13845782D01*
X6182148Y-14045782D02*
X6182148Y-13912449D01*
X6182148Y-13931496D02*
X6191672Y-13921972D01*
X6191672Y-13921972D02*
X6210720Y-13912449D01*
X6210720Y-13912449D02*
X6239291Y-13912449D01*
X6239291Y-13912449D02*
X6258339Y-13921972D01*
X6258339Y-13921972D02*
X6267862Y-13941020D01*
X6267862Y-13941020D02*
X6267862Y-14045782D01*
X6267862Y-13941020D02*
X6277386Y-13921972D01*
X6277386Y-13921972D02*
X6296434Y-13912449D01*
X6296434Y-13912449D02*
X6325005Y-13912449D01*
X6325005Y-13912449D02*
X6344053Y-13921972D01*
X6344053Y-13921972D02*
X6353577Y-13941020D01*
X6353577Y-13941020D02*
X6353577Y-14045782D01*
X6448815Y-14045782D02*
X6448815Y-13912449D01*
X6448815Y-13931496D02*
X6458339Y-13921972D01*
X6458339Y-13921972D02*
X6477386Y-13912449D01*
X6477386Y-13912449D02*
X6505958Y-13912449D01*
X6505958Y-13912449D02*
X6525005Y-13921972D01*
X6525005Y-13921972D02*
X6534529Y-13941020D01*
X6534529Y-13941020D02*
X6534529Y-14045782D01*
X6534529Y-13941020D02*
X6544053Y-13921972D01*
X6544053Y-13921972D02*
X6563101Y-13912449D01*
X6563101Y-13912449D02*
X6591672Y-13912449D01*
X6591672Y-13912449D02*
X6610720Y-13921972D01*
X6610720Y-13921972D02*
X6620243Y-13941020D01*
X6620243Y-13941020D02*
X6620243Y-14045782D01*
X7010720Y-13836258D02*
X6839291Y-14093401D01*
X7267863Y-13845782D02*
X7286910Y-13845782D01*
X7286910Y-13845782D02*
X7305958Y-13855306D01*
X7305958Y-13855306D02*
X7315482Y-13864830D01*
X7315482Y-13864830D02*
X7325005Y-13883877D01*
X7325005Y-13883877D02*
X7334529Y-13921972D01*
X7334529Y-13921972D02*
X7334529Y-13969591D01*
X7334529Y-13969591D02*
X7325005Y-14007687D01*
X7325005Y-14007687D02*
X7315482Y-14026734D01*
X7315482Y-14026734D02*
X7305958Y-14036258D01*
X7305958Y-14036258D02*
X7286910Y-14045782D01*
X7286910Y-14045782D02*
X7267863Y-14045782D01*
X7267863Y-14045782D02*
X7248815Y-14036258D01*
X7248815Y-14036258D02*
X7239291Y-14026734D01*
X7239291Y-14026734D02*
X7229767Y-14007687D01*
X7229767Y-14007687D02*
X7220244Y-13969591D01*
X7220244Y-13969591D02*
X7220244Y-13921972D01*
X7220244Y-13921972D02*
X7229767Y-13883877D01*
X7229767Y-13883877D02*
X7239291Y-13864830D01*
X7239291Y-13864830D02*
X7248815Y-13855306D01*
X7248815Y-13855306D02*
X7267863Y-13845782D01*
X7420244Y-14026734D02*
X7429767Y-14036258D01*
X7429767Y-14036258D02*
X7420244Y-14045782D01*
X7420244Y-14045782D02*
X7410720Y-14036258D01*
X7410720Y-14036258D02*
X7420244Y-14026734D01*
X7420244Y-14026734D02*
X7420244Y-14045782D01*
X7620244Y-14045782D02*
X7505958Y-14045782D01*
X7563101Y-14045782D02*
X7563101Y-13845782D01*
X7563101Y-13845782D02*
X7544053Y-13874353D01*
X7544053Y-13874353D02*
X7525005Y-13893401D01*
X7525005Y-13893401D02*
X7505958Y-13902925D01*
X7696434Y-13864830D02*
X7705958Y-13855306D01*
X7705958Y-13855306D02*
X7725005Y-13845782D01*
X7725005Y-13845782D02*
X7772625Y-13845782D01*
X7772625Y-13845782D02*
X7791672Y-13855306D01*
X7791672Y-13855306D02*
X7801196Y-13864830D01*
X7801196Y-13864830D02*
X7810720Y-13883877D01*
X7810720Y-13883877D02*
X7810720Y-13902925D01*
X7810720Y-13902925D02*
X7801196Y-13931496D01*
X7801196Y-13931496D02*
X7686910Y-14045782D01*
X7686910Y-14045782D02*
X7810720Y-14045782D01*
X7982148Y-13845782D02*
X7944053Y-13845782D01*
X7944053Y-13845782D02*
X7925005Y-13855306D01*
X7925005Y-13855306D02*
X7915482Y-13864830D01*
X7915482Y-13864830D02*
X7896434Y-13893401D01*
X7896434Y-13893401D02*
X7886910Y-13931496D01*
X7886910Y-13931496D02*
X7886910Y-14007687D01*
X7886910Y-14007687D02*
X7896434Y-14026734D01*
X7896434Y-14026734D02*
X7905958Y-14036258D01*
X7905958Y-14036258D02*
X7925005Y-14045782D01*
X7925005Y-14045782D02*
X7963101Y-14045782D01*
X7963101Y-14045782D02*
X7982148Y-14036258D01*
X7982148Y-14036258D02*
X7991672Y-14026734D01*
X7991672Y-14026734D02*
X8001196Y-14007687D01*
X8001196Y-14007687D02*
X8001196Y-13960068D01*
X8001196Y-13960068D02*
X7991672Y-13941020D01*
X7991672Y-13941020D02*
X7982148Y-13931496D01*
X7982148Y-13931496D02*
X7963101Y-13921972D01*
X7963101Y-13921972D02*
X7925005Y-13921972D01*
X7925005Y-13921972D02*
X7905958Y-13931496D01*
X7905958Y-13931496D02*
X7896434Y-13941020D01*
X7896434Y-13941020D02*
X7886910Y-13960068D01*
X8125005Y-13845782D02*
X8144053Y-13845782D01*
X8144053Y-13845782D02*
X8163101Y-13855306D01*
X8163101Y-13855306D02*
X8172625Y-13864830D01*
X8172625Y-13864830D02*
X8182148Y-13883877D01*
X8182148Y-13883877D02*
X8191672Y-13921972D01*
X8191672Y-13921972D02*
X8191672Y-13969591D01*
X8191672Y-13969591D02*
X8182148Y-14007687D01*
X8182148Y-14007687D02*
X8172625Y-14026734D01*
X8172625Y-14026734D02*
X8163101Y-14036258D01*
X8163101Y-14036258D02*
X8144053Y-14045782D01*
X8144053Y-14045782D02*
X8125005Y-14045782D01*
X8125005Y-14045782D02*
X8105958Y-14036258D01*
X8105958Y-14036258D02*
X8096434Y-14026734D01*
X8096434Y-14026734D02*
X8086910Y-14007687D01*
X8086910Y-14007687D02*
X8077386Y-13969591D01*
X8077386Y-13969591D02*
X8077386Y-13921972D01*
X8077386Y-13921972D02*
X8086910Y-13883877D01*
X8086910Y-13883877D02*
X8096434Y-13864830D01*
X8096434Y-13864830D02*
X8105958Y-13855306D01*
X8105958Y-13855306D02*
X8125005Y-13845782D01*
X8267863Y-13845782D02*
X8267863Y-13883877D01*
X8344053Y-13845782D02*
X8344053Y-13883877D01*
X8639291Y-14121972D02*
X8629768Y-14112449D01*
X8629768Y-14112449D02*
X8610720Y-14083877D01*
X8610720Y-14083877D02*
X8601196Y-14064830D01*
X8601196Y-14064830D02*
X8591672Y-14036258D01*
X8591672Y-14036258D02*
X8582149Y-13988639D01*
X8582149Y-13988639D02*
X8582149Y-13950544D01*
X8582149Y-13950544D02*
X8591672Y-13902925D01*
X8591672Y-13902925D02*
X8601196Y-13874353D01*
X8601196Y-13874353D02*
X8610720Y-13855306D01*
X8610720Y-13855306D02*
X8629768Y-13826734D01*
X8629768Y-13826734D02*
X8639291Y-13817210D01*
X8801196Y-13845782D02*
X8763101Y-13845782D01*
X8763101Y-13845782D02*
X8744053Y-13855306D01*
X8744053Y-13855306D02*
X8734529Y-13864830D01*
X8734529Y-13864830D02*
X8715482Y-13893401D01*
X8715482Y-13893401D02*
X8705958Y-13931496D01*
X8705958Y-13931496D02*
X8705958Y-14007687D01*
X8705958Y-14007687D02*
X8715482Y-14026734D01*
X8715482Y-14026734D02*
X8725006Y-14036258D01*
X8725006Y-14036258D02*
X8744053Y-14045782D01*
X8744053Y-14045782D02*
X8782149Y-14045782D01*
X8782149Y-14045782D02*
X8801196Y-14036258D01*
X8801196Y-14036258D02*
X8810720Y-14026734D01*
X8810720Y-14026734D02*
X8820244Y-14007687D01*
X8820244Y-14007687D02*
X8820244Y-13960068D01*
X8820244Y-13960068D02*
X8810720Y-13941020D01*
X8810720Y-13941020D02*
X8801196Y-13931496D01*
X8801196Y-13931496D02*
X8782149Y-13921972D01*
X8782149Y-13921972D02*
X8744053Y-13921972D01*
X8744053Y-13921972D02*
X8725006Y-13931496D01*
X8725006Y-13931496D02*
X8715482Y-13941020D01*
X8715482Y-13941020D02*
X8705958Y-13960068D01*
X9058339Y-14045782D02*
X9058339Y-13845782D01*
X9144053Y-14045782D02*
X9144053Y-13941020D01*
X9144053Y-13941020D02*
X9134530Y-13921972D01*
X9134530Y-13921972D02*
X9115482Y-13912449D01*
X9115482Y-13912449D02*
X9086910Y-13912449D01*
X9086910Y-13912449D02*
X9067863Y-13921972D01*
X9067863Y-13921972D02*
X9058339Y-13931496D01*
X9267863Y-14045782D02*
X9248815Y-14036258D01*
X9248815Y-14036258D02*
X9239291Y-14026734D01*
X9239291Y-14026734D02*
X9229768Y-14007687D01*
X9229768Y-14007687D02*
X9229768Y-13950544D01*
X9229768Y-13950544D02*
X9239291Y-13931496D01*
X9239291Y-13931496D02*
X9248815Y-13921972D01*
X9248815Y-13921972D02*
X9267863Y-13912449D01*
X9267863Y-13912449D02*
X9296434Y-13912449D01*
X9296434Y-13912449D02*
X9315482Y-13921972D01*
X9315482Y-13921972D02*
X9325006Y-13931496D01*
X9325006Y-13931496D02*
X9334530Y-13950544D01*
X9334530Y-13950544D02*
X9334530Y-14007687D01*
X9334530Y-14007687D02*
X9325006Y-14026734D01*
X9325006Y-14026734D02*
X9315482Y-14036258D01*
X9315482Y-14036258D02*
X9296434Y-14045782D01*
X9296434Y-14045782D02*
X9267863Y-14045782D01*
X9448815Y-14045782D02*
X9429768Y-14036258D01*
X9429768Y-14036258D02*
X9420244Y-14017210D01*
X9420244Y-14017210D02*
X9420244Y-13845782D01*
X9601196Y-14036258D02*
X9582149Y-14045782D01*
X9582149Y-14045782D02*
X9544053Y-14045782D01*
X9544053Y-14045782D02*
X9525006Y-14036258D01*
X9525006Y-14036258D02*
X9515482Y-14017210D01*
X9515482Y-14017210D02*
X9515482Y-13941020D01*
X9515482Y-13941020D02*
X9525006Y-13921972D01*
X9525006Y-13921972D02*
X9544053Y-13912449D01*
X9544053Y-13912449D02*
X9582149Y-13912449D01*
X9582149Y-13912449D02*
X9601196Y-13921972D01*
X9601196Y-13921972D02*
X9610720Y-13941020D01*
X9610720Y-13941020D02*
X9610720Y-13960068D01*
X9610720Y-13960068D02*
X9515482Y-13979115D01*
X9686911Y-14036258D02*
X9705958Y-14045782D01*
X9705958Y-14045782D02*
X9744053Y-14045782D01*
X9744053Y-14045782D02*
X9763101Y-14036258D01*
X9763101Y-14036258D02*
X9772625Y-14017210D01*
X9772625Y-14017210D02*
X9772625Y-14007687D01*
X9772625Y-14007687D02*
X9763101Y-13988639D01*
X9763101Y-13988639D02*
X9744053Y-13979115D01*
X9744053Y-13979115D02*
X9715482Y-13979115D01*
X9715482Y-13979115D02*
X9696434Y-13969591D01*
X9696434Y-13969591D02*
X9686911Y-13950544D01*
X9686911Y-13950544D02*
X9686911Y-13941020D01*
X9686911Y-13941020D02*
X9696434Y-13921972D01*
X9696434Y-13921972D02*
X9715482Y-13912449D01*
X9715482Y-13912449D02*
X9744053Y-13912449D01*
X9744053Y-13912449D02*
X9763101Y-13921972D01*
X9839292Y-14121972D02*
X9848815Y-14112449D01*
X9848815Y-14112449D02*
X9867863Y-14083877D01*
X9867863Y-14083877D02*
X9877387Y-14064830D01*
X9877387Y-14064830D02*
X9886911Y-14036258D01*
X9886911Y-14036258D02*
X9896434Y-13988639D01*
X9896434Y-13988639D02*
X9896434Y-13950544D01*
X9896434Y-13950544D02*
X9886911Y-13902925D01*
X9886911Y-13902925D02*
X9877387Y-13874353D01*
X9877387Y-13874353D02*
X9867863Y-13855306D01*
X9867863Y-13855306D02*
X9848815Y-13826734D01*
X9848815Y-13826734D02*
X9839292Y-13817210D01*
X10201196Y-14121972D02*
X10191672Y-14112449D01*
X10191672Y-14112449D02*
X10172625Y-14083877D01*
X10172625Y-14083877D02*
X10163101Y-14064830D01*
X10163101Y-14064830D02*
X10153577Y-14036258D01*
X10153577Y-14036258D02*
X10144053Y-13988639D01*
X10144053Y-13988639D02*
X10144053Y-13950544D01*
X10144053Y-13950544D02*
X10153577Y-13902925D01*
X10153577Y-13902925D02*
X10163101Y-13874353D01*
X10163101Y-13874353D02*
X10172625Y-13855306D01*
X10172625Y-13855306D02*
X10191672Y-13826734D01*
X10191672Y-13826734D02*
X10201196Y-13817210D01*
X10277387Y-13912449D02*
X10277387Y-14045782D01*
X10277387Y-13931496D02*
X10286911Y-13921972D01*
X10286911Y-13921972D02*
X10305958Y-13912449D01*
X10305958Y-13912449D02*
X10334530Y-13912449D01*
X10334530Y-13912449D02*
X10353577Y-13921972D01*
X10353577Y-13921972D02*
X10363101Y-13941020D01*
X10363101Y-13941020D02*
X10363101Y-14045782D01*
X10486911Y-14045782D02*
X10467863Y-14036258D01*
X10467863Y-14036258D02*
X10458339Y-14026734D01*
X10458339Y-14026734D02*
X10448815Y-14007687D01*
X10448815Y-14007687D02*
X10448815Y-13950544D01*
X10448815Y-13950544D02*
X10458339Y-13931496D01*
X10458339Y-13931496D02*
X10467863Y-13921972D01*
X10467863Y-13921972D02*
X10486911Y-13912449D01*
X10486911Y-13912449D02*
X10515482Y-13912449D01*
X10515482Y-13912449D02*
X10534530Y-13921972D01*
X10534530Y-13921972D02*
X10544053Y-13931496D01*
X10544053Y-13931496D02*
X10553577Y-13950544D01*
X10553577Y-13950544D02*
X10553577Y-14007687D01*
X10553577Y-14007687D02*
X10544053Y-14026734D01*
X10544053Y-14026734D02*
X10534530Y-14036258D01*
X10534530Y-14036258D02*
X10515482Y-14045782D01*
X10515482Y-14045782D02*
X10486911Y-14045782D01*
X10610720Y-13912449D02*
X10686911Y-13912449D01*
X10639292Y-13845782D02*
X10639292Y-14017210D01*
X10639292Y-14017210D02*
X10648815Y-14036258D01*
X10648815Y-14036258D02*
X10667863Y-14045782D01*
X10667863Y-14045782D02*
X10686911Y-14045782D01*
X10905958Y-13912449D02*
X10905958Y-14112449D01*
X10905958Y-13921972D02*
X10925006Y-13912449D01*
X10925006Y-13912449D02*
X10963101Y-13912449D01*
X10963101Y-13912449D02*
X10982149Y-13921972D01*
X10982149Y-13921972D02*
X10991673Y-13931496D01*
X10991673Y-13931496D02*
X11001196Y-13950544D01*
X11001196Y-13950544D02*
X11001196Y-14007687D01*
X11001196Y-14007687D02*
X10991673Y-14026734D01*
X10991673Y-14026734D02*
X10982149Y-14036258D01*
X10982149Y-14036258D02*
X10963101Y-14045782D01*
X10963101Y-14045782D02*
X10925006Y-14045782D01*
X10925006Y-14045782D02*
X10905958Y-14036258D01*
X11115482Y-14045782D02*
X11096434Y-14036258D01*
X11096434Y-14036258D02*
X11086911Y-14017210D01*
X11086911Y-14017210D02*
X11086911Y-13845782D01*
X11277387Y-14045782D02*
X11277387Y-13941020D01*
X11277387Y-13941020D02*
X11267863Y-13921972D01*
X11267863Y-13921972D02*
X11248815Y-13912449D01*
X11248815Y-13912449D02*
X11210720Y-13912449D01*
X11210720Y-13912449D02*
X11191672Y-13921972D01*
X11277387Y-14036258D02*
X11258339Y-14045782D01*
X11258339Y-14045782D02*
X11210720Y-14045782D01*
X11210720Y-14045782D02*
X11191672Y-14036258D01*
X11191672Y-14036258D02*
X11182149Y-14017210D01*
X11182149Y-14017210D02*
X11182149Y-13998163D01*
X11182149Y-13998163D02*
X11191672Y-13979115D01*
X11191672Y-13979115D02*
X11210720Y-13969591D01*
X11210720Y-13969591D02*
X11258339Y-13969591D01*
X11258339Y-13969591D02*
X11277387Y-13960068D01*
X11344053Y-13912449D02*
X11420244Y-13912449D01*
X11372625Y-13845782D02*
X11372625Y-14017210D01*
X11372625Y-14017210D02*
X11382149Y-14036258D01*
X11382149Y-14036258D02*
X11401196Y-14045782D01*
X11401196Y-14045782D02*
X11420244Y-14045782D01*
X11563101Y-14036258D02*
X11544053Y-14045782D01*
X11544053Y-14045782D02*
X11505958Y-14045782D01*
X11505958Y-14045782D02*
X11486911Y-14036258D01*
X11486911Y-14036258D02*
X11477387Y-14017210D01*
X11477387Y-14017210D02*
X11477387Y-13941020D01*
X11477387Y-13941020D02*
X11486911Y-13921972D01*
X11486911Y-13921972D02*
X11505958Y-13912449D01*
X11505958Y-13912449D02*
X11544053Y-13912449D01*
X11544053Y-13912449D02*
X11563101Y-13921972D01*
X11563101Y-13921972D02*
X11572625Y-13941020D01*
X11572625Y-13941020D02*
X11572625Y-13960068D01*
X11572625Y-13960068D02*
X11477387Y-13979115D01*
X11744053Y-14045782D02*
X11744053Y-13845782D01*
X11744053Y-14036258D02*
X11725006Y-14045782D01*
X11725006Y-14045782D02*
X11686911Y-14045782D01*
X11686911Y-14045782D02*
X11667863Y-14036258D01*
X11667863Y-14036258D02*
X11658339Y-14026734D01*
X11658339Y-14026734D02*
X11648815Y-14007687D01*
X11648815Y-14007687D02*
X11648815Y-13950544D01*
X11648815Y-13950544D02*
X11658339Y-13931496D01*
X11658339Y-13931496D02*
X11667863Y-13921972D01*
X11667863Y-13921972D02*
X11686911Y-13912449D01*
X11686911Y-13912449D02*
X11725006Y-13912449D01*
X11725006Y-13912449D02*
X11744053Y-13921972D01*
X11820244Y-14121972D02*
X11829768Y-14112449D01*
X11829768Y-14112449D02*
X11848815Y-14083877D01*
X11848815Y-14083877D02*
X11858339Y-14064830D01*
X11858339Y-14064830D02*
X11867863Y-14036258D01*
X11867863Y-14036258D02*
X11877387Y-13988639D01*
X11877387Y-13988639D02*
X11877387Y-13950544D01*
X11877387Y-13950544D02*
X11867863Y-13902925D01*
X11867863Y-13902925D02*
X11858339Y-13874353D01*
X11858339Y-13874353D02*
X11848815Y-13855306D01*
X11848815Y-13855306D02*
X11829768Y-13826734D01*
X11829768Y-13826734D02*
X11820244Y-13817210D01*
M02*
