%TF.GenerationSoftware,KiCad,Pcbnew,8.0.8*%
%TF.CreationDate,2025-02-17T18:47:35+01:00*%
%TF.ProjectId,tesi,74657369-2e6b-4696-9361-645f70636258,rev?*%
%TF.SameCoordinates,Original*%
%TF.FileFunction,Drillmap*%
%TF.FilePolarity,Positive*%
%FSLAX45Y45*%
G04 Gerber Fmt 4.5, Leading zero omitted, Abs format (unit mm)*
G04 Created by KiCad (PCBNEW 8.0.8) date 2025-02-17 18:47:35*
%MOMM*%
%LPD*%
G01*
G04 APERTURE LIST*
%ADD10C,0.038100*%
%ADD11C,0.200000*%
%ADD12C,0.100000*%
%ADD13C,0.110000*%
%ADD14C,0.150000*%
G04 APERTURE END LIST*
D10*
X5066134Y-12912393D02*
X5066134Y-3712393D01*
X5466134Y-3312393D02*
X14666133Y-3312393D01*
X14666133Y-3312393D02*
G75*
G02*
X15066137Y-3712393I-4J-400007D01*
G01*
X14666133Y-13312393D02*
X5466134Y-13312393D01*
X5066134Y-3712393D02*
G75*
G02*
X5466134Y-3312393I399997J3D01*
G01*
X15066133Y-3712393D02*
X15066133Y-12912393D01*
X15066133Y-12912393D02*
G75*
G02*
X14666133Y-13312393I-400014J13D01*
G01*
X5466134Y-13312393D02*
G75*
G02*
X5066137Y-12912393I-4J399993D01*
G01*
D11*
D12*
X7655188Y-3689893D02*
X7715188Y-3749893D01*
X7715188Y-3689893D02*
X7655188Y-3749893D01*
X7855188Y-3689893D02*
X7915188Y-3749893D01*
X7915188Y-3689893D02*
X7855188Y-3749893D01*
X5915100Y-6755931D02*
G75*
G02*
X5838900Y-6755931I-38100J0D01*
G01*
X5838900Y-6755931D02*
G75*
G02*
X5915100Y-6755931I38100J0D01*
G01*
X6169100Y-6755931D02*
G75*
G02*
X6092900Y-6755931I-38100J0D01*
G01*
X6092900Y-6755931D02*
G75*
G02*
X6169100Y-6755931I38100J0D01*
G01*
X6423100Y-6755931D02*
G75*
G02*
X6346900Y-6755931I-38100J0D01*
G01*
X6346900Y-6755931D02*
G75*
G02*
X6423100Y-6755931I38100J0D01*
G01*
X7277188Y-8910000D02*
X7277188Y-8990000D01*
X7237188Y-8950000D02*
X7317188Y-8950000D01*
X7535188Y-4251049D02*
X7535188Y-4331049D01*
X7495188Y-4291049D02*
X7575188Y-4291049D01*
X7658188Y-8160000D02*
X7658188Y-8240000D01*
X7618188Y-8200000D02*
X7698188Y-8200000D01*
X7912188Y-8160000D02*
X7912188Y-8240000D01*
X7872188Y-8200000D02*
X7952188Y-8200000D01*
X8035188Y-4251049D02*
X8035188Y-4331049D01*
X7995188Y-4291049D02*
X8075188Y-4291049D01*
X8293188Y-8910000D02*
X8293188Y-8990000D01*
X8253188Y-8950000D02*
X8333188Y-8950000D01*
X9944000Y-8910577D02*
X9944000Y-8990577D01*
X9904000Y-8950577D02*
X9984000Y-8950577D01*
X10960000Y-8910577D02*
X10960000Y-8990577D01*
X10920000Y-8950577D02*
X11000000Y-8950577D01*
X11444000Y-8910000D02*
X11444000Y-8990000D01*
X11404000Y-8950000D02*
X11484000Y-8950000D01*
X11446550Y-3670000D02*
X11446550Y-3750000D01*
X11406550Y-3710000D02*
X11486550Y-3710000D01*
X11446550Y-3970000D02*
X11446550Y-4050000D01*
X11406550Y-4010000D02*
X11486550Y-4010000D01*
X11446550Y-4270000D02*
X11446550Y-4350000D01*
X11406550Y-4310000D02*
X11486550Y-4310000D01*
X12460000Y-8910000D02*
X12460000Y-8990000D01*
X12420000Y-8950000D02*
X12500000Y-8950000D01*
X12462550Y-3670000D02*
X12462550Y-3750000D01*
X12422550Y-3710000D02*
X12502550Y-3710000D01*
X12462550Y-3970000D02*
X12462550Y-4050000D01*
X12422550Y-4010000D02*
X12502550Y-4010000D01*
X12462550Y-4270000D02*
X12462550Y-4350000D01*
X12422550Y-4310000D02*
X12502550Y-4310000D01*
X13950000Y-3769048D02*
X13950000Y-3849048D01*
X13910000Y-3809048D02*
X13990000Y-3809048D01*
X13950000Y-3969048D02*
X13950000Y-4049048D01*
X13910000Y-4009048D02*
X13990000Y-4009048D01*
X13950000Y-4169048D02*
X13950000Y-4249049D01*
X13910000Y-4209049D02*
X13990000Y-4209049D01*
X13061820Y-3716869D02*
X13061820Y-3653228D01*
X12998180Y-3653228D01*
X12998180Y-3716869D01*
X13061820Y-3716869D01*
X13061820Y-3932769D02*
X13061820Y-3869128D01*
X12998180Y-3869128D01*
X12998180Y-3932769D01*
X13061820Y-3932769D01*
X13061820Y-4148669D02*
X13061820Y-4085028D01*
X12998180Y-4085028D01*
X12998180Y-4148669D01*
X13061820Y-4148669D01*
X13061820Y-4364569D02*
X13061820Y-4300928D01*
X12998180Y-4300928D01*
X12998180Y-4364569D01*
X13061820Y-4364569D01*
X5850000Y-9000000D02*
X5900000Y-8950000D01*
X5850000Y-8900000D01*
X5800000Y-8950000D01*
X5850000Y-9000000D01*
X6056000Y-11130049D02*
X6106000Y-11080049D01*
X6056000Y-11030049D01*
X6006000Y-11080049D01*
X6056000Y-11130049D01*
X6100000Y-9000000D02*
X6150000Y-8950000D01*
X6100000Y-8900000D01*
X6050000Y-8950000D01*
X6100000Y-9000000D01*
X6310000Y-11130049D02*
X6360000Y-11080049D01*
X6310000Y-11030049D01*
X6260000Y-11080049D01*
X6310000Y-11130049D01*
X6313000Y-9630049D02*
X6363000Y-9580049D01*
X6313000Y-9530049D01*
X6263000Y-9580049D01*
X6313000Y-9630049D01*
X6350000Y-9000000D02*
X6400000Y-8950000D01*
X6350000Y-8900000D01*
X6300000Y-8950000D01*
X6350000Y-9000000D01*
X6564000Y-11130049D02*
X6614000Y-11080049D01*
X6564000Y-11030049D01*
X6514000Y-11080049D01*
X6564000Y-11130049D01*
X6567000Y-9630049D02*
X6617000Y-9580049D01*
X6567000Y-9530049D01*
X6517000Y-9580049D01*
X6567000Y-9630049D01*
X6818000Y-11130049D02*
X6868000Y-11080049D01*
X6818000Y-11030049D01*
X6768000Y-11080049D01*
X6818000Y-11130049D01*
X6821000Y-9630049D02*
X6871000Y-9580049D01*
X6821000Y-9530049D01*
X6771000Y-9580049D01*
X6821000Y-9630049D01*
X7072000Y-11130049D02*
X7122000Y-11080049D01*
X7072000Y-11030049D01*
X7022000Y-11080049D01*
X7072000Y-11130049D01*
X7075000Y-9630049D02*
X7125000Y-9580049D01*
X7075000Y-9530049D01*
X7025000Y-9580049D01*
X7075000Y-9630049D01*
X7326000Y-11130049D02*
X7376000Y-11080049D01*
X7326000Y-11030049D01*
X7276000Y-11080049D01*
X7326000Y-11130049D01*
X8671000Y-8997500D02*
X8721000Y-8947500D01*
X8671000Y-8897500D01*
X8621000Y-8947500D01*
X8671000Y-8997500D01*
X8672376Y-11280048D02*
X8722376Y-11230048D01*
X8672376Y-11180049D01*
X8622376Y-11230048D01*
X8672376Y-11280048D01*
X8920376Y-4174048D02*
X8970376Y-4124048D01*
X8920376Y-4074048D01*
X8870376Y-4124048D01*
X8920376Y-4174048D01*
X8920376Y-4428049D02*
X8970376Y-4378049D01*
X8920376Y-4328049D01*
X8870376Y-4378049D01*
X8920376Y-4428049D01*
X8920376Y-4682049D02*
X8970376Y-4632049D01*
X8920376Y-4582049D01*
X8870376Y-4632049D01*
X8920376Y-4682049D01*
X8920376Y-4936049D02*
X8970376Y-4886049D01*
X8920376Y-4836049D01*
X8870376Y-4886049D01*
X8920376Y-4936049D01*
X8920376Y-5190049D02*
X8970376Y-5140049D01*
X8920376Y-5090049D01*
X8870376Y-5140049D01*
X8920376Y-5190049D01*
X8920376Y-5444049D02*
X8970376Y-5394049D01*
X8920376Y-5344049D01*
X8870376Y-5394049D01*
X8920376Y-5444049D01*
X8920376Y-5698048D02*
X8970376Y-5648048D01*
X8920376Y-5598048D01*
X8870376Y-5648048D01*
X8920376Y-5698048D01*
X8920376Y-5952048D02*
X8970376Y-5902048D01*
X8920376Y-5852048D01*
X8870376Y-5902048D01*
X8920376Y-5952048D01*
X8920376Y-6206048D02*
X8970376Y-6156048D01*
X8920376Y-6106048D01*
X8870376Y-6156048D01*
X8920376Y-6206048D01*
X8920376Y-6460048D02*
X8970376Y-6410048D01*
X8920376Y-6360048D01*
X8870376Y-6410048D01*
X8920376Y-6460048D01*
X8920376Y-6714048D02*
X8970376Y-6664048D01*
X8920376Y-6614048D01*
X8870376Y-6664048D01*
X8920376Y-6714048D01*
X8920376Y-6968048D02*
X8970376Y-6918048D01*
X8920376Y-6868048D01*
X8870376Y-6918048D01*
X8920376Y-6968048D01*
X8920376Y-7222048D02*
X8970376Y-7172048D01*
X8920376Y-7122048D01*
X8870376Y-7172048D01*
X8920376Y-7222048D01*
X8920376Y-7476048D02*
X8970376Y-7426048D01*
X8920376Y-7376048D01*
X8870376Y-7426048D01*
X8920376Y-7476048D01*
X8920376Y-7730048D02*
X8970376Y-7680048D01*
X8920376Y-7630048D01*
X8870376Y-7680048D01*
X8920376Y-7730048D01*
X8920376Y-7984048D02*
X8970376Y-7934048D01*
X8920376Y-7884048D01*
X8870376Y-7934048D01*
X8920376Y-7984048D01*
X8925000Y-8997500D02*
X8975000Y-8947500D01*
X8925000Y-8897500D01*
X8875000Y-8947500D01*
X8925000Y-8997500D01*
X8926376Y-11280048D02*
X8976376Y-11230048D01*
X8926376Y-11180049D01*
X8876376Y-11230048D01*
X8926376Y-11280048D01*
X9180376Y-11280048D02*
X9230376Y-11230048D01*
X9180376Y-11180049D01*
X9130376Y-11230048D01*
X9180376Y-11280048D01*
X9434376Y-11280048D02*
X9484376Y-11230048D01*
X9434376Y-11180049D01*
X9384376Y-11230048D01*
X9434376Y-11280048D01*
X9436376Y-9505049D02*
X9486376Y-9455049D01*
X9436376Y-9405049D01*
X9386376Y-9455049D01*
X9436376Y-9505049D01*
X9688376Y-11280048D02*
X9738376Y-11230048D01*
X9688376Y-11180049D01*
X9638376Y-11230048D01*
X9688376Y-11280048D01*
X9690376Y-9505049D02*
X9740376Y-9455049D01*
X9690376Y-9405049D01*
X9640376Y-9455049D01*
X9690376Y-9505049D01*
X9942376Y-11280048D02*
X9992376Y-11230048D01*
X9942376Y-11180049D01*
X9892376Y-11230048D01*
X9942376Y-11280048D01*
X9944376Y-9505049D02*
X9994376Y-9455049D01*
X9944376Y-9405049D01*
X9894376Y-9455049D01*
X9944376Y-9505049D01*
X10196376Y-11280048D02*
X10246376Y-11230048D01*
X10196376Y-11180049D01*
X10146376Y-11230048D01*
X10196376Y-11280048D01*
X10198376Y-9505049D02*
X10248376Y-9455049D01*
X10198376Y-9405049D01*
X10148376Y-9455049D01*
X10198376Y-9505049D01*
X10450376Y-11280048D02*
X10500376Y-11230048D01*
X10450376Y-11180049D01*
X10400376Y-11230048D01*
X10450376Y-11280048D01*
X10452376Y-9505049D02*
X10502376Y-9455049D01*
X10452376Y-9405049D01*
X10402376Y-9455049D01*
X10452376Y-9505049D01*
X10704376Y-11280048D02*
X10754376Y-11230048D01*
X10704376Y-11180049D01*
X10654376Y-11230048D01*
X10704376Y-11280048D01*
X10706376Y-9505049D02*
X10756376Y-9455049D01*
X10706376Y-9405049D01*
X10656376Y-9455049D01*
X10706376Y-9505049D01*
X10952376Y-5190049D02*
X11002376Y-5140049D01*
X10952376Y-5090049D01*
X10902376Y-5140049D01*
X10952376Y-5190049D01*
X10952376Y-5444049D02*
X11002376Y-5394049D01*
X10952376Y-5344049D01*
X10902376Y-5394049D01*
X10952376Y-5444049D01*
X10952376Y-5698048D02*
X11002376Y-5648048D01*
X10952376Y-5598048D01*
X10902376Y-5648048D01*
X10952376Y-5698048D01*
X10952376Y-5952048D02*
X11002376Y-5902048D01*
X10952376Y-5852048D01*
X10902376Y-5902048D01*
X10952376Y-5952048D01*
X10952376Y-6206048D02*
X11002376Y-6156048D01*
X10952376Y-6106048D01*
X10902376Y-6156048D01*
X10952376Y-6206048D01*
X10952376Y-6460048D02*
X11002376Y-6410048D01*
X10952376Y-6360048D01*
X10902376Y-6410048D01*
X10952376Y-6460048D01*
X10952376Y-6714048D02*
X11002376Y-6664048D01*
X10952376Y-6614048D01*
X10902376Y-6664048D01*
X10952376Y-6714048D01*
X10952376Y-6968048D02*
X11002376Y-6918048D01*
X10952376Y-6868048D01*
X10902376Y-6918048D01*
X10952376Y-6968048D01*
X10952376Y-7222048D02*
X11002376Y-7172048D01*
X10952376Y-7122048D01*
X10902376Y-7172048D01*
X10952376Y-7222048D01*
X10952376Y-7476048D02*
X11002376Y-7426048D01*
X10952376Y-7376048D01*
X10902376Y-7426048D01*
X10952376Y-7476048D01*
X10952376Y-7730048D02*
X11002376Y-7680048D01*
X10952376Y-7630048D01*
X10902376Y-7680048D01*
X10952376Y-7730048D01*
X10952376Y-7984048D02*
X11002376Y-7934048D01*
X10952376Y-7884048D01*
X10902376Y-7934048D01*
X10952376Y-7984048D01*
X10958376Y-11280048D02*
X11008376Y-11230048D01*
X10958376Y-11180049D01*
X10908376Y-11230048D01*
X10958376Y-11280048D01*
X11212376Y-11280048D02*
X11262376Y-11230048D01*
X11212376Y-11180049D01*
X11162376Y-11230048D01*
X11212376Y-11280048D01*
X11466376Y-11280048D02*
X11516376Y-11230048D01*
X11466376Y-11180049D01*
X11416376Y-11230048D01*
X11466376Y-11280048D01*
X12774000Y-11122770D02*
X12824000Y-11072770D01*
X12774000Y-11022770D01*
X12724000Y-11072770D01*
X12774000Y-11122770D01*
X13028000Y-11122770D02*
X13078000Y-11072770D01*
X13028000Y-11022770D01*
X12978000Y-11072770D01*
X13028000Y-11122770D01*
X13200000Y-8997500D02*
X13250000Y-8947500D01*
X13200000Y-8897500D01*
X13150000Y-8947500D01*
X13200000Y-8997500D01*
X13282000Y-11122770D02*
X13332000Y-11072770D01*
X13282000Y-11022770D01*
X13232000Y-11072770D01*
X13282000Y-11122770D01*
X13454000Y-8997500D02*
X13504000Y-8947500D01*
X13454000Y-8897500D01*
X13404000Y-8947500D01*
X13454000Y-8997500D01*
X13536000Y-11122770D02*
X13586000Y-11072770D01*
X13536000Y-11022770D01*
X13486000Y-11072770D01*
X13536000Y-11122770D01*
X13708000Y-8997500D02*
X13758000Y-8947500D01*
X13708000Y-8897500D01*
X13658000Y-8947500D01*
X13708000Y-8997500D01*
X13790000Y-11122770D02*
X13840000Y-11072770D01*
X13790000Y-11022770D01*
X13740000Y-11072770D01*
X13790000Y-11122770D01*
X13962000Y-8997500D02*
X14012000Y-8947500D01*
X13962000Y-8897500D01*
X13912000Y-8947500D01*
X13962000Y-8997500D01*
X14044000Y-11122770D02*
X14094000Y-11072770D01*
X14044000Y-11022770D01*
X13994000Y-11072770D01*
X14044000Y-11122770D01*
X14216000Y-8997500D02*
X14266000Y-8947500D01*
X14216000Y-8897500D01*
X14166000Y-8947500D01*
X14216000Y-8997500D01*
X14470000Y-8997500D02*
X14520000Y-8947500D01*
X14470000Y-8897500D01*
X14420000Y-8947500D01*
X14470000Y-8997500D01*
D13*
X7396951Y-6255000D02*
X7506951Y-6365000D01*
X7506951Y-6255000D02*
X7396951Y-6365000D01*
X7506951Y-6310000D02*
G75*
G02*
X7396951Y-6310000I-55000J0D01*
G01*
X7396951Y-6310000D02*
G75*
G02*
X7506951Y-6310000I55000J0D01*
G01*
X7396951Y-6705000D02*
X7506951Y-6815000D01*
X7506951Y-6705000D02*
X7396951Y-6815000D01*
X7506951Y-6760000D02*
G75*
G02*
X7396951Y-6760000I-55000J0D01*
G01*
X7396951Y-6760000D02*
G75*
G02*
X7506951Y-6760000I55000J0D01*
G01*
X7400554Y-5018074D02*
X7510554Y-5128074D01*
X7510554Y-5018074D02*
X7400554Y-5128074D01*
X7510554Y-5073074D02*
G75*
G02*
X7400554Y-5073074I-55000J0D01*
G01*
X7400554Y-5073074D02*
G75*
G02*
X7510554Y-5073074I55000J0D01*
G01*
X7400554Y-5468074D02*
X7510554Y-5578074D01*
X7510554Y-5468074D02*
X7400554Y-5578074D01*
X7510554Y-5523074D02*
G75*
G02*
X7400554Y-5523074I-55000J0D01*
G01*
X7400554Y-5523074D02*
G75*
G02*
X7510554Y-5523074I55000J0D01*
G01*
X8046951Y-6255000D02*
X8156951Y-6365000D01*
X8156951Y-6255000D02*
X8046951Y-6365000D01*
X8156951Y-6310000D02*
G75*
G02*
X8046951Y-6310000I-55000J0D01*
G01*
X8046951Y-6310000D02*
G75*
G02*
X8156951Y-6310000I55000J0D01*
G01*
X8046951Y-6705000D02*
X8156951Y-6815000D01*
X8156951Y-6705000D02*
X8046951Y-6815000D01*
X8156951Y-6760000D02*
G75*
G02*
X8046951Y-6760000I-55000J0D01*
G01*
X8046951Y-6760000D02*
G75*
G02*
X8156951Y-6760000I55000J0D01*
G01*
X8050554Y-5018074D02*
X8160554Y-5128074D01*
X8160554Y-5018074D02*
X8050554Y-5128074D01*
X8160554Y-5073074D02*
G75*
G02*
X8050554Y-5073074I-55000J0D01*
G01*
X8050554Y-5073074D02*
G75*
G02*
X8160554Y-5073074I55000J0D01*
G01*
X8050554Y-5468074D02*
X8160554Y-5578074D01*
X8160554Y-5468074D02*
X8050554Y-5578074D01*
X8160554Y-5523074D02*
G75*
G02*
X8050554Y-5523074I-55000J0D01*
G01*
X8050554Y-5523074D02*
G75*
G02*
X8160554Y-5523074I55000J0D01*
G01*
D14*
X13875000Y-3524048D02*
X14025000Y-3674048D01*
X14025000Y-3524048D02*
X13875000Y-3674048D01*
X13950000Y-3524048D02*
X13950000Y-3674048D01*
X13875000Y-3599048D02*
X14025000Y-3599048D01*
X13875000Y-4344049D02*
X14025000Y-4494049D01*
X14025000Y-4344049D02*
X13875000Y-4494049D01*
X13950000Y-4344049D02*
X13950000Y-4494049D01*
X13875000Y-4419049D02*
X14025000Y-4419049D01*
D11*
X5525000Y-8100000D02*
X5725000Y-8300000D01*
X5725000Y-8100000D02*
X5525000Y-8300000D01*
X5695711Y-8270711D02*
X5695711Y-8129289D01*
X5554289Y-8129289D01*
X5554289Y-8270711D01*
X5695711Y-8270711D01*
X6475000Y-8100000D02*
X6675000Y-8300000D01*
X6675000Y-8100000D02*
X6475000Y-8300000D01*
X6645711Y-8270711D02*
X6645711Y-8129289D01*
X6504289Y-8129289D01*
X6504289Y-8270711D01*
X6645711Y-8270711D01*
X5325005Y-13625782D02*
X5325005Y-13425782D01*
X5325005Y-13425782D02*
X5372624Y-13425782D01*
X5372624Y-13425782D02*
X5401196Y-13435306D01*
X5401196Y-13435306D02*
X5420243Y-13454353D01*
X5420243Y-13454353D02*
X5429767Y-13473401D01*
X5429767Y-13473401D02*
X5439291Y-13511496D01*
X5439291Y-13511496D02*
X5439291Y-13540068D01*
X5439291Y-13540068D02*
X5429767Y-13578163D01*
X5429767Y-13578163D02*
X5420243Y-13597210D01*
X5420243Y-13597210D02*
X5401196Y-13616258D01*
X5401196Y-13616258D02*
X5372624Y-13625782D01*
X5372624Y-13625782D02*
X5325005Y-13625782D01*
X5525005Y-13625782D02*
X5525005Y-13492449D01*
X5525005Y-13530544D02*
X5534529Y-13511496D01*
X5534529Y-13511496D02*
X5544053Y-13501972D01*
X5544053Y-13501972D02*
X5563101Y-13492449D01*
X5563101Y-13492449D02*
X5582148Y-13492449D01*
X5648815Y-13625782D02*
X5648815Y-13492449D01*
X5648815Y-13425782D02*
X5639291Y-13435306D01*
X5639291Y-13435306D02*
X5648815Y-13444830D01*
X5648815Y-13444830D02*
X5658339Y-13435306D01*
X5658339Y-13435306D02*
X5648815Y-13425782D01*
X5648815Y-13425782D02*
X5648815Y-13444830D01*
X5772624Y-13625782D02*
X5753577Y-13616258D01*
X5753577Y-13616258D02*
X5744053Y-13597210D01*
X5744053Y-13597210D02*
X5744053Y-13425782D01*
X5877386Y-13625782D02*
X5858339Y-13616258D01*
X5858339Y-13616258D02*
X5848815Y-13597210D01*
X5848815Y-13597210D02*
X5848815Y-13425782D01*
X6105958Y-13625782D02*
X6105958Y-13425782D01*
X6105958Y-13425782D02*
X6172624Y-13568639D01*
X6172624Y-13568639D02*
X6239291Y-13425782D01*
X6239291Y-13425782D02*
X6239291Y-13625782D01*
X6420243Y-13625782D02*
X6420243Y-13521020D01*
X6420243Y-13521020D02*
X6410720Y-13501972D01*
X6410720Y-13501972D02*
X6391672Y-13492449D01*
X6391672Y-13492449D02*
X6353577Y-13492449D01*
X6353577Y-13492449D02*
X6334529Y-13501972D01*
X6420243Y-13616258D02*
X6401196Y-13625782D01*
X6401196Y-13625782D02*
X6353577Y-13625782D01*
X6353577Y-13625782D02*
X6334529Y-13616258D01*
X6334529Y-13616258D02*
X6325005Y-13597210D01*
X6325005Y-13597210D02*
X6325005Y-13578163D01*
X6325005Y-13578163D02*
X6334529Y-13559115D01*
X6334529Y-13559115D02*
X6353577Y-13549591D01*
X6353577Y-13549591D02*
X6401196Y-13549591D01*
X6401196Y-13549591D02*
X6420243Y-13540068D01*
X6515481Y-13492449D02*
X6515481Y-13692449D01*
X6515481Y-13501972D02*
X6534529Y-13492449D01*
X6534529Y-13492449D02*
X6572624Y-13492449D01*
X6572624Y-13492449D02*
X6591672Y-13501972D01*
X6591672Y-13501972D02*
X6601196Y-13511496D01*
X6601196Y-13511496D02*
X6610720Y-13530544D01*
X6610720Y-13530544D02*
X6610720Y-13587687D01*
X6610720Y-13587687D02*
X6601196Y-13606734D01*
X6601196Y-13606734D02*
X6591672Y-13616258D01*
X6591672Y-13616258D02*
X6572624Y-13625782D01*
X6572624Y-13625782D02*
X6534529Y-13625782D01*
X6534529Y-13625782D02*
X6515481Y-13616258D01*
X6696434Y-13606734D02*
X6705958Y-13616258D01*
X6705958Y-13616258D02*
X6696434Y-13625782D01*
X6696434Y-13625782D02*
X6686910Y-13616258D01*
X6686910Y-13616258D02*
X6696434Y-13606734D01*
X6696434Y-13606734D02*
X6696434Y-13625782D01*
X6696434Y-13501972D02*
X6705958Y-13511496D01*
X6705958Y-13511496D02*
X6696434Y-13521020D01*
X6696434Y-13521020D02*
X6686910Y-13511496D01*
X6686910Y-13511496D02*
X6696434Y-13501972D01*
X6696434Y-13501972D02*
X6696434Y-13521020D01*
D12*
X5004229Y-13924298D02*
X5064229Y-13984298D01*
X5064229Y-13924298D02*
X5004229Y-13984298D01*
D11*
X5363101Y-13845782D02*
X5382148Y-13845782D01*
X5382148Y-13845782D02*
X5401196Y-13855306D01*
X5401196Y-13855306D02*
X5410720Y-13864830D01*
X5410720Y-13864830D02*
X5420243Y-13883877D01*
X5420243Y-13883877D02*
X5429767Y-13921972D01*
X5429767Y-13921972D02*
X5429767Y-13969591D01*
X5429767Y-13969591D02*
X5420243Y-14007687D01*
X5420243Y-14007687D02*
X5410720Y-14026734D01*
X5410720Y-14026734D02*
X5401196Y-14036258D01*
X5401196Y-14036258D02*
X5382148Y-14045782D01*
X5382148Y-14045782D02*
X5363101Y-14045782D01*
X5363101Y-14045782D02*
X5344053Y-14036258D01*
X5344053Y-14036258D02*
X5334529Y-14026734D01*
X5334529Y-14026734D02*
X5325005Y-14007687D01*
X5325005Y-14007687D02*
X5315482Y-13969591D01*
X5315482Y-13969591D02*
X5315482Y-13921972D01*
X5315482Y-13921972D02*
X5325005Y-13883877D01*
X5325005Y-13883877D02*
X5334529Y-13864830D01*
X5334529Y-13864830D02*
X5344053Y-13855306D01*
X5344053Y-13855306D02*
X5363101Y-13845782D01*
X5515482Y-14026734D02*
X5525005Y-14036258D01*
X5525005Y-14036258D02*
X5515482Y-14045782D01*
X5515482Y-14045782D02*
X5505958Y-14036258D01*
X5505958Y-14036258D02*
X5515482Y-14026734D01*
X5515482Y-14026734D02*
X5515482Y-14045782D01*
X5696434Y-13845782D02*
X5658339Y-13845782D01*
X5658339Y-13845782D02*
X5639291Y-13855306D01*
X5639291Y-13855306D02*
X5629767Y-13864830D01*
X5629767Y-13864830D02*
X5610720Y-13893401D01*
X5610720Y-13893401D02*
X5601196Y-13931496D01*
X5601196Y-13931496D02*
X5601196Y-14007687D01*
X5601196Y-14007687D02*
X5610720Y-14026734D01*
X5610720Y-14026734D02*
X5620243Y-14036258D01*
X5620243Y-14036258D02*
X5639291Y-14045782D01*
X5639291Y-14045782D02*
X5677386Y-14045782D01*
X5677386Y-14045782D02*
X5696434Y-14036258D01*
X5696434Y-14036258D02*
X5705958Y-14026734D01*
X5705958Y-14026734D02*
X5715481Y-14007687D01*
X5715481Y-14007687D02*
X5715481Y-13960068D01*
X5715481Y-13960068D02*
X5705958Y-13941020D01*
X5705958Y-13941020D02*
X5696434Y-13931496D01*
X5696434Y-13931496D02*
X5677386Y-13921972D01*
X5677386Y-13921972D02*
X5639291Y-13921972D01*
X5639291Y-13921972D02*
X5620243Y-13931496D01*
X5620243Y-13931496D02*
X5610720Y-13941020D01*
X5610720Y-13941020D02*
X5601196Y-13960068D01*
X5839291Y-13845782D02*
X5858339Y-13845782D01*
X5858339Y-13845782D02*
X5877386Y-13855306D01*
X5877386Y-13855306D02*
X5886910Y-13864830D01*
X5886910Y-13864830D02*
X5896434Y-13883877D01*
X5896434Y-13883877D02*
X5905958Y-13921972D01*
X5905958Y-13921972D02*
X5905958Y-13969591D01*
X5905958Y-13969591D02*
X5896434Y-14007687D01*
X5896434Y-14007687D02*
X5886910Y-14026734D01*
X5886910Y-14026734D02*
X5877386Y-14036258D01*
X5877386Y-14036258D02*
X5858339Y-14045782D01*
X5858339Y-14045782D02*
X5839291Y-14045782D01*
X5839291Y-14045782D02*
X5820243Y-14036258D01*
X5820243Y-14036258D02*
X5810720Y-14026734D01*
X5810720Y-14026734D02*
X5801196Y-14007687D01*
X5801196Y-14007687D02*
X5791672Y-13969591D01*
X5791672Y-13969591D02*
X5791672Y-13921972D01*
X5791672Y-13921972D02*
X5801196Y-13883877D01*
X5801196Y-13883877D02*
X5810720Y-13864830D01*
X5810720Y-13864830D02*
X5820243Y-13855306D01*
X5820243Y-13855306D02*
X5839291Y-13845782D01*
X6029767Y-13845782D02*
X6048815Y-13845782D01*
X6048815Y-13845782D02*
X6067862Y-13855306D01*
X6067862Y-13855306D02*
X6077386Y-13864830D01*
X6077386Y-13864830D02*
X6086910Y-13883877D01*
X6086910Y-13883877D02*
X6096434Y-13921972D01*
X6096434Y-13921972D02*
X6096434Y-13969591D01*
X6096434Y-13969591D02*
X6086910Y-14007687D01*
X6086910Y-14007687D02*
X6077386Y-14026734D01*
X6077386Y-14026734D02*
X6067862Y-14036258D01*
X6067862Y-14036258D02*
X6048815Y-14045782D01*
X6048815Y-14045782D02*
X6029767Y-14045782D01*
X6029767Y-14045782D02*
X6010720Y-14036258D01*
X6010720Y-14036258D02*
X6001196Y-14026734D01*
X6001196Y-14026734D02*
X5991672Y-14007687D01*
X5991672Y-14007687D02*
X5982148Y-13969591D01*
X5982148Y-13969591D02*
X5982148Y-13921972D01*
X5982148Y-13921972D02*
X5991672Y-13883877D01*
X5991672Y-13883877D02*
X6001196Y-13864830D01*
X6001196Y-13864830D02*
X6010720Y-13855306D01*
X6010720Y-13855306D02*
X6029767Y-13845782D01*
X6182148Y-14045782D02*
X6182148Y-13912449D01*
X6182148Y-13931496D02*
X6191672Y-13921972D01*
X6191672Y-13921972D02*
X6210720Y-13912449D01*
X6210720Y-13912449D02*
X6239291Y-13912449D01*
X6239291Y-13912449D02*
X6258339Y-13921972D01*
X6258339Y-13921972D02*
X6267862Y-13941020D01*
X6267862Y-13941020D02*
X6267862Y-14045782D01*
X6267862Y-13941020D02*
X6277386Y-13921972D01*
X6277386Y-13921972D02*
X6296434Y-13912449D01*
X6296434Y-13912449D02*
X6325005Y-13912449D01*
X6325005Y-13912449D02*
X6344053Y-13921972D01*
X6344053Y-13921972D02*
X6353577Y-13941020D01*
X6353577Y-13941020D02*
X6353577Y-14045782D01*
X6448815Y-14045782D02*
X6448815Y-13912449D01*
X6448815Y-13931496D02*
X6458339Y-13921972D01*
X6458339Y-13921972D02*
X6477386Y-13912449D01*
X6477386Y-13912449D02*
X6505958Y-13912449D01*
X6505958Y-13912449D02*
X6525005Y-13921972D01*
X6525005Y-13921972D02*
X6534529Y-13941020D01*
X6534529Y-13941020D02*
X6534529Y-14045782D01*
X6534529Y-13941020D02*
X6544053Y-13921972D01*
X6544053Y-13921972D02*
X6563101Y-13912449D01*
X6563101Y-13912449D02*
X6591672Y-13912449D01*
X6591672Y-13912449D02*
X6610720Y-13921972D01*
X6610720Y-13921972D02*
X6620243Y-13941020D01*
X6620243Y-13941020D02*
X6620243Y-14045782D01*
X7010720Y-13836258D02*
X6839291Y-14093401D01*
X7267863Y-13845782D02*
X7286910Y-13845782D01*
X7286910Y-13845782D02*
X7305958Y-13855306D01*
X7305958Y-13855306D02*
X7315482Y-13864830D01*
X7315482Y-13864830D02*
X7325005Y-13883877D01*
X7325005Y-13883877D02*
X7334529Y-13921972D01*
X7334529Y-13921972D02*
X7334529Y-13969591D01*
X7334529Y-13969591D02*
X7325005Y-14007687D01*
X7325005Y-14007687D02*
X7315482Y-14026734D01*
X7315482Y-14026734D02*
X7305958Y-14036258D01*
X7305958Y-14036258D02*
X7286910Y-14045782D01*
X7286910Y-14045782D02*
X7267863Y-14045782D01*
X7267863Y-14045782D02*
X7248815Y-14036258D01*
X7248815Y-14036258D02*
X7239291Y-14026734D01*
X7239291Y-14026734D02*
X7229767Y-14007687D01*
X7229767Y-14007687D02*
X7220244Y-13969591D01*
X7220244Y-13969591D02*
X7220244Y-13921972D01*
X7220244Y-13921972D02*
X7229767Y-13883877D01*
X7229767Y-13883877D02*
X7239291Y-13864830D01*
X7239291Y-13864830D02*
X7248815Y-13855306D01*
X7248815Y-13855306D02*
X7267863Y-13845782D01*
X7420244Y-14026734D02*
X7429767Y-14036258D01*
X7429767Y-14036258D02*
X7420244Y-14045782D01*
X7420244Y-14045782D02*
X7410720Y-14036258D01*
X7410720Y-14036258D02*
X7420244Y-14026734D01*
X7420244Y-14026734D02*
X7420244Y-14045782D01*
X7553577Y-13845782D02*
X7572625Y-13845782D01*
X7572625Y-13845782D02*
X7591672Y-13855306D01*
X7591672Y-13855306D02*
X7601196Y-13864830D01*
X7601196Y-13864830D02*
X7610720Y-13883877D01*
X7610720Y-13883877D02*
X7620244Y-13921972D01*
X7620244Y-13921972D02*
X7620244Y-13969591D01*
X7620244Y-13969591D02*
X7610720Y-14007687D01*
X7610720Y-14007687D02*
X7601196Y-14026734D01*
X7601196Y-14026734D02*
X7591672Y-14036258D01*
X7591672Y-14036258D02*
X7572625Y-14045782D01*
X7572625Y-14045782D02*
X7553577Y-14045782D01*
X7553577Y-14045782D02*
X7534529Y-14036258D01*
X7534529Y-14036258D02*
X7525005Y-14026734D01*
X7525005Y-14026734D02*
X7515482Y-14007687D01*
X7515482Y-14007687D02*
X7505958Y-13969591D01*
X7505958Y-13969591D02*
X7505958Y-13921972D01*
X7505958Y-13921972D02*
X7515482Y-13883877D01*
X7515482Y-13883877D02*
X7525005Y-13864830D01*
X7525005Y-13864830D02*
X7534529Y-13855306D01*
X7534529Y-13855306D02*
X7553577Y-13845782D01*
X7696434Y-13864830D02*
X7705958Y-13855306D01*
X7705958Y-13855306D02*
X7725005Y-13845782D01*
X7725005Y-13845782D02*
X7772625Y-13845782D01*
X7772625Y-13845782D02*
X7791672Y-13855306D01*
X7791672Y-13855306D02*
X7801196Y-13864830D01*
X7801196Y-13864830D02*
X7810720Y-13883877D01*
X7810720Y-13883877D02*
X7810720Y-13902925D01*
X7810720Y-13902925D02*
X7801196Y-13931496D01*
X7801196Y-13931496D02*
X7686910Y-14045782D01*
X7686910Y-14045782D02*
X7810720Y-14045782D01*
X7877386Y-13845782D02*
X8001196Y-13845782D01*
X8001196Y-13845782D02*
X7934529Y-13921972D01*
X7934529Y-13921972D02*
X7963101Y-13921972D01*
X7963101Y-13921972D02*
X7982148Y-13931496D01*
X7982148Y-13931496D02*
X7991672Y-13941020D01*
X7991672Y-13941020D02*
X8001196Y-13960068D01*
X8001196Y-13960068D02*
X8001196Y-14007687D01*
X8001196Y-14007687D02*
X7991672Y-14026734D01*
X7991672Y-14026734D02*
X7982148Y-14036258D01*
X7982148Y-14036258D02*
X7963101Y-14045782D01*
X7963101Y-14045782D02*
X7905958Y-14045782D01*
X7905958Y-14045782D02*
X7886910Y-14036258D01*
X7886910Y-14036258D02*
X7877386Y-14026734D01*
X8172625Y-13845782D02*
X8134529Y-13845782D01*
X8134529Y-13845782D02*
X8115482Y-13855306D01*
X8115482Y-13855306D02*
X8105958Y-13864830D01*
X8105958Y-13864830D02*
X8086910Y-13893401D01*
X8086910Y-13893401D02*
X8077386Y-13931496D01*
X8077386Y-13931496D02*
X8077386Y-14007687D01*
X8077386Y-14007687D02*
X8086910Y-14026734D01*
X8086910Y-14026734D02*
X8096434Y-14036258D01*
X8096434Y-14036258D02*
X8115482Y-14045782D01*
X8115482Y-14045782D02*
X8153577Y-14045782D01*
X8153577Y-14045782D02*
X8172625Y-14036258D01*
X8172625Y-14036258D02*
X8182148Y-14026734D01*
X8182148Y-14026734D02*
X8191672Y-14007687D01*
X8191672Y-14007687D02*
X8191672Y-13960068D01*
X8191672Y-13960068D02*
X8182148Y-13941020D01*
X8182148Y-13941020D02*
X8172625Y-13931496D01*
X8172625Y-13931496D02*
X8153577Y-13921972D01*
X8153577Y-13921972D02*
X8115482Y-13921972D01*
X8115482Y-13921972D02*
X8096434Y-13931496D01*
X8096434Y-13931496D02*
X8086910Y-13941020D01*
X8086910Y-13941020D02*
X8077386Y-13960068D01*
X8267863Y-13845782D02*
X8267863Y-13883877D01*
X8344053Y-13845782D02*
X8344053Y-13883877D01*
X8639291Y-14121972D02*
X8629768Y-14112449D01*
X8629768Y-14112449D02*
X8610720Y-14083877D01*
X8610720Y-14083877D02*
X8601196Y-14064830D01*
X8601196Y-14064830D02*
X8591672Y-14036258D01*
X8591672Y-14036258D02*
X8582149Y-13988639D01*
X8582149Y-13988639D02*
X8582149Y-13950544D01*
X8582149Y-13950544D02*
X8591672Y-13902925D01*
X8591672Y-13902925D02*
X8601196Y-13874353D01*
X8601196Y-13874353D02*
X8610720Y-13855306D01*
X8610720Y-13855306D02*
X8629768Y-13826734D01*
X8629768Y-13826734D02*
X8639291Y-13817210D01*
X8705958Y-13864830D02*
X8715482Y-13855306D01*
X8715482Y-13855306D02*
X8734529Y-13845782D01*
X8734529Y-13845782D02*
X8782149Y-13845782D01*
X8782149Y-13845782D02*
X8801196Y-13855306D01*
X8801196Y-13855306D02*
X8810720Y-13864830D01*
X8810720Y-13864830D02*
X8820244Y-13883877D01*
X8820244Y-13883877D02*
X8820244Y-13902925D01*
X8820244Y-13902925D02*
X8810720Y-13931496D01*
X8810720Y-13931496D02*
X8696434Y-14045782D01*
X8696434Y-14045782D02*
X8820244Y-14045782D01*
X9058339Y-14045782D02*
X9058339Y-13845782D01*
X9144053Y-14045782D02*
X9144053Y-13941020D01*
X9144053Y-13941020D02*
X9134530Y-13921972D01*
X9134530Y-13921972D02*
X9115482Y-13912449D01*
X9115482Y-13912449D02*
X9086910Y-13912449D01*
X9086910Y-13912449D02*
X9067863Y-13921972D01*
X9067863Y-13921972D02*
X9058339Y-13931496D01*
X9267863Y-14045782D02*
X9248815Y-14036258D01*
X9248815Y-14036258D02*
X9239291Y-14026734D01*
X9239291Y-14026734D02*
X9229768Y-14007687D01*
X9229768Y-14007687D02*
X9229768Y-13950544D01*
X9229768Y-13950544D02*
X9239291Y-13931496D01*
X9239291Y-13931496D02*
X9248815Y-13921972D01*
X9248815Y-13921972D02*
X9267863Y-13912449D01*
X9267863Y-13912449D02*
X9296434Y-13912449D01*
X9296434Y-13912449D02*
X9315482Y-13921972D01*
X9315482Y-13921972D02*
X9325006Y-13931496D01*
X9325006Y-13931496D02*
X9334530Y-13950544D01*
X9334530Y-13950544D02*
X9334530Y-14007687D01*
X9334530Y-14007687D02*
X9325006Y-14026734D01*
X9325006Y-14026734D02*
X9315482Y-14036258D01*
X9315482Y-14036258D02*
X9296434Y-14045782D01*
X9296434Y-14045782D02*
X9267863Y-14045782D01*
X9448815Y-14045782D02*
X9429768Y-14036258D01*
X9429768Y-14036258D02*
X9420244Y-14017210D01*
X9420244Y-14017210D02*
X9420244Y-13845782D01*
X9601196Y-14036258D02*
X9582149Y-14045782D01*
X9582149Y-14045782D02*
X9544053Y-14045782D01*
X9544053Y-14045782D02*
X9525006Y-14036258D01*
X9525006Y-14036258D02*
X9515482Y-14017210D01*
X9515482Y-14017210D02*
X9515482Y-13941020D01*
X9515482Y-13941020D02*
X9525006Y-13921972D01*
X9525006Y-13921972D02*
X9544053Y-13912449D01*
X9544053Y-13912449D02*
X9582149Y-13912449D01*
X9582149Y-13912449D02*
X9601196Y-13921972D01*
X9601196Y-13921972D02*
X9610720Y-13941020D01*
X9610720Y-13941020D02*
X9610720Y-13960068D01*
X9610720Y-13960068D02*
X9515482Y-13979115D01*
X9686911Y-14036258D02*
X9705958Y-14045782D01*
X9705958Y-14045782D02*
X9744053Y-14045782D01*
X9744053Y-14045782D02*
X9763101Y-14036258D01*
X9763101Y-14036258D02*
X9772625Y-14017210D01*
X9772625Y-14017210D02*
X9772625Y-14007687D01*
X9772625Y-14007687D02*
X9763101Y-13988639D01*
X9763101Y-13988639D02*
X9744053Y-13979115D01*
X9744053Y-13979115D02*
X9715482Y-13979115D01*
X9715482Y-13979115D02*
X9696434Y-13969591D01*
X9696434Y-13969591D02*
X9686911Y-13950544D01*
X9686911Y-13950544D02*
X9686911Y-13941020D01*
X9686911Y-13941020D02*
X9696434Y-13921972D01*
X9696434Y-13921972D02*
X9715482Y-13912449D01*
X9715482Y-13912449D02*
X9744053Y-13912449D01*
X9744053Y-13912449D02*
X9763101Y-13921972D01*
X9839292Y-14121972D02*
X9848815Y-14112449D01*
X9848815Y-14112449D02*
X9867863Y-14083877D01*
X9867863Y-14083877D02*
X9877387Y-14064830D01*
X9877387Y-14064830D02*
X9886911Y-14036258D01*
X9886911Y-14036258D02*
X9896434Y-13988639D01*
X9896434Y-13988639D02*
X9896434Y-13950544D01*
X9896434Y-13950544D02*
X9886911Y-13902925D01*
X9886911Y-13902925D02*
X9877387Y-13874353D01*
X9877387Y-13874353D02*
X9867863Y-13855306D01*
X9867863Y-13855306D02*
X9848815Y-13826734D01*
X9848815Y-13826734D02*
X9839292Y-13817210D01*
D12*
X5064229Y-14218298D02*
G75*
G02*
X4988029Y-14218298I-38100J0D01*
G01*
X4988029Y-14218298D02*
G75*
G02*
X5064229Y-14218298I38100J0D01*
G01*
D11*
X5363101Y-14109782D02*
X5382148Y-14109782D01*
X5382148Y-14109782D02*
X5401196Y-14119306D01*
X5401196Y-14119306D02*
X5410720Y-14128830D01*
X5410720Y-14128830D02*
X5420243Y-14147877D01*
X5420243Y-14147877D02*
X5429767Y-14185972D01*
X5429767Y-14185972D02*
X5429767Y-14233591D01*
X5429767Y-14233591D02*
X5420243Y-14271687D01*
X5420243Y-14271687D02*
X5410720Y-14290734D01*
X5410720Y-14290734D02*
X5401196Y-14300258D01*
X5401196Y-14300258D02*
X5382148Y-14309782D01*
X5382148Y-14309782D02*
X5363101Y-14309782D01*
X5363101Y-14309782D02*
X5344053Y-14300258D01*
X5344053Y-14300258D02*
X5334529Y-14290734D01*
X5334529Y-14290734D02*
X5325005Y-14271687D01*
X5325005Y-14271687D02*
X5315482Y-14233591D01*
X5315482Y-14233591D02*
X5315482Y-14185972D01*
X5315482Y-14185972D02*
X5325005Y-14147877D01*
X5325005Y-14147877D02*
X5334529Y-14128830D01*
X5334529Y-14128830D02*
X5344053Y-14119306D01*
X5344053Y-14119306D02*
X5363101Y-14109782D01*
X5515482Y-14290734D02*
X5525005Y-14300258D01*
X5525005Y-14300258D02*
X5515482Y-14309782D01*
X5515482Y-14309782D02*
X5505958Y-14300258D01*
X5505958Y-14300258D02*
X5515482Y-14290734D01*
X5515482Y-14290734D02*
X5515482Y-14309782D01*
X5591672Y-14109782D02*
X5725005Y-14109782D01*
X5725005Y-14109782D02*
X5639291Y-14309782D01*
X5886910Y-14109782D02*
X5848815Y-14109782D01*
X5848815Y-14109782D02*
X5829767Y-14119306D01*
X5829767Y-14119306D02*
X5820243Y-14128830D01*
X5820243Y-14128830D02*
X5801196Y-14157401D01*
X5801196Y-14157401D02*
X5791672Y-14195496D01*
X5791672Y-14195496D02*
X5791672Y-14271687D01*
X5791672Y-14271687D02*
X5801196Y-14290734D01*
X5801196Y-14290734D02*
X5810720Y-14300258D01*
X5810720Y-14300258D02*
X5829767Y-14309782D01*
X5829767Y-14309782D02*
X5867862Y-14309782D01*
X5867862Y-14309782D02*
X5886910Y-14300258D01*
X5886910Y-14300258D02*
X5896434Y-14290734D01*
X5896434Y-14290734D02*
X5905958Y-14271687D01*
X5905958Y-14271687D02*
X5905958Y-14224068D01*
X5905958Y-14224068D02*
X5896434Y-14205020D01*
X5896434Y-14205020D02*
X5886910Y-14195496D01*
X5886910Y-14195496D02*
X5867862Y-14185972D01*
X5867862Y-14185972D02*
X5829767Y-14185972D01*
X5829767Y-14185972D02*
X5810720Y-14195496D01*
X5810720Y-14195496D02*
X5801196Y-14205020D01*
X5801196Y-14205020D02*
X5791672Y-14224068D01*
X5982148Y-14128830D02*
X5991672Y-14119306D01*
X5991672Y-14119306D02*
X6010720Y-14109782D01*
X6010720Y-14109782D02*
X6058339Y-14109782D01*
X6058339Y-14109782D02*
X6077386Y-14119306D01*
X6077386Y-14119306D02*
X6086910Y-14128830D01*
X6086910Y-14128830D02*
X6096434Y-14147877D01*
X6096434Y-14147877D02*
X6096434Y-14166925D01*
X6096434Y-14166925D02*
X6086910Y-14195496D01*
X6086910Y-14195496D02*
X5972624Y-14309782D01*
X5972624Y-14309782D02*
X6096434Y-14309782D01*
X6182148Y-14309782D02*
X6182148Y-14176449D01*
X6182148Y-14195496D02*
X6191672Y-14185972D01*
X6191672Y-14185972D02*
X6210720Y-14176449D01*
X6210720Y-14176449D02*
X6239291Y-14176449D01*
X6239291Y-14176449D02*
X6258339Y-14185972D01*
X6258339Y-14185972D02*
X6267862Y-14205020D01*
X6267862Y-14205020D02*
X6267862Y-14309782D01*
X6267862Y-14205020D02*
X6277386Y-14185972D01*
X6277386Y-14185972D02*
X6296434Y-14176449D01*
X6296434Y-14176449D02*
X6325005Y-14176449D01*
X6325005Y-14176449D02*
X6344053Y-14185972D01*
X6344053Y-14185972D02*
X6353577Y-14205020D01*
X6353577Y-14205020D02*
X6353577Y-14309782D01*
X6448815Y-14309782D02*
X6448815Y-14176449D01*
X6448815Y-14195496D02*
X6458339Y-14185972D01*
X6458339Y-14185972D02*
X6477386Y-14176449D01*
X6477386Y-14176449D02*
X6505958Y-14176449D01*
X6505958Y-14176449D02*
X6525005Y-14185972D01*
X6525005Y-14185972D02*
X6534529Y-14205020D01*
X6534529Y-14205020D02*
X6534529Y-14309782D01*
X6534529Y-14205020D02*
X6544053Y-14185972D01*
X6544053Y-14185972D02*
X6563101Y-14176449D01*
X6563101Y-14176449D02*
X6591672Y-14176449D01*
X6591672Y-14176449D02*
X6610720Y-14185972D01*
X6610720Y-14185972D02*
X6620243Y-14205020D01*
X6620243Y-14205020D02*
X6620243Y-14309782D01*
X7010720Y-14100258D02*
X6839291Y-14357401D01*
X7267863Y-14109782D02*
X7286910Y-14109782D01*
X7286910Y-14109782D02*
X7305958Y-14119306D01*
X7305958Y-14119306D02*
X7315482Y-14128830D01*
X7315482Y-14128830D02*
X7325005Y-14147877D01*
X7325005Y-14147877D02*
X7334529Y-14185972D01*
X7334529Y-14185972D02*
X7334529Y-14233591D01*
X7334529Y-14233591D02*
X7325005Y-14271687D01*
X7325005Y-14271687D02*
X7315482Y-14290734D01*
X7315482Y-14290734D02*
X7305958Y-14300258D01*
X7305958Y-14300258D02*
X7286910Y-14309782D01*
X7286910Y-14309782D02*
X7267863Y-14309782D01*
X7267863Y-14309782D02*
X7248815Y-14300258D01*
X7248815Y-14300258D02*
X7239291Y-14290734D01*
X7239291Y-14290734D02*
X7229767Y-14271687D01*
X7229767Y-14271687D02*
X7220244Y-14233591D01*
X7220244Y-14233591D02*
X7220244Y-14185972D01*
X7220244Y-14185972D02*
X7229767Y-14147877D01*
X7229767Y-14147877D02*
X7239291Y-14128830D01*
X7239291Y-14128830D02*
X7248815Y-14119306D01*
X7248815Y-14119306D02*
X7267863Y-14109782D01*
X7420244Y-14290734D02*
X7429767Y-14300258D01*
X7429767Y-14300258D02*
X7420244Y-14309782D01*
X7420244Y-14309782D02*
X7410720Y-14300258D01*
X7410720Y-14300258D02*
X7420244Y-14290734D01*
X7420244Y-14290734D02*
X7420244Y-14309782D01*
X7553577Y-14109782D02*
X7572625Y-14109782D01*
X7572625Y-14109782D02*
X7591672Y-14119306D01*
X7591672Y-14119306D02*
X7601196Y-14128830D01*
X7601196Y-14128830D02*
X7610720Y-14147877D01*
X7610720Y-14147877D02*
X7620244Y-14185972D01*
X7620244Y-14185972D02*
X7620244Y-14233591D01*
X7620244Y-14233591D02*
X7610720Y-14271687D01*
X7610720Y-14271687D02*
X7601196Y-14290734D01*
X7601196Y-14290734D02*
X7591672Y-14300258D01*
X7591672Y-14300258D02*
X7572625Y-14309782D01*
X7572625Y-14309782D02*
X7553577Y-14309782D01*
X7553577Y-14309782D02*
X7534529Y-14300258D01*
X7534529Y-14300258D02*
X7525005Y-14290734D01*
X7525005Y-14290734D02*
X7515482Y-14271687D01*
X7515482Y-14271687D02*
X7505958Y-14233591D01*
X7505958Y-14233591D02*
X7505958Y-14185972D01*
X7505958Y-14185972D02*
X7515482Y-14147877D01*
X7515482Y-14147877D02*
X7525005Y-14128830D01*
X7525005Y-14128830D02*
X7534529Y-14119306D01*
X7534529Y-14119306D02*
X7553577Y-14109782D01*
X7686910Y-14109782D02*
X7810720Y-14109782D01*
X7810720Y-14109782D02*
X7744053Y-14185972D01*
X7744053Y-14185972D02*
X7772625Y-14185972D01*
X7772625Y-14185972D02*
X7791672Y-14195496D01*
X7791672Y-14195496D02*
X7801196Y-14205020D01*
X7801196Y-14205020D02*
X7810720Y-14224068D01*
X7810720Y-14224068D02*
X7810720Y-14271687D01*
X7810720Y-14271687D02*
X7801196Y-14290734D01*
X7801196Y-14290734D02*
X7791672Y-14300258D01*
X7791672Y-14300258D02*
X7772625Y-14309782D01*
X7772625Y-14309782D02*
X7715482Y-14309782D01*
X7715482Y-14309782D02*
X7696434Y-14300258D01*
X7696434Y-14300258D02*
X7686910Y-14290734D01*
X7934529Y-14109782D02*
X7953577Y-14109782D01*
X7953577Y-14109782D02*
X7972625Y-14119306D01*
X7972625Y-14119306D02*
X7982148Y-14128830D01*
X7982148Y-14128830D02*
X7991672Y-14147877D01*
X7991672Y-14147877D02*
X8001196Y-14185972D01*
X8001196Y-14185972D02*
X8001196Y-14233591D01*
X8001196Y-14233591D02*
X7991672Y-14271687D01*
X7991672Y-14271687D02*
X7982148Y-14290734D01*
X7982148Y-14290734D02*
X7972625Y-14300258D01*
X7972625Y-14300258D02*
X7953577Y-14309782D01*
X7953577Y-14309782D02*
X7934529Y-14309782D01*
X7934529Y-14309782D02*
X7915482Y-14300258D01*
X7915482Y-14300258D02*
X7905958Y-14290734D01*
X7905958Y-14290734D02*
X7896434Y-14271687D01*
X7896434Y-14271687D02*
X7886910Y-14233591D01*
X7886910Y-14233591D02*
X7886910Y-14185972D01*
X7886910Y-14185972D02*
X7896434Y-14147877D01*
X7896434Y-14147877D02*
X7905958Y-14128830D01*
X7905958Y-14128830D02*
X7915482Y-14119306D01*
X7915482Y-14119306D02*
X7934529Y-14109782D01*
X8125005Y-14109782D02*
X8144053Y-14109782D01*
X8144053Y-14109782D02*
X8163101Y-14119306D01*
X8163101Y-14119306D02*
X8172625Y-14128830D01*
X8172625Y-14128830D02*
X8182148Y-14147877D01*
X8182148Y-14147877D02*
X8191672Y-14185972D01*
X8191672Y-14185972D02*
X8191672Y-14233591D01*
X8191672Y-14233591D02*
X8182148Y-14271687D01*
X8182148Y-14271687D02*
X8172625Y-14290734D01*
X8172625Y-14290734D02*
X8163101Y-14300258D01*
X8163101Y-14300258D02*
X8144053Y-14309782D01*
X8144053Y-14309782D02*
X8125005Y-14309782D01*
X8125005Y-14309782D02*
X8105958Y-14300258D01*
X8105958Y-14300258D02*
X8096434Y-14290734D01*
X8096434Y-14290734D02*
X8086910Y-14271687D01*
X8086910Y-14271687D02*
X8077386Y-14233591D01*
X8077386Y-14233591D02*
X8077386Y-14185972D01*
X8077386Y-14185972D02*
X8086910Y-14147877D01*
X8086910Y-14147877D02*
X8096434Y-14128830D01*
X8096434Y-14128830D02*
X8105958Y-14119306D01*
X8105958Y-14119306D02*
X8125005Y-14109782D01*
X8267863Y-14109782D02*
X8267863Y-14147877D01*
X8344053Y-14109782D02*
X8344053Y-14147877D01*
X8639291Y-14385972D02*
X8629768Y-14376449D01*
X8629768Y-14376449D02*
X8610720Y-14347877D01*
X8610720Y-14347877D02*
X8601196Y-14328830D01*
X8601196Y-14328830D02*
X8591672Y-14300258D01*
X8591672Y-14300258D02*
X8582149Y-14252639D01*
X8582149Y-14252639D02*
X8582149Y-14214544D01*
X8582149Y-14214544D02*
X8591672Y-14166925D01*
X8591672Y-14166925D02*
X8601196Y-14138353D01*
X8601196Y-14138353D02*
X8610720Y-14119306D01*
X8610720Y-14119306D02*
X8629768Y-14090734D01*
X8629768Y-14090734D02*
X8639291Y-14081210D01*
X8696434Y-14109782D02*
X8820244Y-14109782D01*
X8820244Y-14109782D02*
X8753577Y-14185972D01*
X8753577Y-14185972D02*
X8782149Y-14185972D01*
X8782149Y-14185972D02*
X8801196Y-14195496D01*
X8801196Y-14195496D02*
X8810720Y-14205020D01*
X8810720Y-14205020D02*
X8820244Y-14224068D01*
X8820244Y-14224068D02*
X8820244Y-14271687D01*
X8820244Y-14271687D02*
X8810720Y-14290734D01*
X8810720Y-14290734D02*
X8801196Y-14300258D01*
X8801196Y-14300258D02*
X8782149Y-14309782D01*
X8782149Y-14309782D02*
X8725006Y-14309782D01*
X8725006Y-14309782D02*
X8705958Y-14300258D01*
X8705958Y-14300258D02*
X8696434Y-14290734D01*
X9058339Y-14309782D02*
X9058339Y-14109782D01*
X9144053Y-14309782D02*
X9144053Y-14205020D01*
X9144053Y-14205020D02*
X9134530Y-14185972D01*
X9134530Y-14185972D02*
X9115482Y-14176449D01*
X9115482Y-14176449D02*
X9086910Y-14176449D01*
X9086910Y-14176449D02*
X9067863Y-14185972D01*
X9067863Y-14185972D02*
X9058339Y-14195496D01*
X9267863Y-14309782D02*
X9248815Y-14300258D01*
X9248815Y-14300258D02*
X9239291Y-14290734D01*
X9239291Y-14290734D02*
X9229768Y-14271687D01*
X9229768Y-14271687D02*
X9229768Y-14214544D01*
X9229768Y-14214544D02*
X9239291Y-14195496D01*
X9239291Y-14195496D02*
X9248815Y-14185972D01*
X9248815Y-14185972D02*
X9267863Y-14176449D01*
X9267863Y-14176449D02*
X9296434Y-14176449D01*
X9296434Y-14176449D02*
X9315482Y-14185972D01*
X9315482Y-14185972D02*
X9325006Y-14195496D01*
X9325006Y-14195496D02*
X9334530Y-14214544D01*
X9334530Y-14214544D02*
X9334530Y-14271687D01*
X9334530Y-14271687D02*
X9325006Y-14290734D01*
X9325006Y-14290734D02*
X9315482Y-14300258D01*
X9315482Y-14300258D02*
X9296434Y-14309782D01*
X9296434Y-14309782D02*
X9267863Y-14309782D01*
X9448815Y-14309782D02*
X9429768Y-14300258D01*
X9429768Y-14300258D02*
X9420244Y-14281210D01*
X9420244Y-14281210D02*
X9420244Y-14109782D01*
X9601196Y-14300258D02*
X9582149Y-14309782D01*
X9582149Y-14309782D02*
X9544053Y-14309782D01*
X9544053Y-14309782D02*
X9525006Y-14300258D01*
X9525006Y-14300258D02*
X9515482Y-14281210D01*
X9515482Y-14281210D02*
X9515482Y-14205020D01*
X9515482Y-14205020D02*
X9525006Y-14185972D01*
X9525006Y-14185972D02*
X9544053Y-14176449D01*
X9544053Y-14176449D02*
X9582149Y-14176449D01*
X9582149Y-14176449D02*
X9601196Y-14185972D01*
X9601196Y-14185972D02*
X9610720Y-14205020D01*
X9610720Y-14205020D02*
X9610720Y-14224068D01*
X9610720Y-14224068D02*
X9515482Y-14243115D01*
X9686911Y-14300258D02*
X9705958Y-14309782D01*
X9705958Y-14309782D02*
X9744053Y-14309782D01*
X9744053Y-14309782D02*
X9763101Y-14300258D01*
X9763101Y-14300258D02*
X9772625Y-14281210D01*
X9772625Y-14281210D02*
X9772625Y-14271687D01*
X9772625Y-14271687D02*
X9763101Y-14252639D01*
X9763101Y-14252639D02*
X9744053Y-14243115D01*
X9744053Y-14243115D02*
X9715482Y-14243115D01*
X9715482Y-14243115D02*
X9696434Y-14233591D01*
X9696434Y-14233591D02*
X9686911Y-14214544D01*
X9686911Y-14214544D02*
X9686911Y-14205020D01*
X9686911Y-14205020D02*
X9696434Y-14185972D01*
X9696434Y-14185972D02*
X9715482Y-14176449D01*
X9715482Y-14176449D02*
X9744053Y-14176449D01*
X9744053Y-14176449D02*
X9763101Y-14185972D01*
X9839292Y-14385972D02*
X9848815Y-14376449D01*
X9848815Y-14376449D02*
X9867863Y-14347877D01*
X9867863Y-14347877D02*
X9877387Y-14328830D01*
X9877387Y-14328830D02*
X9886911Y-14300258D01*
X9886911Y-14300258D02*
X9896434Y-14252639D01*
X9896434Y-14252639D02*
X9896434Y-14214544D01*
X9896434Y-14214544D02*
X9886911Y-14166925D01*
X9886911Y-14166925D02*
X9877387Y-14138353D01*
X9877387Y-14138353D02*
X9867863Y-14119306D01*
X9867863Y-14119306D02*
X9848815Y-14090734D01*
X9848815Y-14090734D02*
X9839292Y-14081210D01*
D12*
X5024229Y-14442298D02*
X5024229Y-14522298D01*
X4984229Y-14482298D02*
X5064229Y-14482298D01*
D11*
X5363101Y-14373782D02*
X5382148Y-14373782D01*
X5382148Y-14373782D02*
X5401196Y-14383306D01*
X5401196Y-14383306D02*
X5410720Y-14392830D01*
X5410720Y-14392830D02*
X5420243Y-14411877D01*
X5420243Y-14411877D02*
X5429767Y-14449972D01*
X5429767Y-14449972D02*
X5429767Y-14497591D01*
X5429767Y-14497591D02*
X5420243Y-14535687D01*
X5420243Y-14535687D02*
X5410720Y-14554734D01*
X5410720Y-14554734D02*
X5401196Y-14564258D01*
X5401196Y-14564258D02*
X5382148Y-14573782D01*
X5382148Y-14573782D02*
X5363101Y-14573782D01*
X5363101Y-14573782D02*
X5344053Y-14564258D01*
X5344053Y-14564258D02*
X5334529Y-14554734D01*
X5334529Y-14554734D02*
X5325005Y-14535687D01*
X5325005Y-14535687D02*
X5315482Y-14497591D01*
X5315482Y-14497591D02*
X5315482Y-14449972D01*
X5315482Y-14449972D02*
X5325005Y-14411877D01*
X5325005Y-14411877D02*
X5334529Y-14392830D01*
X5334529Y-14392830D02*
X5344053Y-14383306D01*
X5344053Y-14383306D02*
X5363101Y-14373782D01*
X5515482Y-14554734D02*
X5525005Y-14564258D01*
X5525005Y-14564258D02*
X5515482Y-14573782D01*
X5515482Y-14573782D02*
X5505958Y-14564258D01*
X5505958Y-14564258D02*
X5515482Y-14554734D01*
X5515482Y-14554734D02*
X5515482Y-14573782D01*
X5639291Y-14459496D02*
X5620243Y-14449972D01*
X5620243Y-14449972D02*
X5610720Y-14440449D01*
X5610720Y-14440449D02*
X5601196Y-14421401D01*
X5601196Y-14421401D02*
X5601196Y-14411877D01*
X5601196Y-14411877D02*
X5610720Y-14392830D01*
X5610720Y-14392830D02*
X5620243Y-14383306D01*
X5620243Y-14383306D02*
X5639291Y-14373782D01*
X5639291Y-14373782D02*
X5677386Y-14373782D01*
X5677386Y-14373782D02*
X5696434Y-14383306D01*
X5696434Y-14383306D02*
X5705958Y-14392830D01*
X5705958Y-14392830D02*
X5715481Y-14411877D01*
X5715481Y-14411877D02*
X5715481Y-14421401D01*
X5715481Y-14421401D02*
X5705958Y-14440449D01*
X5705958Y-14440449D02*
X5696434Y-14449972D01*
X5696434Y-14449972D02*
X5677386Y-14459496D01*
X5677386Y-14459496D02*
X5639291Y-14459496D01*
X5639291Y-14459496D02*
X5620243Y-14469020D01*
X5620243Y-14469020D02*
X5610720Y-14478544D01*
X5610720Y-14478544D02*
X5601196Y-14497591D01*
X5601196Y-14497591D02*
X5601196Y-14535687D01*
X5601196Y-14535687D02*
X5610720Y-14554734D01*
X5610720Y-14554734D02*
X5620243Y-14564258D01*
X5620243Y-14564258D02*
X5639291Y-14573782D01*
X5639291Y-14573782D02*
X5677386Y-14573782D01*
X5677386Y-14573782D02*
X5696434Y-14564258D01*
X5696434Y-14564258D02*
X5705958Y-14554734D01*
X5705958Y-14554734D02*
X5715481Y-14535687D01*
X5715481Y-14535687D02*
X5715481Y-14497591D01*
X5715481Y-14497591D02*
X5705958Y-14478544D01*
X5705958Y-14478544D02*
X5696434Y-14469020D01*
X5696434Y-14469020D02*
X5677386Y-14459496D01*
X5839291Y-14373782D02*
X5858339Y-14373782D01*
X5858339Y-14373782D02*
X5877386Y-14383306D01*
X5877386Y-14383306D02*
X5886910Y-14392830D01*
X5886910Y-14392830D02*
X5896434Y-14411877D01*
X5896434Y-14411877D02*
X5905958Y-14449972D01*
X5905958Y-14449972D02*
X5905958Y-14497591D01*
X5905958Y-14497591D02*
X5896434Y-14535687D01*
X5896434Y-14535687D02*
X5886910Y-14554734D01*
X5886910Y-14554734D02*
X5877386Y-14564258D01*
X5877386Y-14564258D02*
X5858339Y-14573782D01*
X5858339Y-14573782D02*
X5839291Y-14573782D01*
X5839291Y-14573782D02*
X5820243Y-14564258D01*
X5820243Y-14564258D02*
X5810720Y-14554734D01*
X5810720Y-14554734D02*
X5801196Y-14535687D01*
X5801196Y-14535687D02*
X5791672Y-14497591D01*
X5791672Y-14497591D02*
X5791672Y-14449972D01*
X5791672Y-14449972D02*
X5801196Y-14411877D01*
X5801196Y-14411877D02*
X5810720Y-14392830D01*
X5810720Y-14392830D02*
X5820243Y-14383306D01*
X5820243Y-14383306D02*
X5839291Y-14373782D01*
X6029767Y-14373782D02*
X6048815Y-14373782D01*
X6048815Y-14373782D02*
X6067862Y-14383306D01*
X6067862Y-14383306D02*
X6077386Y-14392830D01*
X6077386Y-14392830D02*
X6086910Y-14411877D01*
X6086910Y-14411877D02*
X6096434Y-14449972D01*
X6096434Y-14449972D02*
X6096434Y-14497591D01*
X6096434Y-14497591D02*
X6086910Y-14535687D01*
X6086910Y-14535687D02*
X6077386Y-14554734D01*
X6077386Y-14554734D02*
X6067862Y-14564258D01*
X6067862Y-14564258D02*
X6048815Y-14573782D01*
X6048815Y-14573782D02*
X6029767Y-14573782D01*
X6029767Y-14573782D02*
X6010720Y-14564258D01*
X6010720Y-14564258D02*
X6001196Y-14554734D01*
X6001196Y-14554734D02*
X5991672Y-14535687D01*
X5991672Y-14535687D02*
X5982148Y-14497591D01*
X5982148Y-14497591D02*
X5982148Y-14449972D01*
X5982148Y-14449972D02*
X5991672Y-14411877D01*
X5991672Y-14411877D02*
X6001196Y-14392830D01*
X6001196Y-14392830D02*
X6010720Y-14383306D01*
X6010720Y-14383306D02*
X6029767Y-14373782D01*
X6182148Y-14573782D02*
X6182148Y-14440449D01*
X6182148Y-14459496D02*
X6191672Y-14449972D01*
X6191672Y-14449972D02*
X6210720Y-14440449D01*
X6210720Y-14440449D02*
X6239291Y-14440449D01*
X6239291Y-14440449D02*
X6258339Y-14449972D01*
X6258339Y-14449972D02*
X6267862Y-14469020D01*
X6267862Y-14469020D02*
X6267862Y-14573782D01*
X6267862Y-14469020D02*
X6277386Y-14449972D01*
X6277386Y-14449972D02*
X6296434Y-14440449D01*
X6296434Y-14440449D02*
X6325005Y-14440449D01*
X6325005Y-14440449D02*
X6344053Y-14449972D01*
X6344053Y-14449972D02*
X6353577Y-14469020D01*
X6353577Y-14469020D02*
X6353577Y-14573782D01*
X6448815Y-14573782D02*
X6448815Y-14440449D01*
X6448815Y-14459496D02*
X6458339Y-14449972D01*
X6458339Y-14449972D02*
X6477386Y-14440449D01*
X6477386Y-14440449D02*
X6505958Y-14440449D01*
X6505958Y-14440449D02*
X6525005Y-14449972D01*
X6525005Y-14449972D02*
X6534529Y-14469020D01*
X6534529Y-14469020D02*
X6534529Y-14573782D01*
X6534529Y-14469020D02*
X6544053Y-14449972D01*
X6544053Y-14449972D02*
X6563101Y-14440449D01*
X6563101Y-14440449D02*
X6591672Y-14440449D01*
X6591672Y-14440449D02*
X6610720Y-14449972D01*
X6610720Y-14449972D02*
X6620243Y-14469020D01*
X6620243Y-14469020D02*
X6620243Y-14573782D01*
X7010720Y-14364258D02*
X6839291Y-14621401D01*
X7267863Y-14373782D02*
X7286910Y-14373782D01*
X7286910Y-14373782D02*
X7305958Y-14383306D01*
X7305958Y-14383306D02*
X7315482Y-14392830D01*
X7315482Y-14392830D02*
X7325005Y-14411877D01*
X7325005Y-14411877D02*
X7334529Y-14449972D01*
X7334529Y-14449972D02*
X7334529Y-14497591D01*
X7334529Y-14497591D02*
X7325005Y-14535687D01*
X7325005Y-14535687D02*
X7315482Y-14554734D01*
X7315482Y-14554734D02*
X7305958Y-14564258D01*
X7305958Y-14564258D02*
X7286910Y-14573782D01*
X7286910Y-14573782D02*
X7267863Y-14573782D01*
X7267863Y-14573782D02*
X7248815Y-14564258D01*
X7248815Y-14564258D02*
X7239291Y-14554734D01*
X7239291Y-14554734D02*
X7229767Y-14535687D01*
X7229767Y-14535687D02*
X7220244Y-14497591D01*
X7220244Y-14497591D02*
X7220244Y-14449972D01*
X7220244Y-14449972D02*
X7229767Y-14411877D01*
X7229767Y-14411877D02*
X7239291Y-14392830D01*
X7239291Y-14392830D02*
X7248815Y-14383306D01*
X7248815Y-14383306D02*
X7267863Y-14373782D01*
X7420244Y-14554734D02*
X7429767Y-14564258D01*
X7429767Y-14564258D02*
X7420244Y-14573782D01*
X7420244Y-14573782D02*
X7410720Y-14564258D01*
X7410720Y-14564258D02*
X7420244Y-14554734D01*
X7420244Y-14554734D02*
X7420244Y-14573782D01*
X7553577Y-14373782D02*
X7572625Y-14373782D01*
X7572625Y-14373782D02*
X7591672Y-14383306D01*
X7591672Y-14383306D02*
X7601196Y-14392830D01*
X7601196Y-14392830D02*
X7610720Y-14411877D01*
X7610720Y-14411877D02*
X7620244Y-14449972D01*
X7620244Y-14449972D02*
X7620244Y-14497591D01*
X7620244Y-14497591D02*
X7610720Y-14535687D01*
X7610720Y-14535687D02*
X7601196Y-14554734D01*
X7601196Y-14554734D02*
X7591672Y-14564258D01*
X7591672Y-14564258D02*
X7572625Y-14573782D01*
X7572625Y-14573782D02*
X7553577Y-14573782D01*
X7553577Y-14573782D02*
X7534529Y-14564258D01*
X7534529Y-14564258D02*
X7525005Y-14554734D01*
X7525005Y-14554734D02*
X7515482Y-14535687D01*
X7515482Y-14535687D02*
X7505958Y-14497591D01*
X7505958Y-14497591D02*
X7505958Y-14449972D01*
X7505958Y-14449972D02*
X7515482Y-14411877D01*
X7515482Y-14411877D02*
X7525005Y-14392830D01*
X7525005Y-14392830D02*
X7534529Y-14383306D01*
X7534529Y-14383306D02*
X7553577Y-14373782D01*
X7686910Y-14373782D02*
X7810720Y-14373782D01*
X7810720Y-14373782D02*
X7744053Y-14449972D01*
X7744053Y-14449972D02*
X7772625Y-14449972D01*
X7772625Y-14449972D02*
X7791672Y-14459496D01*
X7791672Y-14459496D02*
X7801196Y-14469020D01*
X7801196Y-14469020D02*
X7810720Y-14488068D01*
X7810720Y-14488068D02*
X7810720Y-14535687D01*
X7810720Y-14535687D02*
X7801196Y-14554734D01*
X7801196Y-14554734D02*
X7791672Y-14564258D01*
X7791672Y-14564258D02*
X7772625Y-14573782D01*
X7772625Y-14573782D02*
X7715482Y-14573782D01*
X7715482Y-14573782D02*
X7696434Y-14564258D01*
X7696434Y-14564258D02*
X7686910Y-14554734D01*
X8001196Y-14573782D02*
X7886910Y-14573782D01*
X7944053Y-14573782D02*
X7944053Y-14373782D01*
X7944053Y-14373782D02*
X7925005Y-14402353D01*
X7925005Y-14402353D02*
X7905958Y-14421401D01*
X7905958Y-14421401D02*
X7886910Y-14430925D01*
X8182148Y-14373782D02*
X8086910Y-14373782D01*
X8086910Y-14373782D02*
X8077386Y-14469020D01*
X8077386Y-14469020D02*
X8086910Y-14459496D01*
X8086910Y-14459496D02*
X8105958Y-14449972D01*
X8105958Y-14449972D02*
X8153577Y-14449972D01*
X8153577Y-14449972D02*
X8172625Y-14459496D01*
X8172625Y-14459496D02*
X8182148Y-14469020D01*
X8182148Y-14469020D02*
X8191672Y-14488068D01*
X8191672Y-14488068D02*
X8191672Y-14535687D01*
X8191672Y-14535687D02*
X8182148Y-14554734D01*
X8182148Y-14554734D02*
X8172625Y-14564258D01*
X8172625Y-14564258D02*
X8153577Y-14573782D01*
X8153577Y-14573782D02*
X8105958Y-14573782D01*
X8105958Y-14573782D02*
X8086910Y-14564258D01*
X8086910Y-14564258D02*
X8077386Y-14554734D01*
X8267863Y-14373782D02*
X8267863Y-14411877D01*
X8344053Y-14373782D02*
X8344053Y-14411877D01*
X8639291Y-14649972D02*
X8629768Y-14640449D01*
X8629768Y-14640449D02*
X8610720Y-14611877D01*
X8610720Y-14611877D02*
X8601196Y-14592830D01*
X8601196Y-14592830D02*
X8591672Y-14564258D01*
X8591672Y-14564258D02*
X8582149Y-14516639D01*
X8582149Y-14516639D02*
X8582149Y-14478544D01*
X8582149Y-14478544D02*
X8591672Y-14430925D01*
X8591672Y-14430925D02*
X8601196Y-14402353D01*
X8601196Y-14402353D02*
X8610720Y-14383306D01*
X8610720Y-14383306D02*
X8629768Y-14354734D01*
X8629768Y-14354734D02*
X8639291Y-14345210D01*
X8820244Y-14573782D02*
X8705958Y-14573782D01*
X8763101Y-14573782D02*
X8763101Y-14373782D01*
X8763101Y-14373782D02*
X8744053Y-14402353D01*
X8744053Y-14402353D02*
X8725006Y-14421401D01*
X8725006Y-14421401D02*
X8705958Y-14430925D01*
X8915482Y-14573782D02*
X8953577Y-14573782D01*
X8953577Y-14573782D02*
X8972625Y-14564258D01*
X8972625Y-14564258D02*
X8982149Y-14554734D01*
X8982149Y-14554734D02*
X9001196Y-14526163D01*
X9001196Y-14526163D02*
X9010720Y-14488068D01*
X9010720Y-14488068D02*
X9010720Y-14411877D01*
X9010720Y-14411877D02*
X9001196Y-14392830D01*
X9001196Y-14392830D02*
X8991672Y-14383306D01*
X8991672Y-14383306D02*
X8972625Y-14373782D01*
X8972625Y-14373782D02*
X8934529Y-14373782D01*
X8934529Y-14373782D02*
X8915482Y-14383306D01*
X8915482Y-14383306D02*
X8905958Y-14392830D01*
X8905958Y-14392830D02*
X8896434Y-14411877D01*
X8896434Y-14411877D02*
X8896434Y-14459496D01*
X8896434Y-14459496D02*
X8905958Y-14478544D01*
X8905958Y-14478544D02*
X8915482Y-14488068D01*
X8915482Y-14488068D02*
X8934529Y-14497591D01*
X8934529Y-14497591D02*
X8972625Y-14497591D01*
X8972625Y-14497591D02*
X8991672Y-14488068D01*
X8991672Y-14488068D02*
X9001196Y-14478544D01*
X9001196Y-14478544D02*
X9010720Y-14459496D01*
X9248815Y-14573782D02*
X9248815Y-14373782D01*
X9334530Y-14573782D02*
X9334530Y-14469020D01*
X9334530Y-14469020D02*
X9325006Y-14449972D01*
X9325006Y-14449972D02*
X9305958Y-14440449D01*
X9305958Y-14440449D02*
X9277387Y-14440449D01*
X9277387Y-14440449D02*
X9258339Y-14449972D01*
X9258339Y-14449972D02*
X9248815Y-14459496D01*
X9458339Y-14573782D02*
X9439291Y-14564258D01*
X9439291Y-14564258D02*
X9429768Y-14554734D01*
X9429768Y-14554734D02*
X9420244Y-14535687D01*
X9420244Y-14535687D02*
X9420244Y-14478544D01*
X9420244Y-14478544D02*
X9429768Y-14459496D01*
X9429768Y-14459496D02*
X9439291Y-14449972D01*
X9439291Y-14449972D02*
X9458339Y-14440449D01*
X9458339Y-14440449D02*
X9486911Y-14440449D01*
X9486911Y-14440449D02*
X9505958Y-14449972D01*
X9505958Y-14449972D02*
X9515482Y-14459496D01*
X9515482Y-14459496D02*
X9525006Y-14478544D01*
X9525006Y-14478544D02*
X9525006Y-14535687D01*
X9525006Y-14535687D02*
X9515482Y-14554734D01*
X9515482Y-14554734D02*
X9505958Y-14564258D01*
X9505958Y-14564258D02*
X9486911Y-14573782D01*
X9486911Y-14573782D02*
X9458339Y-14573782D01*
X9639291Y-14573782D02*
X9620244Y-14564258D01*
X9620244Y-14564258D02*
X9610720Y-14545210D01*
X9610720Y-14545210D02*
X9610720Y-14373782D01*
X9791672Y-14564258D02*
X9772625Y-14573782D01*
X9772625Y-14573782D02*
X9734530Y-14573782D01*
X9734530Y-14573782D02*
X9715482Y-14564258D01*
X9715482Y-14564258D02*
X9705958Y-14545210D01*
X9705958Y-14545210D02*
X9705958Y-14469020D01*
X9705958Y-14469020D02*
X9715482Y-14449972D01*
X9715482Y-14449972D02*
X9734530Y-14440449D01*
X9734530Y-14440449D02*
X9772625Y-14440449D01*
X9772625Y-14440449D02*
X9791672Y-14449972D01*
X9791672Y-14449972D02*
X9801196Y-14469020D01*
X9801196Y-14469020D02*
X9801196Y-14488068D01*
X9801196Y-14488068D02*
X9705958Y-14507115D01*
X9877387Y-14564258D02*
X9896434Y-14573782D01*
X9896434Y-14573782D02*
X9934530Y-14573782D01*
X9934530Y-14573782D02*
X9953577Y-14564258D01*
X9953577Y-14564258D02*
X9963101Y-14545210D01*
X9963101Y-14545210D02*
X9963101Y-14535687D01*
X9963101Y-14535687D02*
X9953577Y-14516639D01*
X9953577Y-14516639D02*
X9934530Y-14507115D01*
X9934530Y-14507115D02*
X9905958Y-14507115D01*
X9905958Y-14507115D02*
X9886911Y-14497591D01*
X9886911Y-14497591D02*
X9877387Y-14478544D01*
X9877387Y-14478544D02*
X9877387Y-14469020D01*
X9877387Y-14469020D02*
X9886911Y-14449972D01*
X9886911Y-14449972D02*
X9905958Y-14440449D01*
X9905958Y-14440449D02*
X9934530Y-14440449D01*
X9934530Y-14440449D02*
X9953577Y-14449972D01*
X10029768Y-14649972D02*
X10039292Y-14640449D01*
X10039292Y-14640449D02*
X10058339Y-14611877D01*
X10058339Y-14611877D02*
X10067863Y-14592830D01*
X10067863Y-14592830D02*
X10077387Y-14564258D01*
X10077387Y-14564258D02*
X10086911Y-14516639D01*
X10086911Y-14516639D02*
X10086911Y-14478544D01*
X10086911Y-14478544D02*
X10077387Y-14430925D01*
X10077387Y-14430925D02*
X10067863Y-14402353D01*
X10067863Y-14402353D02*
X10058339Y-14383306D01*
X10058339Y-14383306D02*
X10039292Y-14354734D01*
X10039292Y-14354734D02*
X10029768Y-14345210D01*
D12*
X5051049Y-14778118D02*
X5051049Y-14714478D01*
X4987408Y-14714478D01*
X4987408Y-14778118D01*
X5051049Y-14778118D01*
D11*
X5363101Y-14637782D02*
X5382148Y-14637782D01*
X5382148Y-14637782D02*
X5401196Y-14647306D01*
X5401196Y-14647306D02*
X5410720Y-14656830D01*
X5410720Y-14656830D02*
X5420243Y-14675877D01*
X5420243Y-14675877D02*
X5429767Y-14713972D01*
X5429767Y-14713972D02*
X5429767Y-14761591D01*
X5429767Y-14761591D02*
X5420243Y-14799687D01*
X5420243Y-14799687D02*
X5410720Y-14818734D01*
X5410720Y-14818734D02*
X5401196Y-14828258D01*
X5401196Y-14828258D02*
X5382148Y-14837782D01*
X5382148Y-14837782D02*
X5363101Y-14837782D01*
X5363101Y-14837782D02*
X5344053Y-14828258D01*
X5344053Y-14828258D02*
X5334529Y-14818734D01*
X5334529Y-14818734D02*
X5325005Y-14799687D01*
X5325005Y-14799687D02*
X5315482Y-14761591D01*
X5315482Y-14761591D02*
X5315482Y-14713972D01*
X5315482Y-14713972D02*
X5325005Y-14675877D01*
X5325005Y-14675877D02*
X5334529Y-14656830D01*
X5334529Y-14656830D02*
X5344053Y-14647306D01*
X5344053Y-14647306D02*
X5363101Y-14637782D01*
X5515482Y-14818734D02*
X5525005Y-14828258D01*
X5525005Y-14828258D02*
X5515482Y-14837782D01*
X5515482Y-14837782D02*
X5505958Y-14828258D01*
X5505958Y-14828258D02*
X5515482Y-14818734D01*
X5515482Y-14818734D02*
X5515482Y-14837782D01*
X5620243Y-14837782D02*
X5658339Y-14837782D01*
X5658339Y-14837782D02*
X5677386Y-14828258D01*
X5677386Y-14828258D02*
X5686910Y-14818734D01*
X5686910Y-14818734D02*
X5705958Y-14790163D01*
X5705958Y-14790163D02*
X5715481Y-14752068D01*
X5715481Y-14752068D02*
X5715481Y-14675877D01*
X5715481Y-14675877D02*
X5705958Y-14656830D01*
X5705958Y-14656830D02*
X5696434Y-14647306D01*
X5696434Y-14647306D02*
X5677386Y-14637782D01*
X5677386Y-14637782D02*
X5639291Y-14637782D01*
X5639291Y-14637782D02*
X5620243Y-14647306D01*
X5620243Y-14647306D02*
X5610720Y-14656830D01*
X5610720Y-14656830D02*
X5601196Y-14675877D01*
X5601196Y-14675877D02*
X5601196Y-14723496D01*
X5601196Y-14723496D02*
X5610720Y-14742544D01*
X5610720Y-14742544D02*
X5620243Y-14752068D01*
X5620243Y-14752068D02*
X5639291Y-14761591D01*
X5639291Y-14761591D02*
X5677386Y-14761591D01*
X5677386Y-14761591D02*
X5696434Y-14752068D01*
X5696434Y-14752068D02*
X5705958Y-14742544D01*
X5705958Y-14742544D02*
X5715481Y-14723496D01*
X5839291Y-14637782D02*
X5858339Y-14637782D01*
X5858339Y-14637782D02*
X5877386Y-14647306D01*
X5877386Y-14647306D02*
X5886910Y-14656830D01*
X5886910Y-14656830D02*
X5896434Y-14675877D01*
X5896434Y-14675877D02*
X5905958Y-14713972D01*
X5905958Y-14713972D02*
X5905958Y-14761591D01*
X5905958Y-14761591D02*
X5896434Y-14799687D01*
X5896434Y-14799687D02*
X5886910Y-14818734D01*
X5886910Y-14818734D02*
X5877386Y-14828258D01*
X5877386Y-14828258D02*
X5858339Y-14837782D01*
X5858339Y-14837782D02*
X5839291Y-14837782D01*
X5839291Y-14837782D02*
X5820243Y-14828258D01*
X5820243Y-14828258D02*
X5810720Y-14818734D01*
X5810720Y-14818734D02*
X5801196Y-14799687D01*
X5801196Y-14799687D02*
X5791672Y-14761591D01*
X5791672Y-14761591D02*
X5791672Y-14713972D01*
X5791672Y-14713972D02*
X5801196Y-14675877D01*
X5801196Y-14675877D02*
X5810720Y-14656830D01*
X5810720Y-14656830D02*
X5820243Y-14647306D01*
X5820243Y-14647306D02*
X5839291Y-14637782D01*
X6029767Y-14637782D02*
X6048815Y-14637782D01*
X6048815Y-14637782D02*
X6067862Y-14647306D01*
X6067862Y-14647306D02*
X6077386Y-14656830D01*
X6077386Y-14656830D02*
X6086910Y-14675877D01*
X6086910Y-14675877D02*
X6096434Y-14713972D01*
X6096434Y-14713972D02*
X6096434Y-14761591D01*
X6096434Y-14761591D02*
X6086910Y-14799687D01*
X6086910Y-14799687D02*
X6077386Y-14818734D01*
X6077386Y-14818734D02*
X6067862Y-14828258D01*
X6067862Y-14828258D02*
X6048815Y-14837782D01*
X6048815Y-14837782D02*
X6029767Y-14837782D01*
X6029767Y-14837782D02*
X6010720Y-14828258D01*
X6010720Y-14828258D02*
X6001196Y-14818734D01*
X6001196Y-14818734D02*
X5991672Y-14799687D01*
X5991672Y-14799687D02*
X5982148Y-14761591D01*
X5982148Y-14761591D02*
X5982148Y-14713972D01*
X5982148Y-14713972D02*
X5991672Y-14675877D01*
X5991672Y-14675877D02*
X6001196Y-14656830D01*
X6001196Y-14656830D02*
X6010720Y-14647306D01*
X6010720Y-14647306D02*
X6029767Y-14637782D01*
X6182148Y-14837782D02*
X6182148Y-14704449D01*
X6182148Y-14723496D02*
X6191672Y-14713972D01*
X6191672Y-14713972D02*
X6210720Y-14704449D01*
X6210720Y-14704449D02*
X6239291Y-14704449D01*
X6239291Y-14704449D02*
X6258339Y-14713972D01*
X6258339Y-14713972D02*
X6267862Y-14733020D01*
X6267862Y-14733020D02*
X6267862Y-14837782D01*
X6267862Y-14733020D02*
X6277386Y-14713972D01*
X6277386Y-14713972D02*
X6296434Y-14704449D01*
X6296434Y-14704449D02*
X6325005Y-14704449D01*
X6325005Y-14704449D02*
X6344053Y-14713972D01*
X6344053Y-14713972D02*
X6353577Y-14733020D01*
X6353577Y-14733020D02*
X6353577Y-14837782D01*
X6448815Y-14837782D02*
X6448815Y-14704449D01*
X6448815Y-14723496D02*
X6458339Y-14713972D01*
X6458339Y-14713972D02*
X6477386Y-14704449D01*
X6477386Y-14704449D02*
X6505958Y-14704449D01*
X6505958Y-14704449D02*
X6525005Y-14713972D01*
X6525005Y-14713972D02*
X6534529Y-14733020D01*
X6534529Y-14733020D02*
X6534529Y-14837782D01*
X6534529Y-14733020D02*
X6544053Y-14713972D01*
X6544053Y-14713972D02*
X6563101Y-14704449D01*
X6563101Y-14704449D02*
X6591672Y-14704449D01*
X6591672Y-14704449D02*
X6610720Y-14713972D01*
X6610720Y-14713972D02*
X6620243Y-14733020D01*
X6620243Y-14733020D02*
X6620243Y-14837782D01*
X7010720Y-14628258D02*
X6839291Y-14885401D01*
X7267863Y-14637782D02*
X7286910Y-14637782D01*
X7286910Y-14637782D02*
X7305958Y-14647306D01*
X7305958Y-14647306D02*
X7315482Y-14656830D01*
X7315482Y-14656830D02*
X7325005Y-14675877D01*
X7325005Y-14675877D02*
X7334529Y-14713972D01*
X7334529Y-14713972D02*
X7334529Y-14761591D01*
X7334529Y-14761591D02*
X7325005Y-14799687D01*
X7325005Y-14799687D02*
X7315482Y-14818734D01*
X7315482Y-14818734D02*
X7305958Y-14828258D01*
X7305958Y-14828258D02*
X7286910Y-14837782D01*
X7286910Y-14837782D02*
X7267863Y-14837782D01*
X7267863Y-14837782D02*
X7248815Y-14828258D01*
X7248815Y-14828258D02*
X7239291Y-14818734D01*
X7239291Y-14818734D02*
X7229767Y-14799687D01*
X7229767Y-14799687D02*
X7220244Y-14761591D01*
X7220244Y-14761591D02*
X7220244Y-14713972D01*
X7220244Y-14713972D02*
X7229767Y-14675877D01*
X7229767Y-14675877D02*
X7239291Y-14656830D01*
X7239291Y-14656830D02*
X7248815Y-14647306D01*
X7248815Y-14647306D02*
X7267863Y-14637782D01*
X7420244Y-14818734D02*
X7429767Y-14828258D01*
X7429767Y-14828258D02*
X7420244Y-14837782D01*
X7420244Y-14837782D02*
X7410720Y-14828258D01*
X7410720Y-14828258D02*
X7420244Y-14818734D01*
X7420244Y-14818734D02*
X7420244Y-14837782D01*
X7553577Y-14637782D02*
X7572625Y-14637782D01*
X7572625Y-14637782D02*
X7591672Y-14647306D01*
X7591672Y-14647306D02*
X7601196Y-14656830D01*
X7601196Y-14656830D02*
X7610720Y-14675877D01*
X7610720Y-14675877D02*
X7620244Y-14713972D01*
X7620244Y-14713972D02*
X7620244Y-14761591D01*
X7620244Y-14761591D02*
X7610720Y-14799687D01*
X7610720Y-14799687D02*
X7601196Y-14818734D01*
X7601196Y-14818734D02*
X7591672Y-14828258D01*
X7591672Y-14828258D02*
X7572625Y-14837782D01*
X7572625Y-14837782D02*
X7553577Y-14837782D01*
X7553577Y-14837782D02*
X7534529Y-14828258D01*
X7534529Y-14828258D02*
X7525005Y-14818734D01*
X7525005Y-14818734D02*
X7515482Y-14799687D01*
X7515482Y-14799687D02*
X7505958Y-14761591D01*
X7505958Y-14761591D02*
X7505958Y-14713972D01*
X7505958Y-14713972D02*
X7515482Y-14675877D01*
X7515482Y-14675877D02*
X7525005Y-14656830D01*
X7525005Y-14656830D02*
X7534529Y-14647306D01*
X7534529Y-14647306D02*
X7553577Y-14637782D01*
X7686910Y-14637782D02*
X7810720Y-14637782D01*
X7810720Y-14637782D02*
X7744053Y-14713972D01*
X7744053Y-14713972D02*
X7772625Y-14713972D01*
X7772625Y-14713972D02*
X7791672Y-14723496D01*
X7791672Y-14723496D02*
X7801196Y-14733020D01*
X7801196Y-14733020D02*
X7810720Y-14752068D01*
X7810720Y-14752068D02*
X7810720Y-14799687D01*
X7810720Y-14799687D02*
X7801196Y-14818734D01*
X7801196Y-14818734D02*
X7791672Y-14828258D01*
X7791672Y-14828258D02*
X7772625Y-14837782D01*
X7772625Y-14837782D02*
X7715482Y-14837782D01*
X7715482Y-14837782D02*
X7696434Y-14828258D01*
X7696434Y-14828258D02*
X7686910Y-14818734D01*
X7991672Y-14637782D02*
X7896434Y-14637782D01*
X7896434Y-14637782D02*
X7886910Y-14733020D01*
X7886910Y-14733020D02*
X7896434Y-14723496D01*
X7896434Y-14723496D02*
X7915482Y-14713972D01*
X7915482Y-14713972D02*
X7963101Y-14713972D01*
X7963101Y-14713972D02*
X7982148Y-14723496D01*
X7982148Y-14723496D02*
X7991672Y-14733020D01*
X7991672Y-14733020D02*
X8001196Y-14752068D01*
X8001196Y-14752068D02*
X8001196Y-14799687D01*
X8001196Y-14799687D02*
X7991672Y-14818734D01*
X7991672Y-14818734D02*
X7982148Y-14828258D01*
X7982148Y-14828258D02*
X7963101Y-14837782D01*
X7963101Y-14837782D02*
X7915482Y-14837782D01*
X7915482Y-14837782D02*
X7896434Y-14828258D01*
X7896434Y-14828258D02*
X7886910Y-14818734D01*
X8172625Y-14704449D02*
X8172625Y-14837782D01*
X8125005Y-14628258D02*
X8077386Y-14771115D01*
X8077386Y-14771115D02*
X8201196Y-14771115D01*
X8267863Y-14637782D02*
X8267863Y-14675877D01*
X8344053Y-14637782D02*
X8344053Y-14675877D01*
X8639291Y-14913972D02*
X8629768Y-14904449D01*
X8629768Y-14904449D02*
X8610720Y-14875877D01*
X8610720Y-14875877D02*
X8601196Y-14856830D01*
X8601196Y-14856830D02*
X8591672Y-14828258D01*
X8591672Y-14828258D02*
X8582149Y-14780639D01*
X8582149Y-14780639D02*
X8582149Y-14742544D01*
X8582149Y-14742544D02*
X8591672Y-14694925D01*
X8591672Y-14694925D02*
X8601196Y-14666353D01*
X8601196Y-14666353D02*
X8610720Y-14647306D01*
X8610720Y-14647306D02*
X8629768Y-14618734D01*
X8629768Y-14618734D02*
X8639291Y-14609210D01*
X8801196Y-14704449D02*
X8801196Y-14837782D01*
X8753577Y-14628258D02*
X8705958Y-14771115D01*
X8705958Y-14771115D02*
X8829768Y-14771115D01*
X9058339Y-14837782D02*
X9058339Y-14637782D01*
X9144053Y-14837782D02*
X9144053Y-14733020D01*
X9144053Y-14733020D02*
X9134530Y-14713972D01*
X9134530Y-14713972D02*
X9115482Y-14704449D01*
X9115482Y-14704449D02*
X9086910Y-14704449D01*
X9086910Y-14704449D02*
X9067863Y-14713972D01*
X9067863Y-14713972D02*
X9058339Y-14723496D01*
X9267863Y-14837782D02*
X9248815Y-14828258D01*
X9248815Y-14828258D02*
X9239291Y-14818734D01*
X9239291Y-14818734D02*
X9229768Y-14799687D01*
X9229768Y-14799687D02*
X9229768Y-14742544D01*
X9229768Y-14742544D02*
X9239291Y-14723496D01*
X9239291Y-14723496D02*
X9248815Y-14713972D01*
X9248815Y-14713972D02*
X9267863Y-14704449D01*
X9267863Y-14704449D02*
X9296434Y-14704449D01*
X9296434Y-14704449D02*
X9315482Y-14713972D01*
X9315482Y-14713972D02*
X9325006Y-14723496D01*
X9325006Y-14723496D02*
X9334530Y-14742544D01*
X9334530Y-14742544D02*
X9334530Y-14799687D01*
X9334530Y-14799687D02*
X9325006Y-14818734D01*
X9325006Y-14818734D02*
X9315482Y-14828258D01*
X9315482Y-14828258D02*
X9296434Y-14837782D01*
X9296434Y-14837782D02*
X9267863Y-14837782D01*
X9448815Y-14837782D02*
X9429768Y-14828258D01*
X9429768Y-14828258D02*
X9420244Y-14809210D01*
X9420244Y-14809210D02*
X9420244Y-14637782D01*
X9601196Y-14828258D02*
X9582149Y-14837782D01*
X9582149Y-14837782D02*
X9544053Y-14837782D01*
X9544053Y-14837782D02*
X9525006Y-14828258D01*
X9525006Y-14828258D02*
X9515482Y-14809210D01*
X9515482Y-14809210D02*
X9515482Y-14733020D01*
X9515482Y-14733020D02*
X9525006Y-14713972D01*
X9525006Y-14713972D02*
X9544053Y-14704449D01*
X9544053Y-14704449D02*
X9582149Y-14704449D01*
X9582149Y-14704449D02*
X9601196Y-14713972D01*
X9601196Y-14713972D02*
X9610720Y-14733020D01*
X9610720Y-14733020D02*
X9610720Y-14752068D01*
X9610720Y-14752068D02*
X9515482Y-14771115D01*
X9686911Y-14828258D02*
X9705958Y-14837782D01*
X9705958Y-14837782D02*
X9744053Y-14837782D01*
X9744053Y-14837782D02*
X9763101Y-14828258D01*
X9763101Y-14828258D02*
X9772625Y-14809210D01*
X9772625Y-14809210D02*
X9772625Y-14799687D01*
X9772625Y-14799687D02*
X9763101Y-14780639D01*
X9763101Y-14780639D02*
X9744053Y-14771115D01*
X9744053Y-14771115D02*
X9715482Y-14771115D01*
X9715482Y-14771115D02*
X9696434Y-14761591D01*
X9696434Y-14761591D02*
X9686911Y-14742544D01*
X9686911Y-14742544D02*
X9686911Y-14733020D01*
X9686911Y-14733020D02*
X9696434Y-14713972D01*
X9696434Y-14713972D02*
X9715482Y-14704449D01*
X9715482Y-14704449D02*
X9744053Y-14704449D01*
X9744053Y-14704449D02*
X9763101Y-14713972D01*
X9839292Y-14913972D02*
X9848815Y-14904449D01*
X9848815Y-14904449D02*
X9867863Y-14875877D01*
X9867863Y-14875877D02*
X9877387Y-14856830D01*
X9877387Y-14856830D02*
X9886911Y-14828258D01*
X9886911Y-14828258D02*
X9896434Y-14780639D01*
X9896434Y-14780639D02*
X9896434Y-14742544D01*
X9896434Y-14742544D02*
X9886911Y-14694925D01*
X9886911Y-14694925D02*
X9877387Y-14666353D01*
X9877387Y-14666353D02*
X9867863Y-14647306D01*
X9867863Y-14647306D02*
X9848815Y-14618734D01*
X9848815Y-14618734D02*
X9839292Y-14609210D01*
D12*
X5014229Y-15060298D02*
X5064229Y-15010298D01*
X5014229Y-14960298D01*
X4964229Y-15010298D01*
X5014229Y-15060298D01*
D11*
X5429767Y-15101782D02*
X5315482Y-15101782D01*
X5372624Y-15101782D02*
X5372624Y-14901782D01*
X5372624Y-14901782D02*
X5353577Y-14930353D01*
X5353577Y-14930353D02*
X5334529Y-14949401D01*
X5334529Y-14949401D02*
X5315482Y-14958925D01*
X5515482Y-15082734D02*
X5525005Y-15092258D01*
X5525005Y-15092258D02*
X5515482Y-15101782D01*
X5515482Y-15101782D02*
X5505958Y-15092258D01*
X5505958Y-15092258D02*
X5515482Y-15082734D01*
X5515482Y-15082734D02*
X5515482Y-15101782D01*
X5648815Y-14901782D02*
X5667862Y-14901782D01*
X5667862Y-14901782D02*
X5686910Y-14911306D01*
X5686910Y-14911306D02*
X5696434Y-14920830D01*
X5696434Y-14920830D02*
X5705958Y-14939877D01*
X5705958Y-14939877D02*
X5715481Y-14977972D01*
X5715481Y-14977972D02*
X5715481Y-15025591D01*
X5715481Y-15025591D02*
X5705958Y-15063687D01*
X5705958Y-15063687D02*
X5696434Y-15082734D01*
X5696434Y-15082734D02*
X5686910Y-15092258D01*
X5686910Y-15092258D02*
X5667862Y-15101782D01*
X5667862Y-15101782D02*
X5648815Y-15101782D01*
X5648815Y-15101782D02*
X5629767Y-15092258D01*
X5629767Y-15092258D02*
X5620243Y-15082734D01*
X5620243Y-15082734D02*
X5610720Y-15063687D01*
X5610720Y-15063687D02*
X5601196Y-15025591D01*
X5601196Y-15025591D02*
X5601196Y-14977972D01*
X5601196Y-14977972D02*
X5610720Y-14939877D01*
X5610720Y-14939877D02*
X5620243Y-14920830D01*
X5620243Y-14920830D02*
X5629767Y-14911306D01*
X5629767Y-14911306D02*
X5648815Y-14901782D01*
X5839291Y-14901782D02*
X5858339Y-14901782D01*
X5858339Y-14901782D02*
X5877386Y-14911306D01*
X5877386Y-14911306D02*
X5886910Y-14920830D01*
X5886910Y-14920830D02*
X5896434Y-14939877D01*
X5896434Y-14939877D02*
X5905958Y-14977972D01*
X5905958Y-14977972D02*
X5905958Y-15025591D01*
X5905958Y-15025591D02*
X5896434Y-15063687D01*
X5896434Y-15063687D02*
X5886910Y-15082734D01*
X5886910Y-15082734D02*
X5877386Y-15092258D01*
X5877386Y-15092258D02*
X5858339Y-15101782D01*
X5858339Y-15101782D02*
X5839291Y-15101782D01*
X5839291Y-15101782D02*
X5820243Y-15092258D01*
X5820243Y-15092258D02*
X5810720Y-15082734D01*
X5810720Y-15082734D02*
X5801196Y-15063687D01*
X5801196Y-15063687D02*
X5791672Y-15025591D01*
X5791672Y-15025591D02*
X5791672Y-14977972D01*
X5791672Y-14977972D02*
X5801196Y-14939877D01*
X5801196Y-14939877D02*
X5810720Y-14920830D01*
X5810720Y-14920830D02*
X5820243Y-14911306D01*
X5820243Y-14911306D02*
X5839291Y-14901782D01*
X6029767Y-14901782D02*
X6048815Y-14901782D01*
X6048815Y-14901782D02*
X6067862Y-14911306D01*
X6067862Y-14911306D02*
X6077386Y-14920830D01*
X6077386Y-14920830D02*
X6086910Y-14939877D01*
X6086910Y-14939877D02*
X6096434Y-14977972D01*
X6096434Y-14977972D02*
X6096434Y-15025591D01*
X6096434Y-15025591D02*
X6086910Y-15063687D01*
X6086910Y-15063687D02*
X6077386Y-15082734D01*
X6077386Y-15082734D02*
X6067862Y-15092258D01*
X6067862Y-15092258D02*
X6048815Y-15101782D01*
X6048815Y-15101782D02*
X6029767Y-15101782D01*
X6029767Y-15101782D02*
X6010720Y-15092258D01*
X6010720Y-15092258D02*
X6001196Y-15082734D01*
X6001196Y-15082734D02*
X5991672Y-15063687D01*
X5991672Y-15063687D02*
X5982148Y-15025591D01*
X5982148Y-15025591D02*
X5982148Y-14977972D01*
X5982148Y-14977972D02*
X5991672Y-14939877D01*
X5991672Y-14939877D02*
X6001196Y-14920830D01*
X6001196Y-14920830D02*
X6010720Y-14911306D01*
X6010720Y-14911306D02*
X6029767Y-14901782D01*
X6182148Y-15101782D02*
X6182148Y-14968449D01*
X6182148Y-14987496D02*
X6191672Y-14977972D01*
X6191672Y-14977972D02*
X6210720Y-14968449D01*
X6210720Y-14968449D02*
X6239291Y-14968449D01*
X6239291Y-14968449D02*
X6258339Y-14977972D01*
X6258339Y-14977972D02*
X6267862Y-14997020D01*
X6267862Y-14997020D02*
X6267862Y-15101782D01*
X6267862Y-14997020D02*
X6277386Y-14977972D01*
X6277386Y-14977972D02*
X6296434Y-14968449D01*
X6296434Y-14968449D02*
X6325005Y-14968449D01*
X6325005Y-14968449D02*
X6344053Y-14977972D01*
X6344053Y-14977972D02*
X6353577Y-14997020D01*
X6353577Y-14997020D02*
X6353577Y-15101782D01*
X6448815Y-15101782D02*
X6448815Y-14968449D01*
X6448815Y-14987496D02*
X6458339Y-14977972D01*
X6458339Y-14977972D02*
X6477386Y-14968449D01*
X6477386Y-14968449D02*
X6505958Y-14968449D01*
X6505958Y-14968449D02*
X6525005Y-14977972D01*
X6525005Y-14977972D02*
X6534529Y-14997020D01*
X6534529Y-14997020D02*
X6534529Y-15101782D01*
X6534529Y-14997020D02*
X6544053Y-14977972D01*
X6544053Y-14977972D02*
X6563101Y-14968449D01*
X6563101Y-14968449D02*
X6591672Y-14968449D01*
X6591672Y-14968449D02*
X6610720Y-14977972D01*
X6610720Y-14977972D02*
X6620243Y-14997020D01*
X6620243Y-14997020D02*
X6620243Y-15101782D01*
X7010720Y-14892258D02*
X6839291Y-15149401D01*
X7267863Y-14901782D02*
X7286910Y-14901782D01*
X7286910Y-14901782D02*
X7305958Y-14911306D01*
X7305958Y-14911306D02*
X7315482Y-14920830D01*
X7315482Y-14920830D02*
X7325005Y-14939877D01*
X7325005Y-14939877D02*
X7334529Y-14977972D01*
X7334529Y-14977972D02*
X7334529Y-15025591D01*
X7334529Y-15025591D02*
X7325005Y-15063687D01*
X7325005Y-15063687D02*
X7315482Y-15082734D01*
X7315482Y-15082734D02*
X7305958Y-15092258D01*
X7305958Y-15092258D02*
X7286910Y-15101782D01*
X7286910Y-15101782D02*
X7267863Y-15101782D01*
X7267863Y-15101782D02*
X7248815Y-15092258D01*
X7248815Y-15092258D02*
X7239291Y-15082734D01*
X7239291Y-15082734D02*
X7229767Y-15063687D01*
X7229767Y-15063687D02*
X7220244Y-15025591D01*
X7220244Y-15025591D02*
X7220244Y-14977972D01*
X7220244Y-14977972D02*
X7229767Y-14939877D01*
X7229767Y-14939877D02*
X7239291Y-14920830D01*
X7239291Y-14920830D02*
X7248815Y-14911306D01*
X7248815Y-14911306D02*
X7267863Y-14901782D01*
X7420244Y-15082734D02*
X7429767Y-15092258D01*
X7429767Y-15092258D02*
X7420244Y-15101782D01*
X7420244Y-15101782D02*
X7410720Y-15092258D01*
X7410720Y-15092258D02*
X7420244Y-15082734D01*
X7420244Y-15082734D02*
X7420244Y-15101782D01*
X7553577Y-14901782D02*
X7572625Y-14901782D01*
X7572625Y-14901782D02*
X7591672Y-14911306D01*
X7591672Y-14911306D02*
X7601196Y-14920830D01*
X7601196Y-14920830D02*
X7610720Y-14939877D01*
X7610720Y-14939877D02*
X7620244Y-14977972D01*
X7620244Y-14977972D02*
X7620244Y-15025591D01*
X7620244Y-15025591D02*
X7610720Y-15063687D01*
X7610720Y-15063687D02*
X7601196Y-15082734D01*
X7601196Y-15082734D02*
X7591672Y-15092258D01*
X7591672Y-15092258D02*
X7572625Y-15101782D01*
X7572625Y-15101782D02*
X7553577Y-15101782D01*
X7553577Y-15101782D02*
X7534529Y-15092258D01*
X7534529Y-15092258D02*
X7525005Y-15082734D01*
X7525005Y-15082734D02*
X7515482Y-15063687D01*
X7515482Y-15063687D02*
X7505958Y-15025591D01*
X7505958Y-15025591D02*
X7505958Y-14977972D01*
X7505958Y-14977972D02*
X7515482Y-14939877D01*
X7515482Y-14939877D02*
X7525005Y-14920830D01*
X7525005Y-14920830D02*
X7534529Y-14911306D01*
X7534529Y-14911306D02*
X7553577Y-14901782D01*
X7686910Y-14901782D02*
X7810720Y-14901782D01*
X7810720Y-14901782D02*
X7744053Y-14977972D01*
X7744053Y-14977972D02*
X7772625Y-14977972D01*
X7772625Y-14977972D02*
X7791672Y-14987496D01*
X7791672Y-14987496D02*
X7801196Y-14997020D01*
X7801196Y-14997020D02*
X7810720Y-15016068D01*
X7810720Y-15016068D02*
X7810720Y-15063687D01*
X7810720Y-15063687D02*
X7801196Y-15082734D01*
X7801196Y-15082734D02*
X7791672Y-15092258D01*
X7791672Y-15092258D02*
X7772625Y-15101782D01*
X7772625Y-15101782D02*
X7715482Y-15101782D01*
X7715482Y-15101782D02*
X7696434Y-15092258D01*
X7696434Y-15092258D02*
X7686910Y-15082734D01*
X7905958Y-15101782D02*
X7944053Y-15101782D01*
X7944053Y-15101782D02*
X7963101Y-15092258D01*
X7963101Y-15092258D02*
X7972625Y-15082734D01*
X7972625Y-15082734D02*
X7991672Y-15054163D01*
X7991672Y-15054163D02*
X8001196Y-15016068D01*
X8001196Y-15016068D02*
X8001196Y-14939877D01*
X8001196Y-14939877D02*
X7991672Y-14920830D01*
X7991672Y-14920830D02*
X7982148Y-14911306D01*
X7982148Y-14911306D02*
X7963101Y-14901782D01*
X7963101Y-14901782D02*
X7925005Y-14901782D01*
X7925005Y-14901782D02*
X7905958Y-14911306D01*
X7905958Y-14911306D02*
X7896434Y-14920830D01*
X7896434Y-14920830D02*
X7886910Y-14939877D01*
X7886910Y-14939877D02*
X7886910Y-14987496D01*
X7886910Y-14987496D02*
X7896434Y-15006544D01*
X7896434Y-15006544D02*
X7905958Y-15016068D01*
X7905958Y-15016068D02*
X7925005Y-15025591D01*
X7925005Y-15025591D02*
X7963101Y-15025591D01*
X7963101Y-15025591D02*
X7982148Y-15016068D01*
X7982148Y-15016068D02*
X7991672Y-15006544D01*
X7991672Y-15006544D02*
X8001196Y-14987496D01*
X8172625Y-14968449D02*
X8172625Y-15101782D01*
X8125005Y-14892258D02*
X8077386Y-15035115D01*
X8077386Y-15035115D02*
X8201196Y-15035115D01*
X8267863Y-14901782D02*
X8267863Y-14939877D01*
X8344053Y-14901782D02*
X8344053Y-14939877D01*
X8639291Y-15177972D02*
X8629768Y-15168449D01*
X8629768Y-15168449D02*
X8610720Y-15139877D01*
X8610720Y-15139877D02*
X8601196Y-15120830D01*
X8601196Y-15120830D02*
X8591672Y-15092258D01*
X8591672Y-15092258D02*
X8582149Y-15044639D01*
X8582149Y-15044639D02*
X8582149Y-15006544D01*
X8582149Y-15006544D02*
X8591672Y-14958925D01*
X8591672Y-14958925D02*
X8601196Y-14930353D01*
X8601196Y-14930353D02*
X8610720Y-14911306D01*
X8610720Y-14911306D02*
X8629768Y-14882734D01*
X8629768Y-14882734D02*
X8639291Y-14873210D01*
X8696434Y-14901782D02*
X8829768Y-14901782D01*
X8829768Y-14901782D02*
X8744053Y-15101782D01*
X8886910Y-14901782D02*
X9010720Y-14901782D01*
X9010720Y-14901782D02*
X8944053Y-14977972D01*
X8944053Y-14977972D02*
X8972625Y-14977972D01*
X8972625Y-14977972D02*
X8991672Y-14987496D01*
X8991672Y-14987496D02*
X9001196Y-14997020D01*
X9001196Y-14997020D02*
X9010720Y-15016068D01*
X9010720Y-15016068D02*
X9010720Y-15063687D01*
X9010720Y-15063687D02*
X9001196Y-15082734D01*
X9001196Y-15082734D02*
X8991672Y-15092258D01*
X8991672Y-15092258D02*
X8972625Y-15101782D01*
X8972625Y-15101782D02*
X8915482Y-15101782D01*
X8915482Y-15101782D02*
X8896434Y-15092258D01*
X8896434Y-15092258D02*
X8886910Y-15082734D01*
X9248815Y-15101782D02*
X9248815Y-14901782D01*
X9334530Y-15101782D02*
X9334530Y-14997020D01*
X9334530Y-14997020D02*
X9325006Y-14977972D01*
X9325006Y-14977972D02*
X9305958Y-14968449D01*
X9305958Y-14968449D02*
X9277387Y-14968449D01*
X9277387Y-14968449D02*
X9258339Y-14977972D01*
X9258339Y-14977972D02*
X9248815Y-14987496D01*
X9458339Y-15101782D02*
X9439291Y-15092258D01*
X9439291Y-15092258D02*
X9429768Y-15082734D01*
X9429768Y-15082734D02*
X9420244Y-15063687D01*
X9420244Y-15063687D02*
X9420244Y-15006544D01*
X9420244Y-15006544D02*
X9429768Y-14987496D01*
X9429768Y-14987496D02*
X9439291Y-14977972D01*
X9439291Y-14977972D02*
X9458339Y-14968449D01*
X9458339Y-14968449D02*
X9486911Y-14968449D01*
X9486911Y-14968449D02*
X9505958Y-14977972D01*
X9505958Y-14977972D02*
X9515482Y-14987496D01*
X9515482Y-14987496D02*
X9525006Y-15006544D01*
X9525006Y-15006544D02*
X9525006Y-15063687D01*
X9525006Y-15063687D02*
X9515482Y-15082734D01*
X9515482Y-15082734D02*
X9505958Y-15092258D01*
X9505958Y-15092258D02*
X9486911Y-15101782D01*
X9486911Y-15101782D02*
X9458339Y-15101782D01*
X9639291Y-15101782D02*
X9620244Y-15092258D01*
X9620244Y-15092258D02*
X9610720Y-15073210D01*
X9610720Y-15073210D02*
X9610720Y-14901782D01*
X9791672Y-15092258D02*
X9772625Y-15101782D01*
X9772625Y-15101782D02*
X9734530Y-15101782D01*
X9734530Y-15101782D02*
X9715482Y-15092258D01*
X9715482Y-15092258D02*
X9705958Y-15073210D01*
X9705958Y-15073210D02*
X9705958Y-14997020D01*
X9705958Y-14997020D02*
X9715482Y-14977972D01*
X9715482Y-14977972D02*
X9734530Y-14968449D01*
X9734530Y-14968449D02*
X9772625Y-14968449D01*
X9772625Y-14968449D02*
X9791672Y-14977972D01*
X9791672Y-14977972D02*
X9801196Y-14997020D01*
X9801196Y-14997020D02*
X9801196Y-15016068D01*
X9801196Y-15016068D02*
X9705958Y-15035115D01*
X9877387Y-15092258D02*
X9896434Y-15101782D01*
X9896434Y-15101782D02*
X9934530Y-15101782D01*
X9934530Y-15101782D02*
X9953577Y-15092258D01*
X9953577Y-15092258D02*
X9963101Y-15073210D01*
X9963101Y-15073210D02*
X9963101Y-15063687D01*
X9963101Y-15063687D02*
X9953577Y-15044639D01*
X9953577Y-15044639D02*
X9934530Y-15035115D01*
X9934530Y-15035115D02*
X9905958Y-15035115D01*
X9905958Y-15035115D02*
X9886911Y-15025591D01*
X9886911Y-15025591D02*
X9877387Y-15006544D01*
X9877387Y-15006544D02*
X9877387Y-14997020D01*
X9877387Y-14997020D02*
X9886911Y-14977972D01*
X9886911Y-14977972D02*
X9905958Y-14968449D01*
X9905958Y-14968449D02*
X9934530Y-14968449D01*
X9934530Y-14968449D02*
X9953577Y-14977972D01*
X10029768Y-15177972D02*
X10039292Y-15168449D01*
X10039292Y-15168449D02*
X10058339Y-15139877D01*
X10058339Y-15139877D02*
X10067863Y-15120830D01*
X10067863Y-15120830D02*
X10077387Y-15092258D01*
X10077387Y-15092258D02*
X10086911Y-15044639D01*
X10086911Y-15044639D02*
X10086911Y-15006544D01*
X10086911Y-15006544D02*
X10077387Y-14958925D01*
X10077387Y-14958925D02*
X10067863Y-14930353D01*
X10067863Y-14930353D02*
X10058339Y-14911306D01*
X10058339Y-14911306D02*
X10039292Y-14882734D01*
X10039292Y-14882734D02*
X10029768Y-14873210D01*
D13*
X4954229Y-15219298D02*
X5064229Y-15329298D01*
X5064229Y-15219298D02*
X4954229Y-15329298D01*
X5064229Y-15274298D02*
G75*
G02*
X4954229Y-15274298I-55000J0D01*
G01*
X4954229Y-15274298D02*
G75*
G02*
X5064229Y-15274298I55000J0D01*
G01*
D11*
X5429767Y-15365782D02*
X5315482Y-15365782D01*
X5372624Y-15365782D02*
X5372624Y-15165782D01*
X5372624Y-15165782D02*
X5353577Y-15194353D01*
X5353577Y-15194353D02*
X5334529Y-15213401D01*
X5334529Y-15213401D02*
X5315482Y-15222925D01*
X5515482Y-15346734D02*
X5525005Y-15356258D01*
X5525005Y-15356258D02*
X5515482Y-15365782D01*
X5515482Y-15365782D02*
X5505958Y-15356258D01*
X5505958Y-15356258D02*
X5515482Y-15346734D01*
X5515482Y-15346734D02*
X5515482Y-15365782D01*
X5715481Y-15365782D02*
X5601196Y-15365782D01*
X5658339Y-15365782D02*
X5658339Y-15165782D01*
X5658339Y-15165782D02*
X5639291Y-15194353D01*
X5639291Y-15194353D02*
X5620243Y-15213401D01*
X5620243Y-15213401D02*
X5601196Y-15222925D01*
X5839291Y-15165782D02*
X5858339Y-15165782D01*
X5858339Y-15165782D02*
X5877386Y-15175306D01*
X5877386Y-15175306D02*
X5886910Y-15184830D01*
X5886910Y-15184830D02*
X5896434Y-15203877D01*
X5896434Y-15203877D02*
X5905958Y-15241972D01*
X5905958Y-15241972D02*
X5905958Y-15289591D01*
X5905958Y-15289591D02*
X5896434Y-15327687D01*
X5896434Y-15327687D02*
X5886910Y-15346734D01*
X5886910Y-15346734D02*
X5877386Y-15356258D01*
X5877386Y-15356258D02*
X5858339Y-15365782D01*
X5858339Y-15365782D02*
X5839291Y-15365782D01*
X5839291Y-15365782D02*
X5820243Y-15356258D01*
X5820243Y-15356258D02*
X5810720Y-15346734D01*
X5810720Y-15346734D02*
X5801196Y-15327687D01*
X5801196Y-15327687D02*
X5791672Y-15289591D01*
X5791672Y-15289591D02*
X5791672Y-15241972D01*
X5791672Y-15241972D02*
X5801196Y-15203877D01*
X5801196Y-15203877D02*
X5810720Y-15184830D01*
X5810720Y-15184830D02*
X5820243Y-15175306D01*
X5820243Y-15175306D02*
X5839291Y-15165782D01*
X6029767Y-15165782D02*
X6048815Y-15165782D01*
X6048815Y-15165782D02*
X6067862Y-15175306D01*
X6067862Y-15175306D02*
X6077386Y-15184830D01*
X6077386Y-15184830D02*
X6086910Y-15203877D01*
X6086910Y-15203877D02*
X6096434Y-15241972D01*
X6096434Y-15241972D02*
X6096434Y-15289591D01*
X6096434Y-15289591D02*
X6086910Y-15327687D01*
X6086910Y-15327687D02*
X6077386Y-15346734D01*
X6077386Y-15346734D02*
X6067862Y-15356258D01*
X6067862Y-15356258D02*
X6048815Y-15365782D01*
X6048815Y-15365782D02*
X6029767Y-15365782D01*
X6029767Y-15365782D02*
X6010720Y-15356258D01*
X6010720Y-15356258D02*
X6001196Y-15346734D01*
X6001196Y-15346734D02*
X5991672Y-15327687D01*
X5991672Y-15327687D02*
X5982148Y-15289591D01*
X5982148Y-15289591D02*
X5982148Y-15241972D01*
X5982148Y-15241972D02*
X5991672Y-15203877D01*
X5991672Y-15203877D02*
X6001196Y-15184830D01*
X6001196Y-15184830D02*
X6010720Y-15175306D01*
X6010720Y-15175306D02*
X6029767Y-15165782D01*
X6182148Y-15365782D02*
X6182148Y-15232449D01*
X6182148Y-15251496D02*
X6191672Y-15241972D01*
X6191672Y-15241972D02*
X6210720Y-15232449D01*
X6210720Y-15232449D02*
X6239291Y-15232449D01*
X6239291Y-15232449D02*
X6258339Y-15241972D01*
X6258339Y-15241972D02*
X6267862Y-15261020D01*
X6267862Y-15261020D02*
X6267862Y-15365782D01*
X6267862Y-15261020D02*
X6277386Y-15241972D01*
X6277386Y-15241972D02*
X6296434Y-15232449D01*
X6296434Y-15232449D02*
X6325005Y-15232449D01*
X6325005Y-15232449D02*
X6344053Y-15241972D01*
X6344053Y-15241972D02*
X6353577Y-15261020D01*
X6353577Y-15261020D02*
X6353577Y-15365782D01*
X6448815Y-15365782D02*
X6448815Y-15232449D01*
X6448815Y-15251496D02*
X6458339Y-15241972D01*
X6458339Y-15241972D02*
X6477386Y-15232449D01*
X6477386Y-15232449D02*
X6505958Y-15232449D01*
X6505958Y-15232449D02*
X6525005Y-15241972D01*
X6525005Y-15241972D02*
X6534529Y-15261020D01*
X6534529Y-15261020D02*
X6534529Y-15365782D01*
X6534529Y-15261020D02*
X6544053Y-15241972D01*
X6544053Y-15241972D02*
X6563101Y-15232449D01*
X6563101Y-15232449D02*
X6591672Y-15232449D01*
X6591672Y-15232449D02*
X6610720Y-15241972D01*
X6610720Y-15241972D02*
X6620243Y-15261020D01*
X6620243Y-15261020D02*
X6620243Y-15365782D01*
X7010720Y-15156258D02*
X6839291Y-15413401D01*
X7267863Y-15165782D02*
X7286910Y-15165782D01*
X7286910Y-15165782D02*
X7305958Y-15175306D01*
X7305958Y-15175306D02*
X7315482Y-15184830D01*
X7315482Y-15184830D02*
X7325005Y-15203877D01*
X7325005Y-15203877D02*
X7334529Y-15241972D01*
X7334529Y-15241972D02*
X7334529Y-15289591D01*
X7334529Y-15289591D02*
X7325005Y-15327687D01*
X7325005Y-15327687D02*
X7315482Y-15346734D01*
X7315482Y-15346734D02*
X7305958Y-15356258D01*
X7305958Y-15356258D02*
X7286910Y-15365782D01*
X7286910Y-15365782D02*
X7267863Y-15365782D01*
X7267863Y-15365782D02*
X7248815Y-15356258D01*
X7248815Y-15356258D02*
X7239291Y-15346734D01*
X7239291Y-15346734D02*
X7229767Y-15327687D01*
X7229767Y-15327687D02*
X7220244Y-15289591D01*
X7220244Y-15289591D02*
X7220244Y-15241972D01*
X7220244Y-15241972D02*
X7229767Y-15203877D01*
X7229767Y-15203877D02*
X7239291Y-15184830D01*
X7239291Y-15184830D02*
X7248815Y-15175306D01*
X7248815Y-15175306D02*
X7267863Y-15165782D01*
X7420244Y-15346734D02*
X7429767Y-15356258D01*
X7429767Y-15356258D02*
X7420244Y-15365782D01*
X7420244Y-15365782D02*
X7410720Y-15356258D01*
X7410720Y-15356258D02*
X7420244Y-15346734D01*
X7420244Y-15346734D02*
X7420244Y-15365782D01*
X7553577Y-15165782D02*
X7572625Y-15165782D01*
X7572625Y-15165782D02*
X7591672Y-15175306D01*
X7591672Y-15175306D02*
X7601196Y-15184830D01*
X7601196Y-15184830D02*
X7610720Y-15203877D01*
X7610720Y-15203877D02*
X7620244Y-15241972D01*
X7620244Y-15241972D02*
X7620244Y-15289591D01*
X7620244Y-15289591D02*
X7610720Y-15327687D01*
X7610720Y-15327687D02*
X7601196Y-15346734D01*
X7601196Y-15346734D02*
X7591672Y-15356258D01*
X7591672Y-15356258D02*
X7572625Y-15365782D01*
X7572625Y-15365782D02*
X7553577Y-15365782D01*
X7553577Y-15365782D02*
X7534529Y-15356258D01*
X7534529Y-15356258D02*
X7525005Y-15346734D01*
X7525005Y-15346734D02*
X7515482Y-15327687D01*
X7515482Y-15327687D02*
X7505958Y-15289591D01*
X7505958Y-15289591D02*
X7505958Y-15241972D01*
X7505958Y-15241972D02*
X7515482Y-15203877D01*
X7515482Y-15203877D02*
X7525005Y-15184830D01*
X7525005Y-15184830D02*
X7534529Y-15175306D01*
X7534529Y-15175306D02*
X7553577Y-15165782D01*
X7791672Y-15232449D02*
X7791672Y-15365782D01*
X7744053Y-15156258D02*
X7696434Y-15299115D01*
X7696434Y-15299115D02*
X7820244Y-15299115D01*
X7877386Y-15165782D02*
X8001196Y-15165782D01*
X8001196Y-15165782D02*
X7934529Y-15241972D01*
X7934529Y-15241972D02*
X7963101Y-15241972D01*
X7963101Y-15241972D02*
X7982148Y-15251496D01*
X7982148Y-15251496D02*
X7991672Y-15261020D01*
X7991672Y-15261020D02*
X8001196Y-15280068D01*
X8001196Y-15280068D02*
X8001196Y-15327687D01*
X8001196Y-15327687D02*
X7991672Y-15346734D01*
X7991672Y-15346734D02*
X7982148Y-15356258D01*
X7982148Y-15356258D02*
X7963101Y-15365782D01*
X7963101Y-15365782D02*
X7905958Y-15365782D01*
X7905958Y-15365782D02*
X7886910Y-15356258D01*
X7886910Y-15356258D02*
X7877386Y-15346734D01*
X8067863Y-15165782D02*
X8191672Y-15165782D01*
X8191672Y-15165782D02*
X8125005Y-15241972D01*
X8125005Y-15241972D02*
X8153577Y-15241972D01*
X8153577Y-15241972D02*
X8172625Y-15251496D01*
X8172625Y-15251496D02*
X8182148Y-15261020D01*
X8182148Y-15261020D02*
X8191672Y-15280068D01*
X8191672Y-15280068D02*
X8191672Y-15327687D01*
X8191672Y-15327687D02*
X8182148Y-15346734D01*
X8182148Y-15346734D02*
X8172625Y-15356258D01*
X8172625Y-15356258D02*
X8153577Y-15365782D01*
X8153577Y-15365782D02*
X8096434Y-15365782D01*
X8096434Y-15365782D02*
X8077386Y-15356258D01*
X8077386Y-15356258D02*
X8067863Y-15346734D01*
X8267863Y-15165782D02*
X8267863Y-15203877D01*
X8344053Y-15165782D02*
X8344053Y-15203877D01*
X8639291Y-15441972D02*
X8629768Y-15432449D01*
X8629768Y-15432449D02*
X8610720Y-15403877D01*
X8610720Y-15403877D02*
X8601196Y-15384830D01*
X8601196Y-15384830D02*
X8591672Y-15356258D01*
X8591672Y-15356258D02*
X8582149Y-15308639D01*
X8582149Y-15308639D02*
X8582149Y-15270544D01*
X8582149Y-15270544D02*
X8591672Y-15222925D01*
X8591672Y-15222925D02*
X8601196Y-15194353D01*
X8601196Y-15194353D02*
X8610720Y-15175306D01*
X8610720Y-15175306D02*
X8629768Y-15146734D01*
X8629768Y-15146734D02*
X8639291Y-15137210D01*
X8744053Y-15251496D02*
X8725006Y-15241972D01*
X8725006Y-15241972D02*
X8715482Y-15232449D01*
X8715482Y-15232449D02*
X8705958Y-15213401D01*
X8705958Y-15213401D02*
X8705958Y-15203877D01*
X8705958Y-15203877D02*
X8715482Y-15184830D01*
X8715482Y-15184830D02*
X8725006Y-15175306D01*
X8725006Y-15175306D02*
X8744053Y-15165782D01*
X8744053Y-15165782D02*
X8782149Y-15165782D01*
X8782149Y-15165782D02*
X8801196Y-15175306D01*
X8801196Y-15175306D02*
X8810720Y-15184830D01*
X8810720Y-15184830D02*
X8820244Y-15203877D01*
X8820244Y-15203877D02*
X8820244Y-15213401D01*
X8820244Y-15213401D02*
X8810720Y-15232449D01*
X8810720Y-15232449D02*
X8801196Y-15241972D01*
X8801196Y-15241972D02*
X8782149Y-15251496D01*
X8782149Y-15251496D02*
X8744053Y-15251496D01*
X8744053Y-15251496D02*
X8725006Y-15261020D01*
X8725006Y-15261020D02*
X8715482Y-15270544D01*
X8715482Y-15270544D02*
X8705958Y-15289591D01*
X8705958Y-15289591D02*
X8705958Y-15327687D01*
X8705958Y-15327687D02*
X8715482Y-15346734D01*
X8715482Y-15346734D02*
X8725006Y-15356258D01*
X8725006Y-15356258D02*
X8744053Y-15365782D01*
X8744053Y-15365782D02*
X8782149Y-15365782D01*
X8782149Y-15365782D02*
X8801196Y-15356258D01*
X8801196Y-15356258D02*
X8810720Y-15346734D01*
X8810720Y-15346734D02*
X8820244Y-15327687D01*
X8820244Y-15327687D02*
X8820244Y-15289591D01*
X8820244Y-15289591D02*
X8810720Y-15270544D01*
X8810720Y-15270544D02*
X8801196Y-15261020D01*
X8801196Y-15261020D02*
X8782149Y-15251496D01*
X9058339Y-15365782D02*
X9058339Y-15165782D01*
X9144053Y-15365782D02*
X9144053Y-15261020D01*
X9144053Y-15261020D02*
X9134530Y-15241972D01*
X9134530Y-15241972D02*
X9115482Y-15232449D01*
X9115482Y-15232449D02*
X9086910Y-15232449D01*
X9086910Y-15232449D02*
X9067863Y-15241972D01*
X9067863Y-15241972D02*
X9058339Y-15251496D01*
X9267863Y-15365782D02*
X9248815Y-15356258D01*
X9248815Y-15356258D02*
X9239291Y-15346734D01*
X9239291Y-15346734D02*
X9229768Y-15327687D01*
X9229768Y-15327687D02*
X9229768Y-15270544D01*
X9229768Y-15270544D02*
X9239291Y-15251496D01*
X9239291Y-15251496D02*
X9248815Y-15241972D01*
X9248815Y-15241972D02*
X9267863Y-15232449D01*
X9267863Y-15232449D02*
X9296434Y-15232449D01*
X9296434Y-15232449D02*
X9315482Y-15241972D01*
X9315482Y-15241972D02*
X9325006Y-15251496D01*
X9325006Y-15251496D02*
X9334530Y-15270544D01*
X9334530Y-15270544D02*
X9334530Y-15327687D01*
X9334530Y-15327687D02*
X9325006Y-15346734D01*
X9325006Y-15346734D02*
X9315482Y-15356258D01*
X9315482Y-15356258D02*
X9296434Y-15365782D01*
X9296434Y-15365782D02*
X9267863Y-15365782D01*
X9448815Y-15365782D02*
X9429768Y-15356258D01*
X9429768Y-15356258D02*
X9420244Y-15337210D01*
X9420244Y-15337210D02*
X9420244Y-15165782D01*
X9601196Y-15356258D02*
X9582149Y-15365782D01*
X9582149Y-15365782D02*
X9544053Y-15365782D01*
X9544053Y-15365782D02*
X9525006Y-15356258D01*
X9525006Y-15356258D02*
X9515482Y-15337210D01*
X9515482Y-15337210D02*
X9515482Y-15261020D01*
X9515482Y-15261020D02*
X9525006Y-15241972D01*
X9525006Y-15241972D02*
X9544053Y-15232449D01*
X9544053Y-15232449D02*
X9582149Y-15232449D01*
X9582149Y-15232449D02*
X9601196Y-15241972D01*
X9601196Y-15241972D02*
X9610720Y-15261020D01*
X9610720Y-15261020D02*
X9610720Y-15280068D01*
X9610720Y-15280068D02*
X9515482Y-15299115D01*
X9686911Y-15356258D02*
X9705958Y-15365782D01*
X9705958Y-15365782D02*
X9744053Y-15365782D01*
X9744053Y-15365782D02*
X9763101Y-15356258D01*
X9763101Y-15356258D02*
X9772625Y-15337210D01*
X9772625Y-15337210D02*
X9772625Y-15327687D01*
X9772625Y-15327687D02*
X9763101Y-15308639D01*
X9763101Y-15308639D02*
X9744053Y-15299115D01*
X9744053Y-15299115D02*
X9715482Y-15299115D01*
X9715482Y-15299115D02*
X9696434Y-15289591D01*
X9696434Y-15289591D02*
X9686911Y-15270544D01*
X9686911Y-15270544D02*
X9686911Y-15261020D01*
X9686911Y-15261020D02*
X9696434Y-15241972D01*
X9696434Y-15241972D02*
X9715482Y-15232449D01*
X9715482Y-15232449D02*
X9744053Y-15232449D01*
X9744053Y-15232449D02*
X9763101Y-15241972D01*
X9839292Y-15441972D02*
X9848815Y-15432449D01*
X9848815Y-15432449D02*
X9867863Y-15403877D01*
X9867863Y-15403877D02*
X9877387Y-15384830D01*
X9877387Y-15384830D02*
X9886911Y-15356258D01*
X9886911Y-15356258D02*
X9896434Y-15308639D01*
X9896434Y-15308639D02*
X9896434Y-15270544D01*
X9896434Y-15270544D02*
X9886911Y-15222925D01*
X9886911Y-15222925D02*
X9877387Y-15194353D01*
X9877387Y-15194353D02*
X9867863Y-15175306D01*
X9867863Y-15175306D02*
X9848815Y-15146734D01*
X9848815Y-15146734D02*
X9839292Y-15137210D01*
D14*
X4914229Y-15463298D02*
X5064229Y-15613298D01*
X5064229Y-15463298D02*
X4914229Y-15613298D01*
X4989229Y-15463298D02*
X4989229Y-15613298D01*
X4914229Y-15538298D02*
X5064229Y-15538298D01*
D11*
X5429767Y-15629782D02*
X5315482Y-15629782D01*
X5372624Y-15629782D02*
X5372624Y-15429782D01*
X5372624Y-15429782D02*
X5353577Y-15458353D01*
X5353577Y-15458353D02*
X5334529Y-15477401D01*
X5334529Y-15477401D02*
X5315482Y-15486925D01*
X5515482Y-15610734D02*
X5525005Y-15620258D01*
X5525005Y-15620258D02*
X5515482Y-15629782D01*
X5515482Y-15629782D02*
X5505958Y-15620258D01*
X5505958Y-15620258D02*
X5515482Y-15610734D01*
X5515482Y-15610734D02*
X5515482Y-15629782D01*
X5705958Y-15429782D02*
X5610720Y-15429782D01*
X5610720Y-15429782D02*
X5601196Y-15525020D01*
X5601196Y-15525020D02*
X5610720Y-15515496D01*
X5610720Y-15515496D02*
X5629767Y-15505972D01*
X5629767Y-15505972D02*
X5677386Y-15505972D01*
X5677386Y-15505972D02*
X5696434Y-15515496D01*
X5696434Y-15515496D02*
X5705958Y-15525020D01*
X5705958Y-15525020D02*
X5715481Y-15544068D01*
X5715481Y-15544068D02*
X5715481Y-15591687D01*
X5715481Y-15591687D02*
X5705958Y-15610734D01*
X5705958Y-15610734D02*
X5696434Y-15620258D01*
X5696434Y-15620258D02*
X5677386Y-15629782D01*
X5677386Y-15629782D02*
X5629767Y-15629782D01*
X5629767Y-15629782D02*
X5610720Y-15620258D01*
X5610720Y-15620258D02*
X5601196Y-15610734D01*
X5839291Y-15429782D02*
X5858339Y-15429782D01*
X5858339Y-15429782D02*
X5877386Y-15439306D01*
X5877386Y-15439306D02*
X5886910Y-15448830D01*
X5886910Y-15448830D02*
X5896434Y-15467877D01*
X5896434Y-15467877D02*
X5905958Y-15505972D01*
X5905958Y-15505972D02*
X5905958Y-15553591D01*
X5905958Y-15553591D02*
X5896434Y-15591687D01*
X5896434Y-15591687D02*
X5886910Y-15610734D01*
X5886910Y-15610734D02*
X5877386Y-15620258D01*
X5877386Y-15620258D02*
X5858339Y-15629782D01*
X5858339Y-15629782D02*
X5839291Y-15629782D01*
X5839291Y-15629782D02*
X5820243Y-15620258D01*
X5820243Y-15620258D02*
X5810720Y-15610734D01*
X5810720Y-15610734D02*
X5801196Y-15591687D01*
X5801196Y-15591687D02*
X5791672Y-15553591D01*
X5791672Y-15553591D02*
X5791672Y-15505972D01*
X5791672Y-15505972D02*
X5801196Y-15467877D01*
X5801196Y-15467877D02*
X5810720Y-15448830D01*
X5810720Y-15448830D02*
X5820243Y-15439306D01*
X5820243Y-15439306D02*
X5839291Y-15429782D01*
X6029767Y-15429782D02*
X6048815Y-15429782D01*
X6048815Y-15429782D02*
X6067862Y-15439306D01*
X6067862Y-15439306D02*
X6077386Y-15448830D01*
X6077386Y-15448830D02*
X6086910Y-15467877D01*
X6086910Y-15467877D02*
X6096434Y-15505972D01*
X6096434Y-15505972D02*
X6096434Y-15553591D01*
X6096434Y-15553591D02*
X6086910Y-15591687D01*
X6086910Y-15591687D02*
X6077386Y-15610734D01*
X6077386Y-15610734D02*
X6067862Y-15620258D01*
X6067862Y-15620258D02*
X6048815Y-15629782D01*
X6048815Y-15629782D02*
X6029767Y-15629782D01*
X6029767Y-15629782D02*
X6010720Y-15620258D01*
X6010720Y-15620258D02*
X6001196Y-15610734D01*
X6001196Y-15610734D02*
X5991672Y-15591687D01*
X5991672Y-15591687D02*
X5982148Y-15553591D01*
X5982148Y-15553591D02*
X5982148Y-15505972D01*
X5982148Y-15505972D02*
X5991672Y-15467877D01*
X5991672Y-15467877D02*
X6001196Y-15448830D01*
X6001196Y-15448830D02*
X6010720Y-15439306D01*
X6010720Y-15439306D02*
X6029767Y-15429782D01*
X6182148Y-15629782D02*
X6182148Y-15496449D01*
X6182148Y-15515496D02*
X6191672Y-15505972D01*
X6191672Y-15505972D02*
X6210720Y-15496449D01*
X6210720Y-15496449D02*
X6239291Y-15496449D01*
X6239291Y-15496449D02*
X6258339Y-15505972D01*
X6258339Y-15505972D02*
X6267862Y-15525020D01*
X6267862Y-15525020D02*
X6267862Y-15629782D01*
X6267862Y-15525020D02*
X6277386Y-15505972D01*
X6277386Y-15505972D02*
X6296434Y-15496449D01*
X6296434Y-15496449D02*
X6325005Y-15496449D01*
X6325005Y-15496449D02*
X6344053Y-15505972D01*
X6344053Y-15505972D02*
X6353577Y-15525020D01*
X6353577Y-15525020D02*
X6353577Y-15629782D01*
X6448815Y-15629782D02*
X6448815Y-15496449D01*
X6448815Y-15515496D02*
X6458339Y-15505972D01*
X6458339Y-15505972D02*
X6477386Y-15496449D01*
X6477386Y-15496449D02*
X6505958Y-15496449D01*
X6505958Y-15496449D02*
X6525005Y-15505972D01*
X6525005Y-15505972D02*
X6534529Y-15525020D01*
X6534529Y-15525020D02*
X6534529Y-15629782D01*
X6534529Y-15525020D02*
X6544053Y-15505972D01*
X6544053Y-15505972D02*
X6563101Y-15496449D01*
X6563101Y-15496449D02*
X6591672Y-15496449D01*
X6591672Y-15496449D02*
X6610720Y-15505972D01*
X6610720Y-15505972D02*
X6620243Y-15525020D01*
X6620243Y-15525020D02*
X6620243Y-15629782D01*
X7010720Y-15420258D02*
X6839291Y-15677401D01*
X7267863Y-15429782D02*
X7286910Y-15429782D01*
X7286910Y-15429782D02*
X7305958Y-15439306D01*
X7305958Y-15439306D02*
X7315482Y-15448830D01*
X7315482Y-15448830D02*
X7325005Y-15467877D01*
X7325005Y-15467877D02*
X7334529Y-15505972D01*
X7334529Y-15505972D02*
X7334529Y-15553591D01*
X7334529Y-15553591D02*
X7325005Y-15591687D01*
X7325005Y-15591687D02*
X7315482Y-15610734D01*
X7315482Y-15610734D02*
X7305958Y-15620258D01*
X7305958Y-15620258D02*
X7286910Y-15629782D01*
X7286910Y-15629782D02*
X7267863Y-15629782D01*
X7267863Y-15629782D02*
X7248815Y-15620258D01*
X7248815Y-15620258D02*
X7239291Y-15610734D01*
X7239291Y-15610734D02*
X7229767Y-15591687D01*
X7229767Y-15591687D02*
X7220244Y-15553591D01*
X7220244Y-15553591D02*
X7220244Y-15505972D01*
X7220244Y-15505972D02*
X7229767Y-15467877D01*
X7229767Y-15467877D02*
X7239291Y-15448830D01*
X7239291Y-15448830D02*
X7248815Y-15439306D01*
X7248815Y-15439306D02*
X7267863Y-15429782D01*
X7420244Y-15610734D02*
X7429767Y-15620258D01*
X7429767Y-15620258D02*
X7420244Y-15629782D01*
X7420244Y-15629782D02*
X7410720Y-15620258D01*
X7410720Y-15620258D02*
X7420244Y-15610734D01*
X7420244Y-15610734D02*
X7420244Y-15629782D01*
X7553577Y-15429782D02*
X7572625Y-15429782D01*
X7572625Y-15429782D02*
X7591672Y-15439306D01*
X7591672Y-15439306D02*
X7601196Y-15448830D01*
X7601196Y-15448830D02*
X7610720Y-15467877D01*
X7610720Y-15467877D02*
X7620244Y-15505972D01*
X7620244Y-15505972D02*
X7620244Y-15553591D01*
X7620244Y-15553591D02*
X7610720Y-15591687D01*
X7610720Y-15591687D02*
X7601196Y-15610734D01*
X7601196Y-15610734D02*
X7591672Y-15620258D01*
X7591672Y-15620258D02*
X7572625Y-15629782D01*
X7572625Y-15629782D02*
X7553577Y-15629782D01*
X7553577Y-15629782D02*
X7534529Y-15620258D01*
X7534529Y-15620258D02*
X7525005Y-15610734D01*
X7525005Y-15610734D02*
X7515482Y-15591687D01*
X7515482Y-15591687D02*
X7505958Y-15553591D01*
X7505958Y-15553591D02*
X7505958Y-15505972D01*
X7505958Y-15505972D02*
X7515482Y-15467877D01*
X7515482Y-15467877D02*
X7525005Y-15448830D01*
X7525005Y-15448830D02*
X7534529Y-15439306D01*
X7534529Y-15439306D02*
X7553577Y-15429782D01*
X7801196Y-15429782D02*
X7705958Y-15429782D01*
X7705958Y-15429782D02*
X7696434Y-15525020D01*
X7696434Y-15525020D02*
X7705958Y-15515496D01*
X7705958Y-15515496D02*
X7725005Y-15505972D01*
X7725005Y-15505972D02*
X7772625Y-15505972D01*
X7772625Y-15505972D02*
X7791672Y-15515496D01*
X7791672Y-15515496D02*
X7801196Y-15525020D01*
X7801196Y-15525020D02*
X7810720Y-15544068D01*
X7810720Y-15544068D02*
X7810720Y-15591687D01*
X7810720Y-15591687D02*
X7801196Y-15610734D01*
X7801196Y-15610734D02*
X7791672Y-15620258D01*
X7791672Y-15620258D02*
X7772625Y-15629782D01*
X7772625Y-15629782D02*
X7725005Y-15629782D01*
X7725005Y-15629782D02*
X7705958Y-15620258D01*
X7705958Y-15620258D02*
X7696434Y-15610734D01*
X7905958Y-15629782D02*
X7944053Y-15629782D01*
X7944053Y-15629782D02*
X7963101Y-15620258D01*
X7963101Y-15620258D02*
X7972625Y-15610734D01*
X7972625Y-15610734D02*
X7991672Y-15582163D01*
X7991672Y-15582163D02*
X8001196Y-15544068D01*
X8001196Y-15544068D02*
X8001196Y-15467877D01*
X8001196Y-15467877D02*
X7991672Y-15448830D01*
X7991672Y-15448830D02*
X7982148Y-15439306D01*
X7982148Y-15439306D02*
X7963101Y-15429782D01*
X7963101Y-15429782D02*
X7925005Y-15429782D01*
X7925005Y-15429782D02*
X7905958Y-15439306D01*
X7905958Y-15439306D02*
X7896434Y-15448830D01*
X7896434Y-15448830D02*
X7886910Y-15467877D01*
X7886910Y-15467877D02*
X7886910Y-15515496D01*
X7886910Y-15515496D02*
X7896434Y-15534544D01*
X7896434Y-15534544D02*
X7905958Y-15544068D01*
X7905958Y-15544068D02*
X7925005Y-15553591D01*
X7925005Y-15553591D02*
X7963101Y-15553591D01*
X7963101Y-15553591D02*
X7982148Y-15544068D01*
X7982148Y-15544068D02*
X7991672Y-15534544D01*
X7991672Y-15534544D02*
X8001196Y-15515496D01*
X8191672Y-15629782D02*
X8077386Y-15629782D01*
X8134529Y-15629782D02*
X8134529Y-15429782D01*
X8134529Y-15429782D02*
X8115482Y-15458353D01*
X8115482Y-15458353D02*
X8096434Y-15477401D01*
X8096434Y-15477401D02*
X8077386Y-15486925D01*
X8267863Y-15429782D02*
X8267863Y-15467877D01*
X8344053Y-15429782D02*
X8344053Y-15467877D01*
X8639291Y-15705972D02*
X8629768Y-15696449D01*
X8629768Y-15696449D02*
X8610720Y-15667877D01*
X8610720Y-15667877D02*
X8601196Y-15648830D01*
X8601196Y-15648830D02*
X8591672Y-15620258D01*
X8591672Y-15620258D02*
X8582149Y-15572639D01*
X8582149Y-15572639D02*
X8582149Y-15534544D01*
X8582149Y-15534544D02*
X8591672Y-15486925D01*
X8591672Y-15486925D02*
X8601196Y-15458353D01*
X8601196Y-15458353D02*
X8610720Y-15439306D01*
X8610720Y-15439306D02*
X8629768Y-15410734D01*
X8629768Y-15410734D02*
X8639291Y-15401210D01*
X8705958Y-15448830D02*
X8715482Y-15439306D01*
X8715482Y-15439306D02*
X8734529Y-15429782D01*
X8734529Y-15429782D02*
X8782149Y-15429782D01*
X8782149Y-15429782D02*
X8801196Y-15439306D01*
X8801196Y-15439306D02*
X8810720Y-15448830D01*
X8810720Y-15448830D02*
X8820244Y-15467877D01*
X8820244Y-15467877D02*
X8820244Y-15486925D01*
X8820244Y-15486925D02*
X8810720Y-15515496D01*
X8810720Y-15515496D02*
X8696434Y-15629782D01*
X8696434Y-15629782D02*
X8820244Y-15629782D01*
X9058339Y-15629782D02*
X9058339Y-15429782D01*
X9144053Y-15629782D02*
X9144053Y-15525020D01*
X9144053Y-15525020D02*
X9134530Y-15505972D01*
X9134530Y-15505972D02*
X9115482Y-15496449D01*
X9115482Y-15496449D02*
X9086910Y-15496449D01*
X9086910Y-15496449D02*
X9067863Y-15505972D01*
X9067863Y-15505972D02*
X9058339Y-15515496D01*
X9267863Y-15629782D02*
X9248815Y-15620258D01*
X9248815Y-15620258D02*
X9239291Y-15610734D01*
X9239291Y-15610734D02*
X9229768Y-15591687D01*
X9229768Y-15591687D02*
X9229768Y-15534544D01*
X9229768Y-15534544D02*
X9239291Y-15515496D01*
X9239291Y-15515496D02*
X9248815Y-15505972D01*
X9248815Y-15505972D02*
X9267863Y-15496449D01*
X9267863Y-15496449D02*
X9296434Y-15496449D01*
X9296434Y-15496449D02*
X9315482Y-15505972D01*
X9315482Y-15505972D02*
X9325006Y-15515496D01*
X9325006Y-15515496D02*
X9334530Y-15534544D01*
X9334530Y-15534544D02*
X9334530Y-15591687D01*
X9334530Y-15591687D02*
X9325006Y-15610734D01*
X9325006Y-15610734D02*
X9315482Y-15620258D01*
X9315482Y-15620258D02*
X9296434Y-15629782D01*
X9296434Y-15629782D02*
X9267863Y-15629782D01*
X9448815Y-15629782D02*
X9429768Y-15620258D01*
X9429768Y-15620258D02*
X9420244Y-15601210D01*
X9420244Y-15601210D02*
X9420244Y-15429782D01*
X9601196Y-15620258D02*
X9582149Y-15629782D01*
X9582149Y-15629782D02*
X9544053Y-15629782D01*
X9544053Y-15629782D02*
X9525006Y-15620258D01*
X9525006Y-15620258D02*
X9515482Y-15601210D01*
X9515482Y-15601210D02*
X9515482Y-15525020D01*
X9515482Y-15525020D02*
X9525006Y-15505972D01*
X9525006Y-15505972D02*
X9544053Y-15496449D01*
X9544053Y-15496449D02*
X9582149Y-15496449D01*
X9582149Y-15496449D02*
X9601196Y-15505972D01*
X9601196Y-15505972D02*
X9610720Y-15525020D01*
X9610720Y-15525020D02*
X9610720Y-15544068D01*
X9610720Y-15544068D02*
X9515482Y-15563115D01*
X9686911Y-15620258D02*
X9705958Y-15629782D01*
X9705958Y-15629782D02*
X9744053Y-15629782D01*
X9744053Y-15629782D02*
X9763101Y-15620258D01*
X9763101Y-15620258D02*
X9772625Y-15601210D01*
X9772625Y-15601210D02*
X9772625Y-15591687D01*
X9772625Y-15591687D02*
X9763101Y-15572639D01*
X9763101Y-15572639D02*
X9744053Y-15563115D01*
X9744053Y-15563115D02*
X9715482Y-15563115D01*
X9715482Y-15563115D02*
X9696434Y-15553591D01*
X9696434Y-15553591D02*
X9686911Y-15534544D01*
X9686911Y-15534544D02*
X9686911Y-15525020D01*
X9686911Y-15525020D02*
X9696434Y-15505972D01*
X9696434Y-15505972D02*
X9715482Y-15496449D01*
X9715482Y-15496449D02*
X9744053Y-15496449D01*
X9744053Y-15496449D02*
X9763101Y-15505972D01*
X9839292Y-15705972D02*
X9848815Y-15696449D01*
X9848815Y-15696449D02*
X9867863Y-15667877D01*
X9867863Y-15667877D02*
X9877387Y-15648830D01*
X9877387Y-15648830D02*
X9886911Y-15620258D01*
X9886911Y-15620258D02*
X9896434Y-15572639D01*
X9896434Y-15572639D02*
X9896434Y-15534544D01*
X9896434Y-15534544D02*
X9886911Y-15486925D01*
X9886911Y-15486925D02*
X9877387Y-15458353D01*
X9877387Y-15458353D02*
X9867863Y-15439306D01*
X9867863Y-15439306D02*
X9848815Y-15410734D01*
X9848815Y-15410734D02*
X9839292Y-15401210D01*
X4864229Y-15708298D02*
X5064229Y-15908298D01*
X5064229Y-15708298D02*
X4864229Y-15908298D01*
X5034940Y-15879010D02*
X5034940Y-15737587D01*
X4893517Y-15737587D01*
X4893517Y-15879010D01*
X5034940Y-15879010D01*
X5315482Y-15718830D02*
X5325005Y-15709306D01*
X5325005Y-15709306D02*
X5344053Y-15699782D01*
X5344053Y-15699782D02*
X5391672Y-15699782D01*
X5391672Y-15699782D02*
X5410720Y-15709306D01*
X5410720Y-15709306D02*
X5420243Y-15718830D01*
X5420243Y-15718830D02*
X5429767Y-15737877D01*
X5429767Y-15737877D02*
X5429767Y-15756925D01*
X5429767Y-15756925D02*
X5420243Y-15785496D01*
X5420243Y-15785496D02*
X5305958Y-15899782D01*
X5305958Y-15899782D02*
X5429767Y-15899782D01*
X5515482Y-15880734D02*
X5525005Y-15890258D01*
X5525005Y-15890258D02*
X5515482Y-15899782D01*
X5515482Y-15899782D02*
X5505958Y-15890258D01*
X5505958Y-15890258D02*
X5515482Y-15880734D01*
X5515482Y-15880734D02*
X5515482Y-15899782D01*
X5648815Y-15699782D02*
X5667862Y-15699782D01*
X5667862Y-15699782D02*
X5686910Y-15709306D01*
X5686910Y-15709306D02*
X5696434Y-15718830D01*
X5696434Y-15718830D02*
X5705958Y-15737877D01*
X5705958Y-15737877D02*
X5715481Y-15775972D01*
X5715481Y-15775972D02*
X5715481Y-15823591D01*
X5715481Y-15823591D02*
X5705958Y-15861687D01*
X5705958Y-15861687D02*
X5696434Y-15880734D01*
X5696434Y-15880734D02*
X5686910Y-15890258D01*
X5686910Y-15890258D02*
X5667862Y-15899782D01*
X5667862Y-15899782D02*
X5648815Y-15899782D01*
X5648815Y-15899782D02*
X5629767Y-15890258D01*
X5629767Y-15890258D02*
X5620243Y-15880734D01*
X5620243Y-15880734D02*
X5610720Y-15861687D01*
X5610720Y-15861687D02*
X5601196Y-15823591D01*
X5601196Y-15823591D02*
X5601196Y-15775972D01*
X5601196Y-15775972D02*
X5610720Y-15737877D01*
X5610720Y-15737877D02*
X5620243Y-15718830D01*
X5620243Y-15718830D02*
X5629767Y-15709306D01*
X5629767Y-15709306D02*
X5648815Y-15699782D01*
X5839291Y-15699782D02*
X5858339Y-15699782D01*
X5858339Y-15699782D02*
X5877386Y-15709306D01*
X5877386Y-15709306D02*
X5886910Y-15718830D01*
X5886910Y-15718830D02*
X5896434Y-15737877D01*
X5896434Y-15737877D02*
X5905958Y-15775972D01*
X5905958Y-15775972D02*
X5905958Y-15823591D01*
X5905958Y-15823591D02*
X5896434Y-15861687D01*
X5896434Y-15861687D02*
X5886910Y-15880734D01*
X5886910Y-15880734D02*
X5877386Y-15890258D01*
X5877386Y-15890258D02*
X5858339Y-15899782D01*
X5858339Y-15899782D02*
X5839291Y-15899782D01*
X5839291Y-15899782D02*
X5820243Y-15890258D01*
X5820243Y-15890258D02*
X5810720Y-15880734D01*
X5810720Y-15880734D02*
X5801196Y-15861687D01*
X5801196Y-15861687D02*
X5791672Y-15823591D01*
X5791672Y-15823591D02*
X5791672Y-15775972D01*
X5791672Y-15775972D02*
X5801196Y-15737877D01*
X5801196Y-15737877D02*
X5810720Y-15718830D01*
X5810720Y-15718830D02*
X5820243Y-15709306D01*
X5820243Y-15709306D02*
X5839291Y-15699782D01*
X6029767Y-15699782D02*
X6048815Y-15699782D01*
X6048815Y-15699782D02*
X6067862Y-15709306D01*
X6067862Y-15709306D02*
X6077386Y-15718830D01*
X6077386Y-15718830D02*
X6086910Y-15737877D01*
X6086910Y-15737877D02*
X6096434Y-15775972D01*
X6096434Y-15775972D02*
X6096434Y-15823591D01*
X6096434Y-15823591D02*
X6086910Y-15861687D01*
X6086910Y-15861687D02*
X6077386Y-15880734D01*
X6077386Y-15880734D02*
X6067862Y-15890258D01*
X6067862Y-15890258D02*
X6048815Y-15899782D01*
X6048815Y-15899782D02*
X6029767Y-15899782D01*
X6029767Y-15899782D02*
X6010720Y-15890258D01*
X6010720Y-15890258D02*
X6001196Y-15880734D01*
X6001196Y-15880734D02*
X5991672Y-15861687D01*
X5991672Y-15861687D02*
X5982148Y-15823591D01*
X5982148Y-15823591D02*
X5982148Y-15775972D01*
X5982148Y-15775972D02*
X5991672Y-15737877D01*
X5991672Y-15737877D02*
X6001196Y-15718830D01*
X6001196Y-15718830D02*
X6010720Y-15709306D01*
X6010720Y-15709306D02*
X6029767Y-15699782D01*
X6182148Y-15899782D02*
X6182148Y-15766449D01*
X6182148Y-15785496D02*
X6191672Y-15775972D01*
X6191672Y-15775972D02*
X6210720Y-15766449D01*
X6210720Y-15766449D02*
X6239291Y-15766449D01*
X6239291Y-15766449D02*
X6258339Y-15775972D01*
X6258339Y-15775972D02*
X6267862Y-15795020D01*
X6267862Y-15795020D02*
X6267862Y-15899782D01*
X6267862Y-15795020D02*
X6277386Y-15775972D01*
X6277386Y-15775972D02*
X6296434Y-15766449D01*
X6296434Y-15766449D02*
X6325005Y-15766449D01*
X6325005Y-15766449D02*
X6344053Y-15775972D01*
X6344053Y-15775972D02*
X6353577Y-15795020D01*
X6353577Y-15795020D02*
X6353577Y-15899782D01*
X6448815Y-15899782D02*
X6448815Y-15766449D01*
X6448815Y-15785496D02*
X6458339Y-15775972D01*
X6458339Y-15775972D02*
X6477386Y-15766449D01*
X6477386Y-15766449D02*
X6505958Y-15766449D01*
X6505958Y-15766449D02*
X6525005Y-15775972D01*
X6525005Y-15775972D02*
X6534529Y-15795020D01*
X6534529Y-15795020D02*
X6534529Y-15899782D01*
X6534529Y-15795020D02*
X6544053Y-15775972D01*
X6544053Y-15775972D02*
X6563101Y-15766449D01*
X6563101Y-15766449D02*
X6591672Y-15766449D01*
X6591672Y-15766449D02*
X6610720Y-15775972D01*
X6610720Y-15775972D02*
X6620243Y-15795020D01*
X6620243Y-15795020D02*
X6620243Y-15899782D01*
X7010720Y-15690258D02*
X6839291Y-15947401D01*
X7267863Y-15699782D02*
X7286910Y-15699782D01*
X7286910Y-15699782D02*
X7305958Y-15709306D01*
X7305958Y-15709306D02*
X7315482Y-15718830D01*
X7315482Y-15718830D02*
X7325005Y-15737877D01*
X7325005Y-15737877D02*
X7334529Y-15775972D01*
X7334529Y-15775972D02*
X7334529Y-15823591D01*
X7334529Y-15823591D02*
X7325005Y-15861687D01*
X7325005Y-15861687D02*
X7315482Y-15880734D01*
X7315482Y-15880734D02*
X7305958Y-15890258D01*
X7305958Y-15890258D02*
X7286910Y-15899782D01*
X7286910Y-15899782D02*
X7267863Y-15899782D01*
X7267863Y-15899782D02*
X7248815Y-15890258D01*
X7248815Y-15890258D02*
X7239291Y-15880734D01*
X7239291Y-15880734D02*
X7229767Y-15861687D01*
X7229767Y-15861687D02*
X7220244Y-15823591D01*
X7220244Y-15823591D02*
X7220244Y-15775972D01*
X7220244Y-15775972D02*
X7229767Y-15737877D01*
X7229767Y-15737877D02*
X7239291Y-15718830D01*
X7239291Y-15718830D02*
X7248815Y-15709306D01*
X7248815Y-15709306D02*
X7267863Y-15699782D01*
X7420244Y-15880734D02*
X7429767Y-15890258D01*
X7429767Y-15890258D02*
X7420244Y-15899782D01*
X7420244Y-15899782D02*
X7410720Y-15890258D01*
X7410720Y-15890258D02*
X7420244Y-15880734D01*
X7420244Y-15880734D02*
X7420244Y-15899782D01*
X7553577Y-15699782D02*
X7572625Y-15699782D01*
X7572625Y-15699782D02*
X7591672Y-15709306D01*
X7591672Y-15709306D02*
X7601196Y-15718830D01*
X7601196Y-15718830D02*
X7610720Y-15737877D01*
X7610720Y-15737877D02*
X7620244Y-15775972D01*
X7620244Y-15775972D02*
X7620244Y-15823591D01*
X7620244Y-15823591D02*
X7610720Y-15861687D01*
X7610720Y-15861687D02*
X7601196Y-15880734D01*
X7601196Y-15880734D02*
X7591672Y-15890258D01*
X7591672Y-15890258D02*
X7572625Y-15899782D01*
X7572625Y-15899782D02*
X7553577Y-15899782D01*
X7553577Y-15899782D02*
X7534529Y-15890258D01*
X7534529Y-15890258D02*
X7525005Y-15880734D01*
X7525005Y-15880734D02*
X7515482Y-15861687D01*
X7515482Y-15861687D02*
X7505958Y-15823591D01*
X7505958Y-15823591D02*
X7505958Y-15775972D01*
X7505958Y-15775972D02*
X7515482Y-15737877D01*
X7515482Y-15737877D02*
X7525005Y-15718830D01*
X7525005Y-15718830D02*
X7534529Y-15709306D01*
X7534529Y-15709306D02*
X7553577Y-15699782D01*
X7686910Y-15699782D02*
X7820244Y-15699782D01*
X7820244Y-15699782D02*
X7734529Y-15899782D01*
X7925005Y-15785496D02*
X7905958Y-15775972D01*
X7905958Y-15775972D02*
X7896434Y-15766449D01*
X7896434Y-15766449D02*
X7886910Y-15747401D01*
X7886910Y-15747401D02*
X7886910Y-15737877D01*
X7886910Y-15737877D02*
X7896434Y-15718830D01*
X7896434Y-15718830D02*
X7905958Y-15709306D01*
X7905958Y-15709306D02*
X7925005Y-15699782D01*
X7925005Y-15699782D02*
X7963101Y-15699782D01*
X7963101Y-15699782D02*
X7982148Y-15709306D01*
X7982148Y-15709306D02*
X7991672Y-15718830D01*
X7991672Y-15718830D02*
X8001196Y-15737877D01*
X8001196Y-15737877D02*
X8001196Y-15747401D01*
X8001196Y-15747401D02*
X7991672Y-15766449D01*
X7991672Y-15766449D02*
X7982148Y-15775972D01*
X7982148Y-15775972D02*
X7963101Y-15785496D01*
X7963101Y-15785496D02*
X7925005Y-15785496D01*
X7925005Y-15785496D02*
X7905958Y-15795020D01*
X7905958Y-15795020D02*
X7896434Y-15804544D01*
X7896434Y-15804544D02*
X7886910Y-15823591D01*
X7886910Y-15823591D02*
X7886910Y-15861687D01*
X7886910Y-15861687D02*
X7896434Y-15880734D01*
X7896434Y-15880734D02*
X7905958Y-15890258D01*
X7905958Y-15890258D02*
X7925005Y-15899782D01*
X7925005Y-15899782D02*
X7963101Y-15899782D01*
X7963101Y-15899782D02*
X7982148Y-15890258D01*
X7982148Y-15890258D02*
X7991672Y-15880734D01*
X7991672Y-15880734D02*
X8001196Y-15861687D01*
X8001196Y-15861687D02*
X8001196Y-15823591D01*
X8001196Y-15823591D02*
X7991672Y-15804544D01*
X7991672Y-15804544D02*
X7982148Y-15795020D01*
X7982148Y-15795020D02*
X7963101Y-15785496D01*
X8067863Y-15699782D02*
X8201196Y-15699782D01*
X8201196Y-15699782D02*
X8115482Y-15899782D01*
X8267863Y-15699782D02*
X8267863Y-15737877D01*
X8344053Y-15699782D02*
X8344053Y-15737877D01*
X8639291Y-15975972D02*
X8629768Y-15966449D01*
X8629768Y-15966449D02*
X8610720Y-15937877D01*
X8610720Y-15937877D02*
X8601196Y-15918830D01*
X8601196Y-15918830D02*
X8591672Y-15890258D01*
X8591672Y-15890258D02*
X8582149Y-15842639D01*
X8582149Y-15842639D02*
X8582149Y-15804544D01*
X8582149Y-15804544D02*
X8591672Y-15756925D01*
X8591672Y-15756925D02*
X8601196Y-15728353D01*
X8601196Y-15728353D02*
X8610720Y-15709306D01*
X8610720Y-15709306D02*
X8629768Y-15680734D01*
X8629768Y-15680734D02*
X8639291Y-15671210D01*
X8705958Y-15718830D02*
X8715482Y-15709306D01*
X8715482Y-15709306D02*
X8734529Y-15699782D01*
X8734529Y-15699782D02*
X8782149Y-15699782D01*
X8782149Y-15699782D02*
X8801196Y-15709306D01*
X8801196Y-15709306D02*
X8810720Y-15718830D01*
X8810720Y-15718830D02*
X8820244Y-15737877D01*
X8820244Y-15737877D02*
X8820244Y-15756925D01*
X8820244Y-15756925D02*
X8810720Y-15785496D01*
X8810720Y-15785496D02*
X8696434Y-15899782D01*
X8696434Y-15899782D02*
X8820244Y-15899782D01*
X9058339Y-15899782D02*
X9058339Y-15699782D01*
X9144053Y-15899782D02*
X9144053Y-15795020D01*
X9144053Y-15795020D02*
X9134530Y-15775972D01*
X9134530Y-15775972D02*
X9115482Y-15766449D01*
X9115482Y-15766449D02*
X9086910Y-15766449D01*
X9086910Y-15766449D02*
X9067863Y-15775972D01*
X9067863Y-15775972D02*
X9058339Y-15785496D01*
X9267863Y-15899782D02*
X9248815Y-15890258D01*
X9248815Y-15890258D02*
X9239291Y-15880734D01*
X9239291Y-15880734D02*
X9229768Y-15861687D01*
X9229768Y-15861687D02*
X9229768Y-15804544D01*
X9229768Y-15804544D02*
X9239291Y-15785496D01*
X9239291Y-15785496D02*
X9248815Y-15775972D01*
X9248815Y-15775972D02*
X9267863Y-15766449D01*
X9267863Y-15766449D02*
X9296434Y-15766449D01*
X9296434Y-15766449D02*
X9315482Y-15775972D01*
X9315482Y-15775972D02*
X9325006Y-15785496D01*
X9325006Y-15785496D02*
X9334530Y-15804544D01*
X9334530Y-15804544D02*
X9334530Y-15861687D01*
X9334530Y-15861687D02*
X9325006Y-15880734D01*
X9325006Y-15880734D02*
X9315482Y-15890258D01*
X9315482Y-15890258D02*
X9296434Y-15899782D01*
X9296434Y-15899782D02*
X9267863Y-15899782D01*
X9448815Y-15899782D02*
X9429768Y-15890258D01*
X9429768Y-15890258D02*
X9420244Y-15871210D01*
X9420244Y-15871210D02*
X9420244Y-15699782D01*
X9601196Y-15890258D02*
X9582149Y-15899782D01*
X9582149Y-15899782D02*
X9544053Y-15899782D01*
X9544053Y-15899782D02*
X9525006Y-15890258D01*
X9525006Y-15890258D02*
X9515482Y-15871210D01*
X9515482Y-15871210D02*
X9515482Y-15795020D01*
X9515482Y-15795020D02*
X9525006Y-15775972D01*
X9525006Y-15775972D02*
X9544053Y-15766449D01*
X9544053Y-15766449D02*
X9582149Y-15766449D01*
X9582149Y-15766449D02*
X9601196Y-15775972D01*
X9601196Y-15775972D02*
X9610720Y-15795020D01*
X9610720Y-15795020D02*
X9610720Y-15814068D01*
X9610720Y-15814068D02*
X9515482Y-15833115D01*
X9686911Y-15890258D02*
X9705958Y-15899782D01*
X9705958Y-15899782D02*
X9744053Y-15899782D01*
X9744053Y-15899782D02*
X9763101Y-15890258D01*
X9763101Y-15890258D02*
X9772625Y-15871210D01*
X9772625Y-15871210D02*
X9772625Y-15861687D01*
X9772625Y-15861687D02*
X9763101Y-15842639D01*
X9763101Y-15842639D02*
X9744053Y-15833115D01*
X9744053Y-15833115D02*
X9715482Y-15833115D01*
X9715482Y-15833115D02*
X9696434Y-15823591D01*
X9696434Y-15823591D02*
X9686911Y-15804544D01*
X9686911Y-15804544D02*
X9686911Y-15795020D01*
X9686911Y-15795020D02*
X9696434Y-15775972D01*
X9696434Y-15775972D02*
X9715482Y-15766449D01*
X9715482Y-15766449D02*
X9744053Y-15766449D01*
X9744053Y-15766449D02*
X9763101Y-15775972D01*
X9839292Y-15975972D02*
X9848815Y-15966449D01*
X9848815Y-15966449D02*
X9867863Y-15937877D01*
X9867863Y-15937877D02*
X9877387Y-15918830D01*
X9877387Y-15918830D02*
X9886911Y-15890258D01*
X9886911Y-15890258D02*
X9896434Y-15842639D01*
X9896434Y-15842639D02*
X9896434Y-15804544D01*
X9896434Y-15804544D02*
X9886911Y-15756925D01*
X9886911Y-15756925D02*
X9877387Y-15728353D01*
X9877387Y-15728353D02*
X9867863Y-15709306D01*
X9867863Y-15709306D02*
X9848815Y-15680734D01*
X9848815Y-15680734D02*
X9839292Y-15671210D01*
M02*
