G04 #@! TF.GenerationSoftware,KiCad,Pcbnew,8.0.8*
G04 #@! TF.CreationDate,2025-02-17T18:47:29+01:00*
G04 #@! TF.ProjectId,tesi,74657369-2e6b-4696-9361-645f70636258,rev?*
G04 #@! TF.SameCoordinates,Original*
G04 #@! TF.FileFunction,Legend,Top*
G04 #@! TF.FilePolarity,Positive*
%FSLAX46Y46*%
G04 Gerber Fmt 4.6, Leading zero omitted, Abs format (unit mm)*
G04 Created by KiCad (PCBNEW 8.0.8) date 2025-02-17 18:47:29*
%MOMM*%
%LPD*%
G01*
G04 APERTURE LIST*
G04 Aperture macros list*
%AMRoundRect*
0 Rectangle with rounded corners*
0 $1 Rounding radius*
0 $2 $3 $4 $5 $6 $7 $8 $9 X,Y pos of 4 corners*
0 Add a 4 corners polygon primitive as box body*
4,1,4,$2,$3,$4,$5,$6,$7,$8,$9,$2,$3,0*
0 Add four circle primitives for the rounded corners*
1,1,$1+$1,$2,$3*
1,1,$1+$1,$4,$5*
1,1,$1+$1,$6,$7*
1,1,$1+$1,$8,$9*
0 Add four rect primitives between the rounded corners*
20,1,$1+$1,$2,$3,$4,$5,0*
20,1,$1+$1,$4,$5,$6,$7,0*
20,1,$1+$1,$6,$7,$8,$9,0*
20,1,$1+$1,$8,$9,$2,$3,0*%
G04 Aperture macros list end*
%ADD10C,0.152400*%
%ADD11C,0.100000*%
%ADD12C,0.150000*%
%ADD13C,0.300000*%
%ADD14C,0.120000*%
%ADD15C,1.600000*%
%ADD16O,1.600000X1.600000*%
%ADD17RoundRect,0.250000X-1.050000X-0.550000X1.050000X-0.550000X1.050000X0.550000X-1.050000X0.550000X0*%
%ADD18O,2.600000X1.600000*%
%ADD19C,8.000000*%
%ADD20C,3.200000*%
%ADD21R,1.700000X1.700000*%
%ADD22O,1.700000X1.700000*%
%ADD23R,1.200000X1.200000*%
%ADD24C,1.200000*%
%ADD25R,1.800000X1.800000*%
%ADD26C,1.800000*%
%ADD27C,2.000000*%
%ADD28O,3.500000X2.200000*%
%ADD29R,2.500000X1.500000*%
%ADD30O,2.500000X1.500000*%
%ADD31O,4.000000X4.000000*%
G04 APERTURE END LIST*
D10*
X70550000Y-40100000D02*
X70519520Y-40100000D01*
X69909920Y-40100000D02*
X69879440Y-40100000D01*
X69269840Y-40100000D02*
X69239360Y-40100000D01*
X68629760Y-40100000D02*
X68599280Y-40100000D01*
X67989680Y-40100000D02*
X67959200Y-40100000D01*
X67349600Y-40100000D02*
X67319120Y-40100000D01*
X66709520Y-40100000D02*
X66679040Y-40100000D01*
X66069440Y-40100000D02*
X66038960Y-40100000D01*
X65429360Y-40100000D02*
X65398880Y-40100000D01*
X64789280Y-40100000D02*
X64758800Y-40100000D01*
X64149200Y-40100000D02*
X64118720Y-40100000D01*
X63509120Y-40100000D02*
X63478640Y-40100000D01*
X62869040Y-40100000D02*
X62838560Y-40100000D01*
X62228960Y-40100000D02*
X62198480Y-40100000D01*
X61588880Y-40100000D02*
X61558400Y-40100000D01*
X60948800Y-40100000D02*
X60918320Y-40100000D01*
X60308720Y-40100000D02*
X60278240Y-40100000D01*
X59668640Y-40100000D02*
X59638160Y-40100000D01*
D11*
X146651339Y-85000000D02*
X146651339Y-69000000D01*
X146651339Y-47000000D02*
X146651339Y-63000000D01*
X115577580Y-85000000D02*
X146577580Y-85000000D01*
X115577580Y-47000000D02*
X146577580Y-47000000D01*
X115557580Y-47000000D02*
X115557580Y-63084787D01*
X115557580Y-85000000D02*
X115557580Y-69000000D01*
D12*
X141910895Y-92089160D02*
X141910895Y-92565350D01*
X141625180Y-91993922D02*
X142625180Y-92327255D01*
X142625180Y-92327255D02*
X141625180Y-92660588D01*
X142625180Y-92898684D02*
X142625180Y-93565350D01*
X142625180Y-93565350D02*
X141625180Y-93136779D01*
X132437561Y-92660588D02*
X132485180Y-92565350D01*
X132485180Y-92565350D02*
X132485180Y-92422493D01*
X132485180Y-92422493D02*
X132437561Y-92279636D01*
X132437561Y-92279636D02*
X132342323Y-92184398D01*
X132342323Y-92184398D02*
X132247085Y-92136779D01*
X132247085Y-92136779D02*
X132056609Y-92089160D01*
X132056609Y-92089160D02*
X131913752Y-92089160D01*
X131913752Y-92089160D02*
X131723276Y-92136779D01*
X131723276Y-92136779D02*
X131628038Y-92184398D01*
X131628038Y-92184398D02*
X131532800Y-92279636D01*
X131532800Y-92279636D02*
X131485180Y-92422493D01*
X131485180Y-92422493D02*
X131485180Y-92517731D01*
X131485180Y-92517731D02*
X131532800Y-92660588D01*
X131532800Y-92660588D02*
X131580419Y-92708207D01*
X131580419Y-92708207D02*
X131913752Y-92708207D01*
X131913752Y-92708207D02*
X131913752Y-92517731D01*
X131485180Y-93136779D02*
X132485180Y-93136779D01*
X132485180Y-93136779D02*
X131485180Y-93708207D01*
X131485180Y-93708207D02*
X132485180Y-93708207D01*
X131485180Y-94184398D02*
X132485180Y-94184398D01*
X132485180Y-94184398D02*
X132485180Y-94422493D01*
X132485180Y-94422493D02*
X132437561Y-94565350D01*
X132437561Y-94565350D02*
X132342323Y-94660588D01*
X132342323Y-94660588D02*
X132247085Y-94708207D01*
X132247085Y-94708207D02*
X132056609Y-94755826D01*
X132056609Y-94755826D02*
X131913752Y-94755826D01*
X131913752Y-94755826D02*
X131723276Y-94708207D01*
X131723276Y-94708207D02*
X131628038Y-94660588D01*
X131628038Y-94660588D02*
X131532800Y-94565350D01*
X131532800Y-94565350D02*
X131485180Y-94422493D01*
X131485180Y-94422493D02*
X131485180Y-94184398D01*
X125172818Y-77569819D02*
X125268056Y-77569819D01*
X125268056Y-77569819D02*
X125363294Y-77617438D01*
X125363294Y-77617438D02*
X125410913Y-77665057D01*
X125410913Y-77665057D02*
X125458532Y-77760295D01*
X125458532Y-77760295D02*
X125506151Y-77950771D01*
X125506151Y-77950771D02*
X125506151Y-78188866D01*
X125506151Y-78188866D02*
X125458532Y-78379342D01*
X125458532Y-78379342D02*
X125410913Y-78474580D01*
X125410913Y-78474580D02*
X125363294Y-78522200D01*
X125363294Y-78522200D02*
X125268056Y-78569819D01*
X125268056Y-78569819D02*
X125172818Y-78569819D01*
X125172818Y-78569819D02*
X125077580Y-78522200D01*
X125077580Y-78522200D02*
X125029961Y-78474580D01*
X125029961Y-78474580D02*
X124982342Y-78379342D01*
X124982342Y-78379342D02*
X124934723Y-78188866D01*
X124934723Y-78188866D02*
X124934723Y-77950771D01*
X124934723Y-77950771D02*
X124982342Y-77760295D01*
X124982342Y-77760295D02*
X125029961Y-77665057D01*
X125029961Y-77665057D02*
X125077580Y-77617438D01*
X125077580Y-77617438D02*
X125172818Y-77569819D01*
X125887104Y-77665057D02*
X125934723Y-77617438D01*
X125934723Y-77617438D02*
X126029961Y-77569819D01*
X126029961Y-77569819D02*
X126268056Y-77569819D01*
X126268056Y-77569819D02*
X126363294Y-77617438D01*
X126363294Y-77617438D02*
X126410913Y-77665057D01*
X126410913Y-77665057D02*
X126458532Y-77760295D01*
X126458532Y-77760295D02*
X126458532Y-77855533D01*
X126458532Y-77855533D02*
X126410913Y-77998390D01*
X126410913Y-77998390D02*
X125839485Y-78569819D01*
X125839485Y-78569819D02*
X126458532Y-78569819D01*
X127601389Y-77522200D02*
X126744247Y-78807914D01*
X127887104Y-77665057D02*
X127934723Y-77617438D01*
X127934723Y-77617438D02*
X128029961Y-77569819D01*
X128029961Y-77569819D02*
X128268056Y-77569819D01*
X128268056Y-77569819D02*
X128363294Y-77617438D01*
X128363294Y-77617438D02*
X128410913Y-77665057D01*
X128410913Y-77665057D02*
X128458532Y-77760295D01*
X128458532Y-77760295D02*
X128458532Y-77855533D01*
X128458532Y-77855533D02*
X128410913Y-77998390D01*
X128410913Y-77998390D02*
X127839485Y-78569819D01*
X127839485Y-78569819D02*
X128458532Y-78569819D01*
X129077580Y-77569819D02*
X129172818Y-77569819D01*
X129172818Y-77569819D02*
X129268056Y-77617438D01*
X129268056Y-77617438D02*
X129315675Y-77665057D01*
X129315675Y-77665057D02*
X129363294Y-77760295D01*
X129363294Y-77760295D02*
X129410913Y-77950771D01*
X129410913Y-77950771D02*
X129410913Y-78188866D01*
X129410913Y-78188866D02*
X129363294Y-78379342D01*
X129363294Y-78379342D02*
X129315675Y-78474580D01*
X129315675Y-78474580D02*
X129268056Y-78522200D01*
X129268056Y-78522200D02*
X129172818Y-78569819D01*
X129172818Y-78569819D02*
X129077580Y-78569819D01*
X129077580Y-78569819D02*
X128982342Y-78522200D01*
X128982342Y-78522200D02*
X128934723Y-78474580D01*
X128934723Y-78474580D02*
X128887104Y-78379342D01*
X128887104Y-78379342D02*
X128839485Y-78188866D01*
X128839485Y-78188866D02*
X128839485Y-77950771D01*
X128839485Y-77950771D02*
X128887104Y-77760295D01*
X128887104Y-77760295D02*
X128934723Y-77665057D01*
X128934723Y-77665057D02*
X128982342Y-77617438D01*
X128982342Y-77617438D02*
X129077580Y-77569819D01*
X129791866Y-77665057D02*
X129839485Y-77617438D01*
X129839485Y-77617438D02*
X129934723Y-77569819D01*
X129934723Y-77569819D02*
X130172818Y-77569819D01*
X130172818Y-77569819D02*
X130268056Y-77617438D01*
X130268056Y-77617438D02*
X130315675Y-77665057D01*
X130315675Y-77665057D02*
X130363294Y-77760295D01*
X130363294Y-77760295D02*
X130363294Y-77855533D01*
X130363294Y-77855533D02*
X130315675Y-77998390D01*
X130315675Y-77998390D02*
X129744247Y-78569819D01*
X129744247Y-78569819D02*
X130363294Y-78569819D01*
X131268056Y-77569819D02*
X130791866Y-77569819D01*
X130791866Y-77569819D02*
X130744247Y-78046009D01*
X130744247Y-78046009D02*
X130791866Y-77998390D01*
X130791866Y-77998390D02*
X130887104Y-77950771D01*
X130887104Y-77950771D02*
X131125199Y-77950771D01*
X131125199Y-77950771D02*
X131220437Y-77998390D01*
X131220437Y-77998390D02*
X131268056Y-78046009D01*
X131268056Y-78046009D02*
X131315675Y-78141247D01*
X131315675Y-78141247D02*
X131315675Y-78379342D01*
X131315675Y-78379342D02*
X131268056Y-78474580D01*
X131268056Y-78474580D02*
X131220437Y-78522200D01*
X131220437Y-78522200D02*
X131125199Y-78569819D01*
X131125199Y-78569819D02*
X130887104Y-78569819D01*
X130887104Y-78569819D02*
X130791866Y-78522200D01*
X130791866Y-78522200D02*
X130744247Y-78474580D01*
X132506152Y-78188866D02*
X133268057Y-78188866D01*
X134410914Y-77903152D02*
X134649009Y-78569819D01*
X134649009Y-78569819D02*
X134887104Y-77903152D01*
X135791866Y-78569819D02*
X135220438Y-78569819D01*
X135506152Y-78569819D02*
X135506152Y-77569819D01*
X135506152Y-77569819D02*
X135410914Y-77712676D01*
X135410914Y-77712676D02*
X135315676Y-77807914D01*
X135315676Y-77807914D02*
X135220438Y-77855533D01*
X136220438Y-78474580D02*
X136268057Y-78522200D01*
X136268057Y-78522200D02*
X136220438Y-78569819D01*
X136220438Y-78569819D02*
X136172819Y-78522200D01*
X136172819Y-78522200D02*
X136220438Y-78474580D01*
X136220438Y-78474580D02*
X136220438Y-78569819D01*
X136887104Y-77569819D02*
X136982342Y-77569819D01*
X136982342Y-77569819D02*
X137077580Y-77617438D01*
X137077580Y-77617438D02*
X137125199Y-77665057D01*
X137125199Y-77665057D02*
X137172818Y-77760295D01*
X137172818Y-77760295D02*
X137220437Y-77950771D01*
X137220437Y-77950771D02*
X137220437Y-78188866D01*
X137220437Y-78188866D02*
X137172818Y-78379342D01*
X137172818Y-78379342D02*
X137125199Y-78474580D01*
X137125199Y-78474580D02*
X137077580Y-78522200D01*
X137077580Y-78522200D02*
X136982342Y-78569819D01*
X136982342Y-78569819D02*
X136887104Y-78569819D01*
X136887104Y-78569819D02*
X136791866Y-78522200D01*
X136791866Y-78522200D02*
X136744247Y-78474580D01*
X136744247Y-78474580D02*
X136696628Y-78379342D01*
X136696628Y-78379342D02*
X136649009Y-78188866D01*
X136649009Y-78188866D02*
X136649009Y-77950771D01*
X136649009Y-77950771D02*
X136696628Y-77760295D01*
X136696628Y-77760295D02*
X136744247Y-77665057D01*
X136744247Y-77665057D02*
X136791866Y-77617438D01*
X136791866Y-77617438D02*
X136887104Y-77569819D01*
X139137800Y-92089160D02*
X139090180Y-92232017D01*
X139090180Y-92232017D02*
X139090180Y-92470112D01*
X139090180Y-92470112D02*
X139137800Y-92565350D01*
X139137800Y-92565350D02*
X139185419Y-92612969D01*
X139185419Y-92612969D02*
X139280657Y-92660588D01*
X139280657Y-92660588D02*
X139375895Y-92660588D01*
X139375895Y-92660588D02*
X139471133Y-92612969D01*
X139471133Y-92612969D02*
X139518752Y-92565350D01*
X139518752Y-92565350D02*
X139566371Y-92470112D01*
X139566371Y-92470112D02*
X139613990Y-92279636D01*
X139613990Y-92279636D02*
X139661609Y-92184398D01*
X139661609Y-92184398D02*
X139709228Y-92136779D01*
X139709228Y-92136779D02*
X139804466Y-92089160D01*
X139804466Y-92089160D02*
X139899704Y-92089160D01*
X139899704Y-92089160D02*
X139994942Y-92136779D01*
X139994942Y-92136779D02*
X140042561Y-92184398D01*
X140042561Y-92184398D02*
X140090180Y-92279636D01*
X140090180Y-92279636D02*
X140090180Y-92517731D01*
X140090180Y-92517731D02*
X140042561Y-92660588D01*
X139090180Y-93089160D02*
X140090180Y-93089160D01*
X140090180Y-93089160D02*
X140090180Y-93327255D01*
X140090180Y-93327255D02*
X140042561Y-93470112D01*
X140042561Y-93470112D02*
X139947323Y-93565350D01*
X139947323Y-93565350D02*
X139852085Y-93612969D01*
X139852085Y-93612969D02*
X139661609Y-93660588D01*
X139661609Y-93660588D02*
X139518752Y-93660588D01*
X139518752Y-93660588D02*
X139328276Y-93612969D01*
X139328276Y-93612969D02*
X139233038Y-93565350D01*
X139233038Y-93565350D02*
X139137800Y-93470112D01*
X139137800Y-93470112D02*
X139090180Y-93327255D01*
X139090180Y-93327255D02*
X139090180Y-93089160D01*
X139375895Y-94041541D02*
X139375895Y-94517731D01*
X139090180Y-93946303D02*
X140090180Y-94279636D01*
X140090180Y-94279636D02*
X139090180Y-94612969D01*
X144445895Y-92089160D02*
X144445895Y-92565350D01*
X144160180Y-91993922D02*
X145160180Y-92327255D01*
X145160180Y-92327255D02*
X144160180Y-92660588D01*
X144160180Y-93041541D02*
X144160180Y-93232017D01*
X144160180Y-93232017D02*
X144207800Y-93327255D01*
X144207800Y-93327255D02*
X144255419Y-93374874D01*
X144255419Y-93374874D02*
X144398276Y-93470112D01*
X144398276Y-93470112D02*
X144588752Y-93517731D01*
X144588752Y-93517731D02*
X144969704Y-93517731D01*
X144969704Y-93517731D02*
X145064942Y-93470112D01*
X145064942Y-93470112D02*
X145112561Y-93422493D01*
X145112561Y-93422493D02*
X145160180Y-93327255D01*
X145160180Y-93327255D02*
X145160180Y-93136779D01*
X145160180Y-93136779D02*
X145112561Y-93041541D01*
X145112561Y-93041541D02*
X145064942Y-92993922D01*
X145064942Y-92993922D02*
X144969704Y-92946303D01*
X144969704Y-92946303D02*
X144731609Y-92946303D01*
X144731609Y-92946303D02*
X144636371Y-92993922D01*
X144636371Y-92993922D02*
X144588752Y-93041541D01*
X144588752Y-93041541D02*
X144541133Y-93136779D01*
X144541133Y-93136779D02*
X144541133Y-93327255D01*
X144541133Y-93327255D02*
X144588752Y-93422493D01*
X144588752Y-93422493D02*
X144636371Y-93470112D01*
X144636371Y-93470112D02*
X144731609Y-93517731D01*
X135020180Y-92041541D02*
X135020180Y-92660588D01*
X135020180Y-92660588D02*
X134639228Y-92327255D01*
X134639228Y-92327255D02*
X134639228Y-92470112D01*
X134639228Y-92470112D02*
X134591609Y-92565350D01*
X134591609Y-92565350D02*
X134543990Y-92612969D01*
X134543990Y-92612969D02*
X134448752Y-92660588D01*
X134448752Y-92660588D02*
X134210657Y-92660588D01*
X134210657Y-92660588D02*
X134115419Y-92612969D01*
X134115419Y-92612969D02*
X134067800Y-92565350D01*
X134067800Y-92565350D02*
X134020180Y-92470112D01*
X134020180Y-92470112D02*
X134020180Y-92184398D01*
X134020180Y-92184398D02*
X134067800Y-92089160D01*
X134067800Y-92089160D02*
X134115419Y-92041541D01*
X134115419Y-93089160D02*
X134067800Y-93136779D01*
X134067800Y-93136779D02*
X134020180Y-93089160D01*
X134020180Y-93089160D02*
X134067800Y-93041541D01*
X134067800Y-93041541D02*
X134115419Y-93089160D01*
X134115419Y-93089160D02*
X134020180Y-93089160D01*
X135020180Y-93470112D02*
X135020180Y-94089159D01*
X135020180Y-94089159D02*
X134639228Y-93755826D01*
X134639228Y-93755826D02*
X134639228Y-93898683D01*
X134639228Y-93898683D02*
X134591609Y-93993921D01*
X134591609Y-93993921D02*
X134543990Y-94041540D01*
X134543990Y-94041540D02*
X134448752Y-94089159D01*
X134448752Y-94089159D02*
X134210657Y-94089159D01*
X134210657Y-94089159D02*
X134115419Y-94041540D01*
X134115419Y-94041540D02*
X134067800Y-93993921D01*
X134067800Y-93993921D02*
X134020180Y-93898683D01*
X134020180Y-93898683D02*
X134020180Y-93612969D01*
X134020180Y-93612969D02*
X134067800Y-93517731D01*
X134067800Y-93517731D02*
X134115419Y-93470112D01*
X135020180Y-94374874D02*
X134020180Y-94708207D01*
X134020180Y-94708207D02*
X135020180Y-95041540D01*
D11*
X118839483Y-81238129D02*
X118839483Y-80238129D01*
X118839483Y-80238129D02*
X119077578Y-80238129D01*
X119077578Y-80238129D02*
X119220435Y-80285748D01*
X119220435Y-80285748D02*
X119315673Y-80380986D01*
X119315673Y-80380986D02*
X119363292Y-80476224D01*
X119363292Y-80476224D02*
X119410911Y-80666700D01*
X119410911Y-80666700D02*
X119410911Y-80809557D01*
X119410911Y-80809557D02*
X119363292Y-81000033D01*
X119363292Y-81000033D02*
X119315673Y-81095271D01*
X119315673Y-81095271D02*
X119220435Y-81190510D01*
X119220435Y-81190510D02*
X119077578Y-81238129D01*
X119077578Y-81238129D02*
X118839483Y-81238129D01*
X120220435Y-81190510D02*
X120125197Y-81238129D01*
X120125197Y-81238129D02*
X119934721Y-81238129D01*
X119934721Y-81238129D02*
X119839483Y-81190510D01*
X119839483Y-81190510D02*
X119791864Y-81095271D01*
X119791864Y-81095271D02*
X119791864Y-80714319D01*
X119791864Y-80714319D02*
X119839483Y-80619081D01*
X119839483Y-80619081D02*
X119934721Y-80571462D01*
X119934721Y-80571462D02*
X120125197Y-80571462D01*
X120125197Y-80571462D02*
X120220435Y-80619081D01*
X120220435Y-80619081D02*
X120268054Y-80714319D01*
X120268054Y-80714319D02*
X120268054Y-80809557D01*
X120268054Y-80809557D02*
X119791864Y-80904795D01*
X120649007Y-81190510D02*
X120744245Y-81238129D01*
X120744245Y-81238129D02*
X120934721Y-81238129D01*
X120934721Y-81238129D02*
X121029959Y-81190510D01*
X121029959Y-81190510D02*
X121077578Y-81095271D01*
X121077578Y-81095271D02*
X121077578Y-81047652D01*
X121077578Y-81047652D02*
X121029959Y-80952414D01*
X121029959Y-80952414D02*
X120934721Y-80904795D01*
X120934721Y-80904795D02*
X120791864Y-80904795D01*
X120791864Y-80904795D02*
X120696626Y-80857176D01*
X120696626Y-80857176D02*
X120649007Y-80761938D01*
X120649007Y-80761938D02*
X120649007Y-80714319D01*
X120649007Y-80714319D02*
X120696626Y-80619081D01*
X120696626Y-80619081D02*
X120791864Y-80571462D01*
X120791864Y-80571462D02*
X120934721Y-80571462D01*
X120934721Y-80571462D02*
X121029959Y-80619081D01*
X121506150Y-81238129D02*
X121506150Y-80571462D01*
X121506150Y-80238129D02*
X121458531Y-80285748D01*
X121458531Y-80285748D02*
X121506150Y-80333367D01*
X121506150Y-80333367D02*
X121553769Y-80285748D01*
X121553769Y-80285748D02*
X121506150Y-80238129D01*
X121506150Y-80238129D02*
X121506150Y-80333367D01*
X122410911Y-80571462D02*
X122410911Y-81380986D01*
X122410911Y-81380986D02*
X122363292Y-81476224D01*
X122363292Y-81476224D02*
X122315673Y-81523843D01*
X122315673Y-81523843D02*
X122220435Y-81571462D01*
X122220435Y-81571462D02*
X122077578Y-81571462D01*
X122077578Y-81571462D02*
X121982340Y-81523843D01*
X122410911Y-81190510D02*
X122315673Y-81238129D01*
X122315673Y-81238129D02*
X122125197Y-81238129D01*
X122125197Y-81238129D02*
X122029959Y-81190510D01*
X122029959Y-81190510D02*
X121982340Y-81142890D01*
X121982340Y-81142890D02*
X121934721Y-81047652D01*
X121934721Y-81047652D02*
X121934721Y-80761938D01*
X121934721Y-80761938D02*
X121982340Y-80666700D01*
X121982340Y-80666700D02*
X122029959Y-80619081D01*
X122029959Y-80619081D02*
X122125197Y-80571462D01*
X122125197Y-80571462D02*
X122315673Y-80571462D01*
X122315673Y-80571462D02*
X122410911Y-80619081D01*
X122887102Y-80571462D02*
X122887102Y-81238129D01*
X122887102Y-80666700D02*
X122934721Y-80619081D01*
X122934721Y-80619081D02*
X123029959Y-80571462D01*
X123029959Y-80571462D02*
X123172816Y-80571462D01*
X123172816Y-80571462D02*
X123268054Y-80619081D01*
X123268054Y-80619081D02*
X123315673Y-80714319D01*
X123315673Y-80714319D02*
X123315673Y-81238129D01*
X124172816Y-81190510D02*
X124077578Y-81238129D01*
X124077578Y-81238129D02*
X123887102Y-81238129D01*
X123887102Y-81238129D02*
X123791864Y-81190510D01*
X123791864Y-81190510D02*
X123744245Y-81095271D01*
X123744245Y-81095271D02*
X123744245Y-80714319D01*
X123744245Y-80714319D02*
X123791864Y-80619081D01*
X123791864Y-80619081D02*
X123887102Y-80571462D01*
X123887102Y-80571462D02*
X124077578Y-80571462D01*
X124077578Y-80571462D02*
X124172816Y-80619081D01*
X124172816Y-80619081D02*
X124220435Y-80714319D01*
X124220435Y-80714319D02*
X124220435Y-80809557D01*
X124220435Y-80809557D02*
X123744245Y-80904795D01*
X125077578Y-81238129D02*
X125077578Y-80238129D01*
X125077578Y-81190510D02*
X124982340Y-81238129D01*
X124982340Y-81238129D02*
X124791864Y-81238129D01*
X124791864Y-81238129D02*
X124696626Y-81190510D01*
X124696626Y-81190510D02*
X124649007Y-81142890D01*
X124649007Y-81142890D02*
X124601388Y-81047652D01*
X124601388Y-81047652D02*
X124601388Y-80761938D01*
X124601388Y-80761938D02*
X124649007Y-80666700D01*
X124649007Y-80666700D02*
X124696626Y-80619081D01*
X124696626Y-80619081D02*
X124791864Y-80571462D01*
X124791864Y-80571462D02*
X124982340Y-80571462D01*
X124982340Y-80571462D02*
X125077578Y-80619081D01*
X126744245Y-81238129D02*
X126744245Y-80714319D01*
X126744245Y-80714319D02*
X126696626Y-80619081D01*
X126696626Y-80619081D02*
X126601388Y-80571462D01*
X126601388Y-80571462D02*
X126410912Y-80571462D01*
X126410912Y-80571462D02*
X126315674Y-80619081D01*
X126744245Y-81190510D02*
X126649007Y-81238129D01*
X126649007Y-81238129D02*
X126410912Y-81238129D01*
X126410912Y-81238129D02*
X126315674Y-81190510D01*
X126315674Y-81190510D02*
X126268055Y-81095271D01*
X126268055Y-81095271D02*
X126268055Y-81000033D01*
X126268055Y-81000033D02*
X126315674Y-80904795D01*
X126315674Y-80904795D02*
X126410912Y-80857176D01*
X126410912Y-80857176D02*
X126649007Y-80857176D01*
X126649007Y-80857176D02*
X126744245Y-80809557D01*
X127077579Y-80571462D02*
X127458531Y-80571462D01*
X127220436Y-80238129D02*
X127220436Y-81095271D01*
X127220436Y-81095271D02*
X127268055Y-81190510D01*
X127268055Y-81190510D02*
X127363293Y-81238129D01*
X127363293Y-81238129D02*
X127458531Y-81238129D01*
X128982341Y-81238129D02*
X128982341Y-80238129D01*
X128982341Y-81190510D02*
X128887103Y-81238129D01*
X128887103Y-81238129D02*
X128696627Y-81238129D01*
X128696627Y-81238129D02*
X128601389Y-81190510D01*
X128601389Y-81190510D02*
X128553770Y-81142890D01*
X128553770Y-81142890D02*
X128506151Y-81047652D01*
X128506151Y-81047652D02*
X128506151Y-80761938D01*
X128506151Y-80761938D02*
X128553770Y-80666700D01*
X128553770Y-80666700D02*
X128601389Y-80619081D01*
X128601389Y-80619081D02*
X128696627Y-80571462D01*
X128696627Y-80571462D02*
X128887103Y-80571462D01*
X128887103Y-80571462D02*
X128982341Y-80619081D01*
X129458532Y-81142890D02*
X129506151Y-81190510D01*
X129506151Y-81190510D02*
X129458532Y-81238129D01*
X129458532Y-81238129D02*
X129410913Y-81190510D01*
X129410913Y-81190510D02*
X129458532Y-81142890D01*
X129458532Y-81142890D02*
X129458532Y-81238129D01*
X129887103Y-81190510D02*
X129982341Y-81238129D01*
X129982341Y-81238129D02*
X130172817Y-81238129D01*
X130172817Y-81238129D02*
X130268055Y-81190510D01*
X130268055Y-81190510D02*
X130315674Y-81095271D01*
X130315674Y-81095271D02*
X130315674Y-81047652D01*
X130315674Y-81047652D02*
X130268055Y-80952414D01*
X130268055Y-80952414D02*
X130172817Y-80904795D01*
X130172817Y-80904795D02*
X130029960Y-80904795D01*
X130029960Y-80904795D02*
X129934722Y-80857176D01*
X129934722Y-80857176D02*
X129887103Y-80761938D01*
X129887103Y-80761938D02*
X129887103Y-80714319D01*
X129887103Y-80714319D02*
X129934722Y-80619081D01*
X129934722Y-80619081D02*
X130029960Y-80571462D01*
X130029960Y-80571462D02*
X130172817Y-80571462D01*
X130172817Y-80571462D02*
X130268055Y-80619081D01*
X131125198Y-81190510D02*
X131029960Y-81238129D01*
X131029960Y-81238129D02*
X130839484Y-81238129D01*
X130839484Y-81238129D02*
X130744246Y-81190510D01*
X130744246Y-81190510D02*
X130696627Y-81095271D01*
X130696627Y-81095271D02*
X130696627Y-80714319D01*
X130696627Y-80714319D02*
X130744246Y-80619081D01*
X130744246Y-80619081D02*
X130839484Y-80571462D01*
X130839484Y-80571462D02*
X131029960Y-80571462D01*
X131029960Y-80571462D02*
X131125198Y-80619081D01*
X131125198Y-80619081D02*
X131172817Y-80714319D01*
X131172817Y-80714319D02*
X131172817Y-80809557D01*
X131172817Y-80809557D02*
X130696627Y-80904795D01*
X132029960Y-81238129D02*
X132029960Y-80714319D01*
X132029960Y-80714319D02*
X131982341Y-80619081D01*
X131982341Y-80619081D02*
X131887103Y-80571462D01*
X131887103Y-80571462D02*
X131696627Y-80571462D01*
X131696627Y-80571462D02*
X131601389Y-80619081D01*
X132029960Y-81190510D02*
X131934722Y-81238129D01*
X131934722Y-81238129D02*
X131696627Y-81238129D01*
X131696627Y-81238129D02*
X131601389Y-81190510D01*
X131601389Y-81190510D02*
X131553770Y-81095271D01*
X131553770Y-81095271D02*
X131553770Y-81000033D01*
X131553770Y-81000033D02*
X131601389Y-80904795D01*
X131601389Y-80904795D02*
X131696627Y-80857176D01*
X131696627Y-80857176D02*
X131934722Y-80857176D01*
X131934722Y-80857176D02*
X132029960Y-80809557D01*
X132506151Y-81238129D02*
X132506151Y-80571462D01*
X132506151Y-80761938D02*
X132553770Y-80666700D01*
X132553770Y-80666700D02*
X132601389Y-80619081D01*
X132601389Y-80619081D02*
X132696627Y-80571462D01*
X132696627Y-80571462D02*
X132791865Y-80571462D01*
X133553770Y-81190510D02*
X133458532Y-81238129D01*
X133458532Y-81238129D02*
X133268056Y-81238129D01*
X133268056Y-81238129D02*
X133172818Y-81190510D01*
X133172818Y-81190510D02*
X133125199Y-81142890D01*
X133125199Y-81142890D02*
X133077580Y-81047652D01*
X133077580Y-81047652D02*
X133077580Y-80761938D01*
X133077580Y-80761938D02*
X133125199Y-80666700D01*
X133125199Y-80666700D02*
X133172818Y-80619081D01*
X133172818Y-80619081D02*
X133268056Y-80571462D01*
X133268056Y-80571462D02*
X133458532Y-80571462D01*
X133458532Y-80571462D02*
X133553770Y-80619081D01*
X133982342Y-81238129D02*
X133982342Y-80238129D01*
X134410913Y-81238129D02*
X134410913Y-80714319D01*
X134410913Y-80714319D02*
X134363294Y-80619081D01*
X134363294Y-80619081D02*
X134268056Y-80571462D01*
X134268056Y-80571462D02*
X134125199Y-80571462D01*
X134125199Y-80571462D02*
X134029961Y-80619081D01*
X134029961Y-80619081D02*
X133982342Y-80666700D01*
X135791866Y-81238129D02*
X135696628Y-81190510D01*
X135696628Y-81190510D02*
X135649009Y-81095271D01*
X135649009Y-81095271D02*
X135649009Y-80238129D01*
X136601390Y-81238129D02*
X136601390Y-80714319D01*
X136601390Y-80714319D02*
X136553771Y-80619081D01*
X136553771Y-80619081D02*
X136458533Y-80571462D01*
X136458533Y-80571462D02*
X136268057Y-80571462D01*
X136268057Y-80571462D02*
X136172819Y-80619081D01*
X136601390Y-81190510D02*
X136506152Y-81238129D01*
X136506152Y-81238129D02*
X136268057Y-81238129D01*
X136268057Y-81238129D02*
X136172819Y-81190510D01*
X136172819Y-81190510D02*
X136125200Y-81095271D01*
X136125200Y-81095271D02*
X136125200Y-81000033D01*
X136125200Y-81000033D02*
X136172819Y-80904795D01*
X136172819Y-80904795D02*
X136268057Y-80857176D01*
X136268057Y-80857176D02*
X136506152Y-80857176D01*
X136506152Y-80857176D02*
X136601390Y-80809557D01*
X137077581Y-81238129D02*
X137077581Y-80238129D01*
X137077581Y-80619081D02*
X137172819Y-80571462D01*
X137172819Y-80571462D02*
X137363295Y-80571462D01*
X137363295Y-80571462D02*
X137458533Y-80619081D01*
X137458533Y-80619081D02*
X137506152Y-80666700D01*
X137506152Y-80666700D02*
X137553771Y-80761938D01*
X137553771Y-80761938D02*
X137553771Y-81047652D01*
X137553771Y-81047652D02*
X137506152Y-81142890D01*
X137506152Y-81142890D02*
X137458533Y-81190510D01*
X137458533Y-81190510D02*
X137363295Y-81238129D01*
X137363295Y-81238129D02*
X137172819Y-81238129D01*
X137172819Y-81238129D02*
X137077581Y-81190510D01*
X138982343Y-80904795D02*
X138601391Y-80904795D01*
X139934725Y-80238129D02*
X140506153Y-80238129D01*
X140220439Y-81238129D02*
X140220439Y-80238129D01*
X140839487Y-80238129D02*
X140839487Y-81047652D01*
X140839487Y-81047652D02*
X140887106Y-81142890D01*
X140887106Y-81142890D02*
X140934725Y-81190510D01*
X140934725Y-81190510D02*
X141029963Y-81238129D01*
X141029963Y-81238129D02*
X141220439Y-81238129D01*
X141220439Y-81238129D02*
X141315677Y-81190510D01*
X141315677Y-81190510D02*
X141363296Y-81142890D01*
X141363296Y-81142890D02*
X141410915Y-81047652D01*
X141410915Y-81047652D02*
X141410915Y-80238129D01*
X142601391Y-80190510D02*
X141744249Y-81476224D01*
X143315677Y-81190510D02*
X143220439Y-81238129D01*
X143220439Y-81238129D02*
X143029963Y-81238129D01*
X143029963Y-81238129D02*
X142934725Y-81190510D01*
X142934725Y-81190510D02*
X142887106Y-81095271D01*
X142887106Y-81095271D02*
X142887106Y-80714319D01*
X142887106Y-80714319D02*
X142934725Y-80619081D01*
X142934725Y-80619081D02*
X143029963Y-80571462D01*
X143029963Y-80571462D02*
X143220439Y-80571462D01*
X143220439Y-80571462D02*
X143315677Y-80619081D01*
X143315677Y-80619081D02*
X143363296Y-80714319D01*
X143363296Y-80714319D02*
X143363296Y-80809557D01*
X143363296Y-80809557D02*
X142887106Y-80904795D01*
D12*
X135130180Y-37836779D02*
X136130180Y-37836779D01*
X136130180Y-37836779D02*
X136130180Y-38217731D01*
X136130180Y-38217731D02*
X136082561Y-38312969D01*
X136082561Y-38312969D02*
X136034942Y-38360588D01*
X136034942Y-38360588D02*
X135939704Y-38408207D01*
X135939704Y-38408207D02*
X135796847Y-38408207D01*
X135796847Y-38408207D02*
X135701609Y-38360588D01*
X135701609Y-38360588D02*
X135653990Y-38312969D01*
X135653990Y-38312969D02*
X135606371Y-38217731D01*
X135606371Y-38217731D02*
X135606371Y-37836779D01*
X136130180Y-39027255D02*
X136130180Y-39217731D01*
X136130180Y-39217731D02*
X136082561Y-39312969D01*
X136082561Y-39312969D02*
X135987323Y-39408207D01*
X135987323Y-39408207D02*
X135796847Y-39455826D01*
X135796847Y-39455826D02*
X135463514Y-39455826D01*
X135463514Y-39455826D02*
X135273038Y-39408207D01*
X135273038Y-39408207D02*
X135177800Y-39312969D01*
X135177800Y-39312969D02*
X135130180Y-39217731D01*
X135130180Y-39217731D02*
X135130180Y-39027255D01*
X135130180Y-39027255D02*
X135177800Y-38932017D01*
X135177800Y-38932017D02*
X135273038Y-38836779D01*
X135273038Y-38836779D02*
X135463514Y-38789160D01*
X135463514Y-38789160D02*
X135796847Y-38789160D01*
X135796847Y-38789160D02*
X135987323Y-38836779D01*
X135987323Y-38836779D02*
X136082561Y-38932017D01*
X136082561Y-38932017D02*
X136130180Y-39027255D01*
X136130180Y-39789160D02*
X135130180Y-40027255D01*
X135130180Y-40027255D02*
X135844466Y-40217731D01*
X135844466Y-40217731D02*
X135130180Y-40408207D01*
X135130180Y-40408207D02*
X136130180Y-40646303D01*
X135653990Y-41027255D02*
X135653990Y-41360588D01*
X135130180Y-41503445D02*
X135130180Y-41027255D01*
X135130180Y-41027255D02*
X136130180Y-41027255D01*
X136130180Y-41027255D02*
X136130180Y-41503445D01*
X135130180Y-42503445D02*
X135606371Y-42170112D01*
X135130180Y-41932017D02*
X136130180Y-41932017D01*
X136130180Y-41932017D02*
X136130180Y-42312969D01*
X136130180Y-42312969D02*
X136082561Y-42408207D01*
X136082561Y-42408207D02*
X136034942Y-42455826D01*
X136034942Y-42455826D02*
X135939704Y-42503445D01*
X135939704Y-42503445D02*
X135796847Y-42503445D01*
X135796847Y-42503445D02*
X135701609Y-42455826D01*
X135701609Y-42455826D02*
X135653990Y-42408207D01*
X135653990Y-42408207D02*
X135606371Y-42312969D01*
X135606371Y-42312969D02*
X135606371Y-41932017D01*
D11*
X126474320Y-71632419D02*
X126474320Y-72346704D01*
X126474320Y-72346704D02*
X126426701Y-72489561D01*
X126426701Y-72489561D02*
X126331463Y-72584800D01*
X126331463Y-72584800D02*
X126188606Y-72632419D01*
X126188606Y-72632419D02*
X126093368Y-72632419D01*
X127426701Y-72632419D02*
X126950511Y-72632419D01*
X126950511Y-72632419D02*
X126950511Y-71632419D01*
X128331463Y-72537180D02*
X128283844Y-72584800D01*
X128283844Y-72584800D02*
X128140987Y-72632419D01*
X128140987Y-72632419D02*
X128045749Y-72632419D01*
X128045749Y-72632419D02*
X127902892Y-72584800D01*
X127902892Y-72584800D02*
X127807654Y-72489561D01*
X127807654Y-72489561D02*
X127760035Y-72394323D01*
X127760035Y-72394323D02*
X127712416Y-72203847D01*
X127712416Y-72203847D02*
X127712416Y-72060990D01*
X127712416Y-72060990D02*
X127760035Y-71870514D01*
X127760035Y-71870514D02*
X127807654Y-71775276D01*
X127807654Y-71775276D02*
X127902892Y-71680038D01*
X127902892Y-71680038D02*
X128045749Y-71632419D01*
X128045749Y-71632419D02*
X128140987Y-71632419D01*
X128140987Y-71632419D02*
X128283844Y-71680038D01*
X128283844Y-71680038D02*
X128331463Y-71727657D01*
X129045749Y-71632419D02*
X129045749Y-72346704D01*
X129045749Y-72346704D02*
X128998130Y-72489561D01*
X128998130Y-72489561D02*
X128902892Y-72584800D01*
X128902892Y-72584800D02*
X128760035Y-72632419D01*
X128760035Y-72632419D02*
X128664797Y-72632419D01*
X129998130Y-72632419D02*
X129521940Y-72632419D01*
X129521940Y-72632419D02*
X129521940Y-71632419D01*
X130902892Y-72537180D02*
X130855273Y-72584800D01*
X130855273Y-72584800D02*
X130712416Y-72632419D01*
X130712416Y-72632419D02*
X130617178Y-72632419D01*
X130617178Y-72632419D02*
X130474321Y-72584800D01*
X130474321Y-72584800D02*
X130379083Y-72489561D01*
X130379083Y-72489561D02*
X130331464Y-72394323D01*
X130331464Y-72394323D02*
X130283845Y-72203847D01*
X130283845Y-72203847D02*
X130283845Y-72060990D01*
X130283845Y-72060990D02*
X130331464Y-71870514D01*
X130331464Y-71870514D02*
X130379083Y-71775276D01*
X130379083Y-71775276D02*
X130474321Y-71680038D01*
X130474321Y-71680038D02*
X130617178Y-71632419D01*
X130617178Y-71632419D02*
X130712416Y-71632419D01*
X130712416Y-71632419D02*
X130855273Y-71680038D01*
X130855273Y-71680038D02*
X130902892Y-71727657D01*
X131617178Y-71632419D02*
X131617178Y-72346704D01*
X131617178Y-72346704D02*
X131569559Y-72489561D01*
X131569559Y-72489561D02*
X131474321Y-72584800D01*
X131474321Y-72584800D02*
X131331464Y-72632419D01*
X131331464Y-72632419D02*
X131236226Y-72632419D01*
X132569559Y-72632419D02*
X132093369Y-72632419D01*
X132093369Y-72632419D02*
X132093369Y-71632419D01*
X133474321Y-72537180D02*
X133426702Y-72584800D01*
X133426702Y-72584800D02*
X133283845Y-72632419D01*
X133283845Y-72632419D02*
X133188607Y-72632419D01*
X133188607Y-72632419D02*
X133045750Y-72584800D01*
X133045750Y-72584800D02*
X132950512Y-72489561D01*
X132950512Y-72489561D02*
X132902893Y-72394323D01*
X132902893Y-72394323D02*
X132855274Y-72203847D01*
X132855274Y-72203847D02*
X132855274Y-72060990D01*
X132855274Y-72060990D02*
X132902893Y-71870514D01*
X132902893Y-71870514D02*
X132950512Y-71775276D01*
X132950512Y-71775276D02*
X133045750Y-71680038D01*
X133045750Y-71680038D02*
X133188607Y-71632419D01*
X133188607Y-71632419D02*
X133283845Y-71632419D01*
X133283845Y-71632419D02*
X133426702Y-71680038D01*
X133426702Y-71680038D02*
X133474321Y-71727657D01*
X134188607Y-71632419D02*
X134188607Y-72346704D01*
X134188607Y-72346704D02*
X134140988Y-72489561D01*
X134140988Y-72489561D02*
X134045750Y-72584800D01*
X134045750Y-72584800D02*
X133902893Y-72632419D01*
X133902893Y-72632419D02*
X133807655Y-72632419D01*
X135140988Y-72632419D02*
X134664798Y-72632419D01*
X134664798Y-72632419D02*
X134664798Y-71632419D01*
X136045750Y-72537180D02*
X135998131Y-72584800D01*
X135998131Y-72584800D02*
X135855274Y-72632419D01*
X135855274Y-72632419D02*
X135760036Y-72632419D01*
X135760036Y-72632419D02*
X135617179Y-72584800D01*
X135617179Y-72584800D02*
X135521941Y-72489561D01*
X135521941Y-72489561D02*
X135474322Y-72394323D01*
X135474322Y-72394323D02*
X135426703Y-72203847D01*
X135426703Y-72203847D02*
X135426703Y-72060990D01*
X135426703Y-72060990D02*
X135474322Y-71870514D01*
X135474322Y-71870514D02*
X135521941Y-71775276D01*
X135521941Y-71775276D02*
X135617179Y-71680038D01*
X135617179Y-71680038D02*
X135760036Y-71632419D01*
X135760036Y-71632419D02*
X135855274Y-71632419D01*
X135855274Y-71632419D02*
X135998131Y-71680038D01*
X135998131Y-71680038D02*
X136045750Y-71727657D01*
D13*
X127714472Y-51400325D02*
X129028758Y-51400325D01*
X128371615Y-53700325D02*
X128371615Y-51400325D01*
X129795425Y-52495563D02*
X130562091Y-52495563D01*
X130890663Y-53700325D02*
X129795425Y-53700325D01*
X129795425Y-53700325D02*
X129795425Y-51400325D01*
X129795425Y-51400325D02*
X130890663Y-51400325D01*
X131766853Y-53590802D02*
X132095424Y-53700325D01*
X132095424Y-53700325D02*
X132643043Y-53700325D01*
X132643043Y-53700325D02*
X132862091Y-53590802D01*
X132862091Y-53590802D02*
X132971615Y-53481278D01*
X132971615Y-53481278D02*
X133081138Y-53262230D01*
X133081138Y-53262230D02*
X133081138Y-53043182D01*
X133081138Y-53043182D02*
X132971615Y-52824135D01*
X132971615Y-52824135D02*
X132862091Y-52714611D01*
X132862091Y-52714611D02*
X132643043Y-52605087D01*
X132643043Y-52605087D02*
X132204948Y-52495563D01*
X132204948Y-52495563D02*
X131985900Y-52386040D01*
X131985900Y-52386040D02*
X131876377Y-52276516D01*
X131876377Y-52276516D02*
X131766853Y-52057468D01*
X131766853Y-52057468D02*
X131766853Y-51838421D01*
X131766853Y-51838421D02*
X131876377Y-51619373D01*
X131876377Y-51619373D02*
X131985900Y-51509849D01*
X131985900Y-51509849D02*
X132204948Y-51400325D01*
X132204948Y-51400325D02*
X132752567Y-51400325D01*
X132752567Y-51400325D02*
X133081138Y-51509849D01*
X134066853Y-53700325D02*
X134066853Y-51400325D01*
D12*
X99087154Y-51647626D02*
X99087154Y-52123816D01*
X98801439Y-51552388D02*
X99801439Y-51885721D01*
X99801439Y-51885721D02*
X98801439Y-52219054D01*
X98801439Y-52980959D02*
X99801439Y-52980959D01*
X98849059Y-52980959D02*
X98801439Y-52885721D01*
X98801439Y-52885721D02*
X98801439Y-52695245D01*
X98801439Y-52695245D02*
X98849059Y-52600007D01*
X98849059Y-52600007D02*
X98896678Y-52552388D01*
X98896678Y-52552388D02*
X98991916Y-52504769D01*
X98991916Y-52504769D02*
X99277630Y-52504769D01*
X99277630Y-52504769D02*
X99372868Y-52552388D01*
X99372868Y-52552388D02*
X99420487Y-52600007D01*
X99420487Y-52600007D02*
X99468106Y-52695245D01*
X99468106Y-52695245D02*
X99468106Y-52885721D01*
X99468106Y-52885721D02*
X99420487Y-52980959D01*
X98801439Y-53885721D02*
X99325249Y-53885721D01*
X99325249Y-53885721D02*
X99420487Y-53838102D01*
X99420487Y-53838102D02*
X99468106Y-53742864D01*
X99468106Y-53742864D02*
X99468106Y-53552388D01*
X99468106Y-53552388D02*
X99420487Y-53457150D01*
X98849059Y-53885721D02*
X98801439Y-53790483D01*
X98801439Y-53790483D02*
X98801439Y-53552388D01*
X98801439Y-53552388D02*
X98849059Y-53457150D01*
X98849059Y-53457150D02*
X98944297Y-53409531D01*
X98944297Y-53409531D02*
X99039535Y-53409531D01*
X99039535Y-53409531D02*
X99134773Y-53457150D01*
X99134773Y-53457150D02*
X99182392Y-53552388D01*
X99182392Y-53552388D02*
X99182392Y-53790483D01*
X99182392Y-53790483D02*
X99230011Y-53885721D01*
X99468106Y-54219055D02*
X99468106Y-54600007D01*
X98801439Y-54361912D02*
X99658582Y-54361912D01*
X99658582Y-54361912D02*
X99753820Y-54409531D01*
X99753820Y-54409531D02*
X99801439Y-54504769D01*
X99801439Y-54504769D02*
X99801439Y-54600007D01*
X98801439Y-54933341D02*
X99468106Y-54933341D01*
X99277630Y-54933341D02*
X99372868Y-54980960D01*
X99372868Y-54980960D02*
X99420487Y-55028579D01*
X99420487Y-55028579D02*
X99468106Y-55123817D01*
X99468106Y-55123817D02*
X99468106Y-55219055D01*
X99468106Y-55980960D02*
X98801439Y-55980960D01*
X99468106Y-55552389D02*
X98944297Y-55552389D01*
X98944297Y-55552389D02*
X98849059Y-55600008D01*
X98849059Y-55600008D02*
X98801439Y-55695246D01*
X98801439Y-55695246D02*
X98801439Y-55838103D01*
X98801439Y-55838103D02*
X98849059Y-55933341D01*
X98849059Y-55933341D02*
X98896678Y-55980960D01*
X98801439Y-56457151D02*
X99468106Y-56457151D01*
X99801439Y-56457151D02*
X99753820Y-56409532D01*
X99753820Y-56409532D02*
X99706201Y-56457151D01*
X99706201Y-56457151D02*
X99753820Y-56504770D01*
X99753820Y-56504770D02*
X99801439Y-56457151D01*
X99801439Y-56457151D02*
X99706201Y-56457151D01*
X99468106Y-56790484D02*
X99468106Y-57171436D01*
X99801439Y-56933341D02*
X98944297Y-56933341D01*
X98944297Y-56933341D02*
X98849059Y-56980960D01*
X98849059Y-56980960D02*
X98801439Y-57076198D01*
X98801439Y-57076198D02*
X98801439Y-57171436D01*
X99325249Y-58266675D02*
X99325249Y-58600008D01*
X98801439Y-58742865D02*
X98801439Y-58266675D01*
X98801439Y-58266675D02*
X99801439Y-58266675D01*
X99801439Y-58266675D02*
X99801439Y-58742865D01*
X98849059Y-59123818D02*
X98801439Y-59266675D01*
X98801439Y-59266675D02*
X98801439Y-59504770D01*
X98801439Y-59504770D02*
X98849059Y-59600008D01*
X98849059Y-59600008D02*
X98896678Y-59647627D01*
X98896678Y-59647627D02*
X98991916Y-59695246D01*
X98991916Y-59695246D02*
X99087154Y-59695246D01*
X99087154Y-59695246D02*
X99182392Y-59647627D01*
X99182392Y-59647627D02*
X99230011Y-59600008D01*
X99230011Y-59600008D02*
X99277630Y-59504770D01*
X99277630Y-59504770D02*
X99325249Y-59314294D01*
X99325249Y-59314294D02*
X99372868Y-59219056D01*
X99372868Y-59219056D02*
X99420487Y-59171437D01*
X99420487Y-59171437D02*
X99515725Y-59123818D01*
X99515725Y-59123818D02*
X99610963Y-59123818D01*
X99610963Y-59123818D02*
X99706201Y-59171437D01*
X99706201Y-59171437D02*
X99753820Y-59219056D01*
X99753820Y-59219056D02*
X99801439Y-59314294D01*
X99801439Y-59314294D02*
X99801439Y-59552389D01*
X99801439Y-59552389D02*
X99753820Y-59695246D01*
X98801439Y-60123818D02*
X99801439Y-60123818D01*
X99801439Y-60123818D02*
X99801439Y-60504770D01*
X99801439Y-60504770D02*
X99753820Y-60600008D01*
X99753820Y-60600008D02*
X99706201Y-60647627D01*
X99706201Y-60647627D02*
X99610963Y-60695246D01*
X99610963Y-60695246D02*
X99468106Y-60695246D01*
X99468106Y-60695246D02*
X99372868Y-60647627D01*
X99372868Y-60647627D02*
X99325249Y-60600008D01*
X99325249Y-60600008D02*
X99277630Y-60504770D01*
X99277630Y-60504770D02*
X99277630Y-60123818D01*
X99801439Y-61028580D02*
X99801439Y-61647627D01*
X99801439Y-61647627D02*
X99420487Y-61314294D01*
X99420487Y-61314294D02*
X99420487Y-61457151D01*
X99420487Y-61457151D02*
X99372868Y-61552389D01*
X99372868Y-61552389D02*
X99325249Y-61600008D01*
X99325249Y-61600008D02*
X99230011Y-61647627D01*
X99230011Y-61647627D02*
X98991916Y-61647627D01*
X98991916Y-61647627D02*
X98896678Y-61600008D01*
X98896678Y-61600008D02*
X98849059Y-61552389D01*
X98849059Y-61552389D02*
X98801439Y-61457151D01*
X98801439Y-61457151D02*
X98801439Y-61171437D01*
X98801439Y-61171437D02*
X98849059Y-61076199D01*
X98849059Y-61076199D02*
X98896678Y-61028580D01*
X99706201Y-62028580D02*
X99753820Y-62076199D01*
X99753820Y-62076199D02*
X99801439Y-62171437D01*
X99801439Y-62171437D02*
X99801439Y-62409532D01*
X99801439Y-62409532D02*
X99753820Y-62504770D01*
X99753820Y-62504770D02*
X99706201Y-62552389D01*
X99706201Y-62552389D02*
X99610963Y-62600008D01*
X99610963Y-62600008D02*
X99515725Y-62600008D01*
X99515725Y-62600008D02*
X99372868Y-62552389D01*
X99372868Y-62552389D02*
X98801439Y-61980961D01*
X98801439Y-61980961D02*
X98801439Y-62600008D01*
X99325249Y-64123818D02*
X99325249Y-63790485D01*
X98801439Y-63790485D02*
X99801439Y-63790485D01*
X99801439Y-63790485D02*
X99801439Y-64266675D01*
X98849059Y-65028580D02*
X98801439Y-64933342D01*
X98801439Y-64933342D02*
X98801439Y-64742866D01*
X98801439Y-64742866D02*
X98849059Y-64647628D01*
X98849059Y-64647628D02*
X98944297Y-64600009D01*
X98944297Y-64600009D02*
X99325249Y-64600009D01*
X99325249Y-64600009D02*
X99420487Y-64647628D01*
X99420487Y-64647628D02*
X99468106Y-64742866D01*
X99468106Y-64742866D02*
X99468106Y-64933342D01*
X99468106Y-64933342D02*
X99420487Y-65028580D01*
X99420487Y-65028580D02*
X99325249Y-65076199D01*
X99325249Y-65076199D02*
X99230011Y-65076199D01*
X99230011Y-65076199D02*
X99134773Y-64600009D01*
X98801439Y-65933342D02*
X99325249Y-65933342D01*
X99325249Y-65933342D02*
X99420487Y-65885723D01*
X99420487Y-65885723D02*
X99468106Y-65790485D01*
X99468106Y-65790485D02*
X99468106Y-65600009D01*
X99468106Y-65600009D02*
X99420487Y-65504771D01*
X98849059Y-65933342D02*
X98801439Y-65838104D01*
X98801439Y-65838104D02*
X98801439Y-65600009D01*
X98801439Y-65600009D02*
X98849059Y-65504771D01*
X98849059Y-65504771D02*
X98944297Y-65457152D01*
X98944297Y-65457152D02*
X99039535Y-65457152D01*
X99039535Y-65457152D02*
X99134773Y-65504771D01*
X99134773Y-65504771D02*
X99182392Y-65600009D01*
X99182392Y-65600009D02*
X99182392Y-65838104D01*
X99182392Y-65838104D02*
X99230011Y-65933342D01*
X99468106Y-66266676D02*
X99468106Y-66647628D01*
X99801439Y-66409533D02*
X98944297Y-66409533D01*
X98944297Y-66409533D02*
X98849059Y-66457152D01*
X98849059Y-66457152D02*
X98801439Y-66552390D01*
X98801439Y-66552390D02*
X98801439Y-66647628D01*
X98801439Y-66980962D02*
X99801439Y-66980962D01*
X98801439Y-67409533D02*
X99325249Y-67409533D01*
X99325249Y-67409533D02*
X99420487Y-67361914D01*
X99420487Y-67361914D02*
X99468106Y-67266676D01*
X99468106Y-67266676D02*
X99468106Y-67123819D01*
X99468106Y-67123819D02*
X99420487Y-67028581D01*
X99420487Y-67028581D02*
X99372868Y-66980962D01*
X98849059Y-68266676D02*
X98801439Y-68171438D01*
X98801439Y-68171438D02*
X98801439Y-67980962D01*
X98801439Y-67980962D02*
X98849059Y-67885724D01*
X98849059Y-67885724D02*
X98944297Y-67838105D01*
X98944297Y-67838105D02*
X99325249Y-67838105D01*
X99325249Y-67838105D02*
X99420487Y-67885724D01*
X99420487Y-67885724D02*
X99468106Y-67980962D01*
X99468106Y-67980962D02*
X99468106Y-68171438D01*
X99468106Y-68171438D02*
X99420487Y-68266676D01*
X99420487Y-68266676D02*
X99325249Y-68314295D01*
X99325249Y-68314295D02*
X99230011Y-68314295D01*
X99230011Y-68314295D02*
X99134773Y-67838105D01*
X98801439Y-68742867D02*
X99468106Y-68742867D01*
X99277630Y-68742867D02*
X99372868Y-68790486D01*
X99372868Y-68790486D02*
X99420487Y-68838105D01*
X99420487Y-68838105D02*
X99468106Y-68933343D01*
X99468106Y-68933343D02*
X99468106Y-69028581D01*
D13*
X59726912Y-38800828D02*
X59726912Y-37300828D01*
X60441198Y-38800828D02*
X60441198Y-37300828D01*
X60441198Y-37300828D02*
X60798341Y-37300828D01*
X60798341Y-37300828D02*
X61012627Y-37372257D01*
X61012627Y-37372257D02*
X61155484Y-37515114D01*
X61155484Y-37515114D02*
X61226913Y-37657971D01*
X61226913Y-37657971D02*
X61298341Y-37943685D01*
X61298341Y-37943685D02*
X61298341Y-38157971D01*
X61298341Y-38157971D02*
X61226913Y-38443685D01*
X61226913Y-38443685D02*
X61155484Y-38586542D01*
X61155484Y-38586542D02*
X61012627Y-38729400D01*
X61012627Y-38729400D02*
X60798341Y-38800828D01*
X60798341Y-38800828D02*
X60441198Y-38800828D01*
X61941198Y-38657971D02*
X62012627Y-38729400D01*
X62012627Y-38729400D02*
X61941198Y-38800828D01*
X61941198Y-38800828D02*
X61869770Y-38729400D01*
X61869770Y-38729400D02*
X61941198Y-38657971D01*
X61941198Y-38657971D02*
X61941198Y-38800828D01*
X61941198Y-37872257D02*
X62012627Y-37943685D01*
X62012627Y-37943685D02*
X61941198Y-38015114D01*
X61941198Y-38015114D02*
X61869770Y-37943685D01*
X61869770Y-37943685D02*
X61941198Y-37872257D01*
X61941198Y-37872257D02*
X61941198Y-38015114D01*
D12*
X136602800Y-92089160D02*
X136555180Y-92232017D01*
X136555180Y-92232017D02*
X136555180Y-92470112D01*
X136555180Y-92470112D02*
X136602800Y-92565350D01*
X136602800Y-92565350D02*
X136650419Y-92612969D01*
X136650419Y-92612969D02*
X136745657Y-92660588D01*
X136745657Y-92660588D02*
X136840895Y-92660588D01*
X136840895Y-92660588D02*
X136936133Y-92612969D01*
X136936133Y-92612969D02*
X136983752Y-92565350D01*
X136983752Y-92565350D02*
X137031371Y-92470112D01*
X137031371Y-92470112D02*
X137078990Y-92279636D01*
X137078990Y-92279636D02*
X137126609Y-92184398D01*
X137126609Y-92184398D02*
X137174228Y-92136779D01*
X137174228Y-92136779D02*
X137269466Y-92089160D01*
X137269466Y-92089160D02*
X137364704Y-92089160D01*
X137364704Y-92089160D02*
X137459942Y-92136779D01*
X137459942Y-92136779D02*
X137507561Y-92184398D01*
X137507561Y-92184398D02*
X137555180Y-92279636D01*
X137555180Y-92279636D02*
X137555180Y-92517731D01*
X137555180Y-92517731D02*
X137507561Y-92660588D01*
X136650419Y-93660588D02*
X136602800Y-93612969D01*
X136602800Y-93612969D02*
X136555180Y-93470112D01*
X136555180Y-93470112D02*
X136555180Y-93374874D01*
X136555180Y-93374874D02*
X136602800Y-93232017D01*
X136602800Y-93232017D02*
X136698038Y-93136779D01*
X136698038Y-93136779D02*
X136793276Y-93089160D01*
X136793276Y-93089160D02*
X136983752Y-93041541D01*
X136983752Y-93041541D02*
X137126609Y-93041541D01*
X137126609Y-93041541D02*
X137317085Y-93089160D01*
X137317085Y-93089160D02*
X137412323Y-93136779D01*
X137412323Y-93136779D02*
X137507561Y-93232017D01*
X137507561Y-93232017D02*
X137555180Y-93374874D01*
X137555180Y-93374874D02*
X137555180Y-93470112D01*
X137555180Y-93470112D02*
X137507561Y-93612969D01*
X137507561Y-93612969D02*
X137459942Y-93660588D01*
X136555180Y-94565350D02*
X136555180Y-94089160D01*
X136555180Y-94089160D02*
X137555180Y-94089160D01*
X119378837Y-40554819D02*
X119045504Y-40078628D01*
X118807409Y-40554819D02*
X118807409Y-39554819D01*
X118807409Y-39554819D02*
X119188361Y-39554819D01*
X119188361Y-39554819D02*
X119283599Y-39602438D01*
X119283599Y-39602438D02*
X119331218Y-39650057D01*
X119331218Y-39650057D02*
X119378837Y-39745295D01*
X119378837Y-39745295D02*
X119378837Y-39888152D01*
X119378837Y-39888152D02*
X119331218Y-39983390D01*
X119331218Y-39983390D02*
X119283599Y-40031009D01*
X119283599Y-40031009D02*
X119188361Y-40078628D01*
X119188361Y-40078628D02*
X118807409Y-40078628D01*
X120235980Y-39888152D02*
X120235980Y-40554819D01*
X119997885Y-39507200D02*
X119759790Y-40221485D01*
X119759790Y-40221485D02*
X120378837Y-40221485D01*
D11*
X104860024Y-63708142D02*
X104907643Y-63660523D01*
X104907643Y-63660523D02*
X105002881Y-63612904D01*
X105002881Y-63612904D02*
X105240976Y-63612904D01*
X105240976Y-63612904D02*
X105336214Y-63660523D01*
X105336214Y-63660523D02*
X105383833Y-63708142D01*
X105383833Y-63708142D02*
X105431452Y-63803380D01*
X105431452Y-63803380D02*
X105431452Y-63898618D01*
X105431452Y-63898618D02*
X105383833Y-64041475D01*
X105383833Y-64041475D02*
X104812405Y-64612904D01*
X104812405Y-64612904D02*
X105431452Y-64612904D01*
X105764786Y-63612904D02*
X106431452Y-63612904D01*
X106431452Y-63612904D02*
X106002881Y-64612904D01*
X91360024Y-59227189D02*
X91836214Y-59227189D01*
X91264786Y-59512904D02*
X91598119Y-58512904D01*
X91598119Y-58512904D02*
X91931452Y-59512904D01*
X92169548Y-58512904D02*
X92788595Y-58512904D01*
X92788595Y-58512904D02*
X92455262Y-58893856D01*
X92455262Y-58893856D02*
X92598119Y-58893856D01*
X92598119Y-58893856D02*
X92693357Y-58941475D01*
X92693357Y-58941475D02*
X92740976Y-58989094D01*
X92740976Y-58989094D02*
X92788595Y-59084332D01*
X92788595Y-59084332D02*
X92788595Y-59322427D01*
X92788595Y-59322427D02*
X92740976Y-59417665D01*
X92740976Y-59417665D02*
X92693357Y-59465285D01*
X92693357Y-59465285D02*
X92598119Y-59512904D01*
X92598119Y-59512904D02*
X92312405Y-59512904D01*
X92312405Y-59512904D02*
X92217167Y-59465285D01*
X92217167Y-59465285D02*
X92169548Y-59417665D01*
X91507643Y-46812904D02*
X91507643Y-45812904D01*
X91507643Y-45812904D02*
X92079071Y-46812904D01*
X92079071Y-46812904D02*
X92079071Y-45812904D01*
X92412405Y-45812904D02*
X92745738Y-46812904D01*
X92745738Y-46812904D02*
X93079071Y-45812904D01*
X104860024Y-79765285D02*
X105002881Y-79812904D01*
X105002881Y-79812904D02*
X105240976Y-79812904D01*
X105240976Y-79812904D02*
X105336214Y-79765285D01*
X105336214Y-79765285D02*
X105383833Y-79717665D01*
X105383833Y-79717665D02*
X105431452Y-79622427D01*
X105431452Y-79622427D02*
X105431452Y-79527189D01*
X105431452Y-79527189D02*
X105383833Y-79431951D01*
X105383833Y-79431951D02*
X105336214Y-79384332D01*
X105336214Y-79384332D02*
X105240976Y-79336713D01*
X105240976Y-79336713D02*
X105050500Y-79289094D01*
X105050500Y-79289094D02*
X104955262Y-79241475D01*
X104955262Y-79241475D02*
X104907643Y-79193856D01*
X104907643Y-79193856D02*
X104860024Y-79098618D01*
X104860024Y-79098618D02*
X104860024Y-79003380D01*
X104860024Y-79003380D02*
X104907643Y-78908142D01*
X104907643Y-78908142D02*
X104955262Y-78860523D01*
X104955262Y-78860523D02*
X105050500Y-78812904D01*
X105050500Y-78812904D02*
X105288595Y-78812904D01*
X105288595Y-78812904D02*
X105431452Y-78860523D01*
X105860024Y-79812904D02*
X105860024Y-78812904D01*
X105860024Y-78812904D02*
X106098119Y-78812904D01*
X106098119Y-78812904D02*
X106240976Y-78860523D01*
X106240976Y-78860523D02*
X106336214Y-78955761D01*
X106336214Y-78955761D02*
X106383833Y-79050999D01*
X106383833Y-79050999D02*
X106431452Y-79241475D01*
X106431452Y-79241475D02*
X106431452Y-79384332D01*
X106431452Y-79384332D02*
X106383833Y-79574808D01*
X106383833Y-79574808D02*
X106336214Y-79670046D01*
X106336214Y-79670046D02*
X106240976Y-79765285D01*
X106240976Y-79765285D02*
X106098119Y-79812904D01*
X106098119Y-79812904D02*
X105860024Y-79812904D01*
X106812405Y-79527189D02*
X107288595Y-79527189D01*
X106717167Y-79812904D02*
X107050500Y-78812904D01*
X107050500Y-78812904D02*
X107383833Y-79812904D01*
X91360024Y-78908142D02*
X91407643Y-78860523D01*
X91407643Y-78860523D02*
X91502881Y-78812904D01*
X91502881Y-78812904D02*
X91740976Y-78812904D01*
X91740976Y-78812904D02*
X91836214Y-78860523D01*
X91836214Y-78860523D02*
X91883833Y-78908142D01*
X91883833Y-78908142D02*
X91931452Y-79003380D01*
X91931452Y-79003380D02*
X91931452Y-79098618D01*
X91931452Y-79098618D02*
X91883833Y-79241475D01*
X91883833Y-79241475D02*
X91312405Y-79812904D01*
X91312405Y-79812904D02*
X91931452Y-79812904D01*
X92883833Y-79812904D02*
X92312405Y-79812904D01*
X92598119Y-79812904D02*
X92598119Y-78812904D01*
X92598119Y-78812904D02*
X92502881Y-78955761D01*
X92502881Y-78955761D02*
X92407643Y-79050999D01*
X92407643Y-79050999D02*
X92312405Y-79098618D01*
X105431452Y-69612904D02*
X104860024Y-69612904D01*
X105145738Y-69612904D02*
X105145738Y-68612904D01*
X105145738Y-68612904D02*
X105050500Y-68755761D01*
X105050500Y-68755761D02*
X104955262Y-68850999D01*
X104955262Y-68850999D02*
X104860024Y-68898618D01*
X106336214Y-68612904D02*
X105860024Y-68612904D01*
X105860024Y-68612904D02*
X105812405Y-69089094D01*
X105812405Y-69089094D02*
X105860024Y-69041475D01*
X105860024Y-69041475D02*
X105955262Y-68993856D01*
X105955262Y-68993856D02*
X106193357Y-68993856D01*
X106193357Y-68993856D02*
X106288595Y-69041475D01*
X106288595Y-69041475D02*
X106336214Y-69089094D01*
X106336214Y-69089094D02*
X106383833Y-69184332D01*
X106383833Y-69184332D02*
X106383833Y-69422427D01*
X106383833Y-69422427D02*
X106336214Y-69517665D01*
X106336214Y-69517665D02*
X106288595Y-69565285D01*
X106288595Y-69565285D02*
X106193357Y-69612904D01*
X106193357Y-69612904D02*
X105955262Y-69612904D01*
X105955262Y-69612904D02*
X105860024Y-69565285D01*
X105860024Y-69565285D02*
X105812405Y-69517665D01*
X91360024Y-54127189D02*
X91836214Y-54127189D01*
X91264786Y-54412904D02*
X91598119Y-53412904D01*
X91598119Y-53412904D02*
X91931452Y-54412904D01*
X92788595Y-54412904D02*
X92217167Y-54412904D01*
X92502881Y-54412904D02*
X92502881Y-53412904D01*
X92502881Y-53412904D02*
X92407643Y-53555761D01*
X92407643Y-53555761D02*
X92312405Y-53650999D01*
X92312405Y-53650999D02*
X92217167Y-53698618D01*
X91407643Y-72212904D02*
X91407643Y-71212904D01*
X91407643Y-71212904D02*
X91740976Y-71927189D01*
X91740976Y-71927189D02*
X92074309Y-71212904D01*
X92074309Y-71212904D02*
X92074309Y-72212904D01*
X92550500Y-72212904D02*
X92550500Y-71212904D01*
X91979071Y-74712904D02*
X91645738Y-74236713D01*
X91407643Y-74712904D02*
X91407643Y-73712904D01*
X91407643Y-73712904D02*
X91788595Y-73712904D01*
X91788595Y-73712904D02*
X91883833Y-73760523D01*
X91883833Y-73760523D02*
X91931452Y-73808142D01*
X91931452Y-73808142D02*
X91979071Y-73903380D01*
X91979071Y-73903380D02*
X91979071Y-74046237D01*
X91979071Y-74046237D02*
X91931452Y-74141475D01*
X91931452Y-74141475D02*
X91883833Y-74189094D01*
X91883833Y-74189094D02*
X91788595Y-74236713D01*
X91788595Y-74236713D02*
X91407643Y-74236713D01*
X92312405Y-73712904D02*
X92979071Y-74712904D01*
X92979071Y-73712904D02*
X92312405Y-74712904D01*
X91360024Y-51627189D02*
X91836214Y-51627189D01*
X91264786Y-51912904D02*
X91598119Y-50912904D01*
X91598119Y-50912904D02*
X91931452Y-51912904D01*
X92455262Y-50912904D02*
X92550500Y-50912904D01*
X92550500Y-50912904D02*
X92645738Y-50960523D01*
X92645738Y-50960523D02*
X92693357Y-51008142D01*
X92693357Y-51008142D02*
X92740976Y-51103380D01*
X92740976Y-51103380D02*
X92788595Y-51293856D01*
X92788595Y-51293856D02*
X92788595Y-51531951D01*
X92788595Y-51531951D02*
X92740976Y-51722427D01*
X92740976Y-51722427D02*
X92693357Y-51817665D01*
X92693357Y-51817665D02*
X92645738Y-51865285D01*
X92645738Y-51865285D02*
X92550500Y-51912904D01*
X92550500Y-51912904D02*
X92455262Y-51912904D01*
X92455262Y-51912904D02*
X92360024Y-51865285D01*
X92360024Y-51865285D02*
X92312405Y-51817665D01*
X92312405Y-51817665D02*
X92264786Y-51722427D01*
X92264786Y-51722427D02*
X92217167Y-51531951D01*
X92217167Y-51531951D02*
X92217167Y-51293856D01*
X92217167Y-51293856D02*
X92264786Y-51103380D01*
X92264786Y-51103380D02*
X92312405Y-51008142D01*
X92312405Y-51008142D02*
X92360024Y-50960523D01*
X92360024Y-50960523D02*
X92455262Y-50912904D01*
X105240976Y-51389094D02*
X105383833Y-51436713D01*
X105383833Y-51436713D02*
X105431452Y-51484332D01*
X105431452Y-51484332D02*
X105479071Y-51579570D01*
X105479071Y-51579570D02*
X105479071Y-51722427D01*
X105479071Y-51722427D02*
X105431452Y-51817665D01*
X105431452Y-51817665D02*
X105383833Y-51865285D01*
X105383833Y-51865285D02*
X105288595Y-51912904D01*
X105288595Y-51912904D02*
X104907643Y-51912904D01*
X104907643Y-51912904D02*
X104907643Y-50912904D01*
X104907643Y-50912904D02*
X105240976Y-50912904D01*
X105240976Y-50912904D02*
X105336214Y-50960523D01*
X105336214Y-50960523D02*
X105383833Y-51008142D01*
X105383833Y-51008142D02*
X105431452Y-51103380D01*
X105431452Y-51103380D02*
X105431452Y-51198618D01*
X105431452Y-51198618D02*
X105383833Y-51293856D01*
X105383833Y-51293856D02*
X105336214Y-51341475D01*
X105336214Y-51341475D02*
X105240976Y-51389094D01*
X105240976Y-51389094D02*
X104907643Y-51389094D01*
X105860024Y-51627189D02*
X106336214Y-51627189D01*
X105764786Y-51912904D02*
X106098119Y-50912904D01*
X106098119Y-50912904D02*
X106431452Y-51912904D01*
X106621929Y-50912904D02*
X107193357Y-50912904D01*
X106907643Y-51912904D02*
X106907643Y-50912904D01*
X91360024Y-56627189D02*
X91836214Y-56627189D01*
X91264786Y-56912904D02*
X91598119Y-55912904D01*
X91598119Y-55912904D02*
X91931452Y-56912904D01*
X92217167Y-56008142D02*
X92264786Y-55960523D01*
X92264786Y-55960523D02*
X92360024Y-55912904D01*
X92360024Y-55912904D02*
X92598119Y-55912904D01*
X92598119Y-55912904D02*
X92693357Y-55960523D01*
X92693357Y-55960523D02*
X92740976Y-56008142D01*
X92740976Y-56008142D02*
X92788595Y-56103380D01*
X92788595Y-56103380D02*
X92788595Y-56198618D01*
X92788595Y-56198618D02*
X92740976Y-56341475D01*
X92740976Y-56341475D02*
X92169548Y-56912904D01*
X92169548Y-56912904D02*
X92788595Y-56912904D01*
X105431452Y-74712904D02*
X104860024Y-74712904D01*
X105145738Y-74712904D02*
X105145738Y-73712904D01*
X105145738Y-73712904D02*
X105050500Y-73855761D01*
X105050500Y-73855761D02*
X104955262Y-73950999D01*
X104955262Y-73950999D02*
X104860024Y-73998618D01*
X106288595Y-74046237D02*
X106288595Y-74712904D01*
X106050500Y-73665285D02*
X105812405Y-74379570D01*
X105812405Y-74379570D02*
X106431452Y-74379570D01*
X104860024Y-77165285D02*
X105002881Y-77212904D01*
X105002881Y-77212904D02*
X105240976Y-77212904D01*
X105240976Y-77212904D02*
X105336214Y-77165285D01*
X105336214Y-77165285D02*
X105383833Y-77117665D01*
X105383833Y-77117665D02*
X105431452Y-77022427D01*
X105431452Y-77022427D02*
X105431452Y-76927189D01*
X105431452Y-76927189D02*
X105383833Y-76831951D01*
X105383833Y-76831951D02*
X105336214Y-76784332D01*
X105336214Y-76784332D02*
X105240976Y-76736713D01*
X105240976Y-76736713D02*
X105050500Y-76689094D01*
X105050500Y-76689094D02*
X104955262Y-76641475D01*
X104955262Y-76641475D02*
X104907643Y-76593856D01*
X104907643Y-76593856D02*
X104860024Y-76498618D01*
X104860024Y-76498618D02*
X104860024Y-76403380D01*
X104860024Y-76403380D02*
X104907643Y-76308142D01*
X104907643Y-76308142D02*
X104955262Y-76260523D01*
X104955262Y-76260523D02*
X105050500Y-76212904D01*
X105050500Y-76212904D02*
X105288595Y-76212904D01*
X105288595Y-76212904D02*
X105431452Y-76260523D01*
X106431452Y-77117665D02*
X106383833Y-77165285D01*
X106383833Y-77165285D02*
X106240976Y-77212904D01*
X106240976Y-77212904D02*
X106145738Y-77212904D01*
X106145738Y-77212904D02*
X106002881Y-77165285D01*
X106002881Y-77165285D02*
X105907643Y-77070046D01*
X105907643Y-77070046D02*
X105860024Y-76974808D01*
X105860024Y-76974808D02*
X105812405Y-76784332D01*
X105812405Y-76784332D02*
X105812405Y-76641475D01*
X105812405Y-76641475D02*
X105860024Y-76450999D01*
X105860024Y-76450999D02*
X105907643Y-76355761D01*
X105907643Y-76355761D02*
X106002881Y-76260523D01*
X106002881Y-76260523D02*
X106145738Y-76212904D01*
X106145738Y-76212904D02*
X106240976Y-76212904D01*
X106240976Y-76212904D02*
X106383833Y-76260523D01*
X106383833Y-76260523D02*
X106431452Y-76308142D01*
X107336214Y-77212904D02*
X106860024Y-77212904D01*
X106860024Y-77212904D02*
X106860024Y-76212904D01*
X91407643Y-69612904D02*
X91407643Y-68612904D01*
X91407643Y-68612904D02*
X91740976Y-69327189D01*
X91740976Y-69327189D02*
X92074309Y-68612904D01*
X92074309Y-68612904D02*
X92074309Y-69612904D01*
X92740976Y-68612904D02*
X92931452Y-68612904D01*
X92931452Y-68612904D02*
X93026690Y-68660523D01*
X93026690Y-68660523D02*
X93121928Y-68755761D01*
X93121928Y-68755761D02*
X93169547Y-68946237D01*
X93169547Y-68946237D02*
X93169547Y-69279570D01*
X93169547Y-69279570D02*
X93121928Y-69470046D01*
X93121928Y-69470046D02*
X93026690Y-69565285D01*
X93026690Y-69565285D02*
X92931452Y-69612904D01*
X92931452Y-69612904D02*
X92740976Y-69612904D01*
X92740976Y-69612904D02*
X92645738Y-69565285D01*
X92645738Y-69565285D02*
X92550500Y-69470046D01*
X92550500Y-69470046D02*
X92502881Y-69279570D01*
X92502881Y-69279570D02*
X92502881Y-68946237D01*
X92502881Y-68946237D02*
X92550500Y-68755761D01*
X92550500Y-68755761D02*
X92645738Y-68660523D01*
X92645738Y-68660523D02*
X92740976Y-68612904D01*
X91412405Y-43212904D02*
X92031452Y-43212904D01*
X92031452Y-43212904D02*
X91698119Y-43593856D01*
X91698119Y-43593856D02*
X91840976Y-43593856D01*
X91840976Y-43593856D02*
X91936214Y-43641475D01*
X91936214Y-43641475D02*
X91983833Y-43689094D01*
X91983833Y-43689094D02*
X92031452Y-43784332D01*
X92031452Y-43784332D02*
X92031452Y-44022427D01*
X92031452Y-44022427D02*
X91983833Y-44117665D01*
X91983833Y-44117665D02*
X91936214Y-44165285D01*
X91936214Y-44165285D02*
X91840976Y-44212904D01*
X91840976Y-44212904D02*
X91555262Y-44212904D01*
X91555262Y-44212904D02*
X91460024Y-44165285D01*
X91460024Y-44165285D02*
X91412405Y-44117665D01*
X92317167Y-43212904D02*
X92650500Y-44212904D01*
X92650500Y-44212904D02*
X92983833Y-43212904D01*
X91360024Y-64327189D02*
X91836214Y-64327189D01*
X91264786Y-64612904D02*
X91598119Y-63612904D01*
X91598119Y-63612904D02*
X91931452Y-64612904D01*
X92740976Y-63612904D02*
X92264786Y-63612904D01*
X92264786Y-63612904D02*
X92217167Y-64089094D01*
X92217167Y-64089094D02*
X92264786Y-64041475D01*
X92264786Y-64041475D02*
X92360024Y-63993856D01*
X92360024Y-63993856D02*
X92598119Y-63993856D01*
X92598119Y-63993856D02*
X92693357Y-64041475D01*
X92693357Y-64041475D02*
X92740976Y-64089094D01*
X92740976Y-64089094D02*
X92788595Y-64184332D01*
X92788595Y-64184332D02*
X92788595Y-64422427D01*
X92788595Y-64422427D02*
X92740976Y-64517665D01*
X92740976Y-64517665D02*
X92693357Y-64565285D01*
X92693357Y-64565285D02*
X92598119Y-64612904D01*
X92598119Y-64612904D02*
X92360024Y-64612904D01*
X92360024Y-64612904D02*
X92264786Y-64565285D01*
X92264786Y-64565285D02*
X92217167Y-64517665D01*
X91264786Y-76212904D02*
X91836214Y-76212904D01*
X91550500Y-77212904D02*
X91550500Y-76212904D01*
X92074310Y-76212904D02*
X92740976Y-77212904D01*
X92740976Y-76212904D02*
X92074310Y-77212904D01*
X105431452Y-62012904D02*
X104860024Y-62012904D01*
X105145738Y-62012904D02*
X105145738Y-61012904D01*
X105145738Y-61012904D02*
X105050500Y-61155761D01*
X105050500Y-61155761D02*
X104955262Y-61250999D01*
X104955262Y-61250999D02*
X104860024Y-61298618D01*
X105812405Y-61108142D02*
X105860024Y-61060523D01*
X105860024Y-61060523D02*
X105955262Y-61012904D01*
X105955262Y-61012904D02*
X106193357Y-61012904D01*
X106193357Y-61012904D02*
X106288595Y-61060523D01*
X106288595Y-61060523D02*
X106336214Y-61108142D01*
X106336214Y-61108142D02*
X106383833Y-61203380D01*
X106383833Y-61203380D02*
X106383833Y-61298618D01*
X106383833Y-61298618D02*
X106336214Y-61441475D01*
X106336214Y-61441475D02*
X105764786Y-62012904D01*
X105764786Y-62012904D02*
X106383833Y-62012904D01*
X92079071Y-41712904D02*
X91745738Y-41236713D01*
X91507643Y-41712904D02*
X91507643Y-40712904D01*
X91507643Y-40712904D02*
X91888595Y-40712904D01*
X91888595Y-40712904D02*
X91983833Y-40760523D01*
X91983833Y-40760523D02*
X92031452Y-40808142D01*
X92031452Y-40808142D02*
X92079071Y-40903380D01*
X92079071Y-40903380D02*
X92079071Y-41046237D01*
X92079071Y-41046237D02*
X92031452Y-41141475D01*
X92031452Y-41141475D02*
X91983833Y-41189094D01*
X91983833Y-41189094D02*
X91888595Y-41236713D01*
X91888595Y-41236713D02*
X91507643Y-41236713D01*
X92460024Y-41665285D02*
X92602881Y-41712904D01*
X92602881Y-41712904D02*
X92840976Y-41712904D01*
X92840976Y-41712904D02*
X92936214Y-41665285D01*
X92936214Y-41665285D02*
X92983833Y-41617665D01*
X92983833Y-41617665D02*
X93031452Y-41522427D01*
X93031452Y-41522427D02*
X93031452Y-41427189D01*
X93031452Y-41427189D02*
X92983833Y-41331951D01*
X92983833Y-41331951D02*
X92936214Y-41284332D01*
X92936214Y-41284332D02*
X92840976Y-41236713D01*
X92840976Y-41236713D02*
X92650500Y-41189094D01*
X92650500Y-41189094D02*
X92555262Y-41141475D01*
X92555262Y-41141475D02*
X92507643Y-41093856D01*
X92507643Y-41093856D02*
X92460024Y-40998618D01*
X92460024Y-40998618D02*
X92460024Y-40903380D01*
X92460024Y-40903380D02*
X92507643Y-40808142D01*
X92507643Y-40808142D02*
X92555262Y-40760523D01*
X92555262Y-40760523D02*
X92650500Y-40712904D01*
X92650500Y-40712904D02*
X92888595Y-40712904D01*
X92888595Y-40712904D02*
X93031452Y-40760523D01*
X93317167Y-40712904D02*
X93888595Y-40712904D01*
X93602881Y-41712904D02*
X93602881Y-40712904D01*
X104812405Y-66112904D02*
X105431452Y-66112904D01*
X105431452Y-66112904D02*
X105098119Y-66493856D01*
X105098119Y-66493856D02*
X105240976Y-66493856D01*
X105240976Y-66493856D02*
X105336214Y-66541475D01*
X105336214Y-66541475D02*
X105383833Y-66589094D01*
X105383833Y-66589094D02*
X105431452Y-66684332D01*
X105431452Y-66684332D02*
X105431452Y-66922427D01*
X105431452Y-66922427D02*
X105383833Y-67017665D01*
X105383833Y-67017665D02*
X105336214Y-67065285D01*
X105336214Y-67065285D02*
X105240976Y-67112904D01*
X105240976Y-67112904D02*
X104955262Y-67112904D01*
X104955262Y-67112904D02*
X104860024Y-67065285D01*
X104860024Y-67065285D02*
X104812405Y-67017665D01*
X105764786Y-66112904D02*
X106383833Y-66112904D01*
X106383833Y-66112904D02*
X106050500Y-66493856D01*
X106050500Y-66493856D02*
X106193357Y-66493856D01*
X106193357Y-66493856D02*
X106288595Y-66541475D01*
X106288595Y-66541475D02*
X106336214Y-66589094D01*
X106336214Y-66589094D02*
X106383833Y-66684332D01*
X106383833Y-66684332D02*
X106383833Y-66922427D01*
X106383833Y-66922427D02*
X106336214Y-67017665D01*
X106336214Y-67017665D02*
X106288595Y-67065285D01*
X106288595Y-67065285D02*
X106193357Y-67112904D01*
X106193357Y-67112904D02*
X105907643Y-67112904D01*
X105907643Y-67112904D02*
X105812405Y-67065285D01*
X105812405Y-67065285D02*
X105764786Y-67017665D01*
X105431452Y-59512904D02*
X104860024Y-59512904D01*
X105145738Y-59512904D02*
X105145738Y-58512904D01*
X105145738Y-58512904D02*
X105050500Y-58655761D01*
X105050500Y-58655761D02*
X104955262Y-58750999D01*
X104955262Y-58750999D02*
X104860024Y-58798618D01*
X105764786Y-58512904D02*
X106383833Y-58512904D01*
X106383833Y-58512904D02*
X106050500Y-58893856D01*
X106050500Y-58893856D02*
X106193357Y-58893856D01*
X106193357Y-58893856D02*
X106288595Y-58941475D01*
X106288595Y-58941475D02*
X106336214Y-58989094D01*
X106336214Y-58989094D02*
X106383833Y-59084332D01*
X106383833Y-59084332D02*
X106383833Y-59322427D01*
X106383833Y-59322427D02*
X106336214Y-59417665D01*
X106336214Y-59417665D02*
X106288595Y-59465285D01*
X106288595Y-59465285D02*
X106193357Y-59512904D01*
X106193357Y-59512904D02*
X105907643Y-59512904D01*
X105907643Y-59512904D02*
X105812405Y-59465285D01*
X105812405Y-59465285D02*
X105764786Y-59417665D01*
X91360024Y-61727189D02*
X91836214Y-61727189D01*
X91264786Y-62012904D02*
X91598119Y-61012904D01*
X91598119Y-61012904D02*
X91931452Y-62012904D01*
X92693357Y-61346237D02*
X92693357Y-62012904D01*
X92455262Y-60965285D02*
X92217167Y-61679570D01*
X92217167Y-61679570D02*
X92836214Y-61679570D01*
X91360024Y-67065285D02*
X91502881Y-67112904D01*
X91502881Y-67112904D02*
X91740976Y-67112904D01*
X91740976Y-67112904D02*
X91836214Y-67065285D01*
X91836214Y-67065285D02*
X91883833Y-67017665D01*
X91883833Y-67017665D02*
X91931452Y-66922427D01*
X91931452Y-66922427D02*
X91931452Y-66827189D01*
X91931452Y-66827189D02*
X91883833Y-66731951D01*
X91883833Y-66731951D02*
X91836214Y-66684332D01*
X91836214Y-66684332D02*
X91740976Y-66636713D01*
X91740976Y-66636713D02*
X91550500Y-66589094D01*
X91550500Y-66589094D02*
X91455262Y-66541475D01*
X91455262Y-66541475D02*
X91407643Y-66493856D01*
X91407643Y-66493856D02*
X91360024Y-66398618D01*
X91360024Y-66398618D02*
X91360024Y-66303380D01*
X91360024Y-66303380D02*
X91407643Y-66208142D01*
X91407643Y-66208142D02*
X91455262Y-66160523D01*
X91455262Y-66160523D02*
X91550500Y-66112904D01*
X91550500Y-66112904D02*
X91788595Y-66112904D01*
X91788595Y-66112904D02*
X91931452Y-66160523D01*
X92931452Y-67017665D02*
X92883833Y-67065285D01*
X92883833Y-67065285D02*
X92740976Y-67112904D01*
X92740976Y-67112904D02*
X92645738Y-67112904D01*
X92645738Y-67112904D02*
X92502881Y-67065285D01*
X92502881Y-67065285D02*
X92407643Y-66970046D01*
X92407643Y-66970046D02*
X92360024Y-66874808D01*
X92360024Y-66874808D02*
X92312405Y-66684332D01*
X92312405Y-66684332D02*
X92312405Y-66541475D01*
X92312405Y-66541475D02*
X92360024Y-66350999D01*
X92360024Y-66350999D02*
X92407643Y-66255761D01*
X92407643Y-66255761D02*
X92502881Y-66160523D01*
X92502881Y-66160523D02*
X92645738Y-66112904D01*
X92645738Y-66112904D02*
X92740976Y-66112904D01*
X92740976Y-66112904D02*
X92883833Y-66160523D01*
X92883833Y-66160523D02*
X92931452Y-66208142D01*
X93360024Y-67112904D02*
X93360024Y-66112904D01*
X93931452Y-67112904D02*
X93502881Y-66541475D01*
X93931452Y-66112904D02*
X93360024Y-66684332D01*
X98107643Y-36412904D02*
X98107643Y-37222427D01*
X98107643Y-37222427D02*
X98155262Y-37317665D01*
X98155262Y-37317665D02*
X98202881Y-37365285D01*
X98202881Y-37365285D02*
X98298119Y-37412904D01*
X98298119Y-37412904D02*
X98488595Y-37412904D01*
X98488595Y-37412904D02*
X98583833Y-37365285D01*
X98583833Y-37365285D02*
X98631452Y-37317665D01*
X98631452Y-37317665D02*
X98679071Y-37222427D01*
X98679071Y-37222427D02*
X98679071Y-36412904D01*
X99107643Y-37365285D02*
X99250500Y-37412904D01*
X99250500Y-37412904D02*
X99488595Y-37412904D01*
X99488595Y-37412904D02*
X99583833Y-37365285D01*
X99583833Y-37365285D02*
X99631452Y-37317665D01*
X99631452Y-37317665D02*
X99679071Y-37222427D01*
X99679071Y-37222427D02*
X99679071Y-37127189D01*
X99679071Y-37127189D02*
X99631452Y-37031951D01*
X99631452Y-37031951D02*
X99583833Y-36984332D01*
X99583833Y-36984332D02*
X99488595Y-36936713D01*
X99488595Y-36936713D02*
X99298119Y-36889094D01*
X99298119Y-36889094D02*
X99202881Y-36841475D01*
X99202881Y-36841475D02*
X99155262Y-36793856D01*
X99155262Y-36793856D02*
X99107643Y-36698618D01*
X99107643Y-36698618D02*
X99107643Y-36603380D01*
X99107643Y-36603380D02*
X99155262Y-36508142D01*
X99155262Y-36508142D02*
X99202881Y-36460523D01*
X99202881Y-36460523D02*
X99298119Y-36412904D01*
X99298119Y-36412904D02*
X99536214Y-36412904D01*
X99536214Y-36412904D02*
X99679071Y-36460523D01*
X100440976Y-36889094D02*
X100583833Y-36936713D01*
X100583833Y-36936713D02*
X100631452Y-36984332D01*
X100631452Y-36984332D02*
X100679071Y-37079570D01*
X100679071Y-37079570D02*
X100679071Y-37222427D01*
X100679071Y-37222427D02*
X100631452Y-37317665D01*
X100631452Y-37317665D02*
X100583833Y-37365285D01*
X100583833Y-37365285D02*
X100488595Y-37412904D01*
X100488595Y-37412904D02*
X100107643Y-37412904D01*
X100107643Y-37412904D02*
X100107643Y-36412904D01*
X100107643Y-36412904D02*
X100440976Y-36412904D01*
X100440976Y-36412904D02*
X100536214Y-36460523D01*
X100536214Y-36460523D02*
X100583833Y-36508142D01*
X100583833Y-36508142D02*
X100631452Y-36603380D01*
X100631452Y-36603380D02*
X100631452Y-36698618D01*
X100631452Y-36698618D02*
X100583833Y-36793856D01*
X100583833Y-36793856D02*
X100536214Y-36841475D01*
X100536214Y-36841475D02*
X100440976Y-36889094D01*
X100440976Y-36889094D02*
X100107643Y-36889094D01*
X104907643Y-55912904D02*
X104907643Y-56722427D01*
X104907643Y-56722427D02*
X104955262Y-56817665D01*
X104955262Y-56817665D02*
X105002881Y-56865285D01*
X105002881Y-56865285D02*
X105098119Y-56912904D01*
X105098119Y-56912904D02*
X105288595Y-56912904D01*
X105288595Y-56912904D02*
X105383833Y-56865285D01*
X105383833Y-56865285D02*
X105431452Y-56817665D01*
X105431452Y-56817665D02*
X105479071Y-56722427D01*
X105479071Y-56722427D02*
X105479071Y-55912904D01*
X105907643Y-56865285D02*
X106050500Y-56912904D01*
X106050500Y-56912904D02*
X106288595Y-56912904D01*
X106288595Y-56912904D02*
X106383833Y-56865285D01*
X106383833Y-56865285D02*
X106431452Y-56817665D01*
X106431452Y-56817665D02*
X106479071Y-56722427D01*
X106479071Y-56722427D02*
X106479071Y-56627189D01*
X106479071Y-56627189D02*
X106431452Y-56531951D01*
X106431452Y-56531951D02*
X106383833Y-56484332D01*
X106383833Y-56484332D02*
X106288595Y-56436713D01*
X106288595Y-56436713D02*
X106098119Y-56389094D01*
X106098119Y-56389094D02*
X106002881Y-56341475D01*
X106002881Y-56341475D02*
X105955262Y-56293856D01*
X105955262Y-56293856D02*
X105907643Y-56198618D01*
X105907643Y-56198618D02*
X105907643Y-56103380D01*
X105907643Y-56103380D02*
X105955262Y-56008142D01*
X105955262Y-56008142D02*
X106002881Y-55960523D01*
X106002881Y-55960523D02*
X106098119Y-55912904D01*
X106098119Y-55912904D02*
X106336214Y-55912904D01*
X106336214Y-55912904D02*
X106479071Y-55960523D01*
X107240976Y-56389094D02*
X107383833Y-56436713D01*
X107383833Y-56436713D02*
X107431452Y-56484332D01*
X107431452Y-56484332D02*
X107479071Y-56579570D01*
X107479071Y-56579570D02*
X107479071Y-56722427D01*
X107479071Y-56722427D02*
X107431452Y-56817665D01*
X107431452Y-56817665D02*
X107383833Y-56865285D01*
X107383833Y-56865285D02*
X107288595Y-56912904D01*
X107288595Y-56912904D02*
X106907643Y-56912904D01*
X106907643Y-56912904D02*
X106907643Y-55912904D01*
X106907643Y-55912904D02*
X107240976Y-55912904D01*
X107240976Y-55912904D02*
X107336214Y-55960523D01*
X107336214Y-55960523D02*
X107383833Y-56008142D01*
X107383833Y-56008142D02*
X107431452Y-56103380D01*
X107431452Y-56103380D02*
X107431452Y-56198618D01*
X107431452Y-56198618D02*
X107383833Y-56293856D01*
X107383833Y-56293856D02*
X107336214Y-56341475D01*
X107336214Y-56341475D02*
X107240976Y-56389094D01*
X107240976Y-56389094D02*
X106907643Y-56389094D01*
X92031452Y-48360523D02*
X91936214Y-48312904D01*
X91936214Y-48312904D02*
X91793357Y-48312904D01*
X91793357Y-48312904D02*
X91650500Y-48360523D01*
X91650500Y-48360523D02*
X91555262Y-48455761D01*
X91555262Y-48455761D02*
X91507643Y-48550999D01*
X91507643Y-48550999D02*
X91460024Y-48741475D01*
X91460024Y-48741475D02*
X91460024Y-48884332D01*
X91460024Y-48884332D02*
X91507643Y-49074808D01*
X91507643Y-49074808D02*
X91555262Y-49170046D01*
X91555262Y-49170046D02*
X91650500Y-49265285D01*
X91650500Y-49265285D02*
X91793357Y-49312904D01*
X91793357Y-49312904D02*
X91888595Y-49312904D01*
X91888595Y-49312904D02*
X92031452Y-49265285D01*
X92031452Y-49265285D02*
X92079071Y-49217665D01*
X92079071Y-49217665D02*
X92079071Y-48884332D01*
X92079071Y-48884332D02*
X91888595Y-48884332D01*
X92507643Y-49312904D02*
X92507643Y-48312904D01*
X92507643Y-48312904D02*
X93079071Y-49312904D01*
X93079071Y-49312904D02*
X93079071Y-48312904D01*
X93555262Y-49312904D02*
X93555262Y-48312904D01*
X93555262Y-48312904D02*
X93793357Y-48312904D01*
X93793357Y-48312904D02*
X93936214Y-48360523D01*
X93936214Y-48360523D02*
X94031452Y-48455761D01*
X94031452Y-48455761D02*
X94079071Y-48550999D01*
X94079071Y-48550999D02*
X94126690Y-48741475D01*
X94126690Y-48741475D02*
X94126690Y-48884332D01*
X94126690Y-48884332D02*
X94079071Y-49074808D01*
X94079071Y-49074808D02*
X94031452Y-49170046D01*
X94031452Y-49170046D02*
X93936214Y-49265285D01*
X93936214Y-49265285D02*
X93793357Y-49312904D01*
X93793357Y-49312904D02*
X93555262Y-49312904D01*
X104907643Y-53889094D02*
X105240976Y-53889094D01*
X105383833Y-54412904D02*
X104907643Y-54412904D01*
X104907643Y-54412904D02*
X104907643Y-53412904D01*
X104907643Y-53412904D02*
X105383833Y-53412904D01*
X105812405Y-54412904D02*
X105812405Y-53412904D01*
X105812405Y-53412904D02*
X106383833Y-54412904D01*
X106383833Y-54412904D02*
X106383833Y-53412904D01*
X104812405Y-71212904D02*
X105431452Y-71212904D01*
X105431452Y-71212904D02*
X105098119Y-71593856D01*
X105098119Y-71593856D02*
X105240976Y-71593856D01*
X105240976Y-71593856D02*
X105336214Y-71641475D01*
X105336214Y-71641475D02*
X105383833Y-71689094D01*
X105383833Y-71689094D02*
X105431452Y-71784332D01*
X105431452Y-71784332D02*
X105431452Y-72022427D01*
X105431452Y-72022427D02*
X105383833Y-72117665D01*
X105383833Y-72117665D02*
X105336214Y-72165285D01*
X105336214Y-72165285D02*
X105240976Y-72212904D01*
X105240976Y-72212904D02*
X104955262Y-72212904D01*
X104955262Y-72212904D02*
X104860024Y-72165285D01*
X104860024Y-72165285D02*
X104812405Y-72117665D01*
X105812405Y-71308142D02*
X105860024Y-71260523D01*
X105860024Y-71260523D02*
X105955262Y-71212904D01*
X105955262Y-71212904D02*
X106193357Y-71212904D01*
X106193357Y-71212904D02*
X106288595Y-71260523D01*
X106288595Y-71260523D02*
X106336214Y-71308142D01*
X106336214Y-71308142D02*
X106383833Y-71403380D01*
X106383833Y-71403380D02*
X106383833Y-71498618D01*
X106383833Y-71498618D02*
X106336214Y-71641475D01*
X106336214Y-71641475D02*
X105764786Y-72212904D01*
X105764786Y-72212904D02*
X106383833Y-72212904D01*
D12*
X64420112Y-103096009D02*
X64562969Y-103143628D01*
X64562969Y-103143628D02*
X64610588Y-103191247D01*
X64610588Y-103191247D02*
X64658207Y-103286485D01*
X64658207Y-103286485D02*
X64658207Y-103429342D01*
X64658207Y-103429342D02*
X64610588Y-103524580D01*
X64610588Y-103524580D02*
X64562969Y-103572200D01*
X64562969Y-103572200D02*
X64467731Y-103619819D01*
X64467731Y-103619819D02*
X64086779Y-103619819D01*
X64086779Y-103619819D02*
X64086779Y-102619819D01*
X64086779Y-102619819D02*
X64420112Y-102619819D01*
X64420112Y-102619819D02*
X64515350Y-102667438D01*
X64515350Y-102667438D02*
X64562969Y-102715057D01*
X64562969Y-102715057D02*
X64610588Y-102810295D01*
X64610588Y-102810295D02*
X64610588Y-102905533D01*
X64610588Y-102905533D02*
X64562969Y-103000771D01*
X64562969Y-103000771D02*
X64515350Y-103048390D01*
X64515350Y-103048390D02*
X64420112Y-103096009D01*
X64420112Y-103096009D02*
X64086779Y-103096009D01*
X65086779Y-103619819D02*
X65086779Y-102619819D01*
X65086779Y-102619819D02*
X65658207Y-103619819D01*
X65658207Y-103619819D02*
X65658207Y-102619819D01*
X66324874Y-102619819D02*
X66515350Y-102619819D01*
X66515350Y-102619819D02*
X66610588Y-102667438D01*
X66610588Y-102667438D02*
X66705826Y-102762676D01*
X66705826Y-102762676D02*
X66753445Y-102953152D01*
X66753445Y-102953152D02*
X66753445Y-103286485D01*
X66753445Y-103286485D02*
X66705826Y-103476961D01*
X66705826Y-103476961D02*
X66610588Y-103572200D01*
X66610588Y-103572200D02*
X66515350Y-103619819D01*
X66515350Y-103619819D02*
X66324874Y-103619819D01*
X66324874Y-103619819D02*
X66229636Y-103572200D01*
X66229636Y-103572200D02*
X66134398Y-103476961D01*
X66134398Y-103476961D02*
X66086779Y-103286485D01*
X66086779Y-103286485D02*
X66086779Y-102953152D01*
X66086779Y-102953152D02*
X66134398Y-102762676D01*
X66134398Y-102762676D02*
X66229636Y-102667438D01*
X66229636Y-102667438D02*
X66324874Y-102619819D01*
X67372493Y-102619819D02*
X67467731Y-102619819D01*
X67467731Y-102619819D02*
X67562969Y-102667438D01*
X67562969Y-102667438D02*
X67610588Y-102715057D01*
X67610588Y-102715057D02*
X67658207Y-102810295D01*
X67658207Y-102810295D02*
X67705826Y-103000771D01*
X67705826Y-103000771D02*
X67705826Y-103238866D01*
X67705826Y-103238866D02*
X67658207Y-103429342D01*
X67658207Y-103429342D02*
X67610588Y-103524580D01*
X67610588Y-103524580D02*
X67562969Y-103572200D01*
X67562969Y-103572200D02*
X67467731Y-103619819D01*
X67467731Y-103619819D02*
X67372493Y-103619819D01*
X67372493Y-103619819D02*
X67277255Y-103572200D01*
X67277255Y-103572200D02*
X67229636Y-103524580D01*
X67229636Y-103524580D02*
X67182017Y-103429342D01*
X67182017Y-103429342D02*
X67134398Y-103238866D01*
X67134398Y-103238866D02*
X67134398Y-103000771D01*
X67134398Y-103000771D02*
X67182017Y-102810295D01*
X67182017Y-102810295D02*
X67229636Y-102715057D01*
X67229636Y-102715057D02*
X67277255Y-102667438D01*
X67277255Y-102667438D02*
X67372493Y-102619819D01*
X68610588Y-102619819D02*
X68134398Y-102619819D01*
X68134398Y-102619819D02*
X68086779Y-103096009D01*
X68086779Y-103096009D02*
X68134398Y-103048390D01*
X68134398Y-103048390D02*
X68229636Y-103000771D01*
X68229636Y-103000771D02*
X68467731Y-103000771D01*
X68467731Y-103000771D02*
X68562969Y-103048390D01*
X68562969Y-103048390D02*
X68610588Y-103096009D01*
X68610588Y-103096009D02*
X68658207Y-103191247D01*
X68658207Y-103191247D02*
X68658207Y-103429342D01*
X68658207Y-103429342D02*
X68610588Y-103524580D01*
X68610588Y-103524580D02*
X68562969Y-103572200D01*
X68562969Y-103572200D02*
X68467731Y-103619819D01*
X68467731Y-103619819D02*
X68229636Y-103619819D01*
X68229636Y-103619819D02*
X68134398Y-103572200D01*
X68134398Y-103572200D02*
X68086779Y-103524580D01*
X69562969Y-102619819D02*
X69086779Y-102619819D01*
X69086779Y-102619819D02*
X69039160Y-103096009D01*
X69039160Y-103096009D02*
X69086779Y-103048390D01*
X69086779Y-103048390D02*
X69182017Y-103000771D01*
X69182017Y-103000771D02*
X69420112Y-103000771D01*
X69420112Y-103000771D02*
X69515350Y-103048390D01*
X69515350Y-103048390D02*
X69562969Y-103096009D01*
X69562969Y-103096009D02*
X69610588Y-103191247D01*
X69610588Y-103191247D02*
X69610588Y-103429342D01*
X69610588Y-103429342D02*
X69562969Y-103524580D01*
X69562969Y-103524580D02*
X69515350Y-103572200D01*
X69515350Y-103572200D02*
X69420112Y-103619819D01*
X69420112Y-103619819D02*
X69182017Y-103619819D01*
X69182017Y-103619819D02*
X69086779Y-103572200D01*
X69086779Y-103572200D02*
X69039160Y-103524580D01*
X73679819Y-108342277D02*
X73203628Y-108675610D01*
X73679819Y-108913705D02*
X72679819Y-108913705D01*
X72679819Y-108913705D02*
X72679819Y-108532753D01*
X72679819Y-108532753D02*
X72727438Y-108437515D01*
X72727438Y-108437515D02*
X72775057Y-108389896D01*
X72775057Y-108389896D02*
X72870295Y-108342277D01*
X72870295Y-108342277D02*
X73013152Y-108342277D01*
X73013152Y-108342277D02*
X73108390Y-108389896D01*
X73108390Y-108389896D02*
X73156009Y-108437515D01*
X73156009Y-108437515D02*
X73203628Y-108532753D01*
X73203628Y-108532753D02*
X73203628Y-108913705D01*
X73632200Y-107961324D02*
X73679819Y-107818467D01*
X73679819Y-107818467D02*
X73679819Y-107580372D01*
X73679819Y-107580372D02*
X73632200Y-107485134D01*
X73632200Y-107485134D02*
X73584580Y-107437515D01*
X73584580Y-107437515D02*
X73489342Y-107389896D01*
X73489342Y-107389896D02*
X73394104Y-107389896D01*
X73394104Y-107389896D02*
X73298866Y-107437515D01*
X73298866Y-107437515D02*
X73251247Y-107485134D01*
X73251247Y-107485134D02*
X73203628Y-107580372D01*
X73203628Y-107580372D02*
X73156009Y-107770848D01*
X73156009Y-107770848D02*
X73108390Y-107866086D01*
X73108390Y-107866086D02*
X73060771Y-107913705D01*
X73060771Y-107913705D02*
X72965533Y-107961324D01*
X72965533Y-107961324D02*
X72870295Y-107961324D01*
X72870295Y-107961324D02*
X72775057Y-107913705D01*
X72775057Y-107913705D02*
X72727438Y-107866086D01*
X72727438Y-107866086D02*
X72679819Y-107770848D01*
X72679819Y-107770848D02*
X72679819Y-107532753D01*
X72679819Y-107532753D02*
X72727438Y-107389896D01*
X72679819Y-107104181D02*
X72679819Y-106532753D01*
X73679819Y-106818467D02*
X72679819Y-106818467D01*
X60079819Y-109056562D02*
X61079819Y-108723229D01*
X61079819Y-108723229D02*
X60079819Y-108389896D01*
X61079819Y-108056562D02*
X60079819Y-108056562D01*
X61079819Y-107580372D02*
X60079819Y-107580372D01*
X60079819Y-107580372D02*
X61079819Y-107008944D01*
X61079819Y-107008944D02*
X60079819Y-107008944D01*
X65944104Y-99861324D02*
X65944104Y-99385134D01*
X66229819Y-99956562D02*
X65229819Y-99623229D01*
X65229819Y-99623229D02*
X66229819Y-99289896D01*
X66229819Y-98956562D02*
X65229819Y-98956562D01*
X65229819Y-98956562D02*
X65229819Y-98718467D01*
X65229819Y-98718467D02*
X65277438Y-98575610D01*
X65277438Y-98575610D02*
X65372676Y-98480372D01*
X65372676Y-98480372D02*
X65467914Y-98432753D01*
X65467914Y-98432753D02*
X65658390Y-98385134D01*
X65658390Y-98385134D02*
X65801247Y-98385134D01*
X65801247Y-98385134D02*
X65991723Y-98432753D01*
X65991723Y-98432753D02*
X66086961Y-98480372D01*
X66086961Y-98480372D02*
X66182200Y-98575610D01*
X66182200Y-98575610D02*
X66229819Y-98718467D01*
X66229819Y-98718467D02*
X66229819Y-98956562D01*
X66229819Y-97385134D02*
X65753628Y-97718467D01*
X66229819Y-97956562D02*
X65229819Y-97956562D01*
X65229819Y-97956562D02*
X65229819Y-97575610D01*
X65229819Y-97575610D02*
X65277438Y-97480372D01*
X65277438Y-97480372D02*
X65325057Y-97432753D01*
X65325057Y-97432753D02*
X65420295Y-97385134D01*
X65420295Y-97385134D02*
X65563152Y-97385134D01*
X65563152Y-97385134D02*
X65658390Y-97432753D01*
X65658390Y-97432753D02*
X65706009Y-97480372D01*
X65706009Y-97480372D02*
X65753628Y-97575610D01*
X65753628Y-97575610D02*
X65753628Y-97956562D01*
X62579819Y-109008943D02*
X62579819Y-108389896D01*
X62579819Y-108389896D02*
X62960771Y-108723229D01*
X62960771Y-108723229D02*
X62960771Y-108580372D01*
X62960771Y-108580372D02*
X63008390Y-108485134D01*
X63008390Y-108485134D02*
X63056009Y-108437515D01*
X63056009Y-108437515D02*
X63151247Y-108389896D01*
X63151247Y-108389896D02*
X63389342Y-108389896D01*
X63389342Y-108389896D02*
X63484580Y-108437515D01*
X63484580Y-108437515D02*
X63532200Y-108485134D01*
X63532200Y-108485134D02*
X63579819Y-108580372D01*
X63579819Y-108580372D02*
X63579819Y-108866086D01*
X63579819Y-108866086D02*
X63532200Y-108961324D01*
X63532200Y-108961324D02*
X63484580Y-109008943D01*
X62579819Y-108104181D02*
X63579819Y-107770848D01*
X63579819Y-107770848D02*
X62579819Y-107437515D01*
X68779819Y-99863705D02*
X67779819Y-99863705D01*
X67779819Y-99863705D02*
X67779819Y-99482753D01*
X67779819Y-99482753D02*
X67827438Y-99387515D01*
X67827438Y-99387515D02*
X67875057Y-99339896D01*
X67875057Y-99339896D02*
X67970295Y-99292277D01*
X67970295Y-99292277D02*
X68113152Y-99292277D01*
X68113152Y-99292277D02*
X68208390Y-99339896D01*
X68208390Y-99339896D02*
X68256009Y-99387515D01*
X68256009Y-99387515D02*
X68303628Y-99482753D01*
X68303628Y-99482753D02*
X68303628Y-99863705D01*
X68732200Y-98911324D02*
X68779819Y-98768467D01*
X68779819Y-98768467D02*
X68779819Y-98530372D01*
X68779819Y-98530372D02*
X68732200Y-98435134D01*
X68732200Y-98435134D02*
X68684580Y-98387515D01*
X68684580Y-98387515D02*
X68589342Y-98339896D01*
X68589342Y-98339896D02*
X68494104Y-98339896D01*
X68494104Y-98339896D02*
X68398866Y-98387515D01*
X68398866Y-98387515D02*
X68351247Y-98435134D01*
X68351247Y-98435134D02*
X68303628Y-98530372D01*
X68303628Y-98530372D02*
X68256009Y-98720848D01*
X68256009Y-98720848D02*
X68208390Y-98816086D01*
X68208390Y-98816086D02*
X68160771Y-98863705D01*
X68160771Y-98863705D02*
X68065533Y-98911324D01*
X68065533Y-98911324D02*
X67970295Y-98911324D01*
X67970295Y-98911324D02*
X67875057Y-98863705D01*
X67875057Y-98863705D02*
X67827438Y-98816086D01*
X67827438Y-98816086D02*
X67779819Y-98720848D01*
X67779819Y-98720848D02*
X67779819Y-98482753D01*
X67779819Y-98482753D02*
X67827438Y-98339896D01*
X67779819Y-97720848D02*
X67779819Y-97625610D01*
X67779819Y-97625610D02*
X67827438Y-97530372D01*
X67827438Y-97530372D02*
X67875057Y-97482753D01*
X67875057Y-97482753D02*
X67970295Y-97435134D01*
X67970295Y-97435134D02*
X68160771Y-97387515D01*
X68160771Y-97387515D02*
X68398866Y-97387515D01*
X68398866Y-97387515D02*
X68589342Y-97435134D01*
X68589342Y-97435134D02*
X68684580Y-97482753D01*
X68684580Y-97482753D02*
X68732200Y-97530372D01*
X68732200Y-97530372D02*
X68779819Y-97625610D01*
X68779819Y-97625610D02*
X68779819Y-97720848D01*
X68779819Y-97720848D02*
X68732200Y-97816086D01*
X68732200Y-97816086D02*
X68684580Y-97863705D01*
X68684580Y-97863705D02*
X68589342Y-97911324D01*
X68589342Y-97911324D02*
X68398866Y-97958943D01*
X68398866Y-97958943D02*
X68160771Y-97958943D01*
X68160771Y-97958943D02*
X67970295Y-97911324D01*
X67970295Y-97911324D02*
X67875057Y-97863705D01*
X67875057Y-97863705D02*
X67827438Y-97816086D01*
X67827438Y-97816086D02*
X67779819Y-97720848D01*
X65077438Y-108489896D02*
X65029819Y-108585134D01*
X65029819Y-108585134D02*
X65029819Y-108727991D01*
X65029819Y-108727991D02*
X65077438Y-108870848D01*
X65077438Y-108870848D02*
X65172676Y-108966086D01*
X65172676Y-108966086D02*
X65267914Y-109013705D01*
X65267914Y-109013705D02*
X65458390Y-109061324D01*
X65458390Y-109061324D02*
X65601247Y-109061324D01*
X65601247Y-109061324D02*
X65791723Y-109013705D01*
X65791723Y-109013705D02*
X65886961Y-108966086D01*
X65886961Y-108966086D02*
X65982200Y-108870848D01*
X65982200Y-108870848D02*
X66029819Y-108727991D01*
X66029819Y-108727991D02*
X66029819Y-108632753D01*
X66029819Y-108632753D02*
X65982200Y-108489896D01*
X65982200Y-108489896D02*
X65934580Y-108442277D01*
X65934580Y-108442277D02*
X65601247Y-108442277D01*
X65601247Y-108442277D02*
X65601247Y-108632753D01*
X66029819Y-108013705D02*
X65029819Y-108013705D01*
X65029819Y-108013705D02*
X66029819Y-107442277D01*
X66029819Y-107442277D02*
X65029819Y-107442277D01*
X66029819Y-106966086D02*
X65029819Y-106966086D01*
X65029819Y-106966086D02*
X65029819Y-106727991D01*
X65029819Y-106727991D02*
X65077438Y-106585134D01*
X65077438Y-106585134D02*
X65172676Y-106489896D01*
X65172676Y-106489896D02*
X65267914Y-106442277D01*
X65267914Y-106442277D02*
X65458390Y-106394658D01*
X65458390Y-106394658D02*
X65601247Y-106394658D01*
X65601247Y-106394658D02*
X65791723Y-106442277D01*
X65791723Y-106442277D02*
X65886961Y-106489896D01*
X65886961Y-106489896D02*
X65982200Y-106585134D01*
X65982200Y-106585134D02*
X66029819Y-106727991D01*
X66029819Y-106727991D02*
X66029819Y-106966086D01*
X63629819Y-99263705D02*
X62629819Y-99263705D01*
X63629819Y-98787515D02*
X62629819Y-98787515D01*
X62629819Y-98787515D02*
X63629819Y-98216087D01*
X63629819Y-98216087D02*
X62629819Y-98216087D01*
X62629819Y-97882753D02*
X62629819Y-97311325D01*
X63629819Y-97597039D02*
X62629819Y-97597039D01*
X68432200Y-108961324D02*
X68479819Y-108818467D01*
X68479819Y-108818467D02*
X68479819Y-108580372D01*
X68479819Y-108580372D02*
X68432200Y-108485134D01*
X68432200Y-108485134D02*
X68384580Y-108437515D01*
X68384580Y-108437515D02*
X68289342Y-108389896D01*
X68289342Y-108389896D02*
X68194104Y-108389896D01*
X68194104Y-108389896D02*
X68098866Y-108437515D01*
X68098866Y-108437515D02*
X68051247Y-108485134D01*
X68051247Y-108485134D02*
X68003628Y-108580372D01*
X68003628Y-108580372D02*
X67956009Y-108770848D01*
X67956009Y-108770848D02*
X67908390Y-108866086D01*
X67908390Y-108866086D02*
X67860771Y-108913705D01*
X67860771Y-108913705D02*
X67765533Y-108961324D01*
X67765533Y-108961324D02*
X67670295Y-108961324D01*
X67670295Y-108961324D02*
X67575057Y-108913705D01*
X67575057Y-108913705D02*
X67527438Y-108866086D01*
X67527438Y-108866086D02*
X67479819Y-108770848D01*
X67479819Y-108770848D02*
X67479819Y-108532753D01*
X67479819Y-108532753D02*
X67527438Y-108389896D01*
X68384580Y-107389896D02*
X68432200Y-107437515D01*
X68432200Y-107437515D02*
X68479819Y-107580372D01*
X68479819Y-107580372D02*
X68479819Y-107675610D01*
X68479819Y-107675610D02*
X68432200Y-107818467D01*
X68432200Y-107818467D02*
X68336961Y-107913705D01*
X68336961Y-107913705D02*
X68241723Y-107961324D01*
X68241723Y-107961324D02*
X68051247Y-108008943D01*
X68051247Y-108008943D02*
X67908390Y-108008943D01*
X67908390Y-108008943D02*
X67717914Y-107961324D01*
X67717914Y-107961324D02*
X67622676Y-107913705D01*
X67622676Y-107913705D02*
X67527438Y-107818467D01*
X67527438Y-107818467D02*
X67479819Y-107675610D01*
X67479819Y-107675610D02*
X67479819Y-107580372D01*
X67479819Y-107580372D02*
X67527438Y-107437515D01*
X67527438Y-107437515D02*
X67575057Y-107389896D01*
X68479819Y-106485134D02*
X68479819Y-106961324D01*
X68479819Y-106961324D02*
X67479819Y-106961324D01*
X71179819Y-99863705D02*
X70179819Y-99863705D01*
X70179819Y-99863705D02*
X70179819Y-99482753D01*
X70179819Y-99482753D02*
X70227438Y-99387515D01*
X70227438Y-99387515D02*
X70275057Y-99339896D01*
X70275057Y-99339896D02*
X70370295Y-99292277D01*
X70370295Y-99292277D02*
X70513152Y-99292277D01*
X70513152Y-99292277D02*
X70608390Y-99339896D01*
X70608390Y-99339896D02*
X70656009Y-99387515D01*
X70656009Y-99387515D02*
X70703628Y-99482753D01*
X70703628Y-99482753D02*
X70703628Y-99863705D01*
X71132200Y-98911324D02*
X71179819Y-98768467D01*
X71179819Y-98768467D02*
X71179819Y-98530372D01*
X71179819Y-98530372D02*
X71132200Y-98435134D01*
X71132200Y-98435134D02*
X71084580Y-98387515D01*
X71084580Y-98387515D02*
X70989342Y-98339896D01*
X70989342Y-98339896D02*
X70894104Y-98339896D01*
X70894104Y-98339896D02*
X70798866Y-98387515D01*
X70798866Y-98387515D02*
X70751247Y-98435134D01*
X70751247Y-98435134D02*
X70703628Y-98530372D01*
X70703628Y-98530372D02*
X70656009Y-98720848D01*
X70656009Y-98720848D02*
X70608390Y-98816086D01*
X70608390Y-98816086D02*
X70560771Y-98863705D01*
X70560771Y-98863705D02*
X70465533Y-98911324D01*
X70465533Y-98911324D02*
X70370295Y-98911324D01*
X70370295Y-98911324D02*
X70275057Y-98863705D01*
X70275057Y-98863705D02*
X70227438Y-98816086D01*
X70227438Y-98816086D02*
X70179819Y-98720848D01*
X70179819Y-98720848D02*
X70179819Y-98482753D01*
X70179819Y-98482753D02*
X70227438Y-98339896D01*
X71179819Y-97387515D02*
X71179819Y-97958943D01*
X71179819Y-97673229D02*
X70179819Y-97673229D01*
X70179819Y-97673229D02*
X70322676Y-97768467D01*
X70322676Y-97768467D02*
X70417914Y-97863705D01*
X70417914Y-97863705D02*
X70465533Y-97958943D01*
X71032200Y-108961324D02*
X71079819Y-108818467D01*
X71079819Y-108818467D02*
X71079819Y-108580372D01*
X71079819Y-108580372D02*
X71032200Y-108485134D01*
X71032200Y-108485134D02*
X70984580Y-108437515D01*
X70984580Y-108437515D02*
X70889342Y-108389896D01*
X70889342Y-108389896D02*
X70794104Y-108389896D01*
X70794104Y-108389896D02*
X70698866Y-108437515D01*
X70698866Y-108437515D02*
X70651247Y-108485134D01*
X70651247Y-108485134D02*
X70603628Y-108580372D01*
X70603628Y-108580372D02*
X70556009Y-108770848D01*
X70556009Y-108770848D02*
X70508390Y-108866086D01*
X70508390Y-108866086D02*
X70460771Y-108913705D01*
X70460771Y-108913705D02*
X70365533Y-108961324D01*
X70365533Y-108961324D02*
X70270295Y-108961324D01*
X70270295Y-108961324D02*
X70175057Y-108913705D01*
X70175057Y-108913705D02*
X70127438Y-108866086D01*
X70127438Y-108866086D02*
X70079819Y-108770848D01*
X70079819Y-108770848D02*
X70079819Y-108532753D01*
X70079819Y-108532753D02*
X70127438Y-108389896D01*
X71079819Y-107961324D02*
X70079819Y-107961324D01*
X70079819Y-107961324D02*
X70079819Y-107723229D01*
X70079819Y-107723229D02*
X70127438Y-107580372D01*
X70127438Y-107580372D02*
X70222676Y-107485134D01*
X70222676Y-107485134D02*
X70317914Y-107437515D01*
X70317914Y-107437515D02*
X70508390Y-107389896D01*
X70508390Y-107389896D02*
X70651247Y-107389896D01*
X70651247Y-107389896D02*
X70841723Y-107437515D01*
X70841723Y-107437515D02*
X70936961Y-107485134D01*
X70936961Y-107485134D02*
X71032200Y-107580372D01*
X71032200Y-107580372D02*
X71079819Y-107723229D01*
X71079819Y-107723229D02*
X71079819Y-107961324D01*
X70794104Y-107008943D02*
X70794104Y-106532753D01*
X71079819Y-107104181D02*
X70079819Y-106770848D01*
X70079819Y-106770848D02*
X71079819Y-106437515D01*
X104353333Y-89960593D02*
X104020000Y-89484402D01*
X103781905Y-89960593D02*
X103781905Y-88960593D01*
X103781905Y-88960593D02*
X104162857Y-88960593D01*
X104162857Y-88960593D02*
X104258095Y-89008212D01*
X104258095Y-89008212D02*
X104305714Y-89055831D01*
X104305714Y-89055831D02*
X104353333Y-89151069D01*
X104353333Y-89151069D02*
X104353333Y-89293926D01*
X104353333Y-89293926D02*
X104305714Y-89389164D01*
X104305714Y-89389164D02*
X104258095Y-89436783D01*
X104258095Y-89436783D02*
X104162857Y-89484402D01*
X104162857Y-89484402D02*
X103781905Y-89484402D01*
X105210476Y-88960593D02*
X105020000Y-88960593D01*
X105020000Y-88960593D02*
X104924762Y-89008212D01*
X104924762Y-89008212D02*
X104877143Y-89055831D01*
X104877143Y-89055831D02*
X104781905Y-89198688D01*
X104781905Y-89198688D02*
X104734286Y-89389164D01*
X104734286Y-89389164D02*
X104734286Y-89770116D01*
X104734286Y-89770116D02*
X104781905Y-89865354D01*
X104781905Y-89865354D02*
X104829524Y-89912974D01*
X104829524Y-89912974D02*
X104924762Y-89960593D01*
X104924762Y-89960593D02*
X105115238Y-89960593D01*
X105115238Y-89960593D02*
X105210476Y-89912974D01*
X105210476Y-89912974D02*
X105258095Y-89865354D01*
X105258095Y-89865354D02*
X105305714Y-89770116D01*
X105305714Y-89770116D02*
X105305714Y-89532021D01*
X105305714Y-89532021D02*
X105258095Y-89436783D01*
X105258095Y-89436783D02*
X105210476Y-89389164D01*
X105210476Y-89389164D02*
X105115238Y-89341545D01*
X105115238Y-89341545D02*
X104924762Y-89341545D01*
X104924762Y-89341545D02*
X104829524Y-89389164D01*
X104829524Y-89389164D02*
X104781905Y-89436783D01*
X104781905Y-89436783D02*
X104734286Y-89532021D01*
X102393939Y-110665835D02*
X102393939Y-110475359D01*
X102393939Y-110475359D02*
X102346320Y-110380121D01*
X102346320Y-110380121D02*
X102298701Y-110332502D01*
X102298701Y-110332502D02*
X102155844Y-110237264D01*
X102155844Y-110237264D02*
X101965368Y-110189645D01*
X101965368Y-110189645D02*
X101584416Y-110189645D01*
X101584416Y-110189645D02*
X101489178Y-110237264D01*
X101489178Y-110237264D02*
X101441559Y-110284883D01*
X101441559Y-110284883D02*
X101393939Y-110380121D01*
X101393939Y-110380121D02*
X101393939Y-110570597D01*
X101393939Y-110570597D02*
X101441559Y-110665835D01*
X101441559Y-110665835D02*
X101489178Y-110713454D01*
X101489178Y-110713454D02*
X101584416Y-110761073D01*
X101584416Y-110761073D02*
X101822511Y-110761073D01*
X101822511Y-110761073D02*
X101917749Y-110713454D01*
X101917749Y-110713454D02*
X101965368Y-110665835D01*
X101965368Y-110665835D02*
X102012987Y-110570597D01*
X102012987Y-110570597D02*
X102012987Y-110380121D01*
X102012987Y-110380121D02*
X101965368Y-110284883D01*
X101965368Y-110284883D02*
X101917749Y-110237264D01*
X101917749Y-110237264D02*
X101822511Y-110189645D01*
X92138701Y-110189645D02*
X92186320Y-110237264D01*
X92186320Y-110237264D02*
X92233939Y-110332502D01*
X92233939Y-110332502D02*
X92233939Y-110570597D01*
X92233939Y-110570597D02*
X92186320Y-110665835D01*
X92186320Y-110665835D02*
X92138701Y-110713454D01*
X92138701Y-110713454D02*
X92043463Y-110761073D01*
X92043463Y-110761073D02*
X91948225Y-110761073D01*
X91948225Y-110761073D02*
X91805368Y-110713454D01*
X91805368Y-110713454D02*
X91233939Y-110142026D01*
X91233939Y-110142026D02*
X91233939Y-110761073D01*
X107593939Y-96192026D02*
X107593939Y-96811073D01*
X107593939Y-96811073D02*
X107212987Y-96477740D01*
X107212987Y-96477740D02*
X107212987Y-96620597D01*
X107212987Y-96620597D02*
X107165368Y-96715835D01*
X107165368Y-96715835D02*
X107117749Y-96763454D01*
X107117749Y-96763454D02*
X107022511Y-96811073D01*
X107022511Y-96811073D02*
X106784416Y-96811073D01*
X106784416Y-96811073D02*
X106689178Y-96763454D01*
X106689178Y-96763454D02*
X106641559Y-96715835D01*
X106641559Y-96715835D02*
X106593939Y-96620597D01*
X106593939Y-96620597D02*
X106593939Y-96334883D01*
X106593939Y-96334883D02*
X106641559Y-96239645D01*
X106641559Y-96239645D02*
X106689178Y-96192026D01*
X106689178Y-97239645D02*
X106641559Y-97287264D01*
X106641559Y-97287264D02*
X106593939Y-97239645D01*
X106593939Y-97239645D02*
X106641559Y-97192026D01*
X106641559Y-97192026D02*
X106689178Y-97239645D01*
X106689178Y-97239645D02*
X106593939Y-97239645D01*
X107593939Y-97620597D02*
X107593939Y-98239644D01*
X107593939Y-98239644D02*
X107212987Y-97906311D01*
X107212987Y-97906311D02*
X107212987Y-98049168D01*
X107212987Y-98049168D02*
X107165368Y-98144406D01*
X107165368Y-98144406D02*
X107117749Y-98192025D01*
X107117749Y-98192025D02*
X107022511Y-98239644D01*
X107022511Y-98239644D02*
X106784416Y-98239644D01*
X106784416Y-98239644D02*
X106689178Y-98192025D01*
X106689178Y-98192025D02*
X106641559Y-98144406D01*
X106641559Y-98144406D02*
X106593939Y-98049168D01*
X106593939Y-98049168D02*
X106593939Y-97763454D01*
X106593939Y-97763454D02*
X106641559Y-97668216D01*
X106641559Y-97668216D02*
X106689178Y-97620597D01*
X107593939Y-98525359D02*
X106593939Y-98858692D01*
X106593939Y-98858692D02*
X107593939Y-99192025D01*
X101641559Y-96133645D02*
X101593939Y-96276502D01*
X101593939Y-96276502D02*
X101593939Y-96514597D01*
X101593939Y-96514597D02*
X101641559Y-96609835D01*
X101641559Y-96609835D02*
X101689178Y-96657454D01*
X101689178Y-96657454D02*
X101784416Y-96705073D01*
X101784416Y-96705073D02*
X101879654Y-96705073D01*
X101879654Y-96705073D02*
X101974892Y-96657454D01*
X101974892Y-96657454D02*
X102022511Y-96609835D01*
X102022511Y-96609835D02*
X102070130Y-96514597D01*
X102070130Y-96514597D02*
X102117749Y-96324121D01*
X102117749Y-96324121D02*
X102165368Y-96228883D01*
X102165368Y-96228883D02*
X102212987Y-96181264D01*
X102212987Y-96181264D02*
X102308225Y-96133645D01*
X102308225Y-96133645D02*
X102403463Y-96133645D01*
X102403463Y-96133645D02*
X102498701Y-96181264D01*
X102498701Y-96181264D02*
X102546320Y-96228883D01*
X102546320Y-96228883D02*
X102593939Y-96324121D01*
X102593939Y-96324121D02*
X102593939Y-96562216D01*
X102593939Y-96562216D02*
X102546320Y-96705073D01*
X101689178Y-97705073D02*
X101641559Y-97657454D01*
X101641559Y-97657454D02*
X101593939Y-97514597D01*
X101593939Y-97514597D02*
X101593939Y-97419359D01*
X101593939Y-97419359D02*
X101641559Y-97276502D01*
X101641559Y-97276502D02*
X101736797Y-97181264D01*
X101736797Y-97181264D02*
X101832035Y-97133645D01*
X101832035Y-97133645D02*
X102022511Y-97086026D01*
X102022511Y-97086026D02*
X102165368Y-97086026D01*
X102165368Y-97086026D02*
X102355844Y-97133645D01*
X102355844Y-97133645D02*
X102451082Y-97181264D01*
X102451082Y-97181264D02*
X102546320Y-97276502D01*
X102546320Y-97276502D02*
X102593939Y-97419359D01*
X102593939Y-97419359D02*
X102593939Y-97514597D01*
X102593939Y-97514597D02*
X102546320Y-97657454D01*
X102546320Y-97657454D02*
X102498701Y-97705073D01*
X101593939Y-98609835D02*
X101593939Y-98133645D01*
X101593939Y-98133645D02*
X102593939Y-98133645D01*
X103993939Y-96287264D02*
X104993939Y-96287264D01*
X103993939Y-97334882D02*
X104470130Y-97001549D01*
X103993939Y-96763454D02*
X104993939Y-96763454D01*
X104993939Y-96763454D02*
X104993939Y-97144406D01*
X104993939Y-97144406D02*
X104946320Y-97239644D01*
X104946320Y-97239644D02*
X104898701Y-97287263D01*
X104898701Y-97287263D02*
X104803463Y-97334882D01*
X104803463Y-97334882D02*
X104660606Y-97334882D01*
X104660606Y-97334882D02*
X104565368Y-97287263D01*
X104565368Y-97287263D02*
X104517749Y-97239644D01*
X104517749Y-97239644D02*
X104470130Y-97144406D01*
X104470130Y-97144406D02*
X104470130Y-96763454D01*
X103898701Y-98430120D02*
X103946320Y-98334882D01*
X103946320Y-98334882D02*
X104041559Y-98239644D01*
X104041559Y-98239644D02*
X104184416Y-98096787D01*
X104184416Y-98096787D02*
X104232035Y-98001549D01*
X104232035Y-98001549D02*
X104232035Y-97906311D01*
X103993939Y-97953930D02*
X104041559Y-97858692D01*
X104041559Y-97858692D02*
X104136797Y-97763454D01*
X104136797Y-97763454D02*
X104327273Y-97715835D01*
X104327273Y-97715835D02*
X104660606Y-97715835D01*
X104660606Y-97715835D02*
X104851082Y-97763454D01*
X104851082Y-97763454D02*
X104946320Y-97858692D01*
X104946320Y-97858692D02*
X104993939Y-97953930D01*
X104993939Y-97953930D02*
X104993939Y-98144406D01*
X104993939Y-98144406D02*
X104946320Y-98239644D01*
X104946320Y-98239644D02*
X104851082Y-98334882D01*
X104851082Y-98334882D02*
X104660606Y-98382501D01*
X104660606Y-98382501D02*
X104327273Y-98382501D01*
X104327273Y-98382501D02*
X104136797Y-98334882D01*
X104136797Y-98334882D02*
X104041559Y-98239644D01*
X104041559Y-98239644D02*
X103993939Y-98144406D01*
X103993939Y-98144406D02*
X103993939Y-97953930D01*
X94846320Y-96811073D02*
X94893939Y-96715835D01*
X94893939Y-96715835D02*
X94893939Y-96572978D01*
X94893939Y-96572978D02*
X94846320Y-96430121D01*
X94846320Y-96430121D02*
X94751082Y-96334883D01*
X94751082Y-96334883D02*
X94655844Y-96287264D01*
X94655844Y-96287264D02*
X94465368Y-96239645D01*
X94465368Y-96239645D02*
X94322511Y-96239645D01*
X94322511Y-96239645D02*
X94132035Y-96287264D01*
X94132035Y-96287264D02*
X94036797Y-96334883D01*
X94036797Y-96334883D02*
X93941559Y-96430121D01*
X93941559Y-96430121D02*
X93893939Y-96572978D01*
X93893939Y-96572978D02*
X93893939Y-96668216D01*
X93893939Y-96668216D02*
X93941559Y-96811073D01*
X93941559Y-96811073D02*
X93989178Y-96858692D01*
X93989178Y-96858692D02*
X94322511Y-96858692D01*
X94322511Y-96858692D02*
X94322511Y-96668216D01*
X93893939Y-97287264D02*
X94893939Y-97287264D01*
X94893939Y-97287264D02*
X93893939Y-97858692D01*
X93893939Y-97858692D02*
X94893939Y-97858692D01*
X93893939Y-98334883D02*
X94893939Y-98334883D01*
X94893939Y-98334883D02*
X94893939Y-98572978D01*
X94893939Y-98572978D02*
X94846320Y-98715835D01*
X94846320Y-98715835D02*
X94751082Y-98811073D01*
X94751082Y-98811073D02*
X94655844Y-98858692D01*
X94655844Y-98858692D02*
X94465368Y-98906311D01*
X94465368Y-98906311D02*
X94322511Y-98906311D01*
X94322511Y-98906311D02*
X94132035Y-98858692D01*
X94132035Y-98858692D02*
X94036797Y-98811073D01*
X94036797Y-98811073D02*
X93941559Y-98715835D01*
X93941559Y-98715835D02*
X93893939Y-98572978D01*
X93893939Y-98572978D02*
X93893939Y-98334883D01*
X88693939Y-110761073D02*
X88693939Y-110189645D01*
X88693939Y-110475359D02*
X89693939Y-110475359D01*
X89693939Y-110475359D02*
X89551082Y-110380121D01*
X89551082Y-110380121D02*
X89455844Y-110284883D01*
X89455844Y-110284883D02*
X89408225Y-110189645D01*
X96779654Y-96239645D02*
X96779654Y-96715835D01*
X96493939Y-96144407D02*
X97493939Y-96477740D01*
X97493939Y-96477740D02*
X96493939Y-96811073D01*
X96493939Y-97144407D02*
X97493939Y-97144407D01*
X97493939Y-97144407D02*
X97493939Y-97382502D01*
X97493939Y-97382502D02*
X97446320Y-97525359D01*
X97446320Y-97525359D02*
X97351082Y-97620597D01*
X97351082Y-97620597D02*
X97255844Y-97668216D01*
X97255844Y-97668216D02*
X97065368Y-97715835D01*
X97065368Y-97715835D02*
X96922511Y-97715835D01*
X96922511Y-97715835D02*
X96732035Y-97668216D01*
X96732035Y-97668216D02*
X96636797Y-97620597D01*
X96636797Y-97620597D02*
X96541559Y-97525359D01*
X96541559Y-97525359D02*
X96493939Y-97382502D01*
X96493939Y-97382502D02*
X96493939Y-97144407D01*
X96493939Y-98144407D02*
X97493939Y-98144407D01*
X97493939Y-98144407D02*
X97493939Y-98382502D01*
X97493939Y-98382502D02*
X97446320Y-98525359D01*
X97446320Y-98525359D02*
X97351082Y-98620597D01*
X97351082Y-98620597D02*
X97255844Y-98668216D01*
X97255844Y-98668216D02*
X97065368Y-98715835D01*
X97065368Y-98715835D02*
X96922511Y-98715835D01*
X96922511Y-98715835D02*
X96732035Y-98668216D01*
X96732035Y-98668216D02*
X96636797Y-98620597D01*
X96636797Y-98620597D02*
X96541559Y-98525359D01*
X96541559Y-98525359D02*
X96493939Y-98382502D01*
X96493939Y-98382502D02*
X96493939Y-98144407D01*
X99853939Y-110713454D02*
X99853939Y-110237264D01*
X99853939Y-110237264D02*
X99377749Y-110189645D01*
X99377749Y-110189645D02*
X99425368Y-110237264D01*
X99425368Y-110237264D02*
X99472987Y-110332502D01*
X99472987Y-110332502D02*
X99472987Y-110570597D01*
X99472987Y-110570597D02*
X99425368Y-110665835D01*
X99425368Y-110665835D02*
X99377749Y-110713454D01*
X99377749Y-110713454D02*
X99282511Y-110761073D01*
X99282511Y-110761073D02*
X99044416Y-110761073D01*
X99044416Y-110761073D02*
X98949178Y-110713454D01*
X98949178Y-110713454D02*
X98901559Y-110665835D01*
X98901559Y-110665835D02*
X98853939Y-110570597D01*
X98853939Y-110570597D02*
X98853939Y-110332502D01*
X98853939Y-110332502D02*
X98901559Y-110237264D01*
X98901559Y-110237264D02*
X98949178Y-110189645D01*
X96980606Y-110665835D02*
X96313939Y-110665835D01*
X97361559Y-110427740D02*
X96647273Y-110189645D01*
X96647273Y-110189645D02*
X96647273Y-110808692D01*
X109013939Y-110284883D02*
X109013939Y-110475359D01*
X109013939Y-110475359D02*
X109061559Y-110570597D01*
X109061559Y-110570597D02*
X109109178Y-110618216D01*
X109109178Y-110618216D02*
X109252035Y-110713454D01*
X109252035Y-110713454D02*
X109442511Y-110761073D01*
X109442511Y-110761073D02*
X109823463Y-110761073D01*
X109823463Y-110761073D02*
X109918701Y-110713454D01*
X109918701Y-110713454D02*
X109966320Y-110665835D01*
X109966320Y-110665835D02*
X110013939Y-110570597D01*
X110013939Y-110570597D02*
X110013939Y-110380121D01*
X110013939Y-110380121D02*
X109966320Y-110284883D01*
X109966320Y-110284883D02*
X109918701Y-110237264D01*
X109918701Y-110237264D02*
X109823463Y-110189645D01*
X109823463Y-110189645D02*
X109585368Y-110189645D01*
X109585368Y-110189645D02*
X109490130Y-110237264D01*
X109490130Y-110237264D02*
X109442511Y-110284883D01*
X109442511Y-110284883D02*
X109394892Y-110380121D01*
X109394892Y-110380121D02*
X109394892Y-110570597D01*
X109394892Y-110570597D02*
X109442511Y-110665835D01*
X109442511Y-110665835D02*
X109490130Y-110713454D01*
X109490130Y-110713454D02*
X109585368Y-110761073D01*
X104933939Y-110142026D02*
X104933939Y-110808692D01*
X104933939Y-110808692D02*
X103933939Y-110380121D01*
X99141559Y-96139645D02*
X99093939Y-96282502D01*
X99093939Y-96282502D02*
X99093939Y-96520597D01*
X99093939Y-96520597D02*
X99141559Y-96615835D01*
X99141559Y-96615835D02*
X99189178Y-96663454D01*
X99189178Y-96663454D02*
X99284416Y-96711073D01*
X99284416Y-96711073D02*
X99379654Y-96711073D01*
X99379654Y-96711073D02*
X99474892Y-96663454D01*
X99474892Y-96663454D02*
X99522511Y-96615835D01*
X99522511Y-96615835D02*
X99570130Y-96520597D01*
X99570130Y-96520597D02*
X99617749Y-96330121D01*
X99617749Y-96330121D02*
X99665368Y-96234883D01*
X99665368Y-96234883D02*
X99712987Y-96187264D01*
X99712987Y-96187264D02*
X99808225Y-96139645D01*
X99808225Y-96139645D02*
X99903463Y-96139645D01*
X99903463Y-96139645D02*
X99998701Y-96187264D01*
X99998701Y-96187264D02*
X100046320Y-96234883D01*
X100046320Y-96234883D02*
X100093939Y-96330121D01*
X100093939Y-96330121D02*
X100093939Y-96568216D01*
X100093939Y-96568216D02*
X100046320Y-96711073D01*
X99093939Y-97139645D02*
X100093939Y-97139645D01*
X100093939Y-97139645D02*
X100093939Y-97377740D01*
X100093939Y-97377740D02*
X100046320Y-97520597D01*
X100046320Y-97520597D02*
X99951082Y-97615835D01*
X99951082Y-97615835D02*
X99855844Y-97663454D01*
X99855844Y-97663454D02*
X99665368Y-97711073D01*
X99665368Y-97711073D02*
X99522511Y-97711073D01*
X99522511Y-97711073D02*
X99332035Y-97663454D01*
X99332035Y-97663454D02*
X99236797Y-97615835D01*
X99236797Y-97615835D02*
X99141559Y-97520597D01*
X99141559Y-97520597D02*
X99093939Y-97377740D01*
X99093939Y-97377740D02*
X99093939Y-97139645D01*
X99379654Y-98092026D02*
X99379654Y-98568216D01*
X99093939Y-97996788D02*
X100093939Y-98330121D01*
X100093939Y-98330121D02*
X99093939Y-98663454D01*
X94773939Y-110142026D02*
X94773939Y-110761073D01*
X94773939Y-110761073D02*
X94392987Y-110427740D01*
X94392987Y-110427740D02*
X94392987Y-110570597D01*
X94392987Y-110570597D02*
X94345368Y-110665835D01*
X94345368Y-110665835D02*
X94297749Y-110713454D01*
X94297749Y-110713454D02*
X94202511Y-110761073D01*
X94202511Y-110761073D02*
X93964416Y-110761073D01*
X93964416Y-110761073D02*
X93869178Y-110713454D01*
X93869178Y-110713454D02*
X93821559Y-110665835D01*
X93821559Y-110665835D02*
X93773939Y-110570597D01*
X93773939Y-110570597D02*
X93773939Y-110284883D01*
X93773939Y-110284883D02*
X93821559Y-110189645D01*
X93821559Y-110189645D02*
X93869178Y-110142026D01*
X111553939Y-109811073D02*
X111553939Y-109239645D01*
X111553939Y-109525359D02*
X112553939Y-109525359D01*
X112553939Y-109525359D02*
X112411082Y-109430121D01*
X112411082Y-109430121D02*
X112315844Y-109334883D01*
X112315844Y-109334883D02*
X112268225Y-109239645D01*
X112553939Y-110430121D02*
X112553939Y-110525359D01*
X112553939Y-110525359D02*
X112506320Y-110620597D01*
X112506320Y-110620597D02*
X112458701Y-110668216D01*
X112458701Y-110668216D02*
X112363463Y-110715835D01*
X112363463Y-110715835D02*
X112172987Y-110763454D01*
X112172987Y-110763454D02*
X111934892Y-110763454D01*
X111934892Y-110763454D02*
X111744416Y-110715835D01*
X111744416Y-110715835D02*
X111649178Y-110668216D01*
X111649178Y-110668216D02*
X111601559Y-110620597D01*
X111601559Y-110620597D02*
X111553939Y-110525359D01*
X111553939Y-110525359D02*
X111553939Y-110430121D01*
X111553939Y-110430121D02*
X111601559Y-110334883D01*
X111601559Y-110334883D02*
X111649178Y-110287264D01*
X111649178Y-110287264D02*
X111744416Y-110239645D01*
X111744416Y-110239645D02*
X111934892Y-110192026D01*
X111934892Y-110192026D02*
X112172987Y-110192026D01*
X112172987Y-110192026D02*
X112363463Y-110239645D01*
X112363463Y-110239645D02*
X112458701Y-110287264D01*
X112458701Y-110287264D02*
X112506320Y-110334883D01*
X112506320Y-110334883D02*
X112553939Y-110430121D01*
X87205939Y-110427740D02*
X87205939Y-110522978D01*
X87205939Y-110522978D02*
X87158320Y-110618216D01*
X87158320Y-110618216D02*
X87110701Y-110665835D01*
X87110701Y-110665835D02*
X87015463Y-110713454D01*
X87015463Y-110713454D02*
X86824987Y-110761073D01*
X86824987Y-110761073D02*
X86586892Y-110761073D01*
X86586892Y-110761073D02*
X86396416Y-110713454D01*
X86396416Y-110713454D02*
X86301178Y-110665835D01*
X86301178Y-110665835D02*
X86253559Y-110618216D01*
X86253559Y-110618216D02*
X86205939Y-110522978D01*
X86205939Y-110522978D02*
X86205939Y-110427740D01*
X86205939Y-110427740D02*
X86253559Y-110332502D01*
X86253559Y-110332502D02*
X86301178Y-110284883D01*
X86301178Y-110284883D02*
X86396416Y-110237264D01*
X86396416Y-110237264D02*
X86586892Y-110189645D01*
X86586892Y-110189645D02*
X86824987Y-110189645D01*
X86824987Y-110189645D02*
X87015463Y-110237264D01*
X87015463Y-110237264D02*
X87110701Y-110284883D01*
X87110701Y-110284883D02*
X87158320Y-110332502D01*
X87158320Y-110332502D02*
X87205939Y-110427740D01*
X107045368Y-110380121D02*
X107092987Y-110284883D01*
X107092987Y-110284883D02*
X107140606Y-110237264D01*
X107140606Y-110237264D02*
X107235844Y-110189645D01*
X107235844Y-110189645D02*
X107283463Y-110189645D01*
X107283463Y-110189645D02*
X107378701Y-110237264D01*
X107378701Y-110237264D02*
X107426320Y-110284883D01*
X107426320Y-110284883D02*
X107473939Y-110380121D01*
X107473939Y-110380121D02*
X107473939Y-110570597D01*
X107473939Y-110570597D02*
X107426320Y-110665835D01*
X107426320Y-110665835D02*
X107378701Y-110713454D01*
X107378701Y-110713454D02*
X107283463Y-110761073D01*
X107283463Y-110761073D02*
X107235844Y-110761073D01*
X107235844Y-110761073D02*
X107140606Y-110713454D01*
X107140606Y-110713454D02*
X107092987Y-110665835D01*
X107092987Y-110665835D02*
X107045368Y-110570597D01*
X107045368Y-110570597D02*
X107045368Y-110380121D01*
X107045368Y-110380121D02*
X106997749Y-110284883D01*
X106997749Y-110284883D02*
X106950130Y-110237264D01*
X106950130Y-110237264D02*
X106854892Y-110189645D01*
X106854892Y-110189645D02*
X106664416Y-110189645D01*
X106664416Y-110189645D02*
X106569178Y-110237264D01*
X106569178Y-110237264D02*
X106521559Y-110284883D01*
X106521559Y-110284883D02*
X106473939Y-110380121D01*
X106473939Y-110380121D02*
X106473939Y-110570597D01*
X106473939Y-110570597D02*
X106521559Y-110665835D01*
X106521559Y-110665835D02*
X106569178Y-110713454D01*
X106569178Y-110713454D02*
X106664416Y-110761073D01*
X106664416Y-110761073D02*
X106854892Y-110761073D01*
X106854892Y-110761073D02*
X106950130Y-110713454D01*
X106950130Y-110713454D02*
X106997749Y-110665835D01*
X106997749Y-110665835D02*
X107045368Y-110570597D01*
X114166939Y-109811073D02*
X114166939Y-109239645D01*
X114166939Y-109525359D02*
X115166939Y-109525359D01*
X115166939Y-109525359D02*
X115024082Y-109430121D01*
X115024082Y-109430121D02*
X114928844Y-109334883D01*
X114928844Y-109334883D02*
X114881225Y-109239645D01*
X114166939Y-110763454D02*
X114166939Y-110192026D01*
X114166939Y-110477740D02*
X115166939Y-110477740D01*
X115166939Y-110477740D02*
X115024082Y-110382502D01*
X115024082Y-110382502D02*
X114928844Y-110287264D01*
X114928844Y-110287264D02*
X114881225Y-110192026D01*
X119353333Y-89954819D02*
X119020000Y-89478628D01*
X118781905Y-89954819D02*
X118781905Y-88954819D01*
X118781905Y-88954819D02*
X119162857Y-88954819D01*
X119162857Y-88954819D02*
X119258095Y-89002438D01*
X119258095Y-89002438D02*
X119305714Y-89050057D01*
X119305714Y-89050057D02*
X119353333Y-89145295D01*
X119353333Y-89145295D02*
X119353333Y-89288152D01*
X119353333Y-89288152D02*
X119305714Y-89383390D01*
X119305714Y-89383390D02*
X119258095Y-89431009D01*
X119258095Y-89431009D02*
X119162857Y-89478628D01*
X119162857Y-89478628D02*
X118781905Y-89478628D01*
X119686667Y-88954819D02*
X120353333Y-88954819D01*
X120353333Y-88954819D02*
X119924762Y-89954819D01*
X119378837Y-43554819D02*
X119045504Y-43078628D01*
X118807409Y-43554819D02*
X118807409Y-42554819D01*
X118807409Y-42554819D02*
X119188361Y-42554819D01*
X119188361Y-42554819D02*
X119283599Y-42602438D01*
X119283599Y-42602438D02*
X119331218Y-42650057D01*
X119331218Y-42650057D02*
X119378837Y-42745295D01*
X119378837Y-42745295D02*
X119378837Y-42888152D01*
X119378837Y-42888152D02*
X119331218Y-42983390D01*
X119331218Y-42983390D02*
X119283599Y-43031009D01*
X119283599Y-43031009D02*
X119188361Y-43078628D01*
X119188361Y-43078628D02*
X118807409Y-43078628D01*
X120283599Y-42554819D02*
X119807409Y-42554819D01*
X119807409Y-42554819D02*
X119759790Y-43031009D01*
X119759790Y-43031009D02*
X119807409Y-42983390D01*
X119807409Y-42983390D02*
X119902647Y-42935771D01*
X119902647Y-42935771D02*
X120140742Y-42935771D01*
X120140742Y-42935771D02*
X120235980Y-42983390D01*
X120235980Y-42983390D02*
X120283599Y-43031009D01*
X120283599Y-43031009D02*
X120331218Y-43126247D01*
X120331218Y-43126247D02*
X120331218Y-43364342D01*
X120331218Y-43364342D02*
X120283599Y-43459580D01*
X120283599Y-43459580D02*
X120235980Y-43507200D01*
X120235980Y-43507200D02*
X120140742Y-43554819D01*
X120140742Y-43554819D02*
X119902647Y-43554819D01*
X119902647Y-43554819D02*
X119807409Y-43507200D01*
X119807409Y-43507200D02*
X119759790Y-43459580D01*
X63349819Y-66074203D02*
X64349819Y-65740870D01*
X64349819Y-65740870D02*
X63349819Y-65407537D01*
X64254580Y-64502775D02*
X64302200Y-64550394D01*
X64302200Y-64550394D02*
X64349819Y-64693251D01*
X64349819Y-64693251D02*
X64349819Y-64788489D01*
X64349819Y-64788489D02*
X64302200Y-64931346D01*
X64302200Y-64931346D02*
X64206961Y-65026584D01*
X64206961Y-65026584D02*
X64111723Y-65074203D01*
X64111723Y-65074203D02*
X63921247Y-65121822D01*
X63921247Y-65121822D02*
X63778390Y-65121822D01*
X63778390Y-65121822D02*
X63587914Y-65074203D01*
X63587914Y-65074203D02*
X63492676Y-65026584D01*
X63492676Y-65026584D02*
X63397438Y-64931346D01*
X63397438Y-64931346D02*
X63349819Y-64788489D01*
X63349819Y-64788489D02*
X63349819Y-64693251D01*
X63349819Y-64693251D02*
X63397438Y-64550394D01*
X63397438Y-64550394D02*
X63445057Y-64502775D01*
X64254580Y-63502775D02*
X64302200Y-63550394D01*
X64302200Y-63550394D02*
X64349819Y-63693251D01*
X64349819Y-63693251D02*
X64349819Y-63788489D01*
X64349819Y-63788489D02*
X64302200Y-63931346D01*
X64302200Y-63931346D02*
X64206961Y-64026584D01*
X64206961Y-64026584D02*
X64111723Y-64074203D01*
X64111723Y-64074203D02*
X63921247Y-64121822D01*
X63921247Y-64121822D02*
X63778390Y-64121822D01*
X63778390Y-64121822D02*
X63587914Y-64074203D01*
X63587914Y-64074203D02*
X63492676Y-64026584D01*
X63492676Y-64026584D02*
X63397438Y-63931346D01*
X63397438Y-63931346D02*
X63349819Y-63788489D01*
X63349819Y-63788489D02*
X63349819Y-63693251D01*
X63349819Y-63693251D02*
X63397438Y-63550394D01*
X63397438Y-63550394D02*
X63445057Y-63502775D01*
X60827438Y-65407537D02*
X60779819Y-65502775D01*
X60779819Y-65502775D02*
X60779819Y-65645632D01*
X60779819Y-65645632D02*
X60827438Y-65788489D01*
X60827438Y-65788489D02*
X60922676Y-65883727D01*
X60922676Y-65883727D02*
X61017914Y-65931346D01*
X61017914Y-65931346D02*
X61208390Y-65978965D01*
X61208390Y-65978965D02*
X61351247Y-65978965D01*
X61351247Y-65978965D02*
X61541723Y-65931346D01*
X61541723Y-65931346D02*
X61636961Y-65883727D01*
X61636961Y-65883727D02*
X61732200Y-65788489D01*
X61732200Y-65788489D02*
X61779819Y-65645632D01*
X61779819Y-65645632D02*
X61779819Y-65550394D01*
X61779819Y-65550394D02*
X61732200Y-65407537D01*
X61732200Y-65407537D02*
X61684580Y-65359918D01*
X61684580Y-65359918D02*
X61351247Y-65359918D01*
X61351247Y-65359918D02*
X61351247Y-65550394D01*
X61779819Y-64931346D02*
X60779819Y-64931346D01*
X60779819Y-64931346D02*
X61779819Y-64359918D01*
X61779819Y-64359918D02*
X60779819Y-64359918D01*
X61779819Y-63883727D02*
X60779819Y-63883727D01*
X60779819Y-63883727D02*
X60779819Y-63645632D01*
X60779819Y-63645632D02*
X60827438Y-63502775D01*
X60827438Y-63502775D02*
X60922676Y-63407537D01*
X60922676Y-63407537D02*
X61017914Y-63359918D01*
X61017914Y-63359918D02*
X61208390Y-63312299D01*
X61208390Y-63312299D02*
X61351247Y-63312299D01*
X61351247Y-63312299D02*
X61541723Y-63359918D01*
X61541723Y-63359918D02*
X61636961Y-63407537D01*
X61636961Y-63407537D02*
X61732200Y-63502775D01*
X61732200Y-63502775D02*
X61779819Y-63645632D01*
X61779819Y-63645632D02*
X61779819Y-63883727D01*
X58249819Y-65740870D02*
X58249819Y-65550394D01*
X58249819Y-65550394D02*
X58297438Y-65455156D01*
X58297438Y-65455156D02*
X58392676Y-65359918D01*
X58392676Y-65359918D02*
X58583152Y-65312299D01*
X58583152Y-65312299D02*
X58916485Y-65312299D01*
X58916485Y-65312299D02*
X59106961Y-65359918D01*
X59106961Y-65359918D02*
X59202200Y-65455156D01*
X59202200Y-65455156D02*
X59249819Y-65550394D01*
X59249819Y-65550394D02*
X59249819Y-65740870D01*
X59249819Y-65740870D02*
X59202200Y-65836108D01*
X59202200Y-65836108D02*
X59106961Y-65931346D01*
X59106961Y-65931346D02*
X58916485Y-65978965D01*
X58916485Y-65978965D02*
X58583152Y-65978965D01*
X58583152Y-65978965D02*
X58392676Y-65931346D01*
X58392676Y-65931346D02*
X58297438Y-65836108D01*
X58297438Y-65836108D02*
X58249819Y-65740870D01*
X58249819Y-64883727D02*
X59059342Y-64883727D01*
X59059342Y-64883727D02*
X59154580Y-64836108D01*
X59154580Y-64836108D02*
X59202200Y-64788489D01*
X59202200Y-64788489D02*
X59249819Y-64693251D01*
X59249819Y-64693251D02*
X59249819Y-64502775D01*
X59249819Y-64502775D02*
X59202200Y-64407537D01*
X59202200Y-64407537D02*
X59154580Y-64359918D01*
X59154580Y-64359918D02*
X59059342Y-64312299D01*
X59059342Y-64312299D02*
X58249819Y-64312299D01*
X58249819Y-63978965D02*
X58249819Y-63407537D01*
X59249819Y-63693251D02*
X58249819Y-63693251D01*
X77400782Y-52911751D02*
X77543639Y-52959370D01*
X77543639Y-52959370D02*
X77591258Y-53006989D01*
X77591258Y-53006989D02*
X77638877Y-53102227D01*
X77638877Y-53102227D02*
X77638877Y-53245084D01*
X77638877Y-53245084D02*
X77591258Y-53340322D01*
X77591258Y-53340322D02*
X77543639Y-53387942D01*
X77543639Y-53387942D02*
X77448401Y-53435561D01*
X77448401Y-53435561D02*
X77067449Y-53435561D01*
X77067449Y-53435561D02*
X77067449Y-52435561D01*
X77067449Y-52435561D02*
X77400782Y-52435561D01*
X77400782Y-52435561D02*
X77496020Y-52483180D01*
X77496020Y-52483180D02*
X77543639Y-52530799D01*
X77543639Y-52530799D02*
X77591258Y-52626037D01*
X77591258Y-52626037D02*
X77591258Y-52721275D01*
X77591258Y-52721275D02*
X77543639Y-52816513D01*
X77543639Y-52816513D02*
X77496020Y-52864132D01*
X77496020Y-52864132D02*
X77400782Y-52911751D01*
X77400782Y-52911751D02*
X77067449Y-52911751D01*
X78591258Y-53435561D02*
X78019830Y-53435561D01*
X78305544Y-53435561D02*
X78305544Y-52435561D01*
X78305544Y-52435561D02*
X78210306Y-52578418D01*
X78210306Y-52578418D02*
X78115068Y-52673656D01*
X78115068Y-52673656D02*
X78019830Y-52721275D01*
X135802200Y-109168535D02*
X135849819Y-109025678D01*
X135849819Y-109025678D02*
X135849819Y-108787583D01*
X135849819Y-108787583D02*
X135802200Y-108692345D01*
X135802200Y-108692345D02*
X135754580Y-108644726D01*
X135754580Y-108644726D02*
X135659342Y-108597107D01*
X135659342Y-108597107D02*
X135564104Y-108597107D01*
X135564104Y-108597107D02*
X135468866Y-108644726D01*
X135468866Y-108644726D02*
X135421247Y-108692345D01*
X135421247Y-108692345D02*
X135373628Y-108787583D01*
X135373628Y-108787583D02*
X135326009Y-108978059D01*
X135326009Y-108978059D02*
X135278390Y-109073297D01*
X135278390Y-109073297D02*
X135230771Y-109120916D01*
X135230771Y-109120916D02*
X135135533Y-109168535D01*
X135135533Y-109168535D02*
X135040295Y-109168535D01*
X135040295Y-109168535D02*
X134945057Y-109120916D01*
X134945057Y-109120916D02*
X134897438Y-109073297D01*
X134897438Y-109073297D02*
X134849819Y-108978059D01*
X134849819Y-108978059D02*
X134849819Y-108739964D01*
X134849819Y-108739964D02*
X134897438Y-108597107D01*
X135849819Y-108168535D02*
X134849819Y-108168535D01*
X134849819Y-108168535D02*
X134849819Y-107930440D01*
X134849819Y-107930440D02*
X134897438Y-107787583D01*
X134897438Y-107787583D02*
X134992676Y-107692345D01*
X134992676Y-107692345D02*
X135087914Y-107644726D01*
X135087914Y-107644726D02*
X135278390Y-107597107D01*
X135278390Y-107597107D02*
X135421247Y-107597107D01*
X135421247Y-107597107D02*
X135611723Y-107644726D01*
X135611723Y-107644726D02*
X135706961Y-107692345D01*
X135706961Y-107692345D02*
X135802200Y-107787583D01*
X135802200Y-107787583D02*
X135849819Y-107930440D01*
X135849819Y-107930440D02*
X135849819Y-108168535D01*
X135564104Y-107216154D02*
X135564104Y-106739964D01*
X135849819Y-107311392D02*
X134849819Y-106978059D01*
X134849819Y-106978059D02*
X135849819Y-106644726D01*
X127259819Y-109293773D02*
X128259819Y-108960440D01*
X128259819Y-108960440D02*
X127259819Y-108627107D01*
X128259819Y-108293773D02*
X127259819Y-108293773D01*
X128259819Y-107817583D02*
X127259819Y-107817583D01*
X127259819Y-107817583D02*
X128259819Y-107246155D01*
X128259819Y-107246155D02*
X127259819Y-107246155D01*
X137427438Y-108627107D02*
X137379819Y-108722345D01*
X137379819Y-108722345D02*
X137379819Y-108865202D01*
X137379819Y-108865202D02*
X137427438Y-109008059D01*
X137427438Y-109008059D02*
X137522676Y-109103297D01*
X137522676Y-109103297D02*
X137617914Y-109150916D01*
X137617914Y-109150916D02*
X137808390Y-109198535D01*
X137808390Y-109198535D02*
X137951247Y-109198535D01*
X137951247Y-109198535D02*
X138141723Y-109150916D01*
X138141723Y-109150916D02*
X138236961Y-109103297D01*
X138236961Y-109103297D02*
X138332200Y-109008059D01*
X138332200Y-109008059D02*
X138379819Y-108865202D01*
X138379819Y-108865202D02*
X138379819Y-108769964D01*
X138379819Y-108769964D02*
X138332200Y-108627107D01*
X138332200Y-108627107D02*
X138284580Y-108579488D01*
X138284580Y-108579488D02*
X137951247Y-108579488D01*
X137951247Y-108579488D02*
X137951247Y-108769964D01*
X138379819Y-108150916D02*
X137379819Y-108150916D01*
X137379819Y-108150916D02*
X137379819Y-107769964D01*
X137379819Y-107769964D02*
X137427438Y-107674726D01*
X137427438Y-107674726D02*
X137475057Y-107627107D01*
X137475057Y-107627107D02*
X137570295Y-107579488D01*
X137570295Y-107579488D02*
X137713152Y-107579488D01*
X137713152Y-107579488D02*
X137808390Y-107627107D01*
X137808390Y-107627107D02*
X137856009Y-107674726D01*
X137856009Y-107674726D02*
X137903628Y-107769964D01*
X137903628Y-107769964D02*
X137903628Y-108150916D01*
X138379819Y-107150916D02*
X137379819Y-107150916D01*
X137379819Y-106484250D02*
X137379819Y-106293774D01*
X137379819Y-106293774D02*
X137427438Y-106198536D01*
X137427438Y-106198536D02*
X137522676Y-106103298D01*
X137522676Y-106103298D02*
X137713152Y-106055679D01*
X137713152Y-106055679D02*
X138046485Y-106055679D01*
X138046485Y-106055679D02*
X138236961Y-106103298D01*
X138236961Y-106103298D02*
X138332200Y-106198536D01*
X138332200Y-106198536D02*
X138379819Y-106293774D01*
X138379819Y-106293774D02*
X138379819Y-106484250D01*
X138379819Y-106484250D02*
X138332200Y-106579488D01*
X138332200Y-106579488D02*
X138236961Y-106674726D01*
X138236961Y-106674726D02*
X138046485Y-106722345D01*
X138046485Y-106722345D02*
X137713152Y-106722345D01*
X137713152Y-106722345D02*
X137522676Y-106674726D01*
X137522676Y-106674726D02*
X137427438Y-106579488D01*
X137427438Y-106579488D02*
X137379819Y-106484250D01*
X138379819Y-105103298D02*
X138379819Y-105674726D01*
X138379819Y-105389012D02*
X137379819Y-105389012D01*
X137379819Y-105389012D02*
X137522676Y-105484250D01*
X137522676Y-105484250D02*
X137617914Y-105579488D01*
X137617914Y-105579488D02*
X137665533Y-105674726D01*
X129837438Y-108597107D02*
X129789819Y-108692345D01*
X129789819Y-108692345D02*
X129789819Y-108835202D01*
X129789819Y-108835202D02*
X129837438Y-108978059D01*
X129837438Y-108978059D02*
X129932676Y-109073297D01*
X129932676Y-109073297D02*
X130027914Y-109120916D01*
X130027914Y-109120916D02*
X130218390Y-109168535D01*
X130218390Y-109168535D02*
X130361247Y-109168535D01*
X130361247Y-109168535D02*
X130551723Y-109120916D01*
X130551723Y-109120916D02*
X130646961Y-109073297D01*
X130646961Y-109073297D02*
X130742200Y-108978059D01*
X130742200Y-108978059D02*
X130789819Y-108835202D01*
X130789819Y-108835202D02*
X130789819Y-108739964D01*
X130789819Y-108739964D02*
X130742200Y-108597107D01*
X130742200Y-108597107D02*
X130694580Y-108549488D01*
X130694580Y-108549488D02*
X130361247Y-108549488D01*
X130361247Y-108549488D02*
X130361247Y-108739964D01*
X130789819Y-108120916D02*
X129789819Y-108120916D01*
X129789819Y-108120916D02*
X130789819Y-107549488D01*
X130789819Y-107549488D02*
X129789819Y-107549488D01*
X130789819Y-107073297D02*
X129789819Y-107073297D01*
X129789819Y-107073297D02*
X129789819Y-106835202D01*
X129789819Y-106835202D02*
X129837438Y-106692345D01*
X129837438Y-106692345D02*
X129932676Y-106597107D01*
X129932676Y-106597107D02*
X130027914Y-106549488D01*
X130027914Y-106549488D02*
X130218390Y-106501869D01*
X130218390Y-106501869D02*
X130361247Y-106501869D01*
X130361247Y-106501869D02*
X130551723Y-106549488D01*
X130551723Y-106549488D02*
X130646961Y-106597107D01*
X130646961Y-106597107D02*
X130742200Y-106692345D01*
X130742200Y-106692345D02*
X130789819Y-106835202D01*
X130789819Y-106835202D02*
X130789819Y-107073297D01*
X133272200Y-109198535D02*
X133319819Y-109055678D01*
X133319819Y-109055678D02*
X133319819Y-108817583D01*
X133319819Y-108817583D02*
X133272200Y-108722345D01*
X133272200Y-108722345D02*
X133224580Y-108674726D01*
X133224580Y-108674726D02*
X133129342Y-108627107D01*
X133129342Y-108627107D02*
X133034104Y-108627107D01*
X133034104Y-108627107D02*
X132938866Y-108674726D01*
X132938866Y-108674726D02*
X132891247Y-108722345D01*
X132891247Y-108722345D02*
X132843628Y-108817583D01*
X132843628Y-108817583D02*
X132796009Y-109008059D01*
X132796009Y-109008059D02*
X132748390Y-109103297D01*
X132748390Y-109103297D02*
X132700771Y-109150916D01*
X132700771Y-109150916D02*
X132605533Y-109198535D01*
X132605533Y-109198535D02*
X132510295Y-109198535D01*
X132510295Y-109198535D02*
X132415057Y-109150916D01*
X132415057Y-109150916D02*
X132367438Y-109103297D01*
X132367438Y-109103297D02*
X132319819Y-109008059D01*
X132319819Y-109008059D02*
X132319819Y-108769964D01*
X132319819Y-108769964D02*
X132367438Y-108627107D01*
X133224580Y-107627107D02*
X133272200Y-107674726D01*
X133272200Y-107674726D02*
X133319819Y-107817583D01*
X133319819Y-107817583D02*
X133319819Y-107912821D01*
X133319819Y-107912821D02*
X133272200Y-108055678D01*
X133272200Y-108055678D02*
X133176961Y-108150916D01*
X133176961Y-108150916D02*
X133081723Y-108198535D01*
X133081723Y-108198535D02*
X132891247Y-108246154D01*
X132891247Y-108246154D02*
X132748390Y-108246154D01*
X132748390Y-108246154D02*
X132557914Y-108198535D01*
X132557914Y-108198535D02*
X132462676Y-108150916D01*
X132462676Y-108150916D02*
X132367438Y-108055678D01*
X132367438Y-108055678D02*
X132319819Y-107912821D01*
X132319819Y-107912821D02*
X132319819Y-107817583D01*
X132319819Y-107817583D02*
X132367438Y-107674726D01*
X132367438Y-107674726D02*
X132415057Y-107627107D01*
X133319819Y-106722345D02*
X133319819Y-107198535D01*
X133319819Y-107198535D02*
X132319819Y-107198535D01*
X139909819Y-109216154D02*
X140909819Y-108549488D01*
X139909819Y-108549488D02*
X140909819Y-109216154D01*
X140862200Y-108216154D02*
X140909819Y-108073297D01*
X140909819Y-108073297D02*
X140909819Y-107835202D01*
X140909819Y-107835202D02*
X140862200Y-107739964D01*
X140862200Y-107739964D02*
X140814580Y-107692345D01*
X140814580Y-107692345D02*
X140719342Y-107644726D01*
X140719342Y-107644726D02*
X140624104Y-107644726D01*
X140624104Y-107644726D02*
X140528866Y-107692345D01*
X140528866Y-107692345D02*
X140481247Y-107739964D01*
X140481247Y-107739964D02*
X140433628Y-107835202D01*
X140433628Y-107835202D02*
X140386009Y-108025678D01*
X140386009Y-108025678D02*
X140338390Y-108120916D01*
X140338390Y-108120916D02*
X140290771Y-108168535D01*
X140290771Y-108168535D02*
X140195533Y-108216154D01*
X140195533Y-108216154D02*
X140100295Y-108216154D01*
X140100295Y-108216154D02*
X140005057Y-108168535D01*
X140005057Y-108168535D02*
X139957438Y-108120916D01*
X139957438Y-108120916D02*
X139909819Y-108025678D01*
X139909819Y-108025678D02*
X139909819Y-107787583D01*
X139909819Y-107787583D02*
X139957438Y-107644726D01*
X140909819Y-107216154D02*
X139909819Y-107216154D01*
X140386009Y-107216154D02*
X140386009Y-106644726D01*
X140909819Y-106644726D02*
X139909819Y-106644726D01*
X139909819Y-106168535D02*
X140719342Y-106168535D01*
X140719342Y-106168535D02*
X140814580Y-106120916D01*
X140814580Y-106120916D02*
X140862200Y-106073297D01*
X140862200Y-106073297D02*
X140909819Y-105978059D01*
X140909819Y-105978059D02*
X140909819Y-105787583D01*
X140909819Y-105787583D02*
X140862200Y-105692345D01*
X140862200Y-105692345D02*
X140814580Y-105644726D01*
X140814580Y-105644726D02*
X140719342Y-105597107D01*
X140719342Y-105597107D02*
X139909819Y-105597107D01*
X139909819Y-105263773D02*
X139909819Y-104692345D01*
X140909819Y-104978059D02*
X139909819Y-104978059D01*
X77685212Y-43270065D02*
X77637593Y-43317685D01*
X77637593Y-43317685D02*
X77494736Y-43365304D01*
X77494736Y-43365304D02*
X77399498Y-43365304D01*
X77399498Y-43365304D02*
X77256641Y-43317685D01*
X77256641Y-43317685D02*
X77161403Y-43222446D01*
X77161403Y-43222446D02*
X77113784Y-43127208D01*
X77113784Y-43127208D02*
X77066165Y-42936732D01*
X77066165Y-42936732D02*
X77066165Y-42793875D01*
X77066165Y-42793875D02*
X77113784Y-42603399D01*
X77113784Y-42603399D02*
X77161403Y-42508161D01*
X77161403Y-42508161D02*
X77256641Y-42412923D01*
X77256641Y-42412923D02*
X77399498Y-42365304D01*
X77399498Y-42365304D02*
X77494736Y-42365304D01*
X77494736Y-42365304D02*
X77637593Y-42412923D01*
X77637593Y-42412923D02*
X77685212Y-42460542D01*
X78066165Y-42460542D02*
X78113784Y-42412923D01*
X78113784Y-42412923D02*
X78209022Y-42365304D01*
X78209022Y-42365304D02*
X78447117Y-42365304D01*
X78447117Y-42365304D02*
X78542355Y-42412923D01*
X78542355Y-42412923D02*
X78589974Y-42460542D01*
X78589974Y-42460542D02*
X78637593Y-42555780D01*
X78637593Y-42555780D02*
X78637593Y-42651018D01*
X78637593Y-42651018D02*
X78589974Y-42793875D01*
X78589974Y-42793875D02*
X78018546Y-43365304D01*
X78018546Y-43365304D02*
X78637593Y-43365304D01*
X77685212Y-89954819D02*
X77351879Y-89478628D01*
X77113784Y-89954819D02*
X77113784Y-88954819D01*
X77113784Y-88954819D02*
X77494736Y-88954819D01*
X77494736Y-88954819D02*
X77589974Y-89002438D01*
X77589974Y-89002438D02*
X77637593Y-89050057D01*
X77637593Y-89050057D02*
X77685212Y-89145295D01*
X77685212Y-89145295D02*
X77685212Y-89288152D01*
X77685212Y-89288152D02*
X77637593Y-89383390D01*
X77637593Y-89383390D02*
X77589974Y-89431009D01*
X77589974Y-89431009D02*
X77494736Y-89478628D01*
X77494736Y-89478628D02*
X77113784Y-89478628D01*
X78066165Y-89050057D02*
X78113784Y-89002438D01*
X78113784Y-89002438D02*
X78209022Y-88954819D01*
X78209022Y-88954819D02*
X78447117Y-88954819D01*
X78447117Y-88954819D02*
X78542355Y-89002438D01*
X78542355Y-89002438D02*
X78589974Y-89050057D01*
X78589974Y-89050057D02*
X78637593Y-89145295D01*
X78637593Y-89145295D02*
X78637593Y-89240533D01*
X78637593Y-89240533D02*
X78589974Y-89383390D01*
X78589974Y-89383390D02*
X78018546Y-89954819D01*
X78018546Y-89954819D02*
X78637593Y-89954819D01*
X119378837Y-37554819D02*
X119045504Y-37078628D01*
X118807409Y-37554819D02*
X118807409Y-36554819D01*
X118807409Y-36554819D02*
X119188361Y-36554819D01*
X119188361Y-36554819D02*
X119283599Y-36602438D01*
X119283599Y-36602438D02*
X119331218Y-36650057D01*
X119331218Y-36650057D02*
X119378837Y-36745295D01*
X119378837Y-36745295D02*
X119378837Y-36888152D01*
X119378837Y-36888152D02*
X119331218Y-36983390D01*
X119331218Y-36983390D02*
X119283599Y-37031009D01*
X119283599Y-37031009D02*
X119188361Y-37078628D01*
X119188361Y-37078628D02*
X118807409Y-37078628D01*
X119712171Y-36554819D02*
X120331218Y-36554819D01*
X120331218Y-36554819D02*
X119997885Y-36935771D01*
X119997885Y-36935771D02*
X120140742Y-36935771D01*
X120140742Y-36935771D02*
X120235980Y-36983390D01*
X120235980Y-36983390D02*
X120283599Y-37031009D01*
X120283599Y-37031009D02*
X120331218Y-37126247D01*
X120331218Y-37126247D02*
X120331218Y-37364342D01*
X120331218Y-37364342D02*
X120283599Y-37459580D01*
X120283599Y-37459580D02*
X120235980Y-37507200D01*
X120235980Y-37507200D02*
X120140742Y-37554819D01*
X120140742Y-37554819D02*
X119855028Y-37554819D01*
X119855028Y-37554819D02*
X119759790Y-37507200D01*
X119759790Y-37507200D02*
X119712171Y-37459580D01*
X77364744Y-65281009D02*
X77507601Y-65328628D01*
X77507601Y-65328628D02*
X77555220Y-65376247D01*
X77555220Y-65376247D02*
X77602839Y-65471485D01*
X77602839Y-65471485D02*
X77602839Y-65614342D01*
X77602839Y-65614342D02*
X77555220Y-65709580D01*
X77555220Y-65709580D02*
X77507601Y-65757200D01*
X77507601Y-65757200D02*
X77412363Y-65804819D01*
X77412363Y-65804819D02*
X77031411Y-65804819D01*
X77031411Y-65804819D02*
X77031411Y-64804819D01*
X77031411Y-64804819D02*
X77364744Y-64804819D01*
X77364744Y-64804819D02*
X77459982Y-64852438D01*
X77459982Y-64852438D02*
X77507601Y-64900057D01*
X77507601Y-64900057D02*
X77555220Y-64995295D01*
X77555220Y-64995295D02*
X77555220Y-65090533D01*
X77555220Y-65090533D02*
X77507601Y-65185771D01*
X77507601Y-65185771D02*
X77459982Y-65233390D01*
X77459982Y-65233390D02*
X77364744Y-65281009D01*
X77364744Y-65281009D02*
X77031411Y-65281009D01*
X77983792Y-64900057D02*
X78031411Y-64852438D01*
X78031411Y-64852438D02*
X78126649Y-64804819D01*
X78126649Y-64804819D02*
X78364744Y-64804819D01*
X78364744Y-64804819D02*
X78459982Y-64852438D01*
X78459982Y-64852438D02*
X78507601Y-64900057D01*
X78507601Y-64900057D02*
X78555220Y-64995295D01*
X78555220Y-64995295D02*
X78555220Y-65090533D01*
X78555220Y-65090533D02*
X78507601Y-65233390D01*
X78507601Y-65233390D02*
X77936173Y-65804819D01*
X77936173Y-65804819D02*
X78555220Y-65804819D01*
X60404761Y-84229819D02*
X60071428Y-83753628D01*
X59833333Y-84229819D02*
X59833333Y-83229819D01*
X59833333Y-83229819D02*
X60214285Y-83229819D01*
X60214285Y-83229819D02*
X60309523Y-83277438D01*
X60309523Y-83277438D02*
X60357142Y-83325057D01*
X60357142Y-83325057D02*
X60404761Y-83420295D01*
X60404761Y-83420295D02*
X60404761Y-83563152D01*
X60404761Y-83563152D02*
X60357142Y-83658390D01*
X60357142Y-83658390D02*
X60309523Y-83706009D01*
X60309523Y-83706009D02*
X60214285Y-83753628D01*
X60214285Y-83753628D02*
X59833333Y-83753628D01*
X60690476Y-83229819D02*
X61023809Y-84229819D01*
X61023809Y-84229819D02*
X61357142Y-83229819D01*
X62214285Y-84229819D02*
X61642857Y-84229819D01*
X61928571Y-84229819D02*
X61928571Y-83229819D01*
X61928571Y-83229819D02*
X61833333Y-83372676D01*
X61833333Y-83372676D02*
X61738095Y-83467914D01*
X61738095Y-83467914D02*
X61642857Y-83515533D01*
D14*
X115505504Y-40100000D02*
X116275504Y-40100000D01*
X116275504Y-38730000D02*
X116275504Y-41470000D01*
X116275504Y-41470000D02*
X122815504Y-41470000D01*
X122815504Y-38730000D02*
X116275504Y-38730000D01*
X122815504Y-41470000D02*
X122815504Y-38730000D01*
X123585504Y-40100000D02*
X122815504Y-40100000D01*
X87503759Y-42240485D02*
X87503759Y-40240485D01*
X87823759Y-37430485D02*
X87823759Y-83150485D01*
D11*
X95203759Y-34740485D02*
X95203759Y-38990485D01*
X95203759Y-38990485D02*
X103703759Y-38990485D01*
X103703759Y-38990485D02*
X103703759Y-34740485D01*
D14*
X108253759Y-34780485D02*
X90473759Y-34780485D01*
X108253759Y-85800485D02*
X90473759Y-85800485D01*
X110903759Y-37430485D02*
X110903759Y-83150485D01*
X87823759Y-37430485D02*
G75*
G02*
X90473759Y-34780485I2650000J0D01*
G01*
X90473759Y-85800485D02*
G75*
G02*
X87823759Y-83150485I0J2650000D01*
G01*
X108253759Y-34780485D02*
G75*
G02*
X110903759Y-37430485I0J-2650000D01*
G01*
X110903759Y-83150485D02*
G75*
G02*
X108253759Y-85800485I-2650000J0D01*
G01*
D11*
X54410000Y-93350485D02*
X79410000Y-93350485D01*
X54410000Y-113350485D02*
X54410000Y-93350485D01*
X79410000Y-93350485D02*
X79410000Y-113350485D01*
X79410000Y-113350485D02*
X54410000Y-113350485D01*
D14*
X100480000Y-89505774D02*
X101250000Y-89505774D01*
X101250000Y-88135774D02*
X101250000Y-90875774D01*
X101250000Y-90875774D02*
X107790000Y-90875774D01*
X107790000Y-88135774D02*
X101250000Y-88135774D01*
X107790000Y-90875774D02*
X107790000Y-88135774D01*
X108560000Y-89505774D02*
X107790000Y-89505774D01*
D11*
X85663759Y-93350485D02*
X115663759Y-93350485D01*
X85663759Y-113350485D02*
X85663759Y-93350485D01*
X115663759Y-93350485D02*
X115663759Y-113350485D01*
X115663759Y-113350485D02*
X85663759Y-113350485D01*
D14*
X79171879Y-79850000D02*
X76521879Y-79850000D01*
X79171879Y-84150000D02*
X76521879Y-84150000D01*
X76521879Y-84150000D02*
G75*
G02*
X76493852Y-79867855I1350000J2150000D01*
G01*
X79171879Y-79850000D02*
G75*
G02*
X79197355Y-84134388I-1300000J-2150000D01*
G01*
X123560000Y-89500000D02*
X122790000Y-89500000D01*
X122790000Y-90870000D02*
X122790000Y-88130000D01*
X122790000Y-88130000D02*
X116250000Y-88130000D01*
X116250000Y-90870000D02*
X122790000Y-90870000D01*
X116250000Y-88130000D02*
X116250000Y-90870000D01*
X115480000Y-89500000D02*
X116250000Y-89500000D01*
X115505504Y-43100000D02*
X116275504Y-43100000D01*
X116275504Y-41730000D02*
X116275504Y-44470000D01*
X116275504Y-44470000D02*
X122815504Y-44470000D01*
X122815504Y-41730000D02*
X116275504Y-41730000D01*
X122815504Y-44470000D02*
X122815504Y-41730000D01*
X123585504Y-43100000D02*
X122815504Y-43100000D01*
X130670000Y-88145000D02*
X132000000Y-88145000D01*
X130670000Y-89475000D02*
X130670000Y-88145000D01*
X133270000Y-88145000D02*
X146030000Y-88145000D01*
X133270000Y-90805000D02*
X133270000Y-88145000D01*
X133270000Y-90805000D02*
X146030000Y-90805000D01*
X146030000Y-90805000D02*
X146030000Y-88145000D01*
X75770879Y-37568932D02*
X75770879Y-36828932D01*
X75810879Y-37735932D02*
X75810879Y-36661932D01*
X75850879Y-37862932D02*
X75850879Y-36534932D01*
X75890879Y-37966932D02*
X75890879Y-36430932D01*
X75930879Y-38057932D02*
X75930879Y-36339932D01*
X75970879Y-38138932D02*
X75970879Y-36258932D01*
X76010879Y-38211932D02*
X76010879Y-36185932D01*
X76050879Y-36358932D02*
X76050879Y-36118932D01*
X76050879Y-38278932D02*
X76050879Y-38038932D01*
X76090879Y-36358932D02*
X76090879Y-36056932D01*
X76090879Y-38340932D02*
X76090879Y-38038932D01*
X76130879Y-36358932D02*
X76130879Y-35998932D01*
X76130879Y-38398932D02*
X76130879Y-38038932D01*
X76170879Y-36358932D02*
X76170879Y-35944932D01*
X76170879Y-38452932D02*
X76170879Y-38038932D01*
X76210879Y-36358932D02*
X76210879Y-35894932D01*
X76210879Y-38502932D02*
X76210879Y-38038932D01*
X76250879Y-36358932D02*
X76250879Y-35847932D01*
X76250879Y-38549932D02*
X76250879Y-38038932D01*
X76290879Y-36358932D02*
X76290879Y-35802932D01*
X76290879Y-38594932D02*
X76290879Y-38038932D01*
X76330879Y-36358932D02*
X76330879Y-35760932D01*
X76330879Y-38636932D02*
X76330879Y-38038932D01*
X76370879Y-36358932D02*
X76370879Y-35720932D01*
X76370879Y-38676932D02*
X76370879Y-38038932D01*
X76410879Y-36358932D02*
X76410879Y-35682932D01*
X76410879Y-38714932D02*
X76410879Y-38038932D01*
X76450879Y-36358932D02*
X76450879Y-35646932D01*
X76450879Y-38750932D02*
X76450879Y-38038932D01*
X76490879Y-36358932D02*
X76490879Y-35611932D01*
X76490879Y-38785932D02*
X76490879Y-38038932D01*
X76530879Y-36358932D02*
X76530879Y-35579932D01*
X76530879Y-38817932D02*
X76530879Y-38038932D01*
X76570879Y-36358932D02*
X76570879Y-35548932D01*
X76570879Y-38848932D02*
X76570879Y-38038932D01*
X76610879Y-36358932D02*
X76610879Y-35518932D01*
X76610879Y-38878932D02*
X76610879Y-38038932D01*
X76650879Y-36358932D02*
X76650879Y-35490932D01*
X76650879Y-38906932D02*
X76650879Y-38038932D01*
X76690879Y-36358932D02*
X76690879Y-35463932D01*
X76690879Y-38933932D02*
X76690879Y-38038932D01*
X76730879Y-36358932D02*
X76730879Y-35438932D01*
X76730879Y-38958932D02*
X76730879Y-38038932D01*
X76770879Y-36358932D02*
X76770879Y-35413932D01*
X76770879Y-38983932D02*
X76770879Y-38038932D01*
X76810879Y-36358932D02*
X76810879Y-35390932D01*
X76810879Y-39006932D02*
X76810879Y-38038932D01*
X76850879Y-36358932D02*
X76850879Y-35368932D01*
X76850879Y-39028932D02*
X76850879Y-38038932D01*
X76890879Y-36358932D02*
X76890879Y-35347932D01*
X76890879Y-39049932D02*
X76890879Y-38038932D01*
X76930879Y-36358932D02*
X76930879Y-35328932D01*
X76930879Y-39068932D02*
X76930879Y-38038932D01*
X76970879Y-36358932D02*
X76970879Y-35309932D01*
X76970879Y-39087932D02*
X76970879Y-38038932D01*
X77010879Y-36358932D02*
X77010879Y-35291932D01*
X77010879Y-39105932D02*
X77010879Y-38038932D01*
X77050879Y-36358932D02*
X77050879Y-35274932D01*
X77050879Y-39122932D02*
X77050879Y-38038932D01*
X77090879Y-36358932D02*
X77090879Y-35258932D01*
X77090879Y-39138932D02*
X77090879Y-38038932D01*
X77130879Y-36358932D02*
X77130879Y-35244932D01*
X77130879Y-39152932D02*
X77130879Y-38038932D01*
X77171879Y-36358932D02*
X77171879Y-35230932D01*
X77171879Y-39166932D02*
X77171879Y-38038932D01*
X77211879Y-36358932D02*
X77211879Y-35216932D01*
X77211879Y-39180932D02*
X77211879Y-38038932D01*
X77251879Y-36358932D02*
X77251879Y-35204932D01*
X77251879Y-39192932D02*
X77251879Y-38038932D01*
X77291879Y-36358932D02*
X77291879Y-35193932D01*
X77291879Y-39203932D02*
X77291879Y-38038932D01*
X77331879Y-36358932D02*
X77331879Y-35182932D01*
X77331879Y-39214932D02*
X77331879Y-38038932D01*
X77371879Y-36358932D02*
X77371879Y-35173932D01*
X77371879Y-39223932D02*
X77371879Y-38038932D01*
X77411879Y-36358932D02*
X77411879Y-35164932D01*
X77411879Y-39232932D02*
X77411879Y-38038932D01*
X77451879Y-36358932D02*
X77451879Y-35156932D01*
X77451879Y-39240932D02*
X77451879Y-38038932D01*
X77491879Y-36358932D02*
X77491879Y-35148932D01*
X77491879Y-39248932D02*
X77491879Y-38038932D01*
X77531879Y-36358932D02*
X77531879Y-35142932D01*
X77531879Y-39254932D02*
X77531879Y-38038932D01*
X77571879Y-36358932D02*
X77571879Y-35136932D01*
X77571879Y-39260932D02*
X77571879Y-38038932D01*
X77611879Y-36358932D02*
X77611879Y-35131932D01*
X77611879Y-39265932D02*
X77611879Y-38038932D01*
X77651879Y-36358932D02*
X77651879Y-35127932D01*
X77651879Y-39269932D02*
X77651879Y-38038932D01*
X77691879Y-39272932D02*
X77691879Y-35124932D01*
X77731879Y-39275932D02*
X77731879Y-35121932D01*
X77771879Y-39277932D02*
X77771879Y-35119932D01*
X77811879Y-39278932D02*
X77811879Y-35118932D01*
X77851879Y-39278932D02*
X77851879Y-35118932D01*
X78511879Y-38518932D02*
X78511879Y-38118932D01*
X78711879Y-38318932D02*
X78311879Y-38318932D01*
X79971879Y-37198932D02*
G75*
G02*
X75731879Y-37198932I-2120000J0D01*
G01*
X75731879Y-37198932D02*
G75*
G02*
X79971879Y-37198932I2120000J0D01*
G01*
D11*
X54410000Y-48275000D02*
X68210000Y-48275000D01*
X68210000Y-69075000D01*
X54410000Y-69075000D01*
X54410000Y-48275000D01*
D14*
X129220000Y-37528985D02*
X128755000Y-37528985D01*
X131845000Y-37528985D02*
X131380000Y-37528985D01*
X129219173Y-42876800D02*
G75*
G02*
X128755170Y-37528985I1080827J2787815D01*
G01*
X129219571Y-42343464D02*
G75*
G02*
X129220000Y-37834301I1080429J2254479D01*
G01*
X131380000Y-37834301D02*
G75*
G02*
X131380429Y-42343464I-1080000J-2254684D01*
G01*
X131844830Y-37528985D02*
G75*
G02*
X131380827Y-42876800I-1544830J-2560000D01*
G01*
X74305544Y-52230742D02*
X74305544Y-53730742D01*
X75555544Y-56230742D02*
X80055544Y-56230742D01*
X80055544Y-49730742D02*
X75555544Y-49730742D01*
X81305544Y-53730742D02*
X81305544Y-52230742D01*
X85380000Y-88145000D02*
X86710000Y-88145000D01*
X85380000Y-89475000D02*
X85380000Y-88145000D01*
X87980000Y-88145000D02*
X90580000Y-88145000D01*
X87980000Y-90805000D02*
X87980000Y-88145000D01*
X87980000Y-90805000D02*
X90580000Y-90805000D01*
X90580000Y-90805000D02*
X90580000Y-88145000D01*
X137240000Y-35680485D02*
X137550000Y-35680485D01*
X137240000Y-44500485D02*
X137240000Y-35680485D01*
X137240000Y-44500485D02*
X137550000Y-44500485D01*
X141450000Y-35680485D02*
X141760000Y-35680485D01*
X141760000Y-35680485D02*
X141760000Y-44500485D01*
X141760000Y-44500485D02*
X141450000Y-44500485D01*
X141960000Y-38090485D02*
X142460000Y-38590485D01*
X142460000Y-37590485D02*
X141960000Y-38090485D01*
X142460000Y-38590485D02*
X142460000Y-37590485D01*
D11*
X121620000Y-106553841D02*
X126121768Y-106553841D01*
X146620000Y-106553841D02*
X142118232Y-106553841D01*
X126620000Y-101203841D02*
X141620000Y-101203841D01*
X141620000Y-111903841D01*
X126620000Y-111903841D01*
X126620000Y-101203841D01*
D14*
X75581879Y-41855485D02*
X75581879Y-41840485D01*
X75581879Y-43980485D02*
X75581879Y-43965485D01*
X80121879Y-41840485D02*
X75581879Y-41840485D01*
X80121879Y-41855485D02*
X80121879Y-41840485D01*
X80121879Y-43980485D02*
X75581879Y-43980485D01*
X80121879Y-43980485D02*
X80121879Y-43965485D01*
X73811879Y-89500000D02*
X74581879Y-89500000D01*
X74581879Y-88130000D02*
X74581879Y-90870000D01*
X74581879Y-90870000D02*
X81121879Y-90870000D01*
X81121879Y-88130000D02*
X74581879Y-88130000D01*
X81121879Y-90870000D02*
X81121879Y-88130000D01*
X81891879Y-89500000D02*
X81121879Y-89500000D01*
X115505504Y-37100000D02*
X116275504Y-37100000D01*
X116275504Y-35730000D02*
X116275504Y-38470000D01*
X116275504Y-38470000D02*
X122815504Y-38470000D01*
X122815504Y-35730000D02*
X116275504Y-35730000D01*
X122815504Y-38470000D02*
X122815504Y-35730000D01*
X123585504Y-37100000D02*
X122815504Y-37100000D01*
X74269506Y-64600000D02*
X74269506Y-66100000D01*
X75519506Y-68600000D02*
X80019506Y-68600000D01*
X80019506Y-62100000D02*
X75519506Y-62100000D01*
X81269506Y-66100000D02*
X81269506Y-64600000D01*
X55530000Y-77030000D02*
X55530000Y-79750000D01*
X55530000Y-84250000D02*
X55530000Y-88620000D01*
X57350000Y-88620000D02*
X55530000Y-88620000D01*
X66470000Y-77030000D02*
X55530000Y-77030000D01*
X66470000Y-77030000D02*
X66470000Y-79750000D01*
X66470000Y-84250000D02*
X66470000Y-88620000D01*
X66470000Y-88620000D02*
X64650000Y-88620000D01*
%LPC*%
D15*
X124625504Y-40100000D03*
D16*
X114465504Y-40100000D03*
D17*
X89503759Y-41240485D03*
D18*
X89503759Y-43780485D03*
X89503759Y-46320485D03*
X89503759Y-48860485D03*
X89503759Y-51400485D03*
X89503759Y-53940485D03*
X89503759Y-56480485D03*
X89503759Y-59020485D03*
X89503759Y-61560485D03*
X89503759Y-64100485D03*
X89503759Y-66640485D03*
X89503759Y-69180485D03*
X89503759Y-71720485D03*
X89503759Y-74260485D03*
X89503759Y-76800485D03*
X89503759Y-79340485D03*
X109223759Y-79340485D03*
X109223759Y-76800485D03*
X109223759Y-74260485D03*
X109223759Y-71720485D03*
X109223759Y-69180485D03*
X109223759Y-66640485D03*
X109223759Y-64100485D03*
X109223759Y-61560485D03*
X109223759Y-59020485D03*
X109223759Y-56480485D03*
X109223759Y-53940485D03*
X109223759Y-51400485D03*
D19*
X61461335Y-122498532D03*
D15*
X65640000Y-110800485D03*
X60560000Y-110800485D03*
X63100000Y-110800485D03*
X70750000Y-95800485D03*
X68210000Y-95800485D03*
X73260000Y-110800485D03*
X63130000Y-95800485D03*
X65670000Y-95800485D03*
X68180000Y-110800485D03*
X70720000Y-110800485D03*
X109600000Y-89505774D03*
D16*
X99440000Y-89505774D03*
X94363759Y-94550485D03*
X96903759Y-94550485D03*
X99443759Y-94550485D03*
X101983759Y-94550485D03*
X104523759Y-94550485D03*
X107063759Y-94550485D03*
X86723759Y-112300485D03*
X89263759Y-112300485D03*
X91803759Y-112300485D03*
X94343759Y-112300485D03*
X96883759Y-112300485D03*
X99423759Y-112300485D03*
X101963759Y-112300485D03*
X104503759Y-112300485D03*
X107043759Y-112300485D03*
X109583759Y-112300485D03*
X112123759Y-112300485D03*
X114663759Y-112300485D03*
D15*
X79121879Y-82000000D03*
X76581879Y-82000000D03*
D19*
X106318435Y-122574832D03*
D16*
X114440000Y-89500000D03*
D15*
X124600000Y-89500000D03*
D20*
X115657580Y-66042387D03*
D19*
X128747035Y-122574832D03*
D15*
X124625504Y-43100000D03*
D16*
X114465504Y-43100000D03*
D19*
X72675635Y-122574832D03*
X117532735Y-122574832D03*
D21*
X132000000Y-89475000D03*
D22*
X134540000Y-89475000D03*
X137080000Y-89475000D03*
X139620000Y-89475000D03*
X142160000Y-89475000D03*
X144700000Y-89475000D03*
D23*
X78851879Y-37198932D03*
D24*
X76851879Y-37198932D03*
D15*
X63850000Y-67559311D03*
X61310000Y-67559311D03*
X58770000Y-67559311D03*
D25*
X130300000Y-36850485D03*
D26*
X130300000Y-39009485D03*
X130300000Y-41168485D03*
X130300000Y-43327485D03*
D27*
X81055544Y-55230742D03*
X74555544Y-55230742D03*
X81055544Y-50730742D03*
X74555544Y-50730742D03*
D20*
X146639735Y-37198932D03*
X54639735Y-37198932D03*
D21*
X86710000Y-89475000D03*
D22*
X89250000Y-89475000D03*
D28*
X139500000Y-35990485D03*
X139500000Y-44190485D03*
D29*
X139500000Y-38090485D03*
D30*
X139500000Y-40090485D03*
X139500000Y-42090485D03*
D20*
X146563358Y-66000000D03*
X146639735Y-129198932D03*
D16*
X127740000Y-110727696D03*
X130280000Y-110727696D03*
X132820000Y-110727696D03*
X135360000Y-110727696D03*
X137900000Y-110727696D03*
X140440000Y-110727696D03*
D20*
X54639735Y-129198932D03*
D15*
X80351879Y-42910485D03*
X75351879Y-42910485D03*
X72771879Y-89500000D03*
D16*
X82931879Y-89500000D03*
D19*
X83889935Y-122574832D03*
D15*
X124625504Y-37100000D03*
D16*
X114465504Y-37100000D03*
D27*
X81019506Y-67600000D03*
X74519506Y-67600000D03*
X81019506Y-63100000D03*
X74519506Y-63100000D03*
D19*
X95104235Y-122574832D03*
D31*
X56250000Y-82000000D03*
X65750000Y-82000000D03*
D25*
X58500000Y-89500000D03*
D26*
X61000000Y-89500000D03*
X63500000Y-89500000D03*
D19*
X139961335Y-122464432D03*
%LPD*%
M02*
