G04 #@! TF.GenerationSoftware,KiCad,Pcbnew,8.0.8*
G04 #@! TF.CreationDate,2025-02-17T18:47:29+01:00*
G04 #@! TF.ProjectId,tesi,74657369-2e6b-4696-9361-645f70636258,rev?*
G04 #@! TF.SameCoordinates,Original*
G04 #@! TF.FileFunction,Legend,Bot*
G04 #@! TF.FilePolarity,Positive*
%FSLAX46Y46*%
G04 Gerber Fmt 4.6, Leading zero omitted, Abs format (unit mm)*
G04 Created by KiCad (PCBNEW 8.0.8) date 2025-02-17 18:47:29*
%MOMM*%
%LPD*%
G01*
G04 APERTURE LIST*
G04 Aperture macros list*
%AMRoundRect*
0 Rectangle with rounded corners*
0 $1 Rounding radius*
0 $2 $3 $4 $5 $6 $7 $8 $9 X,Y pos of 4 corners*
0 Add a 4 corners polygon primitive as box body*
4,1,4,$2,$3,$4,$5,$6,$7,$8,$9,$2,$3,0*
0 Add four circle primitives for the rounded corners*
1,1,$1+$1,$2,$3*
1,1,$1+$1,$4,$5*
1,1,$1+$1,$6,$7*
1,1,$1+$1,$8,$9*
0 Add four rect primitives between the rounded corners*
20,1,$1+$1,$2,$3,$4,$5,0*
20,1,$1+$1,$4,$5,$6,$7,0*
20,1,$1+$1,$6,$7,$8,$9,0*
20,1,$1+$1,$8,$9,$2,$3,0*%
G04 Aperture macros list end*
%ADD10C,1.600000*%
%ADD11O,1.600000X1.600000*%
%ADD12RoundRect,0.250000X-1.050000X-0.550000X1.050000X-0.550000X1.050000X0.550000X-1.050000X0.550000X0*%
%ADD13O,2.600000X1.600000*%
%ADD14C,3.200000*%
%ADD15R,1.700000X1.700000*%
%ADD16O,1.700000X1.700000*%
%ADD17R,1.200000X1.200000*%
%ADD18C,1.200000*%
%ADD19R,1.800000X1.800000*%
%ADD20C,1.800000*%
%ADD21C,2.000000*%
%ADD22O,3.500000X2.200000*%
%ADD23R,2.500000X1.500000*%
%ADD24O,2.500000X1.500000*%
%ADD25O,4.000000X4.000000*%
G04 APERTURE END LIST*
%LPC*%
D10*
X124625504Y-40100000D03*
D11*
X114465504Y-40100000D03*
D12*
X89503759Y-41240485D03*
D13*
X89503759Y-43780485D03*
X89503759Y-46320485D03*
X89503759Y-48860485D03*
X89503759Y-51400485D03*
X89503759Y-53940485D03*
X89503759Y-56480485D03*
X89503759Y-59020485D03*
X89503759Y-61560485D03*
X89503759Y-64100485D03*
X89503759Y-66640485D03*
X89503759Y-69180485D03*
X89503759Y-71720485D03*
X89503759Y-74260485D03*
X89503759Y-76800485D03*
X89503759Y-79340485D03*
X109223759Y-79340485D03*
X109223759Y-76800485D03*
X109223759Y-74260485D03*
X109223759Y-71720485D03*
X109223759Y-69180485D03*
X109223759Y-66640485D03*
X109223759Y-64100485D03*
X109223759Y-61560485D03*
X109223759Y-59020485D03*
X109223759Y-56480485D03*
X109223759Y-53940485D03*
X109223759Y-51400485D03*
D10*
X65640000Y-110800485D03*
X60560000Y-110800485D03*
X63100000Y-110800485D03*
X70750000Y-95800485D03*
X68210000Y-95800485D03*
X73260000Y-110800485D03*
X63130000Y-95800485D03*
X65670000Y-95800485D03*
X68180000Y-110800485D03*
X70720000Y-110800485D03*
X109600000Y-89505774D03*
D11*
X99440000Y-89505774D03*
X94363759Y-94550485D03*
X96903759Y-94550485D03*
X99443759Y-94550485D03*
X101983759Y-94550485D03*
X104523759Y-94550485D03*
X107063759Y-94550485D03*
X86723759Y-112300485D03*
X89263759Y-112300485D03*
X91803759Y-112300485D03*
X94343759Y-112300485D03*
X96883759Y-112300485D03*
X99423759Y-112300485D03*
X101963759Y-112300485D03*
X104503759Y-112300485D03*
X107043759Y-112300485D03*
X109583759Y-112300485D03*
X112123759Y-112300485D03*
X114663759Y-112300485D03*
D10*
X79121879Y-82000000D03*
X76581879Y-82000000D03*
D11*
X114440000Y-89500000D03*
D10*
X124600000Y-89500000D03*
D14*
X115657580Y-66042387D03*
D10*
X124625504Y-43100000D03*
D11*
X114465504Y-43100000D03*
D15*
X132000000Y-89475000D03*
D16*
X134540000Y-89475000D03*
X137080000Y-89475000D03*
X139620000Y-89475000D03*
X142160000Y-89475000D03*
X144700000Y-89475000D03*
D17*
X78851879Y-37198932D03*
D18*
X76851879Y-37198932D03*
D10*
X63850000Y-67559311D03*
X61310000Y-67559311D03*
X58770000Y-67559311D03*
D19*
X130300000Y-36850485D03*
D20*
X130300000Y-39009485D03*
X130300000Y-41168485D03*
X130300000Y-43327485D03*
D21*
X81055544Y-55230742D03*
X74555544Y-55230742D03*
X81055544Y-50730742D03*
X74555544Y-50730742D03*
D14*
X146639735Y-37198932D03*
X54639735Y-37198932D03*
D15*
X86710000Y-89475000D03*
D16*
X89250000Y-89475000D03*
D22*
X139500000Y-35990485D03*
X139500000Y-44190485D03*
D23*
X139500000Y-38090485D03*
D24*
X139500000Y-40090485D03*
X139500000Y-42090485D03*
D14*
X146563358Y-66000000D03*
X146639735Y-129198932D03*
D11*
X127740000Y-110727696D03*
X130280000Y-110727696D03*
X132820000Y-110727696D03*
X135360000Y-110727696D03*
X137900000Y-110727696D03*
X140440000Y-110727696D03*
D14*
X54639735Y-129198932D03*
D10*
X80351879Y-42910485D03*
X75351879Y-42910485D03*
X72771879Y-89500000D03*
D11*
X82931879Y-89500000D03*
D10*
X124625504Y-37100000D03*
D11*
X114465504Y-37100000D03*
D21*
X81019506Y-67600000D03*
X74519506Y-67600000D03*
X81019506Y-63100000D03*
X74519506Y-63100000D03*
D25*
X56250000Y-82000000D03*
X65750000Y-82000000D03*
D19*
X58500000Y-89500000D03*
D20*
X61000000Y-89500000D03*
X63500000Y-89500000D03*
%LPD*%
M02*
