M48
; DRILL file {KiCad 8.0.8} date 2025-02-17T18:47:33+0100
; FORMAT={-:-/ absolute / metric / decimal}
; #@! TF.CreationDate,2025-02-17T18:47:33+01:00
; #@! TF.GenerationSoftware,Kicad,Pcbnew,8.0.8
; #@! TF.FileFunction,Plated,1,2,PTH
FMAT,2
METRIC
; #@! TA.AperFunction,Plated,PTH,ComponentDrill
T1C0.600
; #@! TA.AperFunction,Plated,PTH,ComponentDrill
T2C0.762
; #@! TA.AperFunction,Plated,PTH,ComponentDrill
T3C0.800
; #@! TA.AperFunction,Plated,PTH,ComponentDrill
T4C0.900
; #@! TA.AperFunction,Plated,PTH,ComponentDrill
T5C1.000
; #@! TA.AperFunction,Plated,PTH,ComponentDrill
T6C1.100
; #@! TA.AperFunction,Plated,PTH,ComponentDrill
T7C1.500
; #@! TA.AperFunction,Plated,PTH,ComponentDrill
T8C2.000
%
G90
G05
T1
X76.852Y-37.199
X78.852Y-37.199
T2
X58.77Y-67.559
X61.31Y-67.559
X63.85Y-67.559
T3
X72.772Y-89.5
X75.352Y-42.91
X76.582Y-82.0
X79.122Y-82.0
X80.352Y-42.91
X82.932Y-89.5
X99.44Y-89.506
X109.6Y-89.506
X114.44Y-89.5
X114.466Y-37.1
X114.466Y-40.1
X114.466Y-43.1
X124.6Y-89.5
X124.626Y-37.1
X124.626Y-40.1
X124.626Y-43.1
X139.5Y-38.09
X139.5Y-40.09
X139.5Y-42.09
T4
X130.3Y-36.85
X130.3Y-39.009
X130.3Y-41.168
X130.3Y-43.327
T5
X58.5Y-89.5
X60.56Y-110.8
X61.0Y-89.5
X63.1Y-110.8
X63.13Y-95.8
X63.5Y-89.5
X65.64Y-110.8
X65.67Y-95.8
X68.18Y-110.8
X68.21Y-95.8
X70.72Y-110.8
X70.75Y-95.8
X73.26Y-110.8
X86.71Y-89.475
X86.724Y-112.3
X89.204Y-41.24
X89.204Y-43.78
X89.204Y-46.32
X89.204Y-48.86
X89.204Y-51.4
X89.204Y-53.94
X89.204Y-56.48
X89.204Y-59.02
X89.204Y-61.56
X89.204Y-64.1
X89.204Y-66.64
X89.204Y-69.18
X89.204Y-71.72
X89.204Y-74.26
X89.204Y-76.8
X89.204Y-79.34
X89.25Y-89.475
X89.264Y-112.3
X91.804Y-112.3
X94.344Y-112.3
X94.364Y-94.55
X96.884Y-112.3
X96.904Y-94.55
X99.424Y-112.3
X99.444Y-94.55
X101.964Y-112.3
X101.984Y-94.55
X104.504Y-112.3
X104.524Y-94.55
X107.044Y-112.3
X107.064Y-94.55
X109.524Y-51.4
X109.524Y-53.94
X109.524Y-56.48
X109.524Y-59.02
X109.524Y-61.56
X109.524Y-64.1
X109.524Y-66.64
X109.524Y-69.18
X109.524Y-71.72
X109.524Y-74.26
X109.524Y-76.8
X109.524Y-79.34
X109.584Y-112.3
X112.124Y-112.3
X114.664Y-112.3
X127.74Y-110.728
X130.28Y-110.728
X132.0Y-89.475
X132.82Y-110.728
X134.54Y-89.475
X135.36Y-110.728
X137.08Y-89.475
X137.9Y-110.728
X139.62Y-89.475
X140.44Y-110.728
X142.16Y-89.475
X144.7Y-89.475
T6
X74.52Y-63.1
X74.52Y-67.6
X74.556Y-50.731
X74.556Y-55.231
X81.02Y-63.1
X81.02Y-67.6
X81.056Y-50.731
X81.056Y-55.231
T7
X139.5Y-35.99
X139.5Y-44.19
T8
X56.25Y-82.0
X65.75Y-82.0
M30
