G04 #@! TF.GenerationSoftware,KiCad,Pcbnew,8.0.8*
G04 #@! TF.CreationDate,2025-02-17T18:47:29+01:00*
G04 #@! TF.ProjectId,tesi,74657369-2e6b-4696-9361-645f70636258,rev?*
G04 #@! TF.SameCoordinates,Original*
G04 #@! TF.FileFunction,Copper,L2,Bot*
G04 #@! TF.FilePolarity,Positive*
%FSLAX46Y46*%
G04 Gerber Fmt 4.6, Leading zero omitted, Abs format (unit mm)*
G04 Created by KiCad (PCBNEW 8.0.8) date 2025-02-17 18:47:29*
%MOMM*%
%LPD*%
G01*
G04 APERTURE LIST*
G04 Aperture macros list*
%AMRoundRect*
0 Rectangle with rounded corners*
0 $1 Rounding radius*
0 $2 $3 $4 $5 $6 $7 $8 $9 X,Y pos of 4 corners*
0 Add a 4 corners polygon primitive as box body*
4,1,4,$2,$3,$4,$5,$6,$7,$8,$9,$2,$3,0*
0 Add four circle primitives for the rounded corners*
1,1,$1+$1,$2,$3*
1,1,$1+$1,$4,$5*
1,1,$1+$1,$6,$7*
1,1,$1+$1,$8,$9*
0 Add four rect primitives between the rounded corners*
20,1,$1+$1,$2,$3,$4,$5,0*
20,1,$1+$1,$4,$5,$6,$7,0*
20,1,$1+$1,$6,$7,$8,$9,0*
20,1,$1+$1,$8,$9,$2,$3,0*%
G04 Aperture macros list end*
G04 #@! TA.AperFunction,ComponentPad*
%ADD10C,1.600000*%
G04 #@! TD*
G04 #@! TA.AperFunction,ComponentPad*
%ADD11O,1.600000X1.600000*%
G04 #@! TD*
G04 #@! TA.AperFunction,ComponentPad*
%ADD12RoundRect,0.250000X-1.050000X-0.550000X1.050000X-0.550000X1.050000X0.550000X-1.050000X0.550000X0*%
G04 #@! TD*
G04 #@! TA.AperFunction,ComponentPad*
%ADD13O,2.600000X1.600000*%
G04 #@! TD*
G04 #@! TA.AperFunction,ComponentPad*
%ADD14R,1.700000X1.700000*%
G04 #@! TD*
G04 #@! TA.AperFunction,ComponentPad*
%ADD15O,1.700000X1.700000*%
G04 #@! TD*
G04 #@! TA.AperFunction,ComponentPad*
%ADD16R,1.200000X1.200000*%
G04 #@! TD*
G04 #@! TA.AperFunction,ComponentPad*
%ADD17C,1.200000*%
G04 #@! TD*
G04 #@! TA.AperFunction,ComponentPad*
%ADD18R,1.800000X1.800000*%
G04 #@! TD*
G04 #@! TA.AperFunction,ComponentPad*
%ADD19C,1.800000*%
G04 #@! TD*
G04 #@! TA.AperFunction,ComponentPad*
%ADD20C,2.000000*%
G04 #@! TD*
G04 #@! TA.AperFunction,ComponentPad*
%ADD21O,3.500000X2.200000*%
G04 #@! TD*
G04 #@! TA.AperFunction,ComponentPad*
%ADD22R,2.500000X1.500000*%
G04 #@! TD*
G04 #@! TA.AperFunction,ComponentPad*
%ADD23O,2.500000X1.500000*%
G04 #@! TD*
G04 #@! TA.AperFunction,ComponentPad*
%ADD24O,4.000000X4.000000*%
G04 #@! TD*
G04 #@! TA.AperFunction,Conductor*
%ADD25C,0.500000*%
G04 #@! TD*
G04 APERTURE END LIST*
D10*
X124625504Y-40100000D03*
D11*
X114465504Y-40100000D03*
D12*
X89503759Y-41240485D03*
D13*
X89503759Y-43780485D03*
X89503759Y-46320485D03*
X89503759Y-48860485D03*
X89503759Y-51400485D03*
X89503759Y-53940485D03*
X89503759Y-56480485D03*
X89503759Y-59020485D03*
X89503759Y-61560485D03*
X89503759Y-64100485D03*
X89503759Y-66640485D03*
X89503759Y-69180485D03*
X89503759Y-71720485D03*
X89503759Y-74260485D03*
X89503759Y-76800485D03*
X89503759Y-79340485D03*
X109223759Y-79340485D03*
X109223759Y-76800485D03*
X109223759Y-74260485D03*
X109223759Y-71720485D03*
X109223759Y-69180485D03*
X109223759Y-66640485D03*
X109223759Y-64100485D03*
X109223759Y-61560485D03*
X109223759Y-59020485D03*
X109223759Y-56480485D03*
X109223759Y-53940485D03*
X109223759Y-51400485D03*
D10*
X65640000Y-110800485D03*
X60560000Y-110800485D03*
X63100000Y-110800485D03*
X70750000Y-95800485D03*
X68210000Y-95800485D03*
X73260000Y-110800485D03*
X63130000Y-95800485D03*
X65670000Y-95800485D03*
X68180000Y-110800485D03*
X70720000Y-110800485D03*
X109600000Y-89505774D03*
D11*
X99440000Y-89505774D03*
X94363759Y-94550485D03*
X96903759Y-94550485D03*
X99443759Y-94550485D03*
X101983759Y-94550485D03*
X104523759Y-94550485D03*
X107063759Y-94550485D03*
X86723759Y-112300485D03*
X89263759Y-112300485D03*
X91803759Y-112300485D03*
X94343759Y-112300485D03*
X96883759Y-112300485D03*
X99423759Y-112300485D03*
X101963759Y-112300485D03*
X104503759Y-112300485D03*
X107043759Y-112300485D03*
X109583759Y-112300485D03*
X112123759Y-112300485D03*
X114663759Y-112300485D03*
D10*
X79121879Y-82000000D03*
X76581879Y-82000000D03*
D11*
X114440000Y-89500000D03*
D10*
X124600000Y-89500000D03*
X124625504Y-43100000D03*
D11*
X114465504Y-43100000D03*
D14*
X132000000Y-89475000D03*
D15*
X134540000Y-89475000D03*
X137080000Y-89475000D03*
X139620000Y-89475000D03*
X142160000Y-89475000D03*
X144700000Y-89475000D03*
D16*
X78851879Y-37198932D03*
D17*
X76851879Y-37198932D03*
D10*
X63850000Y-67559311D03*
X61310000Y-67559311D03*
X58770000Y-67559311D03*
D18*
X130300000Y-36850485D03*
D19*
X130300000Y-39009485D03*
X130300000Y-41168485D03*
X130300000Y-43327485D03*
D20*
X81055544Y-55230742D03*
X74555544Y-55230742D03*
X81055544Y-50730742D03*
X74555544Y-50730742D03*
D14*
X86710000Y-89475000D03*
D15*
X89250000Y-89475000D03*
D21*
X139500000Y-35990485D03*
X139500000Y-44190485D03*
D22*
X139500000Y-38090485D03*
D23*
X139500000Y-40090485D03*
X139500000Y-42090485D03*
D11*
X127740000Y-110727696D03*
X130280000Y-110727696D03*
X132820000Y-110727696D03*
X135360000Y-110727696D03*
X137900000Y-110727696D03*
X140440000Y-110727696D03*
D10*
X80351879Y-42910485D03*
X75351879Y-42910485D03*
X72771879Y-89500000D03*
D11*
X82931879Y-89500000D03*
D10*
X124625504Y-37100000D03*
D11*
X114465504Y-37100000D03*
D20*
X81019506Y-67600000D03*
X74519506Y-67600000D03*
X81019506Y-63100000D03*
X74519506Y-63100000D03*
D24*
X56250000Y-82000000D03*
X65750000Y-82000000D03*
D18*
X58500000Y-89500000D03*
D19*
X61000000Y-89500000D03*
X63500000Y-89500000D03*
D25*
X101600000Y-63300000D02*
X107480485Y-69180485D01*
X101600000Y-47900000D02*
X101600000Y-63300000D01*
X114465504Y-40100000D02*
X109400000Y-40100000D01*
X107480485Y-69180485D02*
X109523759Y-69180485D01*
X109400000Y-40100000D02*
X101600000Y-47900000D01*
X86200000Y-60500000D02*
X87679515Y-59020485D01*
X61000000Y-89500000D02*
X61000000Y-79400000D01*
X61000000Y-79400000D02*
X64400000Y-76000000D01*
X80700000Y-76000000D02*
X86200000Y-70500000D01*
X86200000Y-70500000D02*
X86200000Y-60500000D01*
X64400000Y-76000000D02*
X80700000Y-76000000D01*
X87679515Y-59020485D02*
X89203759Y-59020485D01*
X142160000Y-89475000D02*
X142160000Y-85560000D01*
X142160000Y-85560000D02*
X128320485Y-71720485D01*
X128320485Y-71720485D02*
X109523759Y-71720485D01*
X139500000Y-42090485D02*
X137109515Y-42090485D01*
X137109515Y-42090485D02*
X125259515Y-53940485D01*
X125259515Y-53940485D02*
X109523759Y-53940485D01*
X78851879Y-37198932D02*
X78851879Y-41410485D01*
X80351879Y-42910485D02*
X81241394Y-43800000D01*
X78851879Y-41410485D02*
X80351879Y-42910485D01*
X81241394Y-43800000D02*
X89184244Y-43800000D01*
X89184244Y-43800000D02*
X89203759Y-43780485D01*
X129900000Y-70000000D02*
X114000000Y-70000000D01*
X144700000Y-84800000D02*
X129900000Y-70000000D01*
X114000000Y-70000000D02*
X110640485Y-66640485D01*
X144700000Y-89475000D02*
X144700000Y-84800000D01*
X110640485Y-66640485D02*
X109523759Y-66640485D01*
X107900000Y-37100000D02*
X98600000Y-46400000D01*
X107360485Y-74260485D02*
X109523759Y-74260485D01*
X98600000Y-65500000D02*
X107360485Y-74260485D01*
X114465504Y-37100000D02*
X107900000Y-37100000D01*
X98600000Y-46400000D02*
X98600000Y-65500000D01*
X91860485Y-61560485D02*
X89203759Y-61560485D01*
X94800000Y-80500000D02*
X94800000Y-64500000D01*
X91600000Y-83700000D02*
X94800000Y-80500000D01*
X82931879Y-85810000D02*
X79121879Y-82000000D01*
X80821879Y-83700000D02*
X91600000Y-83700000D01*
X79121879Y-82000000D02*
X80821879Y-83700000D01*
X82931879Y-89500000D02*
X82931879Y-85810000D01*
X94800000Y-64500000D02*
X91860485Y-61560485D01*
X114465504Y-43100000D02*
X111100000Y-43100000D01*
X104500000Y-61200000D02*
X107400485Y-64100485D01*
X111100000Y-43100000D02*
X104500000Y-49700000D01*
X104500000Y-49700000D02*
X104500000Y-61200000D01*
X107400485Y-64100485D02*
X109523759Y-64100485D01*
X125045504Y-36850485D02*
X124625504Y-37270485D01*
X130300000Y-36850485D02*
X124875019Y-36850485D01*
X124875019Y-36850485D02*
X124625504Y-37100000D01*
X125017000Y-43327485D02*
X124600000Y-42910485D01*
X124852989Y-43327485D02*
X124625504Y-43100000D01*
X130300000Y-43327485D02*
X124852989Y-43327485D01*
X70720000Y-107180000D02*
X70720000Y-110700000D01*
X103677479Y-84000000D02*
X99440000Y-88237479D01*
X135360000Y-110727696D02*
X135360000Y-106340000D01*
X99440000Y-88237479D02*
X99440000Y-89505774D01*
X99443759Y-94550485D02*
X99443759Y-95856241D01*
X99443759Y-95856241D02*
X94200000Y-101100000D01*
X139620000Y-86620000D02*
X137000000Y-84000000D01*
X94200000Y-101100000D02*
X76800000Y-101100000D01*
X99440000Y-94546726D02*
X99443759Y-94550485D01*
X139620000Y-102080000D02*
X139620000Y-89475000D01*
X76800000Y-101100000D02*
X70720000Y-107180000D01*
X137000000Y-84000000D02*
X103677479Y-84000000D01*
X99440000Y-89505774D02*
X99440000Y-94546726D01*
X139620000Y-89475000D02*
X139620000Y-86620000D01*
X135360000Y-106340000D02*
X139620000Y-102080000D01*
X68180000Y-110700000D02*
X68180000Y-112780000D01*
X101983759Y-96516241D02*
X101983759Y-94550485D01*
X76500000Y-114400000D02*
X87200000Y-103700000D01*
X137080000Y-87580000D02*
X137080000Y-89475000D01*
X103300000Y-97900000D02*
X101983759Y-96583759D01*
X110200000Y-97900000D02*
X103300000Y-97900000D01*
X94800000Y-103700000D02*
X101983759Y-96516241D01*
X114440000Y-89500000D02*
X114440000Y-93660000D01*
X114440000Y-89500000D02*
X114440000Y-88030000D01*
X101983759Y-96583759D02*
X101983759Y-94550485D01*
X69800000Y-114400000D02*
X76500000Y-114400000D01*
X114440000Y-88030000D02*
X116470000Y-86000000D01*
X68180000Y-112780000D02*
X69800000Y-114400000D01*
X132820000Y-98180000D02*
X137080000Y-93920000D01*
X114440000Y-93660000D02*
X110200000Y-97900000D01*
X135500000Y-86000000D02*
X137080000Y-87580000D01*
X132820000Y-110727696D02*
X132820000Y-98180000D01*
X137080000Y-93920000D02*
X137080000Y-89475000D01*
X87200000Y-103700000D02*
X94800000Y-103700000D01*
X116470000Y-86000000D02*
X135500000Y-86000000D01*
X125693989Y-41168485D02*
X124625504Y-40100000D01*
X130300000Y-41168485D02*
X125693989Y-41168485D01*
X76851879Y-41410485D02*
X75351879Y-42910485D01*
X76851879Y-37198932D02*
X76851879Y-41410485D01*
X85000000Y-46100000D02*
X87760485Y-48860485D01*
X77400000Y-46100000D02*
X85000000Y-46100000D01*
X87760485Y-48860485D02*
X89203759Y-48860485D01*
X75351879Y-44051879D02*
X77400000Y-46100000D01*
X75351879Y-42910485D02*
X75351879Y-44051879D01*
X58770000Y-67559311D02*
X58770000Y-68970000D01*
X82500000Y-70800000D02*
X83900000Y-69400000D01*
X58770000Y-68970000D02*
X60600000Y-70800000D01*
X60600000Y-70800000D02*
X82500000Y-70800000D01*
X83900000Y-59400000D02*
X86819515Y-56480485D01*
X83900000Y-69400000D02*
X83900000Y-59400000D01*
X86819515Y-56480485D02*
X89203759Y-56480485D01*
X74519506Y-63100000D02*
X81019506Y-63100000D01*
X86159515Y-53940485D02*
X89203759Y-53940485D01*
X81019506Y-59080494D02*
X86159515Y-53940485D01*
X81019506Y-63100000D02*
X81019506Y-59080494D01*
X81724802Y-51400000D02*
X89203274Y-51400000D01*
X89203274Y-51400000D02*
X89203759Y-51400485D01*
X81055544Y-50730742D02*
X81724802Y-51400000D01*
X74555544Y-50730742D02*
X81055544Y-50730742D01*
G04 #@! TA.AperFunction,Conductor*
G36*
X146664363Y-33624581D02*
G01*
X146998262Y-33640987D01*
X147010368Y-33642179D01*
X147338042Y-33690787D01*
X147349941Y-33693154D01*
X147671295Y-33773650D01*
X147682908Y-33777174D01*
X147994807Y-33888774D01*
X148006021Y-33893419D01*
X148305488Y-34035057D01*
X148316213Y-34040790D01*
X148600294Y-34211062D01*
X148600328Y-34211082D01*
X148610443Y-34217840D01*
X148876506Y-34415165D01*
X148885905Y-34422878D01*
X149131352Y-34645338D01*
X149139942Y-34653928D01*
X149244864Y-34769690D01*
X149362400Y-34899369D01*
X149370116Y-34908771D01*
X149399088Y-34947835D01*
X149567436Y-35174824D01*
X149574197Y-35184941D01*
X149744499Y-35469065D01*
X149750235Y-35479797D01*
X149887168Y-35769312D01*
X149891859Y-35779229D01*
X149896516Y-35790472D01*
X150008114Y-36102359D01*
X150011646Y-36114003D01*
X150092132Y-36435303D01*
X150094507Y-36447238D01*
X150143116Y-36774902D01*
X150144309Y-36787011D01*
X150160686Y-37120237D01*
X150160835Y-37126324D01*
X150160835Y-129120878D01*
X150160685Y-129126966D01*
X150144272Y-129460839D01*
X150143079Y-129472949D01*
X150094468Y-129800603D01*
X150092094Y-129812537D01*
X150011603Y-130133842D01*
X150008071Y-130145487D01*
X149896469Y-130457375D01*
X149891812Y-130468617D01*
X149750188Y-130768043D01*
X149744452Y-130778774D01*
X149574152Y-131062897D01*
X149567391Y-131073014D01*
X149370076Y-131339060D01*
X149362357Y-131348466D01*
X149139908Y-131593901D01*
X149131303Y-131602506D01*
X148885868Y-131824955D01*
X148876462Y-131832674D01*
X148610416Y-132029989D01*
X148600299Y-132036750D01*
X148316176Y-132207051D01*
X148305445Y-132212787D01*
X148006019Y-132354411D01*
X147994777Y-132359068D01*
X147682890Y-132470670D01*
X147671245Y-132474202D01*
X147349939Y-132554693D01*
X147338005Y-132557067D01*
X147010351Y-132605679D01*
X146998241Y-132606872D01*
X146664430Y-132623282D01*
X146658342Y-132623432D01*
X54734833Y-132623432D01*
X54734817Y-132623431D01*
X54664379Y-132623431D01*
X54658296Y-132623282D01*
X54324403Y-132606882D01*
X54312292Y-132605689D01*
X53984639Y-132557088D01*
X53972704Y-132554714D01*
X53651395Y-132474233D01*
X53639750Y-132470701D01*
X53327868Y-132359109D01*
X53316625Y-132354452D01*
X53017182Y-132212827D01*
X53006455Y-132207092D01*
X52722346Y-132036804D01*
X52712228Y-132030043D01*
X52446171Y-131832720D01*
X52436764Y-131825001D01*
X52191326Y-131602548D01*
X52182722Y-131593943D01*
X51960280Y-131348514D01*
X51952560Y-131339107D01*
X51952525Y-131339060D01*
X51755244Y-131073053D01*
X51748484Y-131062937D01*
X51683781Y-130954984D01*
X51578188Y-130778808D01*
X51572456Y-130768084D01*
X51559584Y-130740868D01*
X51430836Y-130468647D01*
X51426180Y-130457405D01*
X51314591Y-130145523D01*
X51311059Y-130133878D01*
X51230579Y-129812568D01*
X51228205Y-129800633D01*
X51227374Y-129795032D01*
X51179606Y-129472975D01*
X51178414Y-129460869D01*
X51165109Y-129189943D01*
X51161983Y-129126292D01*
X51161835Y-129120230D01*
X51161836Y-129077643D01*
X52789235Y-129077643D01*
X52789235Y-129320220D01*
X52820896Y-129560717D01*
X52883682Y-129795036D01*
X52976508Y-130019137D01*
X52976511Y-130019144D01*
X53097799Y-130229221D01*
X53097801Y-130229224D01*
X53097802Y-130229225D01*
X53245468Y-130421668D01*
X53245474Y-130421675D01*
X53416991Y-130593192D01*
X53416997Y-130593197D01*
X53609446Y-130740868D01*
X53819523Y-130862156D01*
X54043635Y-130954986D01*
X54277946Y-131017770D01*
X54458321Y-131041516D01*
X54518446Y-131049432D01*
X54518447Y-131049432D01*
X54761024Y-131049432D01*
X54809123Y-131043099D01*
X55001524Y-131017770D01*
X55235835Y-130954986D01*
X55459947Y-130862156D01*
X55670024Y-130740868D01*
X55862473Y-130593197D01*
X56034000Y-130421670D01*
X56181671Y-130229221D01*
X56302959Y-130019144D01*
X56395789Y-129795032D01*
X56458573Y-129560721D01*
X56490235Y-129320220D01*
X56490235Y-129077644D01*
X56490235Y-129077643D01*
X144789235Y-129077643D01*
X144789235Y-129320220D01*
X144820896Y-129560717D01*
X144883682Y-129795036D01*
X144976508Y-130019137D01*
X144976511Y-130019144D01*
X145097799Y-130229221D01*
X145097801Y-130229224D01*
X145097802Y-130229225D01*
X145245468Y-130421668D01*
X145245474Y-130421675D01*
X145416991Y-130593192D01*
X145416997Y-130593197D01*
X145609446Y-130740868D01*
X145819523Y-130862156D01*
X146043635Y-130954986D01*
X146277946Y-131017770D01*
X146458321Y-131041516D01*
X146518446Y-131049432D01*
X146518447Y-131049432D01*
X146761024Y-131049432D01*
X146809123Y-131043099D01*
X147001524Y-131017770D01*
X147235835Y-130954986D01*
X147459947Y-130862156D01*
X147670024Y-130740868D01*
X147862473Y-130593197D01*
X148034000Y-130421670D01*
X148181671Y-130229221D01*
X148302959Y-130019144D01*
X148395789Y-129795032D01*
X148458573Y-129560721D01*
X148490235Y-129320220D01*
X148490235Y-129077644D01*
X148458573Y-128837143D01*
X148395789Y-128602832D01*
X148302959Y-128378720D01*
X148181671Y-128168643D01*
X148034000Y-127976194D01*
X148033995Y-127976188D01*
X147862478Y-127804671D01*
X147862471Y-127804665D01*
X147670028Y-127656999D01*
X147670027Y-127656998D01*
X147670024Y-127656996D01*
X147459947Y-127535708D01*
X147459940Y-127535705D01*
X147235839Y-127442879D01*
X147001520Y-127380093D01*
X146761024Y-127348432D01*
X146761023Y-127348432D01*
X146518447Y-127348432D01*
X146518446Y-127348432D01*
X146277949Y-127380093D01*
X146043630Y-127442879D01*
X145819529Y-127535705D01*
X145819520Y-127535709D01*
X145609441Y-127656999D01*
X145416998Y-127804665D01*
X145416991Y-127804671D01*
X145245474Y-127976188D01*
X145245468Y-127976195D01*
X145097802Y-128168638D01*
X144976512Y-128378717D01*
X144976508Y-128378726D01*
X144883682Y-128602827D01*
X144820896Y-128837146D01*
X144789235Y-129077643D01*
X56490235Y-129077643D01*
X56458573Y-128837143D01*
X56395789Y-128602832D01*
X56302959Y-128378720D01*
X56181671Y-128168643D01*
X56034000Y-127976194D01*
X56033995Y-127976188D01*
X55862478Y-127804671D01*
X55862471Y-127804665D01*
X55670028Y-127656999D01*
X55670027Y-127656998D01*
X55670024Y-127656996D01*
X55459947Y-127535708D01*
X55459940Y-127535705D01*
X55235839Y-127442879D01*
X55001520Y-127380093D01*
X54761024Y-127348432D01*
X54761023Y-127348432D01*
X54518447Y-127348432D01*
X54518446Y-127348432D01*
X54277949Y-127380093D01*
X54043630Y-127442879D01*
X53819529Y-127535705D01*
X53819520Y-127535709D01*
X53609441Y-127656999D01*
X53416998Y-127804665D01*
X53416991Y-127804671D01*
X53245474Y-127976188D01*
X53245468Y-127976195D01*
X53097802Y-128168638D01*
X52976512Y-128378717D01*
X52976508Y-128378726D01*
X52883682Y-128602827D01*
X52820896Y-128837146D01*
X52789235Y-129077643D01*
X51161836Y-129077643D01*
X51161836Y-129058048D01*
X51161835Y-129058044D01*
X51161835Y-110800483D01*
X59254532Y-110800483D01*
X59254532Y-110800486D01*
X59274364Y-111027171D01*
X59274366Y-111027182D01*
X59333258Y-111246973D01*
X59333261Y-111246982D01*
X59429431Y-111453217D01*
X59429432Y-111453219D01*
X59559954Y-111639626D01*
X59720858Y-111800530D01*
X59720861Y-111800532D01*
X59907266Y-111931053D01*
X60113504Y-112027224D01*
X60333308Y-112086120D01*
X60495230Y-112100286D01*
X60559998Y-112105953D01*
X60560000Y-112105953D01*
X60560002Y-112105953D01*
X60616673Y-112100994D01*
X60786692Y-112086120D01*
X61006496Y-112027224D01*
X61212734Y-111931053D01*
X61399139Y-111800532D01*
X61560047Y-111639624D01*
X61690568Y-111453219D01*
X61717618Y-111395209D01*
X61763790Y-111342770D01*
X61830983Y-111323618D01*
X61897865Y-111343833D01*
X61942382Y-111395210D01*
X61969429Y-111453213D01*
X61969432Y-111453219D01*
X62099954Y-111639626D01*
X62260858Y-111800530D01*
X62260861Y-111800532D01*
X62447266Y-111931053D01*
X62653504Y-112027224D01*
X62873308Y-112086120D01*
X63035230Y-112100286D01*
X63099998Y-112105953D01*
X63100000Y-112105953D01*
X63100002Y-112105953D01*
X63156673Y-112100994D01*
X63326692Y-112086120D01*
X63546496Y-112027224D01*
X63752734Y-111931053D01*
X63939139Y-111800532D01*
X64100047Y-111639624D01*
X64230568Y-111453219D01*
X64257893Y-111394619D01*
X64304065Y-111342180D01*
X64371258Y-111323028D01*
X64438139Y-111343243D01*
X64482657Y-111394619D01*
X64509864Y-111452965D01*
X64560974Y-111525957D01*
X65157037Y-110929893D01*
X65174075Y-110993478D01*
X65239901Y-111107492D01*
X65332993Y-111200584D01*
X65447007Y-111266410D01*
X65510590Y-111283447D01*
X64914526Y-111879510D01*
X64987513Y-111930617D01*
X64987521Y-111930621D01*
X65193668Y-112026749D01*
X65193682Y-112026754D01*
X65413389Y-112085624D01*
X65413400Y-112085626D01*
X65639998Y-112105451D01*
X65640002Y-112105451D01*
X65866599Y-112085626D01*
X65866610Y-112085624D01*
X66086317Y-112026754D01*
X66086331Y-112026749D01*
X66292478Y-111930621D01*
X66365471Y-111879509D01*
X65769409Y-111283447D01*
X65832993Y-111266410D01*
X65947007Y-111200584D01*
X66040099Y-111107492D01*
X66105925Y-110993478D01*
X66122962Y-110929894D01*
X66719024Y-111525956D01*
X66770133Y-111452967D01*
X66797341Y-111394620D01*
X66843513Y-111342181D01*
X66910707Y-111323028D01*
X66977588Y-111343243D01*
X67022105Y-111394617D01*
X67049432Y-111453219D01*
X67055123Y-111461346D01*
X67179954Y-111639626D01*
X67340859Y-111800531D01*
X67376621Y-111825571D01*
X67420247Y-111880147D01*
X67429500Y-111927147D01*
X67429500Y-112853918D01*
X67429500Y-112853920D01*
X67429499Y-112853920D01*
X67458340Y-112998907D01*
X67458343Y-112998917D01*
X67514914Y-113135492D01*
X67547812Y-113184727D01*
X67547813Y-113184730D01*
X67597046Y-113258414D01*
X67597052Y-113258421D01*
X69321584Y-114982952D01*
X69321586Y-114982954D01*
X69351058Y-115002645D01*
X69395270Y-115032186D01*
X69444505Y-115065084D01*
X69444506Y-115065084D01*
X69444507Y-115065085D01*
X69444509Y-115065086D01*
X69581082Y-115121656D01*
X69581087Y-115121658D01*
X69581091Y-115121658D01*
X69581092Y-115121659D01*
X69726079Y-115150500D01*
X69726082Y-115150500D01*
X76573920Y-115150500D01*
X76671462Y-115131096D01*
X76718913Y-115121658D01*
X76855495Y-115065084D01*
X76904729Y-115032186D01*
X76904734Y-115032183D01*
X76929071Y-115015921D01*
X76978416Y-114982952D01*
X79660884Y-112300483D01*
X85418291Y-112300483D01*
X85418291Y-112300486D01*
X85438123Y-112527171D01*
X85438125Y-112527182D01*
X85497017Y-112746973D01*
X85497020Y-112746982D01*
X85593190Y-112953217D01*
X85593191Y-112953219D01*
X85723713Y-113139626D01*
X85884617Y-113300530D01*
X85884620Y-113300532D01*
X86071025Y-113431053D01*
X86277263Y-113527224D01*
X86497067Y-113586120D01*
X86658989Y-113600286D01*
X86723757Y-113605953D01*
X86723759Y-113605953D01*
X86723761Y-113605953D01*
X86780432Y-113600994D01*
X86950451Y-113586120D01*
X87170255Y-113527224D01*
X87376493Y-113431053D01*
X87562898Y-113300532D01*
X87723806Y-113139624D01*
X87854327Y-112953219D01*
X87881377Y-112895209D01*
X87927549Y-112842770D01*
X87994742Y-112823618D01*
X88061624Y-112843833D01*
X88106141Y-112895210D01*
X88133188Y-112953213D01*
X88133191Y-112953219D01*
X88263713Y-113139626D01*
X88424617Y-113300530D01*
X88424620Y-113300532D01*
X88611025Y-113431053D01*
X88817263Y-113527224D01*
X89037067Y-113586120D01*
X89198989Y-113600286D01*
X89263757Y-113605953D01*
X89263759Y-113605953D01*
X89263761Y-113605953D01*
X89320432Y-113600994D01*
X89490451Y-113586120D01*
X89710255Y-113527224D01*
X89916493Y-113431053D01*
X90102898Y-113300532D01*
X90263806Y-113139624D01*
X90394327Y-112953219D01*
X90421377Y-112895209D01*
X90467549Y-112842770D01*
X90534742Y-112823618D01*
X90601624Y-112843833D01*
X90646141Y-112895210D01*
X90673188Y-112953213D01*
X90673191Y-112953219D01*
X90803713Y-113139626D01*
X90964617Y-113300530D01*
X90964620Y-113300532D01*
X91151025Y-113431053D01*
X91357263Y-113527224D01*
X91577067Y-113586120D01*
X91738989Y-113600286D01*
X91803757Y-113605953D01*
X91803759Y-113605953D01*
X91803761Y-113605953D01*
X91860432Y-113600994D01*
X92030451Y-113586120D01*
X92250255Y-113527224D01*
X92456493Y-113431053D01*
X92642898Y-113300532D01*
X92803806Y-113139624D01*
X92934327Y-112953219D01*
X92961377Y-112895209D01*
X93007549Y-112842770D01*
X93074742Y-112823618D01*
X93141624Y-112843833D01*
X93186141Y-112895210D01*
X93213188Y-112953213D01*
X93213191Y-112953219D01*
X93343713Y-113139626D01*
X93504617Y-113300530D01*
X93504620Y-113300532D01*
X93691025Y-113431053D01*
X93897263Y-113527224D01*
X94117067Y-113586120D01*
X94278989Y-113600286D01*
X94343757Y-113605953D01*
X94343759Y-113605953D01*
X94343761Y-113605953D01*
X94400432Y-113600994D01*
X94570451Y-113586120D01*
X94790255Y-113527224D01*
X94996493Y-113431053D01*
X95182898Y-113300532D01*
X95343806Y-113139624D01*
X95474327Y-112953219D01*
X95501377Y-112895209D01*
X95547549Y-112842770D01*
X95614742Y-112823618D01*
X95681624Y-112843833D01*
X95726141Y-112895210D01*
X95753188Y-112953213D01*
X95753191Y-112953219D01*
X95883713Y-113139626D01*
X96044617Y-113300530D01*
X96044620Y-113300532D01*
X96231025Y-113431053D01*
X96437263Y-113527224D01*
X96657067Y-113586120D01*
X96818989Y-113600286D01*
X96883757Y-113605953D01*
X96883759Y-113605953D01*
X96883761Y-113605953D01*
X96940432Y-113600994D01*
X97110451Y-113586120D01*
X97330255Y-113527224D01*
X97536493Y-113431053D01*
X97722898Y-113300532D01*
X97883806Y-113139624D01*
X98014327Y-112953219D01*
X98041377Y-112895209D01*
X98087549Y-112842770D01*
X98154742Y-112823618D01*
X98221624Y-112843833D01*
X98266141Y-112895210D01*
X98293188Y-112953213D01*
X98293191Y-112953219D01*
X98423713Y-113139626D01*
X98584617Y-113300530D01*
X98584620Y-113300532D01*
X98771025Y-113431053D01*
X98977263Y-113527224D01*
X99197067Y-113586120D01*
X99358989Y-113600286D01*
X99423757Y-113605953D01*
X99423759Y-113605953D01*
X99423761Y-113605953D01*
X99480432Y-113600994D01*
X99650451Y-113586120D01*
X99870255Y-113527224D01*
X100076493Y-113431053D01*
X100262898Y-113300532D01*
X100423806Y-113139624D01*
X100554327Y-112953219D01*
X100581377Y-112895209D01*
X100627549Y-112842770D01*
X100694742Y-112823618D01*
X100761624Y-112843833D01*
X100806141Y-112895210D01*
X100833188Y-112953213D01*
X100833191Y-112953219D01*
X100963713Y-113139626D01*
X101124617Y-113300530D01*
X101124620Y-113300532D01*
X101311025Y-113431053D01*
X101517263Y-113527224D01*
X101737067Y-113586120D01*
X101898989Y-113600286D01*
X101963757Y-113605953D01*
X101963759Y-113605953D01*
X101963761Y-113605953D01*
X102020432Y-113600994D01*
X102190451Y-113586120D01*
X102410255Y-113527224D01*
X102616493Y-113431053D01*
X102802898Y-113300532D01*
X102963806Y-113139624D01*
X103094327Y-112953219D01*
X103121377Y-112895209D01*
X103167549Y-112842770D01*
X103234742Y-112823618D01*
X103301624Y-112843833D01*
X103346141Y-112895210D01*
X103373188Y-112953213D01*
X103373191Y-112953219D01*
X103503713Y-113139626D01*
X103664617Y-113300530D01*
X103664620Y-113300532D01*
X103851025Y-113431053D01*
X104057263Y-113527224D01*
X104277067Y-113586120D01*
X104438989Y-113600286D01*
X104503757Y-113605953D01*
X104503759Y-113605953D01*
X104503761Y-113605953D01*
X104560432Y-113600994D01*
X104730451Y-113586120D01*
X104950255Y-113527224D01*
X105156493Y-113431053D01*
X105342898Y-113300532D01*
X105503806Y-113139624D01*
X105634327Y-112953219D01*
X105661377Y-112895209D01*
X105707549Y-112842770D01*
X105774742Y-112823618D01*
X105841624Y-112843833D01*
X105886141Y-112895210D01*
X105913188Y-112953213D01*
X105913191Y-112953219D01*
X106043713Y-113139626D01*
X106204617Y-113300530D01*
X106204620Y-113300532D01*
X106391025Y-113431053D01*
X106597263Y-113527224D01*
X106817067Y-113586120D01*
X106978989Y-113600286D01*
X107043757Y-113605953D01*
X107043759Y-113605953D01*
X107043761Y-113605953D01*
X107100432Y-113600994D01*
X107270451Y-113586120D01*
X107490255Y-113527224D01*
X107696493Y-113431053D01*
X107882898Y-113300532D01*
X108043806Y-113139624D01*
X108174327Y-112953219D01*
X108201377Y-112895209D01*
X108247549Y-112842770D01*
X108314742Y-112823618D01*
X108381624Y-112843833D01*
X108426141Y-112895210D01*
X108453188Y-112953213D01*
X108453191Y-112953219D01*
X108583713Y-113139626D01*
X108744617Y-113300530D01*
X108744620Y-113300532D01*
X108931025Y-113431053D01*
X109137263Y-113527224D01*
X109357067Y-113586120D01*
X109518989Y-113600286D01*
X109583757Y-113605953D01*
X109583759Y-113605953D01*
X109583761Y-113605953D01*
X109640432Y-113600994D01*
X109810451Y-113586120D01*
X110030255Y-113527224D01*
X110236493Y-113431053D01*
X110422898Y-113300532D01*
X110583806Y-113139624D01*
X110714327Y-112953219D01*
X110741377Y-112895209D01*
X110787549Y-112842770D01*
X110854742Y-112823618D01*
X110921624Y-112843833D01*
X110966141Y-112895210D01*
X110993188Y-112953213D01*
X110993191Y-112953219D01*
X111123713Y-113139626D01*
X111284617Y-113300530D01*
X111284620Y-113300532D01*
X111471025Y-113431053D01*
X111677263Y-113527224D01*
X111897067Y-113586120D01*
X112058989Y-113600286D01*
X112123757Y-113605953D01*
X112123759Y-113605953D01*
X112123761Y-113605953D01*
X112180432Y-113600994D01*
X112350451Y-113586120D01*
X112570255Y-113527224D01*
X112776493Y-113431053D01*
X112962898Y-113300532D01*
X113123806Y-113139624D01*
X113254327Y-112953219D01*
X113281377Y-112895209D01*
X113327549Y-112842770D01*
X113394742Y-112823618D01*
X113461624Y-112843833D01*
X113506141Y-112895210D01*
X113533188Y-112953213D01*
X113533191Y-112953219D01*
X113663713Y-113139626D01*
X113824617Y-113300530D01*
X113824620Y-113300532D01*
X114011025Y-113431053D01*
X114217263Y-113527224D01*
X114437067Y-113586120D01*
X114598989Y-113600286D01*
X114663757Y-113605953D01*
X114663759Y-113605953D01*
X114663761Y-113605953D01*
X114720432Y-113600994D01*
X114890451Y-113586120D01*
X115110255Y-113527224D01*
X115316493Y-113431053D01*
X115502898Y-113300532D01*
X115663806Y-113139624D01*
X115794327Y-112953219D01*
X115890498Y-112746981D01*
X115949394Y-112527177D01*
X115969227Y-112300485D01*
X115949394Y-112073793D01*
X115897336Y-111879509D01*
X115890500Y-111853996D01*
X115890497Y-111853987D01*
X115794327Y-111647752D01*
X115794326Y-111647750D01*
X115737669Y-111566835D01*
X115663806Y-111461346D01*
X115663804Y-111461343D01*
X115502900Y-111300439D01*
X115316493Y-111169917D01*
X115316491Y-111169916D01*
X115110256Y-111073746D01*
X115110247Y-111073743D01*
X114890456Y-111014851D01*
X114890452Y-111014850D01*
X114890451Y-111014850D01*
X114890450Y-111014849D01*
X114890445Y-111014849D01*
X114663761Y-110995017D01*
X114663757Y-110995017D01*
X114437072Y-111014849D01*
X114437061Y-111014851D01*
X114217270Y-111073743D01*
X114217261Y-111073746D01*
X114011026Y-111169916D01*
X114011024Y-111169917D01*
X113824617Y-111300439D01*
X113663713Y-111461343D01*
X113533191Y-111647750D01*
X113533190Y-111647752D01*
X113506141Y-111705760D01*
X113459968Y-111758199D01*
X113392775Y-111777351D01*
X113325894Y-111757135D01*
X113281377Y-111705760D01*
X113254327Y-111647752D01*
X113254326Y-111647750D01*
X113197669Y-111566835D01*
X113123806Y-111461346D01*
X113123804Y-111461343D01*
X112962900Y-111300439D01*
X112776493Y-111169917D01*
X112776491Y-111169916D01*
X112570256Y-111073746D01*
X112570247Y-111073743D01*
X112350456Y-111014851D01*
X112350452Y-111014850D01*
X112350451Y-111014850D01*
X112350450Y-111014849D01*
X112350445Y-111014849D01*
X112123761Y-110995017D01*
X112123757Y-110995017D01*
X111897072Y-111014849D01*
X111897061Y-111014851D01*
X111677270Y-111073743D01*
X111677261Y-111073746D01*
X111471026Y-111169916D01*
X111471024Y-111169917D01*
X111284617Y-111300439D01*
X111123713Y-111461343D01*
X110993191Y-111647750D01*
X110993190Y-111647752D01*
X110966141Y-111705760D01*
X110919968Y-111758199D01*
X110852775Y-111777351D01*
X110785894Y-111757135D01*
X110741377Y-111705760D01*
X110714327Y-111647752D01*
X110714326Y-111647750D01*
X110657669Y-111566835D01*
X110583806Y-111461346D01*
X110583804Y-111461343D01*
X110422900Y-111300439D01*
X110236493Y-111169917D01*
X110236491Y-111169916D01*
X110030256Y-111073746D01*
X110030247Y-111073743D01*
X109810456Y-111014851D01*
X109810452Y-111014850D01*
X109810451Y-111014850D01*
X109810450Y-111014849D01*
X109810445Y-111014849D01*
X109583761Y-110995017D01*
X109583757Y-110995017D01*
X109357072Y-111014849D01*
X109357061Y-111014851D01*
X109137270Y-111073743D01*
X109137261Y-111073746D01*
X108931026Y-111169916D01*
X108931024Y-111169917D01*
X108744617Y-111300439D01*
X108583713Y-111461343D01*
X108453191Y-111647750D01*
X108453190Y-111647752D01*
X108426141Y-111705760D01*
X108379968Y-111758199D01*
X108312775Y-111777351D01*
X108245894Y-111757135D01*
X108201377Y-111705760D01*
X108174327Y-111647752D01*
X108174326Y-111647750D01*
X108117669Y-111566835D01*
X108043806Y-111461346D01*
X108043804Y-111461343D01*
X107882900Y-111300439D01*
X107696493Y-111169917D01*
X107696491Y-111169916D01*
X107490256Y-111073746D01*
X107490247Y-111073743D01*
X107270456Y-111014851D01*
X107270452Y-111014850D01*
X107270451Y-111014850D01*
X107270450Y-111014849D01*
X107270445Y-111014849D01*
X107043761Y-110995017D01*
X107043757Y-110995017D01*
X106817072Y-111014849D01*
X106817061Y-111014851D01*
X106597270Y-111073743D01*
X106597261Y-111073746D01*
X106391026Y-111169916D01*
X106391024Y-111169917D01*
X106204617Y-111300439D01*
X106043713Y-111461343D01*
X105913191Y-111647750D01*
X105913190Y-111647752D01*
X105886141Y-111705760D01*
X105839968Y-111758199D01*
X105772775Y-111777351D01*
X105705894Y-111757135D01*
X105661377Y-111705760D01*
X105634327Y-111647752D01*
X105634326Y-111647750D01*
X105577669Y-111566835D01*
X105503806Y-111461346D01*
X105503804Y-111461343D01*
X105342900Y-111300439D01*
X105156493Y-111169917D01*
X105156491Y-111169916D01*
X104950256Y-111073746D01*
X104950247Y-111073743D01*
X104730456Y-111014851D01*
X104730452Y-111014850D01*
X104730451Y-111014850D01*
X104730450Y-111014849D01*
X104730445Y-111014849D01*
X104503761Y-110995017D01*
X104503757Y-110995017D01*
X104277072Y-111014849D01*
X104277061Y-111014851D01*
X104057270Y-111073743D01*
X104057261Y-111073746D01*
X103851026Y-111169916D01*
X103851024Y-111169917D01*
X103664617Y-111300439D01*
X103503713Y-111461343D01*
X103373191Y-111647750D01*
X103373190Y-111647752D01*
X103346141Y-111705760D01*
X103299968Y-111758199D01*
X103232775Y-111777351D01*
X103165894Y-111757135D01*
X103121377Y-111705760D01*
X103094327Y-111647752D01*
X103094326Y-111647750D01*
X103037669Y-111566835D01*
X102963806Y-111461346D01*
X102963804Y-111461343D01*
X102802900Y-111300439D01*
X102616493Y-111169917D01*
X102616491Y-111169916D01*
X102410256Y-111073746D01*
X102410247Y-111073743D01*
X102190456Y-111014851D01*
X102190452Y-111014850D01*
X102190451Y-111014850D01*
X102190450Y-111014849D01*
X102190445Y-111014849D01*
X101963761Y-110995017D01*
X101963757Y-110995017D01*
X101737072Y-111014849D01*
X101737061Y-111014851D01*
X101517270Y-111073743D01*
X101517261Y-111073746D01*
X101311026Y-111169916D01*
X101311024Y-111169917D01*
X101124617Y-111300439D01*
X100963713Y-111461343D01*
X100833191Y-111647750D01*
X100833190Y-111647752D01*
X100806141Y-111705760D01*
X100759968Y-111758199D01*
X100692775Y-111777351D01*
X100625894Y-111757135D01*
X100581377Y-111705760D01*
X100554327Y-111647752D01*
X100554326Y-111647750D01*
X100497669Y-111566835D01*
X100423806Y-111461346D01*
X100423804Y-111461343D01*
X100262900Y-111300439D01*
X100076493Y-111169917D01*
X100076491Y-111169916D01*
X99870256Y-111073746D01*
X99870247Y-111073743D01*
X99650456Y-111014851D01*
X99650452Y-111014850D01*
X99650451Y-111014850D01*
X99650450Y-111014849D01*
X99650445Y-111014849D01*
X99423761Y-110995017D01*
X99423757Y-110995017D01*
X99197072Y-111014849D01*
X99197061Y-111014851D01*
X98977270Y-111073743D01*
X98977261Y-111073746D01*
X98771026Y-111169916D01*
X98771024Y-111169917D01*
X98584617Y-111300439D01*
X98423713Y-111461343D01*
X98293191Y-111647750D01*
X98293190Y-111647752D01*
X98266141Y-111705760D01*
X98219968Y-111758199D01*
X98152775Y-111777351D01*
X98085894Y-111757135D01*
X98041377Y-111705760D01*
X98014327Y-111647752D01*
X98014326Y-111647750D01*
X97957669Y-111566835D01*
X97883806Y-111461346D01*
X97883804Y-111461343D01*
X97722900Y-111300439D01*
X97536493Y-111169917D01*
X97536491Y-111169916D01*
X97330256Y-111073746D01*
X97330247Y-111073743D01*
X97110456Y-111014851D01*
X97110452Y-111014850D01*
X97110451Y-111014850D01*
X97110450Y-111014849D01*
X97110445Y-111014849D01*
X96883761Y-110995017D01*
X96883757Y-110995017D01*
X96657072Y-111014849D01*
X96657061Y-111014851D01*
X96437270Y-111073743D01*
X96437261Y-111073746D01*
X96231026Y-111169916D01*
X96231024Y-111169917D01*
X96044617Y-111300439D01*
X95883713Y-111461343D01*
X95753191Y-111647750D01*
X95753190Y-111647752D01*
X95726141Y-111705760D01*
X95679968Y-111758199D01*
X95612775Y-111777351D01*
X95545894Y-111757135D01*
X95501377Y-111705760D01*
X95474327Y-111647752D01*
X95474326Y-111647750D01*
X95417669Y-111566835D01*
X95343806Y-111461346D01*
X95343804Y-111461343D01*
X95182900Y-111300439D01*
X94996493Y-111169917D01*
X94996491Y-111169916D01*
X94790256Y-111073746D01*
X94790247Y-111073743D01*
X94570456Y-111014851D01*
X94570452Y-111014850D01*
X94570451Y-111014850D01*
X94570450Y-111014849D01*
X94570445Y-111014849D01*
X94343761Y-110995017D01*
X94343757Y-110995017D01*
X94117072Y-111014849D01*
X94117061Y-111014851D01*
X93897270Y-111073743D01*
X93897261Y-111073746D01*
X93691026Y-111169916D01*
X93691024Y-111169917D01*
X93504617Y-111300439D01*
X93343713Y-111461343D01*
X93213191Y-111647750D01*
X93213190Y-111647752D01*
X93186141Y-111705760D01*
X93139968Y-111758199D01*
X93072775Y-111777351D01*
X93005894Y-111757135D01*
X92961377Y-111705760D01*
X92934327Y-111647752D01*
X92934326Y-111647750D01*
X92877669Y-111566835D01*
X92803806Y-111461346D01*
X92803804Y-111461343D01*
X92642900Y-111300439D01*
X92456493Y-111169917D01*
X92456491Y-111169916D01*
X92250256Y-111073746D01*
X92250247Y-111073743D01*
X92030456Y-111014851D01*
X92030452Y-111014850D01*
X92030451Y-111014850D01*
X92030450Y-111014849D01*
X92030445Y-111014849D01*
X91803761Y-110995017D01*
X91803757Y-110995017D01*
X91577072Y-111014849D01*
X91577061Y-111014851D01*
X91357270Y-111073743D01*
X91357261Y-111073746D01*
X91151026Y-111169916D01*
X91151024Y-111169917D01*
X90964617Y-111300439D01*
X90803713Y-111461343D01*
X90673191Y-111647750D01*
X90673190Y-111647752D01*
X90646141Y-111705760D01*
X90599968Y-111758199D01*
X90532775Y-111777351D01*
X90465894Y-111757135D01*
X90421377Y-111705760D01*
X90394327Y-111647752D01*
X90394326Y-111647750D01*
X90337669Y-111566835D01*
X90263806Y-111461346D01*
X90263804Y-111461343D01*
X90102900Y-111300439D01*
X89916493Y-111169917D01*
X89916491Y-111169916D01*
X89710256Y-111073746D01*
X89710247Y-111073743D01*
X89490456Y-111014851D01*
X89490452Y-111014850D01*
X89490451Y-111014850D01*
X89490450Y-111014849D01*
X89490445Y-111014849D01*
X89263761Y-110995017D01*
X89263757Y-110995017D01*
X89037072Y-111014849D01*
X89037061Y-111014851D01*
X88817270Y-111073743D01*
X88817261Y-111073746D01*
X88611026Y-111169916D01*
X88611024Y-111169917D01*
X88424617Y-111300439D01*
X88263713Y-111461343D01*
X88133191Y-111647750D01*
X88133190Y-111647752D01*
X88106141Y-111705760D01*
X88059968Y-111758199D01*
X87992775Y-111777351D01*
X87925894Y-111757135D01*
X87881377Y-111705760D01*
X87854327Y-111647752D01*
X87854326Y-111647750D01*
X87797669Y-111566835D01*
X87723806Y-111461346D01*
X87723804Y-111461343D01*
X87562900Y-111300439D01*
X87376493Y-111169917D01*
X87376491Y-111169916D01*
X87170256Y-111073746D01*
X87170247Y-111073743D01*
X86950456Y-111014851D01*
X86950452Y-111014850D01*
X86950451Y-111014850D01*
X86950450Y-111014849D01*
X86950445Y-111014849D01*
X86723761Y-110995017D01*
X86723757Y-110995017D01*
X86497072Y-111014849D01*
X86497061Y-111014851D01*
X86277270Y-111073743D01*
X86277261Y-111073746D01*
X86071026Y-111169916D01*
X86071024Y-111169917D01*
X85884617Y-111300439D01*
X85723713Y-111461343D01*
X85593191Y-111647750D01*
X85593190Y-111647752D01*
X85497020Y-111853987D01*
X85497017Y-111853996D01*
X85438125Y-112073787D01*
X85438123Y-112073798D01*
X85418291Y-112300483D01*
X79660884Y-112300483D01*
X87474548Y-104486818D01*
X87535871Y-104453334D01*
X87562229Y-104450500D01*
X94873920Y-104450500D01*
X94971462Y-104431096D01*
X95018913Y-104421658D01*
X95155495Y-104365084D01*
X95204729Y-104332186D01*
X95278416Y-104282952D01*
X101862318Y-97699047D01*
X101923641Y-97665563D01*
X101993333Y-97670547D01*
X102037680Y-97699048D01*
X102821586Y-98482954D01*
X102833431Y-98490868D01*
X102895270Y-98532186D01*
X102944505Y-98565084D01*
X102944506Y-98565084D01*
X102944507Y-98565085D01*
X102944509Y-98565086D01*
X103081082Y-98621656D01*
X103081087Y-98621658D01*
X103081091Y-98621658D01*
X103081092Y-98621659D01*
X103226079Y-98650500D01*
X103226082Y-98650500D01*
X110273920Y-98650500D01*
X110371462Y-98631096D01*
X110418913Y-98621658D01*
X110555495Y-98565084D01*
X110604729Y-98532186D01*
X110604734Y-98532183D01*
X110666568Y-98490868D01*
X110678416Y-98482952D01*
X115022952Y-94138415D01*
X115064274Y-94076571D01*
X115105084Y-94015495D01*
X115147662Y-93912703D01*
X115153752Y-93898002D01*
X115161657Y-93878916D01*
X115161659Y-93878912D01*
X115190500Y-93733917D01*
X115190500Y-93586082D01*
X115190500Y-90626662D01*
X115210185Y-90559623D01*
X115243379Y-90525086D01*
X115279139Y-90500047D01*
X115440047Y-90339139D01*
X115570568Y-90152734D01*
X115666739Y-89946496D01*
X115725635Y-89726692D01*
X115744963Y-89505772D01*
X115745468Y-89500001D01*
X115745468Y-89499998D01*
X123294532Y-89499998D01*
X123294532Y-89500001D01*
X123314364Y-89726686D01*
X123314366Y-89726697D01*
X123373258Y-89946488D01*
X123373261Y-89946497D01*
X123469431Y-90152732D01*
X123469432Y-90152734D01*
X123599954Y-90339141D01*
X123760858Y-90500045D01*
X123780063Y-90513492D01*
X123947266Y-90630568D01*
X124153504Y-90726739D01*
X124373308Y-90785635D01*
X124535230Y-90799801D01*
X124599998Y-90805468D01*
X124600000Y-90805468D01*
X124600002Y-90805468D01*
X124656673Y-90800509D01*
X124826692Y-90785635D01*
X125046496Y-90726739D01*
X125252734Y-90630568D01*
X125439139Y-90500047D01*
X125600047Y-90339139D01*
X125730568Y-90152734D01*
X125826739Y-89946496D01*
X125885635Y-89726692D01*
X125904963Y-89505772D01*
X125905468Y-89500001D01*
X125905468Y-89499998D01*
X125886396Y-89282007D01*
X125885635Y-89273308D01*
X125826739Y-89053504D01*
X125730568Y-88847266D01*
X125600047Y-88660861D01*
X125600045Y-88660858D01*
X125439141Y-88499954D01*
X125252734Y-88369432D01*
X125252732Y-88369431D01*
X125046497Y-88273261D01*
X125046488Y-88273258D01*
X124826697Y-88214366D01*
X124826693Y-88214365D01*
X124826692Y-88214365D01*
X124826691Y-88214364D01*
X124826686Y-88214364D01*
X124600002Y-88194532D01*
X124599998Y-88194532D01*
X124373313Y-88214364D01*
X124373302Y-88214366D01*
X124153511Y-88273258D01*
X124153502Y-88273261D01*
X123947267Y-88369431D01*
X123947265Y-88369432D01*
X123760858Y-88499954D01*
X123599954Y-88660858D01*
X123469432Y-88847265D01*
X123469431Y-88847267D01*
X123373261Y-89053502D01*
X123373258Y-89053511D01*
X123314366Y-89273302D01*
X123314364Y-89273313D01*
X123294532Y-89499998D01*
X115745468Y-89499998D01*
X115726396Y-89282007D01*
X115725635Y-89273308D01*
X115666739Y-89053504D01*
X115570568Y-88847266D01*
X115494873Y-88739161D01*
X115440048Y-88660862D01*
X115366116Y-88586930D01*
X115279139Y-88499953D01*
X115254485Y-88482690D01*
X115210863Y-88428115D01*
X115203670Y-88358616D01*
X115235192Y-88296262D01*
X115237898Y-88293468D01*
X116744548Y-86786819D01*
X116805871Y-86753334D01*
X116832229Y-86750500D01*
X135137770Y-86750500D01*
X135204809Y-86770185D01*
X135225451Y-86786819D01*
X136293181Y-87854548D01*
X136326666Y-87915871D01*
X136329500Y-87942229D01*
X136329500Y-88287298D01*
X136309815Y-88354337D01*
X136276625Y-88388872D01*
X136208595Y-88436507D01*
X136041505Y-88603597D01*
X135911575Y-88789158D01*
X135856998Y-88832783D01*
X135787500Y-88839977D01*
X135725145Y-88808454D01*
X135708425Y-88789158D01*
X135578494Y-88603597D01*
X135411402Y-88436506D01*
X135411395Y-88436501D01*
X135388303Y-88420332D01*
X135334518Y-88382671D01*
X135217834Y-88300967D01*
X135217830Y-88300965D01*
X135170801Y-88279035D01*
X135003663Y-88201097D01*
X135003659Y-88201096D01*
X135003655Y-88201094D01*
X134775413Y-88139938D01*
X134775403Y-88139936D01*
X134540001Y-88119341D01*
X134539999Y-88119341D01*
X134304596Y-88139936D01*
X134304586Y-88139938D01*
X134076344Y-88201094D01*
X134076335Y-88201098D01*
X133862171Y-88300964D01*
X133862169Y-88300965D01*
X133668600Y-88436503D01*
X133546284Y-88558819D01*
X133484961Y-88592303D01*
X133415269Y-88587319D01*
X133359336Y-88545447D01*
X133342421Y-88514470D01*
X133293354Y-88382913D01*
X133293350Y-88382906D01*
X133207190Y-88267812D01*
X133207187Y-88267809D01*
X133092093Y-88181649D01*
X133092086Y-88181645D01*
X132957379Y-88131403D01*
X132957372Y-88131401D01*
X132897844Y-88125000D01*
X132250000Y-88125000D01*
X132250000Y-89041988D01*
X132192993Y-89009075D01*
X132065826Y-88975000D01*
X131934174Y-88975000D01*
X131807007Y-89009075D01*
X131750000Y-89041988D01*
X131750000Y-88125000D01*
X131102155Y-88125000D01*
X131042627Y-88131401D01*
X131042620Y-88131403D01*
X130907913Y-88181645D01*
X130907906Y-88181649D01*
X130792812Y-88267809D01*
X130792809Y-88267812D01*
X130706649Y-88382906D01*
X130706645Y-88382913D01*
X130656403Y-88517620D01*
X130656401Y-88517627D01*
X130650000Y-88577155D01*
X130650000Y-89225000D01*
X131566988Y-89225000D01*
X131534075Y-89282007D01*
X131500000Y-89409174D01*
X131500000Y-89540826D01*
X131534075Y-89667993D01*
X131566988Y-89725000D01*
X130650000Y-89725000D01*
X130650000Y-90372844D01*
X130656401Y-90432372D01*
X130656403Y-90432379D01*
X130706645Y-90567086D01*
X130706649Y-90567093D01*
X130792809Y-90682187D01*
X130792812Y-90682190D01*
X130907906Y-90768350D01*
X130907913Y-90768354D01*
X131042620Y-90818596D01*
X131042627Y-90818598D01*
X131102155Y-90824999D01*
X131102172Y-90825000D01*
X131750000Y-90825000D01*
X131750000Y-89908012D01*
X131807007Y-89940925D01*
X131934174Y-89975000D01*
X132065826Y-89975000D01*
X132192993Y-89940925D01*
X132250000Y-89908012D01*
X132250000Y-90825000D01*
X132897828Y-90825000D01*
X132897844Y-90824999D01*
X132957372Y-90818598D01*
X132957379Y-90818596D01*
X133092086Y-90768354D01*
X133092093Y-90768350D01*
X133207187Y-90682190D01*
X133207190Y-90682187D01*
X133293350Y-90567093D01*
X133293354Y-90567086D01*
X133342422Y-90435529D01*
X133384293Y-90379595D01*
X133449757Y-90355178D01*
X133518030Y-90370030D01*
X133546285Y-90391181D01*
X133668599Y-90513495D01*
X133746277Y-90567886D01*
X133862165Y-90649032D01*
X133862167Y-90649033D01*
X133862170Y-90649035D01*
X134076337Y-90748903D01*
X134076343Y-90748904D01*
X134076344Y-90748905D01*
X134107265Y-90757190D01*
X134304592Y-90810063D01*
X134481034Y-90825500D01*
X134539999Y-90830659D01*
X134540000Y-90830659D01*
X134540001Y-90830659D01*
X134598966Y-90825500D01*
X134775408Y-90810063D01*
X135003663Y-90748903D01*
X135217830Y-90649035D01*
X135411401Y-90513495D01*
X135578495Y-90346401D01*
X135708425Y-90160842D01*
X135763002Y-90117217D01*
X135832500Y-90110023D01*
X135894855Y-90141546D01*
X135911575Y-90160842D01*
X136041501Y-90346396D01*
X136041506Y-90346402D01*
X136208595Y-90513492D01*
X136208598Y-90513494D01*
X136208599Y-90513495D01*
X136276623Y-90561125D01*
X136320248Y-90615701D01*
X136329500Y-90662700D01*
X136329500Y-93557769D01*
X136309815Y-93624808D01*
X136293181Y-93645450D01*
X132237050Y-97701580D01*
X132237044Y-97701588D01*
X132187812Y-97775268D01*
X132187813Y-97775269D01*
X132154921Y-97824496D01*
X132154914Y-97824508D01*
X132098342Y-97961086D01*
X132098340Y-97961092D01*
X132069500Y-98106079D01*
X132069500Y-109601032D01*
X132049815Y-109668071D01*
X132016625Y-109702606D01*
X131980863Y-109727647D01*
X131819951Y-109888558D01*
X131689433Y-110074960D01*
X131689432Y-110074962D01*
X131689315Y-110075214D01*
X131662106Y-110133563D01*
X131615933Y-110186002D01*
X131548739Y-110205153D01*
X131481858Y-110184937D01*
X131437342Y-110133561D01*
X131410135Y-110075216D01*
X131410134Y-110075214D01*
X131279657Y-109888875D01*
X131118820Y-109728038D01*
X130932482Y-109597561D01*
X130726328Y-109501430D01*
X130530000Y-109448823D01*
X130530000Y-110294684D01*
X130472993Y-110261771D01*
X130345826Y-110227696D01*
X130214174Y-110227696D01*
X130087007Y-110261771D01*
X130030000Y-110294684D01*
X130030000Y-109448823D01*
X129833671Y-109501430D01*
X129627517Y-109597561D01*
X129441179Y-109728038D01*
X129280342Y-109888875D01*
X129149867Y-110075211D01*
X129122657Y-110133563D01*
X129076484Y-110186002D01*
X129009290Y-110205153D01*
X128942409Y-110184937D01*
X128897893Y-110133561D01*
X128870685Y-110075214D01*
X128870568Y-110074962D01*
X128740047Y-109888557D01*
X128740045Y-109888554D01*
X128579141Y-109727650D01*
X128392734Y-109597128D01*
X128392732Y-109597127D01*
X128186497Y-109500957D01*
X128186488Y-109500954D01*
X127966697Y-109442062D01*
X127966693Y-109442061D01*
X127966692Y-109442061D01*
X127966691Y-109442060D01*
X127966686Y-109442060D01*
X127740002Y-109422228D01*
X127739998Y-109422228D01*
X127513313Y-109442060D01*
X127513302Y-109442062D01*
X127293511Y-109500954D01*
X127293502Y-109500957D01*
X127087267Y-109597127D01*
X127087265Y-109597128D01*
X126900858Y-109727650D01*
X126739954Y-109888554D01*
X126609432Y-110074961D01*
X126609431Y-110074963D01*
X126513261Y-110281198D01*
X126513258Y-110281207D01*
X126454366Y-110500998D01*
X126454364Y-110501009D01*
X126434532Y-110727694D01*
X126434532Y-110727697D01*
X126454364Y-110954382D01*
X126454366Y-110954393D01*
X126513258Y-111174184D01*
X126513261Y-111174193D01*
X126609431Y-111380428D01*
X126609432Y-111380430D01*
X126739954Y-111566837D01*
X126900858Y-111727741D01*
X126944357Y-111758199D01*
X127087266Y-111858264D01*
X127293504Y-111954435D01*
X127513308Y-112013331D01*
X127675230Y-112027497D01*
X127739998Y-112033164D01*
X127740000Y-112033164D01*
X127740002Y-112033164D01*
X127796673Y-112028205D01*
X127966692Y-112013331D01*
X128186496Y-111954435D01*
X128392734Y-111858264D01*
X128579139Y-111727743D01*
X128740047Y-111566835D01*
X128870568Y-111380430D01*
X128897895Y-111321825D01*
X128944064Y-111269391D01*
X129011257Y-111250238D01*
X129078139Y-111270453D01*
X129122657Y-111321829D01*
X129149865Y-111380178D01*
X129280342Y-111566516D01*
X129441179Y-111727353D01*
X129627517Y-111857830D01*
X129833673Y-111953961D01*
X129833682Y-111953965D01*
X130029999Y-112006568D01*
X130030000Y-112006567D01*
X130030000Y-111160708D01*
X130087007Y-111193621D01*
X130214174Y-111227696D01*
X130345826Y-111227696D01*
X130472993Y-111193621D01*
X130530000Y-111160708D01*
X130530000Y-112006568D01*
X130726317Y-111953965D01*
X130726326Y-111953961D01*
X130932482Y-111857830D01*
X131118820Y-111727353D01*
X131279657Y-111566516D01*
X131410132Y-111380180D01*
X131437341Y-111321830D01*
X131483513Y-111269391D01*
X131550707Y-111250238D01*
X131617588Y-111270453D01*
X131662105Y-111321828D01*
X131684088Y-111368971D01*
X131689431Y-111380428D01*
X131689432Y-111380430D01*
X131819954Y-111566837D01*
X131980858Y-111727741D01*
X132024357Y-111758199D01*
X132167266Y-111858264D01*
X132373504Y-111954435D01*
X132593308Y-112013331D01*
X132755230Y-112027497D01*
X132819998Y-112033164D01*
X132820000Y-112033164D01*
X132820002Y-112033164D01*
X132876673Y-112028205D01*
X133046692Y-112013331D01*
X133266496Y-111954435D01*
X133472734Y-111858264D01*
X133659139Y-111727743D01*
X133820047Y-111566835D01*
X133950568Y-111380430D01*
X133977618Y-111322420D01*
X134023790Y-111269981D01*
X134090983Y-111250829D01*
X134157865Y-111271044D01*
X134202382Y-111322421D01*
X134229429Y-111380424D01*
X134229432Y-111380430D01*
X134359954Y-111566837D01*
X134520858Y-111727741D01*
X134564357Y-111758199D01*
X134707266Y-111858264D01*
X134913504Y-111954435D01*
X135133308Y-112013331D01*
X135295230Y-112027497D01*
X135359998Y-112033164D01*
X135360000Y-112033164D01*
X135360002Y-112033164D01*
X135416673Y-112028205D01*
X135586692Y-112013331D01*
X135806496Y-111954435D01*
X136012734Y-111858264D01*
X136199139Y-111727743D01*
X136360047Y-111566835D01*
X136490568Y-111380430D01*
X136517618Y-111322420D01*
X136563790Y-111269981D01*
X136630983Y-111250829D01*
X136697865Y-111271044D01*
X136742382Y-111322421D01*
X136769429Y-111380424D01*
X136769432Y-111380430D01*
X136899954Y-111566837D01*
X137060858Y-111727741D01*
X137104357Y-111758199D01*
X137247266Y-111858264D01*
X137453504Y-111954435D01*
X137673308Y-112013331D01*
X137835230Y-112027497D01*
X137899998Y-112033164D01*
X137900000Y-112033164D01*
X137900002Y-112033164D01*
X137956673Y-112028205D01*
X138126692Y-112013331D01*
X138346496Y-111954435D01*
X138552734Y-111858264D01*
X138739139Y-111727743D01*
X138900047Y-111566835D01*
X139030568Y-111380430D01*
X139057618Y-111322420D01*
X139103790Y-111269981D01*
X139170983Y-111250829D01*
X139237865Y-111271044D01*
X139282382Y-111322421D01*
X139309429Y-111380424D01*
X139309432Y-111380430D01*
X139439954Y-111566837D01*
X139600858Y-111727741D01*
X139644357Y-111758199D01*
X139787266Y-111858264D01*
X139993504Y-111954435D01*
X140213308Y-112013331D01*
X140375230Y-112027497D01*
X140439998Y-112033164D01*
X140440000Y-112033164D01*
X140440002Y-112033164D01*
X140496673Y-112028205D01*
X140666692Y-112013331D01*
X140886496Y-111954435D01*
X141092734Y-111858264D01*
X141279139Y-111727743D01*
X141440047Y-111566835D01*
X141570568Y-111380430D01*
X141666739Y-111174192D01*
X141725635Y-110954388D01*
X141745468Y-110727696D01*
X141725635Y-110501004D01*
X141666739Y-110281200D01*
X141570568Y-110074962D01*
X141440047Y-109888557D01*
X141440045Y-109888554D01*
X141279141Y-109727650D01*
X141092734Y-109597128D01*
X141092732Y-109597127D01*
X140886497Y-109500957D01*
X140886488Y-109500954D01*
X140666697Y-109442062D01*
X140666693Y-109442061D01*
X140666692Y-109442061D01*
X140666691Y-109442060D01*
X140666686Y-109442060D01*
X140440002Y-109422228D01*
X140439998Y-109422228D01*
X140213313Y-109442060D01*
X140213302Y-109442062D01*
X139993511Y-109500954D01*
X139993502Y-109500957D01*
X139787267Y-109597127D01*
X139787265Y-109597128D01*
X139600858Y-109727650D01*
X139439954Y-109888554D01*
X139309432Y-110074961D01*
X139309431Y-110074963D01*
X139282382Y-110132971D01*
X139236209Y-110185410D01*
X139169016Y-110204562D01*
X139102135Y-110184346D01*
X139057618Y-110132971D01*
X139030686Y-110075216D01*
X139030568Y-110074962D01*
X138900047Y-109888557D01*
X138900045Y-109888554D01*
X138739141Y-109727650D01*
X138552734Y-109597128D01*
X138552732Y-109597127D01*
X138346497Y-109500957D01*
X138346488Y-109500954D01*
X138126697Y-109442062D01*
X138126693Y-109442061D01*
X138126692Y-109442061D01*
X138126691Y-109442060D01*
X138126686Y-109442060D01*
X137900002Y-109422228D01*
X137899998Y-109422228D01*
X137673313Y-109442060D01*
X137673302Y-109442062D01*
X137453511Y-109500954D01*
X137453502Y-109500957D01*
X137247267Y-109597127D01*
X137247265Y-109597128D01*
X137060858Y-109727650D01*
X136899954Y-109888554D01*
X136769432Y-110074961D01*
X136769431Y-110074963D01*
X136742382Y-110132971D01*
X136696209Y-110185410D01*
X136629016Y-110204562D01*
X136562135Y-110184346D01*
X136517618Y-110132971D01*
X136490686Y-110075216D01*
X136490568Y-110074962D01*
X136360047Y-109888557D01*
X136199139Y-109727649D01*
X136190299Y-109721459D01*
X136163375Y-109702606D01*
X136119751Y-109648028D01*
X136110500Y-109601032D01*
X136110500Y-106702230D01*
X136130185Y-106635191D01*
X136146819Y-106614549D01*
X136899788Y-105861580D01*
X140202952Y-102558416D01*
X140252186Y-102484729D01*
X140285084Y-102435495D01*
X140341658Y-102298913D01*
X140370500Y-102153918D01*
X140370500Y-90662700D01*
X140390185Y-90595661D01*
X140423375Y-90561126D01*
X140491401Y-90513495D01*
X140658495Y-90346401D01*
X140788425Y-90160842D01*
X140843002Y-90117217D01*
X140912500Y-90110023D01*
X140974855Y-90141546D01*
X140991575Y-90160842D01*
X141121500Y-90346395D01*
X141121505Y-90346401D01*
X141288599Y-90513495D01*
X141366277Y-90567886D01*
X141482165Y-90649032D01*
X141482167Y-90649033D01*
X141482170Y-90649035D01*
X141696337Y-90748903D01*
X141696343Y-90748904D01*
X141696344Y-90748905D01*
X141727265Y-90757190D01*
X141924592Y-90810063D01*
X142101034Y-90825500D01*
X142159999Y-90830659D01*
X142160000Y-90830659D01*
X142160001Y-90830659D01*
X142218966Y-90825500D01*
X142395408Y-90810063D01*
X142623663Y-90748903D01*
X142837830Y-90649035D01*
X143031401Y-90513495D01*
X143198495Y-90346401D01*
X143328425Y-90160842D01*
X143383002Y-90117217D01*
X143452500Y-90110023D01*
X143514855Y-90141546D01*
X143531575Y-90160842D01*
X143661500Y-90346395D01*
X143661505Y-90346401D01*
X143828599Y-90513495D01*
X143906277Y-90567886D01*
X144022165Y-90649032D01*
X144022167Y-90649033D01*
X144022170Y-90649035D01*
X144236337Y-90748903D01*
X144236343Y-90748904D01*
X144236344Y-90748905D01*
X144267265Y-90757190D01*
X144464592Y-90810063D01*
X144641034Y-90825500D01*
X144699999Y-90830659D01*
X144700000Y-90830659D01*
X144700001Y-90830659D01*
X144758966Y-90825500D01*
X144935408Y-90810063D01*
X145163663Y-90748903D01*
X145377830Y-90649035D01*
X145571401Y-90513495D01*
X145738495Y-90346401D01*
X145874035Y-90152830D01*
X145973903Y-89938663D01*
X146035063Y-89710408D01*
X146055659Y-89475000D01*
X146035063Y-89239592D01*
X145985203Y-89053511D01*
X145973905Y-89011344D01*
X145973904Y-89011343D01*
X145973903Y-89011337D01*
X145874035Y-88797171D01*
X145868425Y-88789158D01*
X145738494Y-88603597D01*
X145571404Y-88436507D01*
X145503375Y-88388872D01*
X145459751Y-88334294D01*
X145450500Y-88287298D01*
X145450500Y-84726081D01*
X145444763Y-84697242D01*
X145444763Y-84697240D01*
X145421660Y-84581095D01*
X145421659Y-84581088D01*
X145379130Y-84478416D01*
X145365084Y-84444505D01*
X145305609Y-84355494D01*
X145282952Y-84321584D01*
X137864204Y-76902836D01*
X130378421Y-69417052D01*
X130378414Y-69417046D01*
X130304729Y-69367812D01*
X130304729Y-69367813D01*
X130255491Y-69334913D01*
X130118917Y-69278343D01*
X130118907Y-69278340D01*
X129973920Y-69249500D01*
X129973918Y-69249500D01*
X114362229Y-69249500D01*
X114295190Y-69229815D01*
X114274548Y-69213181D01*
X111118900Y-66057532D01*
X111118898Y-66057530D01*
X111069664Y-66024635D01*
X111036840Y-66002703D01*
X110995980Y-65975401D01*
X110995979Y-65975400D01*
X110995977Y-65975399D01*
X110995975Y-65975398D01*
X110864883Y-65921098D01*
X113807080Y-65921098D01*
X113807080Y-66163675D01*
X113835083Y-66376389D01*
X113838742Y-66404176D01*
X113845325Y-66428743D01*
X113901527Y-66638491D01*
X113982442Y-66833837D01*
X113994356Y-66862599D01*
X114115644Y-67072676D01*
X114115646Y-67072679D01*
X114115647Y-67072680D01*
X114263313Y-67265123D01*
X114263319Y-67265130D01*
X114434836Y-67436647D01*
X114434843Y-67436653D01*
X114501374Y-67487704D01*
X114627291Y-67584323D01*
X114837368Y-67705611D01*
X115061480Y-67798441D01*
X115295791Y-67861225D01*
X115476166Y-67884971D01*
X115536291Y-67892887D01*
X115536292Y-67892887D01*
X115778869Y-67892887D01*
X115826968Y-67886554D01*
X116019369Y-67861225D01*
X116253680Y-67798441D01*
X116477792Y-67705611D01*
X116687869Y-67584323D01*
X116880318Y-67436652D01*
X117051845Y-67265125D01*
X117199516Y-67072676D01*
X117320804Y-66862599D01*
X117413634Y-66638487D01*
X117476418Y-66404176D01*
X117508080Y-66163675D01*
X117508080Y-65921099D01*
X117502500Y-65878711D01*
X144712858Y-65878711D01*
X144712858Y-66121288D01*
X144744519Y-66361785D01*
X144807305Y-66596104D01*
X144868084Y-66742836D01*
X144900134Y-66820212D01*
X145021422Y-67030289D01*
X145021424Y-67030292D01*
X145021425Y-67030293D01*
X145169091Y-67222736D01*
X145169097Y-67222743D01*
X145340614Y-67394260D01*
X145340621Y-67394266D01*
X145395853Y-67436647D01*
X145533069Y-67541936D01*
X145743146Y-67663224D01*
X145938627Y-67744195D01*
X145959334Y-67752772D01*
X145967258Y-67756054D01*
X146201569Y-67818838D01*
X146381944Y-67842584D01*
X146442069Y-67850500D01*
X146442070Y-67850500D01*
X146684647Y-67850500D01*
X146732746Y-67844167D01*
X146925147Y-67818838D01*
X147159458Y-67756054D01*
X147383570Y-67663224D01*
X147593647Y-67541936D01*
X147786096Y-67394265D01*
X147957623Y-67222738D01*
X148105294Y-67030289D01*
X148226582Y-66820212D01*
X148319412Y-66596100D01*
X148382196Y-66361789D01*
X148413858Y-66121288D01*
X148413858Y-65878712D01*
X148410801Y-65855495D01*
X148392820Y-65718913D01*
X148382196Y-65638211D01*
X148319412Y-65403900D01*
X148226582Y-65179788D01*
X148105294Y-64969711D01*
X147992060Y-64822141D01*
X147957624Y-64777263D01*
X147957618Y-64777256D01*
X147786101Y-64605739D01*
X147786094Y-64605733D01*
X147593651Y-64458067D01*
X147593650Y-64458066D01*
X147593647Y-64458064D01*
X147383570Y-64336776D01*
X147383563Y-64336773D01*
X147159462Y-64243947D01*
X146925143Y-64181161D01*
X146684647Y-64149500D01*
X146684646Y-64149500D01*
X146442070Y-64149500D01*
X146442069Y-64149500D01*
X146201572Y-64181161D01*
X145967253Y-64243947D01*
X145743152Y-64336773D01*
X145743143Y-64336777D01*
X145533064Y-64458067D01*
X145340621Y-64605733D01*
X145340614Y-64605739D01*
X145169097Y-64777256D01*
X145169091Y-64777263D01*
X145021425Y-64969706D01*
X144900135Y-65179785D01*
X144900131Y-65179794D01*
X144807305Y-65403895D01*
X144744519Y-65638214D01*
X144712858Y-65878711D01*
X117502500Y-65878711D01*
X117476418Y-65680598D01*
X117413634Y-65446287D01*
X117320804Y-65222175D01*
X117199516Y-65012098D01*
X117090995Y-64870670D01*
X117051846Y-64819650D01*
X117051840Y-64819643D01*
X116880323Y-64648126D01*
X116880316Y-64648120D01*
X116687873Y-64500454D01*
X116687872Y-64500453D01*
X116687869Y-64500451D01*
X116477792Y-64379163D01*
X116477785Y-64379160D01*
X116253684Y-64286334D01*
X116019365Y-64223548D01*
X115778869Y-64191887D01*
X115778868Y-64191887D01*
X115536292Y-64191887D01*
X115536291Y-64191887D01*
X115295794Y-64223548D01*
X115061475Y-64286334D01*
X114837374Y-64379160D01*
X114837365Y-64379164D01*
X114627286Y-64500454D01*
X114434843Y-64648120D01*
X114434836Y-64648126D01*
X114263319Y-64819643D01*
X114263313Y-64819650D01*
X114115647Y-65012093D01*
X113994357Y-65222172D01*
X113994353Y-65222181D01*
X113901527Y-65446282D01*
X113838741Y-65680601D01*
X113807080Y-65921098D01*
X110864883Y-65921098D01*
X110859400Y-65918827D01*
X110859395Y-65918826D01*
X110845686Y-65916099D01*
X110783776Y-65883713D01*
X110769561Y-65867366D01*
X110760936Y-65855495D01*
X110715729Y-65793271D01*
X110715728Y-65793269D01*
X110570972Y-65648513D01*
X110405373Y-65528200D01*
X110398765Y-65524833D01*
X110312676Y-65480968D01*
X110261882Y-65432996D01*
X110245087Y-65365175D01*
X110267624Y-65299040D01*
X110312676Y-65260001D01*
X110405369Y-65212772D01*
X110450772Y-65179785D01*
X110570972Y-65092456D01*
X110570974Y-65092453D01*
X110570978Y-65092451D01*
X110715725Y-64947704D01*
X110715727Y-64947700D01*
X110715730Y-64947698D01*
X110796975Y-64835872D01*
X110836046Y-64782095D01*
X110928979Y-64599704D01*
X110992236Y-64405019D01*
X111024259Y-64202837D01*
X111024259Y-63998133D01*
X110995508Y-63816607D01*
X110992236Y-63795950D01*
X110928977Y-63601261D01*
X110887015Y-63518907D01*
X110836046Y-63418875D01*
X110784423Y-63347821D01*
X110715730Y-63253271D01*
X110570972Y-63108513D01*
X110405373Y-62988200D01*
X110358129Y-62964128D01*
X110312676Y-62940968D01*
X110261882Y-62892996D01*
X110245087Y-62825175D01*
X110267624Y-62759040D01*
X110312676Y-62720001D01*
X110405369Y-62672772D01*
X110490228Y-62611119D01*
X110570972Y-62552456D01*
X110570974Y-62552453D01*
X110570978Y-62552451D01*
X110715725Y-62407704D01*
X110715727Y-62407700D01*
X110715730Y-62407698D01*
X110785995Y-62310985D01*
X110836046Y-62242095D01*
X110928979Y-62059704D01*
X110992236Y-61865019D01*
X111024259Y-61662837D01*
X111024259Y-61458133D01*
X110992236Y-61255951D01*
X110928979Y-61061266D01*
X110928977Y-61061263D01*
X110928977Y-61061261D01*
X110886313Y-60977530D01*
X110836046Y-60878875D01*
X110823951Y-60862228D01*
X110715730Y-60713271D01*
X110570972Y-60568513D01*
X110405373Y-60448200D01*
X110361958Y-60426079D01*
X110312676Y-60400968D01*
X110261882Y-60352996D01*
X110245087Y-60285175D01*
X110267624Y-60219040D01*
X110312676Y-60180001D01*
X110405369Y-60132772D01*
X110498533Y-60065085D01*
X110570972Y-60012456D01*
X110570974Y-60012453D01*
X110570978Y-60012451D01*
X110715725Y-59867704D01*
X110715727Y-59867700D01*
X110715730Y-59867698D01*
X110768491Y-59795075D01*
X110836046Y-59702095D01*
X110928979Y-59519704D01*
X110992236Y-59325019D01*
X111024259Y-59122837D01*
X111024259Y-58918133D01*
X110992236Y-58715951D01*
X110975677Y-58664989D01*
X110928977Y-58521261D01*
X110886315Y-58437533D01*
X110836046Y-58338875D01*
X110828315Y-58328234D01*
X110715730Y-58173271D01*
X110570972Y-58028513D01*
X110405373Y-57908200D01*
X110398765Y-57904833D01*
X110312676Y-57860968D01*
X110261882Y-57812996D01*
X110245087Y-57745175D01*
X110267624Y-57679040D01*
X110312676Y-57640001D01*
X110405369Y-57592772D01*
X110426529Y-57577398D01*
X110570972Y-57472456D01*
X110570974Y-57472453D01*
X110570978Y-57472451D01*
X110715725Y-57327704D01*
X110715727Y-57327700D01*
X110715730Y-57327698D01*
X110785995Y-57230985D01*
X110836046Y-57162095D01*
X110928979Y-56979704D01*
X110992236Y-56785019D01*
X111024259Y-56582837D01*
X111024259Y-56378133D01*
X110992236Y-56175951D01*
X110928979Y-55981266D01*
X110928977Y-55981263D01*
X110928977Y-55981261D01*
X110886312Y-55897528D01*
X110836046Y-55798875D01*
X110806949Y-55758826D01*
X110715730Y-55633271D01*
X110570972Y-55488513D01*
X110405373Y-55368200D01*
X110398765Y-55364833D01*
X110312676Y-55320968D01*
X110261882Y-55272996D01*
X110245087Y-55205175D01*
X110267624Y-55139040D01*
X110312676Y-55100001D01*
X110405369Y-55052772D01*
X110452610Y-55018450D01*
X110570972Y-54932456D01*
X110570974Y-54932453D01*
X110570978Y-54932451D01*
X110715725Y-54787704D01*
X110718409Y-54784009D01*
X110748859Y-54742100D01*
X110804188Y-54699434D01*
X110849177Y-54690985D01*
X125333435Y-54690985D01*
X125430977Y-54671581D01*
X125478428Y-54662143D01*
X125615010Y-54605569D01*
X125664244Y-54572671D01*
X125737931Y-54523437D01*
X137384064Y-42877304D01*
X137445387Y-42843819D01*
X137471745Y-42840985D01*
X137636689Y-42840985D01*
X137703728Y-42860670D01*
X137749483Y-42913474D01*
X137759427Y-42982632D01*
X137730402Y-43046188D01*
X137724370Y-43052666D01*
X137629205Y-43147830D01*
X137629201Y-43147835D01*
X137481132Y-43351636D01*
X137366760Y-43576101D01*
X137288910Y-43815699D01*
X137288910Y-43815700D01*
X137249500Y-44064523D01*
X137249500Y-44316447D01*
X137282003Y-44521659D01*
X137288910Y-44565270D01*
X137366760Y-44804868D01*
X137481132Y-45029333D01*
X137629201Y-45233134D01*
X137629205Y-45233139D01*
X137807345Y-45411279D01*
X137807350Y-45411283D01*
X137892663Y-45473266D01*
X138011155Y-45559355D01*
X138154184Y-45632232D01*
X138235616Y-45673724D01*
X138235618Y-45673724D01*
X138235621Y-45673726D01*
X138475215Y-45751575D01*
X138724038Y-45790985D01*
X138724039Y-45790985D01*
X140275961Y-45790985D01*
X140275962Y-45790985D01*
X140524785Y-45751575D01*
X140764379Y-45673726D01*
X140988845Y-45559355D01*
X141192656Y-45411278D01*
X141370793Y-45233141D01*
X141518870Y-45029330D01*
X141633241Y-44804864D01*
X141711090Y-44565270D01*
X141750500Y-44316447D01*
X141750500Y-44064523D01*
X141711090Y-43815700D01*
X141633241Y-43576106D01*
X141633239Y-43576103D01*
X141633239Y-43576101D01*
X141591747Y-43494669D01*
X141518870Y-43351640D01*
X141488969Y-43310485D01*
X141370798Y-43147835D01*
X141370794Y-43147830D01*
X141192658Y-42969694D01*
X141192656Y-42969692D01*
X141105245Y-42906184D01*
X141062581Y-42850855D01*
X141056602Y-42781241D01*
X141067647Y-42749572D01*
X141069520Y-42745894D01*
X141069524Y-42745890D01*
X141158884Y-42570510D01*
X141219709Y-42383311D01*
X141225064Y-42349500D01*
X141250500Y-42188907D01*
X141250500Y-41992062D01*
X141219709Y-41797658D01*
X141182850Y-41684219D01*
X141158884Y-41610460D01*
X141158882Y-41610457D01*
X141158882Y-41610455D01*
X141069523Y-41435079D01*
X141062492Y-41425402D01*
X140953828Y-41275839D01*
X140855801Y-41177812D01*
X140822316Y-41116489D01*
X140827300Y-41046797D01*
X140855801Y-41002450D01*
X140953443Y-40904807D01*
X140953444Y-40904806D01*
X141069095Y-40745628D01*
X141158418Y-40570322D01*
X141219218Y-40383201D01*
X141225984Y-40340485D01*
X139815686Y-40340485D01*
X139820080Y-40336091D01*
X139872741Y-40244879D01*
X139900000Y-40143146D01*
X139900000Y-40037824D01*
X139872741Y-39936091D01*
X139820080Y-39844879D01*
X139815686Y-39840485D01*
X141225984Y-39840485D01*
X141219218Y-39797768D01*
X141158418Y-39610647D01*
X141069095Y-39435341D01*
X141042816Y-39399171D01*
X141019336Y-39333364D01*
X141035161Y-39265310D01*
X141068820Y-39227021D01*
X141107546Y-39198031D01*
X141193796Y-39082816D01*
X141244091Y-38947968D01*
X141250500Y-38888358D01*
X141250499Y-37292613D01*
X141244091Y-37233002D01*
X141244089Y-37232999D01*
X141243330Y-37225930D01*
X141255736Y-37157170D01*
X141278938Y-37124995D01*
X141326291Y-37077643D01*
X144789235Y-37077643D01*
X144789235Y-37320220D01*
X144820896Y-37560717D01*
X144883682Y-37795036D01*
X144965607Y-37992820D01*
X144976511Y-38019144D01*
X145097799Y-38229221D01*
X145097801Y-38229224D01*
X145097802Y-38229225D01*
X145245468Y-38421668D01*
X145245474Y-38421675D01*
X145416991Y-38593192D01*
X145416997Y-38593197D01*
X145609446Y-38740868D01*
X145819523Y-38862156D01*
X146015004Y-38943127D01*
X146032179Y-38950241D01*
X146043635Y-38954986D01*
X146277946Y-39017770D01*
X146458321Y-39041516D01*
X146518446Y-39049432D01*
X146518447Y-39049432D01*
X146761024Y-39049432D01*
X146809123Y-39043099D01*
X147001524Y-39017770D01*
X147235835Y-38954986D01*
X147459947Y-38862156D01*
X147670024Y-38740868D01*
X147862473Y-38593197D01*
X148034000Y-38421670D01*
X148181671Y-38229221D01*
X148302959Y-38019144D01*
X148395789Y-37795032D01*
X148458573Y-37560721D01*
X148490235Y-37320220D01*
X148490235Y-37077644D01*
X148458573Y-36837143D01*
X148395789Y-36602832D01*
X148302959Y-36378720D01*
X148181671Y-36168643D01*
X148034000Y-35976194D01*
X148033995Y-35976188D01*
X147862478Y-35804671D01*
X147862471Y-35804665D01*
X147670028Y-35656999D01*
X147670027Y-35656998D01*
X147670024Y-35656996D01*
X147459947Y-35535708D01*
X147389889Y-35506689D01*
X147235839Y-35442879D01*
X147001520Y-35380093D01*
X146761024Y-35348432D01*
X146761023Y-35348432D01*
X146518447Y-35348432D01*
X146518446Y-35348432D01*
X146277949Y-35380093D01*
X146043630Y-35442879D01*
X145819529Y-35535705D01*
X145819520Y-35535709D01*
X145609441Y-35656999D01*
X145416998Y-35804665D01*
X145416991Y-35804671D01*
X145245474Y-35976188D01*
X145245468Y-35976195D01*
X145097802Y-36168638D01*
X144976512Y-36378717D01*
X144976508Y-36378726D01*
X144883682Y-36602827D01*
X144820896Y-36837146D01*
X144789235Y-37077643D01*
X141326291Y-37077643D01*
X141370793Y-37033141D01*
X141518870Y-36829330D01*
X141633241Y-36604864D01*
X141711090Y-36365270D01*
X141750500Y-36116447D01*
X141750500Y-35864523D01*
X141711090Y-35615700D01*
X141633241Y-35376106D01*
X141633239Y-35376103D01*
X141633239Y-35376101D01*
X141591747Y-35294669D01*
X141518870Y-35151640D01*
X141440555Y-35043848D01*
X141370798Y-34947835D01*
X141370794Y-34947830D01*
X141192654Y-34769690D01*
X141192649Y-34769686D01*
X140988848Y-34621617D01*
X140988847Y-34621616D01*
X140988845Y-34621615D01*
X140918747Y-34585898D01*
X140764383Y-34507245D01*
X140524785Y-34429395D01*
X140434922Y-34415162D01*
X140275962Y-34389985D01*
X138724038Y-34389985D01*
X138599626Y-34409690D01*
X138475214Y-34429395D01*
X138235616Y-34507245D01*
X138011151Y-34621617D01*
X137807350Y-34769686D01*
X137807345Y-34769690D01*
X137629205Y-34947830D01*
X137629201Y-34947835D01*
X137481132Y-35151636D01*
X137366760Y-35376101D01*
X137296305Y-35592940D01*
X137288910Y-35615700D01*
X137249500Y-35864523D01*
X137249500Y-36116447D01*
X137255628Y-36155136D01*
X137288910Y-36365270D01*
X137366760Y-36604868D01*
X137409783Y-36689304D01*
X137466118Y-36799868D01*
X137481132Y-36829333D01*
X137629201Y-37033134D01*
X137629205Y-37033139D01*
X137721061Y-37124995D01*
X137754546Y-37186318D01*
X137756669Y-37225931D01*
X137749501Y-37292601D01*
X137749500Y-37292620D01*
X137749500Y-38888355D01*
X137749501Y-38888361D01*
X137755908Y-38947968D01*
X137806202Y-39082813D01*
X137806206Y-39082820D01*
X137892452Y-39198029D01*
X137892453Y-39198029D01*
X137892454Y-39198031D01*
X137931176Y-39227018D01*
X137931177Y-39227019D01*
X137973047Y-39282953D01*
X137978031Y-39352645D01*
X137957184Y-39399169D01*
X137930910Y-39435333D01*
X137930905Y-39435340D01*
X137841581Y-39610647D01*
X137780781Y-39797768D01*
X137774016Y-39840485D01*
X139184314Y-39840485D01*
X139179920Y-39844879D01*
X139127259Y-39936091D01*
X139100000Y-40037824D01*
X139100000Y-40143146D01*
X139127259Y-40244879D01*
X139179920Y-40336091D01*
X139184314Y-40340485D01*
X137774016Y-40340485D01*
X137780781Y-40383201D01*
X137841581Y-40570322D01*
X137930904Y-40745628D01*
X138046555Y-40904806D01*
X138144198Y-41002449D01*
X138177683Y-41063772D01*
X138172699Y-41133464D01*
X138144199Y-41177810D01*
X138046175Y-41275835D01*
X138046171Y-41275839D01*
X138036703Y-41288872D01*
X137981372Y-41331537D01*
X137936386Y-41339985D01*
X137035591Y-41339985D01*
X137006757Y-41345719D01*
X137006758Y-41345720D01*
X136890608Y-41368824D01*
X136890598Y-41368827D01*
X136810596Y-41401964D01*
X136810597Y-41401965D01*
X136754017Y-41425402D01*
X136704784Y-41458298D01*
X136631103Y-41507529D01*
X136631095Y-41507535D01*
X124984966Y-53153666D01*
X124923643Y-53187151D01*
X124897285Y-53189985D01*
X110849177Y-53189985D01*
X110782138Y-53170300D01*
X110748859Y-53138870D01*
X110715730Y-53093272D01*
X110715726Y-53093267D01*
X110570972Y-52948513D01*
X110405373Y-52828200D01*
X110398765Y-52824833D01*
X110312676Y-52780968D01*
X110261882Y-52732996D01*
X110245087Y-52665175D01*
X110267624Y-52599040D01*
X110312676Y-52560001D01*
X110405369Y-52512772D01*
X110426529Y-52497398D01*
X110570972Y-52392456D01*
X110570974Y-52392453D01*
X110570978Y-52392451D01*
X110715725Y-52247704D01*
X110715729Y-52247699D01*
X110715730Y-52247698D01*
X110796390Y-52136677D01*
X110836046Y-52082095D01*
X110928979Y-51899704D01*
X110992236Y-51705019D01*
X111024259Y-51502837D01*
X111024259Y-51298133D01*
X110992236Y-51095951D01*
X110928979Y-50901266D01*
X110928977Y-50901263D01*
X110928977Y-50901261D01*
X110895262Y-50835092D01*
X110836046Y-50718875D01*
X110785643Y-50649500D01*
X110715730Y-50553271D01*
X110570972Y-50408513D01*
X110405372Y-50288200D01*
X110405371Y-50288199D01*
X110405369Y-50288198D01*
X110312126Y-50240688D01*
X110222982Y-50195266D01*
X110028293Y-50132007D01*
X109853754Y-50104363D01*
X109826111Y-50099985D01*
X108621407Y-50099985D01*
X108597088Y-50103836D01*
X108419224Y-50132007D01*
X108224535Y-50195266D01*
X108042145Y-50288200D01*
X107876545Y-50408513D01*
X107731787Y-50553271D01*
X107611474Y-50718871D01*
X107518540Y-50901261D01*
X107455281Y-51095950D01*
X107423259Y-51298133D01*
X107423259Y-51502836D01*
X107455281Y-51705019D01*
X107518540Y-51899708D01*
X107611474Y-52082098D01*
X107731787Y-52247698D01*
X107876545Y-52392456D01*
X108031508Y-52505041D01*
X108042149Y-52512772D01*
X108133599Y-52559368D01*
X108134839Y-52560000D01*
X108185635Y-52607975D01*
X108202430Y-52675796D01*
X108179893Y-52741931D01*
X108134839Y-52780970D01*
X108042145Y-52828200D01*
X107876545Y-52948513D01*
X107731787Y-53093271D01*
X107611474Y-53258871D01*
X107518540Y-53441261D01*
X107455281Y-53635950D01*
X107423259Y-53838133D01*
X107423259Y-54042836D01*
X107455281Y-54245019D01*
X107518540Y-54439708D01*
X107611474Y-54622098D01*
X107731787Y-54787698D01*
X107876545Y-54932456D01*
X107994908Y-55018450D01*
X108042149Y-55052772D01*
X108133599Y-55099368D01*
X108134839Y-55100000D01*
X108185635Y-55147975D01*
X108202430Y-55215796D01*
X108179893Y-55281931D01*
X108134839Y-55320970D01*
X108042145Y-55368200D01*
X107876545Y-55488513D01*
X107731787Y-55633271D01*
X107611474Y-55798871D01*
X107518540Y-55981261D01*
X107455281Y-56175950D01*
X107423259Y-56378133D01*
X107423259Y-56582836D01*
X107455281Y-56785019D01*
X107518540Y-56979708D01*
X107611474Y-57162098D01*
X107731787Y-57327698D01*
X107876545Y-57472456D01*
X108031508Y-57585041D01*
X108042149Y-57592772D01*
X108133599Y-57639368D01*
X108134839Y-57640000D01*
X108185635Y-57687975D01*
X108202430Y-57755796D01*
X108179893Y-57821931D01*
X108134839Y-57860970D01*
X108042145Y-57908200D01*
X107876545Y-58028513D01*
X107731787Y-58173271D01*
X107611474Y-58338871D01*
X107518540Y-58521261D01*
X107455281Y-58715950D01*
X107423259Y-58918133D01*
X107423259Y-59122836D01*
X107455281Y-59325019D01*
X107518540Y-59519708D01*
X107582450Y-59645138D01*
X107607954Y-59695191D01*
X107611474Y-59702098D01*
X107731787Y-59867698D01*
X107876545Y-60012456D01*
X108031508Y-60125041D01*
X108042149Y-60132772D01*
X108133599Y-60179368D01*
X108134839Y-60180000D01*
X108185635Y-60227975D01*
X108202430Y-60295796D01*
X108179893Y-60361931D01*
X108134839Y-60400970D01*
X108042145Y-60448200D01*
X107876545Y-60568513D01*
X107731787Y-60713271D01*
X107611474Y-60878871D01*
X107518540Y-61061261D01*
X107455281Y-61255950D01*
X107423259Y-61458133D01*
X107423259Y-61662836D01*
X107455281Y-61865019D01*
X107518540Y-62059708D01*
X107611474Y-62242098D01*
X107731787Y-62407698D01*
X107876545Y-62552456D01*
X108031508Y-62665041D01*
X108042149Y-62672772D01*
X108133599Y-62719368D01*
X108134839Y-62720000D01*
X108185635Y-62767975D01*
X108202430Y-62835796D01*
X108179893Y-62901931D01*
X108134839Y-62940970D01*
X108042145Y-62988200D01*
X107876547Y-63108512D01*
X107760894Y-63224165D01*
X107699571Y-63257649D01*
X107629879Y-63252665D01*
X107585532Y-63224164D01*
X105286819Y-60925451D01*
X105253334Y-60864128D01*
X105250500Y-60837770D01*
X105250500Y-50062229D01*
X105270185Y-49995190D01*
X105286819Y-49974548D01*
X111374548Y-43886819D01*
X111435871Y-43853334D01*
X111462229Y-43850500D01*
X113338841Y-43850500D01*
X113405880Y-43870185D01*
X113440416Y-43903377D01*
X113465458Y-43939141D01*
X113626362Y-44100045D01*
X113626365Y-44100047D01*
X113812770Y-44230568D01*
X114019008Y-44326739D01*
X114238812Y-44385635D01*
X114400734Y-44399801D01*
X114465502Y-44405468D01*
X114465504Y-44405468D01*
X114465506Y-44405468D01*
X114522177Y-44400509D01*
X114692196Y-44385635D01*
X114912000Y-44326739D01*
X115118238Y-44230568D01*
X115304643Y-44100047D01*
X115465551Y-43939139D01*
X115596072Y-43752734D01*
X115692243Y-43546496D01*
X115751139Y-43326692D01*
X115770972Y-43100000D01*
X115770638Y-43096187D01*
X115762082Y-42998384D01*
X115751139Y-42873308D01*
X115692243Y-42653504D01*
X115596072Y-42447266D01*
X115465551Y-42260861D01*
X115465549Y-42260858D01*
X115304645Y-42099954D01*
X115118238Y-41969432D01*
X115118236Y-41969431D01*
X114912001Y-41873261D01*
X114911992Y-41873258D01*
X114692201Y-41814366D01*
X114692197Y-41814365D01*
X114692196Y-41814365D01*
X114692195Y-41814364D01*
X114692190Y-41814364D01*
X114465506Y-41794532D01*
X114465502Y-41794532D01*
X114238817Y-41814364D01*
X114238806Y-41814366D01*
X114019015Y-41873258D01*
X114019006Y-41873261D01*
X113812771Y-41969431D01*
X113812769Y-41969432D01*
X113626362Y-42099954D01*
X113465458Y-42260858D01*
X113440416Y-42296623D01*
X113385839Y-42340248D01*
X113338841Y-42349500D01*
X111026082Y-42349500D01*
X111007728Y-42353151D01*
X111007727Y-42353151D01*
X110881095Y-42378339D01*
X110881092Y-42378340D01*
X110881088Y-42378341D01*
X110801080Y-42411481D01*
X110801078Y-42411481D01*
X110744506Y-42434915D01*
X110744503Y-42434917D01*
X110729751Y-42444774D01*
X110671138Y-42483938D01*
X110671137Y-42483939D01*
X110621586Y-42517046D01*
X110621581Y-42517050D01*
X103917048Y-49221583D01*
X103911263Y-49230242D01*
X103883916Y-49271171D01*
X103834914Y-49344507D01*
X103778343Y-49481082D01*
X103778340Y-49481092D01*
X103749500Y-49626079D01*
X103749500Y-49626082D01*
X103749500Y-61273918D01*
X103749500Y-61273920D01*
X103749499Y-61273920D01*
X103778340Y-61418907D01*
X103778343Y-61418917D01*
X103834914Y-61555492D01*
X103864318Y-61599498D01*
X103864319Y-61599501D01*
X103917046Y-61678414D01*
X103917052Y-61678421D01*
X106817534Y-64578901D01*
X106886753Y-64648120D01*
X106922070Y-64683437D01*
X107044983Y-64765565D01*
X107044996Y-64765572D01*
X107175536Y-64819643D01*
X107181572Y-64822143D01*
X107181576Y-64822143D01*
X107181577Y-64822144D01*
X107326564Y-64850985D01*
X107326567Y-64850985D01*
X107598341Y-64850985D01*
X107665380Y-64870670D01*
X107698659Y-64902100D01*
X107731787Y-64947697D01*
X107731791Y-64947702D01*
X107876545Y-65092456D01*
X107996750Y-65179788D01*
X108042149Y-65212772D01*
X108133599Y-65259368D01*
X108134839Y-65260000D01*
X108185635Y-65307975D01*
X108202430Y-65375796D01*
X108179893Y-65441931D01*
X108134839Y-65480970D01*
X108042145Y-65528200D01*
X107876545Y-65648513D01*
X107731787Y-65793271D01*
X107611474Y-65958871D01*
X107518540Y-66141261D01*
X107455281Y-66335950D01*
X107423259Y-66538133D01*
X107423259Y-66742836D01*
X107455281Y-66945019D01*
X107518540Y-67139708D01*
X107611474Y-67322098D01*
X107731787Y-67487698D01*
X107876545Y-67632456D01*
X108031508Y-67745041D01*
X108042149Y-67752772D01*
X108131775Y-67798439D01*
X108134839Y-67800000D01*
X108185635Y-67847975D01*
X108202430Y-67915796D01*
X108179893Y-67981931D01*
X108134839Y-68020970D01*
X108042145Y-68068200D01*
X107876547Y-68188512D01*
X107800894Y-68264165D01*
X107739570Y-68297649D01*
X107669879Y-68292664D01*
X107625532Y-68264164D01*
X102386819Y-63025451D01*
X102353334Y-62964128D01*
X102350500Y-62937770D01*
X102350500Y-48262230D01*
X102370185Y-48195191D01*
X102386819Y-48174549D01*
X109674549Y-40886819D01*
X109735872Y-40853334D01*
X109762230Y-40850500D01*
X113338841Y-40850500D01*
X113405880Y-40870185D01*
X113440416Y-40903377D01*
X113465458Y-40939141D01*
X113626362Y-41100045D01*
X113626365Y-41100047D01*
X113812770Y-41230568D01*
X114019008Y-41326739D01*
X114238812Y-41385635D01*
X114400513Y-41399782D01*
X114465502Y-41405468D01*
X114465504Y-41405468D01*
X114465506Y-41405468D01*
X114530369Y-41399793D01*
X114692196Y-41385635D01*
X114912000Y-41326739D01*
X115118238Y-41230568D01*
X115304643Y-41100047D01*
X115465551Y-40939139D01*
X115596072Y-40752734D01*
X115692243Y-40546496D01*
X115751139Y-40326692D01*
X115770972Y-40100000D01*
X115751139Y-39873308D01*
X115692243Y-39653504D01*
X115596072Y-39447266D01*
X115465551Y-39260861D01*
X115465549Y-39260858D01*
X115304645Y-39099954D01*
X115118238Y-38969432D01*
X115118236Y-38969431D01*
X114912001Y-38873261D01*
X114911992Y-38873258D01*
X114692201Y-38814366D01*
X114692197Y-38814365D01*
X114692196Y-38814365D01*
X114692195Y-38814364D01*
X114692190Y-38814364D01*
X114465506Y-38794532D01*
X114465502Y-38794532D01*
X114238817Y-38814364D01*
X114238806Y-38814366D01*
X114019015Y-38873258D01*
X114019006Y-38873261D01*
X113812771Y-38969431D01*
X113812769Y-38969432D01*
X113626362Y-39099954D01*
X113465458Y-39260858D01*
X113440416Y-39296623D01*
X113385839Y-39340248D01*
X113338841Y-39349500D01*
X109326080Y-39349500D01*
X109181092Y-39378340D01*
X109181086Y-39378342D01*
X109044508Y-39434914D01*
X109044496Y-39434921D01*
X108995269Y-39467813D01*
X108921588Y-39517044D01*
X108921580Y-39517050D01*
X101017050Y-47421581D01*
X101017049Y-47421581D01*
X101009572Y-47432773D01*
X101009571Y-47432775D01*
X100934913Y-47544508D01*
X100878343Y-47681082D01*
X100878340Y-47681092D01*
X100849500Y-47826079D01*
X100849500Y-47826082D01*
X100849500Y-63373918D01*
X100849500Y-63373920D01*
X100849499Y-63373920D01*
X100878340Y-63518907D01*
X100878343Y-63518917D01*
X100934914Y-63655492D01*
X100967812Y-63704727D01*
X100967813Y-63704730D01*
X101017046Y-63778414D01*
X101017052Y-63778421D01*
X107002064Y-69763432D01*
X107002067Y-69763434D01*
X107002070Y-69763437D01*
X107028487Y-69781088D01*
X107028488Y-69781089D01*
X107124987Y-69845568D01*
X107124991Y-69845570D01*
X107181564Y-69869003D01*
X107181565Y-69869003D01*
X107261573Y-69902144D01*
X107377726Y-69925248D01*
X107396953Y-69929072D01*
X107406566Y-69930985D01*
X107406567Y-69930985D01*
X107406568Y-69930985D01*
X107554403Y-69930985D01*
X107598341Y-69930985D01*
X107665380Y-69950670D01*
X107698659Y-69982100D01*
X107731787Y-70027697D01*
X107731791Y-70027702D01*
X107876545Y-70172456D01*
X108031508Y-70285041D01*
X108042149Y-70292772D01*
X108133599Y-70339368D01*
X108134839Y-70340000D01*
X108185635Y-70387975D01*
X108202430Y-70455796D01*
X108179893Y-70521931D01*
X108134839Y-70560970D01*
X108042145Y-70608200D01*
X107876545Y-70728513D01*
X107731787Y-70873271D01*
X107611474Y-71038871D01*
X107518540Y-71221261D01*
X107455281Y-71415950D01*
X107423259Y-71618133D01*
X107423259Y-71822836D01*
X107455281Y-72025019D01*
X107518540Y-72219708D01*
X107611474Y-72402098D01*
X107731787Y-72567698D01*
X107876545Y-72712456D01*
X108031508Y-72825041D01*
X108042149Y-72832772D01*
X108133599Y-72879368D01*
X108134839Y-72880000D01*
X108185635Y-72927975D01*
X108202430Y-72995796D01*
X108179893Y-73061931D01*
X108134839Y-73100970D01*
X108042145Y-73148200D01*
X107876547Y-73268512D01*
X107740894Y-73404165D01*
X107679571Y-73437649D01*
X107609879Y-73432665D01*
X107565532Y-73404164D01*
X99386819Y-65225451D01*
X99353334Y-65164128D01*
X99350500Y-65137770D01*
X99350500Y-46762229D01*
X99370185Y-46695190D01*
X99386819Y-46674548D01*
X108174548Y-37886819D01*
X108235871Y-37853334D01*
X108262229Y-37850500D01*
X113338841Y-37850500D01*
X113405880Y-37870185D01*
X113440416Y-37903377D01*
X113465458Y-37939141D01*
X113626362Y-38100045D01*
X113626365Y-38100047D01*
X113812770Y-38230568D01*
X114019008Y-38326739D01*
X114238812Y-38385635D01*
X114400734Y-38399801D01*
X114465502Y-38405468D01*
X114465504Y-38405468D01*
X114465506Y-38405468D01*
X114522177Y-38400509D01*
X114692196Y-38385635D01*
X114912000Y-38326739D01*
X115118238Y-38230568D01*
X115304643Y-38100047D01*
X115465551Y-37939139D01*
X115596072Y-37752734D01*
X115692243Y-37546496D01*
X115751139Y-37326692D01*
X115769144Y-37120893D01*
X115770972Y-37100001D01*
X115770972Y-37099998D01*
X123320036Y-37099998D01*
X123320036Y-37100001D01*
X123339868Y-37326686D01*
X123339870Y-37326697D01*
X123398762Y-37546488D01*
X123398765Y-37546497D01*
X123494935Y-37752732D01*
X123494936Y-37752734D01*
X123625458Y-37939141D01*
X123786362Y-38100045D01*
X123786365Y-38100047D01*
X123972770Y-38230568D01*
X124179008Y-38326739D01*
X124398812Y-38385635D01*
X124560734Y-38399801D01*
X124625502Y-38405468D01*
X124625504Y-38405468D01*
X124625506Y-38405468D01*
X124682177Y-38400509D01*
X124852196Y-38385635D01*
X125072000Y-38326739D01*
X125278238Y-38230568D01*
X125464643Y-38100047D01*
X125625551Y-37939139D01*
X125756072Y-37752734D01*
X125793449Y-37672578D01*
X125839620Y-37620141D01*
X125905830Y-37600985D01*
X128775501Y-37600985D01*
X128842540Y-37620670D01*
X128888295Y-37673474D01*
X128899501Y-37724985D01*
X128899501Y-37798361D01*
X128905908Y-37857968D01*
X128956202Y-37992813D01*
X128956206Y-37992820D01*
X128992469Y-38041260D01*
X129042454Y-38108031D01*
X129066312Y-38125891D01*
X129108181Y-38181822D01*
X129113166Y-38251513D01*
X129095810Y-38292976D01*
X129064516Y-38340876D01*
X128971317Y-38553349D01*
X128914361Y-38778266D01*
X128895202Y-39009479D01*
X128895202Y-39009485D01*
X128914361Y-39240703D01*
X128971317Y-39465620D01*
X129064516Y-39678094D01*
X129148811Y-39807118D01*
X129857861Y-39098068D01*
X129880667Y-39183179D01*
X129939910Y-39285791D01*
X130023694Y-39369575D01*
X130126306Y-39428818D01*
X130211414Y-39451622D01*
X129825817Y-39837219D01*
X129778401Y-39866819D01*
X129735498Y-39881548D01*
X129531371Y-39992016D01*
X129531365Y-39992020D01*
X129348222Y-40134566D01*
X129348219Y-40134569D01*
X129348216Y-40134571D01*
X129348216Y-40134572D01*
X129192225Y-40304025D01*
X129191015Y-40305339D01*
X129154123Y-40361807D01*
X129100977Y-40407163D01*
X129050315Y-40417985D01*
X126056219Y-40417985D01*
X125989180Y-40398300D01*
X125968538Y-40381666D01*
X125952220Y-40365348D01*
X125918735Y-40304025D01*
X125916373Y-40266863D01*
X125930972Y-40100000D01*
X125911139Y-39873308D01*
X125852243Y-39653504D01*
X125756072Y-39447266D01*
X125625551Y-39260861D01*
X125625549Y-39260858D01*
X125464645Y-39099954D01*
X125278238Y-38969432D01*
X125278236Y-38969431D01*
X125072001Y-38873261D01*
X125071992Y-38873258D01*
X124852201Y-38814366D01*
X124852197Y-38814365D01*
X124852196Y-38814365D01*
X124852195Y-38814364D01*
X124852190Y-38814364D01*
X124625506Y-38794532D01*
X124625502Y-38794532D01*
X124398817Y-38814364D01*
X124398806Y-38814366D01*
X124179015Y-38873258D01*
X124179006Y-38873261D01*
X123972771Y-38969431D01*
X123972769Y-38969432D01*
X123786362Y-39099954D01*
X123625458Y-39260858D01*
X123494936Y-39447265D01*
X123494935Y-39447267D01*
X123398765Y-39653502D01*
X123398762Y-39653511D01*
X123339870Y-39873302D01*
X123339868Y-39873313D01*
X123320036Y-40099998D01*
X123320036Y-40100001D01*
X123339868Y-40326686D01*
X123339870Y-40326697D01*
X123398762Y-40546488D01*
X123398765Y-40546497D01*
X123494935Y-40752732D01*
X123494936Y-40752734D01*
X123625458Y-40939141D01*
X123786362Y-41100045D01*
X123786365Y-41100047D01*
X123972770Y-41230568D01*
X124179008Y-41326739D01*
X124398812Y-41385635D01*
X124560513Y-41399782D01*
X124625502Y-41405468D01*
X124625504Y-41405468D01*
X124625505Y-41405468D01*
X124645566Y-41403712D01*
X124792365Y-41390869D01*
X124860863Y-41404635D01*
X124890852Y-41426716D01*
X125107308Y-41643172D01*
X125140793Y-41704495D01*
X125135809Y-41774187D01*
X125093937Y-41830120D01*
X125028473Y-41854537D01*
X124987534Y-41850628D01*
X124852201Y-41814366D01*
X124852197Y-41814365D01*
X124852196Y-41814365D01*
X124852195Y-41814364D01*
X124852190Y-41814364D01*
X124625506Y-41794532D01*
X124625502Y-41794532D01*
X124398817Y-41814364D01*
X124398806Y-41814366D01*
X124179015Y-41873258D01*
X124179006Y-41873261D01*
X123972771Y-41969431D01*
X123972769Y-41969432D01*
X123786362Y-42099954D01*
X123625458Y-42260858D01*
X123494936Y-42447265D01*
X123494935Y-42447267D01*
X123398765Y-42653502D01*
X123398762Y-42653511D01*
X123339870Y-42873302D01*
X123339868Y-42873313D01*
X123320036Y-43099998D01*
X123320036Y-43100001D01*
X123339868Y-43326686D01*
X123339870Y-43326697D01*
X123398762Y-43546488D01*
X123398765Y-43546497D01*
X123494935Y-43752732D01*
X123494936Y-43752734D01*
X123625458Y-43939141D01*
X123786362Y-44100045D01*
X123786365Y-44100047D01*
X123972770Y-44230568D01*
X124179008Y-44326739D01*
X124398812Y-44385635D01*
X124560734Y-44399801D01*
X124625502Y-44405468D01*
X124625504Y-44405468D01*
X124625506Y-44405468D01*
X124682177Y-44400509D01*
X124852196Y-44385635D01*
X125072000Y-44326739D01*
X125278238Y-44230568D01*
X125464125Y-44100410D01*
X125530331Y-44078083D01*
X125535248Y-44077985D01*
X129050315Y-44077985D01*
X129117354Y-44097670D01*
X129154123Y-44134163D01*
X129191015Y-44190630D01*
X129191017Y-44190632D01*
X129191021Y-44190638D01*
X129348216Y-44361398D01*
X129348219Y-44361400D01*
X129348222Y-44361403D01*
X129531365Y-44503949D01*
X129531371Y-44503953D01*
X129531374Y-44503955D01*
X129735497Y-44614421D01*
X129849487Y-44653553D01*
X129955015Y-44689782D01*
X129955017Y-44689782D01*
X129955019Y-44689783D01*
X130183951Y-44727985D01*
X130183952Y-44727985D01*
X130416048Y-44727985D01*
X130416049Y-44727985D01*
X130644981Y-44689783D01*
X130864503Y-44614421D01*
X131068626Y-44503955D01*
X131251784Y-44361398D01*
X131408979Y-44190638D01*
X131535924Y-43996334D01*
X131629157Y-43783785D01*
X131686134Y-43558790D01*
X131687153Y-43546496D01*
X131705300Y-43327491D01*
X131705300Y-43327478D01*
X131686135Y-43096187D01*
X131686133Y-43096176D01*
X131629157Y-42871184D01*
X131535924Y-42658636D01*
X131408983Y-42464337D01*
X131408980Y-42464334D01*
X131408979Y-42464332D01*
X131287128Y-42331965D01*
X131256207Y-42269313D01*
X131264067Y-42199887D01*
X131287127Y-42164005D01*
X131408979Y-42031638D01*
X131535924Y-41837334D01*
X131629157Y-41624785D01*
X131686134Y-41399790D01*
X131686135Y-41399782D01*
X131705300Y-41168491D01*
X131705300Y-41168478D01*
X131686135Y-40937187D01*
X131686133Y-40937176D01*
X131629157Y-40712184D01*
X131535924Y-40499636D01*
X131408983Y-40305337D01*
X131408980Y-40305334D01*
X131408979Y-40305332D01*
X131251784Y-40134572D01*
X131251779Y-40134568D01*
X131251777Y-40134566D01*
X131068634Y-39992020D01*
X131068628Y-39992016D01*
X130864504Y-39881549D01*
X130864498Y-39881547D01*
X130821598Y-39866819D01*
X130774181Y-39837219D01*
X130388585Y-39451622D01*
X130473694Y-39428818D01*
X130576306Y-39369575D01*
X130660090Y-39285791D01*
X130719333Y-39183179D01*
X130742137Y-39098070D01*
X131451186Y-39807119D01*
X131535484Y-39678091D01*
X131628682Y-39465620D01*
X131685638Y-39240703D01*
X131704798Y-39009485D01*
X131704798Y-39009479D01*
X131685638Y-38778266D01*
X131628682Y-38553349D01*
X131535483Y-38340875D01*
X131504190Y-38292977D01*
X131484003Y-38226088D01*
X131503183Y-38158902D01*
X131533685Y-38125893D01*
X131557546Y-38108031D01*
X131643796Y-37992816D01*
X131694091Y-37857968D01*
X131700500Y-37798358D01*
X131700499Y-35902613D01*
X131694091Y-35843002D01*
X131683410Y-35814366D01*
X131643797Y-35708156D01*
X131643793Y-35708149D01*
X131557547Y-35592940D01*
X131557544Y-35592937D01*
X131442335Y-35506691D01*
X131442328Y-35506687D01*
X131307482Y-35456393D01*
X131307483Y-35456393D01*
X131247883Y-35449986D01*
X131247881Y-35449985D01*
X131247873Y-35449985D01*
X131247864Y-35449985D01*
X129352129Y-35449985D01*
X129352123Y-35449986D01*
X129292516Y-35456393D01*
X129157671Y-35506687D01*
X129157664Y-35506691D01*
X129042455Y-35592937D01*
X129042452Y-35592940D01*
X128956206Y-35708149D01*
X128956202Y-35708156D01*
X128905908Y-35843002D01*
X128899501Y-35902601D01*
X128899501Y-35902608D01*
X128899500Y-35902620D01*
X128899500Y-35975985D01*
X128879815Y-36043024D01*
X128827011Y-36088779D01*
X128775500Y-36099985D01*
X125503786Y-36099985D01*
X125436747Y-36080300D01*
X125432663Y-36077560D01*
X125278238Y-35969432D01*
X125278236Y-35969431D01*
X125072001Y-35873261D01*
X125071992Y-35873258D01*
X124852201Y-35814366D01*
X124852197Y-35814365D01*
X124852196Y-35814365D01*
X124852195Y-35814364D01*
X124852190Y-35814364D01*
X124625506Y-35794532D01*
X124625502Y-35794532D01*
X124398817Y-35814364D01*
X124398806Y-35814366D01*
X124179015Y-35873258D01*
X124179006Y-35873261D01*
X123972771Y-35969431D01*
X123972769Y-35969432D01*
X123786362Y-36099954D01*
X123625458Y-36260858D01*
X123494936Y-36447265D01*
X123494935Y-36447267D01*
X123398765Y-36653502D01*
X123398762Y-36653511D01*
X123339870Y-36873302D01*
X123339868Y-36873313D01*
X123320036Y-37099998D01*
X115770972Y-37099998D01*
X115755169Y-36919376D01*
X115751139Y-36873308D01*
X115692243Y-36653504D01*
X115596072Y-36447266D01*
X115465551Y-36260861D01*
X115465549Y-36260858D01*
X115304645Y-36099954D01*
X115118238Y-35969432D01*
X115118236Y-35969431D01*
X114912001Y-35873261D01*
X114911992Y-35873258D01*
X114692201Y-35814366D01*
X114692197Y-35814365D01*
X114692196Y-35814365D01*
X114692195Y-35814364D01*
X114692190Y-35814364D01*
X114465506Y-35794532D01*
X114465502Y-35794532D01*
X114238817Y-35814364D01*
X114238806Y-35814366D01*
X114019015Y-35873258D01*
X114019006Y-35873261D01*
X113812771Y-35969431D01*
X113812769Y-35969432D01*
X113626362Y-36099954D01*
X113465458Y-36260858D01*
X113440416Y-36296623D01*
X113385839Y-36340248D01*
X113338841Y-36349500D01*
X107826080Y-36349500D01*
X107681092Y-36378340D01*
X107681082Y-36378343D01*
X107544511Y-36434912D01*
X107544498Y-36434919D01*
X107454599Y-36494988D01*
X107454598Y-36494990D01*
X107422441Y-36516476D01*
X107421578Y-36517053D01*
X98017050Y-45921580D01*
X98017044Y-45921588D01*
X97967812Y-45995268D01*
X97967813Y-45995269D01*
X97934921Y-46044496D01*
X97934914Y-46044508D01*
X97878342Y-46181086D01*
X97878340Y-46181092D01*
X97849500Y-46326079D01*
X97849500Y-46326082D01*
X97849500Y-65573918D01*
X97849500Y-65573920D01*
X97849499Y-65573920D01*
X97878340Y-65718907D01*
X97878343Y-65718917D01*
X97934914Y-65855492D01*
X97934915Y-65855494D01*
X97934916Y-65855495D01*
X97950428Y-65878711D01*
X97967812Y-65904727D01*
X97967813Y-65904730D01*
X98017046Y-65978414D01*
X98017052Y-65978421D01*
X106882069Y-74843437D01*
X106882071Y-74843439D01*
X106911543Y-74863130D01*
X106955753Y-74892669D01*
X106955755Y-74892672D01*
X106955756Y-74892672D01*
X107004981Y-74925564D01*
X107004996Y-74925572D01*
X107061564Y-74949003D01*
X107061565Y-74949003D01*
X107141573Y-74982144D01*
X107257726Y-75005248D01*
X107276953Y-75009072D01*
X107286566Y-75010985D01*
X107286567Y-75010985D01*
X107286568Y-75010985D01*
X107434403Y-75010985D01*
X107598341Y-75010985D01*
X107665380Y-75030670D01*
X107698659Y-75062100D01*
X107731787Y-75107697D01*
X107731791Y-75107702D01*
X107876545Y-75252456D01*
X107990044Y-75334916D01*
X108042149Y-75372772D01*
X108129047Y-75417049D01*
X108134839Y-75420000D01*
X108185635Y-75467975D01*
X108202430Y-75535796D01*
X108179893Y-75601931D01*
X108134839Y-75640970D01*
X108042145Y-75688200D01*
X107876545Y-75808513D01*
X107731787Y-75953271D01*
X107611474Y-76118871D01*
X107518540Y-76301261D01*
X107455281Y-76495950D01*
X107423259Y-76698133D01*
X107423259Y-76902836D01*
X107455281Y-77105019D01*
X107518540Y-77299708D01*
X107611474Y-77482098D01*
X107731787Y-77647698D01*
X107876545Y-77792456D01*
X108031508Y-77905041D01*
X108042149Y-77912772D01*
X108133599Y-77959368D01*
X108134839Y-77960000D01*
X108185635Y-78007975D01*
X108202430Y-78075796D01*
X108179893Y-78141931D01*
X108134839Y-78180970D01*
X108042145Y-78228200D01*
X107876545Y-78348513D01*
X107731787Y-78493271D01*
X107611474Y-78658871D01*
X107518540Y-78841261D01*
X107455281Y-79035950D01*
X107423259Y-79238133D01*
X107423259Y-79442836D01*
X107455281Y-79645019D01*
X107518540Y-79839708D01*
X107611474Y-80022098D01*
X107731787Y-80187698D01*
X107876545Y-80332456D01*
X108005414Y-80426083D01*
X108042149Y-80452772D01*
X108158366Y-80511988D01*
X108224535Y-80545703D01*
X108224537Y-80545703D01*
X108224540Y-80545705D01*
X108311371Y-80573918D01*
X108419224Y-80608962D01*
X108520316Y-80624973D01*
X108621407Y-80640985D01*
X108621408Y-80640985D01*
X109826110Y-80640985D01*
X109826111Y-80640985D01*
X110028293Y-80608962D01*
X110222978Y-80545705D01*
X110405369Y-80452772D01*
X110498349Y-80385217D01*
X110570972Y-80332456D01*
X110570974Y-80332453D01*
X110570978Y-80332451D01*
X110715725Y-80187704D01*
X110715727Y-80187700D01*
X110715730Y-80187698D01*
X110768491Y-80115075D01*
X110836046Y-80022095D01*
X110928979Y-79839704D01*
X110992236Y-79645019D01*
X111024259Y-79442837D01*
X111024259Y-79238133D01*
X111015224Y-79181087D01*
X110992236Y-79035950D01*
X110928977Y-78841261D01*
X110895262Y-78775092D01*
X110836046Y-78658875D01*
X110828315Y-78648234D01*
X110715730Y-78493271D01*
X110570972Y-78348513D01*
X110405373Y-78228200D01*
X110398765Y-78224833D01*
X110312676Y-78180968D01*
X110261882Y-78132996D01*
X110245087Y-78065175D01*
X110267624Y-77999040D01*
X110312676Y-77960001D01*
X110405369Y-77912772D01*
X110426529Y-77897398D01*
X110570972Y-77792456D01*
X110570974Y-77792453D01*
X110570978Y-77792451D01*
X110715725Y-77647704D01*
X110715727Y-77647700D01*
X110715730Y-77647698D01*
X110768491Y-77575075D01*
X110836046Y-77482095D01*
X110928979Y-77299704D01*
X110992236Y-77105019D01*
X111024259Y-76902837D01*
X111024259Y-76698133D01*
X110992236Y-76495951D01*
X110928979Y-76301266D01*
X110928977Y-76301263D01*
X110928977Y-76301261D01*
X110895262Y-76235092D01*
X110836046Y-76118875D01*
X110828315Y-76108234D01*
X110715730Y-75953271D01*
X110570972Y-75808513D01*
X110405373Y-75688200D01*
X110398765Y-75684833D01*
X110312676Y-75640968D01*
X110261882Y-75592996D01*
X110245087Y-75525175D01*
X110267624Y-75459040D01*
X110312676Y-75420001D01*
X110405369Y-75372772D01*
X110457479Y-75334912D01*
X110570972Y-75252456D01*
X110570974Y-75252453D01*
X110570978Y-75252451D01*
X110715725Y-75107704D01*
X110715727Y-75107700D01*
X110715730Y-75107698D01*
X110790164Y-75005246D01*
X110836046Y-74942095D01*
X110928979Y-74759704D01*
X110992236Y-74565019D01*
X111024259Y-74362837D01*
X111024259Y-74158133D01*
X110992236Y-73955951D01*
X110928979Y-73761266D01*
X110928977Y-73761263D01*
X110928977Y-73761261D01*
X110895262Y-73695092D01*
X110836046Y-73578875D01*
X110828315Y-73568234D01*
X110715730Y-73413271D01*
X110570972Y-73268513D01*
X110405373Y-73148200D01*
X110398765Y-73144833D01*
X110312676Y-73100968D01*
X110261882Y-73052996D01*
X110245087Y-72985175D01*
X110267624Y-72919040D01*
X110312676Y-72880001D01*
X110405369Y-72832772D01*
X110426529Y-72817398D01*
X110570972Y-72712456D01*
X110570974Y-72712453D01*
X110570978Y-72712451D01*
X110715725Y-72567704D01*
X110718409Y-72564009D01*
X110748859Y-72522100D01*
X110804188Y-72479434D01*
X110849177Y-72470985D01*
X127958255Y-72470985D01*
X128025294Y-72490670D01*
X128045936Y-72507304D01*
X141373181Y-85834549D01*
X141406666Y-85895872D01*
X141409500Y-85922230D01*
X141409500Y-88287298D01*
X141389815Y-88354337D01*
X141356625Y-88388872D01*
X141288595Y-88436507D01*
X141121505Y-88603597D01*
X140991575Y-88789158D01*
X140936998Y-88832783D01*
X140867500Y-88839977D01*
X140805145Y-88808454D01*
X140788425Y-88789158D01*
X140658494Y-88603597D01*
X140491404Y-88436507D01*
X140423375Y-88388872D01*
X140379751Y-88334294D01*
X140370500Y-88287298D01*
X140370500Y-86546079D01*
X140357040Y-86478415D01*
X140341659Y-86401088D01*
X140287408Y-86270117D01*
X140285764Y-86265522D01*
X140202954Y-86141588D01*
X140202953Y-86141587D01*
X140202951Y-86141584D01*
X140098416Y-86037049D01*
X139444319Y-85382952D01*
X137478421Y-83417052D01*
X137478420Y-83417051D01*
X137369847Y-83344506D01*
X137355495Y-83334916D01*
X137355490Y-83334913D01*
X137218917Y-83278343D01*
X137218907Y-83278340D01*
X137073920Y-83249500D01*
X137073918Y-83249500D01*
X103751396Y-83249500D01*
X103603561Y-83249500D01*
X103603559Y-83249500D01*
X103458571Y-83278340D01*
X103458561Y-83278343D01*
X103321990Y-83334912D01*
X103321977Y-83334919D01*
X103199063Y-83417048D01*
X103199059Y-83417051D01*
X98857048Y-87759062D01*
X98839610Y-87785161D01*
X98822288Y-87811087D01*
X98822287Y-87811088D01*
X98774914Y-87881986D01*
X98718343Y-88018561D01*
X98718340Y-88018571D01*
X98689500Y-88163558D01*
X98689500Y-88379110D01*
X98669815Y-88446149D01*
X98636625Y-88480684D01*
X98600863Y-88505725D01*
X98439951Y-88666636D01*
X98309432Y-88853039D01*
X98309431Y-88853041D01*
X98213261Y-89059276D01*
X98213258Y-89059285D01*
X98154366Y-89279076D01*
X98154364Y-89279087D01*
X98134532Y-89505772D01*
X98134532Y-89505775D01*
X98154364Y-89732460D01*
X98154366Y-89732471D01*
X98213258Y-89952262D01*
X98213261Y-89952271D01*
X98309431Y-90158506D01*
X98309432Y-90158508D01*
X98439954Y-90344915D01*
X98600859Y-90505820D01*
X98636621Y-90530860D01*
X98680247Y-90585436D01*
X98689500Y-90632436D01*
X98689500Y-93426453D01*
X98669815Y-93493492D01*
X98636626Y-93528026D01*
X98604624Y-93550434D01*
X98604622Y-93550436D01*
X98443710Y-93711347D01*
X98313191Y-93897750D01*
X98313190Y-93897752D01*
X98286141Y-93955760D01*
X98239968Y-94008199D01*
X98172775Y-94027351D01*
X98105894Y-94007135D01*
X98061377Y-93955760D01*
X98034327Y-93897751D01*
X97903806Y-93711346D01*
X97903804Y-93711343D01*
X97742900Y-93550439D01*
X97556493Y-93419917D01*
X97556491Y-93419916D01*
X97350256Y-93323746D01*
X97350247Y-93323743D01*
X97130456Y-93264851D01*
X97130452Y-93264850D01*
X97130451Y-93264850D01*
X97130450Y-93264849D01*
X97130445Y-93264849D01*
X96903761Y-93245017D01*
X96903757Y-93245017D01*
X96677072Y-93264849D01*
X96677061Y-93264851D01*
X96457270Y-93323743D01*
X96457261Y-93323746D01*
X96251026Y-93419916D01*
X96251024Y-93419917D01*
X96064617Y-93550439D01*
X95903713Y-93711343D01*
X95786382Y-93878912D01*
X95773191Y-93897751D01*
X95773074Y-93898003D01*
X95745865Y-93956352D01*
X95699692Y-94008791D01*
X95632498Y-94027942D01*
X95565617Y-94007726D01*
X95521101Y-93956350D01*
X95493894Y-93898005D01*
X95493893Y-93898003D01*
X95363416Y-93711664D01*
X95202579Y-93550827D01*
X95016241Y-93420350D01*
X94810087Y-93324219D01*
X94613759Y-93271612D01*
X94613759Y-94117473D01*
X94556752Y-94084560D01*
X94429585Y-94050485D01*
X94297933Y-94050485D01*
X94170766Y-94084560D01*
X94113759Y-94117473D01*
X94113759Y-93271612D01*
X93917430Y-93324219D01*
X93711276Y-93420350D01*
X93524938Y-93550827D01*
X93364101Y-93711664D01*
X93233624Y-93898002D01*
X93137493Y-94104158D01*
X93137489Y-94104167D01*
X93084886Y-94300484D01*
X93084887Y-94300485D01*
X93930747Y-94300485D01*
X93897834Y-94357492D01*
X93863759Y-94484659D01*
X93863759Y-94616311D01*
X93897834Y-94743478D01*
X93930747Y-94800485D01*
X93084887Y-94800485D01*
X93137489Y-94996802D01*
X93137493Y-94996811D01*
X93233624Y-95202967D01*
X93364101Y-95389305D01*
X93524938Y-95550142D01*
X93711276Y-95680619D01*
X93917432Y-95776750D01*
X93917441Y-95776754D01*
X94113758Y-95829357D01*
X94113759Y-95829356D01*
X94113759Y-94983497D01*
X94170766Y-95016410D01*
X94297933Y-95050485D01*
X94429585Y-95050485D01*
X94556752Y-95016410D01*
X94613759Y-94983497D01*
X94613759Y-95829357D01*
X94810076Y-95776754D01*
X94810085Y-95776750D01*
X95016241Y-95680619D01*
X95202579Y-95550142D01*
X95363416Y-95389305D01*
X95493891Y-95202969D01*
X95521100Y-95144619D01*
X95567272Y-95092180D01*
X95634466Y-95073027D01*
X95701347Y-95093242D01*
X95745865Y-95144618D01*
X95773190Y-95203217D01*
X95773191Y-95203219D01*
X95903713Y-95389626D01*
X96064617Y-95550530D01*
X96064620Y-95550532D01*
X96251025Y-95681053D01*
X96457263Y-95777224D01*
X96677067Y-95836120D01*
X96838989Y-95850286D01*
X96903757Y-95855953D01*
X96903759Y-95855953D01*
X96903761Y-95855953D01*
X96960432Y-95850994D01*
X97130451Y-95836120D01*
X97350255Y-95777224D01*
X97556493Y-95681053D01*
X97742898Y-95550532D01*
X97903806Y-95389624D01*
X98034327Y-95203219D01*
X98061377Y-95145209D01*
X98107549Y-95092770D01*
X98174742Y-95073618D01*
X98241624Y-95093833D01*
X98286141Y-95145210D01*
X98313188Y-95203213D01*
X98313191Y-95203219D01*
X98443713Y-95389626D01*
X98558678Y-95504591D01*
X98592163Y-95565914D01*
X98587179Y-95635606D01*
X98558678Y-95679953D01*
X93925451Y-100313181D01*
X93864128Y-100346666D01*
X93837770Y-100349500D01*
X76726080Y-100349500D01*
X76581092Y-100378340D01*
X76581082Y-100378343D01*
X76444511Y-100434912D01*
X76444498Y-100434919D01*
X76321584Y-100517048D01*
X76321580Y-100517051D01*
X70137050Y-106701580D01*
X70137044Y-106701588D01*
X70087812Y-106775268D01*
X70087813Y-106775269D01*
X70054921Y-106824496D01*
X70054914Y-106824508D01*
X69998342Y-106961086D01*
X69998340Y-106961092D01*
X69969500Y-107106079D01*
X69969500Y-109673821D01*
X69949815Y-109740860D01*
X69916625Y-109775395D01*
X69880863Y-109800436D01*
X69719951Y-109961347D01*
X69589432Y-110147750D01*
X69589431Y-110147752D01*
X69589313Y-110148006D01*
X69562941Y-110204562D01*
X69562382Y-110205760D01*
X69516209Y-110258199D01*
X69449016Y-110277351D01*
X69382135Y-110257135D01*
X69337618Y-110205760D01*
X69337335Y-110205153D01*
X69310568Y-110147751D01*
X69180047Y-109961346D01*
X69180045Y-109961343D01*
X69019141Y-109800439D01*
X68832734Y-109669917D01*
X68832732Y-109669916D01*
X68626497Y-109573746D01*
X68626488Y-109573743D01*
X68406697Y-109514851D01*
X68406693Y-109514850D01*
X68406692Y-109514850D01*
X68406691Y-109514849D01*
X68406686Y-109514849D01*
X68180002Y-109495017D01*
X68179998Y-109495017D01*
X67953313Y-109514849D01*
X67953302Y-109514851D01*
X67733511Y-109573743D01*
X67733502Y-109573746D01*
X67527267Y-109669916D01*
X67527265Y-109669917D01*
X67340858Y-109800439D01*
X67179954Y-109961343D01*
X67049432Y-110147750D01*
X67049428Y-110147757D01*
X67022105Y-110206351D01*
X66975932Y-110258790D01*
X66908738Y-110277941D01*
X66841858Y-110257724D01*
X66797342Y-110206349D01*
X66770136Y-110148006D01*
X66770132Y-110147998D01*
X66719025Y-110075011D01*
X66122962Y-110671074D01*
X66105925Y-110607492D01*
X66040099Y-110493478D01*
X65947007Y-110400386D01*
X65832993Y-110334560D01*
X65769408Y-110317522D01*
X66365472Y-109721459D01*
X66292478Y-109670348D01*
X66086331Y-109574220D01*
X66086317Y-109574215D01*
X65866610Y-109515345D01*
X65866599Y-109515343D01*
X65640002Y-109495519D01*
X65639998Y-109495519D01*
X65413400Y-109515343D01*
X65413389Y-109515345D01*
X65193682Y-109574215D01*
X65193673Y-109574219D01*
X64987516Y-109670351D01*
X64987512Y-109670353D01*
X64914526Y-109721458D01*
X64914526Y-109721459D01*
X65510590Y-110317522D01*
X65447007Y-110334560D01*
X65332993Y-110400386D01*
X65239901Y-110493478D01*
X65174075Y-110607492D01*
X65157037Y-110671075D01*
X64560973Y-110075011D01*
X64509868Y-110147997D01*
X64509868Y-110147998D01*
X64482657Y-110206352D01*
X64436484Y-110258791D01*
X64369290Y-110277942D01*
X64302409Y-110257726D01*
X64257893Y-110206350D01*
X64257059Y-110204562D01*
X64230568Y-110147751D01*
X64100047Y-109961346D01*
X64100045Y-109961343D01*
X63939141Y-109800439D01*
X63752734Y-109669917D01*
X63752732Y-109669916D01*
X63546497Y-109573746D01*
X63546488Y-109573743D01*
X63326697Y-109514851D01*
X63326693Y-109514850D01*
X63326692Y-109514850D01*
X63326691Y-109514849D01*
X63326686Y-109514849D01*
X63100002Y-109495017D01*
X63099998Y-109495017D01*
X62873313Y-109514849D01*
X62873302Y-109514851D01*
X62653511Y-109573743D01*
X62653502Y-109573746D01*
X62447267Y-109669916D01*
X62447265Y-109669917D01*
X62260858Y-109800439D01*
X62099954Y-109961343D01*
X61969432Y-110147750D01*
X61969431Y-110147752D01*
X61969313Y-110148006D01*
X61942941Y-110204562D01*
X61942382Y-110205760D01*
X61896209Y-110258199D01*
X61829016Y-110277351D01*
X61762135Y-110257135D01*
X61717618Y-110205760D01*
X61717335Y-110205153D01*
X61690568Y-110147751D01*
X61560047Y-109961346D01*
X61560045Y-109961343D01*
X61399141Y-109800439D01*
X61212734Y-109669917D01*
X61212732Y-109669916D01*
X61006497Y-109573746D01*
X61006488Y-109573743D01*
X60786697Y-109514851D01*
X60786693Y-109514850D01*
X60786692Y-109514850D01*
X60786691Y-109514849D01*
X60786686Y-109514849D01*
X60560002Y-109495017D01*
X60559998Y-109495017D01*
X60333313Y-109514849D01*
X60333302Y-109514851D01*
X60113511Y-109573743D01*
X60113502Y-109573746D01*
X59907267Y-109669916D01*
X59907265Y-109669917D01*
X59720858Y-109800439D01*
X59559954Y-109961343D01*
X59429432Y-110147750D01*
X59429431Y-110147752D01*
X59333261Y-110353987D01*
X59333258Y-110353996D01*
X59274366Y-110573787D01*
X59274364Y-110573798D01*
X59254532Y-110800483D01*
X51161835Y-110800483D01*
X51161835Y-95800483D01*
X61824532Y-95800483D01*
X61824532Y-95800486D01*
X61844364Y-96027171D01*
X61844366Y-96027182D01*
X61903258Y-96246973D01*
X61903260Y-96246978D01*
X61903261Y-96246981D01*
X61948424Y-96343833D01*
X61999431Y-96453217D01*
X61999432Y-96453219D01*
X62129954Y-96639626D01*
X62290858Y-96800530D01*
X62290861Y-96800532D01*
X62477266Y-96931053D01*
X62683504Y-97027224D01*
X62903308Y-97086120D01*
X63065230Y-97100286D01*
X63129998Y-97105953D01*
X63130000Y-97105953D01*
X63130002Y-97105953D01*
X63186673Y-97100994D01*
X63356692Y-97086120D01*
X63576496Y-97027224D01*
X63782734Y-96931053D01*
X63969139Y-96800532D01*
X64130047Y-96639624D01*
X64260568Y-96453219D01*
X64287618Y-96395209D01*
X64333790Y-96342770D01*
X64400983Y-96323618D01*
X64467865Y-96343833D01*
X64512382Y-96395210D01*
X64539429Y-96453213D01*
X64539432Y-96453219D01*
X64669954Y-96639626D01*
X64830858Y-96800530D01*
X64830861Y-96800532D01*
X65017266Y-96931053D01*
X65223504Y-97027224D01*
X65443308Y-97086120D01*
X65605230Y-97100286D01*
X65669998Y-97105953D01*
X65670000Y-97105953D01*
X65670002Y-97105953D01*
X65726673Y-97100994D01*
X65896692Y-97086120D01*
X66116496Y-97027224D01*
X66322734Y-96931053D01*
X66509139Y-96800532D01*
X66670047Y-96639624D01*
X66800568Y-96453219D01*
X66827618Y-96395209D01*
X66873790Y-96342770D01*
X66940983Y-96323618D01*
X67007865Y-96343833D01*
X67052382Y-96395210D01*
X67079429Y-96453213D01*
X67079432Y-96453219D01*
X67209954Y-96639626D01*
X67370858Y-96800530D01*
X67370861Y-96800532D01*
X67557266Y-96931053D01*
X67763504Y-97027224D01*
X67983308Y-97086120D01*
X68145230Y-97100286D01*
X68209998Y-97105953D01*
X68210000Y-97105953D01*
X68210002Y-97105953D01*
X68266673Y-97100994D01*
X68436692Y-97086120D01*
X68656496Y-97027224D01*
X68862734Y-96931053D01*
X69049139Y-96800532D01*
X69210047Y-96639624D01*
X69340568Y-96453219D01*
X69367618Y-96395209D01*
X69413790Y-96342770D01*
X69480983Y-96323618D01*
X69547865Y-96343833D01*
X69592382Y-96395210D01*
X69619429Y-96453213D01*
X69619432Y-96453219D01*
X69749954Y-96639626D01*
X69910858Y-96800530D01*
X69910861Y-96800532D01*
X70097266Y-96931053D01*
X70303504Y-97027224D01*
X70523308Y-97086120D01*
X70685230Y-97100286D01*
X70749998Y-97105953D01*
X70750000Y-97105953D01*
X70750002Y-97105953D01*
X70806673Y-97100994D01*
X70976692Y-97086120D01*
X71196496Y-97027224D01*
X71402734Y-96931053D01*
X71589139Y-96800532D01*
X71750047Y-96639624D01*
X71880568Y-96453219D01*
X71976739Y-96246981D01*
X72035635Y-96027177D01*
X72055468Y-95800485D01*
X72053391Y-95776750D01*
X72038812Y-95610108D01*
X72035635Y-95573793D01*
X71976739Y-95353989D01*
X71880568Y-95147751D01*
X71750047Y-94961346D01*
X71750045Y-94961343D01*
X71589141Y-94800439D01*
X71402734Y-94669917D01*
X71402732Y-94669916D01*
X71196497Y-94573746D01*
X71196488Y-94573743D01*
X70976697Y-94514851D01*
X70976693Y-94514850D01*
X70976692Y-94514850D01*
X70976691Y-94514849D01*
X70976686Y-94514849D01*
X70750002Y-94495017D01*
X70749998Y-94495017D01*
X70523313Y-94514849D01*
X70523302Y-94514851D01*
X70303511Y-94573743D01*
X70303502Y-94573746D01*
X70097267Y-94669916D01*
X70097265Y-94669917D01*
X69910858Y-94800439D01*
X69749954Y-94961343D01*
X69619432Y-95147750D01*
X69619431Y-95147752D01*
X69600310Y-95188757D01*
X69593570Y-95203213D01*
X69592382Y-95205760D01*
X69546209Y-95258199D01*
X69479016Y-95277351D01*
X69412135Y-95257135D01*
X69367618Y-95205760D01*
X69366432Y-95203217D01*
X69340568Y-95147751D01*
X69210047Y-94961346D01*
X69210045Y-94961343D01*
X69049141Y-94800439D01*
X68862734Y-94669917D01*
X68862732Y-94669916D01*
X68656497Y-94573746D01*
X68656488Y-94573743D01*
X68436697Y-94514851D01*
X68436693Y-94514850D01*
X68436692Y-94514850D01*
X68436691Y-94514849D01*
X68436686Y-94514849D01*
X68210002Y-94495017D01*
X68209998Y-94495017D01*
X67983313Y-94514849D01*
X67983302Y-94514851D01*
X67763511Y-94573743D01*
X67763502Y-94573746D01*
X67557267Y-94669916D01*
X67557265Y-94669917D01*
X67370858Y-94800439D01*
X67209954Y-94961343D01*
X67079432Y-95147750D01*
X67079431Y-95147752D01*
X67060310Y-95188757D01*
X67053570Y-95203213D01*
X67052382Y-95205760D01*
X67006209Y-95258199D01*
X66939016Y-95277351D01*
X66872135Y-95257135D01*
X66827618Y-95205760D01*
X66826432Y-95203217D01*
X66800568Y-95147751D01*
X66670047Y-94961346D01*
X66670045Y-94961343D01*
X66509141Y-94800439D01*
X66322734Y-94669917D01*
X66322732Y-94669916D01*
X66116497Y-94573746D01*
X66116488Y-94573743D01*
X65896697Y-94514851D01*
X65896693Y-94514850D01*
X65896692Y-94514850D01*
X65896691Y-94514849D01*
X65896686Y-94514849D01*
X65670002Y-94495017D01*
X65669998Y-94495017D01*
X65443313Y-94514849D01*
X65443302Y-94514851D01*
X65223511Y-94573743D01*
X65223502Y-94573746D01*
X65017267Y-94669916D01*
X65017265Y-94669917D01*
X64830858Y-94800439D01*
X64669954Y-94961343D01*
X64539432Y-95147750D01*
X64539431Y-95147752D01*
X64520310Y-95188757D01*
X64513570Y-95203213D01*
X64512382Y-95205760D01*
X64466209Y-95258199D01*
X64399016Y-95277351D01*
X64332135Y-95257135D01*
X64287618Y-95205760D01*
X64286432Y-95203217D01*
X64260568Y-95147751D01*
X64130047Y-94961346D01*
X64130045Y-94961343D01*
X63969141Y-94800439D01*
X63782734Y-94669917D01*
X63782732Y-94669916D01*
X63576497Y-94573746D01*
X63576488Y-94573743D01*
X63356697Y-94514851D01*
X63356693Y-94514850D01*
X63356692Y-94514850D01*
X63356691Y-94514849D01*
X63356686Y-94514849D01*
X63130002Y-94495017D01*
X63129998Y-94495017D01*
X62903313Y-94514849D01*
X62903302Y-94514851D01*
X62683511Y-94573743D01*
X62683502Y-94573746D01*
X62477267Y-94669916D01*
X62477265Y-94669917D01*
X62290858Y-94800439D01*
X62129954Y-94961343D01*
X61999432Y-95147750D01*
X61999431Y-95147752D01*
X61903261Y-95353987D01*
X61903258Y-95353996D01*
X61844366Y-95573787D01*
X61844364Y-95573798D01*
X61824532Y-95800483D01*
X51161835Y-95800483D01*
X51161835Y-88552155D01*
X57100000Y-88552155D01*
X57100000Y-89250000D01*
X58066988Y-89250000D01*
X58034075Y-89307007D01*
X58000000Y-89434174D01*
X58000000Y-89565826D01*
X58034075Y-89692993D01*
X58066988Y-89750000D01*
X57100000Y-89750000D01*
X57100000Y-90447844D01*
X57106401Y-90507372D01*
X57106403Y-90507379D01*
X57156645Y-90642086D01*
X57156649Y-90642093D01*
X57242809Y-90757187D01*
X57242812Y-90757190D01*
X57357906Y-90843350D01*
X57357913Y-90843354D01*
X57492620Y-90893596D01*
X57492627Y-90893598D01*
X57552155Y-90899999D01*
X57552172Y-90900000D01*
X58250000Y-90900000D01*
X58250000Y-89933012D01*
X58307007Y-89965925D01*
X58434174Y-90000000D01*
X58565826Y-90000000D01*
X58692993Y-89965925D01*
X58750000Y-89933012D01*
X58750000Y-90900000D01*
X59447828Y-90900000D01*
X59447844Y-90899999D01*
X59507372Y-90893598D01*
X59507379Y-90893596D01*
X59642086Y-90843354D01*
X59642093Y-90843350D01*
X59757187Y-90757190D01*
X59757190Y-90757187D01*
X59843350Y-90642093D01*
X59843353Y-90642088D01*
X59861678Y-90592955D01*
X59903549Y-90537020D01*
X59969013Y-90512602D01*
X60037286Y-90527453D01*
X60054023Y-90538433D01*
X60231365Y-90676464D01*
X60231371Y-90676468D01*
X60231374Y-90676470D01*
X60435497Y-90786936D01*
X60546371Y-90824999D01*
X60655015Y-90862297D01*
X60655017Y-90862297D01*
X60655019Y-90862298D01*
X60883951Y-90900500D01*
X60883952Y-90900500D01*
X61116048Y-90900500D01*
X61116049Y-90900500D01*
X61344981Y-90862298D01*
X61564503Y-90786936D01*
X61768626Y-90676470D01*
X61803879Y-90649032D01*
X61872450Y-90595661D01*
X61951784Y-90533913D01*
X62108979Y-90363153D01*
X62119928Y-90346395D01*
X62146191Y-90306196D01*
X62199337Y-90260839D01*
X62268569Y-90251415D01*
X62331904Y-90280917D01*
X62353809Y-90306196D01*
X62391016Y-90363147D01*
X62391019Y-90363151D01*
X62391021Y-90363153D01*
X62548216Y-90533913D01*
X62548219Y-90533915D01*
X62548222Y-90533918D01*
X62731365Y-90676464D01*
X62731371Y-90676468D01*
X62731374Y-90676470D01*
X62935497Y-90786936D01*
X63046371Y-90824999D01*
X63155015Y-90862297D01*
X63155017Y-90862297D01*
X63155019Y-90862298D01*
X63383951Y-90900500D01*
X63383952Y-90900500D01*
X63616048Y-90900500D01*
X63616049Y-90900500D01*
X63844981Y-90862298D01*
X64064503Y-90786936D01*
X64268626Y-90676470D01*
X64303879Y-90649032D01*
X64372450Y-90595661D01*
X64451784Y-90533913D01*
X64608979Y-90363153D01*
X64735924Y-90168849D01*
X64829157Y-89956300D01*
X64886134Y-89731305D01*
X64886516Y-89726697D01*
X64905300Y-89500006D01*
X64905300Y-89499997D01*
X71466913Y-89499997D01*
X71466913Y-89500002D01*
X71486737Y-89726599D01*
X71486739Y-89726609D01*
X71545609Y-89946317D01*
X71545614Y-89946331D01*
X71641742Y-90152478D01*
X71692853Y-90225472D01*
X72371879Y-89546446D01*
X72371879Y-89552661D01*
X72399138Y-89654394D01*
X72451799Y-89745606D01*
X72526273Y-89820080D01*
X72617485Y-89872741D01*
X72719218Y-89900000D01*
X72725432Y-89900000D01*
X72046405Y-90579025D01*
X72119392Y-90630132D01*
X72119400Y-90630136D01*
X72325547Y-90726264D01*
X72325561Y-90726269D01*
X72545268Y-90785139D01*
X72545279Y-90785141D01*
X72771877Y-90804966D01*
X72771881Y-90804966D01*
X72998478Y-90785141D01*
X72998489Y-90785139D01*
X73218196Y-90726269D01*
X73218210Y-90726264D01*
X73424357Y-90630136D01*
X73497350Y-90579024D01*
X72818326Y-89900000D01*
X72824540Y-89900000D01*
X72926273Y-89872741D01*
X73017485Y-89820080D01*
X73091959Y-89745606D01*
X73144620Y-89654394D01*
X73171879Y-89552661D01*
X73171879Y-89546447D01*
X73850903Y-90225471D01*
X73902015Y-90152478D01*
X73998143Y-89946331D01*
X73998148Y-89946317D01*
X74057019Y-89726609D01*
X74057020Y-89726599D01*
X74076845Y-89500002D01*
X74076845Y-89499997D01*
X74057020Y-89273400D01*
X74057018Y-89273389D01*
X73998148Y-89053682D01*
X73998143Y-89053668D01*
X73902015Y-88847521D01*
X73902011Y-88847513D01*
X73850904Y-88774526D01*
X73171879Y-89453551D01*
X73171879Y-89447339D01*
X73144620Y-89345606D01*
X73091959Y-89254394D01*
X73017485Y-89179920D01*
X72926273Y-89127259D01*
X72824540Y-89100000D01*
X72818324Y-89100000D01*
X73497351Y-88420974D01*
X73424357Y-88369863D01*
X73218210Y-88273735D01*
X73218196Y-88273730D01*
X72998489Y-88214860D01*
X72998478Y-88214858D01*
X72771881Y-88195034D01*
X72771877Y-88195034D01*
X72545279Y-88214858D01*
X72545268Y-88214860D01*
X72325561Y-88273730D01*
X72325552Y-88273734D01*
X72119395Y-88369866D01*
X72119391Y-88369868D01*
X72046405Y-88420973D01*
X72046405Y-88420974D01*
X72725432Y-89100000D01*
X72719218Y-89100000D01*
X72617485Y-89127259D01*
X72526273Y-89179920D01*
X72451799Y-89254394D01*
X72399138Y-89345606D01*
X72371879Y-89447339D01*
X72371879Y-89453552D01*
X71692853Y-88774526D01*
X71692852Y-88774526D01*
X71641747Y-88847512D01*
X71641745Y-88847516D01*
X71545613Y-89053673D01*
X71545609Y-89053682D01*
X71486739Y-89273389D01*
X71486737Y-89273400D01*
X71466913Y-89499997D01*
X64905300Y-89499997D01*
X64905300Y-89499993D01*
X64886135Y-89268702D01*
X64886133Y-89268691D01*
X64829157Y-89043699D01*
X64735924Y-88831151D01*
X64608983Y-88636852D01*
X64608980Y-88636849D01*
X64608979Y-88636847D01*
X64451784Y-88466087D01*
X64451779Y-88466083D01*
X64451777Y-88466081D01*
X64268634Y-88323535D01*
X64268628Y-88323531D01*
X64064504Y-88213064D01*
X64064495Y-88213061D01*
X63844984Y-88137702D01*
X63657404Y-88106401D01*
X63616049Y-88099500D01*
X63383951Y-88099500D01*
X63342596Y-88106401D01*
X63155015Y-88137702D01*
X62935504Y-88213061D01*
X62935495Y-88213064D01*
X62731371Y-88323531D01*
X62731365Y-88323535D01*
X62548222Y-88466081D01*
X62548219Y-88466084D01*
X62548216Y-88466086D01*
X62548216Y-88466087D01*
X62432027Y-88592303D01*
X62391015Y-88636854D01*
X62353808Y-88693804D01*
X62300662Y-88739161D01*
X62231430Y-88748584D01*
X62168095Y-88719082D01*
X62146192Y-88693804D01*
X62108984Y-88636854D01*
X62108982Y-88636852D01*
X62108979Y-88636847D01*
X61951784Y-88466087D01*
X61875927Y-88407045D01*
X61798337Y-88346654D01*
X61757524Y-88289944D01*
X61750500Y-88248801D01*
X61750500Y-81999994D01*
X63244556Y-81999994D01*
X63244556Y-82000005D01*
X63264310Y-82314004D01*
X63264311Y-82314011D01*
X63323270Y-82623083D01*
X63420497Y-82922316D01*
X63420499Y-82922321D01*
X63554461Y-83207003D01*
X63554464Y-83207009D01*
X63723051Y-83472661D01*
X63723054Y-83472665D01*
X63923606Y-83715090D01*
X63923608Y-83715092D01*
X64152968Y-83930476D01*
X64152978Y-83930484D01*
X64407504Y-84115408D01*
X64407509Y-84115410D01*
X64407516Y-84115416D01*
X64683234Y-84266994D01*
X64683239Y-84266996D01*
X64683241Y-84266997D01*
X64683242Y-84266998D01*
X64975771Y-84382818D01*
X64975774Y-84382819D01*
X65239375Y-84450500D01*
X65280527Y-84461066D01*
X65346010Y-84469338D01*
X65592670Y-84500499D01*
X65592679Y-84500499D01*
X65592682Y-84500500D01*
X65592684Y-84500500D01*
X65907316Y-84500500D01*
X65907318Y-84500500D01*
X65907321Y-84500499D01*
X65907329Y-84500499D01*
X66093593Y-84476968D01*
X66219473Y-84461066D01*
X66524225Y-84382819D01*
X66569019Y-84365084D01*
X66816757Y-84266998D01*
X66816758Y-84266997D01*
X66816756Y-84266997D01*
X66816766Y-84266994D01*
X67092484Y-84115416D01*
X67347030Y-83930478D01*
X67576390Y-83715094D01*
X67776947Y-83472663D01*
X67945537Y-83207007D01*
X68079503Y-82922315D01*
X68176731Y-82623079D01*
X68235688Y-82314015D01*
X68241182Y-82226692D01*
X68255444Y-82000005D01*
X68255444Y-81999994D01*
X68235689Y-81685995D01*
X68235688Y-81685988D01*
X68235688Y-81685985D01*
X68176731Y-81376921D01*
X68079503Y-81077685D01*
X67945537Y-80792993D01*
X67828748Y-80608962D01*
X67776948Y-80527338D01*
X67776945Y-80527334D01*
X67576393Y-80284909D01*
X67576391Y-80284907D01*
X67419707Y-80137770D01*
X67347030Y-80069522D01*
X67347027Y-80069520D01*
X67347021Y-80069515D01*
X67092495Y-79884591D01*
X67092488Y-79884586D01*
X67092484Y-79884584D01*
X66816766Y-79733006D01*
X66816763Y-79733004D01*
X66816758Y-79733002D01*
X66816757Y-79733001D01*
X66524228Y-79617181D01*
X66524225Y-79617180D01*
X66219476Y-79538934D01*
X66219463Y-79538932D01*
X65907329Y-79499500D01*
X65907318Y-79499500D01*
X65592682Y-79499500D01*
X65592670Y-79499500D01*
X65280536Y-79538932D01*
X65280523Y-79538934D01*
X64975774Y-79617180D01*
X64975771Y-79617181D01*
X64683242Y-79733001D01*
X64683241Y-79733002D01*
X64407516Y-79884584D01*
X64407504Y-79884591D01*
X64152978Y-80069515D01*
X64152968Y-80069523D01*
X63923608Y-80284907D01*
X63923606Y-80284909D01*
X63723054Y-80527334D01*
X63723051Y-80527338D01*
X63554464Y-80792990D01*
X63554461Y-80792996D01*
X63420499Y-81077678D01*
X63420497Y-81077683D01*
X63323270Y-81376916D01*
X63264311Y-81685988D01*
X63264310Y-81685995D01*
X63244556Y-81999994D01*
X61750500Y-81999994D01*
X61750500Y-79762229D01*
X61770185Y-79695190D01*
X61786819Y-79674548D01*
X64674548Y-76786819D01*
X64735871Y-76753334D01*
X64762229Y-76750500D01*
X80773920Y-76750500D01*
X80871462Y-76731096D01*
X80918913Y-76721658D01*
X81055495Y-76665084D01*
X81104729Y-76632186D01*
X81178416Y-76582952D01*
X86782952Y-70978415D01*
X86852774Y-70873918D01*
X86865084Y-70855495D01*
X86905288Y-70758434D01*
X86908575Y-70750500D01*
X86911075Y-70744461D01*
X86921659Y-70718912D01*
X86950500Y-70573917D01*
X86950500Y-70426082D01*
X86950500Y-60862228D01*
X86970185Y-60795189D01*
X86986814Y-60774551D01*
X87865048Y-59896317D01*
X87926369Y-59862834D01*
X87996060Y-59867818D01*
X88040408Y-59896319D01*
X88156545Y-60012456D01*
X88311508Y-60125041D01*
X88322149Y-60132772D01*
X88413599Y-60179368D01*
X88414839Y-60180000D01*
X88465635Y-60227975D01*
X88482430Y-60295796D01*
X88459893Y-60361931D01*
X88414839Y-60400970D01*
X88322145Y-60448200D01*
X88156545Y-60568513D01*
X88011787Y-60713271D01*
X87891474Y-60878871D01*
X87798540Y-61061261D01*
X87735281Y-61255950D01*
X87703259Y-61458133D01*
X87703259Y-61662836D01*
X87735281Y-61865019D01*
X87798540Y-62059708D01*
X87891474Y-62242098D01*
X88011787Y-62407698D01*
X88156545Y-62552456D01*
X88311508Y-62665041D01*
X88322149Y-62672772D01*
X88413599Y-62719368D01*
X88414839Y-62720000D01*
X88465635Y-62767975D01*
X88482430Y-62835796D01*
X88459893Y-62901931D01*
X88414839Y-62940970D01*
X88322145Y-62988200D01*
X88156545Y-63108513D01*
X88011787Y-63253271D01*
X87891474Y-63418871D01*
X87798540Y-63601261D01*
X87735281Y-63795950D01*
X87703259Y-63998133D01*
X87703259Y-64202836D01*
X87735281Y-64405019D01*
X87798540Y-64599708D01*
X87841203Y-64683437D01*
X87889009Y-64777262D01*
X87891474Y-64782098D01*
X88011787Y-64947698D01*
X88156545Y-65092456D01*
X88276750Y-65179788D01*
X88322149Y-65212772D01*
X88413599Y-65259368D01*
X88414839Y-65260000D01*
X88465635Y-65307975D01*
X88482430Y-65375796D01*
X88459893Y-65441931D01*
X88414839Y-65480970D01*
X88322145Y-65528200D01*
X88156545Y-65648513D01*
X88011787Y-65793271D01*
X87891474Y-65958871D01*
X87798540Y-66141261D01*
X87735281Y-66335950D01*
X87703259Y-66538133D01*
X87703259Y-66742836D01*
X87735281Y-66945019D01*
X87798540Y-67139708D01*
X87891474Y-67322098D01*
X88011787Y-67487698D01*
X88156545Y-67632456D01*
X88311508Y-67745041D01*
X88322149Y-67752772D01*
X88411775Y-67798439D01*
X88414839Y-67800000D01*
X88465635Y-67847975D01*
X88482430Y-67915796D01*
X88459893Y-67981931D01*
X88414839Y-68020970D01*
X88322145Y-68068200D01*
X88156545Y-68188513D01*
X88011787Y-68333271D01*
X87891474Y-68498871D01*
X87798540Y-68681261D01*
X87735281Y-68875950D01*
X87703259Y-69078133D01*
X87703259Y-69282836D01*
X87735281Y-69485019D01*
X87798540Y-69679708D01*
X87891474Y-69862098D01*
X88011787Y-70027698D01*
X88156545Y-70172456D01*
X88311508Y-70285041D01*
X88322149Y-70292772D01*
X88413599Y-70339368D01*
X88414839Y-70340000D01*
X88465635Y-70387975D01*
X88482430Y-70455796D01*
X88459893Y-70521931D01*
X88414839Y-70560970D01*
X88322145Y-70608200D01*
X88156545Y-70728513D01*
X88011787Y-70873271D01*
X87891474Y-71038871D01*
X87798540Y-71221261D01*
X87735281Y-71415950D01*
X87703259Y-71618133D01*
X87703259Y-71822836D01*
X87735281Y-72025019D01*
X87798540Y-72219708D01*
X87891474Y-72402098D01*
X88011787Y-72567698D01*
X88156545Y-72712456D01*
X88311508Y-72825041D01*
X88322149Y-72832772D01*
X88413599Y-72879368D01*
X88414839Y-72880000D01*
X88465635Y-72927975D01*
X88482430Y-72995796D01*
X88459893Y-73061931D01*
X88414839Y-73100970D01*
X88322145Y-73148200D01*
X88156545Y-73268513D01*
X88011787Y-73413271D01*
X87891474Y-73578871D01*
X87798540Y-73761261D01*
X87735281Y-73955950D01*
X87703259Y-74158133D01*
X87703259Y-74362836D01*
X87735281Y-74565019D01*
X87798540Y-74759708D01*
X87891474Y-74942098D01*
X88011787Y-75107698D01*
X88156545Y-75252456D01*
X88270044Y-75334916D01*
X88322149Y-75372772D01*
X88409047Y-75417049D01*
X88414839Y-75420000D01*
X88465635Y-75467975D01*
X88482430Y-75535796D01*
X88459893Y-75601931D01*
X88414839Y-75640970D01*
X88322145Y-75688200D01*
X88156545Y-75808513D01*
X88011787Y-75953271D01*
X87891474Y-76118871D01*
X87798540Y-76301261D01*
X87735281Y-76495950D01*
X87703259Y-76698133D01*
X87703259Y-76902836D01*
X87735281Y-77105019D01*
X87798540Y-77299708D01*
X87891474Y-77482098D01*
X88011787Y-77647698D01*
X88156545Y-77792456D01*
X88311508Y-77905041D01*
X88322149Y-77912772D01*
X88413599Y-77959368D01*
X88414839Y-77960000D01*
X88465635Y-78007975D01*
X88482430Y-78075796D01*
X88459893Y-78141931D01*
X88414839Y-78180970D01*
X88322145Y-78228200D01*
X88156545Y-78348513D01*
X88011787Y-78493271D01*
X87891474Y-78658871D01*
X87798540Y-78841261D01*
X87735281Y-79035950D01*
X87703259Y-79238133D01*
X87703259Y-79442836D01*
X87735281Y-79645019D01*
X87798540Y-79839708D01*
X87891474Y-80022098D01*
X88011787Y-80187698D01*
X88156545Y-80332456D01*
X88285414Y-80426083D01*
X88322149Y-80452772D01*
X88438366Y-80511988D01*
X88504535Y-80545703D01*
X88504537Y-80545703D01*
X88504540Y-80545705D01*
X88591371Y-80573918D01*
X88699224Y-80608962D01*
X88800316Y-80624973D01*
X88901407Y-80640985D01*
X88901408Y-80640985D01*
X90106110Y-80640985D01*
X90106111Y-80640985D01*
X90308293Y-80608962D01*
X90502978Y-80545705D01*
X90685369Y-80452772D01*
X90778349Y-80385217D01*
X90850972Y-80332456D01*
X90850974Y-80332453D01*
X90850978Y-80332451D01*
X90995725Y-80187704D01*
X90995727Y-80187700D01*
X90995730Y-80187698D01*
X91048491Y-80115075D01*
X91116046Y-80022095D01*
X91208979Y-79839704D01*
X91272236Y-79645019D01*
X91304259Y-79442837D01*
X91304259Y-79238133D01*
X91295224Y-79181087D01*
X91272236Y-79035950D01*
X91208977Y-78841261D01*
X91175262Y-78775092D01*
X91116046Y-78658875D01*
X91108315Y-78648234D01*
X90995730Y-78493271D01*
X90850972Y-78348513D01*
X90685373Y-78228200D01*
X90678765Y-78224833D01*
X90592676Y-78180968D01*
X90541882Y-78132996D01*
X90525087Y-78065175D01*
X90547624Y-77999040D01*
X90592676Y-77960001D01*
X90685369Y-77912772D01*
X90706529Y-77897398D01*
X90850972Y-77792456D01*
X90850974Y-77792453D01*
X90850978Y-77792451D01*
X90995725Y-77647704D01*
X90995727Y-77647700D01*
X90995730Y-77647698D01*
X91048491Y-77575075D01*
X91116046Y-77482095D01*
X91208979Y-77299704D01*
X91272236Y-77105019D01*
X91304259Y-76902837D01*
X91304259Y-76698133D01*
X91272236Y-76495951D01*
X91208979Y-76301266D01*
X91208977Y-76301263D01*
X91208977Y-76301261D01*
X91175262Y-76235092D01*
X91116046Y-76118875D01*
X91108315Y-76108234D01*
X90995730Y-75953271D01*
X90850972Y-75808513D01*
X90685373Y-75688200D01*
X90678765Y-75684833D01*
X90592676Y-75640968D01*
X90541882Y-75592996D01*
X90525087Y-75525175D01*
X90547624Y-75459040D01*
X90592676Y-75420001D01*
X90685369Y-75372772D01*
X90737479Y-75334912D01*
X90850972Y-75252456D01*
X90850974Y-75252453D01*
X90850978Y-75252451D01*
X90995725Y-75107704D01*
X90995727Y-75107700D01*
X90995730Y-75107698D01*
X91070164Y-75005246D01*
X91116046Y-74942095D01*
X91208979Y-74759704D01*
X91272236Y-74565019D01*
X91304259Y-74362837D01*
X91304259Y-74158133D01*
X91272236Y-73955951D01*
X91208979Y-73761266D01*
X91208977Y-73761263D01*
X91208977Y-73761261D01*
X91175262Y-73695092D01*
X91116046Y-73578875D01*
X91108315Y-73568234D01*
X90995730Y-73413271D01*
X90850972Y-73268513D01*
X90685373Y-73148200D01*
X90678765Y-73144833D01*
X90592676Y-73100968D01*
X90541882Y-73052996D01*
X90525087Y-72985175D01*
X90547624Y-72919040D01*
X90592676Y-72880001D01*
X90685369Y-72832772D01*
X90706529Y-72817398D01*
X90850972Y-72712456D01*
X90850974Y-72712453D01*
X90850978Y-72712451D01*
X90995725Y-72567704D01*
X90995727Y-72567700D01*
X90995730Y-72567698D01*
X91065995Y-72470985D01*
X91116046Y-72402095D01*
X91208979Y-72219704D01*
X91272236Y-72025019D01*
X91304259Y-71822837D01*
X91304259Y-71618133D01*
X91274808Y-71432187D01*
X91272236Y-71415950D01*
X91208977Y-71221261D01*
X91141228Y-71088298D01*
X91116046Y-71038875D01*
X91108315Y-71028234D01*
X90995730Y-70873271D01*
X90850972Y-70728513D01*
X90685373Y-70608200D01*
X90678765Y-70604833D01*
X90592676Y-70560968D01*
X90541882Y-70512996D01*
X90525087Y-70445175D01*
X90547624Y-70379040D01*
X90592676Y-70340001D01*
X90685369Y-70292772D01*
X90706529Y-70277398D01*
X90850972Y-70172456D01*
X90850974Y-70172453D01*
X90850978Y-70172451D01*
X90995725Y-70027704D01*
X90995727Y-70027700D01*
X90995730Y-70027698D01*
X91070164Y-69925246D01*
X91116046Y-69862095D01*
X91208979Y-69679704D01*
X91272236Y-69485019D01*
X91304259Y-69282837D01*
X91304259Y-69078133D01*
X91272236Y-68875951D01*
X91267071Y-68860056D01*
X91228391Y-68741009D01*
X91208979Y-68681266D01*
X91208977Y-68681263D01*
X91208977Y-68681261D01*
X91172664Y-68609994D01*
X91116046Y-68498875D01*
X91094981Y-68469881D01*
X90995730Y-68333271D01*
X90850972Y-68188513D01*
X90685373Y-68068200D01*
X90630243Y-68040110D01*
X90592676Y-68020968D01*
X90541882Y-67972996D01*
X90525087Y-67905175D01*
X90547624Y-67839040D01*
X90592676Y-67800001D01*
X90685369Y-67752772D01*
X90749234Y-67706372D01*
X90850972Y-67632456D01*
X90850974Y-67632453D01*
X90850978Y-67632451D01*
X90995725Y-67487704D01*
X90995727Y-67487700D01*
X90995730Y-67487698D01*
X91068376Y-67387708D01*
X91116046Y-67322095D01*
X91208979Y-67139704D01*
X91272236Y-66945019D01*
X91304259Y-66742837D01*
X91304259Y-66538133D01*
X91295097Y-66480285D01*
X91272236Y-66335950D01*
X91208977Y-66141261D01*
X91166313Y-66057530D01*
X91116046Y-65958875D01*
X91108315Y-65948234D01*
X90995730Y-65793271D01*
X90850972Y-65648513D01*
X90685373Y-65528200D01*
X90678765Y-65524833D01*
X90592676Y-65480968D01*
X90541882Y-65432996D01*
X90525087Y-65365175D01*
X90547624Y-65299040D01*
X90592676Y-65260001D01*
X90685369Y-65212772D01*
X90730772Y-65179785D01*
X90850972Y-65092456D01*
X90850974Y-65092453D01*
X90850978Y-65092451D01*
X90995725Y-64947704D01*
X90995727Y-64947700D01*
X90995730Y-64947698D01*
X91076975Y-64835872D01*
X91116046Y-64782095D01*
X91208979Y-64599704D01*
X91272236Y-64405019D01*
X91304259Y-64202837D01*
X91304259Y-63998133D01*
X91275508Y-63816607D01*
X91272236Y-63795950D01*
X91208977Y-63601261D01*
X91167015Y-63518907D01*
X91116046Y-63418875D01*
X91064423Y-63347821D01*
X90995730Y-63253271D01*
X90850972Y-63108513D01*
X90685373Y-62988200D01*
X90638129Y-62964128D01*
X90592676Y-62940968D01*
X90541882Y-62892996D01*
X90525087Y-62825175D01*
X90547624Y-62759040D01*
X90592676Y-62720001D01*
X90685369Y-62672772D01*
X90770228Y-62611119D01*
X90850972Y-62552456D01*
X90850974Y-62552453D01*
X90850978Y-62552451D01*
X90995725Y-62407704D01*
X91013388Y-62383393D01*
X91028859Y-62362100D01*
X91084188Y-62319434D01*
X91129177Y-62310985D01*
X91498255Y-62310985D01*
X91565294Y-62330670D01*
X91585936Y-62347304D01*
X94013181Y-64774549D01*
X94046666Y-64835872D01*
X94049500Y-64862230D01*
X94049500Y-80137770D01*
X94029815Y-80204809D01*
X94013181Y-80225451D01*
X91325451Y-82913181D01*
X91264128Y-82946666D01*
X91237770Y-82949500D01*
X81184109Y-82949500D01*
X81117070Y-82929815D01*
X81096428Y-82913181D01*
X80448595Y-82265348D01*
X80415110Y-82204025D01*
X80412748Y-82166863D01*
X80427347Y-82000000D01*
X80427346Y-81999994D01*
X80407514Y-81773313D01*
X80407514Y-81773308D01*
X80348618Y-81553504D01*
X80252447Y-81347266D01*
X80121926Y-81160861D01*
X80121924Y-81160858D01*
X79961020Y-80999954D01*
X79774613Y-80869432D01*
X79774611Y-80869431D01*
X79568376Y-80773261D01*
X79568367Y-80773258D01*
X79348576Y-80714366D01*
X79348572Y-80714365D01*
X79348571Y-80714365D01*
X79348570Y-80714364D01*
X79348565Y-80714364D01*
X79121881Y-80694532D01*
X79121877Y-80694532D01*
X78895192Y-80714364D01*
X78895181Y-80714366D01*
X78675390Y-80773258D01*
X78675381Y-80773261D01*
X78469146Y-80869431D01*
X78469144Y-80869432D01*
X78282737Y-80999954D01*
X78121833Y-81160858D01*
X77991311Y-81347265D01*
X77991310Y-81347267D01*
X77964261Y-81405275D01*
X77918088Y-81457714D01*
X77850895Y-81476866D01*
X77784014Y-81456650D01*
X77739497Y-81405275D01*
X77712447Y-81347267D01*
X77712446Y-81347265D01*
X77581924Y-81160858D01*
X77421020Y-80999954D01*
X77234613Y-80869432D01*
X77234611Y-80869431D01*
X77028376Y-80773261D01*
X77028367Y-80773258D01*
X76808576Y-80714366D01*
X76808572Y-80714365D01*
X76808571Y-80714365D01*
X76808570Y-80714364D01*
X76808565Y-80714364D01*
X76581881Y-80694532D01*
X76581877Y-80694532D01*
X76355192Y-80714364D01*
X76355181Y-80714366D01*
X76135390Y-80773258D01*
X76135381Y-80773261D01*
X75929146Y-80869431D01*
X75929144Y-80869432D01*
X75742737Y-80999954D01*
X75581833Y-81160858D01*
X75451311Y-81347265D01*
X75451310Y-81347267D01*
X75355140Y-81553502D01*
X75355137Y-81553511D01*
X75296245Y-81773302D01*
X75296243Y-81773313D01*
X75276411Y-81999998D01*
X75276411Y-82000001D01*
X75296243Y-82226686D01*
X75296245Y-82226697D01*
X75355137Y-82446488D01*
X75355140Y-82446497D01*
X75451310Y-82652732D01*
X75451311Y-82652734D01*
X75581833Y-82839141D01*
X75742737Y-83000045D01*
X75742740Y-83000047D01*
X75929145Y-83130568D01*
X76135383Y-83226739D01*
X76355187Y-83285635D01*
X76517109Y-83299801D01*
X76581877Y-83305468D01*
X76581879Y-83305468D01*
X76581881Y-83305468D01*
X76638552Y-83300509D01*
X76808571Y-83285635D01*
X77028375Y-83226739D01*
X77234613Y-83130568D01*
X77421018Y-83000047D01*
X77581926Y-82839139D01*
X77712447Y-82652734D01*
X77739497Y-82594724D01*
X77785669Y-82542285D01*
X77852862Y-82523133D01*
X77919744Y-82543348D01*
X77964261Y-82594725D01*
X77991308Y-82652728D01*
X77991311Y-82652734D01*
X78121833Y-82839141D01*
X78282737Y-83000045D01*
X78282740Y-83000047D01*
X78469145Y-83130568D01*
X78675383Y-83226739D01*
X78895187Y-83285635D01*
X79057109Y-83299801D01*
X79121877Y-83305468D01*
X79121879Y-83305468D01*
X79121880Y-83305468D01*
X79141941Y-83303712D01*
X79288740Y-83290869D01*
X79357238Y-83304635D01*
X79387227Y-83326716D01*
X82145060Y-86084548D01*
X82178545Y-86145871D01*
X82181379Y-86172229D01*
X82181379Y-88373336D01*
X82161694Y-88440375D01*
X82128504Y-88474910D01*
X82092742Y-88499951D01*
X81931830Y-88660862D01*
X81801311Y-88847265D01*
X81801310Y-88847267D01*
X81705140Y-89053502D01*
X81705137Y-89053511D01*
X81646245Y-89273302D01*
X81646243Y-89273313D01*
X81626411Y-89499998D01*
X81626411Y-89500001D01*
X81646243Y-89726686D01*
X81646245Y-89726697D01*
X81705137Y-89946488D01*
X81705140Y-89946497D01*
X81801310Y-90152732D01*
X81801311Y-90152734D01*
X81931833Y-90339141D01*
X82092737Y-90500045D01*
X82111942Y-90513492D01*
X82279145Y-90630568D01*
X82485383Y-90726739D01*
X82705187Y-90785635D01*
X82867109Y-90799801D01*
X82931877Y-90805468D01*
X82931879Y-90805468D01*
X82931881Y-90805468D01*
X82988552Y-90800509D01*
X83158571Y-90785635D01*
X83378375Y-90726739D01*
X83584613Y-90630568D01*
X83771018Y-90500047D01*
X83931926Y-90339139D01*
X84062447Y-90152734D01*
X84158618Y-89946496D01*
X84217514Y-89726692D01*
X84236842Y-89505772D01*
X84237347Y-89500001D01*
X84237347Y-89499998D01*
X84218275Y-89282007D01*
X84217514Y-89273308D01*
X84158618Y-89053504D01*
X84062447Y-88847266D01*
X83986752Y-88739161D01*
X83931927Y-88660862D01*
X83857995Y-88586930D01*
X83848200Y-88577135D01*
X85359500Y-88577135D01*
X85359500Y-90372870D01*
X85359501Y-90372876D01*
X85365908Y-90432483D01*
X85416202Y-90567328D01*
X85416206Y-90567335D01*
X85502452Y-90682544D01*
X85502455Y-90682547D01*
X85617664Y-90768793D01*
X85617671Y-90768797D01*
X85752517Y-90819091D01*
X85752516Y-90819091D01*
X85759444Y-90819835D01*
X85812127Y-90825500D01*
X87607872Y-90825499D01*
X87667483Y-90819091D01*
X87802331Y-90768796D01*
X87917546Y-90682546D01*
X88003796Y-90567331D01*
X88052810Y-90435916D01*
X88094681Y-90379984D01*
X88160145Y-90355566D01*
X88228418Y-90370417D01*
X88256673Y-90391569D01*
X88378599Y-90513495D01*
X88456277Y-90567886D01*
X88572165Y-90649032D01*
X88572167Y-90649033D01*
X88572170Y-90649035D01*
X88786337Y-90748903D01*
X88786343Y-90748904D01*
X88786344Y-90748905D01*
X88817265Y-90757190D01*
X89014592Y-90810063D01*
X89191034Y-90825500D01*
X89249999Y-90830659D01*
X89250000Y-90830659D01*
X89250001Y-90830659D01*
X89308966Y-90825500D01*
X89485408Y-90810063D01*
X89713663Y-90748903D01*
X89927830Y-90649035D01*
X90121401Y-90513495D01*
X90288495Y-90346401D01*
X90424035Y-90152830D01*
X90523903Y-89938663D01*
X90585063Y-89710408D01*
X90605659Y-89475000D01*
X90585063Y-89239592D01*
X90535203Y-89053511D01*
X90523905Y-89011344D01*
X90523904Y-89011343D01*
X90523903Y-89011337D01*
X90424035Y-88797171D01*
X90418425Y-88789158D01*
X90288494Y-88603597D01*
X90121402Y-88436506D01*
X90121395Y-88436501D01*
X90098303Y-88420332D01*
X90044518Y-88382671D01*
X89927834Y-88300967D01*
X89927830Y-88300965D01*
X89880801Y-88279035D01*
X89713663Y-88201097D01*
X89713659Y-88201096D01*
X89713655Y-88201094D01*
X89485413Y-88139938D01*
X89485403Y-88139936D01*
X89250001Y-88119341D01*
X89249999Y-88119341D01*
X89014596Y-88139936D01*
X89014586Y-88139938D01*
X88786344Y-88201094D01*
X88786335Y-88201098D01*
X88572171Y-88300964D01*
X88572169Y-88300965D01*
X88378600Y-88436503D01*
X88256673Y-88558430D01*
X88195350Y-88591914D01*
X88125658Y-88586930D01*
X88069725Y-88545058D01*
X88052810Y-88514081D01*
X88003797Y-88382671D01*
X88003793Y-88382664D01*
X87917547Y-88267455D01*
X87917544Y-88267452D01*
X87802335Y-88181206D01*
X87802328Y-88181202D01*
X87667482Y-88130908D01*
X87667483Y-88130908D01*
X87607883Y-88124501D01*
X87607881Y-88124500D01*
X87607873Y-88124500D01*
X87607864Y-88124500D01*
X85812129Y-88124500D01*
X85812123Y-88124501D01*
X85752516Y-88130908D01*
X85617671Y-88181202D01*
X85617664Y-88181206D01*
X85502455Y-88267452D01*
X85502452Y-88267455D01*
X85416206Y-88382664D01*
X85416202Y-88382671D01*
X85365908Y-88517517D01*
X85359501Y-88577116D01*
X85359500Y-88577135D01*
X83848200Y-88577135D01*
X83771018Y-88499953D01*
X83766252Y-88496615D01*
X83735254Y-88474910D01*
X83691630Y-88420332D01*
X83682379Y-88373336D01*
X83682379Y-85736080D01*
X83674250Y-85695216D01*
X83662057Y-85633918D01*
X83653538Y-85591088D01*
X83610043Y-85486083D01*
X83610043Y-85486082D01*
X83596966Y-85454511D01*
X83596964Y-85454507D01*
X83596963Y-85454505D01*
X83542084Y-85372373D01*
X83514831Y-85331585D01*
X82845427Y-84662181D01*
X82811942Y-84600858D01*
X82816926Y-84531166D01*
X82858798Y-84475233D01*
X82924262Y-84450816D01*
X82933108Y-84450500D01*
X91673920Y-84450500D01*
X91771462Y-84431096D01*
X91818913Y-84421658D01*
X91955495Y-84365084D01*
X92004729Y-84332186D01*
X92078416Y-84282952D01*
X95382951Y-80978416D01*
X95465084Y-80855495D01*
X95521658Y-80718913D01*
X95550500Y-80573918D01*
X95550500Y-80426083D01*
X95550500Y-64426082D01*
X95550500Y-64426079D01*
X95521659Y-64281092D01*
X95521658Y-64281091D01*
X95521658Y-64281087D01*
X95489246Y-64202837D01*
X95465086Y-64144509D01*
X95465085Y-64144507D01*
X95432186Y-64095270D01*
X95432185Y-64095268D01*
X95382956Y-64021589D01*
X95382952Y-64021584D01*
X92338898Y-60977530D01*
X92289664Y-60944635D01*
X92256840Y-60922703D01*
X92215980Y-60895401D01*
X92215979Y-60895400D01*
X92215977Y-60895399D01*
X92215975Y-60895398D01*
X92079402Y-60838828D01*
X92079392Y-60838825D01*
X91934405Y-60809985D01*
X91934403Y-60809985D01*
X91129177Y-60809985D01*
X91062138Y-60790300D01*
X91028859Y-60758870D01*
X90995730Y-60713272D01*
X90995726Y-60713267D01*
X90850972Y-60568513D01*
X90685373Y-60448200D01*
X90641958Y-60426079D01*
X90592676Y-60400968D01*
X90541882Y-60352996D01*
X90525087Y-60285175D01*
X90547624Y-60219040D01*
X90592676Y-60180001D01*
X90685369Y-60132772D01*
X90778533Y-60065085D01*
X90850972Y-60012456D01*
X90850974Y-60012453D01*
X90850978Y-60012451D01*
X90995725Y-59867704D01*
X90995727Y-59867700D01*
X90995730Y-59867698D01*
X91048491Y-59795075D01*
X91116046Y-59702095D01*
X91208979Y-59519704D01*
X91272236Y-59325019D01*
X91304259Y-59122837D01*
X91304259Y-58918133D01*
X91272236Y-58715951D01*
X91255677Y-58664989D01*
X91208977Y-58521261D01*
X91166315Y-58437533D01*
X91116046Y-58338875D01*
X91108315Y-58328234D01*
X90995730Y-58173271D01*
X90850972Y-58028513D01*
X90685373Y-57908200D01*
X90678765Y-57904833D01*
X90592676Y-57860968D01*
X90541882Y-57812996D01*
X90525087Y-57745175D01*
X90547624Y-57679040D01*
X90592676Y-57640001D01*
X90685369Y-57592772D01*
X90706529Y-57577398D01*
X90850972Y-57472456D01*
X90850974Y-57472453D01*
X90850978Y-57472451D01*
X90995725Y-57327704D01*
X90995727Y-57327700D01*
X90995730Y-57327698D01*
X91065995Y-57230985D01*
X91116046Y-57162095D01*
X91208979Y-56979704D01*
X91272236Y-56785019D01*
X91304259Y-56582837D01*
X91304259Y-56378133D01*
X91272236Y-56175951D01*
X91208979Y-55981266D01*
X91208977Y-55981263D01*
X91208977Y-55981261D01*
X91166312Y-55897528D01*
X91116046Y-55798875D01*
X91086949Y-55758826D01*
X90995730Y-55633271D01*
X90850972Y-55488513D01*
X90685373Y-55368200D01*
X90678765Y-55364833D01*
X90592676Y-55320968D01*
X90541882Y-55272996D01*
X90525087Y-55205175D01*
X90547624Y-55139040D01*
X90592676Y-55100001D01*
X90685369Y-55052772D01*
X90732610Y-55018450D01*
X90850972Y-54932456D01*
X90850974Y-54932453D01*
X90850978Y-54932451D01*
X90995725Y-54787704D01*
X90995727Y-54787700D01*
X90995730Y-54787698D01*
X91073437Y-54680742D01*
X91116046Y-54622095D01*
X91208979Y-54439704D01*
X91272236Y-54245019D01*
X91304259Y-54042837D01*
X91304259Y-53838133D01*
X91272236Y-53635951D01*
X91208979Y-53441266D01*
X91208977Y-53441263D01*
X91208977Y-53441261D01*
X91166315Y-53357533D01*
X91116046Y-53258875D01*
X91108315Y-53248234D01*
X90995730Y-53093271D01*
X90850972Y-52948513D01*
X90685373Y-52828200D01*
X90678765Y-52824833D01*
X90592676Y-52780968D01*
X90541882Y-52732996D01*
X90525087Y-52665175D01*
X90547624Y-52599040D01*
X90592676Y-52560001D01*
X90685369Y-52512772D01*
X90706529Y-52497398D01*
X90850972Y-52392456D01*
X90850974Y-52392453D01*
X90850978Y-52392451D01*
X90995725Y-52247704D01*
X90995729Y-52247699D01*
X90995730Y-52247698D01*
X91076390Y-52136677D01*
X91116046Y-52082095D01*
X91208979Y-51899704D01*
X91272236Y-51705019D01*
X91304259Y-51502837D01*
X91304259Y-51298133D01*
X91272236Y-51095951D01*
X91208979Y-50901266D01*
X91208977Y-50901263D01*
X91208977Y-50901261D01*
X91175262Y-50835092D01*
X91116046Y-50718875D01*
X91065643Y-50649500D01*
X90995730Y-50553271D01*
X90850972Y-50408513D01*
X90685370Y-50288198D01*
X90592128Y-50240688D01*
X90541333Y-50192714D01*
X90524538Y-50124892D01*
X90547076Y-50058758D01*
X90592130Y-50019719D01*
X90685106Y-49972346D01*
X90850653Y-49852067D01*
X90850654Y-49852067D01*
X90995341Y-49707380D01*
X90995341Y-49707379D01*
X91115618Y-49541834D01*
X91208514Y-49359514D01*
X91271749Y-49164898D01*
X91280368Y-49110485D01*
X89636771Y-49110485D01*
X89669684Y-49053478D01*
X89703759Y-48926311D01*
X89703759Y-48794659D01*
X89669684Y-48667492D01*
X89636771Y-48610485D01*
X91280368Y-48610485D01*
X91271749Y-48556071D01*
X91208514Y-48361455D01*
X91115618Y-48179135D01*
X90995341Y-48013590D01*
X90995341Y-48013589D01*
X90850654Y-47868902D01*
X90685108Y-47748625D01*
X90592129Y-47701250D01*
X90541333Y-47653275D01*
X90524538Y-47585454D01*
X90547075Y-47519320D01*
X90592129Y-47480280D01*
X90685369Y-47432772D01*
X90706529Y-47417398D01*
X90850972Y-47312456D01*
X90850974Y-47312453D01*
X90850978Y-47312451D01*
X90995725Y-47167704D01*
X90995727Y-47167700D01*
X90995730Y-47167698D01*
X91048491Y-47095075D01*
X91116046Y-47002095D01*
X91208979Y-46819704D01*
X91272236Y-46625019D01*
X91304259Y-46422837D01*
X91304259Y-46218133D01*
X91272236Y-46015951D01*
X91265516Y-45995270D01*
X91208977Y-45821261D01*
X91133802Y-45673724D01*
X91116046Y-45638875D01*
X91058270Y-45559352D01*
X90995730Y-45473271D01*
X90850972Y-45328513D01*
X90685373Y-45208200D01*
X90678765Y-45204833D01*
X90592676Y-45160968D01*
X90541882Y-45112996D01*
X90525087Y-45045175D01*
X90547624Y-44979040D01*
X90592676Y-44940001D01*
X90685369Y-44892772D01*
X90706529Y-44877398D01*
X90850972Y-44772456D01*
X90850974Y-44772453D01*
X90850978Y-44772451D01*
X90995725Y-44627704D01*
X90995727Y-44627700D01*
X90995730Y-44627698D01*
X91048491Y-44555075D01*
X91116046Y-44462095D01*
X91208979Y-44279704D01*
X91272236Y-44085019D01*
X91304259Y-43882837D01*
X91304259Y-43678133D01*
X91288099Y-43576106D01*
X91272236Y-43475950D01*
X91231845Y-43351640D01*
X91208979Y-43281266D01*
X91208977Y-43281263D01*
X91208977Y-43281261D01*
X91140992Y-43147835D01*
X91116046Y-43098875D01*
X91091347Y-43064879D01*
X90995730Y-42933271D01*
X90850978Y-42788519D01*
X90806344Y-42756091D01*
X90757306Y-42720463D01*
X90714641Y-42665134D01*
X90708662Y-42595521D01*
X90741267Y-42533725D01*
X90791185Y-42502440D01*
X90873093Y-42475299D01*
X91022415Y-42383197D01*
X91146471Y-42259141D01*
X91238573Y-42109819D01*
X91293758Y-41943282D01*
X91304259Y-41840494D01*
X91304258Y-40640477D01*
X91293758Y-40537688D01*
X91238573Y-40371151D01*
X91146471Y-40221829D01*
X91022415Y-40097773D01*
X90873093Y-40005671D01*
X90706556Y-39950486D01*
X90706554Y-39950485D01*
X90603769Y-39939985D01*
X88403757Y-39939985D01*
X88403740Y-39939986D01*
X88300962Y-39950485D01*
X88300959Y-39950486D01*
X88134427Y-40005670D01*
X88134422Y-40005672D01*
X87985101Y-40097774D01*
X87861048Y-40221827D01*
X87768946Y-40371148D01*
X87768944Y-40371153D01*
X87757012Y-40407163D01*
X87713760Y-40537688D01*
X87713760Y-40537689D01*
X87713759Y-40537689D01*
X87703259Y-40640468D01*
X87703259Y-41840486D01*
X87703260Y-41840503D01*
X87713759Y-41943281D01*
X87713760Y-41943284D01*
X87743036Y-42031632D01*
X87768945Y-42109819D01*
X87861047Y-42259141D01*
X87985103Y-42383197D01*
X88134425Y-42475299D01*
X88216329Y-42502439D01*
X88273774Y-42542212D01*
X88300597Y-42606728D01*
X88288282Y-42675503D01*
X88250210Y-42720463D01*
X88156546Y-42788513D01*
X88156541Y-42788517D01*
X88011794Y-42933264D01*
X88011792Y-42933267D01*
X87964483Y-42998384D01*
X87909153Y-43041051D01*
X87864164Y-43049500D01*
X81780507Y-43049500D01*
X81713468Y-43029815D01*
X81667713Y-42977011D01*
X81656979Y-42914692D01*
X81657347Y-42910485D01*
X81657347Y-42910483D01*
X81646676Y-42788513D01*
X81637514Y-42683793D01*
X81583963Y-42483938D01*
X81578620Y-42463996D01*
X81578617Y-42463987D01*
X81526933Y-42353151D01*
X81482447Y-42257751D01*
X81351926Y-42071346D01*
X81351924Y-42071343D01*
X81191020Y-41910439D01*
X81004613Y-41779917D01*
X81004611Y-41779916D01*
X80798376Y-41683746D01*
X80798367Y-41683743D01*
X80578576Y-41624851D01*
X80578572Y-41624850D01*
X80578571Y-41624850D01*
X80578570Y-41624849D01*
X80578565Y-41624849D01*
X80351881Y-41605017D01*
X80351876Y-41605017D01*
X80185016Y-41619614D01*
X80116516Y-41605847D01*
X80086529Y-41583767D01*
X79638698Y-41135936D01*
X79605213Y-41074613D01*
X79602379Y-41048255D01*
X79602379Y-38363073D01*
X79622064Y-38296034D01*
X79674868Y-38250279D01*
X79683028Y-38246898D01*
X79694210Y-38242728D01*
X79809425Y-38156478D01*
X79895675Y-38041263D01*
X79945970Y-37906415D01*
X79952379Y-37846805D01*
X79952378Y-36551060D01*
X79946351Y-36494989D01*
X79945970Y-36491448D01*
X79895676Y-36356603D01*
X79895672Y-36356596D01*
X79809426Y-36241387D01*
X79809423Y-36241384D01*
X79694214Y-36155138D01*
X79694207Y-36155134D01*
X79559361Y-36104840D01*
X79559362Y-36104840D01*
X79499762Y-36098433D01*
X79499760Y-36098432D01*
X79499752Y-36098432D01*
X79499743Y-36098432D01*
X78204008Y-36098432D01*
X78204002Y-36098433D01*
X78144395Y-36104840D01*
X78009550Y-36155134D01*
X78009543Y-36155138D01*
X77894334Y-36241384D01*
X77894331Y-36241387D01*
X77808085Y-36356596D01*
X77808081Y-36356603D01*
X77757787Y-36491449D01*
X77755035Y-36517053D01*
X77751380Y-36551055D01*
X77751379Y-36551067D01*
X77751379Y-36601623D01*
X77731694Y-36668662D01*
X77715060Y-36689304D01*
X77205432Y-37198932D01*
X77715060Y-37708560D01*
X77748545Y-37769883D01*
X77751379Y-37796239D01*
X77751379Y-37846801D01*
X77751380Y-37846808D01*
X77757787Y-37906415D01*
X77808081Y-38041260D01*
X77808085Y-38041267D01*
X77894331Y-38156476D01*
X77894334Y-38156479D01*
X78009544Y-38242726D01*
X78009546Y-38242726D01*
X78009548Y-38242728D01*
X78020709Y-38246890D01*
X78076643Y-38288758D01*
X78101063Y-38354221D01*
X78101379Y-38363073D01*
X78101379Y-41484403D01*
X78101379Y-41484405D01*
X78101378Y-41484405D01*
X78130219Y-41629392D01*
X78130222Y-41629402D01*
X78186792Y-41765975D01*
X78186793Y-41765976D01*
X78186795Y-41765980D01*
X78205873Y-41794532D01*
X78243354Y-41850628D01*
X78268930Y-41888905D01*
X78268931Y-41888906D01*
X79025161Y-42645135D01*
X79058646Y-42706458D01*
X79061008Y-42743622D01*
X79046411Y-42910481D01*
X79046411Y-42910486D01*
X79066243Y-43137171D01*
X79066245Y-43137182D01*
X79125137Y-43356973D01*
X79125140Y-43356982D01*
X79221310Y-43563217D01*
X79221311Y-43563219D01*
X79351833Y-43749626D01*
X79512737Y-43910530D01*
X79512740Y-43910532D01*
X79699145Y-44041053D01*
X79905383Y-44137224D01*
X80125187Y-44196120D01*
X80287109Y-44210286D01*
X80351877Y-44215953D01*
X80351879Y-44215953D01*
X80351880Y-44215953D01*
X80371941Y-44214197D01*
X80518740Y-44201354D01*
X80587238Y-44215120D01*
X80617227Y-44237201D01*
X80658415Y-44278389D01*
X80658429Y-44278402D01*
X80658443Y-44278416D01*
X80741425Y-44361398D01*
X80762979Y-44382952D01*
X80885892Y-44465080D01*
X80885905Y-44465087D01*
X80979737Y-44503953D01*
X81022481Y-44521658D01*
X81022485Y-44521658D01*
X81022486Y-44521659D01*
X81167473Y-44550500D01*
X81167476Y-44550500D01*
X87892520Y-44550500D01*
X87959559Y-44570185D01*
X87992836Y-44601612D01*
X88011793Y-44627704D01*
X88011795Y-44627706D01*
X88156545Y-44772456D01*
X88311508Y-44885041D01*
X88322149Y-44892772D01*
X88413599Y-44939368D01*
X88414839Y-44940000D01*
X88465635Y-44987975D01*
X88482430Y-45055796D01*
X88459893Y-45121931D01*
X88414839Y-45160970D01*
X88322145Y-45208200D01*
X88156545Y-45328513D01*
X88011787Y-45473271D01*
X87891474Y-45638871D01*
X87798540Y-45821261D01*
X87735281Y-46015950D01*
X87703259Y-46218133D01*
X87703259Y-46422836D01*
X87735281Y-46625019D01*
X87798540Y-46819708D01*
X87891474Y-47002098D01*
X88011787Y-47167698D01*
X88156545Y-47312456D01*
X88306746Y-47421581D01*
X88322149Y-47432772D01*
X88394183Y-47469475D01*
X88415388Y-47480280D01*
X88466184Y-47528255D01*
X88482979Y-47596076D01*
X88460441Y-47662211D01*
X88415388Y-47701250D01*
X88322409Y-47748625D01*
X88156864Y-47868902D01*
X88156863Y-47868902D01*
X88012176Y-48013589D01*
X88012176Y-48013590D01*
X87891899Y-48179135D01*
X87799003Y-48361455D01*
X87735768Y-48556071D01*
X87727150Y-48610485D01*
X88770747Y-48610485D01*
X88737834Y-48667492D01*
X88703759Y-48794659D01*
X88703759Y-48926311D01*
X88737834Y-49053478D01*
X88770747Y-49110485D01*
X87727150Y-49110485D01*
X87735768Y-49164898D01*
X87799003Y-49359514D01*
X87891899Y-49541834D01*
X88012176Y-49707379D01*
X88012176Y-49707380D01*
X88156863Y-49852067D01*
X88322411Y-49972346D01*
X88415387Y-50019719D01*
X88466184Y-50067693D01*
X88482979Y-50135514D01*
X88460442Y-50201649D01*
X88415389Y-50240688D01*
X88322147Y-50288198D01*
X88156545Y-50408513D01*
X88011795Y-50553263D01*
X88011793Y-50553266D01*
X87979010Y-50598386D01*
X87923682Y-50641051D01*
X87878694Y-50649500D01*
X82668605Y-50649500D01*
X82601566Y-50629815D01*
X82555811Y-50577011D01*
X82545028Y-50535742D01*
X82540652Y-50482921D01*
X82479607Y-50241861D01*
X82479092Y-50240688D01*
X82379717Y-50014135D01*
X82243710Y-49805959D01*
X82222101Y-49782486D01*
X82075288Y-49623004D01*
X81879053Y-49470268D01*
X81879051Y-49470267D01*
X81879050Y-49470266D01*
X81660355Y-49351914D01*
X81660346Y-49351911D01*
X81425160Y-49271171D01*
X81179879Y-49230242D01*
X80931209Y-49230242D01*
X80685927Y-49271171D01*
X80450741Y-49351911D01*
X80450732Y-49351914D01*
X80232037Y-49470266D01*
X80218128Y-49481092D01*
X80035800Y-49623004D01*
X79867380Y-49805957D01*
X79790217Y-49924064D01*
X79737070Y-49969420D01*
X79686408Y-49980242D01*
X75924680Y-49980242D01*
X75857641Y-49960557D01*
X75820871Y-49924064D01*
X75743708Y-49805957D01*
X75575288Y-49623004D01*
X75379053Y-49470268D01*
X75379051Y-49470267D01*
X75379050Y-49470266D01*
X75160355Y-49351914D01*
X75160346Y-49351911D01*
X74925160Y-49271171D01*
X74679879Y-49230242D01*
X74431209Y-49230242D01*
X74185927Y-49271171D01*
X73950741Y-49351911D01*
X73950732Y-49351914D01*
X73732037Y-49470266D01*
X73535801Y-49623003D01*
X73367377Y-49805959D01*
X73231370Y-50014135D01*
X73131480Y-50241860D01*
X73070436Y-50482917D01*
X73070434Y-50482929D01*
X73049901Y-50730736D01*
X73049901Y-50730747D01*
X73070434Y-50978554D01*
X73070436Y-50978566D01*
X73131480Y-51219623D01*
X73231370Y-51447348D01*
X73367377Y-51655524D01*
X73367379Y-51655526D01*
X73367380Y-51655527D01*
X73535800Y-51838480D01*
X73732035Y-51991216D01*
X73950734Y-52109570D01*
X74185930Y-52190313D01*
X74431209Y-52231242D01*
X74679879Y-52231242D01*
X74925158Y-52190313D01*
X75160354Y-52109570D01*
X75379053Y-51991216D01*
X75575288Y-51838480D01*
X75743708Y-51655527D01*
X75820871Y-51537419D01*
X75874018Y-51492064D01*
X75924680Y-51481242D01*
X79686408Y-51481242D01*
X79753447Y-51500927D01*
X79790216Y-51537419D01*
X79867380Y-51655527D01*
X80035800Y-51838480D01*
X80232035Y-51991216D01*
X80450734Y-52109570D01*
X80685930Y-52190313D01*
X80931209Y-52231242D01*
X81179879Y-52231242D01*
X81425158Y-52190313D01*
X81483788Y-52170185D01*
X81549750Y-52147539D01*
X81614201Y-52143203D01*
X81622043Y-52144763D01*
X81636004Y-52147540D01*
X81650883Y-52150500D01*
X81650884Y-52150500D01*
X81650885Y-52150500D01*
X81798720Y-52150500D01*
X87877989Y-52150500D01*
X87945028Y-52170185D01*
X87978307Y-52201615D01*
X88011789Y-52247699D01*
X88011794Y-52247705D01*
X88156545Y-52392456D01*
X88311508Y-52505041D01*
X88322149Y-52512772D01*
X88413599Y-52559368D01*
X88414839Y-52560000D01*
X88465635Y-52607975D01*
X88482430Y-52675796D01*
X88459893Y-52741931D01*
X88414839Y-52780970D01*
X88322145Y-52828200D01*
X88156545Y-52948513D01*
X88011791Y-53093267D01*
X88011787Y-53093272D01*
X87978659Y-53138870D01*
X87923330Y-53181536D01*
X87878341Y-53189985D01*
X86085595Y-53189985D01*
X85940607Y-53218825D01*
X85940597Y-53218828D01*
X85804026Y-53275397D01*
X85804013Y-53275404D01*
X85681099Y-53357533D01*
X85681095Y-53357536D01*
X80436553Y-58602078D01*
X80436549Y-58602083D01*
X80394519Y-58664989D01*
X80394518Y-58664991D01*
X80354425Y-58724993D01*
X80354418Y-58725005D01*
X80297849Y-58861576D01*
X80297846Y-58861586D01*
X80269006Y-59006573D01*
X80269006Y-61726128D01*
X80249321Y-61793167D01*
X80204028Y-61835179D01*
X80195997Y-61839526D01*
X80163244Y-61865019D01*
X79999763Y-61992261D01*
X79831342Y-62175215D01*
X79754179Y-62293322D01*
X79701032Y-62338678D01*
X79650370Y-62349500D01*
X75888642Y-62349500D01*
X75821603Y-62329815D01*
X75784833Y-62293322D01*
X75707670Y-62175215D01*
X75539250Y-61992262D01*
X75343015Y-61839526D01*
X75343013Y-61839525D01*
X75343012Y-61839524D01*
X75124317Y-61721172D01*
X75124308Y-61721169D01*
X74889122Y-61640429D01*
X74643841Y-61599500D01*
X74395171Y-61599500D01*
X74149889Y-61640429D01*
X73914703Y-61721169D01*
X73914694Y-61721172D01*
X73695999Y-61839524D01*
X73499763Y-61992261D01*
X73331339Y-62175217D01*
X73195332Y-62383393D01*
X73095442Y-62611118D01*
X73034398Y-62852175D01*
X73034396Y-62852187D01*
X73013863Y-63099994D01*
X73013863Y-63100005D01*
X73034396Y-63347812D01*
X73034398Y-63347824D01*
X73095442Y-63588881D01*
X73195332Y-63816606D01*
X73331339Y-64024782D01*
X73331341Y-64024784D01*
X73331342Y-64024785D01*
X73499762Y-64207738D01*
X73695997Y-64360474D01*
X73914696Y-64478828D01*
X74149892Y-64559571D01*
X74395171Y-64600500D01*
X74643841Y-64600500D01*
X74889120Y-64559571D01*
X75124316Y-64478828D01*
X75343015Y-64360474D01*
X75539250Y-64207738D01*
X75707670Y-64024785D01*
X75784833Y-63906677D01*
X75837980Y-63861322D01*
X75888642Y-63850500D01*
X79650370Y-63850500D01*
X79717409Y-63870185D01*
X79754178Y-63906677D01*
X79831342Y-64024785D01*
X79999762Y-64207738D01*
X80195997Y-64360474D01*
X80414696Y-64478828D01*
X80649892Y-64559571D01*
X80895171Y-64600500D01*
X81143841Y-64600500D01*
X81389120Y-64559571D01*
X81624316Y-64478828D01*
X81843015Y-64360474D01*
X82039250Y-64207738D01*
X82207670Y-64024785D01*
X82343679Y-63816607D01*
X82443569Y-63588881D01*
X82504614Y-63347821D01*
X82512499Y-63252665D01*
X82525149Y-63100005D01*
X82525149Y-63099994D01*
X82504615Y-62852187D01*
X82504613Y-62852175D01*
X82443569Y-62611118D01*
X82343679Y-62383393D01*
X82207672Y-62175217D01*
X82101338Y-62059708D01*
X82039250Y-61992262D01*
X81843015Y-61839526D01*
X81834983Y-61835179D01*
X81785397Y-61785961D01*
X81770006Y-61726128D01*
X81770006Y-59442723D01*
X81789691Y-59375684D01*
X81806325Y-59355042D01*
X86434063Y-54727304D01*
X86495386Y-54693819D01*
X86521744Y-54690985D01*
X87878341Y-54690985D01*
X87945380Y-54710670D01*
X87978659Y-54742100D01*
X88011787Y-54787697D01*
X88011791Y-54787702D01*
X88156545Y-54932456D01*
X88274908Y-55018450D01*
X88322149Y-55052772D01*
X88413599Y-55099368D01*
X88414839Y-55100000D01*
X88465635Y-55147975D01*
X88482430Y-55215796D01*
X88459893Y-55281931D01*
X88414839Y-55320970D01*
X88322145Y-55368200D01*
X88156545Y-55488513D01*
X88011791Y-55633267D01*
X88011787Y-55633272D01*
X87978659Y-55678870D01*
X87923330Y-55721536D01*
X87878341Y-55729985D01*
X86745591Y-55729985D01*
X86716757Y-55735719D01*
X86716758Y-55735720D01*
X86600608Y-55758824D01*
X86600598Y-55758827D01*
X86520596Y-55791964D01*
X86520597Y-55791965D01*
X86464020Y-55815400D01*
X86423160Y-55842703D01*
X86423158Y-55842704D01*
X86341104Y-55897528D01*
X86341099Y-55897532D01*
X83317045Y-58921586D01*
X83300354Y-58946569D01*
X83300353Y-58946570D01*
X83234916Y-59044503D01*
X83234914Y-59044506D01*
X83178343Y-59181082D01*
X83178340Y-59181092D01*
X83149500Y-59326079D01*
X83149500Y-69037770D01*
X83129815Y-69104809D01*
X83113181Y-69125451D01*
X82225451Y-70013181D01*
X82164128Y-70046666D01*
X82137770Y-70049500D01*
X60962230Y-70049500D01*
X60895191Y-70029815D01*
X60874549Y-70013181D01*
X59602377Y-68741009D01*
X59568892Y-68679686D01*
X59573876Y-68609994D01*
X59606266Y-68564142D01*
X59605311Y-68563187D01*
X59770045Y-68398452D01*
X59770047Y-68398450D01*
X59900568Y-68212045D01*
X59927893Y-68153445D01*
X59974065Y-68101006D01*
X60041258Y-68081854D01*
X60108139Y-68102069D01*
X60152657Y-68153445D01*
X60179864Y-68211791D01*
X60230974Y-68284783D01*
X60929000Y-67586757D01*
X60929000Y-67609471D01*
X60954964Y-67706372D01*
X61005124Y-67793251D01*
X61076060Y-67864187D01*
X61162939Y-67914347D01*
X61259840Y-67940311D01*
X61282553Y-67940311D01*
X60584526Y-68638336D01*
X60657513Y-68689443D01*
X60657521Y-68689447D01*
X60863668Y-68785575D01*
X60863682Y-68785580D01*
X61083389Y-68844450D01*
X61083400Y-68844452D01*
X61309998Y-68864277D01*
X61310002Y-68864277D01*
X61536599Y-68844452D01*
X61536610Y-68844450D01*
X61756317Y-68785580D01*
X61756331Y-68785575D01*
X61962478Y-68689447D01*
X62035471Y-68638335D01*
X61337447Y-67940311D01*
X61360160Y-67940311D01*
X61457061Y-67914347D01*
X61543940Y-67864187D01*
X61614876Y-67793251D01*
X61665036Y-67706372D01*
X61691000Y-67609471D01*
X61691000Y-67586758D01*
X62389024Y-68284782D01*
X62440133Y-68211793D01*
X62467341Y-68153446D01*
X62513513Y-68101007D01*
X62580707Y-68081854D01*
X62647588Y-68102069D01*
X62692105Y-68153443D01*
X62719432Y-68212045D01*
X62770363Y-68284782D01*
X62849954Y-68398452D01*
X63010858Y-68559356D01*
X63010861Y-68559358D01*
X63197266Y-68689879D01*
X63403504Y-68786050D01*
X63623308Y-68844946D01*
X63785230Y-68859112D01*
X63849998Y-68864779D01*
X63850000Y-68864779D01*
X63850002Y-68864779D01*
X63906673Y-68859820D01*
X64076692Y-68844946D01*
X64296496Y-68786050D01*
X64502734Y-68689879D01*
X64689139Y-68559358D01*
X64850047Y-68398450D01*
X64980568Y-68212045D01*
X65076739Y-68005807D01*
X65135635Y-67786003D01*
X65151909Y-67599994D01*
X73014365Y-67599994D01*
X73014365Y-67600005D01*
X73034891Y-67847729D01*
X73034893Y-67847738D01*
X73095918Y-68088717D01*
X73195773Y-68316367D01*
X73296068Y-68469881D01*
X73995718Y-67770233D01*
X74006988Y-67812292D01*
X74079396Y-67937708D01*
X74181798Y-68040110D01*
X74307214Y-68112518D01*
X74349272Y-68123787D01*
X73649449Y-68823609D01*
X73696274Y-68860055D01*
X73696277Y-68860057D01*
X73914891Y-68978364D01*
X73914902Y-68978369D01*
X74150012Y-69059083D01*
X74395213Y-69100000D01*
X74643799Y-69100000D01*
X74888999Y-69059083D01*
X75124109Y-68978369D01*
X75124120Y-68978364D01*
X75342736Y-68860056D01*
X75342742Y-68860051D01*
X75389561Y-68823610D01*
X75389562Y-68823609D01*
X74689739Y-68123787D01*
X74731798Y-68112518D01*
X74857214Y-68040110D01*
X74959616Y-67937708D01*
X75032024Y-67812292D01*
X75043293Y-67770233D01*
X75742941Y-68469882D01*
X75843239Y-68316364D01*
X75943093Y-68088717D01*
X76004118Y-67847738D01*
X76004120Y-67847729D01*
X76024647Y-67600005D01*
X76024647Y-67599994D01*
X79514365Y-67599994D01*
X79514365Y-67600005D01*
X79534891Y-67847729D01*
X79534893Y-67847738D01*
X79595918Y-68088717D01*
X79695773Y-68316367D01*
X79796068Y-68469881D01*
X80495718Y-67770233D01*
X80506988Y-67812292D01*
X80579396Y-67937708D01*
X80681798Y-68040110D01*
X80807214Y-68112518D01*
X80849272Y-68123787D01*
X80149449Y-68823609D01*
X80196274Y-68860055D01*
X80196277Y-68860057D01*
X80414891Y-68978364D01*
X80414902Y-68978369D01*
X80650012Y-69059083D01*
X80895213Y-69100000D01*
X81143799Y-69100000D01*
X81388999Y-69059083D01*
X81624109Y-68978369D01*
X81624120Y-68978364D01*
X81842736Y-68860056D01*
X81842742Y-68860051D01*
X81889561Y-68823610D01*
X81889562Y-68823609D01*
X81189739Y-68123787D01*
X81231798Y-68112518D01*
X81357214Y-68040110D01*
X81459616Y-67937708D01*
X81532024Y-67812292D01*
X81543293Y-67770234D01*
X82242941Y-68469882D01*
X82343239Y-68316364D01*
X82443093Y-68088717D01*
X82504118Y-67847738D01*
X82504120Y-67847729D01*
X82524647Y-67600005D01*
X82524647Y-67599994D01*
X82504120Y-67352270D01*
X82504118Y-67352261D01*
X82443093Y-67111282D01*
X82343238Y-66883632D01*
X82242941Y-66730116D01*
X81543293Y-67429765D01*
X81532024Y-67387708D01*
X81459616Y-67262292D01*
X81357214Y-67159890D01*
X81231798Y-67087482D01*
X81189739Y-67076212D01*
X81889561Y-66376389D01*
X81889561Y-66376388D01*
X81842742Y-66339947D01*
X81842737Y-66339944D01*
X81624120Y-66221635D01*
X81624109Y-66221630D01*
X81388999Y-66140916D01*
X81143799Y-66100000D01*
X80895213Y-66100000D01*
X80650012Y-66140916D01*
X80414902Y-66221630D01*
X80414891Y-66221635D01*
X80196276Y-66339943D01*
X80149449Y-66376389D01*
X80849272Y-67076212D01*
X80807214Y-67087482D01*
X80681798Y-67159890D01*
X80579396Y-67262292D01*
X80506988Y-67387708D01*
X80495718Y-67429766D01*
X79796069Y-66730117D01*
X79695773Y-66883633D01*
X79695771Y-66883637D01*
X79595918Y-67111282D01*
X79534893Y-67352261D01*
X79534891Y-67352270D01*
X79514365Y-67599994D01*
X76024647Y-67599994D01*
X76004120Y-67352270D01*
X76004118Y-67352261D01*
X75943093Y-67111282D01*
X75843238Y-66883632D01*
X75742941Y-66730116D01*
X75043293Y-67429765D01*
X75032024Y-67387708D01*
X74959616Y-67262292D01*
X74857214Y-67159890D01*
X74731798Y-67087482D01*
X74689739Y-67076212D01*
X75389561Y-66376389D01*
X75389561Y-66376388D01*
X75342742Y-66339947D01*
X75342737Y-66339944D01*
X75124120Y-66221635D01*
X75124109Y-66221630D01*
X74888999Y-66140916D01*
X74643799Y-66100000D01*
X74395213Y-66100000D01*
X74150012Y-66140916D01*
X73914902Y-66221630D01*
X73914891Y-66221635D01*
X73696276Y-66339943D01*
X73649449Y-66376389D01*
X74349272Y-67076212D01*
X74307214Y-67087482D01*
X74181798Y-67159890D01*
X74079396Y-67262292D01*
X74006988Y-67387708D01*
X73995718Y-67429766D01*
X73296069Y-66730117D01*
X73195773Y-66883633D01*
X73195771Y-66883637D01*
X73095918Y-67111282D01*
X73034893Y-67352261D01*
X73034891Y-67352270D01*
X73014365Y-67599994D01*
X65151909Y-67599994D01*
X65155468Y-67559311D01*
X65135635Y-67332619D01*
X65076739Y-67112815D01*
X64980568Y-66906577D01*
X64850047Y-66720172D01*
X64850045Y-66720169D01*
X64689141Y-66559265D01*
X64502734Y-66428743D01*
X64502732Y-66428742D01*
X64296497Y-66332572D01*
X64296488Y-66332569D01*
X64076697Y-66273677D01*
X64076693Y-66273676D01*
X64076692Y-66273676D01*
X64076691Y-66273675D01*
X64076686Y-66273675D01*
X63850002Y-66253843D01*
X63849998Y-66253843D01*
X63623313Y-66273675D01*
X63623302Y-66273677D01*
X63403511Y-66332569D01*
X63403502Y-66332572D01*
X63197267Y-66428742D01*
X63197265Y-66428743D01*
X63010858Y-66559265D01*
X62849954Y-66720169D01*
X62719432Y-66906576D01*
X62719428Y-66906583D01*
X62692105Y-66965177D01*
X62645932Y-67017616D01*
X62578738Y-67036767D01*
X62511858Y-67016550D01*
X62467342Y-66965175D01*
X62440136Y-66906832D01*
X62440132Y-66906824D01*
X62389025Y-66833837D01*
X61691000Y-67531862D01*
X61691000Y-67509151D01*
X61665036Y-67412250D01*
X61614876Y-67325371D01*
X61543940Y-67254435D01*
X61457061Y-67204275D01*
X61360160Y-67178311D01*
X61337445Y-67178311D01*
X62035472Y-66480285D01*
X61962478Y-66429174D01*
X61756331Y-66333046D01*
X61756317Y-66333041D01*
X61536610Y-66274171D01*
X61536599Y-66274169D01*
X61310002Y-66254345D01*
X61309998Y-66254345D01*
X61083400Y-66274169D01*
X61083389Y-66274171D01*
X60863682Y-66333041D01*
X60863673Y-66333045D01*
X60657516Y-66429177D01*
X60657512Y-66429179D01*
X60584526Y-66480284D01*
X60584526Y-66480285D01*
X61282553Y-67178311D01*
X61259840Y-67178311D01*
X61162939Y-67204275D01*
X61076060Y-67254435D01*
X61005124Y-67325371D01*
X60954964Y-67412250D01*
X60929000Y-67509151D01*
X60929000Y-67531863D01*
X60230974Y-66833837D01*
X60230973Y-66833837D01*
X60179868Y-66906823D01*
X60179868Y-66906824D01*
X60152657Y-66965178D01*
X60106484Y-67017617D01*
X60039290Y-67036768D01*
X59972409Y-67016552D01*
X59927893Y-66965176D01*
X59900682Y-66906823D01*
X59900568Y-66906577D01*
X59770047Y-66720172D01*
X59770045Y-66720169D01*
X59609141Y-66559265D01*
X59422734Y-66428743D01*
X59422732Y-66428742D01*
X59216497Y-66332572D01*
X59216488Y-66332569D01*
X58996697Y-66273677D01*
X58996693Y-66273676D01*
X58996692Y-66273676D01*
X58996691Y-66273675D01*
X58996686Y-66273675D01*
X58770002Y-66253843D01*
X58769998Y-66253843D01*
X58543313Y-66273675D01*
X58543302Y-66273677D01*
X58323511Y-66332569D01*
X58323502Y-66332572D01*
X58117267Y-66428742D01*
X58117265Y-66428743D01*
X57930858Y-66559265D01*
X57769954Y-66720169D01*
X57639432Y-66906576D01*
X57639431Y-66906578D01*
X57543261Y-67112813D01*
X57543258Y-67112822D01*
X57484366Y-67332613D01*
X57484364Y-67332624D01*
X57464532Y-67559309D01*
X57464532Y-67559312D01*
X57484364Y-67785997D01*
X57484366Y-67786008D01*
X57543258Y-68005799D01*
X57543261Y-68005808D01*
X57639431Y-68212043D01*
X57639432Y-68212045D01*
X57769954Y-68398452D01*
X57930859Y-68559357D01*
X57966621Y-68584397D01*
X58010247Y-68638973D01*
X58019500Y-68685973D01*
X58019500Y-69043918D01*
X58019500Y-69043920D01*
X58019499Y-69043920D01*
X58048340Y-69188907D01*
X58048343Y-69188917D01*
X58104913Y-69325490D01*
X58104914Y-69325491D01*
X58104916Y-69325495D01*
X58111209Y-69334913D01*
X58111210Y-69334914D01*
X58111211Y-69334917D01*
X58187046Y-69448414D01*
X58187052Y-69448421D01*
X60121584Y-71382952D01*
X60121586Y-71382954D01*
X60151058Y-71402645D01*
X60195270Y-71432186D01*
X60244505Y-71465084D01*
X60244506Y-71465084D01*
X60244507Y-71465085D01*
X60244509Y-71465086D01*
X60381082Y-71521656D01*
X60381087Y-71521658D01*
X60381091Y-71521658D01*
X60381092Y-71521659D01*
X60526079Y-71550500D01*
X60526082Y-71550500D01*
X82573920Y-71550500D01*
X82671462Y-71531096D01*
X82718913Y-71521658D01*
X82855495Y-71465084D01*
X82904729Y-71432186D01*
X82904734Y-71432183D01*
X82929071Y-71415921D01*
X82978416Y-71382952D01*
X84482952Y-69878416D01*
X84547984Y-69781087D01*
X84565084Y-69755495D01*
X84621658Y-69618913D01*
X84650500Y-69473918D01*
X84650500Y-59762230D01*
X84670185Y-59695191D01*
X84686819Y-59674549D01*
X87094064Y-57267304D01*
X87155387Y-57233819D01*
X87181745Y-57230985D01*
X87878341Y-57230985D01*
X87945380Y-57250670D01*
X87978659Y-57282100D01*
X88011787Y-57327697D01*
X88011791Y-57327702D01*
X88156545Y-57472456D01*
X88311508Y-57585041D01*
X88322149Y-57592772D01*
X88413599Y-57639368D01*
X88414839Y-57640000D01*
X88465635Y-57687975D01*
X88482430Y-57755796D01*
X88459893Y-57821931D01*
X88414839Y-57860970D01*
X88322145Y-57908200D01*
X88156545Y-58028513D01*
X88011791Y-58173267D01*
X88011787Y-58173272D01*
X87978659Y-58218870D01*
X87923330Y-58261536D01*
X87878341Y-58269985D01*
X87605595Y-58269985D01*
X87460607Y-58298825D01*
X87460597Y-58298828D01*
X87324026Y-58355397D01*
X87324013Y-58355404D01*
X87201099Y-58437533D01*
X87201095Y-58437536D01*
X85617045Y-60021586D01*
X85596271Y-60052678D01*
X85587983Y-60065084D01*
X85561358Y-60104930D01*
X85534914Y-60144507D01*
X85478343Y-60281082D01*
X85478340Y-60281092D01*
X85449500Y-60426079D01*
X85449500Y-70137770D01*
X85429815Y-70204809D01*
X85413181Y-70225451D01*
X80425451Y-75213181D01*
X80364128Y-75246666D01*
X80337770Y-75249500D01*
X64326080Y-75249500D01*
X64181092Y-75278340D01*
X64181082Y-75278343D01*
X64044511Y-75334912D01*
X64044498Y-75334919D01*
X63921584Y-75417048D01*
X63921580Y-75417051D01*
X60417050Y-78921580D01*
X60417044Y-78921588D01*
X60367812Y-78995268D01*
X60367813Y-78995269D01*
X60334921Y-79044496D01*
X60334914Y-79044508D01*
X60278342Y-79181086D01*
X60278340Y-79181092D01*
X60249500Y-79326079D01*
X60249500Y-88248801D01*
X60229815Y-88315840D01*
X60201662Y-88346654D01*
X60054023Y-88461566D01*
X59989029Y-88487209D01*
X59920489Y-88473643D01*
X59870165Y-88425174D01*
X59861679Y-88407045D01*
X59843355Y-88357915D01*
X59843350Y-88357906D01*
X59757190Y-88242812D01*
X59757187Y-88242809D01*
X59642093Y-88156649D01*
X59642086Y-88156645D01*
X59507379Y-88106403D01*
X59507372Y-88106401D01*
X59447844Y-88100000D01*
X58750000Y-88100000D01*
X58750000Y-89066988D01*
X58692993Y-89034075D01*
X58565826Y-89000000D01*
X58434174Y-89000000D01*
X58307007Y-89034075D01*
X58250000Y-89066988D01*
X58250000Y-88100000D01*
X57552155Y-88100000D01*
X57492627Y-88106401D01*
X57492620Y-88106403D01*
X57357913Y-88156645D01*
X57357906Y-88156649D01*
X57242812Y-88242809D01*
X57242809Y-88242812D01*
X57156649Y-88357906D01*
X57156645Y-88357913D01*
X57106403Y-88492620D01*
X57106401Y-88492627D01*
X57100000Y-88552155D01*
X51161835Y-88552155D01*
X51161835Y-81999994D01*
X53744556Y-81999994D01*
X53744556Y-82000005D01*
X53764310Y-82314004D01*
X53764311Y-82314011D01*
X53823270Y-82623083D01*
X53920497Y-82922316D01*
X53920499Y-82922321D01*
X54054461Y-83207003D01*
X54054464Y-83207009D01*
X54223051Y-83472661D01*
X54223054Y-83472665D01*
X54423606Y-83715090D01*
X54423608Y-83715092D01*
X54652968Y-83930476D01*
X54652978Y-83930484D01*
X54907504Y-84115408D01*
X54907509Y-84115410D01*
X54907516Y-84115416D01*
X55183234Y-84266994D01*
X55183239Y-84266996D01*
X55183241Y-84266997D01*
X55183242Y-84266998D01*
X55475771Y-84382818D01*
X55475774Y-84382819D01*
X55739375Y-84450500D01*
X55780527Y-84461066D01*
X55846010Y-84469338D01*
X56092670Y-84500499D01*
X56092679Y-84500499D01*
X56092682Y-84500500D01*
X56092684Y-84500500D01*
X56407316Y-84500500D01*
X56407318Y-84500500D01*
X56407321Y-84500499D01*
X56407329Y-84500499D01*
X56593593Y-84476968D01*
X56719473Y-84461066D01*
X57024225Y-84382819D01*
X57069019Y-84365084D01*
X57316757Y-84266998D01*
X57316758Y-84266997D01*
X57316756Y-84266997D01*
X57316766Y-84266994D01*
X57592484Y-84115416D01*
X57847030Y-83930478D01*
X58076390Y-83715094D01*
X58276947Y-83472663D01*
X58445537Y-83207007D01*
X58579503Y-82922315D01*
X58676731Y-82623079D01*
X58735688Y-82314015D01*
X58741182Y-82226692D01*
X58755444Y-82000005D01*
X58755444Y-81999994D01*
X58735689Y-81685995D01*
X58735688Y-81685988D01*
X58735688Y-81685985D01*
X58676731Y-81376921D01*
X58579503Y-81077685D01*
X58445537Y-80792993D01*
X58328748Y-80608962D01*
X58276948Y-80527338D01*
X58276945Y-80527334D01*
X58076393Y-80284909D01*
X58076391Y-80284907D01*
X57919707Y-80137770D01*
X57847030Y-80069522D01*
X57847027Y-80069520D01*
X57847021Y-80069515D01*
X57592495Y-79884591D01*
X57592488Y-79884586D01*
X57592484Y-79884584D01*
X57316766Y-79733006D01*
X57316763Y-79733004D01*
X57316758Y-79733002D01*
X57316757Y-79733001D01*
X57024228Y-79617181D01*
X57024225Y-79617180D01*
X56719476Y-79538934D01*
X56719463Y-79538932D01*
X56407329Y-79499500D01*
X56407318Y-79499500D01*
X56092682Y-79499500D01*
X56092670Y-79499500D01*
X55780536Y-79538932D01*
X55780523Y-79538934D01*
X55475774Y-79617180D01*
X55475771Y-79617181D01*
X55183242Y-79733001D01*
X55183241Y-79733002D01*
X54907516Y-79884584D01*
X54907504Y-79884591D01*
X54652978Y-80069515D01*
X54652968Y-80069523D01*
X54423608Y-80284907D01*
X54423606Y-80284909D01*
X54223054Y-80527334D01*
X54223051Y-80527338D01*
X54054464Y-80792990D01*
X54054461Y-80792996D01*
X53920499Y-81077678D01*
X53920497Y-81077683D01*
X53823270Y-81376916D01*
X53764311Y-81685988D01*
X53764310Y-81685995D01*
X53744556Y-81999994D01*
X51161835Y-81999994D01*
X51161835Y-55230736D01*
X73050403Y-55230736D01*
X73050403Y-55230747D01*
X73070929Y-55478471D01*
X73070931Y-55478480D01*
X73131956Y-55719459D01*
X73231811Y-55947109D01*
X73332106Y-56100623D01*
X74031756Y-55400975D01*
X74043026Y-55443034D01*
X74115434Y-55568450D01*
X74217836Y-55670852D01*
X74343252Y-55743260D01*
X74385310Y-55754529D01*
X73685487Y-56454351D01*
X73732312Y-56490797D01*
X73732315Y-56490799D01*
X73950929Y-56609106D01*
X73950940Y-56609111D01*
X74186050Y-56689825D01*
X74431251Y-56730742D01*
X74679837Y-56730742D01*
X74925037Y-56689825D01*
X75160147Y-56609111D01*
X75160158Y-56609106D01*
X75378774Y-56490798D01*
X75378780Y-56490793D01*
X75425599Y-56454352D01*
X75425600Y-56454351D01*
X74725777Y-55754529D01*
X74767836Y-55743260D01*
X74893252Y-55670852D01*
X74995654Y-55568450D01*
X75068062Y-55443034D01*
X75079331Y-55400976D01*
X75778979Y-56100624D01*
X75879277Y-55947106D01*
X75979131Y-55719459D01*
X76040156Y-55478480D01*
X76040158Y-55478471D01*
X76060685Y-55230747D01*
X76060685Y-55230736D01*
X79550403Y-55230736D01*
X79550403Y-55230747D01*
X79570929Y-55478471D01*
X79570931Y-55478480D01*
X79631956Y-55719459D01*
X79731811Y-55947109D01*
X79832106Y-56100623D01*
X80531756Y-55400975D01*
X80543026Y-55443034D01*
X80615434Y-55568450D01*
X80717836Y-55670852D01*
X80843252Y-55743260D01*
X80885310Y-55754529D01*
X80185487Y-56454351D01*
X80232312Y-56490797D01*
X80232315Y-56490799D01*
X80450929Y-56609106D01*
X80450940Y-56609111D01*
X80686050Y-56689825D01*
X80931251Y-56730742D01*
X81179837Y-56730742D01*
X81425037Y-56689825D01*
X81660147Y-56609111D01*
X81660158Y-56609106D01*
X81878774Y-56490798D01*
X81878780Y-56490793D01*
X81925599Y-56454352D01*
X81925600Y-56454351D01*
X81225777Y-55754529D01*
X81267836Y-55743260D01*
X81393252Y-55670852D01*
X81495654Y-55568450D01*
X81568062Y-55443034D01*
X81579331Y-55400976D01*
X82278979Y-56100624D01*
X82379277Y-55947106D01*
X82479131Y-55719459D01*
X82540156Y-55478480D01*
X82540158Y-55478471D01*
X82560685Y-55230747D01*
X82560685Y-55230736D01*
X82540158Y-54983012D01*
X82540156Y-54983003D01*
X82479131Y-54742024D01*
X82379276Y-54514374D01*
X82278979Y-54360858D01*
X81579331Y-55060507D01*
X81568062Y-55018450D01*
X81495654Y-54893034D01*
X81393252Y-54790632D01*
X81267836Y-54718224D01*
X81225777Y-54706954D01*
X81925599Y-54007131D01*
X81925599Y-54007130D01*
X81878780Y-53970689D01*
X81878775Y-53970686D01*
X81660158Y-53852377D01*
X81660147Y-53852372D01*
X81425037Y-53771658D01*
X81179837Y-53730742D01*
X80931251Y-53730742D01*
X80686050Y-53771658D01*
X80450940Y-53852372D01*
X80450929Y-53852377D01*
X80232314Y-53970685D01*
X80185487Y-54007131D01*
X80885310Y-54706954D01*
X80843252Y-54718224D01*
X80717836Y-54790632D01*
X80615434Y-54893034D01*
X80543026Y-55018450D01*
X80531756Y-55060508D01*
X79832107Y-54360859D01*
X79731811Y-54514375D01*
X79731809Y-54514379D01*
X79631956Y-54742024D01*
X79570931Y-54983003D01*
X79570929Y-54983012D01*
X79550403Y-55230736D01*
X76060685Y-55230736D01*
X76040158Y-54983012D01*
X76040156Y-54983003D01*
X75979131Y-54742024D01*
X75879276Y-54514374D01*
X75778979Y-54360858D01*
X75079331Y-55060507D01*
X75068062Y-55018450D01*
X74995654Y-54893034D01*
X74893252Y-54790632D01*
X74767836Y-54718224D01*
X74725777Y-54706954D01*
X75425599Y-54007131D01*
X75425599Y-54007130D01*
X75378780Y-53970689D01*
X75378775Y-53970686D01*
X75160158Y-53852377D01*
X75160147Y-53852372D01*
X74925037Y-53771658D01*
X74679837Y-53730742D01*
X74431251Y-53730742D01*
X74186050Y-53771658D01*
X73950940Y-53852372D01*
X73950929Y-53852377D01*
X73732314Y-53970685D01*
X73685487Y-54007131D01*
X74385310Y-54706954D01*
X74343252Y-54718224D01*
X74217836Y-54790632D01*
X74115434Y-54893034D01*
X74043026Y-55018450D01*
X74031756Y-55060508D01*
X73332107Y-54360859D01*
X73231811Y-54514375D01*
X73231809Y-54514379D01*
X73131956Y-54742024D01*
X73070931Y-54983003D01*
X73070929Y-54983012D01*
X73050403Y-55230736D01*
X51161835Y-55230736D01*
X51161835Y-42910482D01*
X74046913Y-42910482D01*
X74046913Y-42910487D01*
X74066737Y-43137084D01*
X74066739Y-43137095D01*
X74125609Y-43356802D01*
X74125614Y-43356816D01*
X74221742Y-43562963D01*
X74272853Y-43635957D01*
X74951879Y-42956931D01*
X74951879Y-42963146D01*
X74979138Y-43064879D01*
X75031799Y-43156091D01*
X75106273Y-43230565D01*
X75197485Y-43283226D01*
X75299218Y-43310485D01*
X75305432Y-43310485D01*
X74626405Y-43989510D01*
X74699392Y-44040617D01*
X74699400Y-44040621D01*
X74905547Y-44136749D01*
X74905561Y-44136754D01*
X75125268Y-44195624D01*
X75125279Y-44195626D01*
X75351877Y-44215451D01*
X75351881Y-44215451D01*
X75578478Y-44195626D01*
X75578489Y-44195624D01*
X75798196Y-44136754D01*
X75798210Y-44136749D01*
X76004357Y-44040621D01*
X76077350Y-43989509D01*
X75398326Y-43310485D01*
X75404540Y-43310485D01*
X75506273Y-43283226D01*
X75597485Y-43230565D01*
X75671959Y-43156091D01*
X75724620Y-43064879D01*
X75751879Y-42963146D01*
X75751879Y-42956932D01*
X76430903Y-43635956D01*
X76482015Y-43562963D01*
X76578143Y-43356816D01*
X76578148Y-43356802D01*
X76637018Y-43137095D01*
X76637020Y-43137084D01*
X76656845Y-42910487D01*
X76656845Y-42910482D01*
X76637020Y-42683885D01*
X76637018Y-42683874D01*
X76578148Y-42464167D01*
X76578143Y-42464153D01*
X76482015Y-42258006D01*
X76482011Y-42257998D01*
X76430904Y-42185011D01*
X75751879Y-42864036D01*
X75751879Y-42857824D01*
X75724620Y-42756091D01*
X75671959Y-42664879D01*
X75597485Y-42590405D01*
X75506273Y-42537744D01*
X75404540Y-42510485D01*
X75398324Y-42510485D01*
X76077351Y-41831459D01*
X76004357Y-41780348D01*
X75798210Y-41684220D01*
X75798196Y-41684215D01*
X75578489Y-41625345D01*
X75578478Y-41625343D01*
X75351881Y-41605519D01*
X75351877Y-41605519D01*
X75125279Y-41625343D01*
X75125268Y-41625345D01*
X74905561Y-41684215D01*
X74905552Y-41684219D01*
X74699395Y-41780351D01*
X74699391Y-41780353D01*
X74626405Y-41831458D01*
X74626405Y-41831459D01*
X75305432Y-42510485D01*
X75299218Y-42510485D01*
X75197485Y-42537744D01*
X75106273Y-42590405D01*
X75031799Y-42664879D01*
X74979138Y-42756091D01*
X74951879Y-42857824D01*
X74951879Y-42864037D01*
X74272853Y-42185011D01*
X74272852Y-42185011D01*
X74221747Y-42257997D01*
X74221745Y-42258001D01*
X74125613Y-42464158D01*
X74125609Y-42464167D01*
X74066739Y-42683874D01*
X74066737Y-42683885D01*
X74046913Y-42910482D01*
X51161835Y-42910482D01*
X51161835Y-37189823D01*
X51161836Y-37189820D01*
X51161835Y-37126976D01*
X51161984Y-37120893D01*
X51164108Y-37077643D01*
X52789235Y-37077643D01*
X52789235Y-37320220D01*
X52820896Y-37560717D01*
X52883682Y-37795036D01*
X52965607Y-37992820D01*
X52976511Y-38019144D01*
X53097799Y-38229221D01*
X53097801Y-38229224D01*
X53097802Y-38229225D01*
X53245468Y-38421668D01*
X53245474Y-38421675D01*
X53416991Y-38593192D01*
X53416997Y-38593197D01*
X53609446Y-38740868D01*
X53819523Y-38862156D01*
X54015004Y-38943127D01*
X54032179Y-38950241D01*
X54043635Y-38954986D01*
X54277946Y-39017770D01*
X54458321Y-39041516D01*
X54518446Y-39049432D01*
X54518447Y-39049432D01*
X54761024Y-39049432D01*
X54809123Y-39043099D01*
X55001524Y-39017770D01*
X55235835Y-38954986D01*
X55459947Y-38862156D01*
X55670024Y-38740868D01*
X55862473Y-38593197D01*
X56034000Y-38421670D01*
X56181671Y-38229221D01*
X56237125Y-38133172D01*
X76271190Y-38133172D01*
X76359464Y-38187829D01*
X76549557Y-38261471D01*
X76749951Y-38298932D01*
X76953807Y-38298932D01*
X77154201Y-38261471D01*
X77344291Y-38187831D01*
X77344295Y-38187829D01*
X77432565Y-38133173D01*
X77432565Y-38133172D01*
X76851880Y-37552485D01*
X76851879Y-37552485D01*
X76271190Y-38133172D01*
X56237125Y-38133172D01*
X56302959Y-38019144D01*
X56395789Y-37795032D01*
X56458573Y-37560721D01*
X56490235Y-37320220D01*
X56490235Y-37198931D01*
X75747166Y-37198931D01*
X75747166Y-37198932D01*
X75765975Y-37401921D01*
X75765976Y-37401924D01*
X75821762Y-37597995D01*
X75821765Y-37598001D01*
X75912630Y-37780483D01*
X75914412Y-37782843D01*
X76498325Y-37198932D01*
X76458829Y-37159436D01*
X76551879Y-37159436D01*
X76551879Y-37238428D01*
X76572323Y-37314728D01*
X76611819Y-37383137D01*
X76667674Y-37438992D01*
X76736083Y-37478488D01*
X76812383Y-37498932D01*
X76891375Y-37498932D01*
X76967675Y-37478488D01*
X77036084Y-37438992D01*
X77091939Y-37383137D01*
X77131435Y-37314728D01*
X77151879Y-37238428D01*
X77151879Y-37159436D01*
X77131435Y-37083136D01*
X77091939Y-37014727D01*
X77036084Y-36958872D01*
X76967675Y-36919376D01*
X76891375Y-36898932D01*
X76812383Y-36898932D01*
X76736083Y-36919376D01*
X76667674Y-36958872D01*
X76611819Y-37014727D01*
X76572323Y-37083136D01*
X76551879Y-37159436D01*
X76458829Y-37159436D01*
X75914412Y-36615019D01*
X75912634Y-36617374D01*
X75912633Y-36617375D01*
X75821765Y-36799862D01*
X75821762Y-36799868D01*
X75765976Y-36995939D01*
X75765975Y-36995942D01*
X75747166Y-37198931D01*
X56490235Y-37198931D01*
X56490235Y-37077644D01*
X56458573Y-36837143D01*
X56395789Y-36602832D01*
X56302959Y-36378720D01*
X56237124Y-36264690D01*
X76271190Y-36264690D01*
X76851879Y-36845378D01*
X76851880Y-36845378D01*
X77432566Y-36264690D01*
X77344292Y-36210033D01*
X77344290Y-36210032D01*
X77154200Y-36136392D01*
X76953807Y-36098932D01*
X76749951Y-36098932D01*
X76549557Y-36136392D01*
X76359467Y-36210032D01*
X76359460Y-36210036D01*
X76271191Y-36264689D01*
X76271190Y-36264690D01*
X56237124Y-36264690D01*
X56181671Y-36168643D01*
X56034000Y-35976194D01*
X56033995Y-35976188D01*
X55862478Y-35804671D01*
X55862471Y-35804665D01*
X55670028Y-35656999D01*
X55670027Y-35656998D01*
X55670024Y-35656996D01*
X55459947Y-35535708D01*
X55389889Y-35506689D01*
X55235839Y-35442879D01*
X55001520Y-35380093D01*
X54761024Y-35348432D01*
X54761023Y-35348432D01*
X54518447Y-35348432D01*
X54518446Y-35348432D01*
X54277949Y-35380093D01*
X54043630Y-35442879D01*
X53819529Y-35535705D01*
X53819520Y-35535709D01*
X53609441Y-35656999D01*
X53416998Y-35804665D01*
X53416991Y-35804671D01*
X53245474Y-35976188D01*
X53245468Y-35976195D01*
X53097802Y-36168638D01*
X52976512Y-36378717D01*
X52976508Y-36378726D01*
X52883682Y-36602827D01*
X52820896Y-36837146D01*
X52789235Y-37077643D01*
X51164108Y-37077643D01*
X51166294Y-37033137D01*
X51178384Y-36786993D01*
X51179577Y-36774888D01*
X51197582Y-36653504D01*
X51228179Y-36447227D01*
X51230552Y-36435299D01*
X51311039Y-36113970D01*
X51314560Y-36102359D01*
X51426163Y-35790448D01*
X51430817Y-35779214D01*
X51435501Y-35769312D01*
X51572441Y-35479773D01*
X51578168Y-35469057D01*
X51748474Y-35184917D01*
X51755214Y-35174829D01*
X51952557Y-34908742D01*
X51960260Y-34899357D01*
X52182730Y-34653899D01*
X52191300Y-34645329D01*
X52436759Y-34422859D01*
X52446144Y-34415156D01*
X52712232Y-34217812D01*
X52722320Y-34211072D01*
X53006459Y-34040767D01*
X53017175Y-34035040D01*
X53316624Y-33893412D01*
X53327850Y-33888762D01*
X53639768Y-33777157D01*
X53651373Y-33773638D01*
X53972703Y-33693151D01*
X53984629Y-33690779D01*
X54312295Y-33642176D01*
X54324395Y-33640984D01*
X54658363Y-33624580D01*
X54664437Y-33624432D01*
X54727223Y-33624433D01*
X54727227Y-33624432D01*
X146595439Y-33624432D01*
X146658278Y-33624432D01*
X146664363Y-33624581D01*
G37*
G04 #@! TD.AperFunction*
M02*
